<?xml version="1.0" encoding="UTF-8" standalone="no"?>
<!DOCTYPE svg PUBLIC "-//W3C//DTD SVG 1.1//EN"
 "http://www.w3.org/Graphics/SVG/1.1/DTD/svg11.dtd">
<!-- Generated by graphviz version 2.40.1 (20161225.0304)
 -->
<!-- Title: meower_app Pages: 1 -->
<svg width="393pt" height="309pt"
 viewBox="0.00 0.00 393.00 309.00" xmlns="http://www.w3.org/2000/svg" xmlns:xlink="http://www.w3.org/1999/xlink">
<g id="graph0" class="graph" transform="scale(1 1) rotate(0) translate(4 305)">
<title>meower_app</title>
<polygon fill="#ffffff" stroke="transparent" points="-4,4 -4,-305 389,-305 389,4 -4,4"/>
<!-- public.user_token -->
<g id="node1" class="node">
<title>public.user_token</title>
<polygon fill="#efefef" stroke="transparent" points="43.5,-222.5 43.5,-257.5 342.5,-257.5 342.5,-222.5 43.5,-222.5"/>
<polygon fill="none" stroke="#000000" points="43.5,-222.5 43.5,-257.5 342.5,-257.5 342.5,-222.5 43.5,-222.5"/>
<text text-anchor="start" x="58.6956" y="-235.3" font-family="Arial Bold" font-size="18.00" fill="#000000">public.user_token</text>
<text text-anchor="start" x="199.7364" y="-235.3" font-family="Arial" font-size="14.00" fill="#000000">    </text>
<text text-anchor="start" x="233.9412" y="-235.3" font-family="Arial" font-size="14.00" fill="#666666">[BASE TABLE]</text>
<polygon fill="none" stroke="#000000" points="43.5,-192.5 43.5,-222.5 342.5,-222.5 342.5,-192.5 43.5,-192.5"/>
<text text-anchor="start" x="50.5" y="-203.9" font-family="Arial" font-size="14.00" fill="#000000">user_token_id    </text>
<text text-anchor="start" x="172.6234" y="-203.9" font-family="Arial" font-size="14.00" fill="#666666">[bigint]</text>
<polygon fill="none" stroke="#000000" points="43.5,-162.5 43.5,-192.5 342.5,-192.5 342.5,-162.5 43.5,-162.5"/>
<text text-anchor="start" x="50.5" y="-173.9" font-family="Arial" font-size="14.00" fill="#000000">token    </text>
<text text-anchor="start" x="118.9432" y="-173.9" font-family="Arial" font-size="14.00" fill="#666666">[varchar(255)]</text>
<polygon fill="none" stroke="#000000" points="43.5,-132.5 43.5,-162.5 342.5,-162.5 342.5,-132.5 43.5,-132.5"/>
<text text-anchor="start" x="50.5" y="-143.9" font-family="Arial" font-size="14.00" fill="#000000">access_token    </text>
<text text-anchor="start" x="170.291" y="-143.9" font-family="Arial" font-size="14.00" fill="#666666">[text]</text>
<polygon fill="none" stroke="#000000" points="43.5,-102.5 43.5,-132.5 342.5,-132.5 342.5,-102.5 43.5,-102.5"/>
<text text-anchor="start" x="50.5" y="-113.9" font-family="Arial" font-size="14.00" fill="#000000">refresh_token    </text>
<text text-anchor="start" x="170.2854" y="-113.9" font-family="Arial" font-size="14.00" fill="#666666">[varchar(255)]</text>
<polygon fill="none" stroke="#000000" points="43.5,-72.5 43.5,-102.5 342.5,-102.5 342.5,-72.5 43.5,-72.5"/>
<text text-anchor="start" x="50.2588" y="-83.9" font-family="Arial" font-size="14.00" fill="#000000">created_at    </text>
<text text-anchor="start" x="150.601" y="-83.9" font-family="Arial" font-size="14.00" fill="#666666">[timestamp without time zone]</text>
<polygon fill="none" stroke="#000000" points="43.5,-42.5 43.5,-72.5 342.5,-72.5 342.5,-42.5 43.5,-42.5"/>
<text text-anchor="start" x="50.5" y="-53.9" font-family="Arial" font-size="14.00" fill="#000000">expired_at    </text>
<text text-anchor="start" x="150.0582" y="-53.9" font-family="Arial" font-size="14.00" fill="#666666">[timestamp without time zone]</text>
</g>
</g>
</svg>
