<?xml version="1.0" encoding="UTF-8" standalone="no"?>
<!DOCTYPE svg PUBLIC "-//W3C//DTD SVG 1.1//EN"
 "http://www.w3.org/Graphics/SVG/1.1/DTD/svg11.dtd">
<!-- Generated by graphviz version 2.40.1 (20161225.0304)
 -->
<!-- Title: public.task Pages: 1 -->
<svg width="828pt" height="1019pt"
 viewBox="0.00 0.00 828.00 1019.00" xmlns="http://www.w3.org/2000/svg" xmlns:xlink="http://www.w3.org/1999/xlink">
<g id="graph0" class="graph" transform="scale(1 1) rotate(0) translate(4 1015)">
<title>public.task</title>
<polygon fill="#ffffff" stroke="transparent" points="-4,4 -4,-1015 824,-1015 824,4 -4,4"/>
<!-- public.task -->
<g id="node1" class="node">
<title>public.task</title>
<polygon fill="#efefef" stroke="transparent" points="267.5,-682.5 267.5,-717.5 540.5,-717.5 540.5,-682.5 267.5,-682.5"/>
<polygon fill="none" stroke="#000000" points="267.5,-682.5 267.5,-717.5 540.5,-717.5 540.5,-682.5 267.5,-682.5"/>
<text text-anchor="start" x="297.7072" y="-695.3" font-family="Arial Bold" font-size="18.00" fill="#000000">public.task</text>
<text text-anchor="start" x="382.7248" y="-695.3" font-family="Arial" font-size="14.00" fill="#000000">    </text>
<text text-anchor="start" x="416.9296" y="-695.3" font-family="Arial" font-size="14.00" fill="#666666">[BASE TABLE]</text>
<polygon fill="none" stroke="#000000" points="267.5,-652.5 267.5,-682.5 540.5,-682.5 540.5,-652.5 267.5,-652.5"/>
<text text-anchor="start" x="274.5" y="-663.9" font-family="Arial" font-size="14.00" fill="#000000">task_id </text>
<text text-anchor="start" x="322.7356" y="-663.9" font-family="Arial" font-size="14.00" fill="#666666">[bigint]</text>
<polygon fill="none" stroke="#000000" points="267.5,-622.5 267.5,-652.5 540.5,-652.5 540.5,-622.5 267.5,-622.5"/>
<text text-anchor="start" x="274.5" y="-633.9" font-family="Arial" font-size="14.00" fill="#000000">project_id </text>
<text text-anchor="start" x="339.068" y="-633.9" font-family="Arial" font-size="14.00" fill="#666666">[bigint]</text>
<polygon fill="none" stroke="#000000" points="267.5,-592.5 267.5,-622.5 540.5,-622.5 540.5,-592.5 267.5,-592.5"/>
<text text-anchor="start" x="274.5" y="-603.9" font-family="Arial" font-size="14.00" fill="#000000">owner_user_account_id </text>
<text text-anchor="start" x="426.9894" y="-603.9" font-family="Arial" font-size="14.00" fill="#666666">[bigint]</text>
<polygon fill="none" stroke="#000000" points="267.5,-562.5 267.5,-592.5 540.5,-592.5 540.5,-562.5 267.5,-562.5"/>
<text text-anchor="start" x="274.5" y="-573.9" font-family="Arial" font-size="14.00" fill="#000000">title </text>
<text text-anchor="start" x="300.1676" y="-573.9" font-family="Arial" font-size="14.00" fill="#666666">[varchar(255)]</text>
<polygon fill="none" stroke="#000000" points="267.5,-532.5 267.5,-562.5 540.5,-562.5 540.5,-532.5 267.5,-532.5"/>
<text text-anchor="start" x="274.5" y="-543.9" font-family="Arial" font-size="14.00" fill="#000000">content </text>
<text text-anchor="start" x="324.3022" y="-543.9" font-family="Arial" font-size="14.00" fill="#666666">[text]</text>
<polygon fill="none" stroke="#000000" points="267.5,-502.5 267.5,-532.5 540.5,-532.5 540.5,-502.5 267.5,-502.5"/>
<text text-anchor="start" x="274.5" y="-513.9" font-family="Arial" font-size="14.00" fill="#000000">created_at </text>
<text text-anchor="start" x="344.528" y="-513.9" font-family="Arial" font-size="14.00" fill="#666666">[timestamp without time zone]</text>
<polygon fill="none" stroke="#000000" points="267.5,-472.5 267.5,-502.5 540.5,-502.5 540.5,-472.5 267.5,-472.5"/>
<text text-anchor="start" x="274.4636" y="-483.9" font-family="Arial" font-size="14.00" fill="#000000">updated_at </text>
<text text-anchor="start" x="348.3962" y="-483.9" font-family="Arial" font-size="14.00" fill="#666666">[timestamp without time zone]</text>
<polygon fill="none" stroke="#000000" points="267.5,-442.5 267.5,-472.5 540.5,-472.5 540.5,-442.5 267.5,-442.5"/>
<text text-anchor="start" x="274.5" y="-453.9" font-family="Arial" font-size="14.00" fill="#000000">is_deleted </text>
<text text-anchor="start" x="342.19" y="-453.9" font-family="Arial" font-size="14.00" fill="#666666">[boolean]</text>
<polygon fill="none" stroke="#000000" stroke-width="3" points="265.5,-441.5 265.5,-719.5 541.5,-719.5 541.5,-441.5 265.5,-441.5"/>
</g>
<!-- public.project -->
<g id="node3" class="node">
<title>public.project</title>
<polygon fill="#efefef" stroke="transparent" points="43.5,-267.5 43.5,-302.5 346.5,-302.5 346.5,-267.5 43.5,-267.5"/>
<polygon fill="none" stroke="#000000" points="43.5,-267.5 43.5,-302.5 346.5,-302.5 346.5,-267.5 43.5,-267.5"/>
<text text-anchor="start" x="78.2078" y="-280.3" font-family="Arial Bold" font-size="18.00" fill="#000000">public.project</text>
<text text-anchor="start" x="184.2242" y="-280.3" font-family="Arial" font-size="14.00" fill="#000000">    </text>
<text text-anchor="start" x="218.429" y="-280.3" font-family="Arial" font-size="14.00" fill="#666666">[BASE TABLE]</text>
<polygon fill="none" stroke="#000000" points="43.5,-237.5 43.5,-267.5 346.5,-267.5 346.5,-237.5 43.5,-237.5"/>
<text text-anchor="start" x="50.5" y="-248.9" font-family="Arial" font-size="14.00" fill="#000000">project_id    </text>
<text text-anchor="start" x="145.3822" y="-248.9" font-family="Arial" font-size="14.00" fill="#666666">[bigint]</text>
<polygon fill="none" stroke="#000000" points="43.5,-207.5 43.5,-237.5 346.5,-237.5 346.5,-207.5 43.5,-207.5"/>
<text text-anchor="start" x="50.5" y="-218.9" font-family="Arial" font-size="14.00" fill="#000000">project_name    </text>
<text text-anchor="start" x="169.5014" y="-218.9" font-family="Arial" font-size="14.00" fill="#666666">[varchar(255)]</text>
<polygon fill="none" stroke="#000000" points="43.5,-177.5 43.5,-207.5 346.5,-207.5 346.5,-177.5 43.5,-177.5"/>
<text text-anchor="start" x="50.5" y="-188.9" font-family="Arial" font-size="14.00" fill="#000000">display_name    </text>
<text text-anchor="start" x="171.0568" y="-188.9" font-family="Arial" font-size="14.00" fill="#666666">[varchar(255)]</text>
<polygon fill="none" stroke="#000000" points="43.5,-147.5 43.5,-177.5 346.5,-177.5 346.5,-147.5 43.5,-147.5"/>
<text text-anchor="start" x="50.5" y="-158.9" font-family="Arial" font-size="14.00" fill="#000000">workspace_id    </text>
<text text-anchor="start" x="170.2742" y="-158.9" font-family="Arial" font-size="14.00" fill="#666666">[bigint]</text>
<polygon fill="none" stroke="#000000" points="43.5,-117.5 43.5,-147.5 346.5,-147.5 346.5,-117.5 43.5,-117.5"/>
<text text-anchor="start" x="50.5" y="-128.9" font-family="Arial" font-size="14.00" fill="#000000">created_at    </text>
<text text-anchor="start" x="150.8422" y="-128.9" font-family="Arial" font-size="14.00" fill="#666666">[timestamp without time zone]</text>
<polygon fill="none" stroke="#000000" points="43.5,-87.5 43.5,-117.5 346.5,-117.5 346.5,-87.5 43.5,-87.5"/>
<text text-anchor="start" x="50.3065" y="-98.9" font-family="Arial" font-size="14.00" fill="#000000">updated_at    </text>
<text text-anchor="start" x="154.5533" y="-98.9" font-family="Arial" font-size="14.00" fill="#666666">[timestamp without time zone]</text>
<polygon fill="none" stroke="#000000" points="43.5,-57.5 43.5,-87.5 346.5,-87.5 346.5,-57.5 43.5,-57.5"/>
<text text-anchor="start" x="50.5" y="-68.9" font-family="Arial" font-size="14.00" fill="#000000">is_deleted    </text>
<text text-anchor="start" x="148.5042" y="-68.9" font-family="Arial" font-size="14.00" fill="#666666">[boolean]</text>
</g>
<!-- public.task&#45;&gt;public.project -->
<g id="edge2" class="edge">
<title>public.task:project_id&#45;&gt;public.project:project_id</title>
<path fill="none" stroke="#000000" d="M257.3847,-637.0223C164.3088,-627.8208 218.0677,-487.7501 267.5,-397 287.491,-360.2995 326.509,-382.7005 346.5,-346 366.378,-309.5071 388.0556,-252.5 346.5,-252.5"/>
<polygon fill="#000000" stroke="#000000" points="257.5111,-637.0282 267.2877,-641.995 262.5056,-637.2641 267.5,-637.5 267.5,-637.5 267.5,-637.5 262.5056,-637.2641 267.7123,-633.005 257.5111,-637.0282 257.5111,-637.0282"/>
</g>
<!-- public.user_account -->
<g id="node4" class="node">
<title>public.user_account</title>
<polygon fill="#efefef" stroke="transparent" points="450.5,-282.5 450.5,-317.5 777.5,-317.5 777.5,-282.5 450.5,-282.5"/>
<polygon fill="none" stroke="#000000" points="450.5,-282.5 450.5,-317.5 777.5,-317.5 777.5,-282.5 450.5,-282.5"/>
<text text-anchor="start" x="470.1925" y="-295.3" font-family="Arial Bold" font-size="18.00" fill="#000000">public.user_account</text>
<text text-anchor="start" x="630.2395" y="-295.3" font-family="Arial" font-size="14.00" fill="#000000">    </text>
<text text-anchor="start" x="664.4443" y="-295.3" font-family="Arial" font-size="14.00" fill="#666666">[BASE TABLE]</text>
<polygon fill="none" stroke="#000000" points="450.5,-252.5 450.5,-282.5 777.5,-282.5 777.5,-252.5 450.5,-252.5"/>
<text text-anchor="start" x="457.5" y="-263.9" font-family="Arial" font-size="14.00" fill="#000000">user_account_id    </text>
<text text-anchor="start" x="594.406" y="-263.9" font-family="Arial" font-size="14.00" fill="#666666">[bigint]</text>
<polygon fill="none" stroke="#000000" points="450.5,-222.5 450.5,-252.5 777.5,-252.5 777.5,-222.5 450.5,-222.5"/>
<text text-anchor="start" x="457.5" y="-233.9" font-family="Arial" font-size="14.00" fill="#000000">user_id    </text>
<text text-anchor="start" x="537.6024" y="-233.9" font-family="Arial" font-size="14.00" fill="#666666">[bigint]</text>
<polygon fill="none" stroke="#000000" points="450.5,-192.5 450.5,-222.5 777.5,-222.5 777.5,-192.5 450.5,-192.5"/>
<text text-anchor="start" x="457.5" y="-203.9" font-family="Arial" font-size="14.00" fill="#000000">user_account_name    </text>
<text text-anchor="start" x="618.5252" y="-203.9" font-family="Arial" font-size="14.00" fill="#666666">[varchar(255)]</text>
<polygon fill="none" stroke="#000000" points="450.5,-162.5 450.5,-192.5 777.5,-192.5 777.5,-162.5 450.5,-162.5"/>
<text text-anchor="start" x="457.5" y="-173.9" font-family="Arial" font-size="14.00" fill="#000000">display_name    </text>
<text text-anchor="start" x="578.0568" y="-173.9" font-family="Arial" font-size="14.00" fill="#666666">[varchar(255)]</text>
<polygon fill="none" stroke="#000000" points="450.5,-132.5 450.5,-162.5 777.5,-162.5 777.5,-132.5 450.5,-132.5"/>
<text text-anchor="start" x="457.2553" y="-143.9" font-family="Arial" font-size="14.00" fill="#000000">last_logined_at    </text>
<text text-anchor="start" x="585.6045" y="-143.9" font-family="Arial" font-size="14.00" fill="#666666">[timestamp without time zone]</text>
<polygon fill="none" stroke="#000000" points="450.5,-102.5 450.5,-132.5 777.5,-132.5 777.5,-102.5 450.5,-102.5"/>
<text text-anchor="start" x="457.5" y="-113.9" font-family="Arial" font-size="14.00" fill="#000000">created_at    </text>
<text text-anchor="start" x="557.8422" y="-113.9" font-family="Arial" font-size="14.00" fill="#666666">[timestamp without time zone]</text>
<polygon fill="none" stroke="#000000" points="450.5,-72.5 450.5,-102.5 777.5,-102.5 777.5,-72.5 450.5,-72.5"/>
<text text-anchor="start" x="457.5" y="-83.9" font-family="Arial" font-size="14.00" fill="#000000">updated_at    </text>
<text text-anchor="start" x="561.7468" y="-83.9" font-family="Arial" font-size="14.00" fill="#666666">[timestamp without time zone]</text>
<polygon fill="none" stroke="#000000" points="450.5,-42.5 450.5,-72.5 777.5,-72.5 777.5,-42.5 450.5,-42.5"/>
<text text-anchor="start" x="457.5" y="-53.9" font-family="Arial" font-size="14.00" fill="#000000">is_deleted    </text>
<text text-anchor="start" x="555.5042" y="-53.9" font-family="Arial" font-size="14.00" fill="#666666">[boolean]</text>
</g>
<!-- public.task&#45;&gt;public.user_account -->
<g id="edge3" class="edge">
<title>public.task:owner_user_account_id&#45;&gt;public.user_account:user_account_id</title>
<path fill="none" stroke="#000000" d="M550.8545,-606.9023C630.8269,-597.1918 590.9011,-471.4441 540.5,-397 516.3474,-361.3258 474.6526,-396.6742 450.5,-361 427.2028,-326.5892 408.9444,-267.5 450.5,-267.5"/>
<polygon fill="#000000" stroke="#000000" points="550.4834,-606.9236 540.2406,-603.0075 545.4917,-607.2118 540.5,-607.5 540.5,-607.5 540.5,-607.5 545.4917,-607.2118 540.7594,-611.9925 550.4834,-606.9236 550.4834,-606.9236"/>
</g>
<!-- public.task_member -->
<g id="node2" class="node">
<title>public.task_member</title>
<polygon fill="#efefef" stroke="transparent" points="253.5,-932.5 253.5,-967.5 555.5,-967.5 555.5,-932.5 253.5,-932.5"/>
<polygon fill="none" stroke="#000000" points="253.5,-932.5 253.5,-967.5 555.5,-967.5 555.5,-932.5 253.5,-932.5"/>
<text text-anchor="start" x="260.2065" y="-945.3" font-family="Arial Bold" font-size="18.00" fill="#000000">public.task_member</text>
<text text-anchor="start" x="421.2255" y="-945.3" font-family="Arial" font-size="14.00" fill="#000000">    </text>
<text text-anchor="start" x="455.4303" y="-945.3" font-family="Arial" font-size="14.00" fill="#666666">[BASE TABLE]</text>
<polygon fill="none" stroke="#000000" points="253.5,-902.5 253.5,-932.5 555.5,-932.5 555.5,-902.5 253.5,-902.5"/>
<text text-anchor="start" x="260.5" y="-913.9" font-family="Arial" font-size="14.00" fill="#000000">task_member_id    </text>
<text text-anchor="start" x="398.162" y="-913.9" font-family="Arial" font-size="14.00" fill="#666666">[bigint]</text>
<polygon fill="none" stroke="#000000" points="253.5,-872.5 253.5,-902.5 555.5,-902.5 555.5,-872.5 253.5,-872.5"/>
<text text-anchor="start" x="260.5" y="-883.9" font-family="Arial" font-size="14.00" fill="#000000">task_id    </text>
<text text-anchor="start" x="339.0498" y="-883.9" font-family="Arial" font-size="14.00" fill="#666666">[bigint]</text>
<polygon fill="none" stroke="#000000" points="253.5,-842.5 253.5,-872.5 555.5,-872.5 555.5,-842.5 253.5,-842.5"/>
<text text-anchor="start" x="260.5" y="-853.9" font-family="Arial" font-size="14.00" fill="#000000">user_account_id    </text>
<text text-anchor="start" x="397.406" y="-853.9" font-family="Arial" font-size="14.00" fill="#666666">[bigint]</text>
</g>
<!-- public.task_member&#45;&gt;public.task -->
<g id="edge1" class="edge">
<title>public.task_member:task_id&#45;&gt;public.task:task_id</title>
<path fill="none" stroke="#000000" d="M243.5591,-885.9124C217.301,-876.3837 230.2822,-826.312 253.5,-800 338.5574,-703.6068 455.4426,-860.3932 540.5,-764 568.8771,-731.8411 583.3889,-667.5 540.5,-667.5"/>
<polygon fill="#000000" stroke="#000000" points="243.6251,-885.9228 252.7903,-891.9437 248.5626,-886.7114 253.5,-887.5 253.5,-887.5 253.5,-887.5 248.5626,-886.7114 254.2097,-883.0563 243.6251,-885.9228 243.6251,-885.9228"/>
</g>
</g>
</svg>
