<?xml version="1.0" encoding="UTF-8" standalone="no"?>
<!DOCTYPE svg PUBLIC "-//W3C//DTD SVG 1.1//EN"
 "http://www.w3.org/Graphics/SVG/1.1/DTD/svg11.dtd">
<!-- Generated by graphviz version 2.40.1 (20161225.0304)
 -->
<!-- Title: public.user Pages: 1 -->
<svg width="1738pt" height="682pt"
 viewBox="0.00 0.00 1738.00 682.00" xmlns="http://www.w3.org/2000/svg" xmlns:xlink="http://www.w3.org/1999/xlink">
<g id="graph0" class="graph" transform="scale(1 1) rotate(0) translate(4 678)">
<title>public.user</title>
<polygon fill="#ffffff" stroke="transparent" points="-4,4 -4,-678 1734,-678 1734,4 -4,4"/>
<!-- public.user -->
<g id="node1" class="node">
<title>public.user</title>
<polygon fill="#efefef" stroke="transparent" points="704.5,-195.5 704.5,-230.5 977.5,-230.5 977.5,-195.5 704.5,-195.5"/>
<polygon fill="none" stroke="#000000" points="704.5,-195.5 704.5,-230.5 977.5,-230.5 977.5,-195.5 704.5,-195.5"/>
<text text-anchor="start" x="733.7091" y="-208.3" font-family="Arial Bold" font-size="18.00" fill="#000000">public.user</text>
<text text-anchor="start" x="820.7229" y="-208.3" font-family="Arial" font-size="14.00" fill="#000000">    </text>
<text text-anchor="start" x="854.9277" y="-208.3" font-family="Arial" font-size="14.00" fill="#666666">[BASE TABLE]</text>
<polygon fill="none" stroke="#000000" points="704.5,-165.5 704.5,-195.5 977.5,-195.5 977.5,-165.5 704.5,-165.5"/>
<text text-anchor="start" x="711.5" y="-176.9" font-family="Arial" font-size="14.00" fill="#000000">user_id </text>
<text text-anchor="start" x="761.2882" y="-176.9" font-family="Arial" font-size="14.00" fill="#666666">[bigint]</text>
<polygon fill="none" stroke="#000000" points="704.5,-135.5 704.5,-165.5 977.5,-165.5 977.5,-135.5 704.5,-135.5"/>
<text text-anchor="start" x="711.5" y="-146.9" font-family="Arial" font-size="14.00" fill="#000000">email </text>
<text text-anchor="start" x="748.8296" y="-146.9" font-family="Arial" font-size="14.00" fill="#666666">[varchar(255)]</text>
<polygon fill="none" stroke="#000000" points="704.5,-105.5 704.5,-135.5 977.5,-135.5 977.5,-105.5 704.5,-105.5"/>
<text text-anchor="start" x="711.5" y="-116.9" font-family="Arial" font-size="14.00" fill="#000000">created_at </text>
<text text-anchor="start" x="781.528" y="-116.9" font-family="Arial" font-size="14.00" fill="#666666">[timestamp without time zone]</text>
<polygon fill="none" stroke="#000000" points="704.5,-75.5 704.5,-105.5 977.5,-105.5 977.5,-75.5 704.5,-75.5"/>
<text text-anchor="start" x="711.4636" y="-86.9" font-family="Arial" font-size="14.00" fill="#000000">updated_at </text>
<text text-anchor="start" x="785.3962" y="-86.9" font-family="Arial" font-size="14.00" fill="#666666">[timestamp without time zone]</text>
<polygon fill="none" stroke="#000000" points="704.5,-45.5 704.5,-75.5 977.5,-75.5 977.5,-45.5 704.5,-45.5"/>
<text text-anchor="start" x="711.5" y="-56.9" font-family="Arial" font-size="14.00" fill="#000000">is_deleted </text>
<text text-anchor="start" x="779.19" y="-56.9" font-family="Arial" font-size="14.00" fill="#666666">[boolean]</text>
<polygon fill="none" stroke="#000000" stroke-width="3" points="702.5,-44.5 702.5,-232.5 978.5,-232.5 978.5,-44.5 702.5,-44.5"/>
</g>
<!-- public.user_auth -->
<g id="node2" class="node">
<title>public.user_auth</title>
<polygon fill="#efefef" stroke="transparent" points="43.5,-550.5 43.5,-585.5 346.5,-585.5 346.5,-550.5 43.5,-550.5"/>
<polygon fill="none" stroke="#000000" points="43.5,-550.5 43.5,-585.5 346.5,-585.5 346.5,-550.5 43.5,-550.5"/>
<text text-anchor="start" x="65.1956" y="-563.3" font-family="Arial Bold" font-size="18.00" fill="#000000">public.user_auth</text>
<text text-anchor="start" x="197.2364" y="-563.3" font-family="Arial" font-size="14.00" fill="#000000">    </text>
<text text-anchor="start" x="231.4412" y="-563.3" font-family="Arial" font-size="14.00" fill="#666666">[BASE TABLE]</text>
<polygon fill="none" stroke="#000000" points="43.5,-520.5 43.5,-550.5 346.5,-550.5 346.5,-520.5 43.5,-520.5"/>
<text text-anchor="start" x="50.5" y="-531.9" font-family="Arial" font-size="14.00" fill="#000000">user_auth_id    </text>
<text text-anchor="start" x="165.6234" y="-531.9" font-family="Arial" font-size="14.00" fill="#666666">[bigint]</text>
<polygon fill="none" stroke="#000000" points="43.5,-490.5 43.5,-520.5 346.5,-520.5 346.5,-490.5 43.5,-490.5"/>
<text text-anchor="start" x="50.5" y="-501.9" font-family="Arial" font-size="14.00" fill="#000000">user_id    </text>
<text text-anchor="start" x="130.6024" y="-501.9" font-family="Arial" font-size="14.00" fill="#666666">[bigint]</text>
<polygon fill="none" stroke="#000000" points="43.5,-460.5 43.5,-490.5 346.5,-490.5 346.5,-460.5 43.5,-460.5"/>
<text text-anchor="start" x="50.5" y="-471.9" font-family="Arial" font-size="14.00" fill="#000000">password    </text>
<text text-anchor="start" x="144.6024" y="-471.9" font-family="Arial" font-size="14.00" fill="#666666">[varchar(255)]</text>
<polygon fill="none" stroke="#000000" points="43.5,-430.5 43.5,-460.5 346.5,-460.5 346.5,-430.5 43.5,-430.5"/>
<text text-anchor="start" x="50.5" y="-441.9" font-family="Arial" font-size="14.00" fill="#000000">created_at    </text>
<text text-anchor="start" x="150.8422" y="-441.9" font-family="Arial" font-size="14.00" fill="#666666">[timestamp without time zone]</text>
<polygon fill="none" stroke="#000000" points="43.5,-400.5 43.5,-430.5 346.5,-430.5 346.5,-400.5 43.5,-400.5"/>
<text text-anchor="start" x="50.3065" y="-411.9" font-family="Arial" font-size="14.00" fill="#000000">updated_at    </text>
<text text-anchor="start" x="154.5533" y="-411.9" font-family="Arial" font-size="14.00" fill="#666666">[timestamp without time zone]</text>
</g>
<!-- public.user_auth&#45;&gt;public.user -->
<g id="edge1" class="edge">
<title>public.user_auth:user_id&#45;&gt;public.user:user_id</title>
<path fill="none" stroke="#000000" d="M356.4862,-504.8796C427.449,-495.3077 342.0991,-377.3028 397.5,-313 494.5008,-200.413 555.8898,-180.5 704.5,-180.5"/>
<polygon fill="#000000" stroke="#000000" points="356.4808,-504.8798 346.2209,-501.0087 351.4904,-505.1899 346.5,-505.5 346.5,-505.5 346.5,-505.5 351.4904,-505.1899 346.7791,-509.9913 356.4808,-504.8798 356.4808,-504.8798"/>
</g>
<!-- public.user_account -->
<g id="node3" class="node">
<title>public.user_account</title>
<polygon fill="#efefef" stroke="transparent" points="450.5,-595.5 450.5,-630.5 777.5,-630.5 777.5,-595.5 450.5,-595.5"/>
<polygon fill="none" stroke="#000000" points="450.5,-595.5 450.5,-630.5 777.5,-630.5 777.5,-595.5 450.5,-595.5"/>
<text text-anchor="start" x="470.1925" y="-608.3" font-family="Arial Bold" font-size="18.00" fill="#000000">public.user_account</text>
<text text-anchor="start" x="630.2395" y="-608.3" font-family="Arial" font-size="14.00" fill="#000000">    </text>
<text text-anchor="start" x="664.4443" y="-608.3" font-family="Arial" font-size="14.00" fill="#666666">[BASE TABLE]</text>
<polygon fill="none" stroke="#000000" points="450.5,-565.5 450.5,-595.5 777.5,-595.5 777.5,-565.5 450.5,-565.5"/>
<text text-anchor="start" x="457.5" y="-576.9" font-family="Arial" font-size="14.00" fill="#000000">user_account_id    </text>
<text text-anchor="start" x="594.406" y="-576.9" font-family="Arial" font-size="14.00" fill="#666666">[bigint]</text>
<polygon fill="none" stroke="#000000" points="450.5,-535.5 450.5,-565.5 777.5,-565.5 777.5,-535.5 450.5,-535.5"/>
<text text-anchor="start" x="457.5" y="-546.9" font-family="Arial" font-size="14.00" fill="#000000">user_id    </text>
<text text-anchor="start" x="537.6024" y="-546.9" font-family="Arial" font-size="14.00" fill="#666666">[bigint]</text>
<polygon fill="none" stroke="#000000" points="450.5,-505.5 450.5,-535.5 777.5,-535.5 777.5,-505.5 450.5,-505.5"/>
<text text-anchor="start" x="457.5" y="-516.9" font-family="Arial" font-size="14.00" fill="#000000">user_account_name    </text>
<text text-anchor="start" x="618.5252" y="-516.9" font-family="Arial" font-size="14.00" fill="#666666">[varchar(255)]</text>
<polygon fill="none" stroke="#000000" points="450.5,-475.5 450.5,-505.5 777.5,-505.5 777.5,-475.5 450.5,-475.5"/>
<text text-anchor="start" x="457.5" y="-486.9" font-family="Arial" font-size="14.00" fill="#000000">display_name    </text>
<text text-anchor="start" x="578.0568" y="-486.9" font-family="Arial" font-size="14.00" fill="#666666">[varchar(255)]</text>
<polygon fill="none" stroke="#000000" points="450.5,-445.5 450.5,-475.5 777.5,-475.5 777.5,-445.5 450.5,-445.5"/>
<text text-anchor="start" x="457.2553" y="-456.9" font-family="Arial" font-size="14.00" fill="#000000">last_logined_at    </text>
<text text-anchor="start" x="585.6045" y="-456.9" font-family="Arial" font-size="14.00" fill="#666666">[timestamp without time zone]</text>
<polygon fill="none" stroke="#000000" points="450.5,-415.5 450.5,-445.5 777.5,-445.5 777.5,-415.5 450.5,-415.5"/>
<text text-anchor="start" x="457.5" y="-426.9" font-family="Arial" font-size="14.00" fill="#000000">created_at    </text>
<text text-anchor="start" x="557.8422" y="-426.9" font-family="Arial" font-size="14.00" fill="#666666">[timestamp without time zone]</text>
<polygon fill="none" stroke="#000000" points="450.5,-385.5 450.5,-415.5 777.5,-415.5 777.5,-385.5 450.5,-385.5"/>
<text text-anchor="start" x="457.5" y="-396.9" font-family="Arial" font-size="14.00" fill="#000000">updated_at    </text>
<text text-anchor="start" x="561.7468" y="-396.9" font-family="Arial" font-size="14.00" fill="#666666">[timestamp without time zone]</text>
<polygon fill="none" stroke="#000000" points="450.5,-355.5 450.5,-385.5 777.5,-385.5 777.5,-355.5 450.5,-355.5"/>
<text text-anchor="start" x="457.5" y="-366.9" font-family="Arial" font-size="14.00" fill="#000000">is_deleted    </text>
<text text-anchor="start" x="555.5042" y="-366.9" font-family="Arial" font-size="14.00" fill="#666666">[boolean]</text>
</g>
<!-- public.user_account&#45;&gt;public.user -->
<g id="edge2" class="edge">
<title>public.user_account:user_id&#45;&gt;public.user:user_id</title>
<path fill="none" stroke="#000000" d="M787.5066,-547.7606C826.7605,-524.1352 803.4105,-354.6677 777.5,-313 758.3971,-282.2799 723.6029,-307.7201 704.5,-277 681.8518,-240.5786 661.6111,-180.5 704.5,-180.5"/>
<polygon fill="#000000" stroke="#000000" points="787.1451,-547.8595 776.3118,-546.1597 782.3226,-549.1798 777.5,-550.5 777.5,-550.5 777.5,-550.5 782.3226,-549.1798 778.6882,-554.8403 787.1451,-547.8595 787.1451,-547.8595"/>
</g>
<!-- public.reset_password_token -->
<g id="node4" class="node">
<title>public.reset_password_token</title>
<polygon fill="#efefef" stroke="transparent" points="881.5,-550.5 881.5,-585.5 1255.5,-585.5 1255.5,-550.5 881.5,-550.5"/>
<polygon fill="none" stroke="#000000" points="881.5,-550.5 881.5,-585.5 1255.5,-585.5 1255.5,-550.5 881.5,-550.5"/>
<text text-anchor="start" x="888.1858" y="-563.3" font-family="Arial Bold" font-size="18.00" fill="#000000">public.reset_password_token</text>
<text text-anchor="start" x="1121.2462" y="-563.3" font-family="Arial" font-size="14.00" fill="#000000">    </text>
<text text-anchor="start" x="1155.451" y="-563.3" font-family="Arial" font-size="14.00" fill="#666666">[BASE TABLE]</text>
<polygon fill="none" stroke="#000000" points="881.5,-520.5 881.5,-550.5 1255.5,-550.5 1255.5,-520.5 881.5,-520.5"/>
<text text-anchor="start" x="888.5" y="-531.9" font-family="Arial" font-size="14.00" fill="#000000">reset_password_token_id    </text>
<text text-anchor="start" x="1082.1942" y="-531.9" font-family="Arial" font-size="14.00" fill="#666666">[bigint]</text>
<polygon fill="none" stroke="#000000" points="881.5,-490.5 881.5,-520.5 1255.5,-520.5 1255.5,-490.5 881.5,-490.5"/>
<text text-anchor="start" x="888.5" y="-501.9" font-family="Arial" font-size="14.00" fill="#000000">user_id    </text>
<text text-anchor="start" x="968.6024" y="-501.9" font-family="Arial" font-size="14.00" fill="#666666">[bigint]</text>
<polygon fill="none" stroke="#000000" points="881.5,-460.5 881.5,-490.5 1255.5,-490.5 1255.5,-460.5 881.5,-460.5"/>
<text text-anchor="start" x="888.5" y="-471.9" font-family="Arial" font-size="14.00" fill="#000000">token    </text>
<text text-anchor="start" x="956.9432" y="-471.9" font-family="Arial" font-size="14.00" fill="#666666">[varchar(255)]</text>
<polygon fill="none" stroke="#000000" points="881.5,-430.5 881.5,-460.5 1255.5,-460.5 1255.5,-430.5 881.5,-430.5"/>
<text text-anchor="start" x="888.5" y="-441.9" font-family="Arial" font-size="14.00" fill="#000000">created_at    </text>
<text text-anchor="start" x="988.8422" y="-441.9" font-family="Arial" font-size="14.00" fill="#666666">[timestamp without time zone]</text>
<polygon fill="none" stroke="#000000" points="881.5,-400.5 881.5,-430.5 1255.5,-430.5 1255.5,-400.5 881.5,-400.5"/>
<text text-anchor="start" x="888.5" y="-411.9" font-family="Arial" font-size="14.00" fill="#000000">expired_at    </text>
<text text-anchor="start" x="988.0582" y="-411.9" font-family="Arial" font-size="14.00" fill="#666666">[timestamp without time zone]</text>
</g>
<!-- public.reset_password_token&#45;&gt;public.user -->
<g id="edge3" class="edge">
<title>public.reset_password_token:user_id&#45;&gt;public.user:user_id</title>
<path fill="none" stroke="#000000" d="M871.336,-504.6738C820.2083,-495.6175 855.4406,-414.0838 881.5,-358 905.0238,-307.3732 953.9762,-327.6268 977.5,-277 995.5727,-238.1048 1020.3889,-180.5 977.5,-180.5"/>
<polygon fill="#000000" stroke="#000000" points="871.5329,-504.6897 881.1354,-509.9852 876.5164,-505.0948 881.5,-505.5 881.5,-505.5 881.5,-505.5 876.5164,-505.0948 881.8646,-501.0148 871.5329,-504.6897 871.5329,-504.6897"/>
</g>
<!-- public.user_jwt_subject -->
<g id="node5" class="node">
<title>public.user_jwt_subject</title>
<polygon fill="#efefef" stroke="transparent" points="1360.5,-535.5 1360.5,-570.5 1687.5,-570.5 1687.5,-535.5 1360.5,-535.5"/>
<polygon fill="none" stroke="#000000" points="1360.5,-535.5 1360.5,-570.5 1687.5,-570.5 1687.5,-535.5 1360.5,-535.5"/>
<text text-anchor="start" x="1367.2001" y="-548.3" font-family="Arial Bold" font-size="18.00" fill="#000000">public.user_jwt_subject</text>
<text text-anchor="start" x="1553.2319" y="-548.3" font-family="Arial" font-size="14.00" fill="#000000">    </text>
<text text-anchor="start" x="1587.4367" y="-548.3" font-family="Arial" font-size="14.00" fill="#666666">[BASE TABLE]</text>
<polygon fill="none" stroke="#000000" points="1360.5,-505.5 1360.5,-535.5 1687.5,-535.5 1687.5,-505.5 1360.5,-505.5"/>
<text text-anchor="start" x="1367.5" y="-516.9" font-family="Arial" font-size="14.00" fill="#000000">user_jwt_subject_id    </text>
<text text-anchor="start" x="1524.6164" y="-516.9" font-family="Arial" font-size="14.00" fill="#666666">[bigint]</text>
<polygon fill="none" stroke="#000000" points="1360.5,-475.5 1360.5,-505.5 1687.5,-505.5 1687.5,-475.5 1360.5,-475.5"/>
<text text-anchor="start" x="1367.5" y="-486.9" font-family="Arial" font-size="14.00" fill="#000000">user_id    </text>
<text text-anchor="start" x="1447.6024" y="-486.9" font-family="Arial" font-size="14.00" fill="#666666">[bigint]</text>
<polygon fill="none" stroke="#000000" points="1360.5,-445.5 1360.5,-475.5 1687.5,-475.5 1687.5,-445.5 1360.5,-445.5"/>
<text text-anchor="start" x="1367.5" y="-456.9" font-family="Arial" font-size="14.00" fill="#000000">subject    </text>
<text text-anchor="start" x="1446.0498" y="-456.9" font-family="Arial" font-size="14.00" fill="#666666">[varchar(255)]</text>
<polygon fill="none" stroke="#000000" points="1360.5,-415.5 1360.5,-445.5 1687.5,-445.5 1687.5,-415.5 1360.5,-415.5"/>
<text text-anchor="start" x="1367.5" y="-426.9" font-family="Arial" font-size="14.00" fill="#000000">created_at    </text>
<text text-anchor="start" x="1467.8422" y="-426.9" font-family="Arial" font-size="14.00" fill="#666666">[timestamp without time zone]</text>
</g>
<!-- public.user_jwt_subject&#45;&gt;public.user -->
<g id="edge4" class="edge">
<title>public.user_jwt_subject:user_id&#45;&gt;public.user:user_id</title>
<path fill="none" stroke="#000000" d="M1350.3887,-489.8093C1285.5068,-480.1299 1360.496,-371.0899 1307.5,-313 1200.9802,-196.2415 1135.5475,-180.5 977.5,-180.5"/>
<polygon fill="#000000" stroke="#000000" points="1350.5233,-489.8184 1360.1933,-494.9895 1355.5116,-490.1592 1360.5,-490.5 1360.5,-490.5 1360.5,-490.5 1355.5116,-490.1592 1360.8067,-486.0105 1350.5233,-489.8184 1350.5233,-489.8184"/>
</g>
</g>
</svg>
