<?xml version="1.0" encoding="UTF-8" standalone="no"?>
<!DOCTYPE svg PUBLIC "-//W3C//DTD SVG 1.1//EN"
 "http://www.w3.org/Graphics/SVG/1.1/DTD/svg11.dtd">
<!-- Generated by graphviz version 2.40.1 (20161225.0304)
 -->
<!-- Title: public.user_account Pages: 1 -->
<svg width="3126pt" height="1139pt"
 viewBox="0.00 0.00 3126.00 1139.00" xmlns="http://www.w3.org/2000/svg" xmlns:xlink="http://www.w3.org/1999/xlink">
<g id="graph0" class="graph" transform="scale(1 1) rotate(0) translate(4 1135)">
<title>public.user_account</title>
<polygon fill="#ffffff" stroke="transparent" points="-4,4 -4,-1135 3122,-1135 3122,4 -4,4"/>
<!-- public.user_account -->
<g id="node1" class="node">
<title>public.user_account</title>
<polygon fill="#efefef" stroke="transparent" points="1401.5,-592.5 1401.5,-627.5 1702.5,-627.5 1702.5,-592.5 1401.5,-592.5"/>
<polygon fill="none" stroke="#000000" points="1401.5,-592.5 1401.5,-627.5 1702.5,-627.5 1702.5,-592.5 1401.5,-592.5"/>
<text text-anchor="start" x="1408.1925" y="-605.3" font-family="Arial Bold" font-size="18.00" fill="#000000">public.user_account</text>
<text text-anchor="start" x="1568.2395" y="-605.3" font-family="Arial" font-size="14.00" fill="#000000">    </text>
<text text-anchor="start" x="1602.4443" y="-605.3" font-family="Arial" font-size="14.00" fill="#666666">[BASE TABLE]</text>
<polygon fill="none" stroke="#000000" points="1401.5,-562.5 1401.5,-592.5 1702.5,-592.5 1702.5,-562.5 1401.5,-562.5"/>
<text text-anchor="start" x="1408.5" y="-573.9" font-family="Arial" font-size="14.00" fill="#000000">user_account_id </text>
<text text-anchor="start" x="1515.0918" y="-573.9" font-family="Arial" font-size="14.00" fill="#666666">[bigint]</text>
<polygon fill="none" stroke="#000000" points="1401.5,-532.5 1401.5,-562.5 1702.5,-562.5 1702.5,-532.5 1401.5,-532.5"/>
<text text-anchor="start" x="1408.5" y="-543.9" font-family="Arial" font-size="14.00" fill="#000000">user_id </text>
<text text-anchor="start" x="1458.2882" y="-543.9" font-family="Arial" font-size="14.00" fill="#666666">[bigint]</text>
<polygon fill="none" stroke="#000000" points="1401.5,-502.5 1401.5,-532.5 1702.5,-532.5 1702.5,-502.5 1401.5,-502.5"/>
<text text-anchor="start" x="1408.5" y="-513.9" font-family="Arial" font-size="14.00" fill="#000000">user_account_name </text>
<text text-anchor="start" x="1539.211" y="-513.9" font-family="Arial" font-size="14.00" fill="#666666">[varchar(255)]</text>
<polygon fill="none" stroke="#000000" points="1401.5,-472.5 1401.5,-502.5 1702.5,-502.5 1702.5,-472.5 1401.5,-472.5"/>
<text text-anchor="start" x="1408.5" y="-483.9" font-family="Arial" font-size="14.00" fill="#000000">display_name </text>
<text text-anchor="start" x="1498.7426" y="-483.9" font-family="Arial" font-size="14.00" fill="#666666">[varchar(255)]</text>
<polygon fill="none" stroke="#000000" points="1401.5,-442.5 1401.5,-472.5 1702.5,-472.5 1702.5,-442.5 1401.5,-442.5"/>
<text text-anchor="start" x="1408.5" y="-453.9" font-family="Arial" font-size="14.00" fill="#000000">last_logined_at </text>
<text text-anchor="start" x="1506.535" y="-453.9" font-family="Arial" font-size="14.00" fill="#666666">[timestamp without time zone]</text>
<polygon fill="none" stroke="#000000" points="1401.5,-412.5 1401.5,-442.5 1702.5,-442.5 1702.5,-412.5 1401.5,-412.5"/>
<text text-anchor="start" x="1408.5" y="-423.9" font-family="Arial" font-size="14.00" fill="#000000">created_at </text>
<text text-anchor="start" x="1478.528" y="-423.9" font-family="Arial" font-size="14.00" fill="#666666">[timestamp without time zone]</text>
<polygon fill="none" stroke="#000000" points="1401.5,-382.5 1401.5,-412.5 1702.5,-412.5 1702.5,-382.5 1401.5,-382.5"/>
<text text-anchor="start" x="1408.5" y="-393.9" font-family="Arial" font-size="14.00" fill="#000000">updated_at </text>
<text text-anchor="start" x="1482.4326" y="-393.9" font-family="Arial" font-size="14.00" fill="#666666">[timestamp without time zone]</text>
<polygon fill="none" stroke="#000000" points="1401.5,-352.5 1401.5,-382.5 1702.5,-382.5 1702.5,-352.5 1401.5,-352.5"/>
<text text-anchor="start" x="1408.5" y="-363.9" font-family="Arial" font-size="14.00" fill="#000000">is_deleted </text>
<text text-anchor="start" x="1476.19" y="-363.9" font-family="Arial" font-size="14.00" fill="#666666">[boolean]</text>
<polygon fill="none" stroke="#000000" stroke-width="3" points="1399.5,-351.5 1399.5,-629.5 1703.5,-629.5 1703.5,-351.5 1399.5,-351.5"/>
</g>
<!-- public.user -->
<g id="node9" class="node">
<title>public.user</title>
<polygon fill="#efefef" stroke="transparent" points="1400.5,-192.5 1400.5,-227.5 1703.5,-227.5 1703.5,-192.5 1400.5,-192.5"/>
<polygon fill="none" stroke="#000000" points="1400.5,-192.5 1400.5,-227.5 1703.5,-227.5 1703.5,-192.5 1400.5,-192.5"/>
<text text-anchor="start" x="1444.7091" y="-205.3" font-family="Arial Bold" font-size="18.00" fill="#000000">public.user</text>
<text text-anchor="start" x="1531.7229" y="-205.3" font-family="Arial" font-size="14.00" fill="#000000">    </text>
<text text-anchor="start" x="1565.9277" y="-205.3" font-family="Arial" font-size="14.00" fill="#666666">[BASE TABLE]</text>
<polygon fill="none" stroke="#000000" points="1400.5,-162.5 1400.5,-192.5 1703.5,-192.5 1703.5,-162.5 1400.5,-162.5"/>
<text text-anchor="start" x="1407.5" y="-173.9" font-family="Arial" font-size="14.00" fill="#000000">user_id    </text>
<text text-anchor="start" x="1487.6024" y="-173.9" font-family="Arial" font-size="14.00" fill="#666666">[bigint]</text>
<polygon fill="none" stroke="#000000" points="1400.5,-132.5 1400.5,-162.5 1703.5,-162.5 1703.5,-132.5 1400.5,-132.5"/>
<text text-anchor="start" x="1407.5" y="-143.9" font-family="Arial" font-size="14.00" fill="#000000">email    </text>
<text text-anchor="start" x="1475.1438" y="-143.9" font-family="Arial" font-size="14.00" fill="#666666">[varchar(255)]</text>
<polygon fill="none" stroke="#000000" points="1400.5,-102.5 1400.5,-132.5 1703.5,-132.5 1703.5,-102.5 1400.5,-102.5"/>
<text text-anchor="start" x="1407.5" y="-113.9" font-family="Arial" font-size="14.00" fill="#000000">created_at    </text>
<text text-anchor="start" x="1507.8422" y="-113.9" font-family="Arial" font-size="14.00" fill="#666666">[timestamp without time zone]</text>
<polygon fill="none" stroke="#000000" points="1400.5,-72.5 1400.5,-102.5 1703.5,-102.5 1703.5,-72.5 1400.5,-72.5"/>
<text text-anchor="start" x="1407.3065" y="-83.9" font-family="Arial" font-size="14.00" fill="#000000">updated_at    </text>
<text text-anchor="start" x="1511.5533" y="-83.9" font-family="Arial" font-size="14.00" fill="#666666">[timestamp without time zone]</text>
<polygon fill="none" stroke="#000000" points="1400.5,-42.5 1400.5,-72.5 1703.5,-72.5 1703.5,-42.5 1400.5,-42.5"/>
<text text-anchor="start" x="1407.5" y="-53.9" font-family="Arial" font-size="14.00" fill="#000000">is_deleted    </text>
<text text-anchor="start" x="1505.5042" y="-53.9" font-family="Arial" font-size="14.00" fill="#666666">[boolean]</text>
</g>
<!-- public.user_account&#45;&gt;public.user -->
<g id="edge8" class="edge">
<title>public.user_account:user_id&#45;&gt;public.user:user_id</title>
<path fill="none" stroke="#000000" d="M1391.1274,-546.995C1237.0884,-531.7723 1239.588,-177.5 1400.5,-177.5"/>
<polygon fill="#000000" stroke="#000000" points="1391.5118,-547.0136 1401.2811,-551.9947 1396.5059,-547.2568 1401.5,-547.5 1401.5,-547.5 1401.5,-547.5 1396.5059,-547.2568 1401.7189,-543.0053 1391.5118,-547.0136 1391.5118,-547.0136"/>
</g>
<!-- public.organization_member -->
<g id="node2" class="node">
<title>public.organization_member</title>
<polygon fill="#efefef" stroke="transparent" points="43.5,-962.5 43.5,-997.5 410.5,-997.5 410.5,-962.5 43.5,-962.5"/>
<polygon fill="none" stroke="#000000" points="43.5,-962.5 43.5,-997.5 410.5,-997.5 410.5,-962.5 43.5,-962.5"/>
<text text-anchor="start" x="50.1976" y="-975.3" font-family="Arial Bold" font-size="18.00" fill="#000000">public.organization_member</text>
<text text-anchor="start" x="276.2344" y="-975.3" font-family="Arial" font-size="14.00" fill="#000000">    </text>
<text text-anchor="start" x="310.4392" y="-975.3" font-family="Arial" font-size="14.00" fill="#666666">[BASE TABLE]</text>
<polygon fill="none" stroke="#000000" points="43.5,-932.5 43.5,-962.5 410.5,-962.5 410.5,-932.5 43.5,-932.5"/>
<text text-anchor="start" x="50.5" y="-943.9" font-family="Arial" font-size="14.00" fill="#000000">organization_member_id    </text>
<text text-anchor="start" x="238.7314" y="-943.9" font-family="Arial" font-size="14.00" fill="#666666">[bigint]</text>
<polygon fill="none" stroke="#000000" points="43.5,-902.5 43.5,-932.5 410.5,-932.5 410.5,-902.5 43.5,-902.5"/>
<text text-anchor="start" x="50.5" y="-913.9" font-family="Arial" font-size="14.00" fill="#000000">organization_id    </text>
<text text-anchor="start" x="179.6192" y="-913.9" font-family="Arial" font-size="14.00" fill="#666666">[bigint]</text>
<polygon fill="none" stroke="#000000" points="43.5,-872.5 43.5,-902.5 410.5,-902.5 410.5,-872.5 43.5,-872.5"/>
<text text-anchor="start" x="50.5" y="-883.9" font-family="Arial" font-size="14.00" fill="#000000">user_account_id    </text>
<text text-anchor="start" x="187.406" y="-883.9" font-family="Arial" font-size="14.00" fill="#666666">[bigint]</text>
<polygon fill="none" stroke="#000000" points="43.5,-842.5 43.5,-872.5 410.5,-872.5 410.5,-842.5 43.5,-842.5"/>
<text text-anchor="start" x="50.5" y="-853.9" font-family="Arial" font-size="14.00" fill="#000000">organization_member_authority_id    </text>
<text text-anchor="start" x="300.1928" y="-853.9" font-family="Arial" font-size="14.00" fill="#666666">[bigint]</text>
</g>
<!-- public.organization_member&#45;&gt;public.user_account -->
<g id="edge1" class="edge">
<title>public.organization_member:user_account_id&#45;&gt;public.user_account:user_account_id</title>
<path fill="none" stroke="#000000" d="M420.5315,-886.7689C484.5351,-876.5313 402.3325,-761.427 461.5,-710 541.1088,-640.8059 1296.0231,-577.5 1401.5,-577.5"/>
<polygon fill="#000000" stroke="#000000" points="420.4736,-886.7731 410.1729,-883.0119 415.4868,-887.1365 410.5,-887.5 410.5,-887.5 410.5,-887.5 415.4868,-887.1365 410.8271,-891.9881 420.4736,-886.7731 420.4736,-886.7731"/>
</g>
<!-- public.workspace_member -->
<g id="node3" class="node">
<title>public.workspace_member</title>
<polygon fill="#efefef" stroke="transparent" points="514.5,-962.5 514.5,-997.5 869.5,-997.5 869.5,-962.5 514.5,-962.5"/>
<polygon fill="none" stroke="#000000" points="514.5,-962.5 514.5,-997.5 869.5,-997.5 869.5,-962.5 514.5,-962.5"/>
<text text-anchor="start" x="521.2051" y="-975.3" font-family="Arial Bold" font-size="18.00" fill="#000000">public.workspace_member</text>
<text text-anchor="start" x="735.2269" y="-975.3" font-family="Arial" font-size="14.00" fill="#000000">    </text>
<text text-anchor="start" x="769.4317" y="-975.3" font-family="Arial" font-size="14.00" fill="#666666">[BASE TABLE]</text>
<polygon fill="none" stroke="#000000" points="514.5,-932.5 514.5,-962.5 869.5,-962.5 869.5,-932.5 514.5,-932.5"/>
<text text-anchor="start" x="521.5" y="-943.9" font-family="Arial" font-size="14.00" fill="#000000">workspace_member_id    </text>
<text text-anchor="start" x="700.3864" y="-943.9" font-family="Arial" font-size="14.00" fill="#666666">[bigint]</text>
<polygon fill="none" stroke="#000000" points="514.5,-902.5 514.5,-932.5 869.5,-932.5 869.5,-902.5 514.5,-902.5"/>
<text text-anchor="start" x="521.5" y="-913.9" font-family="Arial" font-size="14.00" fill="#000000">workspace_id    </text>
<text text-anchor="start" x="641.2742" y="-913.9" font-family="Arial" font-size="14.00" fill="#666666">[bigint]</text>
<polygon fill="none" stroke="#000000" points="514.5,-872.5 514.5,-902.5 869.5,-902.5 869.5,-872.5 514.5,-872.5"/>
<text text-anchor="start" x="521.5" y="-883.9" font-family="Arial" font-size="14.00" fill="#000000">user_account_id    </text>
<text text-anchor="start" x="658.406" y="-883.9" font-family="Arial" font-size="14.00" fill="#666666">[bigint]</text>
<polygon fill="none" stroke="#000000" points="514.5,-842.5 514.5,-872.5 869.5,-872.5 869.5,-842.5 514.5,-842.5"/>
<text text-anchor="start" x="521.5" y="-853.9" font-family="Arial" font-size="14.00" fill="#000000">workspace_member_authority_id    </text>
<text text-anchor="start" x="761.8478" y="-853.9" font-family="Arial" font-size="14.00" fill="#666666">[bigint]</text>
</g>
<!-- public.workspace_member&#45;&gt;public.user_account -->
<g id="edge2" class="edge">
<title>public.workspace_member:user_account_id&#45;&gt;public.user_account:user_account_id</title>
<path fill="none" stroke="#000000" d="M879.5522,-886.7913C943.8434,-876.8638 864.7638,-765.1272 920.5,-710 999.3266,-632.0347 1290.6298,-577.5 1401.5,-577.5"/>
<polygon fill="#000000" stroke="#000000" points="879.4752,-886.7967 869.1835,-883.0111 874.4876,-887.1483 869.5,-887.5 869.5,-887.5 869.5,-887.5 874.4876,-887.1483 869.8165,-891.9889 879.4752,-886.7967 879.4752,-886.7967"/>
</g>
<!-- public.project_member -->
<g id="node4" class="node">
<title>public.project_member</title>
<polygon fill="#efefef" stroke="transparent" points="973.5,-962.5 973.5,-997.5 1296.5,-997.5 1296.5,-962.5 973.5,-962.5"/>
<polygon fill="none" stroke="#000000" points="973.5,-962.5 973.5,-997.5 1296.5,-997.5 1296.5,-962.5 973.5,-962.5"/>
<text text-anchor="start" x="980.2071" y="-975.3" font-family="Arial Bold" font-size="18.00" fill="#000000">public.project_member</text>
<text text-anchor="start" x="1162.2249" y="-975.3" font-family="Arial" font-size="14.00" fill="#000000">    </text>
<text text-anchor="start" x="1196.4297" y="-975.3" font-family="Arial" font-size="14.00" fill="#666666">[BASE TABLE]</text>
<polygon fill="none" stroke="#000000" points="973.5,-932.5 973.5,-962.5 1296.5,-962.5 1296.5,-932.5 973.5,-932.5"/>
<text text-anchor="start" x="980.5" y="-943.9" font-family="Arial" font-size="14.00" fill="#000000">project_member_id    </text>
<text text-anchor="start" x="1134.4944" y="-943.9" font-family="Arial" font-size="14.00" fill="#666666">[bigint]</text>
<polygon fill="none" stroke="#000000" points="973.5,-902.5 973.5,-932.5 1296.5,-932.5 1296.5,-902.5 973.5,-902.5"/>
<text text-anchor="start" x="980.5" y="-913.9" font-family="Arial" font-size="14.00" fill="#000000">project_id    </text>
<text text-anchor="start" x="1075.3822" y="-913.9" font-family="Arial" font-size="14.00" fill="#666666">[bigint]</text>
<polygon fill="none" stroke="#000000" points="973.5,-872.5 973.5,-902.5 1296.5,-902.5 1296.5,-872.5 973.5,-872.5"/>
<text text-anchor="start" x="980.5" y="-883.9" font-family="Arial" font-size="14.00" fill="#000000">user_account_id    </text>
<text text-anchor="start" x="1117.406" y="-883.9" font-family="Arial" font-size="14.00" fill="#666666">[bigint]</text>
<polygon fill="none" stroke="#000000" points="973.5,-842.5 973.5,-872.5 1296.5,-872.5 1296.5,-842.5 973.5,-842.5"/>
<text text-anchor="start" x="980.5" y="-853.9" font-family="Arial" font-size="14.00" fill="#000000">project_member_authority_id    </text>
<text text-anchor="start" x="1195.9558" y="-853.9" font-family="Arial" font-size="14.00" fill="#666666">[bigint]</text>
</g>
<!-- public.project_member&#45;&gt;public.user_account -->
<g id="edge3" class="edge">
<title>public.project_member:user_account_id&#45;&gt;public.user_account:user_account_id</title>
<path fill="none" stroke="#000000" d="M1306.7343,-886.9061C1373.5461,-878.5663 1321.8458,-784.0769 1347.5,-710 1368.3103,-649.9098 1337.9083,-577.5 1401.5,-577.5"/>
<polygon fill="#000000" stroke="#000000" points="1306.4832,-886.9205 1296.2392,-883.0076 1301.4916,-887.2103 1296.5,-887.5 1296.5,-887.5 1296.5,-887.5 1301.4916,-887.2103 1296.7608,-891.9924 1306.4832,-886.9205 1306.4832,-886.9205"/>
</g>
<!-- public.task -->
<g id="node5" class="node">
<title>public.task</title>
<polygon fill="#efefef" stroke="transparent" points="1400.5,-1022.5 1400.5,-1057.5 1703.5,-1057.5 1703.5,-1022.5 1400.5,-1022.5"/>
<polygon fill="none" stroke="#000000" points="1400.5,-1022.5 1400.5,-1057.5 1703.5,-1057.5 1703.5,-1022.5 1400.5,-1022.5"/>
<text text-anchor="start" x="1445.7072" y="-1035.3" font-family="Arial Bold" font-size="18.00" fill="#000000">public.task</text>
<text text-anchor="start" x="1530.7248" y="-1035.3" font-family="Arial" font-size="14.00" fill="#000000">    </text>
<text text-anchor="start" x="1564.9296" y="-1035.3" font-family="Arial" font-size="14.00" fill="#666666">[BASE TABLE]</text>
<polygon fill="none" stroke="#000000" points="1400.5,-992.5 1400.5,-1022.5 1703.5,-1022.5 1703.5,-992.5 1400.5,-992.5"/>
<text text-anchor="start" x="1407.5" y="-1003.9" font-family="Arial" font-size="14.00" fill="#000000">task_id    </text>
<text text-anchor="start" x="1486.0498" y="-1003.9" font-family="Arial" font-size="14.00" fill="#666666">[bigint]</text>
<polygon fill="none" stroke="#000000" points="1400.5,-962.5 1400.5,-992.5 1703.5,-992.5 1703.5,-962.5 1400.5,-962.5"/>
<text text-anchor="start" x="1407.5" y="-973.9" font-family="Arial" font-size="14.00" fill="#000000">project_id    </text>
<text text-anchor="start" x="1502.3822" y="-973.9" font-family="Arial" font-size="14.00" fill="#666666">[bigint]</text>
<polygon fill="none" stroke="#000000" points="1400.5,-932.5 1400.5,-962.5 1703.5,-962.5 1703.5,-932.5 1400.5,-932.5"/>
<text text-anchor="start" x="1407.5" y="-943.9" font-family="Arial" font-size="14.00" fill="#000000">owner_user_account_id    </text>
<text text-anchor="start" x="1590.3036" y="-943.9" font-family="Arial" font-size="14.00" fill="#666666">[bigint]</text>
<polygon fill="none" stroke="#000000" points="1400.5,-902.5 1400.5,-932.5 1703.5,-932.5 1703.5,-902.5 1400.5,-902.5"/>
<text text-anchor="start" x="1407.5" y="-913.9" font-family="Arial" font-size="14.00" fill="#000000">title    </text>
<text text-anchor="start" x="1463.4818" y="-913.9" font-family="Arial" font-size="14.00" fill="#666666">[varchar(255)]</text>
<polygon fill="none" stroke="#000000" points="1400.5,-872.5 1400.5,-902.5 1703.5,-902.5 1703.5,-872.5 1400.5,-872.5"/>
<text text-anchor="start" x="1407.5" y="-883.9" font-family="Arial" font-size="14.00" fill="#000000">content    </text>
<text text-anchor="start" x="1487.6164" y="-883.9" font-family="Arial" font-size="14.00" fill="#666666">[text]</text>
<polygon fill="none" stroke="#000000" points="1400.5,-842.5 1400.5,-872.5 1703.5,-872.5 1703.5,-842.5 1400.5,-842.5"/>
<text text-anchor="start" x="1407.5" y="-853.9" font-family="Arial" font-size="14.00" fill="#000000">created_at    </text>
<text text-anchor="start" x="1507.8422" y="-853.9" font-family="Arial" font-size="14.00" fill="#666666">[timestamp without time zone]</text>
<polygon fill="none" stroke="#000000" points="1400.5,-812.5 1400.5,-842.5 1703.5,-842.5 1703.5,-812.5 1400.5,-812.5"/>
<text text-anchor="start" x="1407.3065" y="-823.9" font-family="Arial" font-size="14.00" fill="#000000">updated_at    </text>
<text text-anchor="start" x="1511.5533" y="-823.9" font-family="Arial" font-size="14.00" fill="#666666">[timestamp without time zone]</text>
<polygon fill="none" stroke="#000000" points="1400.5,-782.5 1400.5,-812.5 1703.5,-812.5 1703.5,-782.5 1400.5,-782.5"/>
<text text-anchor="start" x="1407.5" y="-793.9" font-family="Arial" font-size="14.00" fill="#000000">is_deleted    </text>
<text text-anchor="start" x="1505.5042" y="-793.9" font-family="Arial" font-size="14.00" fill="#666666">[boolean]</text>
</g>
<!-- public.task&#45;&gt;public.user_account -->
<g id="edge4" class="edge">
<title>public.task:owner_user_account_id&#45;&gt;public.user_account:user_account_id</title>
<path fill="none" stroke="#000000" d="M1392.0414,-941.6882C1359.7581,-894.6162 1363.44,-577.5 1401.5,-577.5"/>
<polygon fill="#000000" stroke="#000000" points="1392.258,-941.837 1397.9516,-951.2089 1396.379,-944.6685 1400.5,-947.5 1400.5,-947.5 1400.5,-947.5 1396.379,-944.6685 1403.0484,-943.7911 1392.258,-941.837 1392.258,-941.837"/>
</g>
<!-- public.task_member -->
<g id="node6" class="node">
<title>public.task_member</title>
<polygon fill="#efefef" stroke="transparent" points="1807.5,-947.5 1807.5,-982.5 2109.5,-982.5 2109.5,-947.5 1807.5,-947.5"/>
<polygon fill="none" stroke="#000000" points="1807.5,-947.5 1807.5,-982.5 2109.5,-982.5 2109.5,-947.5 1807.5,-947.5"/>
<text text-anchor="start" x="1814.2065" y="-960.3" font-family="Arial Bold" font-size="18.00" fill="#000000">public.task_member</text>
<text text-anchor="start" x="1975.2255" y="-960.3" font-family="Arial" font-size="14.00" fill="#000000">    </text>
<text text-anchor="start" x="2009.4303" y="-960.3" font-family="Arial" font-size="14.00" fill="#666666">[BASE TABLE]</text>
<polygon fill="none" stroke="#000000" points="1807.5,-917.5 1807.5,-947.5 2109.5,-947.5 2109.5,-917.5 1807.5,-917.5"/>
<text text-anchor="start" x="1814.5" y="-928.9" font-family="Arial" font-size="14.00" fill="#000000">task_member_id    </text>
<text text-anchor="start" x="1952.162" y="-928.9" font-family="Arial" font-size="14.00" fill="#666666">[bigint]</text>
<polygon fill="none" stroke="#000000" points="1807.5,-887.5 1807.5,-917.5 2109.5,-917.5 2109.5,-887.5 1807.5,-887.5"/>
<text text-anchor="start" x="1814.5" y="-898.9" font-family="Arial" font-size="14.00" fill="#000000">task_id    </text>
<text text-anchor="start" x="1893.0498" y="-898.9" font-family="Arial" font-size="14.00" fill="#666666">[bigint]</text>
<polygon fill="none" stroke="#000000" points="1807.5,-857.5 1807.5,-887.5 2109.5,-887.5 2109.5,-857.5 1807.5,-857.5"/>
<text text-anchor="start" x="1814.5" y="-868.9" font-family="Arial" font-size="14.00" fill="#000000">user_account_id    </text>
<text text-anchor="start" x="1951.406" y="-868.9" font-family="Arial" font-size="14.00" fill="#666666">[bigint]</text>
</g>
<!-- public.task_member&#45;&gt;public.user_account -->
<g id="edge5" class="edge">
<title>public.task_member:user_account_id&#45;&gt;public.user_account:user_account_id</title>
<path fill="none" stroke="#000000" d="M1797.2651,-871.861C1736.3233,-863.6467 1779.9003,-777.8746 1755.5,-710 1734.0435,-650.3143 1765.9253,-577.5 1702.5,-577.5"/>
<polygon fill="#000000" stroke="#000000" points="1797.5194,-871.8768 1807.2196,-876.9913 1802.5097,-872.1884 1807.5,-872.5 1807.5,-872.5 1807.5,-872.5 1802.5097,-872.1884 1807.7804,-868.0087 1797.5194,-871.8768 1797.5194,-871.8768"/>
</g>
<!-- public.user_account_profile -->
<g id="node7" class="node">
<title>public.user_account_profile</title>
<polygon fill="#efefef" stroke="transparent" points="2213.5,-1052.5 2213.5,-1087.5 2573.5,-1087.5 2573.5,-1052.5 2213.5,-1052.5"/>
<polygon fill="none" stroke="#000000" points="2213.5,-1052.5 2213.5,-1087.5 2573.5,-1087.5 2573.5,-1052.5 2213.5,-1052.5"/>
<text text-anchor="start" x="2220.1887" y="-1065.3" font-family="Arial Bold" font-size="18.00" fill="#000000">public.user_account_profile</text>
<text text-anchor="start" x="2439.2433" y="-1065.3" font-family="Arial" font-size="14.00" fill="#000000">    </text>
<text text-anchor="start" x="2473.4481" y="-1065.3" font-family="Arial" font-size="14.00" fill="#666666">[BASE TABLE]</text>
<polygon fill="none" stroke="#000000" points="2213.5,-1022.5 2213.5,-1052.5 2573.5,-1052.5 2573.5,-1022.5 2213.5,-1022.5"/>
<text text-anchor="start" x="2220.5" y="-1033.9" font-family="Arial" font-size="14.00" fill="#000000">user_account_profile_id    </text>
<text text-anchor="start" x="2403.3008" y="-1033.9" font-family="Arial" font-size="14.00" fill="#666666">[bigint]</text>
<polygon fill="none" stroke="#000000" points="2213.5,-992.5 2213.5,-1022.5 2573.5,-1022.5 2573.5,-992.5 2213.5,-992.5"/>
<text text-anchor="start" x="2220.5" y="-1003.9" font-family="Arial" font-size="14.00" fill="#000000">user_account_id    </text>
<text text-anchor="start" x="2357.406" y="-1003.9" font-family="Arial" font-size="14.00" fill="#666666">[bigint]</text>
<polygon fill="none" stroke="#000000" points="2213.5,-962.5 2213.5,-992.5 2573.5,-992.5 2573.5,-962.5 2213.5,-962.5"/>
<text text-anchor="start" x="2220.5" y="-973.9" font-family="Arial" font-size="14.00" fill="#000000">name    </text>
<text text-anchor="start" x="2289.7132" y="-973.9" font-family="Arial" font-size="14.00" fill="#666666">[varchar(255)]</text>
<polygon fill="none" stroke="#000000" points="2213.5,-932.5 2213.5,-962.5 2573.5,-962.5 2573.5,-932.5 2213.5,-932.5"/>
<text text-anchor="start" x="2220.5" y="-943.9" font-family="Arial" font-size="14.00" fill="#000000">biography    </text>
<text text-anchor="start" x="2316.1676" y="-943.9" font-family="Arial" font-size="14.00" fill="#666666">[text]</text>
<polygon fill="none" stroke="#000000" points="2213.5,-902.5 2213.5,-932.5 2573.5,-932.5 2573.5,-902.5 2213.5,-902.5"/>
<text text-anchor="start" x="2220.5" y="-913.9" font-family="Arial" font-size="14.00" fill="#000000">company    </text>
<text text-anchor="start" x="2311.4958" y="-913.9" font-family="Arial" font-size="14.00" fill="#666666">[varchar(255)]</text>
<polygon fill="none" stroke="#000000" points="2213.5,-872.5 2213.5,-902.5 2573.5,-902.5 2573.5,-872.5 2213.5,-872.5"/>
<text text-anchor="start" x="2220.5" y="-883.9" font-family="Arial" font-size="14.00" fill="#000000">title    </text>
<text text-anchor="start" x="2276.4818" y="-883.9" font-family="Arial" font-size="14.00" fill="#666666">[varchar(255)]</text>
<polygon fill="none" stroke="#000000" points="2213.5,-842.5 2213.5,-872.5 2573.5,-872.5 2573.5,-842.5 2213.5,-842.5"/>
<text text-anchor="start" x="2220.5" y="-853.9" font-family="Arial" font-size="14.00" fill="#000000">location    </text>
<text text-anchor="start" x="2302.939" y="-853.9" font-family="Arial" font-size="14.00" fill="#666666">[varchar(255)]</text>
<polygon fill="none" stroke="#000000" points="2213.5,-812.5 2213.5,-842.5 2573.5,-842.5 2573.5,-812.5 2213.5,-812.5"/>
<text text-anchor="start" x="2220.5" y="-823.9" font-family="Arial" font-size="14.00" fill="#000000">created_at    </text>
<text text-anchor="start" x="2320.8422" y="-823.9" font-family="Arial" font-size="14.00" fill="#666666">[timestamp without time zone]</text>
<polygon fill="none" stroke="#000000" points="2213.5,-782.5 2213.5,-812.5 2573.5,-812.5 2573.5,-782.5 2213.5,-782.5"/>
<text text-anchor="start" x="2220.5" y="-793.9" font-family="Arial" font-size="14.00" fill="#000000">updated_at    </text>
<text text-anchor="start" x="2324.7468" y="-793.9" font-family="Arial" font-size="14.00" fill="#666666">[timestamp without time zone]</text>
<polygon fill="none" stroke="#000000" points="2213.5,-752.5 2213.5,-782.5 2573.5,-782.5 2573.5,-752.5 2213.5,-752.5"/>
<text text-anchor="start" x="2220.5" y="-763.9" font-family="Arial" font-size="14.00" fill="#000000">is_deleted    </text>
<text text-anchor="start" x="2318.5042" y="-763.9" font-family="Arial" font-size="14.00" fill="#666666">[boolean]</text>
</g>
<!-- public.user_account_profile&#45;&gt;public.user_account -->
<g id="edge6" class="edge">
<title>public.user_account_profile:user_account_id&#45;&gt;public.user_account:user_account_id</title>
<path fill="none" stroke="#000000" d="M2203.5912,-1005.3517C2152.6291,-981.015 2203.8746,-757.2168 2161.5,-710 2090.5909,-630.9881 1808.6648,-577.5 1702.5,-577.5"/>
<polygon fill="#000000" stroke="#000000" points="2203.727,-1005.3811 2212.5465,-1011.8978 2208.6135,-1006.4406 2213.5,-1007.5 2213.5,-1007.5 2213.5,-1007.5 2208.6135,-1006.4406 2214.4535,-1003.1022 2203.727,-1005.3811 2203.727,-1005.3811"/>
</g>
<!-- public.user_account_workspace -->
<g id="node8" class="node">
<title>public.user_account_workspace</title>
<polygon fill="#efefef" stroke="transparent" points="2678.5,-947.5 2678.5,-982.5 3075.5,-982.5 3075.5,-947.5 2678.5,-947.5"/>
<polygon fill="none" stroke="#000000" points="2678.5,-947.5 2678.5,-982.5 3075.5,-982.5 3075.5,-947.5 2678.5,-947.5"/>
<text text-anchor="start" x="2685.1838" y="-960.3" font-family="Arial Bold" font-size="18.00" fill="#000000">public.user_account_workspace</text>
<text text-anchor="start" x="2941.2482" y="-960.3" font-family="Arial" font-size="14.00" fill="#000000">    </text>
<text text-anchor="start" x="2975.453" y="-960.3" font-family="Arial" font-size="14.00" fill="#666666">[BASE TABLE]</text>
<polygon fill="none" stroke="#000000" points="2678.5,-917.5 2678.5,-947.5 3075.5,-947.5 3075.5,-917.5 2678.5,-917.5"/>
<text text-anchor="start" x="2685.5" y="-928.9" font-family="Arial" font-size="14.00" fill="#000000">user_account_workspace_id    </text>
<text text-anchor="start" x="2897.0862" y="-928.9" font-family="Arial" font-size="14.00" fill="#666666">[bigint]</text>
<polygon fill="none" stroke="#000000" points="2678.5,-887.5 2678.5,-917.5 3075.5,-917.5 3075.5,-887.5 2678.5,-887.5"/>
<text text-anchor="start" x="2685.5" y="-898.9" font-family="Arial" font-size="14.00" fill="#000000">user_account_id    </text>
<text text-anchor="start" x="2822.406" y="-898.9" font-family="Arial" font-size="14.00" fill="#666666">[bigint]</text>
<polygon fill="none" stroke="#000000" points="2678.5,-857.5 2678.5,-887.5 3075.5,-887.5 3075.5,-857.5 2678.5,-857.5"/>
<text text-anchor="start" x="2685.5" y="-868.9" font-family="Arial" font-size="14.00" fill="#000000">workspace_id    </text>
<text text-anchor="start" x="2805.2742" y="-868.9" font-family="Arial" font-size="14.00" fill="#666666">[bigint]</text>
</g>
<!-- public.user_account_workspace&#45;&gt;public.user_account -->
<g id="edge7" class="edge">
<title>public.user_account_workspace:user_account_id&#45;&gt;public.user_account:user_account_id</title>
<path fill="none" stroke="#000000" d="M2668.5203,-901.839C2597.8699,-891.6482 2689.3459,-766.2637 2625.5,-710 2547.7688,-641.5 1806.1069,-577.5 1702.5,-577.5"/>
<polygon fill="#000000" stroke="#000000" points="2668.5219,-901.839 2678.2026,-906.9902 2673.5109,-902.1695 2678.5,-902.5 2678.5,-902.5 2678.5,-902.5 2673.5109,-902.1695 2678.7974,-898.0098 2668.5219,-901.839 2668.5219,-901.839"/>
</g>
</g>
</svg>
