<?xml version="1.0" encoding="UTF-8" standalone="no"?>
<!DOCTYPE svg PUBLIC "-//W3C//DTD SVG 1.1//EN"
 "http://www.w3.org/Graphics/SVG/1.1/DTD/svg11.dtd">
<!-- Generated by graphviz version 2.40.1 (20161225.0304)
 -->
<!-- Title: public.project_member Pages: 1 -->
<svg width="1335pt" height="652pt"
 viewBox="0.00 0.00 1334.50 652.00" xmlns="http://www.w3.org/2000/svg" xmlns:xlink="http://www.w3.org/1999/xlink">
<g id="graph0" class="graph" transform="scale(1 1) rotate(0) translate(4 648)">
<title>public.project_member</title>
<polygon fill="#ffffff" stroke="transparent" points="-4,4 -4,-648 1330.5,-648 1330.5,4 -4,4"/>
<!-- public.project_member -->
<g id="node1" class="node">
<title>public.project_member</title>
<polygon fill="#efefef" stroke="transparent" points="452.5,-562.5 452.5,-597.5 775.5,-597.5 775.5,-562.5 452.5,-562.5"/>
<polygon fill="none" stroke="#000000" points="452.5,-562.5 452.5,-597.5 775.5,-597.5 775.5,-562.5 452.5,-562.5"/>
<text text-anchor="start" x="459.2071" y="-575.3" font-family="Arial Bold" font-size="18.00" fill="#000000">public.project_member</text>
<text text-anchor="start" x="641.2249" y="-575.3" font-family="Arial" font-size="14.00" fill="#000000">    </text>
<text text-anchor="start" x="675.4297" y="-575.3" font-family="Arial" font-size="14.00" fill="#666666">[BASE TABLE]</text>
<polygon fill="none" stroke="#000000" points="452.5,-532.5 452.5,-562.5 775.5,-562.5 775.5,-532.5 452.5,-532.5"/>
<text text-anchor="start" x="459.5" y="-543.9" font-family="Arial" font-size="14.00" fill="#000000">project_member_id </text>
<text text-anchor="start" x="583.1802" y="-543.9" font-family="Arial" font-size="14.00" fill="#666666">[bigint]</text>
<polygon fill="none" stroke="#000000" points="452.5,-502.5 452.5,-532.5 775.5,-532.5 775.5,-502.5 452.5,-502.5"/>
<text text-anchor="start" x="459.5" y="-513.9" font-family="Arial" font-size="14.00" fill="#000000">project_id </text>
<text text-anchor="start" x="524.068" y="-513.9" font-family="Arial" font-size="14.00" fill="#666666">[bigint]</text>
<polygon fill="none" stroke="#000000" points="452.5,-472.5 452.5,-502.5 775.5,-502.5 775.5,-472.5 452.5,-472.5"/>
<text text-anchor="start" x="459.5" y="-483.9" font-family="Arial" font-size="14.00" fill="#000000">user_account_id </text>
<text text-anchor="start" x="566.0918" y="-483.9" font-family="Arial" font-size="14.00" fill="#666666">[bigint]</text>
<polygon fill="none" stroke="#000000" points="452.5,-442.5 452.5,-472.5 775.5,-472.5 775.5,-442.5 452.5,-442.5"/>
<text text-anchor="start" x="459.5" y="-453.9" font-family="Arial" font-size="14.00" fill="#000000">project_member_authority_id </text>
<text text-anchor="start" x="644.6416" y="-453.9" font-family="Arial" font-size="14.00" fill="#666666">[bigint]</text>
<polygon fill="none" stroke="#000000" stroke-width="3" points="450.5,-441.5 450.5,-599.5 776.5,-599.5 776.5,-441.5 450.5,-441.5"/>
</g>
<!-- public.project -->
<g id="node2" class="node">
<title>public.project</title>
<polygon fill="#efefef" stroke="transparent" points="43.5,-267.5 43.5,-302.5 346.5,-302.5 346.5,-267.5 43.5,-267.5"/>
<polygon fill="none" stroke="#000000" points="43.5,-267.5 43.5,-302.5 346.5,-302.5 346.5,-267.5 43.5,-267.5"/>
<text text-anchor="start" x="78.2078" y="-280.3" font-family="Arial Bold" font-size="18.00" fill="#000000">public.project</text>
<text text-anchor="start" x="184.2242" y="-280.3" font-family="Arial" font-size="14.00" fill="#000000">    </text>
<text text-anchor="start" x="218.429" y="-280.3" font-family="Arial" font-size="14.00" fill="#666666">[BASE TABLE]</text>
<polygon fill="none" stroke="#000000" points="43.5,-237.5 43.5,-267.5 346.5,-267.5 346.5,-237.5 43.5,-237.5"/>
<text text-anchor="start" x="50.5" y="-248.9" font-family="Arial" font-size="14.00" fill="#000000">project_id    </text>
<text text-anchor="start" x="145.3822" y="-248.9" font-family="Arial" font-size="14.00" fill="#666666">[bigint]</text>
<polygon fill="none" stroke="#000000" points="43.5,-207.5 43.5,-237.5 346.5,-237.5 346.5,-207.5 43.5,-207.5"/>
<text text-anchor="start" x="50.5" y="-218.9" font-family="Arial" font-size="14.00" fill="#000000">project_name    </text>
<text text-anchor="start" x="169.5014" y="-218.9" font-family="Arial" font-size="14.00" fill="#666666">[varchar(255)]</text>
<polygon fill="none" stroke="#000000" points="43.5,-177.5 43.5,-207.5 346.5,-207.5 346.5,-177.5 43.5,-177.5"/>
<text text-anchor="start" x="50.5" y="-188.9" font-family="Arial" font-size="14.00" fill="#000000">display_name    </text>
<text text-anchor="start" x="171.0568" y="-188.9" font-family="Arial" font-size="14.00" fill="#666666">[varchar(255)]</text>
<polygon fill="none" stroke="#000000" points="43.5,-147.5 43.5,-177.5 346.5,-177.5 346.5,-147.5 43.5,-147.5"/>
<text text-anchor="start" x="50.5" y="-158.9" font-family="Arial" font-size="14.00" fill="#000000">workspace_id    </text>
<text text-anchor="start" x="170.2742" y="-158.9" font-family="Arial" font-size="14.00" fill="#666666">[bigint]</text>
<polygon fill="none" stroke="#000000" points="43.5,-117.5 43.5,-147.5 346.5,-147.5 346.5,-117.5 43.5,-117.5"/>
<text text-anchor="start" x="50.5" y="-128.9" font-family="Arial" font-size="14.00" fill="#000000">created_at    </text>
<text text-anchor="start" x="150.8422" y="-128.9" font-family="Arial" font-size="14.00" fill="#666666">[timestamp without time zone]</text>
<polygon fill="none" stroke="#000000" points="43.5,-87.5 43.5,-117.5 346.5,-117.5 346.5,-87.5 43.5,-87.5"/>
<text text-anchor="start" x="50.3065" y="-98.9" font-family="Arial" font-size="14.00" fill="#000000">updated_at    </text>
<text text-anchor="start" x="154.5533" y="-98.9" font-family="Arial" font-size="14.00" fill="#666666">[timestamp without time zone]</text>
<polygon fill="none" stroke="#000000" points="43.5,-57.5 43.5,-87.5 346.5,-87.5 346.5,-57.5 43.5,-57.5"/>
<text text-anchor="start" x="50.5" y="-68.9" font-family="Arial" font-size="14.00" fill="#000000">is_deleted    </text>
<text text-anchor="start" x="148.5042" y="-68.9" font-family="Arial" font-size="14.00" fill="#666666">[boolean]</text>
</g>
<!-- public.project_member&#45;&gt;public.project -->
<g id="edge1" class="edge">
<title>public.project_member:project_id&#45;&gt;public.project:project_id</title>
<path fill="none" stroke="#000000" d="M442.5031,-515.0458C391.1663,-488.3306 406.3328,-252.5 346.5,-252.5"/>
<polygon fill="#000000" stroke="#000000" points="442.7884,-515.1158 451.4271,-521.8702 447.6442,-516.3079 452.5,-517.5 452.5,-517.5 452.5,-517.5 447.6442,-516.3079 453.5729,-513.1298 442.7884,-515.1158 442.7884,-515.1158"/>
</g>
<!-- public.user_account -->
<g id="node3" class="node">
<title>public.user_account</title>
<polygon fill="#efefef" stroke="transparent" points="450.5,-282.5 450.5,-317.5 777.5,-317.5 777.5,-282.5 450.5,-282.5"/>
<polygon fill="none" stroke="#000000" points="450.5,-282.5 450.5,-317.5 777.5,-317.5 777.5,-282.5 450.5,-282.5"/>
<text text-anchor="start" x="470.1925" y="-295.3" font-family="Arial Bold" font-size="18.00" fill="#000000">public.user_account</text>
<text text-anchor="start" x="630.2395" y="-295.3" font-family="Arial" font-size="14.00" fill="#000000">    </text>
<text text-anchor="start" x="664.4443" y="-295.3" font-family="Arial" font-size="14.00" fill="#666666">[BASE TABLE]</text>
<polygon fill="none" stroke="#000000" points="450.5,-252.5 450.5,-282.5 777.5,-282.5 777.5,-252.5 450.5,-252.5"/>
<text text-anchor="start" x="457.5" y="-263.9" font-family="Arial" font-size="14.00" fill="#000000">user_account_id    </text>
<text text-anchor="start" x="594.406" y="-263.9" font-family="Arial" font-size="14.00" fill="#666666">[bigint]</text>
<polygon fill="none" stroke="#000000" points="450.5,-222.5 450.5,-252.5 777.5,-252.5 777.5,-222.5 450.5,-222.5"/>
<text text-anchor="start" x="457.5" y="-233.9" font-family="Arial" font-size="14.00" fill="#000000">user_id    </text>
<text text-anchor="start" x="537.6024" y="-233.9" font-family="Arial" font-size="14.00" fill="#666666">[bigint]</text>
<polygon fill="none" stroke="#000000" points="450.5,-192.5 450.5,-222.5 777.5,-222.5 777.5,-192.5 450.5,-192.5"/>
<text text-anchor="start" x="457.5" y="-203.9" font-family="Arial" font-size="14.00" fill="#000000">user_account_name    </text>
<text text-anchor="start" x="618.5252" y="-203.9" font-family="Arial" font-size="14.00" fill="#666666">[varchar(255)]</text>
<polygon fill="none" stroke="#000000" points="450.5,-162.5 450.5,-192.5 777.5,-192.5 777.5,-162.5 450.5,-162.5"/>
<text text-anchor="start" x="457.5" y="-173.9" font-family="Arial" font-size="14.00" fill="#000000">display_name    </text>
<text text-anchor="start" x="578.0568" y="-173.9" font-family="Arial" font-size="14.00" fill="#666666">[varchar(255)]</text>
<polygon fill="none" stroke="#000000" points="450.5,-132.5 450.5,-162.5 777.5,-162.5 777.5,-132.5 450.5,-132.5"/>
<text text-anchor="start" x="457.2553" y="-143.9" font-family="Arial" font-size="14.00" fill="#000000">last_logined_at    </text>
<text text-anchor="start" x="585.6045" y="-143.9" font-family="Arial" font-size="14.00" fill="#666666">[timestamp without time zone]</text>
<polygon fill="none" stroke="#000000" points="450.5,-102.5 450.5,-132.5 777.5,-132.5 777.5,-102.5 450.5,-102.5"/>
<text text-anchor="start" x="457.5" y="-113.9" font-family="Arial" font-size="14.00" fill="#000000">created_at    </text>
<text text-anchor="start" x="557.8422" y="-113.9" font-family="Arial" font-size="14.00" fill="#666666">[timestamp without time zone]</text>
<polygon fill="none" stroke="#000000" points="450.5,-72.5 450.5,-102.5 777.5,-102.5 777.5,-72.5 450.5,-72.5"/>
<text text-anchor="start" x="457.5" y="-83.9" font-family="Arial" font-size="14.00" fill="#000000">updated_at    </text>
<text text-anchor="start" x="561.7468" y="-83.9" font-family="Arial" font-size="14.00" fill="#666666">[timestamp without time zone]</text>
<polygon fill="none" stroke="#000000" points="450.5,-42.5 450.5,-72.5 777.5,-72.5 777.5,-42.5 450.5,-42.5"/>
<text text-anchor="start" x="457.5" y="-53.9" font-family="Arial" font-size="14.00" fill="#000000">is_deleted    </text>
<text text-anchor="start" x="555.5042" y="-53.9" font-family="Arial" font-size="14.00" fill="#666666">[boolean]</text>
</g>
<!-- public.project_member&#45;&gt;public.user_account -->
<g id="edge2" class="edge">
<title>public.project_member:user_account_id&#45;&gt;public.user_account:user_account_id</title>
<path fill="none" stroke="#000000" d="M442.8839,-484.39C403.5794,-457.6501 405.0467,-267.5 450.5,-267.5"/>
<polygon fill="#000000" stroke="#000000" points="442.9852,-484.4227 451.1152,-491.7816 447.7426,-485.9614 452.5,-487.5 452.5,-487.5 452.5,-487.5 447.7426,-485.9614 453.8848,-483.2184 442.9852,-484.4227 442.9852,-484.4227"/>
</g>
<!-- public.project_member_authority -->
<g id="node4" class="node">
<title>public.project_member_authority</title>
<polygon fill="#efefef" stroke="transparent" points="881.5,-207.5 881.5,-242.5 1283.5,-242.5 1283.5,-207.5 881.5,-207.5"/>
<polygon fill="none" stroke="#000000" points="881.5,-207.5 881.5,-242.5 1283.5,-242.5 1283.5,-207.5 881.5,-207.5"/>
<text text-anchor="start" x="888.1962" y="-220.3" font-family="Arial Bold" font-size="18.00" fill="#000000">public.project_member_authority</text>
<text text-anchor="start" x="1149.2358" y="-220.3" font-family="Arial" font-size="14.00" fill="#000000">    </text>
<text text-anchor="start" x="1183.4406" y="-220.3" font-family="Arial" font-size="14.00" fill="#666666">[BASE TABLE]</text>
<polygon fill="none" stroke="#000000" points="881.5,-177.5 881.5,-207.5 1283.5,-207.5 1283.5,-177.5 881.5,-177.5"/>
<text text-anchor="start" x="888.5" y="-188.9" font-family="Arial" font-size="14.00" fill="#000000">project_member_authority_id    </text>
<text text-anchor="start" x="1103.9558" y="-188.9" font-family="Arial" font-size="14.00" fill="#666666">[bigint]</text>
<polygon fill="none" stroke="#000000" points="881.5,-147.5 881.5,-177.5 1283.5,-177.5 1283.5,-147.5 881.5,-147.5"/>
<text text-anchor="start" x="888.5" y="-158.9" font-family="Arial" font-size="14.00" fill="#000000">symbol    </text>
<text text-anchor="start" x="967.0372" y="-158.9" font-family="Arial" font-size="14.00" fill="#666666">[varchar(255)]</text>
<polygon fill="none" stroke="#000000" points="881.5,-117.5 881.5,-147.5 1283.5,-147.5 1283.5,-117.5 881.5,-117.5"/>
<text text-anchor="start" x="888.5" y="-128.9" font-family="Arial" font-size="14.00" fill="#000000">value    </text>
<text text-anchor="start" x="956.1592" y="-128.9" font-family="Arial" font-size="14.00" fill="#666666">[integer]</text>
</g>
<!-- public.project_member&#45;&gt;public.project_member_authority -->
<g id="edge3" class="edge">
<title>public.project_member:project_member_authority_id&#45;&gt;public.project_member_authority:project_member_authority_id</title>
<path fill="none" stroke="#000000" d="M785.9,-456.5876C822.5881,-449.5182 811.6582,-402.6468 829.5,-361 860.363,-288.9587 803.1261,-192.5 881.5,-192.5"/>
<polygon fill="#000000" stroke="#000000" points="785.4617,-456.626 775.1067,-453.0172 780.4809,-457.063 775.5,-457.5 775.5,-457.5 775.5,-457.5 780.4809,-457.063 775.8933,-461.9828 785.4617,-456.626 785.4617,-456.626"/>
</g>
</g>
</svg>
