<?xml version="1.0" encoding="UTF-8" standalone="no"?>
<!DOCTYPE svg PUBLIC "-//W3C//DTD SVG 1.1//EN"
 "http://www.w3.org/Graphics/SVG/1.1/DTD/svg11.dtd">
<!-- Generated by graphviz version 2.40.1 (20161225.0304)
 -->
<!-- Title: public.user_account_workspace Pages: 1 -->
<svg width="828pt" height="622pt"
 viewBox="0.00 0.00 828.00 622.00" xmlns="http://www.w3.org/2000/svg" xmlns:xlink="http://www.w3.org/1999/xlink">
<g id="graph0" class="graph" transform="scale(1 1) rotate(0) translate(4 618)">
<title>public.user_account_workspace</title>
<polygon fill="#ffffff" stroke="transparent" points="-4,4 -4,-618 824,-618 824,4 -4,4"/>
<!-- public.user_account_workspace -->
<g id="node1" class="node">
<title>public.user_account_workspace</title>
<polygon fill="#efefef" stroke="transparent" points="217.5,-532.5 217.5,-567.5 614.5,-567.5 614.5,-532.5 217.5,-532.5"/>
<polygon fill="none" stroke="#000000" points="217.5,-532.5 217.5,-567.5 614.5,-567.5 614.5,-532.5 217.5,-532.5"/>
<text text-anchor="start" x="224.1838" y="-545.3" font-family="Arial Bold" font-size="18.00" fill="#000000">public.user_account_workspace</text>
<text text-anchor="start" x="480.2482" y="-545.3" font-family="Arial" font-size="14.00" fill="#000000">    </text>
<text text-anchor="start" x="514.453" y="-545.3" font-family="Arial" font-size="14.00" fill="#666666">[BASE TABLE]</text>
<polygon fill="none" stroke="#000000" points="217.5,-502.5 217.5,-532.5 614.5,-532.5 614.5,-502.5 217.5,-502.5"/>
<text text-anchor="start" x="224.5" y="-513.9" font-family="Arial" font-size="14.00" fill="#000000">user_account_workspace_id </text>
<text text-anchor="start" x="405.772" y="-513.9" font-family="Arial" font-size="14.00" fill="#666666">[bigint]</text>
<polygon fill="none" stroke="#000000" points="217.5,-472.5 217.5,-502.5 614.5,-502.5 614.5,-472.5 217.5,-472.5"/>
<text text-anchor="start" x="224.5" y="-483.9" font-family="Arial" font-size="14.00" fill="#000000">user_account_id </text>
<text text-anchor="start" x="331.0918" y="-483.9" font-family="Arial" font-size="14.00" fill="#666666">[bigint]</text>
<polygon fill="none" stroke="#000000" points="217.5,-442.5 217.5,-472.5 614.5,-472.5 614.5,-442.5 217.5,-442.5"/>
<text text-anchor="start" x="224.5" y="-453.9" font-family="Arial" font-size="14.00" fill="#000000">workspace_id </text>
<text text-anchor="start" x="313.96" y="-453.9" font-family="Arial" font-size="14.00" fill="#666666">[bigint]</text>
<polygon fill="none" stroke="#000000" stroke-width="3" points="215.5,-441.5 215.5,-569.5 615.5,-569.5 615.5,-441.5 215.5,-441.5"/>
</g>
<!-- public.user_account -->
<g id="node2" class="node">
<title>public.user_account</title>
<polygon fill="#efefef" stroke="transparent" points="43.5,-282.5 43.5,-317.5 370.5,-317.5 370.5,-282.5 43.5,-282.5"/>
<polygon fill="none" stroke="#000000" points="43.5,-282.5 43.5,-317.5 370.5,-317.5 370.5,-282.5 43.5,-282.5"/>
<text text-anchor="start" x="63.1925" y="-295.3" font-family="Arial Bold" font-size="18.00" fill="#000000">public.user_account</text>
<text text-anchor="start" x="223.2395" y="-295.3" font-family="Arial" font-size="14.00" fill="#000000">    </text>
<text text-anchor="start" x="257.4443" y="-295.3" font-family="Arial" font-size="14.00" fill="#666666">[BASE TABLE]</text>
<polygon fill="none" stroke="#000000" points="43.5,-252.5 43.5,-282.5 370.5,-282.5 370.5,-252.5 43.5,-252.5"/>
<text text-anchor="start" x="50.5" y="-263.9" font-family="Arial" font-size="14.00" fill="#000000">user_account_id    </text>
<text text-anchor="start" x="187.406" y="-263.9" font-family="Arial" font-size="14.00" fill="#666666">[bigint]</text>
<polygon fill="none" stroke="#000000" points="43.5,-222.5 43.5,-252.5 370.5,-252.5 370.5,-222.5 43.5,-222.5"/>
<text text-anchor="start" x="50.5" y="-233.9" font-family="Arial" font-size="14.00" fill="#000000">user_id    </text>
<text text-anchor="start" x="130.6024" y="-233.9" font-family="Arial" font-size="14.00" fill="#666666">[bigint]</text>
<polygon fill="none" stroke="#000000" points="43.5,-192.5 43.5,-222.5 370.5,-222.5 370.5,-192.5 43.5,-192.5"/>
<text text-anchor="start" x="50.5" y="-203.9" font-family="Arial" font-size="14.00" fill="#000000">user_account_name    </text>
<text text-anchor="start" x="211.5252" y="-203.9" font-family="Arial" font-size="14.00" fill="#666666">[varchar(255)]</text>
<polygon fill="none" stroke="#000000" points="43.5,-162.5 43.5,-192.5 370.5,-192.5 370.5,-162.5 43.5,-162.5"/>
<text text-anchor="start" x="50.5" y="-173.9" font-family="Arial" font-size="14.00" fill="#000000">display_name    </text>
<text text-anchor="start" x="171.0568" y="-173.9" font-family="Arial" font-size="14.00" fill="#666666">[varchar(255)]</text>
<polygon fill="none" stroke="#000000" points="43.5,-132.5 43.5,-162.5 370.5,-162.5 370.5,-132.5 43.5,-132.5"/>
<text text-anchor="start" x="50.2553" y="-143.9" font-family="Arial" font-size="14.00" fill="#000000">last_logined_at    </text>
<text text-anchor="start" x="178.6045" y="-143.9" font-family="Arial" font-size="14.00" fill="#666666">[timestamp without time zone]</text>
<polygon fill="none" stroke="#000000" points="43.5,-102.5 43.5,-132.5 370.5,-132.5 370.5,-102.5 43.5,-102.5"/>
<text text-anchor="start" x="50.5" y="-113.9" font-family="Arial" font-size="14.00" fill="#000000">created_at    </text>
<text text-anchor="start" x="150.8422" y="-113.9" font-family="Arial" font-size="14.00" fill="#666666">[timestamp without time zone]</text>
<polygon fill="none" stroke="#000000" points="43.5,-72.5 43.5,-102.5 370.5,-102.5 370.5,-72.5 43.5,-72.5"/>
<text text-anchor="start" x="50.5" y="-83.9" font-family="Arial" font-size="14.00" fill="#000000">updated_at    </text>
<text text-anchor="start" x="154.7468" y="-83.9" font-family="Arial" font-size="14.00" fill="#666666">[timestamp without time zone]</text>
<polygon fill="none" stroke="#000000" points="43.5,-42.5 43.5,-72.5 370.5,-72.5 370.5,-42.5 43.5,-42.5"/>
<text text-anchor="start" x="50.5" y="-53.9" font-family="Arial" font-size="14.00" fill="#000000">is_deleted    </text>
<text text-anchor="start" x="148.5042" y="-53.9" font-family="Arial" font-size="14.00" fill="#666666">[boolean]</text>
</g>
<!-- public.user_account_workspace&#45;&gt;public.user_account -->
<g id="edge1" class="edge">
<title>public.user_account_workspace:user_account_id&#45;&gt;public.user_account:user_account_id</title>
<path fill="none" stroke="#000000" d="M207.2606,-485.8933C180.3489,-476.2442 194.966,-425.4516 217.5,-397 260.8722,-342.2382 327.1278,-415.7618 370.5,-361 396.3006,-328.4241 412.0556,-267.5 370.5,-267.5"/>
<polygon fill="#000000" stroke="#000000" points="207.6209,-485.9498 216.8024,-491.9456 212.5604,-486.7249 217.5,-487.5 217.5,-487.5 217.5,-487.5 212.5604,-486.7249 218.1976,-483.0544 207.6209,-485.9498 207.6209,-485.9498"/>
</g>
<!-- public.workspace -->
<g id="node3" class="node">
<title>public.workspace</title>
<polygon fill="#efefef" stroke="transparent" points="474.5,-252.5 474.5,-287.5 777.5,-287.5 777.5,-252.5 474.5,-252.5"/>
<polygon fill="none" stroke="#000000" points="474.5,-252.5 474.5,-287.5 777.5,-287.5 777.5,-252.5 474.5,-252.5"/>
<text text-anchor="start" x="493.2058" y="-265.3" font-family="Arial Bold" font-size="18.00" fill="#000000">public.workspace</text>
<text text-anchor="start" x="631.2262" y="-265.3" font-family="Arial" font-size="14.00" fill="#000000">    </text>
<text text-anchor="start" x="665.431" y="-265.3" font-family="Arial" font-size="14.00" fill="#666666">[BASE TABLE]</text>
<polygon fill="none" stroke="#000000" points="474.5,-222.5 474.5,-252.5 777.5,-252.5 777.5,-222.5 474.5,-222.5"/>
<text text-anchor="start" x="481.5" y="-233.9" font-family="Arial" font-size="14.00" fill="#000000">workspace_id    </text>
<text text-anchor="start" x="601.2742" y="-233.9" font-family="Arial" font-size="14.00" fill="#666666">[bigint]</text>
<polygon fill="none" stroke="#000000" points="474.5,-192.5 474.5,-222.5 777.5,-222.5 777.5,-192.5 474.5,-192.5"/>
<text text-anchor="start" x="481.5" y="-203.9" font-family="Arial" font-size="14.00" fill="#000000">workspace_name    </text>
<text text-anchor="start" x="625.3934" y="-203.9" font-family="Arial" font-size="14.00" fill="#666666">[varchar(255)]</text>
<polygon fill="none" stroke="#000000" points="474.5,-162.5 474.5,-192.5 777.5,-192.5 777.5,-162.5 474.5,-162.5"/>
<text text-anchor="start" x="481.5" y="-173.9" font-family="Arial" font-size="14.00" fill="#000000">display_name    </text>
<text text-anchor="start" x="602.0568" y="-173.9" font-family="Arial" font-size="14.00" fill="#666666">[varchar(255)]</text>
<polygon fill="none" stroke="#000000" points="474.5,-132.5 474.5,-162.5 777.5,-162.5 777.5,-132.5 474.5,-132.5"/>
<text text-anchor="start" x="481.5" y="-143.9" font-family="Arial" font-size="14.00" fill="#000000">created_at    </text>
<text text-anchor="start" x="581.8422" y="-143.9" font-family="Arial" font-size="14.00" fill="#666666">[timestamp without time zone]</text>
<polygon fill="none" stroke="#000000" points="474.5,-102.5 474.5,-132.5 777.5,-132.5 777.5,-102.5 474.5,-102.5"/>
<text text-anchor="start" x="481.3065" y="-113.9" font-family="Arial" font-size="14.00" fill="#000000">updated_at    </text>
<text text-anchor="start" x="585.5533" y="-113.9" font-family="Arial" font-size="14.00" fill="#666666">[timestamp without time zone]</text>
<polygon fill="none" stroke="#000000" points="474.5,-72.5 474.5,-102.5 777.5,-102.5 777.5,-72.5 474.5,-72.5"/>
<text text-anchor="start" x="481.5" y="-83.9" font-family="Arial" font-size="14.00" fill="#000000">is_deleted    </text>
<text text-anchor="start" x="579.5042" y="-83.9" font-family="Arial" font-size="14.00" fill="#666666">[boolean]</text>
</g>
<!-- public.user_account_workspace&#45;&gt;public.workspace -->
<g id="edge2" class="edge">
<title>public.user_account_workspace:workspace_id&#45;&gt;public.workspace:workspace_id</title>
<path fill="none" stroke="#000000" d="M624.363,-454.9337C637.4394,-446.0583 626.6498,-416.16 614.5,-397 577.6611,-338.9057 511.3389,-389.0943 474.5,-331 452.2458,-295.9056 432.9444,-237.5 474.5,-237.5"/>
<polygon fill="#000000" stroke="#000000" points="624.1778,-454.9819 613.3668,-453.145 619.3389,-456.2409 614.5,-457.5 614.5,-457.5 614.5,-457.5 619.3389,-456.2409 615.6332,-461.855 624.1778,-454.9819 624.1778,-454.9819"/>
</g>
</g>
</svg>
