<?xml version="1.0" encoding="UTF-8" standalone="no"?>
<!DOCTYPE svg PUBLIC "-//W3C//DTD SVG 1.1//EN"
 "http://www.w3.org/Graphics/SVG/1.1/DTD/svg11.dtd">
<!-- Generated by graphviz version 2.40.1 (20161225.0304)
 -->
<!-- Title: public.reset_password_token Pages: 1 -->
<svg width="474pt" height="592pt"
 viewBox="0.00 0.00 474.00 592.00" xmlns="http://www.w3.org/2000/svg" xmlns:xlink="http://www.w3.org/1999/xlink">
<g id="graph0" class="graph" transform="scale(1 1) rotate(0) translate(4 588)">
<title>public.reset_password_token</title>
<polygon fill="#ffffff" stroke="transparent" points="-4,4 -4,-588 470,-588 470,4 -4,4"/>
<!-- public.reset_password_token -->
<g id="node1" class="node">
<title>public.reset_password_token</title>
<polygon fill="#efefef" stroke="transparent" points="46,-502.5 46,-537.5 420,-537.5 420,-502.5 46,-502.5"/>
<polygon fill="none" stroke="#000000" points="46,-502.5 46,-537.5 420,-537.5 420,-502.5 46,-502.5"/>
<text text-anchor="start" x="52.6858" y="-515.3" font-family="Arial Bold" font-size="18.00" fill="#000000">public.reset_password_token</text>
<text text-anchor="start" x="285.7462" y="-515.3" font-family="Arial" font-size="14.00" fill="#000000">    </text>
<text text-anchor="start" x="319.951" y="-515.3" font-family="Arial" font-size="14.00" fill="#666666">[BASE TABLE]</text>
<polygon fill="none" stroke="#000000" points="46,-472.5 46,-502.5 420,-502.5 420,-472.5 46,-472.5"/>
<text text-anchor="start" x="53" y="-483.9" font-family="Arial" font-size="14.00" fill="#000000">reset_password_token_id </text>
<text text-anchor="start" x="216.38" y="-483.9" font-family="Arial" font-size="14.00" fill="#666666">[bigint]</text>
<polygon fill="none" stroke="#000000" points="46,-442.5 46,-472.5 420,-472.5 420,-442.5 46,-442.5"/>
<text text-anchor="start" x="53" y="-453.9" font-family="Arial" font-size="14.00" fill="#000000">user_id </text>
<text text-anchor="start" x="102.7882" y="-453.9" font-family="Arial" font-size="14.00" fill="#666666">[bigint]</text>
<polygon fill="none" stroke="#000000" points="46,-412.5 46,-442.5 420,-442.5 420,-412.5 46,-412.5"/>
<text text-anchor="start" x="53" y="-423.9" font-family="Arial" font-size="14.00" fill="#000000">token </text>
<text text-anchor="start" x="91.129" y="-423.9" font-family="Arial" font-size="14.00" fill="#666666">[varchar(255)]</text>
<polygon fill="none" stroke="#000000" points="46,-382.5 46,-412.5 420,-412.5 420,-382.5 46,-382.5"/>
<text text-anchor="start" x="53" y="-393.9" font-family="Arial" font-size="14.00" fill="#000000">created_at </text>
<text text-anchor="start" x="123.028" y="-393.9" font-family="Arial" font-size="14.00" fill="#666666">[timestamp without time zone]</text>
<polygon fill="none" stroke="#000000" points="46,-352.5 46,-382.5 420,-382.5 420,-352.5 46,-352.5"/>
<text text-anchor="start" x="53" y="-363.9" font-family="Arial" font-size="14.00" fill="#000000">expired_at </text>
<text text-anchor="start" x="122.244" y="-363.9" font-family="Arial" font-size="14.00" fill="#666666">[timestamp without time zone]</text>
<polygon fill="none" stroke="#000000" stroke-width="3" points="44.5,-351.5 44.5,-539.5 421.5,-539.5 421.5,-351.5 44.5,-351.5"/>
</g>
<!-- public.user -->
<g id="node2" class="node">
<title>public.user</title>
<polygon fill="#efefef" stroke="transparent" points="81,-192.5 81,-227.5 384,-227.5 384,-192.5 81,-192.5"/>
<polygon fill="none" stroke="#000000" points="81,-192.5 81,-227.5 384,-227.5 384,-192.5 81,-192.5"/>
<text text-anchor="start" x="125.2091" y="-205.3" font-family="Arial Bold" font-size="18.00" fill="#000000">public.user</text>
<text text-anchor="start" x="212.2229" y="-205.3" font-family="Arial" font-size="14.00" fill="#000000">    </text>
<text text-anchor="start" x="246.4277" y="-205.3" font-family="Arial" font-size="14.00" fill="#666666">[BASE TABLE]</text>
<polygon fill="none" stroke="#000000" points="81,-162.5 81,-192.5 384,-192.5 384,-162.5 81,-162.5"/>
<text text-anchor="start" x="88" y="-173.9" font-family="Arial" font-size="14.00" fill="#000000">user_id    </text>
<text text-anchor="start" x="168.1024" y="-173.9" font-family="Arial" font-size="14.00" fill="#666666">[bigint]</text>
<polygon fill="none" stroke="#000000" points="81,-132.5 81,-162.5 384,-162.5 384,-132.5 81,-132.5"/>
<text text-anchor="start" x="88" y="-143.9" font-family="Arial" font-size="14.00" fill="#000000">email    </text>
<text text-anchor="start" x="155.6438" y="-143.9" font-family="Arial" font-size="14.00" fill="#666666">[varchar(255)]</text>
<polygon fill="none" stroke="#000000" points="81,-102.5 81,-132.5 384,-132.5 384,-102.5 81,-102.5"/>
<text text-anchor="start" x="88" y="-113.9" font-family="Arial" font-size="14.00" fill="#000000">created_at    </text>
<text text-anchor="start" x="188.3422" y="-113.9" font-family="Arial" font-size="14.00" fill="#666666">[timestamp without time zone]</text>
<polygon fill="none" stroke="#000000" points="81,-72.5 81,-102.5 384,-102.5 384,-72.5 81,-72.5"/>
<text text-anchor="start" x="87.8065" y="-83.9" font-family="Arial" font-size="14.00" fill="#000000">updated_at    </text>
<text text-anchor="start" x="192.0533" y="-83.9" font-family="Arial" font-size="14.00" fill="#666666">[timestamp without time zone]</text>
<polygon fill="none" stroke="#000000" points="81,-42.5 81,-72.5 384,-72.5 384,-42.5 81,-42.5"/>
<text text-anchor="start" x="88" y="-53.9" font-family="Arial" font-size="14.00" fill="#000000">is_deleted    </text>
<text text-anchor="start" x="186.0042" y="-53.9" font-family="Arial" font-size="14.00" fill="#666666">[boolean]</text>
</g>
<!-- public.reset_password_token&#45;&gt;public.user -->
<g id="edge1" class="edge">
<title>public.reset_password_token:user_id&#45;&gt;public.user:user_id</title>
<path fill="none" stroke="#000000" d="M35.8142,-456.6208C-18.397,-446.6319 3.7229,-354.0191 46,-307 96.5044,-250.8308 333.4956,-327.1692 384,-271 411.7846,-240.0989 425.5556,-177.5 384,-177.5"/>
<polygon fill="#000000" stroke="#000000" points="36.037,-456.6399 45.613,-461.9833 41.0185,-457.07 46,-457.5 46,-457.5 46,-457.5 41.0185,-457.07 46.387,-453.0167 36.037,-456.6399 36.037,-456.6399"/>
</g>
</g>
</svg>
