<?xml version="1.0" encoding="UTF-8" standalone="no"?>
<!DOCTYPE svg PUBLIC "-//W3C//DTD SVG 1.1//EN"
 "http://www.w3.org/Graphics/SVG/1.1/DTD/svg11.dtd">
<!-- Generated by graphviz version 2.40.1 (20161225.0304)
 -->
<!-- Title: public.organization_workspace Pages: 1 -->
<svg width="804pt" height="562pt"
 viewBox="0.00 0.00 804.00 562.00" xmlns="http://www.w3.org/2000/svg" xmlns:xlink="http://www.w3.org/1999/xlink">
<g id="graph0" class="graph" transform="scale(1 1) rotate(0) translate(4 558)">
<title>public.organization_workspace</title>
<polygon fill="#ffffff" stroke="transparent" points="-4,4 -4,-558 800,-558 800,4 -4,4"/>
<!-- public.organization_workspace -->
<g id="node1" class="node">
<title>public.organization_workspace</title>
<polygon fill="#efefef" stroke="transparent" points="204.5,-472.5 204.5,-507.5 591.5,-507.5 591.5,-472.5 204.5,-472.5"/>
<polygon fill="none" stroke="#000000" points="204.5,-472.5 204.5,-507.5 591.5,-507.5 591.5,-472.5 204.5,-472.5"/>
<text text-anchor="start" x="211.1896" y="-485.3" font-family="Arial Bold" font-size="18.00" fill="#000000">public.organization_workspace</text>
<text text-anchor="start" x="457.2424" y="-485.3" font-family="Arial" font-size="14.00" fill="#000000">    </text>
<text text-anchor="start" x="491.4472" y="-485.3" font-family="Arial" font-size="14.00" fill="#666666">[BASE TABLE]</text>
<polygon fill="none" stroke="#000000" points="204.5,-442.5 204.5,-472.5 591.5,-472.5 591.5,-442.5 204.5,-442.5"/>
<text text-anchor="start" x="211.5" y="-453.9" font-family="Arial" font-size="14.00" fill="#000000">organization_workspace_id </text>
<text text-anchor="start" x="384.9852" y="-453.9" font-family="Arial" font-size="14.00" fill="#666666">[bigint]</text>
<polygon fill="none" stroke="#000000" points="204.5,-412.5 204.5,-442.5 591.5,-442.5 591.5,-412.5 204.5,-412.5"/>
<text text-anchor="start" x="211.5" y="-423.9" font-family="Arial" font-size="14.00" fill="#000000">organization_id </text>
<text text-anchor="start" x="310.305" y="-423.9" font-family="Arial" font-size="14.00" fill="#666666">[bigint]</text>
<polygon fill="none" stroke="#000000" points="204.5,-382.5 204.5,-412.5 591.5,-412.5 591.5,-382.5 204.5,-382.5"/>
<text text-anchor="start" x="211.5" y="-393.9" font-family="Arial" font-size="14.00" fill="#000000">workspace_id </text>
<text text-anchor="start" x="300.96" y="-393.9" font-family="Arial" font-size="14.00" fill="#666666">[bigint]</text>
<polygon fill="none" stroke="#000000" stroke-width="3" points="202.5,-381.5 202.5,-509.5 592.5,-509.5 592.5,-381.5 202.5,-381.5"/>
</g>
<!-- public.organization -->
<g id="node2" class="node">
<title>public.organization</title>
<polygon fill="#efefef" stroke="transparent" points="43.5,-222.5 43.5,-257.5 346.5,-257.5 346.5,-222.5 43.5,-222.5"/>
<polygon fill="none" stroke="#000000" points="43.5,-222.5 43.5,-257.5 346.5,-257.5 346.5,-222.5 43.5,-222.5"/>
<text text-anchor="start" x="56.1983" y="-235.3" font-family="Arial Bold" font-size="18.00" fill="#000000">public.organization</text>
<text text-anchor="start" x="206.2337" y="-235.3" font-family="Arial" font-size="14.00" fill="#000000">    </text>
<text text-anchor="start" x="240.4385" y="-235.3" font-family="Arial" font-size="14.00" fill="#666666">[BASE TABLE]</text>
<polygon fill="none" stroke="#000000" points="43.5,-192.5 43.5,-222.5 346.5,-222.5 346.5,-192.5 43.5,-192.5"/>
<text text-anchor="start" x="50.5" y="-203.9" font-family="Arial" font-size="14.00" fill="#000000">organization_id    </text>
<text text-anchor="start" x="179.6192" y="-203.9" font-family="Arial" font-size="14.00" fill="#666666">[bigint]</text>
<polygon fill="none" stroke="#000000" points="43.5,-162.5 43.5,-192.5 346.5,-192.5 346.5,-162.5 43.5,-162.5"/>
<text text-anchor="start" x="50.5" y="-173.9" font-family="Arial" font-size="14.00" fill="#000000">organization_name    </text>
<text text-anchor="start" x="203.7384" y="-173.9" font-family="Arial" font-size="14.00" fill="#666666">[varchar(255)]</text>
<polygon fill="none" stroke="#000000" points="43.5,-132.5 43.5,-162.5 346.5,-162.5 346.5,-132.5 43.5,-132.5"/>
<text text-anchor="start" x="50.5" y="-143.9" font-family="Arial" font-size="14.00" fill="#000000">display_name    </text>
<text text-anchor="start" x="171.0568" y="-143.9" font-family="Arial" font-size="14.00" fill="#666666">[varchar(255)]</text>
<polygon fill="none" stroke="#000000" points="43.5,-102.5 43.5,-132.5 346.5,-132.5 346.5,-102.5 43.5,-102.5"/>
<text text-anchor="start" x="50.5" y="-113.9" font-family="Arial" font-size="14.00" fill="#000000">created_at    </text>
<text text-anchor="start" x="150.8422" y="-113.9" font-family="Arial" font-size="14.00" fill="#666666">[timestamp without time zone]</text>
<polygon fill="none" stroke="#000000" points="43.5,-72.5 43.5,-102.5 346.5,-102.5 346.5,-72.5 43.5,-72.5"/>
<text text-anchor="start" x="50.3065" y="-83.9" font-family="Arial" font-size="14.00" fill="#000000">updated_at    </text>
<text text-anchor="start" x="154.5533" y="-83.9" font-family="Arial" font-size="14.00" fill="#666666">[timestamp without time zone]</text>
<polygon fill="none" stroke="#000000" points="43.5,-42.5 43.5,-72.5 346.5,-72.5 346.5,-42.5 43.5,-42.5"/>
<text text-anchor="start" x="50.5" y="-53.9" font-family="Arial" font-size="14.00" fill="#000000">is_deleted    </text>
<text text-anchor="start" x="148.5042" y="-53.9" font-family="Arial" font-size="14.00" fill="#666666">[boolean]</text>
</g>
<!-- public.organization_workspace&#45;&gt;public.organization -->
<g id="edge1" class="edge">
<title>public.organization_workspace:organization_id&#45;&gt;public.organization:organization_id</title>
<path fill="none" stroke="#000000" d="M194.2676,-425.8989C167.3969,-416.2819 182.2115,-365.6443 204.5,-337 244.4831,-285.6155 306.5169,-352.3845 346.5,-301 372.0195,-268.2034 388.0556,-207.5 346.5,-207.5"/>
<polygon fill="#000000" stroke="#000000" points="194.6202,-425.954 203.8043,-431.9459 199.5601,-426.727 204.5,-427.5 204.5,-427.5 204.5,-427.5 199.5601,-426.727 205.1957,-423.0541 194.6202,-425.954 194.6202,-425.954"/>
</g>
<!-- public.workspace -->
<g id="node3" class="node">
<title>public.workspace</title>
<polygon fill="#efefef" stroke="transparent" points="450.5,-222.5 450.5,-257.5 753.5,-257.5 753.5,-222.5 450.5,-222.5"/>
<polygon fill="none" stroke="#000000" points="450.5,-222.5 450.5,-257.5 753.5,-257.5 753.5,-222.5 450.5,-222.5"/>
<text text-anchor="start" x="469.2058" y="-235.3" font-family="Arial Bold" font-size="18.00" fill="#000000">public.workspace</text>
<text text-anchor="start" x="607.2262" y="-235.3" font-family="Arial" font-size="14.00" fill="#000000">    </text>
<text text-anchor="start" x="641.431" y="-235.3" font-family="Arial" font-size="14.00" fill="#666666">[BASE TABLE]</text>
<polygon fill="none" stroke="#000000" points="450.5,-192.5 450.5,-222.5 753.5,-222.5 753.5,-192.5 450.5,-192.5"/>
<text text-anchor="start" x="457.5" y="-203.9" font-family="Arial" font-size="14.00" fill="#000000">workspace_id    </text>
<text text-anchor="start" x="577.2742" y="-203.9" font-family="Arial" font-size="14.00" fill="#666666">[bigint]</text>
<polygon fill="none" stroke="#000000" points="450.5,-162.5 450.5,-192.5 753.5,-192.5 753.5,-162.5 450.5,-162.5"/>
<text text-anchor="start" x="457.5" y="-173.9" font-family="Arial" font-size="14.00" fill="#000000">workspace_name    </text>
<text text-anchor="start" x="601.3934" y="-173.9" font-family="Arial" font-size="14.00" fill="#666666">[varchar(255)]</text>
<polygon fill="none" stroke="#000000" points="450.5,-132.5 450.5,-162.5 753.5,-162.5 753.5,-132.5 450.5,-132.5"/>
<text text-anchor="start" x="457.5" y="-143.9" font-family="Arial" font-size="14.00" fill="#000000">display_name    </text>
<text text-anchor="start" x="578.0568" y="-143.9" font-family="Arial" font-size="14.00" fill="#666666">[varchar(255)]</text>
<polygon fill="none" stroke="#000000" points="450.5,-102.5 450.5,-132.5 753.5,-132.5 753.5,-102.5 450.5,-102.5"/>
<text text-anchor="start" x="457.5" y="-113.9" font-family="Arial" font-size="14.00" fill="#000000">created_at    </text>
<text text-anchor="start" x="557.8422" y="-113.9" font-family="Arial" font-size="14.00" fill="#666666">[timestamp without time zone]</text>
<polygon fill="none" stroke="#000000" points="450.5,-72.5 450.5,-102.5 753.5,-102.5 753.5,-72.5 450.5,-72.5"/>
<text text-anchor="start" x="457.3065" y="-83.9" font-family="Arial" font-size="14.00" fill="#000000">updated_at    </text>
<text text-anchor="start" x="561.5533" y="-83.9" font-family="Arial" font-size="14.00" fill="#666666">[timestamp without time zone]</text>
<polygon fill="none" stroke="#000000" points="450.5,-42.5 450.5,-72.5 753.5,-72.5 753.5,-42.5 450.5,-42.5"/>
<text text-anchor="start" x="457.5" y="-53.9" font-family="Arial" font-size="14.00" fill="#000000">is_deleted    </text>
<text text-anchor="start" x="555.5042" y="-53.9" font-family="Arial" font-size="14.00" fill="#666666">[boolean]</text>
</g>
<!-- public.organization_workspace&#45;&gt;public.workspace -->
<g id="edge2" class="edge">
<title>public.organization_workspace:workspace_id&#45;&gt;public.workspace:workspace_id</title>
<path fill="none" stroke="#000000" d="M601.4924,-394.8427C614.9918,-385.6699 605.4174,-354.9173 591.5,-337 551.8246,-285.9219 490.1754,-352.0781 450.5,-301 425.0082,-268.1819 408.9444,-207.5 450.5,-207.5"/>
<polygon fill="#000000" stroke="#000000" points="601.1641,-394.93 590.3435,-393.1511 596.3321,-396.215 591.5,-397.5 591.5,-397.5 591.5,-397.5 596.3321,-396.215 592.6565,-401.8489 601.1641,-394.93 601.1641,-394.93"/>
</g>
</g>
</svg>
