<?xml version="1.0" encoding="UTF-8" standalone="no"?>
<!DOCTYPE svg PUBLIC "-//W3C//DTD SVG 1.1//EN"
 "http://www.w3.org/Graphics/SVG/1.1/DTD/svg11.dtd">
<!-- Generated by graphviz version 2.40.1 (20161225.0304)
 -->
<!-- Title: public.organization Pages: 1 -->
<svg width="952pt" height="592pt"
 viewBox="0.00 0.00 952.00 592.00" xmlns="http://www.w3.org/2000/svg" xmlns:xlink="http://www.w3.org/1999/xlink">
<g id="graph0" class="graph" transform="scale(1 1) rotate(0) translate(4 588)">
<title>public.organization</title>
<polygon fill="#ffffff" stroke="transparent" points="-4,4 -4,-588 948,-588 948,4 -4,4"/>
<!-- public.organization -->
<g id="node1" class="node">
<title>public.organization</title>
<polygon fill="#efefef" stroke="transparent" points="321.5,-225.5 321.5,-260.5 612.5,-260.5 612.5,-225.5 321.5,-225.5"/>
<polygon fill="none" stroke="#000000" points="321.5,-225.5 321.5,-260.5 612.5,-260.5 612.5,-225.5 321.5,-225.5"/>
<text text-anchor="start" x="328.1983" y="-238.3" font-family="Arial Bold" font-size="18.00" fill="#000000">public.organization</text>
<text text-anchor="start" x="478.2337" y="-238.3" font-family="Arial" font-size="14.00" fill="#000000">    </text>
<text text-anchor="start" x="512.4385" y="-238.3" font-family="Arial" font-size="14.00" fill="#666666">[BASE TABLE]</text>
<polygon fill="none" stroke="#000000" points="321.5,-195.5 321.5,-225.5 612.5,-225.5 612.5,-195.5 321.5,-195.5"/>
<text text-anchor="start" x="328.5" y="-206.9" font-family="Arial" font-size="14.00" fill="#000000">organization_id </text>
<text text-anchor="start" x="427.305" y="-206.9" font-family="Arial" font-size="14.00" fill="#666666">[bigint]</text>
<polygon fill="none" stroke="#000000" points="321.5,-165.5 321.5,-195.5 612.5,-195.5 612.5,-165.5 321.5,-165.5"/>
<text text-anchor="start" x="328.5" y="-176.9" font-family="Arial" font-size="14.00" fill="#000000">organization_name </text>
<text text-anchor="start" x="451.4242" y="-176.9" font-family="Arial" font-size="14.00" fill="#666666">[varchar(255)]</text>
<polygon fill="none" stroke="#000000" points="321.5,-135.5 321.5,-165.5 612.5,-165.5 612.5,-135.5 321.5,-135.5"/>
<text text-anchor="start" x="328.5" y="-146.9" font-family="Arial" font-size="14.00" fill="#000000">display_name </text>
<text text-anchor="start" x="418.7426" y="-146.9" font-family="Arial" font-size="14.00" fill="#666666">[varchar(255)]</text>
<polygon fill="none" stroke="#000000" points="321.5,-105.5 321.5,-135.5 612.5,-135.5 612.5,-105.5 321.5,-105.5"/>
<text text-anchor="start" x="328.5" y="-116.9" font-family="Arial" font-size="14.00" fill="#000000">created_at </text>
<text text-anchor="start" x="398.528" y="-116.9" font-family="Arial" font-size="14.00" fill="#666666">[timestamp without time zone]</text>
<polygon fill="none" stroke="#000000" points="321.5,-75.5 321.5,-105.5 612.5,-105.5 612.5,-75.5 321.5,-75.5"/>
<text text-anchor="start" x="328.5" y="-86.9" font-family="Arial" font-size="14.00" fill="#000000">updated_at </text>
<text text-anchor="start" x="402.4326" y="-86.9" font-family="Arial" font-size="14.00" fill="#666666">[timestamp without time zone]</text>
<polygon fill="none" stroke="#000000" points="321.5,-45.5 321.5,-75.5 612.5,-75.5 612.5,-45.5 321.5,-45.5"/>
<text text-anchor="start" x="328.5" y="-56.9" font-family="Arial" font-size="14.00" fill="#000000">is_deleted </text>
<text text-anchor="start" x="396.19" y="-56.9" font-family="Arial" font-size="14.00" fill="#666666">[boolean]</text>
<polygon fill="none" stroke="#000000" stroke-width="3" points="319.5,-44.5 319.5,-262.5 613.5,-262.5 613.5,-44.5 319.5,-44.5"/>
</g>
<!-- public.organization_member -->
<g id="node2" class="node">
<title>public.organization_member</title>
<polygon fill="#efefef" stroke="transparent" points="43.5,-505.5 43.5,-540.5 410.5,-540.5 410.5,-505.5 43.5,-505.5"/>
<polygon fill="none" stroke="#000000" points="43.5,-505.5 43.5,-540.5 410.5,-540.5 410.5,-505.5 43.5,-505.5"/>
<text text-anchor="start" x="50.1976" y="-518.3" font-family="Arial Bold" font-size="18.00" fill="#000000">public.organization_member</text>
<text text-anchor="start" x="276.2344" y="-518.3" font-family="Arial" font-size="14.00" fill="#000000">    </text>
<text text-anchor="start" x="310.4392" y="-518.3" font-family="Arial" font-size="14.00" fill="#666666">[BASE TABLE]</text>
<polygon fill="none" stroke="#000000" points="43.5,-475.5 43.5,-505.5 410.5,-505.5 410.5,-475.5 43.5,-475.5"/>
<text text-anchor="start" x="50.5" y="-486.9" font-family="Arial" font-size="14.00" fill="#000000">organization_member_id    </text>
<text text-anchor="start" x="238.7314" y="-486.9" font-family="Arial" font-size="14.00" fill="#666666">[bigint]</text>
<polygon fill="none" stroke="#000000" points="43.5,-445.5 43.5,-475.5 410.5,-475.5 410.5,-445.5 43.5,-445.5"/>
<text text-anchor="start" x="50.5" y="-456.9" font-family="Arial" font-size="14.00" fill="#000000">organization_id    </text>
<text text-anchor="start" x="179.6192" y="-456.9" font-family="Arial" font-size="14.00" fill="#666666">[bigint]</text>
<polygon fill="none" stroke="#000000" points="43.5,-415.5 43.5,-445.5 410.5,-445.5 410.5,-415.5 43.5,-415.5"/>
<text text-anchor="start" x="50.5" y="-426.9" font-family="Arial" font-size="14.00" fill="#000000">user_account_id    </text>
<text text-anchor="start" x="187.406" y="-426.9" font-family="Arial" font-size="14.00" fill="#666666">[bigint]</text>
<polygon fill="none" stroke="#000000" points="43.5,-385.5 43.5,-415.5 410.5,-415.5 410.5,-385.5 43.5,-385.5"/>
<text text-anchor="start" x="50.5" y="-396.9" font-family="Arial" font-size="14.00" fill="#000000">organization_member_authority_id    </text>
<text text-anchor="start" x="300.1928" y="-396.9" font-family="Arial" font-size="14.00" fill="#666666">[bigint]</text>
</g>
<!-- public.organization_member&#45;&gt;public.organization -->
<g id="edge1" class="edge">
<title>public.organization_member:organization_id&#45;&gt;public.organization:organization_id</title>
<path fill="none" stroke="#000000" d="M420.9123,-459.3168C459.2699,-449.6562 437.5269,-383.0864 410.5,-343 386.6469,-307.621 345.3531,-342.379 321.5,-307 297.524,-271.4387 278.6111,-210.5 321.5,-210.5"/>
<polygon fill="#000000" stroke="#000000" points="420.4361,-459.3708 409.9919,-456.0288 415.468,-459.9354 410.5,-460.5 410.5,-460.5 410.5,-460.5 415.468,-459.9354 411.0081,-464.9712 420.4361,-459.3708 420.4361,-459.3708"/>
</g>
<!-- public.organization_workspace -->
<g id="node3" class="node">
<title>public.organization_workspace</title>
<polygon fill="#efefef" stroke="transparent" points="514.5,-490.5 514.5,-525.5 901.5,-525.5 901.5,-490.5 514.5,-490.5"/>
<polygon fill="none" stroke="#000000" points="514.5,-490.5 514.5,-525.5 901.5,-525.5 901.5,-490.5 514.5,-490.5"/>
<text text-anchor="start" x="521.1896" y="-503.3" font-family="Arial Bold" font-size="18.00" fill="#000000">public.organization_workspace</text>
<text text-anchor="start" x="767.2424" y="-503.3" font-family="Arial" font-size="14.00" fill="#000000">    </text>
<text text-anchor="start" x="801.4472" y="-503.3" font-family="Arial" font-size="14.00" fill="#666666">[BASE TABLE]</text>
<polygon fill="none" stroke="#000000" points="514.5,-460.5 514.5,-490.5 901.5,-490.5 901.5,-460.5 514.5,-460.5"/>
<text text-anchor="start" x="521.5" y="-471.9" font-family="Arial" font-size="14.00" fill="#000000">organization_workspace_id    </text>
<text text-anchor="start" x="725.2994" y="-471.9" font-family="Arial" font-size="14.00" fill="#666666">[bigint]</text>
<polygon fill="none" stroke="#000000" points="514.5,-430.5 514.5,-460.5 901.5,-460.5 901.5,-430.5 514.5,-430.5"/>
<text text-anchor="start" x="521.5" y="-441.9" font-family="Arial" font-size="14.00" fill="#000000">organization_id    </text>
<text text-anchor="start" x="650.6192" y="-441.9" font-family="Arial" font-size="14.00" fill="#666666">[bigint]</text>
<polygon fill="none" stroke="#000000" points="514.5,-400.5 514.5,-430.5 901.5,-430.5 901.5,-400.5 514.5,-400.5"/>
<text text-anchor="start" x="521.5" y="-411.9" font-family="Arial" font-size="14.00" fill="#000000">workspace_id    </text>
<text text-anchor="start" x="641.2742" y="-411.9" font-family="Arial" font-size="14.00" fill="#666666">[bigint]</text>
</g>
<!-- public.organization_workspace&#45;&gt;public.organization -->
<g id="edge2" class="edge">
<title>public.organization_workspace:organization_id&#45;&gt;public.organization:organization_id</title>
<path fill="none" stroke="#000000" d="M504.3747,-443.8999C479.4272,-434.6962 496.3726,-387.8688 514.5,-358 539.9747,-316.0249 587.0253,-348.9751 612.5,-307 634.7519,-270.3352 655.3889,-210.5 612.5,-210.5"/>
<polygon fill="#000000" stroke="#000000" points="504.6226,-443.939 513.7976,-449.9448 509.5613,-444.7195 514.5,-445.5 514.5,-445.5 514.5,-445.5 509.5613,-444.7195 515.2024,-441.0552 504.6226,-443.939 504.6226,-443.939"/>
</g>
</g>
</svg>
