<?xml version="1.0" encoding="UTF-8" standalone="no"?>
<!DOCTYPE svg PUBLIC "-//W3C//DTD SVG 1.1//EN"
 "http://www.w3.org/Graphics/SVG/1.1/DTD/svg11.dtd">
<!-- Generated by graphviz version 2.40.1 (20161225.0304)
 -->
<!-- Title: public.workspace_member Pages: 1 -->
<svg width="1367pt" height="652pt"
 viewBox="0.00 0.00 1366.50 652.00" xmlns="http://www.w3.org/2000/svg" xmlns:xlink="http://www.w3.org/1999/xlink">
<g id="graph0" class="graph" transform="scale(1 1) rotate(0) translate(4 648)">
<title>public.workspace_member</title>
<polygon fill="#ffffff" stroke="transparent" points="-4,4 -4,-648 1362.5,-648 1362.5,4 -4,4"/>
<!-- public.workspace_member -->
<g id="node1" class="node">
<title>public.workspace_member</title>
<polygon fill="#efefef" stroke="transparent" points="436.5,-562.5 436.5,-597.5 791.5,-597.5 791.5,-562.5 436.5,-562.5"/>
<polygon fill="none" stroke="#000000" points="436.5,-562.5 436.5,-597.5 791.5,-597.5 791.5,-562.5 436.5,-562.5"/>
<text text-anchor="start" x="443.2051" y="-575.3" font-family="Arial Bold" font-size="18.00" fill="#000000">public.workspace_member</text>
<text text-anchor="start" x="657.2269" y="-575.3" font-family="Arial" font-size="14.00" fill="#000000">    </text>
<text text-anchor="start" x="691.4317" y="-575.3" font-family="Arial" font-size="14.00" fill="#666666">[BASE TABLE]</text>
<polygon fill="none" stroke="#000000" points="436.5,-532.5 436.5,-562.5 791.5,-562.5 791.5,-532.5 436.5,-532.5"/>
<text text-anchor="start" x="443.5" y="-543.9" font-family="Arial" font-size="14.00" fill="#000000">workspace_member_id </text>
<text text-anchor="start" x="592.0722" y="-543.9" font-family="Arial" font-size="14.00" fill="#666666">[bigint]</text>
<polygon fill="none" stroke="#000000" points="436.5,-502.5 436.5,-532.5 791.5,-532.5 791.5,-502.5 436.5,-502.5"/>
<text text-anchor="start" x="443.5" y="-513.9" font-family="Arial" font-size="14.00" fill="#000000">workspace_id </text>
<text text-anchor="start" x="532.96" y="-513.9" font-family="Arial" font-size="14.00" fill="#666666">[bigint]</text>
<polygon fill="none" stroke="#000000" points="436.5,-472.5 436.5,-502.5 791.5,-502.5 791.5,-472.5 436.5,-472.5"/>
<text text-anchor="start" x="443.5" y="-483.9" font-family="Arial" font-size="14.00" fill="#000000">user_account_id </text>
<text text-anchor="start" x="550.0918" y="-483.9" font-family="Arial" font-size="14.00" fill="#666666">[bigint]</text>
<polygon fill="none" stroke="#000000" points="436.5,-442.5 436.5,-472.5 791.5,-472.5 791.5,-442.5 436.5,-442.5"/>
<text text-anchor="start" x="443.5" y="-453.9" font-family="Arial" font-size="14.00" fill="#000000">workspace_member_authority_id </text>
<text text-anchor="start" x="653.5336" y="-453.9" font-family="Arial" font-size="14.00" fill="#666666">[bigint]</text>
<polygon fill="none" stroke="#000000" stroke-width="3" points="434.5,-441.5 434.5,-599.5 792.5,-599.5 792.5,-441.5 434.5,-441.5"/>
</g>
<!-- public.workspace -->
<g id="node2" class="node">
<title>public.workspace</title>
<polygon fill="#efefef" stroke="transparent" points="43.5,-252.5 43.5,-287.5 346.5,-287.5 346.5,-252.5 43.5,-252.5"/>
<polygon fill="none" stroke="#000000" points="43.5,-252.5 43.5,-287.5 346.5,-287.5 346.5,-252.5 43.5,-252.5"/>
<text text-anchor="start" x="62.2058" y="-265.3" font-family="Arial Bold" font-size="18.00" fill="#000000">public.workspace</text>
<text text-anchor="start" x="200.2262" y="-265.3" font-family="Arial" font-size="14.00" fill="#000000">    </text>
<text text-anchor="start" x="234.431" y="-265.3" font-family="Arial" font-size="14.00" fill="#666666">[BASE TABLE]</text>
<polygon fill="none" stroke="#000000" points="43.5,-222.5 43.5,-252.5 346.5,-252.5 346.5,-222.5 43.5,-222.5"/>
<text text-anchor="start" x="50.5" y="-233.9" font-family="Arial" font-size="14.00" fill="#000000">workspace_id    </text>
<text text-anchor="start" x="170.2742" y="-233.9" font-family="Arial" font-size="14.00" fill="#666666">[bigint]</text>
<polygon fill="none" stroke="#000000" points="43.5,-192.5 43.5,-222.5 346.5,-222.5 346.5,-192.5 43.5,-192.5"/>
<text text-anchor="start" x="50.5" y="-203.9" font-family="Arial" font-size="14.00" fill="#000000">workspace_name    </text>
<text text-anchor="start" x="194.3934" y="-203.9" font-family="Arial" font-size="14.00" fill="#666666">[varchar(255)]</text>
<polygon fill="none" stroke="#000000" points="43.5,-162.5 43.5,-192.5 346.5,-192.5 346.5,-162.5 43.5,-162.5"/>
<text text-anchor="start" x="50.5" y="-173.9" font-family="Arial" font-size="14.00" fill="#000000">display_name    </text>
<text text-anchor="start" x="171.0568" y="-173.9" font-family="Arial" font-size="14.00" fill="#666666">[varchar(255)]</text>
<polygon fill="none" stroke="#000000" points="43.5,-132.5 43.5,-162.5 346.5,-162.5 346.5,-132.5 43.5,-132.5"/>
<text text-anchor="start" x="50.5" y="-143.9" font-family="Arial" font-size="14.00" fill="#000000">created_at    </text>
<text text-anchor="start" x="150.8422" y="-143.9" font-family="Arial" font-size="14.00" fill="#666666">[timestamp without time zone]</text>
<polygon fill="none" stroke="#000000" points="43.5,-102.5 43.5,-132.5 346.5,-132.5 346.5,-102.5 43.5,-102.5"/>
<text text-anchor="start" x="50.3065" y="-113.9" font-family="Arial" font-size="14.00" fill="#000000">updated_at    </text>
<text text-anchor="start" x="154.5533" y="-113.9" font-family="Arial" font-size="14.00" fill="#666666">[timestamp without time zone]</text>
<polygon fill="none" stroke="#000000" points="43.5,-72.5 43.5,-102.5 346.5,-102.5 346.5,-72.5 43.5,-72.5"/>
<text text-anchor="start" x="50.5" y="-83.9" font-family="Arial" font-size="14.00" fill="#000000">is_deleted    </text>
<text text-anchor="start" x="148.5042" y="-83.9" font-family="Arial" font-size="14.00" fill="#666666">[boolean]</text>
</g>
<!-- public.workspace_member&#45;&gt;public.workspace -->
<g id="edge1" class="edge">
<title>public.workspace_member:workspace_id&#45;&gt;public.workspace:workspace_id</title>
<path fill="none" stroke="#000000" d="M426.6943,-515.0794C375.2785,-487.7124 408.2833,-237.5 346.5,-237.5"/>
<polygon fill="#000000" stroke="#000000" points="426.7914,-515.1033 435.4215,-521.8689 431.6457,-516.3016 436.5,-517.5 436.5,-517.5 436.5,-517.5 431.6457,-516.3016 437.5785,-513.1311 426.7914,-515.1033 426.7914,-515.1033"/>
</g>
<!-- public.user_account -->
<g id="node3" class="node">
<title>public.user_account</title>
<polygon fill="#efefef" stroke="transparent" points="450.5,-282.5 450.5,-317.5 777.5,-317.5 777.5,-282.5 450.5,-282.5"/>
<polygon fill="none" stroke="#000000" points="450.5,-282.5 450.5,-317.5 777.5,-317.5 777.5,-282.5 450.5,-282.5"/>
<text text-anchor="start" x="470.1925" y="-295.3" font-family="Arial Bold" font-size="18.00" fill="#000000">public.user_account</text>
<text text-anchor="start" x="630.2395" y="-295.3" font-family="Arial" font-size="14.00" fill="#000000">    </text>
<text text-anchor="start" x="664.4443" y="-295.3" font-family="Arial" font-size="14.00" fill="#666666">[BASE TABLE]</text>
<polygon fill="none" stroke="#000000" points="450.5,-252.5 450.5,-282.5 777.5,-282.5 777.5,-252.5 450.5,-252.5"/>
<text text-anchor="start" x="457.5" y="-263.9" font-family="Arial" font-size="14.00" fill="#000000">user_account_id    </text>
<text text-anchor="start" x="594.406" y="-263.9" font-family="Arial" font-size="14.00" fill="#666666">[bigint]</text>
<polygon fill="none" stroke="#000000" points="450.5,-222.5 450.5,-252.5 777.5,-252.5 777.5,-222.5 450.5,-222.5"/>
<text text-anchor="start" x="457.5" y="-233.9" font-family="Arial" font-size="14.00" fill="#000000">user_id    </text>
<text text-anchor="start" x="537.6024" y="-233.9" font-family="Arial" font-size="14.00" fill="#666666">[bigint]</text>
<polygon fill="none" stroke="#000000" points="450.5,-192.5 450.5,-222.5 777.5,-222.5 777.5,-192.5 450.5,-192.5"/>
<text text-anchor="start" x="457.5" y="-203.9" font-family="Arial" font-size="14.00" fill="#000000">user_account_name    </text>
<text text-anchor="start" x="618.5252" y="-203.9" font-family="Arial" font-size="14.00" fill="#666666">[varchar(255)]</text>
<polygon fill="none" stroke="#000000" points="450.5,-162.5 450.5,-192.5 777.5,-192.5 777.5,-162.5 450.5,-162.5"/>
<text text-anchor="start" x="457.5" y="-173.9" font-family="Arial" font-size="14.00" fill="#000000">display_name    </text>
<text text-anchor="start" x="578.0568" y="-173.9" font-family="Arial" font-size="14.00" fill="#666666">[varchar(255)]</text>
<polygon fill="none" stroke="#000000" points="450.5,-132.5 450.5,-162.5 777.5,-162.5 777.5,-132.5 450.5,-132.5"/>
<text text-anchor="start" x="457.2553" y="-143.9" font-family="Arial" font-size="14.00" fill="#000000">last_logined_at    </text>
<text text-anchor="start" x="585.6045" y="-143.9" font-family="Arial" font-size="14.00" fill="#666666">[timestamp without time zone]</text>
<polygon fill="none" stroke="#000000" points="450.5,-102.5 450.5,-132.5 777.5,-132.5 777.5,-102.5 450.5,-102.5"/>
<text text-anchor="start" x="457.5" y="-113.9" font-family="Arial" font-size="14.00" fill="#000000">created_at    </text>
<text text-anchor="start" x="557.8422" y="-113.9" font-family="Arial" font-size="14.00" fill="#666666">[timestamp without time zone]</text>
<polygon fill="none" stroke="#000000" points="450.5,-72.5 450.5,-102.5 777.5,-102.5 777.5,-72.5 450.5,-72.5"/>
<text text-anchor="start" x="457.5" y="-83.9" font-family="Arial" font-size="14.00" fill="#000000">updated_at    </text>
<text text-anchor="start" x="561.7468" y="-83.9" font-family="Arial" font-size="14.00" fill="#666666">[timestamp without time zone]</text>
<polygon fill="none" stroke="#000000" points="450.5,-42.5 450.5,-72.5 777.5,-72.5 777.5,-42.5 450.5,-42.5"/>
<text text-anchor="start" x="457.5" y="-53.9" font-family="Arial" font-size="14.00" fill="#000000">is_deleted    </text>
<text text-anchor="start" x="555.5042" y="-53.9" font-family="Arial" font-size="14.00" fill="#666666">[boolean]</text>
</g>
<!-- public.workspace_member&#45;&gt;public.user_account -->
<g id="edge2" class="edge">
<title>public.workspace_member:user_account_id&#45;&gt;public.user_account:user_account_id</title>
<path fill="none" stroke="#000000" d="M426.622,-484.0443C389.7831,-456.0556 405.148,-267.5 450.5,-267.5"/>
<polygon fill="#000000" stroke="#000000" points="427.0609,-484.1978 435.014,-491.7476 431.7805,-485.8489 436.5,-487.5 436.5,-487.5 436.5,-487.5 431.7805,-485.8489 437.986,-483.2524 427.0609,-484.1978 427.0609,-484.1978"/>
</g>
<!-- public.workspace_member_authority -->
<g id="node4" class="node">
<title>public.workspace_member_authority</title>
<polygon fill="#efefef" stroke="transparent" points="881.5,-207.5 881.5,-242.5 1315.5,-242.5 1315.5,-207.5 881.5,-207.5"/>
<polygon fill="none" stroke="#000000" points="881.5,-207.5 881.5,-242.5 1315.5,-242.5 1315.5,-207.5 881.5,-207.5"/>
<text text-anchor="start" x="888.1942" y="-220.3" font-family="Arial Bold" font-size="18.00" fill="#000000">public.workspace_member_authority</text>
<text text-anchor="start" x="1181.2378" y="-220.3" font-family="Arial" font-size="14.00" fill="#000000">    </text>
<text text-anchor="start" x="1215.4426" y="-220.3" font-family="Arial" font-size="14.00" fill="#666666">[BASE TABLE]</text>
<polygon fill="none" stroke="#000000" points="881.5,-177.5 881.5,-207.5 1315.5,-207.5 1315.5,-177.5 881.5,-177.5"/>
<text text-anchor="start" x="888.5" y="-188.9" font-family="Arial" font-size="14.00" fill="#000000">workspace_member_authority_id    </text>
<text text-anchor="start" x="1128.8478" y="-188.9" font-family="Arial" font-size="14.00" fill="#666666">[bigint]</text>
<polygon fill="none" stroke="#000000" points="881.5,-147.5 881.5,-177.5 1315.5,-177.5 1315.5,-147.5 881.5,-147.5"/>
<text text-anchor="start" x="888.5" y="-158.9" font-family="Arial" font-size="14.00" fill="#000000">symbol    </text>
<text text-anchor="start" x="967.0372" y="-158.9" font-family="Arial" font-size="14.00" fill="#666666">[varchar(255)]</text>
<polygon fill="none" stroke="#000000" points="881.5,-117.5 881.5,-147.5 1315.5,-147.5 1315.5,-117.5 881.5,-117.5"/>
<text text-anchor="start" x="888.5" y="-128.9" font-family="Arial" font-size="14.00" fill="#000000">value    </text>
<text text-anchor="start" x="956.1592" y="-128.9" font-family="Arial" font-size="14.00" fill="#666666">[integer]</text>
</g>
<!-- public.workspace_member&#45;&gt;public.workspace_member_authority -->
<g id="edge3" class="edge">
<title>public.workspace_member:workspace_member_authority_id&#45;&gt;public.workspace_member_authority:workspace_member_authority_id</title>
<path fill="none" stroke="#000000" d="M801.7174,-456.831C906.825,-442.2001 760.7592,-192.5 881.5,-192.5"/>
<polygon fill="#000000" stroke="#000000" points="801.4786,-456.8465 791.2059,-453.0096 796.4893,-457.1733 791.5,-457.5 791.5,-457.5 791.5,-457.5 796.4893,-457.1733 791.7941,-461.9904 801.4786,-456.8465 801.4786,-456.8465"/>
</g>
</g>
</svg>
