<?xml version="1.0" encoding="UTF-8" standalone="no"?>
<!DOCTYPE svg PUBLIC "-//W3C//DTD SVG 1.1//EN"
 "http://www.w3.org/Graphics/SVG/1.1/DTD/svg11.dtd">
<!-- Generated by graphviz version 2.40.1 (20161225.0304)
 -->
<!-- Title: public.workspace Pages: 1 -->
<svg width="1848pt" height="682pt"
 viewBox="0.00 0.00 1848.00 682.00" xmlns="http://www.w3.org/2000/svg" xmlns:xlink="http://www.w3.org/1999/xlink">
<g id="graph0" class="graph" transform="scale(1 1) rotate(0) translate(4 678)">
<title>public.workspace</title>
<polygon fill="#ffffff" stroke="transparent" points="-4,4 -4,-678 1844,-678 1844,4 -4,4"/>
<!-- public.workspace -->
<g id="node1" class="node">
<title>public.workspace</title>
<polygon fill="#efefef" stroke="transparent" points="741.5,-225.5 741.5,-260.5 1020.5,-260.5 1020.5,-225.5 741.5,-225.5"/>
<polygon fill="none" stroke="#000000" points="741.5,-225.5 741.5,-260.5 1020.5,-260.5 1020.5,-225.5 741.5,-225.5"/>
<text text-anchor="start" x="748.2058" y="-238.3" font-family="Arial Bold" font-size="18.00" fill="#000000">public.workspace</text>
<text text-anchor="start" x="886.2262" y="-238.3" font-family="Arial" font-size="14.00" fill="#000000">    </text>
<text text-anchor="start" x="920.431" y="-238.3" font-family="Arial" font-size="14.00" fill="#666666">[BASE TABLE]</text>
<polygon fill="none" stroke="#000000" points="741.5,-195.5 741.5,-225.5 1020.5,-225.5 1020.5,-195.5 741.5,-195.5"/>
<text text-anchor="start" x="748.5" y="-206.9" font-family="Arial" font-size="14.00" fill="#000000">workspace_id </text>
<text text-anchor="start" x="837.96" y="-206.9" font-family="Arial" font-size="14.00" fill="#666666">[bigint]</text>
<polygon fill="none" stroke="#000000" points="741.5,-165.5 741.5,-195.5 1020.5,-195.5 1020.5,-165.5 741.5,-165.5"/>
<text text-anchor="start" x="748.5" y="-176.9" font-family="Arial" font-size="14.00" fill="#000000">workspace_name </text>
<text text-anchor="start" x="862.0792" y="-176.9" font-family="Arial" font-size="14.00" fill="#666666">[varchar(255)]</text>
<polygon fill="none" stroke="#000000" points="741.5,-135.5 741.5,-165.5 1020.5,-165.5 1020.5,-135.5 741.5,-135.5"/>
<text text-anchor="start" x="748.5" y="-146.9" font-family="Arial" font-size="14.00" fill="#000000">display_name </text>
<text text-anchor="start" x="838.7426" y="-146.9" font-family="Arial" font-size="14.00" fill="#666666">[varchar(255)]</text>
<polygon fill="none" stroke="#000000" points="741.5,-105.5 741.5,-135.5 1020.5,-135.5 1020.5,-105.5 741.5,-105.5"/>
<text text-anchor="start" x="748.5" y="-116.9" font-family="Arial" font-size="14.00" fill="#000000">created_at </text>
<text text-anchor="start" x="818.528" y="-116.9" font-family="Arial" font-size="14.00" fill="#666666">[timestamp without time zone]</text>
<polygon fill="none" stroke="#000000" points="741.5,-75.5 741.5,-105.5 1020.5,-105.5 1020.5,-75.5 741.5,-75.5"/>
<text text-anchor="start" x="748.5" y="-86.9" font-family="Arial" font-size="14.00" fill="#000000">updated_at </text>
<text text-anchor="start" x="822.4326" y="-86.9" font-family="Arial" font-size="14.00" fill="#666666">[timestamp without time zone]</text>
<polygon fill="none" stroke="#000000" points="741.5,-45.5 741.5,-75.5 1020.5,-75.5 1020.5,-45.5 741.5,-45.5"/>
<text text-anchor="start" x="748.5" y="-56.9" font-family="Arial" font-size="14.00" fill="#000000">is_deleted </text>
<text text-anchor="start" x="816.19" y="-56.9" font-family="Arial" font-size="14.00" fill="#666666">[boolean]</text>
<polygon fill="none" stroke="#000000" stroke-width="3" points="739.5,-44.5 739.5,-262.5 1021.5,-262.5 1021.5,-44.5 739.5,-44.5"/>
</g>
<!-- public.workspace_member -->
<g id="node2" class="node">
<title>public.workspace_member</title>
<polygon fill="#efefef" stroke="transparent" points="43.5,-550.5 43.5,-585.5 398.5,-585.5 398.5,-550.5 43.5,-550.5"/>
<polygon fill="none" stroke="#000000" points="43.5,-550.5 43.5,-585.5 398.5,-585.5 398.5,-550.5 43.5,-550.5"/>
<text text-anchor="start" x="50.2051" y="-563.3" font-family="Arial Bold" font-size="18.00" fill="#000000">public.workspace_member</text>
<text text-anchor="start" x="264.2269" y="-563.3" font-family="Arial" font-size="14.00" fill="#000000">    </text>
<text text-anchor="start" x="298.4317" y="-563.3" font-family="Arial" font-size="14.00" fill="#666666">[BASE TABLE]</text>
<polygon fill="none" stroke="#000000" points="43.5,-520.5 43.5,-550.5 398.5,-550.5 398.5,-520.5 43.5,-520.5"/>
<text text-anchor="start" x="50.5" y="-531.9" font-family="Arial" font-size="14.00" fill="#000000">workspace_member_id    </text>
<text text-anchor="start" x="229.3864" y="-531.9" font-family="Arial" font-size="14.00" fill="#666666">[bigint]</text>
<polygon fill="none" stroke="#000000" points="43.5,-490.5 43.5,-520.5 398.5,-520.5 398.5,-490.5 43.5,-490.5"/>
<text text-anchor="start" x="50.5" y="-501.9" font-family="Arial" font-size="14.00" fill="#000000">workspace_id    </text>
<text text-anchor="start" x="170.2742" y="-501.9" font-family="Arial" font-size="14.00" fill="#666666">[bigint]</text>
<polygon fill="none" stroke="#000000" points="43.5,-460.5 43.5,-490.5 398.5,-490.5 398.5,-460.5 43.5,-460.5"/>
<text text-anchor="start" x="50.5" y="-471.9" font-family="Arial" font-size="14.00" fill="#000000">user_account_id    </text>
<text text-anchor="start" x="187.406" y="-471.9" font-family="Arial" font-size="14.00" fill="#666666">[bigint]</text>
<polygon fill="none" stroke="#000000" points="43.5,-430.5 43.5,-460.5 398.5,-460.5 398.5,-430.5 43.5,-430.5"/>
<text text-anchor="start" x="50.5" y="-441.9" font-family="Arial" font-size="14.00" fill="#000000">workspace_member_authority_id    </text>
<text text-anchor="start" x="290.8478" y="-441.9" font-family="Arial" font-size="14.00" fill="#666666">[bigint]</text>
</g>
<!-- public.workspace_member&#45;&gt;public.workspace -->
<g id="edge1" class="edge">
<title>public.workspace_member:workspace_id&#45;&gt;public.workspace:workspace_id</title>
<path fill="none" stroke="#000000" d="M408.5434,-504.7612C467.183,-495.2836 401.7835,-396.9173 449.5,-343 543.9486,-236.2777 598.9862,-210.5 741.5,-210.5"/>
<polygon fill="#000000" stroke="#000000" points="408.4731,-504.7663 398.1698,-501.0121 403.4865,-505.1331 398.5,-505.5 398.5,-505.5 398.5,-505.5 403.4865,-505.1331 398.8302,-509.9879 408.4731,-504.7663 408.4731,-504.7663"/>
</g>
<!-- public.project -->
<g id="node3" class="node">
<title>public.project</title>
<polygon fill="#efefef" stroke="transparent" points="502.5,-595.5 502.5,-630.5 805.5,-630.5 805.5,-595.5 502.5,-595.5"/>
<polygon fill="none" stroke="#000000" points="502.5,-595.5 502.5,-630.5 805.5,-630.5 805.5,-595.5 502.5,-595.5"/>
<text text-anchor="start" x="537.2078" y="-608.3" font-family="Arial Bold" font-size="18.00" fill="#000000">public.project</text>
<text text-anchor="start" x="643.2242" y="-608.3" font-family="Arial" font-size="14.00" fill="#000000">    </text>
<text text-anchor="start" x="677.429" y="-608.3" font-family="Arial" font-size="14.00" fill="#666666">[BASE TABLE]</text>
<polygon fill="none" stroke="#000000" points="502.5,-565.5 502.5,-595.5 805.5,-595.5 805.5,-565.5 502.5,-565.5"/>
<text text-anchor="start" x="509.5" y="-576.9" font-family="Arial" font-size="14.00" fill="#000000">project_id    </text>
<text text-anchor="start" x="604.3822" y="-576.9" font-family="Arial" font-size="14.00" fill="#666666">[bigint]</text>
<polygon fill="none" stroke="#000000" points="502.5,-535.5 502.5,-565.5 805.5,-565.5 805.5,-535.5 502.5,-535.5"/>
<text text-anchor="start" x="509.5" y="-546.9" font-family="Arial" font-size="14.00" fill="#000000">project_name    </text>
<text text-anchor="start" x="628.5014" y="-546.9" font-family="Arial" font-size="14.00" fill="#666666">[varchar(255)]</text>
<polygon fill="none" stroke="#000000" points="502.5,-505.5 502.5,-535.5 805.5,-535.5 805.5,-505.5 502.5,-505.5"/>
<text text-anchor="start" x="509.5" y="-516.9" font-family="Arial" font-size="14.00" fill="#000000">display_name    </text>
<text text-anchor="start" x="630.0568" y="-516.9" font-family="Arial" font-size="14.00" fill="#666666">[varchar(255)]</text>
<polygon fill="none" stroke="#000000" points="502.5,-475.5 502.5,-505.5 805.5,-505.5 805.5,-475.5 502.5,-475.5"/>
<text text-anchor="start" x="509.5" y="-486.9" font-family="Arial" font-size="14.00" fill="#000000">workspace_id    </text>
<text text-anchor="start" x="629.2742" y="-486.9" font-family="Arial" font-size="14.00" fill="#666666">[bigint]</text>
<polygon fill="none" stroke="#000000" points="502.5,-445.5 502.5,-475.5 805.5,-475.5 805.5,-445.5 502.5,-445.5"/>
<text text-anchor="start" x="509.5" y="-456.9" font-family="Arial" font-size="14.00" fill="#000000">created_at    </text>
<text text-anchor="start" x="609.8422" y="-456.9" font-family="Arial" font-size="14.00" fill="#666666">[timestamp without time zone]</text>
<polygon fill="none" stroke="#000000" points="502.5,-415.5 502.5,-445.5 805.5,-445.5 805.5,-415.5 502.5,-415.5"/>
<text text-anchor="start" x="509.3065" y="-426.9" font-family="Arial" font-size="14.00" fill="#000000">updated_at    </text>
<text text-anchor="start" x="613.5533" y="-426.9" font-family="Arial" font-size="14.00" fill="#666666">[timestamp without time zone]</text>
<polygon fill="none" stroke="#000000" points="502.5,-385.5 502.5,-415.5 805.5,-415.5 805.5,-385.5 502.5,-385.5"/>
<text text-anchor="start" x="509.5" y="-396.9" font-family="Arial" font-size="14.00" fill="#000000">is_deleted    </text>
<text text-anchor="start" x="607.5042" y="-396.9" font-family="Arial" font-size="14.00" fill="#666666">[boolean]</text>
</g>
<!-- public.project&#45;&gt;public.workspace -->
<g id="edge2" class="edge">
<title>public.project:workspace_id&#45;&gt;public.workspace:workspace_id</title>
<path fill="none" stroke="#000000" d="M815.7137,-489.6478C867.3764,-480.3115 836.7209,-396.383 805.5,-343 789.024,-314.8286 757.976,-335.1714 741.5,-307 719.8477,-269.9779 698.6111,-210.5 741.5,-210.5"/>
<polygon fill="#000000" stroke="#000000" points="815.4654,-489.6684 805.1258,-486.0156 810.4827,-490.0842 805.5,-490.5 805.5,-490.5 805.5,-490.5 810.4827,-490.0842 805.8742,-494.9844 815.4654,-489.6684 815.4654,-489.6684"/>
</g>
<!-- public.user_account_workspace -->
<g id="node4" class="node">
<title>public.user_account_workspace</title>
<polygon fill="#efefef" stroke="transparent" points="909.5,-535.5 909.5,-570.5 1306.5,-570.5 1306.5,-535.5 909.5,-535.5"/>
<polygon fill="none" stroke="#000000" points="909.5,-535.5 909.5,-570.5 1306.5,-570.5 1306.5,-535.5 909.5,-535.5"/>
<text text-anchor="start" x="916.1838" y="-548.3" font-family="Arial Bold" font-size="18.00" fill="#000000">public.user_account_workspace</text>
<text text-anchor="start" x="1172.2482" y="-548.3" font-family="Arial" font-size="14.00" fill="#000000">    </text>
<text text-anchor="start" x="1206.453" y="-548.3" font-family="Arial" font-size="14.00" fill="#666666">[BASE TABLE]</text>
<polygon fill="none" stroke="#000000" points="909.5,-505.5 909.5,-535.5 1306.5,-535.5 1306.5,-505.5 909.5,-505.5"/>
<text text-anchor="start" x="916.5" y="-516.9" font-family="Arial" font-size="14.00" fill="#000000">user_account_workspace_id    </text>
<text text-anchor="start" x="1128.0862" y="-516.9" font-family="Arial" font-size="14.00" fill="#666666">[bigint]</text>
<polygon fill="none" stroke="#000000" points="909.5,-475.5 909.5,-505.5 1306.5,-505.5 1306.5,-475.5 909.5,-475.5"/>
<text text-anchor="start" x="916.5" y="-486.9" font-family="Arial" font-size="14.00" fill="#000000">user_account_id    </text>
<text text-anchor="start" x="1053.406" y="-486.9" font-family="Arial" font-size="14.00" fill="#666666">[bigint]</text>
<polygon fill="none" stroke="#000000" points="909.5,-445.5 909.5,-475.5 1306.5,-475.5 1306.5,-445.5 909.5,-445.5"/>
<text text-anchor="start" x="916.5" y="-456.9" font-family="Arial" font-size="14.00" fill="#000000">workspace_id    </text>
<text text-anchor="start" x="1036.2742" y="-456.9" font-family="Arial" font-size="14.00" fill="#666666">[bigint]</text>
</g>
<!-- public.user_account_workspace&#45;&gt;public.workspace -->
<g id="edge3" class="edge">
<title>public.user_account_workspace:workspace_id&#45;&gt;public.workspace:workspace_id</title>
<path fill="none" stroke="#000000" d="M899.6833,-457.6938C888.949,-449.049 900.6995,-422.2466 909.5,-403 936.623,-343.6825 993.377,-366.3175 1020.5,-307 1038.335,-267.9953 1063.3889,-210.5 1020.5,-210.5"/>
<polygon fill="#000000" stroke="#000000" points="899.8851,-457.7514 908.2631,-464.8267 904.6926,-459.1257 909.5,-460.5 909.5,-460.5 909.5,-460.5 904.6926,-459.1257 910.7369,-456.1733 899.8851,-457.7514 899.8851,-457.7514"/>
</g>
<!-- public.organization_workspace -->
<g id="node5" class="node">
<title>public.organization_workspace</title>
<polygon fill="#efefef" stroke="transparent" points="1410.5,-535.5 1410.5,-570.5 1797.5,-570.5 1797.5,-535.5 1410.5,-535.5"/>
<polygon fill="none" stroke="#000000" points="1410.5,-535.5 1410.5,-570.5 1797.5,-570.5 1797.5,-535.5 1410.5,-535.5"/>
<text text-anchor="start" x="1417.1896" y="-548.3" font-family="Arial Bold" font-size="18.00" fill="#000000">public.organization_workspace</text>
<text text-anchor="start" x="1663.2424" y="-548.3" font-family="Arial" font-size="14.00" fill="#000000">    </text>
<text text-anchor="start" x="1697.4472" y="-548.3" font-family="Arial" font-size="14.00" fill="#666666">[BASE TABLE]</text>
<polygon fill="none" stroke="#000000" points="1410.5,-505.5 1410.5,-535.5 1797.5,-535.5 1797.5,-505.5 1410.5,-505.5"/>
<text text-anchor="start" x="1417.5" y="-516.9" font-family="Arial" font-size="14.00" fill="#000000">organization_workspace_id    </text>
<text text-anchor="start" x="1621.2994" y="-516.9" font-family="Arial" font-size="14.00" fill="#666666">[bigint]</text>
<polygon fill="none" stroke="#000000" points="1410.5,-475.5 1410.5,-505.5 1797.5,-505.5 1797.5,-475.5 1410.5,-475.5"/>
<text text-anchor="start" x="1417.5" y="-486.9" font-family="Arial" font-size="14.00" fill="#000000">organization_id    </text>
<text text-anchor="start" x="1546.6192" y="-486.9" font-family="Arial" font-size="14.00" fill="#666666">[bigint]</text>
<polygon fill="none" stroke="#000000" points="1410.5,-445.5 1410.5,-475.5 1797.5,-475.5 1797.5,-445.5 1410.5,-445.5"/>
<text text-anchor="start" x="1417.5" y="-456.9" font-family="Arial" font-size="14.00" fill="#000000">workspace_id    </text>
<text text-anchor="start" x="1537.2742" y="-456.9" font-family="Arial" font-size="14.00" fill="#666666">[bigint]</text>
</g>
<!-- public.organization_workspace&#45;&gt;public.workspace -->
<g id="edge4" class="edge">
<title>public.organization_workspace:workspace_id&#45;&gt;public.workspace:workspace_id</title>
<path fill="none" stroke="#000000" d="M1400.4358,-459.5023C1359.1618,-450.3108 1397.0022,-379.8796 1358.5,-343 1241.9777,-231.3883 1181.8525,-210.5 1020.5,-210.5"/>
<polygon fill="#000000" stroke="#000000" points="1400.5488,-459.5134 1410.056,-464.978 1405.5244,-460.0067 1410.5,-460.5 1410.5,-460.5 1410.5,-460.5 1405.5244,-460.0067 1410.944,-456.022 1400.5488,-459.5134 1400.5488,-459.5134"/>
</g>
</g>
</svg>
