<?xml version="1.0" encoding="UTF-8" standalone="no"?>
<!DOCTYPE svg PUBLIC "-//W3C//DTD SVG 1.1//EN"
 "http://www.w3.org/Graphics/SVG/1.1/DTD/svg11.dtd">
<!-- Generated by graphviz version 2.40.1 (20161225.0304)
 -->
<!-- Title: public.group_member Pages: 1 -->
<svg width="1231pt" height="832pt"
 viewBox="0.00 0.00 1231.00 832.00" xmlns="http://www.w3.org/2000/svg" xmlns:xlink="http://www.w3.org/1999/xlink">
<g id="graph0" class="graph" transform="scale(1 1) rotate(0) translate(4 828)">
<title>public.group_member</title>
<polygon fill="#ffffff" stroke="transparent" points="-4,4 -4,-828 1227,-828 1227,4 -4,4"/>
<!-- public.group_member -->
<g id="node1" class="node">
<title>public.group_member</title>
<polygon fill="#efefef" stroke="transparent" points="448.5,-742.5 448.5,-777.5 763.5,-777.5 763.5,-742.5 448.5,-742.5"/>
<polygon fill="none" stroke="#000000" points="448.5,-742.5 448.5,-777.5 763.5,-777.5 763.5,-742.5 448.5,-742.5"/>
<text text-anchor="start" x="455.2022" y="-755.3" font-family="Arial Bold" font-size="18.00" fill="#000000">public.group_member</text>
<text text-anchor="start" x="629.2298" y="-755.3" font-family="Arial" font-size="14.00" fill="#000000">    </text>
<text text-anchor="start" x="663.4346" y="-755.3" font-family="Arial" font-size="14.00" fill="#666666">[BASE TABLE]</text>
<polygon fill="none" stroke="#000000" points="448.5,-712.5 448.5,-742.5 763.5,-742.5 763.5,-712.5 448.5,-712.5"/>
<text text-anchor="start" x="455.5" y="-723.9" font-family="Arial" font-size="14.00" fill="#000000">group_member_id </text>
<text text-anchor="start" x="572.9656" y="-723.9" font-family="Arial" font-size="14.00" fill="#666666">[bigint]</text>
<polygon fill="none" stroke="#000000" points="448.5,-682.5 448.5,-712.5 763.5,-712.5 763.5,-682.5 448.5,-682.5"/>
<text text-anchor="start" x="455.5" y="-693.9" font-family="Arial" font-size="14.00" fill="#000000">group_id </text>
<text text-anchor="start" x="513.8534" y="-693.9" font-family="Arial" font-size="14.00" fill="#666666">[bigint]</text>
<polygon fill="none" stroke="#000000" points="448.5,-652.5 448.5,-682.5 763.5,-682.5 763.5,-652.5 448.5,-652.5"/>
<text text-anchor="start" x="455.5" y="-663.9" font-family="Arial" font-size="14.00" fill="#000000">account_id </text>
<text text-anchor="start" x="527.0834" y="-663.9" font-family="Arial" font-size="14.00" fill="#666666">[bigint]</text>
<polygon fill="none" stroke="#000000" points="448.5,-622.5 448.5,-652.5 763.5,-652.5 763.5,-622.5 448.5,-622.5"/>
<text text-anchor="start" x="455.5" y="-633.9" font-family="Arial" font-size="14.00" fill="#000000">account_profile_id </text>
<text text-anchor="start" x="572.9782" y="-633.9" font-family="Arial" font-size="14.00" fill="#666666">[bigint]</text>
<polygon fill="none" stroke="#000000" points="448.5,-592.5 448.5,-622.5 763.5,-622.5 763.5,-592.5 448.5,-592.5"/>
<text text-anchor="start" x="455.5" y="-603.9" font-family="Arial" font-size="14.00" fill="#000000">role </text>
<text text-anchor="start" x="482.723" y="-603.9" font-family="Arial" font-size="14.00" fill="#666666">[integer]</text>
<polygon fill="none" stroke="#000000" stroke-width="3" points="446.5,-591.5 446.5,-779.5 764.5,-779.5 764.5,-591.5 446.5,-591.5"/>
</g>
<!-- public.group -->
<g id="node2" class="node">
<title>public.group</title>
<polygon fill="#efefef" stroke="transparent" points="43.5,-417.5 43.5,-452.5 346.5,-452.5 346.5,-417.5 43.5,-417.5"/>
<polygon fill="none" stroke="#000000" points="43.5,-417.5 43.5,-452.5 346.5,-452.5 346.5,-417.5 43.5,-417.5"/>
<text text-anchor="start" x="82.2029" y="-430.3" font-family="Arial Bold" font-size="18.00" fill="#000000">public.group</text>
<text text-anchor="start" x="180.2291" y="-430.3" font-family="Arial" font-size="14.00" fill="#000000">    </text>
<text text-anchor="start" x="214.4339" y="-430.3" font-family="Arial" font-size="14.00" fill="#666666">[BASE TABLE]</text>
<polygon fill="none" stroke="#000000" points="43.5,-387.5 43.5,-417.5 346.5,-417.5 346.5,-387.5 43.5,-387.5"/>
<text text-anchor="start" x="50.5" y="-398.9" font-family="Arial" font-size="14.00" fill="#000000">group_id    </text>
<text text-anchor="start" x="139.1676" y="-398.9" font-family="Arial" font-size="14.00" fill="#666666">[bigint]</text>
<polygon fill="none" stroke="#000000" points="43.5,-357.5 43.5,-387.5 346.5,-387.5 346.5,-357.5 43.5,-357.5"/>
<text text-anchor="start" x="50.5" y="-368.9" font-family="Arial" font-size="14.00" fill="#000000">group_name    </text>
<text text-anchor="start" x="163.2868" y="-368.9" font-family="Arial" font-size="14.00" fill="#666666">[varchar(255)]</text>
<polygon fill="none" stroke="#000000" points="43.5,-327.5 43.5,-357.5 346.5,-357.5 346.5,-327.5 43.5,-327.5"/>
<text text-anchor="start" x="50.5" y="-338.9" font-family="Arial" font-size="14.00" fill="#000000">name    </text>
<text text-anchor="start" x="119.7132" y="-338.9" font-family="Arial" font-size="14.00" fill="#666666">[varchar(255)]</text>
<polygon fill="none" stroke="#000000" points="43.5,-297.5 43.5,-327.5 346.5,-327.5 346.5,-297.5 43.5,-297.5"/>
<text text-anchor="start" x="50.5" y="-308.9" font-family="Arial" font-size="14.00" fill="#000000">description    </text>
<text text-anchor="start" x="152.3822" y="-308.9" font-family="Arial" font-size="14.00" fill="#666666">[text]</text>
<polygon fill="none" stroke="#000000" points="43.5,-267.5 43.5,-297.5 346.5,-297.5 346.5,-267.5 43.5,-267.5"/>
<text text-anchor="start" x="50.5" y="-278.9" font-family="Arial" font-size="14.00" fill="#000000">representative    </text>
<text text-anchor="start" x="173.392" y="-278.9" font-family="Arial" font-size="14.00" fill="#666666">[varchar(255)]</text>
<polygon fill="none" stroke="#000000" points="43.5,-237.5 43.5,-267.5 346.5,-267.5 346.5,-237.5 43.5,-237.5"/>
<text text-anchor="start" x="50.5" y="-248.9" font-family="Arial" font-size="14.00" fill="#000000">location    </text>
<text text-anchor="start" x="132.939" y="-248.9" font-family="Arial" font-size="14.00" fill="#666666">[varchar(255)]</text>
<polygon fill="none" stroke="#000000" points="43.5,-207.5 43.5,-237.5 346.5,-237.5 346.5,-207.5 43.5,-207.5"/>
<text text-anchor="start" x="50.5" y="-218.9" font-family="Arial" font-size="14.00" fill="#000000">email    </text>
<text text-anchor="start" x="118.1438" y="-218.9" font-family="Arial" font-size="14.00" fill="#666666">[varchar(255)]</text>
<polygon fill="none" stroke="#000000" points="43.5,-177.5 43.5,-207.5 346.5,-207.5 346.5,-177.5 43.5,-177.5"/>
<text text-anchor="start" x="50.5" y="-188.9" font-family="Arial" font-size="14.00" fill="#000000">telno    </text>
<text text-anchor="start" x="115.0498" y="-188.9" font-family="Arial" font-size="14.00" fill="#666666">[varchar(255)]</text>
<polygon fill="none" stroke="#000000" points="43.5,-147.5 43.5,-177.5 346.5,-177.5 346.5,-147.5 43.5,-147.5"/>
<text text-anchor="start" x="50.3065" y="-158.9" font-family="Arial" font-size="14.00" fill="#000000">founded_at    </text>
<text text-anchor="start" x="154.5533" y="-158.9" font-family="Arial" font-size="14.00" fill="#666666">[timestamp without time zone]</text>
<polygon fill="none" stroke="#000000" points="43.5,-117.5 43.5,-147.5 346.5,-147.5 346.5,-117.5 43.5,-117.5"/>
<text text-anchor="start" x="50.5" y="-128.9" font-family="Arial" font-size="14.00" fill="#000000">created_at    </text>
<text text-anchor="start" x="150.8422" y="-128.9" font-family="Arial" font-size="14.00" fill="#666666">[timestamp without time zone]</text>
<polygon fill="none" stroke="#000000" points="43.5,-87.5 43.5,-117.5 346.5,-117.5 346.5,-87.5 43.5,-87.5"/>
<text text-anchor="start" x="50.3065" y="-98.9" font-family="Arial" font-size="14.00" fill="#000000">updated_at    </text>
<text text-anchor="start" x="154.5533" y="-98.9" font-family="Arial" font-size="14.00" fill="#666666">[timestamp without time zone]</text>
<polygon fill="none" stroke="#000000" points="43.5,-57.5 43.5,-87.5 346.5,-87.5 346.5,-57.5 43.5,-57.5"/>
<text text-anchor="start" x="50.5" y="-68.9" font-family="Arial" font-size="14.00" fill="#000000">is_public    </text>
<text text-anchor="start" x="139.155" y="-68.9" font-family="Arial" font-size="14.00" fill="#666666">[boolean]</text>
</g>
<!-- public.group_member&#45;&gt;public.group -->
<g id="edge1" class="edge">
<title>public.group_member:group_id&#45;&gt;public.group:group_id</title>
<path fill="none" stroke="#000000" d="M438.7258,-695.2951C382.5929,-668.2998 412.3412,-402.5 346.5,-402.5"/>
<polygon fill="#000000" stroke="#000000" points="438.7451,-695.2994 447.5097,-701.8897 443.6226,-696.3997 448.5,-697.5 448.5,-697.5 448.5,-697.5 443.6226,-696.3997 449.4903,-693.1103 438.7451,-695.2994 438.7451,-695.2994"/>
</g>
<!-- public.account -->
<g id="node3" class="node">
<title>public.account</title>
<polygon fill="#efefef" stroke="transparent" points="450.5,-372.5 450.5,-407.5 761.5,-407.5 761.5,-372.5 450.5,-372.5"/>
<polygon fill="none" stroke="#000000" points="450.5,-372.5 450.5,-407.5 761.5,-407.5 761.5,-372.5 450.5,-372.5"/>
<text text-anchor="start" x="484.6979" y="-385.3" font-family="Arial Bold" font-size="18.00" fill="#000000">public.account</text>
<text text-anchor="start" x="599.7341" y="-385.3" font-family="Arial" font-size="14.00" fill="#000000">    </text>
<text text-anchor="start" x="633.9389" y="-385.3" font-family="Arial" font-size="14.00" fill="#666666">[BASE TABLE]</text>
<polygon fill="none" stroke="#000000" points="450.5,-342.5 450.5,-372.5 761.5,-372.5 761.5,-342.5 450.5,-342.5"/>
<text text-anchor="start" x="457.5" y="-353.9" font-family="Arial" font-size="14.00" fill="#000000">account_id    </text>
<text text-anchor="start" x="559.3976" y="-353.9" font-family="Arial" font-size="14.00" fill="#666666">[bigint]</text>
<polygon fill="none" stroke="#000000" points="450.5,-312.5 450.5,-342.5 761.5,-342.5 761.5,-312.5 450.5,-312.5"/>
<text text-anchor="start" x="457.5" y="-323.9" font-family="Arial" font-size="14.00" fill="#000000">account_name    </text>
<text text-anchor="start" x="583.5168" y="-323.9" font-family="Arial" font-size="14.00" fill="#666666">[varchar(255)]</text>
<polygon fill="none" stroke="#000000" points="450.5,-282.5 450.5,-312.5 761.5,-312.5 761.5,-282.5 450.5,-282.5"/>
<text text-anchor="start" x="457.5" y="-293.9" font-family="Arial" font-size="14.00" fill="#000000">email    </text>
<text text-anchor="start" x="525.1438" y="-293.9" font-family="Arial" font-size="14.00" fill="#666666">[varchar(255)]</text>
<polygon fill="none" stroke="#000000" points="450.5,-252.5 450.5,-282.5 761.5,-282.5 761.5,-252.5 450.5,-252.5"/>
<text text-anchor="start" x="457.5" y="-263.9" font-family="Arial" font-size="14.00" fill="#000000">public_user_id    </text>
<text text-anchor="start" x="581.946" y="-263.9" font-family="Arial" font-size="14.00" fill="#666666">[varchar(255)]</text>
<polygon fill="none" stroke="#000000" points="450.5,-222.5 450.5,-252.5 761.5,-252.5 761.5,-222.5 450.5,-222.5"/>
<text text-anchor="start" x="457.5" y="-233.9" font-family="Arial" font-size="14.00" fill="#000000">default_account_profile_id    </text>
<text text-anchor="start" x="655.0932" y="-233.9" font-family="Arial" font-size="14.00" fill="#666666">[bigint]</text>
<polygon fill="none" stroke="#000000" points="450.5,-192.5 450.5,-222.5 761.5,-222.5 761.5,-192.5 450.5,-192.5"/>
<text text-anchor="start" x="457.5" y="-203.9" font-family="Arial" font-size="14.00" fill="#000000">default_workspace_id    </text>
<text text-anchor="start" x="627.075" y="-203.9" font-family="Arial" font-size="14.00" fill="#666666">[bigint]</text>
<polygon fill="none" stroke="#000000" points="450.5,-162.5 450.5,-192.5 761.5,-192.5 761.5,-162.5 450.5,-162.5"/>
<text text-anchor="start" x="457.5" y="-173.9" font-family="Arial" font-size="14.00" fill="#000000">created_at    </text>
<text text-anchor="start" x="557.8422" y="-173.9" font-family="Arial" font-size="14.00" fill="#666666">[timestamp without time zone]</text>
<polygon fill="none" stroke="#000000" points="450.5,-132.5 450.5,-162.5 761.5,-162.5 761.5,-132.5 450.5,-132.5"/>
<text text-anchor="start" x="457.0379" y="-143.9" font-family="Arial" font-size="14.00" fill="#000000">last_login_at    </text>
<text text-anchor="start" x="569.8219" y="-143.9" font-family="Arial" font-size="14.00" fill="#666666">[timestamp without time zone]</text>
<polygon fill="none" stroke="#000000" points="450.5,-102.5 450.5,-132.5 761.5,-132.5 761.5,-102.5 450.5,-102.5"/>
<text text-anchor="start" x="457.5" y="-113.9" font-family="Arial" font-size="14.00" fill="#000000">is_public    </text>
<text text-anchor="start" x="546.155" y="-113.9" font-family="Arial" font-size="14.00" fill="#666666">[boolean]</text>
</g>
<!-- public.group_member&#45;&gt;public.account -->
<g id="edge2" class="edge">
<title>public.group_member:account_id&#45;&gt;public.account:account_id</title>
<path fill="none" stroke="#000000" d="M438.5529,-665.183C379.9853,-636.815 385.108,-357.5 450.5,-357.5"/>
<polygon fill="#000000" stroke="#000000" points="438.7607,-665.2313 447.4791,-671.8827 443.6304,-666.3657 448.5,-667.5 448.5,-667.5 448.5,-667.5 443.6304,-666.3657 449.5209,-663.1173 438.7607,-665.2313 438.7607,-665.2313"/>
</g>
<!-- public.account_profile -->
<g id="node4" class="node">
<title>public.account_profile</title>
<polygon fill="#efefef" stroke="transparent" points="865.5,-432.5 865.5,-467.5 1180.5,-467.5 1180.5,-432.5 865.5,-432.5"/>
<polygon fill="none" stroke="#000000" points="865.5,-432.5 865.5,-467.5 1180.5,-467.5 1180.5,-432.5 865.5,-432.5"/>
<text text-anchor="start" x="872.1941" y="-445.3" font-family="Arial Bold" font-size="18.00" fill="#000000">public.account_profile</text>
<text text-anchor="start" x="1046.2379" y="-445.3" font-family="Arial" font-size="14.00" fill="#000000">    </text>
<text text-anchor="start" x="1080.4427" y="-445.3" font-family="Arial" font-size="14.00" fill="#666666">[BASE TABLE]</text>
<polygon fill="none" stroke="#000000" points="865.5,-402.5 865.5,-432.5 1180.5,-432.5 1180.5,-402.5 865.5,-402.5"/>
<text text-anchor="start" x="872.5" y="-413.9" font-family="Arial" font-size="14.00" fill="#000000">account_profile_id    </text>
<text text-anchor="start" x="1020.2924" y="-413.9" font-family="Arial" font-size="14.00" fill="#666666">[bigint]</text>
<polygon fill="none" stroke="#000000" points="865.5,-372.5 865.5,-402.5 1180.5,-402.5 1180.5,-372.5 865.5,-372.5"/>
<text text-anchor="start" x="872.5" y="-383.9" font-family="Arial" font-size="14.00" fill="#000000">token    </text>
<text text-anchor="start" x="940.9432" y="-383.9" font-family="Arial" font-size="14.00" fill="#666666">[varchar(255)]</text>
<polygon fill="none" stroke="#000000" points="865.5,-342.5 865.5,-372.5 1180.5,-372.5 1180.5,-342.5 865.5,-342.5"/>
<text text-anchor="start" x="872.5" y="-353.9" font-family="Arial" font-size="14.00" fill="#000000">account_id    </text>
<text text-anchor="start" x="974.3976" y="-353.9" font-family="Arial" font-size="14.00" fill="#666666">[bigint]</text>
<polygon fill="none" stroke="#000000" points="865.5,-312.5 865.5,-342.5 1180.5,-342.5 1180.5,-312.5 865.5,-312.5"/>
<text text-anchor="start" x="872.5" y="-323.9" font-family="Arial" font-size="14.00" fill="#000000">name    </text>
<text text-anchor="start" x="941.7132" y="-323.9" font-family="Arial" font-size="14.00" fill="#666666">[varchar(255)]</text>
<polygon fill="none" stroke="#000000" points="865.5,-282.5 865.5,-312.5 1180.5,-312.5 1180.5,-282.5 865.5,-282.5"/>
<text text-anchor="start" x="872.5" y="-293.9" font-family="Arial" font-size="14.00" fill="#000000">affiliation    </text>
<text text-anchor="start" x="961.9334" y="-293.9" font-family="Arial" font-size="14.00" fill="#666666">[varchar(255)]</text>
<polygon fill="none" stroke="#000000" points="865.5,-252.5 865.5,-282.5 1180.5,-282.5 1180.5,-252.5 865.5,-252.5"/>
<text text-anchor="start" x="872.5" y="-263.9" font-family="Arial" font-size="14.00" fill="#000000">location    </text>
<text text-anchor="start" x="954.939" y="-263.9" font-family="Arial" font-size="14.00" fill="#666666">[varchar(255)]</text>
<polygon fill="none" stroke="#000000" points="865.5,-222.5 865.5,-252.5 1180.5,-252.5 1180.5,-222.5 865.5,-222.5"/>
<text text-anchor="start" x="872.5" y="-233.9" font-family="Arial" font-size="14.00" fill="#000000">bio    </text>
<text text-anchor="start" x="925.3766" y="-233.9" font-family="Arial" font-size="14.00" fill="#666666">[text]</text>
<polygon fill="none" stroke="#000000" points="865.5,-192.5 865.5,-222.5 1180.5,-222.5 1180.5,-192.5 865.5,-192.5"/>
<text text-anchor="start" x="872.5" y="-203.9" font-family="Arial" font-size="14.00" fill="#000000">email    </text>
<text text-anchor="start" x="940.1438" y="-203.9" font-family="Arial" font-size="14.00" fill="#666666">[varchar(255)]</text>
<polygon fill="none" stroke="#000000" points="865.5,-162.5 865.5,-192.5 1180.5,-192.5 1180.5,-162.5 865.5,-162.5"/>
<text text-anchor="start" x="872.5" y="-173.9" font-family="Arial" font-size="14.00" fill="#000000">telno    </text>
<text text-anchor="start" x="937.0498" y="-173.9" font-family="Arial" font-size="14.00" fill="#666666">[varchar(255)]</text>
<polygon fill="none" stroke="#000000" points="865.5,-132.5 865.5,-162.5 1180.5,-162.5 1180.5,-132.5 865.5,-132.5"/>
<text text-anchor="start" x="872.5" y="-143.9" font-family="Arial" font-size="14.00" fill="#000000">birthdate    </text>
<text text-anchor="start" x="961.1662" y="-143.9" font-family="Arial" font-size="14.00" fill="#666666">[timestamp without time zone]</text>
<polygon fill="none" stroke="#000000" points="865.5,-102.5 865.5,-132.5 1180.5,-132.5 1180.5,-102.5 865.5,-102.5"/>
<text text-anchor="start" x="872.5" y="-113.9" font-family="Arial" font-size="14.00" fill="#000000">gender    </text>
<text text-anchor="start" x="950.2784" y="-113.9" font-family="Arial" font-size="14.00" fill="#666666">[integer]</text>
<polygon fill="none" stroke="#000000" points="865.5,-72.5 865.5,-102.5 1180.5,-102.5 1180.5,-72.5 865.5,-72.5"/>
<text text-anchor="start" x="872.5" y="-83.9" font-family="Arial" font-size="14.00" fill="#000000">created_at    </text>
<text text-anchor="start" x="972.8422" y="-83.9" font-family="Arial" font-size="14.00" fill="#666666">[timestamp without time zone]</text>
<polygon fill="none" stroke="#000000" points="865.5,-42.5 865.5,-72.5 1180.5,-72.5 1180.5,-42.5 865.5,-42.5"/>
<text text-anchor="start" x="872.5" y="-53.9" font-family="Arial" font-size="14.00" fill="#000000">updated_at    </text>
<text text-anchor="start" x="976.7468" y="-53.9" font-family="Arial" font-size="14.00" fill="#666666">[timestamp without time zone]</text>
</g>
<!-- public.group_member&#45;&gt;public.account_profile -->
<g id="edge3" class="edge">
<title>public.group_member:account_profile_id&#45;&gt;public.account_profile:account_profile_id</title>
<path fill="none" stroke="#000000" d="M773.5197,-636.7885C863.9792,-623.1332 761.3028,-417.5 865.5,-417.5"/>
<polygon fill="#000000" stroke="#000000" points="773.4749,-636.7916 763.1812,-633.0113 768.4874,-637.1458 763.5,-637.5 763.5,-637.5 763.5,-637.5 768.4874,-637.1458 763.8188,-641.9887 773.4749,-636.7916 773.4749,-636.7916"/>
</g>
</g>
</svg>
