<?xml version="1.0" encoding="UTF-8" standalone="no"?>
<!DOCTYPE svg PUBLIC "-//W3C//DTD SVG 1.1//EN"
 "http://www.w3.org/Graphics/SVG/1.1/DTD/svg11.dtd">
<!-- Generated by graphviz version 2.40.1 (20161225.0304)
 -->
<!-- Title: public.account Pages: 1 -->
<svg width="1285pt" height="712pt"
 viewBox="0.00 0.00 1284.50 712.00" xmlns="http://www.w3.org/2000/svg" xmlns:xlink="http://www.w3.org/1999/xlink">
<g id="graph0" class="graph" transform="scale(1 1) rotate(0) translate(4 708)">
<title>public.account</title>
<polygon fill="#ffffff" stroke="transparent" points="-4,4 -4,-708 1280.5,-708 1280.5,4 -4,4"/>
<!-- public.account -->
<g id="node1" class="node">
<title>public.account</title>
<polygon fill="#efefef" stroke="transparent" points="485.5,-165.5 485.5,-200.5 754.5,-200.5 754.5,-165.5 485.5,-165.5"/>
<polygon fill="none" stroke="#000000" points="485.5,-165.5 485.5,-200.5 754.5,-200.5 754.5,-165.5 485.5,-165.5"/>
<text text-anchor="start" x="498.6979" y="-178.3" font-family="Arial Bold" font-size="18.00" fill="#000000">public.account</text>
<text text-anchor="start" x="613.7341" y="-178.3" font-family="Arial" font-size="14.00" fill="#000000">    </text>
<text text-anchor="start" x="647.9389" y="-178.3" font-family="Arial" font-size="14.00" fill="#666666">[BASE TABLE]</text>
<polygon fill="none" stroke="#000000" points="485.5,-135.5 485.5,-165.5 754.5,-165.5 754.5,-135.5 485.5,-135.5"/>
<text text-anchor="start" x="492.5" y="-146.9" font-family="Arial" font-size="14.00" fill="#000000">account_id </text>
<text text-anchor="start" x="564.0834" y="-146.9" font-family="Arial" font-size="14.00" fill="#666666">[bigint]</text>
<polygon fill="none" stroke="#000000" points="485.5,-105.5 485.5,-135.5 754.5,-135.5 754.5,-105.5 485.5,-105.5"/>
<text text-anchor="start" x="492.5" y="-116.9" font-family="Arial" font-size="14.00" fill="#000000">account_name </text>
<text text-anchor="start" x="588.2026" y="-116.9" font-family="Arial" font-size="14.00" fill="#666666">[varchar(255)]</text>
<polygon fill="none" stroke="#000000" points="485.5,-75.5 485.5,-105.5 754.5,-105.5 754.5,-75.5 485.5,-75.5"/>
<text text-anchor="start" x="492.5" y="-86.9" font-family="Arial" font-size="14.00" fill="#000000">user_subject </text>
<text text-anchor="start" x="575.744" y="-86.9" font-family="Arial" font-size="14.00" fill="#666666">[varchar(255)]</text>
<polygon fill="none" stroke="#000000" points="485.5,-45.5 485.5,-75.5 754.5,-75.5 754.5,-45.5 485.5,-45.5"/>
<text text-anchor="start" x="492.4159" y="-56.9" font-family="Arial" font-size="14.00" fill="#000000">created_at </text>
<text text-anchor="start" x="562.4439" y="-56.9" font-family="Arial" font-size="14.00" fill="#666666">[timestamp without time zone]</text>
<polygon fill="none" stroke="#000000" stroke-width="3" points="483.5,-44.5 483.5,-202.5 755.5,-202.5 755.5,-44.5 483.5,-44.5"/>
</g>
<!-- public.account_profile -->
<g id="node2" class="node">
<title>public.account_profile</title>
<polygon fill="#efefef" stroke="transparent" points="43.5,-625.5 43.5,-660.5 358.5,-660.5 358.5,-625.5 43.5,-625.5"/>
<polygon fill="none" stroke="#000000" points="43.5,-625.5 43.5,-660.5 358.5,-660.5 358.5,-625.5 43.5,-625.5"/>
<text text-anchor="start" x="50.1941" y="-638.3" font-family="Arial Bold" font-size="18.00" fill="#000000">public.account_profile</text>
<text text-anchor="start" x="224.2379" y="-638.3" font-family="Arial" font-size="14.00" fill="#000000">    </text>
<text text-anchor="start" x="258.4427" y="-638.3" font-family="Arial" font-size="14.00" fill="#666666">[BASE TABLE]</text>
<polygon fill="none" stroke="#000000" points="43.5,-595.5 43.5,-625.5 358.5,-625.5 358.5,-595.5 43.5,-595.5"/>
<text text-anchor="start" x="50.5" y="-606.9" font-family="Arial" font-size="14.00" fill="#000000">account_profile_id    </text>
<text text-anchor="start" x="198.2924" y="-606.9" font-family="Arial" font-size="14.00" fill="#666666">[bigint]</text>
<polygon fill="none" stroke="#000000" points="43.5,-565.5 43.5,-595.5 358.5,-595.5 358.5,-565.5 43.5,-565.5"/>
<text text-anchor="start" x="50.5" y="-576.9" font-family="Arial" font-size="14.00" fill="#000000">account_id    </text>
<text text-anchor="start" x="152.3976" y="-576.9" font-family="Arial" font-size="14.00" fill="#666666">[bigint]</text>
<polygon fill="none" stroke="#000000" points="43.5,-535.5 43.5,-565.5 358.5,-565.5 358.5,-535.5 43.5,-535.5"/>
<text text-anchor="start" x="50.5" y="-546.9" font-family="Arial" font-size="14.00" fill="#000000">name    </text>
<text text-anchor="start" x="119.7132" y="-546.9" font-family="Arial" font-size="14.00" fill="#666666">[varchar(255)]</text>
<polygon fill="none" stroke="#000000" points="43.5,-505.5 43.5,-535.5 358.5,-535.5 358.5,-505.5 43.5,-505.5"/>
<text text-anchor="start" x="50.5" y="-516.9" font-family="Arial" font-size="14.00" fill="#000000">affiliation    </text>
<text text-anchor="start" x="139.9334" y="-516.9" font-family="Arial" font-size="14.00" fill="#666666">[varchar(255)]</text>
<polygon fill="none" stroke="#000000" points="43.5,-475.5 43.5,-505.5 358.5,-505.5 358.5,-475.5 43.5,-475.5"/>
<text text-anchor="start" x="50.5" y="-486.9" font-family="Arial" font-size="14.00" fill="#000000">bio    </text>
<text text-anchor="start" x="103.3766" y="-486.9" font-family="Arial" font-size="14.00" fill="#666666">[text]</text>
<polygon fill="none" stroke="#000000" points="43.5,-445.5 43.5,-475.5 358.5,-475.5 358.5,-445.5 43.5,-445.5"/>
<text text-anchor="start" x="50.5" y="-456.9" font-family="Arial" font-size="14.00" fill="#000000">email    </text>
<text text-anchor="start" x="118.1438" y="-456.9" font-family="Arial" font-size="14.00" fill="#666666">[varchar(255)]</text>
<polygon fill="none" stroke="#000000" points="43.5,-415.5 43.5,-445.5 358.5,-445.5 358.5,-415.5 43.5,-415.5"/>
<text text-anchor="start" x="50.5" y="-426.9" font-family="Arial" font-size="14.00" fill="#000000">birthdate    </text>
<text text-anchor="start" x="139.1662" y="-426.9" font-family="Arial" font-size="14.00" fill="#666666">[timestamp without time zone]</text>
<polygon fill="none" stroke="#000000" points="43.5,-385.5 43.5,-415.5 358.5,-415.5 358.5,-385.5 43.5,-385.5"/>
<text text-anchor="start" x="50.5" y="-396.9" font-family="Arial" font-size="14.00" fill="#000000">gender    </text>
<text text-anchor="start" x="128.2784" y="-396.9" font-family="Arial" font-size="14.00" fill="#666666">[smallint]</text>
<polygon fill="none" stroke="#000000" points="43.5,-355.5 43.5,-385.5 358.5,-385.5 358.5,-355.5 43.5,-355.5"/>
<text text-anchor="start" x="50.5" y="-366.9" font-family="Arial" font-size="14.00" fill="#000000">created_at    </text>
<text text-anchor="start" x="150.8422" y="-366.9" font-family="Arial" font-size="14.00" fill="#666666">[timestamp without time zone]</text>
<polygon fill="none" stroke="#000000" points="43.5,-325.5 43.5,-355.5 358.5,-355.5 358.5,-325.5 43.5,-325.5"/>
<text text-anchor="start" x="50.5" y="-336.9" font-family="Arial" font-size="14.00" fill="#000000">updated_at    </text>
<text text-anchor="start" x="154.7468" y="-336.9" font-family="Arial" font-size="14.00" fill="#666666">[timestamp without time zone]</text>
</g>
<!-- public.account_profile&#45;&gt;public.account -->
<g id="edge1" class="edge">
<title>public.account_profile:account_id&#45;&gt;public.account:account_id</title>
<path fill="none" stroke="#000000" d="M368.5822,-578.4634C421.5181,-555.3766 388.0395,-342.6652 409.5,-283 432.4772,-219.1182 417.6116,-150.5 485.5,-150.5"/>
<polygon fill="#000000" stroke="#000000" points="368.302,-578.5199 357.609,-576.0891 363.401,-579.51 358.5,-580.5 358.5,-580.5 358.5,-580.5 363.401,-579.51 359.391,-584.9109 368.302,-578.5199 368.302,-578.5199"/>
</g>
<!-- public.group_member -->
<g id="node3" class="node">
<title>public.group_member</title>
<polygon fill="#efefef" stroke="transparent" points="462.5,-550.5 462.5,-585.5 777.5,-585.5 777.5,-550.5 462.5,-550.5"/>
<polygon fill="none" stroke="#000000" points="462.5,-550.5 462.5,-585.5 777.5,-585.5 777.5,-550.5 462.5,-550.5"/>
<text text-anchor="start" x="469.2022" y="-563.3" font-family="Arial Bold" font-size="18.00" fill="#000000">public.group_member</text>
<text text-anchor="start" x="643.2298" y="-563.3" font-family="Arial" font-size="14.00" fill="#000000">    </text>
<text text-anchor="start" x="677.4346" y="-563.3" font-family="Arial" font-size="14.00" fill="#666666">[BASE TABLE]</text>
<polygon fill="none" stroke="#000000" points="462.5,-520.5 462.5,-550.5 777.5,-550.5 777.5,-520.5 462.5,-520.5"/>
<text text-anchor="start" x="469.5" y="-531.9" font-family="Arial" font-size="14.00" fill="#000000">group_member_id    </text>
<text text-anchor="start" x="617.2798" y="-531.9" font-family="Arial" font-size="14.00" fill="#666666">[bigint]</text>
<polygon fill="none" stroke="#000000" points="462.5,-490.5 462.5,-520.5 777.5,-520.5 777.5,-490.5 462.5,-490.5"/>
<text text-anchor="start" x="469.5" y="-501.9" font-family="Arial" font-size="14.00" fill="#000000">group_id    </text>
<text text-anchor="start" x="558.1676" y="-501.9" font-family="Arial" font-size="14.00" fill="#666666">[bigint]</text>
<polygon fill="none" stroke="#000000" points="462.5,-460.5 462.5,-490.5 777.5,-490.5 777.5,-460.5 462.5,-460.5"/>
<text text-anchor="start" x="469.5" y="-471.9" font-family="Arial" font-size="14.00" fill="#000000">account_id    </text>
<text text-anchor="start" x="571.3976" y="-471.9" font-family="Arial" font-size="14.00" fill="#666666">[bigint]</text>
<polygon fill="none" stroke="#000000" points="462.5,-430.5 462.5,-460.5 777.5,-460.5 777.5,-430.5 462.5,-430.5"/>
<text text-anchor="start" x="469.5" y="-441.9" font-family="Arial" font-size="14.00" fill="#000000">account_profile_id    </text>
<text text-anchor="start" x="617.2924" y="-441.9" font-family="Arial" font-size="14.00" fill="#666666">[bigint]</text>
<polygon fill="none" stroke="#000000" points="462.5,-400.5 462.5,-430.5 777.5,-430.5 777.5,-400.5 462.5,-400.5"/>
<text text-anchor="start" x="469.5" y="-411.9" font-family="Arial" font-size="14.00" fill="#000000">role    </text>
<text text-anchor="start" x="527.0372" y="-411.9" font-family="Arial" font-size="14.00" fill="#666666">[smallint]</text>
</g>
<!-- public.group_member&#45;&gt;public.account -->
<g id="edge2" class="edge">
<title>public.group_member:account_id&#45;&gt;public.account:account_id</title>
<path fill="none" stroke="#000000" d="M452.5711,-473.2511C392.461,-444.5366 416.6324,-150.5 485.5,-150.5"/>
<polygon fill="#000000" stroke="#000000" points="452.747,-473.2909 461.5059,-479.8888 457.6235,-474.3954 462.5,-475.5 462.5,-475.5 462.5,-475.5 457.6235,-474.3954 463.4941,-471.1112 452.747,-473.2909 452.747,-473.2909"/>
</g>
<!-- public.account_workspace -->
<g id="node4" class="node">
<title>public.account_workspace</title>
<polygon fill="#efefef" stroke="transparent" points="881.5,-520.5 881.5,-555.5 1233.5,-555.5 1233.5,-520.5 881.5,-520.5"/>
<polygon fill="none" stroke="#000000" points="881.5,-520.5 881.5,-555.5 1233.5,-555.5 1233.5,-520.5 881.5,-520.5"/>
<text text-anchor="start" x="888.1892" y="-533.3" font-family="Arial Bold" font-size="18.00" fill="#000000">public.account_workspace</text>
<text text-anchor="start" x="1099.2428" y="-533.3" font-family="Arial" font-size="14.00" fill="#000000">    </text>
<text text-anchor="start" x="1133.4476" y="-533.3" font-family="Arial" font-size="14.00" fill="#666666">[BASE TABLE]</text>
<polygon fill="none" stroke="#000000" points="881.5,-490.5 881.5,-520.5 1233.5,-520.5 1233.5,-490.5 881.5,-490.5"/>
<text text-anchor="start" x="888.5" y="-501.9" font-family="Arial" font-size="14.00" fill="#000000">account_workspace_id    </text>
<text text-anchor="start" x="1065.0778" y="-501.9" font-family="Arial" font-size="14.00" fill="#666666">[bigint]</text>
<polygon fill="none" stroke="#000000" points="881.5,-460.5 881.5,-490.5 1233.5,-490.5 1233.5,-460.5 881.5,-460.5"/>
<text text-anchor="start" x="888.5" y="-471.9" font-family="Arial" font-size="14.00" fill="#000000">workspace_id    </text>
<text text-anchor="start" x="1008.2742" y="-471.9" font-family="Arial" font-size="14.00" fill="#666666">[bigint]</text>
<polygon fill="none" stroke="#000000" points="881.5,-430.5 881.5,-460.5 1233.5,-460.5 1233.5,-430.5 881.5,-430.5"/>
<text text-anchor="start" x="888.5" y="-441.9" font-family="Arial" font-size="14.00" fill="#000000">account_id    </text>
<text text-anchor="start" x="990.3976" y="-441.9" font-family="Arial" font-size="14.00" fill="#666666">[bigint]</text>
</g>
<!-- public.account_workspace&#45;&gt;public.account -->
<g id="edge3" class="edge">
<title>public.account_workspace:account_id&#45;&gt;public.account:account_id</title>
<path fill="none" stroke="#000000" d="M871.2973,-444.8482C810.7635,-436.4715 858.4085,-349.0806 829.5,-283 802.3786,-221.0045 822.1684,-150.5 754.5,-150.5"/>
<polygon fill="#000000" stroke="#000000" points="871.5203,-444.8623 881.2131,-449.9908 876.5102,-445.1812 881.5,-445.5 881.5,-445.5 881.5,-445.5 876.5102,-445.1812 881.7869,-441.0092 871.5203,-444.8623 871.5203,-444.8623"/>
</g>
</g>
</svg>
