<?xml version="1.0" encoding="UTF-8" standalone="no"?>
<!DOCTYPE svg PUBLIC "-//W3C//DTD SVG 1.1//EN"
 "http://www.w3.org/Graphics/SVG/1.1/DTD/svg11.dtd">
<!-- Generated by graphviz version 2.40.1 (20161225.0304)
 -->
<!-- Title: public.group_member Pages: 1 -->
<svg width="1219pt" height="742pt"
 viewBox="0.00 0.00 1219.00 742.00" xmlns="http://www.w3.org/2000/svg" xmlns:xlink="http://www.w3.org/1999/xlink">
<g id="graph0" class="graph" transform="scale(1 1) rotate(0) translate(4 738)">
<title>public.group_member</title>
<polygon fill="#ffffff" stroke="transparent" points="-4,4 -4,-738 1215,-738 1215,4 -4,4"/>
<!-- public.group_member -->
<g id="node1" class="node">
<title>public.group_member</title>
<polygon fill="#efefef" stroke="transparent" points="442.5,-652.5 442.5,-687.5 757.5,-687.5 757.5,-652.5 442.5,-652.5"/>
<polygon fill="none" stroke="#000000" points="442.5,-652.5 442.5,-687.5 757.5,-687.5 757.5,-652.5 442.5,-652.5"/>
<text text-anchor="start" x="449.2022" y="-665.3" font-family="Arial Bold" font-size="18.00" fill="#000000">public.group_member</text>
<text text-anchor="start" x="623.2298" y="-665.3" font-family="Arial" font-size="14.00" fill="#000000">    </text>
<text text-anchor="start" x="657.4346" y="-665.3" font-family="Arial" font-size="14.00" fill="#666666">[BASE TABLE]</text>
<polygon fill="none" stroke="#000000" points="442.5,-622.5 442.5,-652.5 757.5,-652.5 757.5,-622.5 442.5,-622.5"/>
<text text-anchor="start" x="449.5" y="-633.9" font-family="Arial" font-size="14.00" fill="#000000">group_member_id </text>
<text text-anchor="start" x="566.9656" y="-633.9" font-family="Arial" font-size="14.00" fill="#666666">[bigint]</text>
<polygon fill="none" stroke="#000000" points="442.5,-592.5 442.5,-622.5 757.5,-622.5 757.5,-592.5 442.5,-592.5"/>
<text text-anchor="start" x="449.5" y="-603.9" font-family="Arial" font-size="14.00" fill="#000000">group_id </text>
<text text-anchor="start" x="507.8534" y="-603.9" font-family="Arial" font-size="14.00" fill="#666666">[bigint]</text>
<polygon fill="none" stroke="#000000" points="442.5,-562.5 442.5,-592.5 757.5,-592.5 757.5,-562.5 442.5,-562.5"/>
<text text-anchor="start" x="449.5" y="-573.9" font-family="Arial" font-size="14.00" fill="#000000">account_id </text>
<text text-anchor="start" x="521.0834" y="-573.9" font-family="Arial" font-size="14.00" fill="#666666">[bigint]</text>
<polygon fill="none" stroke="#000000" points="442.5,-532.5 442.5,-562.5 757.5,-562.5 757.5,-532.5 442.5,-532.5"/>
<text text-anchor="start" x="449.5" y="-543.9" font-family="Arial" font-size="14.00" fill="#000000">account_profile_id </text>
<text text-anchor="start" x="566.9782" y="-543.9" font-family="Arial" font-size="14.00" fill="#666666">[bigint]</text>
<polygon fill="none" stroke="#000000" points="442.5,-502.5 442.5,-532.5 757.5,-532.5 757.5,-502.5 442.5,-502.5"/>
<text text-anchor="start" x="449.5" y="-513.9" font-family="Arial" font-size="14.00" fill="#000000">role </text>
<text text-anchor="start" x="476.723" y="-513.9" font-family="Arial" font-size="14.00" fill="#666666">[smallint]</text>
<polygon fill="none" stroke="#000000" stroke-width="3" points="440.5,-501.5 440.5,-689.5 758.5,-689.5 758.5,-501.5 440.5,-501.5"/>
</g>
<!-- public.group -->
<g id="node2" class="node">
<title>public.group</title>
<polygon fill="#efefef" stroke="transparent" points="43.5,-252.5 43.5,-287.5 346.5,-287.5 346.5,-252.5 43.5,-252.5"/>
<polygon fill="none" stroke="#000000" points="43.5,-252.5 43.5,-287.5 346.5,-287.5 346.5,-252.5 43.5,-252.5"/>
<text text-anchor="start" x="82.2029" y="-265.3" font-family="Arial Bold" font-size="18.00" fill="#000000">public.group</text>
<text text-anchor="start" x="180.2291" y="-265.3" font-family="Arial" font-size="14.00" fill="#000000">    </text>
<text text-anchor="start" x="214.4339" y="-265.3" font-family="Arial" font-size="14.00" fill="#666666">[BASE TABLE]</text>
<polygon fill="none" stroke="#000000" points="43.5,-222.5 43.5,-252.5 346.5,-252.5 346.5,-222.5 43.5,-222.5"/>
<text text-anchor="start" x="50.5" y="-233.9" font-family="Arial" font-size="14.00" fill="#000000">group_id    </text>
<text text-anchor="start" x="139.1676" y="-233.9" font-family="Arial" font-size="14.00" fill="#666666">[bigint]</text>
<polygon fill="none" stroke="#000000" points="43.5,-192.5 43.5,-222.5 346.5,-222.5 346.5,-192.5 43.5,-192.5"/>
<text text-anchor="start" x="50.5" y="-203.9" font-family="Arial" font-size="14.00" fill="#000000">group_name    </text>
<text text-anchor="start" x="163.2868" y="-203.9" font-family="Arial" font-size="14.00" fill="#666666">[varchar(255)]</text>
<polygon fill="none" stroke="#000000" points="43.5,-162.5 43.5,-192.5 346.5,-192.5 346.5,-162.5 43.5,-162.5"/>
<text text-anchor="start" x="50.5" y="-173.9" font-family="Arial" font-size="14.00" fill="#000000">created_at    </text>
<text text-anchor="start" x="150.8422" y="-173.9" font-family="Arial" font-size="14.00" fill="#666666">[timestamp without time zone]</text>
<polygon fill="none" stroke="#000000" points="43.5,-132.5 43.5,-162.5 346.5,-162.5 346.5,-132.5 43.5,-132.5"/>
<text text-anchor="start" x="50.3065" y="-143.9" font-family="Arial" font-size="14.00" fill="#000000">updated_at    </text>
<text text-anchor="start" x="154.5533" y="-143.9" font-family="Arial" font-size="14.00" fill="#666666">[timestamp without time zone]</text>
</g>
<!-- public.group_member&#45;&gt;public.group -->
<g id="edge1" class="edge">
<title>public.group_member:group_id&#45;&gt;public.group:group_id</title>
<path fill="none" stroke="#000000" d="M432.4047,-605.5093C363.6119,-576.3863 427.7947,-237.5 346.5,-237.5"/>
<polygon fill="#000000" stroke="#000000" points="432.6889,-605.5653 441.6294,-611.915 437.5945,-606.5326 442.5,-607.5 442.5,-607.5 442.5,-607.5 437.5945,-606.5326 443.3706,-603.085 432.6889,-605.5653 432.6889,-605.5653"/>
</g>
<!-- public.account -->
<g id="node3" class="node">
<title>public.account</title>
<polygon fill="#efefef" stroke="transparent" points="450.5,-252.5 450.5,-287.5 749.5,-287.5 749.5,-252.5 450.5,-252.5"/>
<polygon fill="none" stroke="#000000" points="450.5,-252.5 450.5,-287.5 749.5,-287.5 749.5,-252.5 450.5,-252.5"/>
<text text-anchor="start" x="478.6979" y="-265.3" font-family="Arial Bold" font-size="18.00" fill="#000000">public.account</text>
<text text-anchor="start" x="593.7341" y="-265.3" font-family="Arial" font-size="14.00" fill="#000000">    </text>
<text text-anchor="start" x="627.9389" y="-265.3" font-family="Arial" font-size="14.00" fill="#666666">[BASE TABLE]</text>
<polygon fill="none" stroke="#000000" points="450.5,-222.5 450.5,-252.5 749.5,-252.5 749.5,-222.5 450.5,-222.5"/>
<text text-anchor="start" x="457.5" y="-233.9" font-family="Arial" font-size="14.00" fill="#000000">account_id    </text>
<text text-anchor="start" x="559.3976" y="-233.9" font-family="Arial" font-size="14.00" fill="#666666">[bigint]</text>
<polygon fill="none" stroke="#000000" points="450.5,-192.5 450.5,-222.5 749.5,-222.5 749.5,-192.5 450.5,-192.5"/>
<text text-anchor="start" x="457.5" y="-203.9" font-family="Arial" font-size="14.00" fill="#000000">account_name    </text>
<text text-anchor="start" x="583.5168" y="-203.9" font-family="Arial" font-size="14.00" fill="#666666">[varchar(255)]</text>
<polygon fill="none" stroke="#000000" points="450.5,-162.5 450.5,-192.5 749.5,-192.5 749.5,-162.5 450.5,-162.5"/>
<text text-anchor="start" x="457.5" y="-173.9" font-family="Arial" font-size="14.00" fill="#000000">user_subject    </text>
<text text-anchor="start" x="571.0582" y="-173.9" font-family="Arial" font-size="14.00" fill="#666666">[varchar(255)]</text>
<polygon fill="none" stroke="#000000" points="450.5,-132.5 450.5,-162.5 749.5,-162.5 749.5,-132.5 450.5,-132.5"/>
<text text-anchor="start" x="457.2588" y="-143.9" font-family="Arial" font-size="14.00" fill="#000000">created_at    </text>
<text text-anchor="start" x="557.601" y="-143.9" font-family="Arial" font-size="14.00" fill="#666666">[timestamp without time zone]</text>
</g>
<!-- public.group_member&#45;&gt;public.account -->
<g id="edge2" class="edge">
<title>public.group_member:account_id&#45;&gt;public.account:account_id</title>
<path fill="none" stroke="#000000" d="M434.2946,-571.3084C406.184,-525.2271 415.7378,-237.5 450.5,-237.5"/>
<polygon fill="#000000" stroke="#000000" points="434.5175,-571.4766 439.7895,-581.0921 438.5088,-574.4883 442.5,-577.5 442.5,-577.5 442.5,-577.5 438.5088,-574.4883 445.2105,-573.9079 434.5175,-571.4766 434.5175,-571.4766"/>
</g>
<!-- public.account_profile -->
<g id="node4" class="node">
<title>public.account_profile</title>
<polygon fill="#efefef" stroke="transparent" points="853.5,-342.5 853.5,-377.5 1168.5,-377.5 1168.5,-342.5 853.5,-342.5"/>
<polygon fill="none" stroke="#000000" points="853.5,-342.5 853.5,-377.5 1168.5,-377.5 1168.5,-342.5 853.5,-342.5"/>
<text text-anchor="start" x="860.1941" y="-355.3" font-family="Arial Bold" font-size="18.00" fill="#000000">public.account_profile</text>
<text text-anchor="start" x="1034.2379" y="-355.3" font-family="Arial" font-size="14.00" fill="#000000">    </text>
<text text-anchor="start" x="1068.4427" y="-355.3" font-family="Arial" font-size="14.00" fill="#666666">[BASE TABLE]</text>
<polygon fill="none" stroke="#000000" points="853.5,-312.5 853.5,-342.5 1168.5,-342.5 1168.5,-312.5 853.5,-312.5"/>
<text text-anchor="start" x="860.5" y="-323.9" font-family="Arial" font-size="14.00" fill="#000000">account_profile_id    </text>
<text text-anchor="start" x="1008.2924" y="-323.9" font-family="Arial" font-size="14.00" fill="#666666">[bigint]</text>
<polygon fill="none" stroke="#000000" points="853.5,-282.5 853.5,-312.5 1168.5,-312.5 1168.5,-282.5 853.5,-282.5"/>
<text text-anchor="start" x="860.5" y="-293.9" font-family="Arial" font-size="14.00" fill="#000000">account_id    </text>
<text text-anchor="start" x="962.3976" y="-293.9" font-family="Arial" font-size="14.00" fill="#666666">[bigint]</text>
<polygon fill="none" stroke="#000000" points="853.5,-252.5 853.5,-282.5 1168.5,-282.5 1168.5,-252.5 853.5,-252.5"/>
<text text-anchor="start" x="860.5" y="-263.9" font-family="Arial" font-size="14.00" fill="#000000">name    </text>
<text text-anchor="start" x="929.7132" y="-263.9" font-family="Arial" font-size="14.00" fill="#666666">[varchar(255)]</text>
<polygon fill="none" stroke="#000000" points="853.5,-222.5 853.5,-252.5 1168.5,-252.5 1168.5,-222.5 853.5,-222.5"/>
<text text-anchor="start" x="860.5" y="-233.9" font-family="Arial" font-size="14.00" fill="#000000">affiliation    </text>
<text text-anchor="start" x="949.9334" y="-233.9" font-family="Arial" font-size="14.00" fill="#666666">[varchar(255)]</text>
<polygon fill="none" stroke="#000000" points="853.5,-192.5 853.5,-222.5 1168.5,-222.5 1168.5,-192.5 853.5,-192.5"/>
<text text-anchor="start" x="860.5" y="-203.9" font-family="Arial" font-size="14.00" fill="#000000">bio    </text>
<text text-anchor="start" x="913.3766" y="-203.9" font-family="Arial" font-size="14.00" fill="#666666">[text]</text>
<polygon fill="none" stroke="#000000" points="853.5,-162.5 853.5,-192.5 1168.5,-192.5 1168.5,-162.5 853.5,-162.5"/>
<text text-anchor="start" x="860.5" y="-173.9" font-family="Arial" font-size="14.00" fill="#000000">email    </text>
<text text-anchor="start" x="928.1438" y="-173.9" font-family="Arial" font-size="14.00" fill="#666666">[varchar(255)]</text>
<polygon fill="none" stroke="#000000" points="853.5,-132.5 853.5,-162.5 1168.5,-162.5 1168.5,-132.5 853.5,-132.5"/>
<text text-anchor="start" x="860.5" y="-143.9" font-family="Arial" font-size="14.00" fill="#000000">birthdate    </text>
<text text-anchor="start" x="949.1662" y="-143.9" font-family="Arial" font-size="14.00" fill="#666666">[timestamp without time zone]</text>
<polygon fill="none" stroke="#000000" points="853.5,-102.5 853.5,-132.5 1168.5,-132.5 1168.5,-102.5 853.5,-102.5"/>
<text text-anchor="start" x="860.5" y="-113.9" font-family="Arial" font-size="14.00" fill="#000000">gender    </text>
<text text-anchor="start" x="938.2784" y="-113.9" font-family="Arial" font-size="14.00" fill="#666666">[smallint]</text>
<polygon fill="none" stroke="#000000" points="853.5,-72.5 853.5,-102.5 1168.5,-102.5 1168.5,-72.5 853.5,-72.5"/>
<text text-anchor="start" x="860.5" y="-83.9" font-family="Arial" font-size="14.00" fill="#000000">created_at    </text>
<text text-anchor="start" x="960.8422" y="-83.9" font-family="Arial" font-size="14.00" fill="#666666">[timestamp without time zone]</text>
<polygon fill="none" stroke="#000000" points="853.5,-42.5 853.5,-72.5 1168.5,-72.5 1168.5,-42.5 853.5,-42.5"/>
<text text-anchor="start" x="860.5" y="-53.9" font-family="Arial" font-size="14.00" fill="#000000">updated_at    </text>
<text text-anchor="start" x="964.7468" y="-53.9" font-family="Arial" font-size="14.00" fill="#666666">[timestamp without time zone]</text>
</g>
<!-- public.group_member&#45;&gt;public.account_profile -->
<g id="edge3" class="edge">
<title>public.group_member:account_profile_id&#45;&gt;public.account_profile:account_profile_id</title>
<path fill="none" stroke="#000000" d="M767.6717,-546.7465C856.4204,-532.718 750.4649,-327.5 853.5,-327.5"/>
<polygon fill="#000000" stroke="#000000" points="767.4727,-546.7612 757.1675,-543.0123 762.4863,-547.1306 757.5,-547.5 757.5,-547.5 757.5,-547.5 762.4863,-547.1306 757.8325,-551.9877 767.4727,-546.7612 767.4727,-546.7612"/>
</g>
</g>
</svg>
