<?xml version="1.0" encoding="UTF-8" standalone="no"?>
<!DOCTYPE svg PUBLIC "-//W3C//DTD SVG 1.1//EN"
 "http://www.w3.org/Graphics/SVG/1.1/DTD/svg11.dtd">
<!-- Generated by graphviz version 2.40.1 (20161225.0304)
 -->
<!-- Title: public.account_workspace Pages: 1 -->
<svg width="800pt" height="502pt"
 viewBox="0.00 0.00 800.00 502.00" xmlns="http://www.w3.org/2000/svg" xmlns:xlink="http://www.w3.org/1999/xlink">
<g id="graph0" class="graph" transform="scale(1 1) rotate(0) translate(4 498)">
<title>public.account_workspace</title>
<polygon fill="#ffffff" stroke="transparent" points="-4,4 -4,-498 796,-498 796,4 -4,4"/>
<!-- public.account_workspace -->
<g id="node1" class="node">
<title>public.account_workspace</title>
<polygon fill="#efefef" stroke="transparent" points="221.5,-412.5 221.5,-447.5 573.5,-447.5 573.5,-412.5 221.5,-412.5"/>
<polygon fill="none" stroke="#000000" points="221.5,-412.5 221.5,-447.5 573.5,-447.5 573.5,-412.5 221.5,-412.5"/>
<text text-anchor="start" x="228.1892" y="-425.3" font-family="Arial Bold" font-size="18.00" fill="#000000">public.account_workspace</text>
<text text-anchor="start" x="439.2428" y="-425.3" font-family="Arial" font-size="14.00" fill="#000000">    </text>
<text text-anchor="start" x="473.4476" y="-425.3" font-family="Arial" font-size="14.00" fill="#666666">[BASE TABLE]</text>
<polygon fill="none" stroke="#000000" points="221.5,-382.5 221.5,-412.5 573.5,-412.5 573.5,-382.5 221.5,-382.5"/>
<text text-anchor="start" x="228.5" y="-393.9" font-family="Arial" font-size="14.00" fill="#000000">account_workspace_id </text>
<text text-anchor="start" x="374.7636" y="-393.9" font-family="Arial" font-size="14.00" fill="#666666">[bigint]</text>
<polygon fill="none" stroke="#000000" points="221.5,-352.5 221.5,-382.5 573.5,-382.5 573.5,-352.5 221.5,-352.5"/>
<text text-anchor="start" x="228.5" y="-363.9" font-family="Arial" font-size="14.00" fill="#000000">workspace_id </text>
<text text-anchor="start" x="317.96" y="-363.9" font-family="Arial" font-size="14.00" fill="#666666">[bigint]</text>
<polygon fill="none" stroke="#000000" points="221.5,-322.5 221.5,-352.5 573.5,-352.5 573.5,-322.5 221.5,-322.5"/>
<text text-anchor="start" x="228.5" y="-333.9" font-family="Arial" font-size="14.00" fill="#000000">account_id </text>
<text text-anchor="start" x="300.0834" y="-333.9" font-family="Arial" font-size="14.00" fill="#666666">[bigint]</text>
<polygon fill="none" stroke="#000000" stroke-width="3" points="220,-321.5 220,-449.5 575,-449.5 575,-321.5 220,-321.5"/>
</g>
<!-- public.workspace -->
<g id="node2" class="node">
<title>public.workspace</title>
<polygon fill="#efefef" stroke="transparent" points="43.5,-162.5 43.5,-197.5 346.5,-197.5 346.5,-162.5 43.5,-162.5"/>
<polygon fill="none" stroke="#000000" points="43.5,-162.5 43.5,-197.5 346.5,-197.5 346.5,-162.5 43.5,-162.5"/>
<text text-anchor="start" x="62.2058" y="-175.3" font-family="Arial Bold" font-size="18.00" fill="#000000">public.workspace</text>
<text text-anchor="start" x="200.2262" y="-175.3" font-family="Arial" font-size="14.00" fill="#000000">    </text>
<text text-anchor="start" x="234.431" y="-175.3" font-family="Arial" font-size="14.00" fill="#666666">[BASE TABLE]</text>
<polygon fill="none" stroke="#000000" points="43.5,-132.5 43.5,-162.5 346.5,-162.5 346.5,-132.5 43.5,-132.5"/>
<text text-anchor="start" x="50.5" y="-143.9" font-family="Arial" font-size="14.00" fill="#000000">workspace_id    </text>
<text text-anchor="start" x="170.2742" y="-143.9" font-family="Arial" font-size="14.00" fill="#666666">[bigint]</text>
<polygon fill="none" stroke="#000000" points="43.5,-102.5 43.5,-132.5 346.5,-132.5 346.5,-102.5 43.5,-102.5"/>
<text text-anchor="start" x="50.5" y="-113.9" font-family="Arial" font-size="14.00" fill="#000000">workspace_name    </text>
<text text-anchor="start" x="194.3934" y="-113.9" font-family="Arial" font-size="14.00" fill="#666666">[varchar(255)]</text>
<polygon fill="none" stroke="#000000" points="43.5,-72.5 43.5,-102.5 346.5,-102.5 346.5,-72.5 43.5,-72.5"/>
<text text-anchor="start" x="50.5" y="-83.9" font-family="Arial" font-size="14.00" fill="#000000">created_at    </text>
<text text-anchor="start" x="150.8422" y="-83.9" font-family="Arial" font-size="14.00" fill="#666666">[timestamp without time zone]</text>
<polygon fill="none" stroke="#000000" points="43.5,-42.5 43.5,-72.5 346.5,-72.5 346.5,-42.5 43.5,-42.5"/>
<text text-anchor="start" x="50.3065" y="-53.9" font-family="Arial" font-size="14.00" fill="#000000">updated_at    </text>
<text text-anchor="start" x="154.5533" y="-53.9" font-family="Arial" font-size="14.00" fill="#666666">[timestamp without time zone]</text>
</g>
<!-- public.account_workspace&#45;&gt;public.workspace -->
<g id="edge1" class="edge">
<title>public.account_workspace:workspace_id&#45;&gt;public.workspace:workspace_id</title>
<path fill="none" stroke="#000000" d="M211.2809,-365.909C184.4873,-356.3511 199.6744,-305.9985 221.5,-277 256.2664,-230.8078 311.7336,-287.1922 346.5,-241 371.4895,-207.7978 388.0556,-147.5 346.5,-147.5"/>
<polygon fill="#000000" stroke="#000000" points="211.619,-365.9616 220.8077,-371.9464 216.5595,-366.7308 221.5,-367.5 221.5,-367.5 221.5,-367.5 216.5595,-366.7308 222.1923,-363.0536 211.619,-365.9616 211.619,-365.9616"/>
</g>
<!-- public.account -->
<g id="node3" class="node">
<title>public.account</title>
<polygon fill="#efefef" stroke="transparent" points="450.5,-162.5 450.5,-197.5 749.5,-197.5 749.5,-162.5 450.5,-162.5"/>
<polygon fill="none" stroke="#000000" points="450.5,-162.5 450.5,-197.5 749.5,-197.5 749.5,-162.5 450.5,-162.5"/>
<text text-anchor="start" x="478.6979" y="-175.3" font-family="Arial Bold" font-size="18.00" fill="#000000">public.account</text>
<text text-anchor="start" x="593.7341" y="-175.3" font-family="Arial" font-size="14.00" fill="#000000">    </text>
<text text-anchor="start" x="627.9389" y="-175.3" font-family="Arial" font-size="14.00" fill="#666666">[BASE TABLE]</text>
<polygon fill="none" stroke="#000000" points="450.5,-132.5 450.5,-162.5 749.5,-162.5 749.5,-132.5 450.5,-132.5"/>
<text text-anchor="start" x="457.5" y="-143.9" font-family="Arial" font-size="14.00" fill="#000000">account_id    </text>
<text text-anchor="start" x="559.3976" y="-143.9" font-family="Arial" font-size="14.00" fill="#666666">[bigint]</text>
<polygon fill="none" stroke="#000000" points="450.5,-102.5 450.5,-132.5 749.5,-132.5 749.5,-102.5 450.5,-102.5"/>
<text text-anchor="start" x="457.5" y="-113.9" font-family="Arial" font-size="14.00" fill="#000000">account_name    </text>
<text text-anchor="start" x="583.5168" y="-113.9" font-family="Arial" font-size="14.00" fill="#666666">[varchar(255)]</text>
<polygon fill="none" stroke="#000000" points="450.5,-72.5 450.5,-102.5 749.5,-102.5 749.5,-72.5 450.5,-72.5"/>
<text text-anchor="start" x="457.5" y="-83.9" font-family="Arial" font-size="14.00" fill="#000000">public_user_id    </text>
<text text-anchor="start" x="581.946" y="-83.9" font-family="Arial" font-size="14.00" fill="#666666">[varchar(255)]</text>
<polygon fill="none" stroke="#000000" points="450.5,-42.5 450.5,-72.5 749.5,-72.5 749.5,-42.5 450.5,-42.5"/>
<text text-anchor="start" x="457.2588" y="-53.9" font-family="Arial" font-size="14.00" fill="#000000">created_at    </text>
<text text-anchor="start" x="557.601" y="-53.9" font-family="Arial" font-size="14.00" fill="#666666">[timestamp without time zone]</text>
</g>
<!-- public.account_workspace&#45;&gt;public.account -->
<g id="edge2" class="edge">
<title>public.account_workspace:account_id&#45;&gt;public.account:account_id</title>
<path fill="none" stroke="#000000" d="M583.4695,-334.8602C596.8938,-325.7447 587.104,-295.1564 573.5,-277 539.3453,-231.416 484.6547,-286.584 450.5,-241 425.5822,-207.7439 408.9444,-147.5 450.5,-147.5"/>
<polygon fill="#000000" stroke="#000000" points="583.1669,-334.9403 572.3481,-333.1499 578.3334,-336.2201 573.5,-337.5 573.5,-337.5 573.5,-337.5 578.3334,-336.2201 574.6519,-341.8501 583.1669,-334.9403 583.1669,-334.9403"/>
</g>
</g>
</svg>
