<?xml version="1.0" encoding="UTF-8" standalone="no"?>
<!DOCTYPE svg PUBLIC "-//W3C//DTD SVG 1.1//EN"
 "http://www.w3.org/Graphics/SVG/1.1/DTD/svg11.dtd">
<!-- Generated by graphviz version 2.40.1 (20161225.0304)
 -->
<!-- Title: public.group_workspace Pages: 1 -->
<svg width="804pt" height="742pt"
 viewBox="0.00 0.00 804.00 742.00" xmlns="http://www.w3.org/2000/svg" xmlns:xlink="http://www.w3.org/1999/xlink">
<g id="graph0" class="graph" transform="scale(1 1) rotate(0) translate(4 738)">
<title>public.group_workspace</title>
<polygon fill="#ffffff" stroke="transparent" points="-4,4 -4,-738 800,-738 800,4 -4,4"/>
<!-- public.group_workspace -->
<g id="node1" class="node">
<title>public.group_workspace</title>
<polygon fill="#efefef" stroke="transparent" points="230.5,-652.5 230.5,-687.5 565.5,-687.5 565.5,-652.5 230.5,-652.5"/>
<polygon fill="none" stroke="#000000" points="230.5,-652.5 230.5,-687.5 565.5,-687.5 565.5,-652.5 230.5,-652.5"/>
<text text-anchor="start" x="237.1942" y="-665.3" font-family="Arial Bold" font-size="18.00" fill="#000000">public.group_workspace</text>
<text text-anchor="start" x="431.2378" y="-665.3" font-family="Arial" font-size="14.00" fill="#000000">    </text>
<text text-anchor="start" x="465.4426" y="-665.3" font-family="Arial" font-size="14.00" fill="#666666">[BASE TABLE]</text>
<polygon fill="none" stroke="#000000" points="230.5,-622.5 230.5,-652.5 565.5,-652.5 565.5,-622.5 230.5,-622.5"/>
<text text-anchor="start" x="237.5" y="-633.9" font-family="Arial" font-size="14.00" fill="#000000">group_workspace_id </text>
<text text-anchor="start" x="370.5336" y="-633.9" font-family="Arial" font-size="14.00" fill="#666666">[bigint]</text>
<polygon fill="none" stroke="#000000" points="230.5,-592.5 230.5,-622.5 565.5,-622.5 565.5,-592.5 230.5,-592.5"/>
<text text-anchor="start" x="237.5" y="-603.9" font-family="Arial" font-size="14.00" fill="#000000">workspace_id </text>
<text text-anchor="start" x="326.96" y="-603.9" font-family="Arial" font-size="14.00" fill="#666666">[bigint]</text>
<polygon fill="none" stroke="#000000" points="230.5,-562.5 230.5,-592.5 565.5,-592.5 565.5,-562.5 230.5,-562.5"/>
<text text-anchor="start" x="237.5" y="-573.9" font-family="Arial" font-size="14.00" fill="#000000">group_id </text>
<text text-anchor="start" x="295.8534" y="-573.9" font-family="Arial" font-size="14.00" fill="#666666">[bigint]</text>
<polygon fill="none" stroke="#000000" stroke-width="3" points="228.5,-561.5 228.5,-689.5 566.5,-689.5 566.5,-561.5 228.5,-561.5"/>
</g>
<!-- public.workspace -->
<g id="node2" class="node">
<title>public.workspace</title>
<polygon fill="#efefef" stroke="transparent" points="43.5,-297.5 43.5,-332.5 346.5,-332.5 346.5,-297.5 43.5,-297.5"/>
<polygon fill="none" stroke="#000000" points="43.5,-297.5 43.5,-332.5 346.5,-332.5 346.5,-297.5 43.5,-297.5"/>
<text text-anchor="start" x="62.2058" y="-310.3" font-family="Arial Bold" font-size="18.00" fill="#000000">public.workspace</text>
<text text-anchor="start" x="200.2262" y="-310.3" font-family="Arial" font-size="14.00" fill="#000000">    </text>
<text text-anchor="start" x="234.431" y="-310.3" font-family="Arial" font-size="14.00" fill="#666666">[BASE TABLE]</text>
<polygon fill="none" stroke="#000000" points="43.5,-267.5 43.5,-297.5 346.5,-297.5 346.5,-267.5 43.5,-267.5"/>
<text text-anchor="start" x="50.5" y="-278.9" font-family="Arial" font-size="14.00" fill="#000000">workspace_id    </text>
<text text-anchor="start" x="170.2742" y="-278.9" font-family="Arial" font-size="14.00" fill="#666666">[bigint]</text>
<polygon fill="none" stroke="#000000" points="43.5,-237.5 43.5,-267.5 346.5,-267.5 346.5,-237.5 43.5,-237.5"/>
<text text-anchor="start" x="50.5" y="-248.9" font-family="Arial" font-size="14.00" fill="#000000">workspace_name    </text>
<text text-anchor="start" x="194.3934" y="-248.9" font-family="Arial" font-size="14.00" fill="#666666">[varchar(255)]</text>
<polygon fill="none" stroke="#000000" points="43.5,-207.5 43.5,-237.5 346.5,-237.5 346.5,-207.5 43.5,-207.5"/>
<text text-anchor="start" x="50.5" y="-218.9" font-family="Arial" font-size="14.00" fill="#000000">name    </text>
<text text-anchor="start" x="119.7132" y="-218.9" font-family="Arial" font-size="14.00" fill="#666666">[varchar(255)]</text>
<polygon fill="none" stroke="#000000" points="43.5,-177.5 43.5,-207.5 346.5,-207.5 346.5,-177.5 43.5,-177.5"/>
<text text-anchor="start" x="50.5" y="-188.9" font-family="Arial" font-size="14.00" fill="#000000">created_at    </text>
<text text-anchor="start" x="150.8422" y="-188.9" font-family="Arial" font-size="14.00" fill="#666666">[timestamp without time zone]</text>
<polygon fill="none" stroke="#000000" points="43.5,-147.5 43.5,-177.5 346.5,-177.5 346.5,-147.5 43.5,-147.5"/>
<text text-anchor="start" x="50.3065" y="-158.9" font-family="Arial" font-size="14.00" fill="#000000">updated_at    </text>
<text text-anchor="start" x="154.5533" y="-158.9" font-family="Arial" font-size="14.00" fill="#666666">[timestamp without time zone]</text>
</g>
<!-- public.group_workspace&#45;&gt;public.workspace -->
<g id="edge1" class="edge">
<title>public.group_workspace:workspace_id&#45;&gt;public.workspace:workspace_id</title>
<path fill="none" stroke="#000000" d="M220.5549,-606.0568C195.358,-597.3602 218.2523,-551.1653 230.5,-517 257.8841,-440.6115 319.1159,-452.3885 346.5,-376 360.5232,-336.882 388.0556,-282.5 346.5,-282.5"/>
<polygon fill="#000000" stroke="#000000" points="220.6037,-606.0638 229.8537,-611.9534 225.5518,-606.7819 230.5,-607.5 230.5,-607.5 230.5,-607.5 225.5518,-606.7819 231.1463,-603.0466 220.6037,-606.0638 220.6037,-606.0638"/>
</g>
<!-- public.group -->
<g id="node3" class="node">
<title>public.group</title>
<polygon fill="#efefef" stroke="transparent" points="450.5,-402.5 450.5,-437.5 753.5,-437.5 753.5,-402.5 450.5,-402.5"/>
<polygon fill="none" stroke="#000000" points="450.5,-402.5 450.5,-437.5 753.5,-437.5 753.5,-402.5 450.5,-402.5"/>
<text text-anchor="start" x="489.2029" y="-415.3" font-family="Arial Bold" font-size="18.00" fill="#000000">public.group</text>
<text text-anchor="start" x="587.2291" y="-415.3" font-family="Arial" font-size="14.00" fill="#000000">    </text>
<text text-anchor="start" x="621.4339" y="-415.3" font-family="Arial" font-size="14.00" fill="#666666">[BASE TABLE]</text>
<polygon fill="none" stroke="#000000" points="450.5,-372.5 450.5,-402.5 753.5,-402.5 753.5,-372.5 450.5,-372.5"/>
<text text-anchor="start" x="457.5" y="-383.9" font-family="Arial" font-size="14.00" fill="#000000">group_id    </text>
<text text-anchor="start" x="546.1676" y="-383.9" font-family="Arial" font-size="14.00" fill="#666666">[bigint]</text>
<polygon fill="none" stroke="#000000" points="450.5,-342.5 450.5,-372.5 753.5,-372.5 753.5,-342.5 450.5,-342.5"/>
<text text-anchor="start" x="457.5" y="-353.9" font-family="Arial" font-size="14.00" fill="#000000">group_name    </text>
<text text-anchor="start" x="570.2868" y="-353.9" font-family="Arial" font-size="14.00" fill="#666666">[varchar(255)]</text>
<polygon fill="none" stroke="#000000" points="450.5,-312.5 450.5,-342.5 753.5,-342.5 753.5,-312.5 450.5,-312.5"/>
<text text-anchor="start" x="457.5" y="-323.9" font-family="Arial" font-size="14.00" fill="#000000">name    </text>
<text text-anchor="start" x="526.7132" y="-323.9" font-family="Arial" font-size="14.00" fill="#666666">[varchar(255)]</text>
<polygon fill="none" stroke="#000000" points="450.5,-282.5 450.5,-312.5 753.5,-312.5 753.5,-282.5 450.5,-282.5"/>
<text text-anchor="start" x="457.5" y="-293.9" font-family="Arial" font-size="14.00" fill="#000000">description    </text>
<text text-anchor="start" x="559.3822" y="-293.9" font-family="Arial" font-size="14.00" fill="#666666">[text]</text>
<polygon fill="none" stroke="#000000" points="450.5,-252.5 450.5,-282.5 753.5,-282.5 753.5,-252.5 450.5,-252.5"/>
<text text-anchor="start" x="457.5" y="-263.9" font-family="Arial" font-size="14.00" fill="#000000">representative    </text>
<text text-anchor="start" x="580.392" y="-263.9" font-family="Arial" font-size="14.00" fill="#666666">[varchar(255)]</text>
<polygon fill="none" stroke="#000000" points="450.5,-222.5 450.5,-252.5 753.5,-252.5 753.5,-222.5 450.5,-222.5"/>
<text text-anchor="start" x="457.5" y="-233.9" font-family="Arial" font-size="14.00" fill="#000000">location    </text>
<text text-anchor="start" x="539.939" y="-233.9" font-family="Arial" font-size="14.00" fill="#666666">[varchar(255)]</text>
<polygon fill="none" stroke="#000000" points="450.5,-192.5 450.5,-222.5 753.5,-222.5 753.5,-192.5 450.5,-192.5"/>
<text text-anchor="start" x="457.5" y="-203.9" font-family="Arial" font-size="14.00" fill="#000000">email    </text>
<text text-anchor="start" x="525.1438" y="-203.9" font-family="Arial" font-size="14.00" fill="#666666">[varchar(255)]</text>
<polygon fill="none" stroke="#000000" points="450.5,-162.5 450.5,-192.5 753.5,-192.5 753.5,-162.5 450.5,-162.5"/>
<text text-anchor="start" x="457.5" y="-173.9" font-family="Arial" font-size="14.00" fill="#000000">telno    </text>
<text text-anchor="start" x="522.0498" y="-173.9" font-family="Arial" font-size="14.00" fill="#666666">[varchar(255)]</text>
<polygon fill="none" stroke="#000000" points="450.5,-132.5 450.5,-162.5 753.5,-162.5 753.5,-132.5 450.5,-132.5"/>
<text text-anchor="start" x="457.3065" y="-143.9" font-family="Arial" font-size="14.00" fill="#000000">founded_at    </text>
<text text-anchor="start" x="561.5533" y="-143.9" font-family="Arial" font-size="14.00" fill="#666666">[timestamp without time zone]</text>
<polygon fill="none" stroke="#000000" points="450.5,-102.5 450.5,-132.5 753.5,-132.5 753.5,-102.5 450.5,-102.5"/>
<text text-anchor="start" x="457.5" y="-113.9" font-family="Arial" font-size="14.00" fill="#000000">created_at    </text>
<text text-anchor="start" x="557.8422" y="-113.9" font-family="Arial" font-size="14.00" fill="#666666">[timestamp without time zone]</text>
<polygon fill="none" stroke="#000000" points="450.5,-72.5 450.5,-102.5 753.5,-102.5 753.5,-72.5 450.5,-72.5"/>
<text text-anchor="start" x="457.3065" y="-83.9" font-family="Arial" font-size="14.00" fill="#000000">updated_at    </text>
<text text-anchor="start" x="561.5533" y="-83.9" font-family="Arial" font-size="14.00" fill="#666666">[timestamp without time zone]</text>
<polygon fill="none" stroke="#000000" points="450.5,-42.5 450.5,-72.5 753.5,-72.5 753.5,-42.5 450.5,-42.5"/>
<text text-anchor="start" x="457.5" y="-53.9" font-family="Arial" font-size="14.00" fill="#000000">is_public    </text>
<text text-anchor="start" x="546.155" y="-53.9" font-family="Arial" font-size="14.00" fill="#666666">[boolean]</text>
</g>
<!-- public.group_workspace&#45;&gt;public.group -->
<g id="edge2" class="edge">
<title>public.group_workspace:group_id&#45;&gt;public.group:group_id</title>
<path fill="none" stroke="#000000" d="M575.457,-574.8695C588.8407,-565.7841 578.9341,-535.2824 565.5,-517 533.787,-473.8418 482.213,-524.1582 450.5,-481 425.8934,-447.513 408.9444,-387.5 450.5,-387.5"/>
<polygon fill="#000000" stroke="#000000" points="575.1683,-574.9457 564.3506,-573.1493 570.3341,-576.2228 565.5,-577.5 565.5,-577.5 565.5,-577.5 570.3341,-576.2228 566.6494,-581.8507 575.1683,-574.9457 575.1683,-574.9457"/>
</g>
</g>
</svg>
