<?xml version="1.0" encoding="UTF-8" standalone="no"?>
<!DOCTYPE svg PUBLIC "-//W3C//DTD SVG 1.1//EN"
 "http://www.w3.org/Graphics/SVG/1.1/DTD/svg11.dtd">
<!-- Generated by graphviz version 2.40.1 (20161225.0304)
 -->
<!-- Title: public.group_member Pages: 1 -->
<svg width="1219pt" height="772pt"
 viewBox="0.00 0.00 1219.00 772.00" xmlns="http://www.w3.org/2000/svg" xmlns:xlink="http://www.w3.org/1999/xlink">
<g id="graph0" class="graph" transform="scale(1 1) rotate(0) translate(4 768)">
<title>public.group_member</title>
<polygon fill="#ffffff" stroke="transparent" points="-4,4 -4,-768 1215,-768 1215,4 -4,4"/>
<!-- public.group_member -->
<g id="node1" class="node">
<title>public.group_member</title>
<polygon fill="#efefef" stroke="transparent" points="442.5,-682.5 442.5,-717.5 757.5,-717.5 757.5,-682.5 442.5,-682.5"/>
<polygon fill="none" stroke="#000000" points="442.5,-682.5 442.5,-717.5 757.5,-717.5 757.5,-682.5 442.5,-682.5"/>
<text text-anchor="start" x="449.2022" y="-695.3" font-family="Arial Bold" font-size="18.00" fill="#000000">public.group_member</text>
<text text-anchor="start" x="623.2298" y="-695.3" font-family="Arial" font-size="14.00" fill="#000000">    </text>
<text text-anchor="start" x="657.4346" y="-695.3" font-family="Arial" font-size="14.00" fill="#666666">[BASE TABLE]</text>
<polygon fill="none" stroke="#000000" points="442.5,-652.5 442.5,-682.5 757.5,-682.5 757.5,-652.5 442.5,-652.5"/>
<text text-anchor="start" x="449.5" y="-663.9" font-family="Arial" font-size="14.00" fill="#000000">group_member_id </text>
<text text-anchor="start" x="566.9656" y="-663.9" font-family="Arial" font-size="14.00" fill="#666666">[bigint]</text>
<polygon fill="none" stroke="#000000" points="442.5,-622.5 442.5,-652.5 757.5,-652.5 757.5,-622.5 442.5,-622.5"/>
<text text-anchor="start" x="449.5" y="-633.9" font-family="Arial" font-size="14.00" fill="#000000">group_id </text>
<text text-anchor="start" x="507.8534" y="-633.9" font-family="Arial" font-size="14.00" fill="#666666">[bigint]</text>
<polygon fill="none" stroke="#000000" points="442.5,-592.5 442.5,-622.5 757.5,-622.5 757.5,-592.5 442.5,-592.5"/>
<text text-anchor="start" x="449.5" y="-603.9" font-family="Arial" font-size="14.00" fill="#000000">account_id </text>
<text text-anchor="start" x="521.0834" y="-603.9" font-family="Arial" font-size="14.00" fill="#666666">[bigint]</text>
<polygon fill="none" stroke="#000000" points="442.5,-562.5 442.5,-592.5 757.5,-592.5 757.5,-562.5 442.5,-562.5"/>
<text text-anchor="start" x="449.5" y="-573.9" font-family="Arial" font-size="14.00" fill="#000000">account_profile_id </text>
<text text-anchor="start" x="566.9782" y="-573.9" font-family="Arial" font-size="14.00" fill="#666666">[bigint]</text>
<polygon fill="none" stroke="#000000" points="442.5,-532.5 442.5,-562.5 757.5,-562.5 757.5,-532.5 442.5,-532.5"/>
<text text-anchor="start" x="449.5" y="-543.9" font-family="Arial" font-size="14.00" fill="#000000">role </text>
<text text-anchor="start" x="476.723" y="-543.9" font-family="Arial" font-size="14.00" fill="#666666">[smallint]</text>
<polygon fill="none" stroke="#000000" stroke-width="3" points="440.5,-531.5 440.5,-719.5 758.5,-719.5 758.5,-531.5 440.5,-531.5"/>
</g>
<!-- public.group -->
<g id="node2" class="node">
<title>public.group</title>
<polygon fill="#efefef" stroke="transparent" points="43.5,-267.5 43.5,-302.5 346.5,-302.5 346.5,-267.5 43.5,-267.5"/>
<polygon fill="none" stroke="#000000" points="43.5,-267.5 43.5,-302.5 346.5,-302.5 346.5,-267.5 43.5,-267.5"/>
<text text-anchor="start" x="82.2029" y="-280.3" font-family="Arial Bold" font-size="18.00" fill="#000000">public.group</text>
<text text-anchor="start" x="180.2291" y="-280.3" font-family="Arial" font-size="14.00" fill="#000000">    </text>
<text text-anchor="start" x="214.4339" y="-280.3" font-family="Arial" font-size="14.00" fill="#666666">[BASE TABLE]</text>
<polygon fill="none" stroke="#000000" points="43.5,-237.5 43.5,-267.5 346.5,-267.5 346.5,-237.5 43.5,-237.5"/>
<text text-anchor="start" x="50.5" y="-248.9" font-family="Arial" font-size="14.00" fill="#000000">group_id    </text>
<text text-anchor="start" x="139.1676" y="-248.9" font-family="Arial" font-size="14.00" fill="#666666">[bigint]</text>
<polygon fill="none" stroke="#000000" points="43.5,-207.5 43.5,-237.5 346.5,-237.5 346.5,-207.5 43.5,-207.5"/>
<text text-anchor="start" x="50.5" y="-218.9" font-family="Arial" font-size="14.00" fill="#000000">group_name    </text>
<text text-anchor="start" x="163.2868" y="-218.9" font-family="Arial" font-size="14.00" fill="#666666">[varchar(255)]</text>
<polygon fill="none" stroke="#000000" points="43.5,-177.5 43.5,-207.5 346.5,-207.5 346.5,-177.5 43.5,-177.5"/>
<text text-anchor="start" x="50.5" y="-188.9" font-family="Arial" font-size="14.00" fill="#000000">created_at    </text>
<text text-anchor="start" x="150.8422" y="-188.9" font-family="Arial" font-size="14.00" fill="#666666">[timestamp without time zone]</text>
<polygon fill="none" stroke="#000000" points="43.5,-147.5 43.5,-177.5 346.5,-177.5 346.5,-147.5 43.5,-147.5"/>
<text text-anchor="start" x="50.3065" y="-158.9" font-family="Arial" font-size="14.00" fill="#000000">updated_at    </text>
<text text-anchor="start" x="154.5533" y="-158.9" font-family="Arial" font-size="14.00" fill="#666666">[timestamp without time zone]</text>
</g>
<!-- public.group_member&#45;&gt;public.group -->
<g id="edge1" class="edge">
<title>public.group_member:group_id&#45;&gt;public.group:group_id</title>
<path fill="none" stroke="#000000" d="M432.4776,-635.6101C360.6325,-606.5656 431.0586,-252.5 346.5,-252.5"/>
<polygon fill="#000000" stroke="#000000" points="432.6732,-635.6469 441.6661,-641.9221 437.5866,-636.5734 442.5,-637.5 442.5,-637.5 442.5,-637.5 437.5866,-636.5734 443.3339,-633.0779 432.6732,-635.6469 432.6732,-635.6469"/>
</g>
<!-- public.account -->
<g id="node3" class="node">
<title>public.account</title>
<polygon fill="#efefef" stroke="transparent" points="450.5,-267.5 450.5,-302.5 749.5,-302.5 749.5,-267.5 450.5,-267.5"/>
<polygon fill="none" stroke="#000000" points="450.5,-267.5 450.5,-302.5 749.5,-302.5 749.5,-267.5 450.5,-267.5"/>
<text text-anchor="start" x="478.6979" y="-280.3" font-family="Arial Bold" font-size="18.00" fill="#000000">public.account</text>
<text text-anchor="start" x="593.7341" y="-280.3" font-family="Arial" font-size="14.00" fill="#000000">    </text>
<text text-anchor="start" x="627.9389" y="-280.3" font-family="Arial" font-size="14.00" fill="#666666">[BASE TABLE]</text>
<polygon fill="none" stroke="#000000" points="450.5,-237.5 450.5,-267.5 749.5,-267.5 749.5,-237.5 450.5,-237.5"/>
<text text-anchor="start" x="457.5" y="-248.9" font-family="Arial" font-size="14.00" fill="#000000">account_id    </text>
<text text-anchor="start" x="559.3976" y="-248.9" font-family="Arial" font-size="14.00" fill="#666666">[bigint]</text>
<polygon fill="none" stroke="#000000" points="450.5,-207.5 450.5,-237.5 749.5,-237.5 749.5,-207.5 450.5,-207.5"/>
<text text-anchor="start" x="457.5" y="-218.9" font-family="Arial" font-size="14.00" fill="#000000">account_name    </text>
<text text-anchor="start" x="583.5168" y="-218.9" font-family="Arial" font-size="14.00" fill="#666666">[varchar(255)]</text>
<polygon fill="none" stroke="#000000" points="450.5,-177.5 450.5,-207.5 749.5,-207.5 749.5,-177.5 450.5,-177.5"/>
<text text-anchor="start" x="457.5" y="-188.9" font-family="Arial" font-size="14.00" fill="#000000">public_user_id    </text>
<text text-anchor="start" x="581.946" y="-188.9" font-family="Arial" font-size="14.00" fill="#666666">[varchar(255)]</text>
<polygon fill="none" stroke="#000000" points="450.5,-147.5 450.5,-177.5 749.5,-177.5 749.5,-147.5 450.5,-147.5"/>
<text text-anchor="start" x="457.2588" y="-158.9" font-family="Arial" font-size="14.00" fill="#000000">created_at    </text>
<text text-anchor="start" x="557.601" y="-158.9" font-family="Arial" font-size="14.00" fill="#666666">[timestamp without time zone]</text>
</g>
<!-- public.group_member&#45;&gt;public.account -->
<g id="edge2" class="edge">
<title>public.group_member:account_id&#45;&gt;public.account:account_id</title>
<path fill="none" stroke="#000000" d="M434.303,-601.6345C404.4468,-555.4777 414.0509,-252.5 450.5,-252.5"/>
<polygon fill="#000000" stroke="#000000" points="434.3676,-601.6807 439.8813,-611.1596 438.4338,-604.5903 442.5,-607.5 442.5,-607.5 442.5,-607.5 438.4338,-604.5903 445.1187,-603.8404 434.3676,-601.6807 434.3676,-601.6807"/>
</g>
<!-- public.account_profile -->
<g id="node4" class="node">
<title>public.account_profile</title>
<polygon fill="#efefef" stroke="transparent" points="853.5,-372.5 853.5,-407.5 1168.5,-407.5 1168.5,-372.5 853.5,-372.5"/>
<polygon fill="none" stroke="#000000" points="853.5,-372.5 853.5,-407.5 1168.5,-407.5 1168.5,-372.5 853.5,-372.5"/>
<text text-anchor="start" x="860.1941" y="-385.3" font-family="Arial Bold" font-size="18.00" fill="#000000">public.account_profile</text>
<text text-anchor="start" x="1034.2379" y="-385.3" font-family="Arial" font-size="14.00" fill="#000000">    </text>
<text text-anchor="start" x="1068.4427" y="-385.3" font-family="Arial" font-size="14.00" fill="#666666">[BASE TABLE]</text>
<polygon fill="none" stroke="#000000" points="853.5,-342.5 853.5,-372.5 1168.5,-372.5 1168.5,-342.5 853.5,-342.5"/>
<text text-anchor="start" x="860.5" y="-353.9" font-family="Arial" font-size="14.00" fill="#000000">account_profile_id    </text>
<text text-anchor="start" x="1008.2924" y="-353.9" font-family="Arial" font-size="14.00" fill="#666666">[bigint]</text>
<polygon fill="none" stroke="#000000" points="853.5,-312.5 853.5,-342.5 1168.5,-342.5 1168.5,-312.5 853.5,-312.5"/>
<text text-anchor="start" x="860.5" y="-323.9" font-family="Arial" font-size="14.00" fill="#000000">account_id    </text>
<text text-anchor="start" x="962.3976" y="-323.9" font-family="Arial" font-size="14.00" fill="#666666">[bigint]</text>
<polygon fill="none" stroke="#000000" points="853.5,-282.5 853.5,-312.5 1168.5,-312.5 1168.5,-282.5 853.5,-282.5"/>
<text text-anchor="start" x="860.5" y="-293.9" font-family="Arial" font-size="14.00" fill="#000000">token    </text>
<text text-anchor="start" x="928.9432" y="-293.9" font-family="Arial" font-size="14.00" fill="#666666">[varchar(255)]</text>
<polygon fill="none" stroke="#000000" points="853.5,-252.5 853.5,-282.5 1168.5,-282.5 1168.5,-252.5 853.5,-252.5"/>
<text text-anchor="start" x="860.5" y="-263.9" font-family="Arial" font-size="14.00" fill="#000000">name    </text>
<text text-anchor="start" x="929.7132" y="-263.9" font-family="Arial" font-size="14.00" fill="#666666">[varchar(255)]</text>
<polygon fill="none" stroke="#000000" points="853.5,-222.5 853.5,-252.5 1168.5,-252.5 1168.5,-222.5 853.5,-222.5"/>
<text text-anchor="start" x="860.5" y="-233.9" font-family="Arial" font-size="14.00" fill="#000000">affiliation    </text>
<text text-anchor="start" x="949.9334" y="-233.9" font-family="Arial" font-size="14.00" fill="#666666">[varchar(255)]</text>
<polygon fill="none" stroke="#000000" points="853.5,-192.5 853.5,-222.5 1168.5,-222.5 1168.5,-192.5 853.5,-192.5"/>
<text text-anchor="start" x="860.5" y="-203.9" font-family="Arial" font-size="14.00" fill="#000000">bio    </text>
<text text-anchor="start" x="913.3766" y="-203.9" font-family="Arial" font-size="14.00" fill="#666666">[text]</text>
<polygon fill="none" stroke="#000000" points="853.5,-162.5 853.5,-192.5 1168.5,-192.5 1168.5,-162.5 853.5,-162.5"/>
<text text-anchor="start" x="860.5" y="-173.9" font-family="Arial" font-size="14.00" fill="#000000">email    </text>
<text text-anchor="start" x="928.1438" y="-173.9" font-family="Arial" font-size="14.00" fill="#666666">[varchar(255)]</text>
<polygon fill="none" stroke="#000000" points="853.5,-132.5 853.5,-162.5 1168.5,-162.5 1168.5,-132.5 853.5,-132.5"/>
<text text-anchor="start" x="860.5" y="-143.9" font-family="Arial" font-size="14.00" fill="#000000">birthdate    </text>
<text text-anchor="start" x="949.1662" y="-143.9" font-family="Arial" font-size="14.00" fill="#666666">[timestamp without time zone]</text>
<polygon fill="none" stroke="#000000" points="853.5,-102.5 853.5,-132.5 1168.5,-132.5 1168.5,-102.5 853.5,-102.5"/>
<text text-anchor="start" x="860.5" y="-113.9" font-family="Arial" font-size="14.00" fill="#000000">gender    </text>
<text text-anchor="start" x="938.2784" y="-113.9" font-family="Arial" font-size="14.00" fill="#666666">[integer]</text>
<polygon fill="none" stroke="#000000" points="853.5,-72.5 853.5,-102.5 1168.5,-102.5 1168.5,-72.5 853.5,-72.5"/>
<text text-anchor="start" x="860.5" y="-83.9" font-family="Arial" font-size="14.00" fill="#000000">created_at    </text>
<text text-anchor="start" x="960.8422" y="-83.9" font-family="Arial" font-size="14.00" fill="#666666">[timestamp without time zone]</text>
<polygon fill="none" stroke="#000000" points="853.5,-42.5 853.5,-72.5 1168.5,-72.5 1168.5,-42.5 853.5,-42.5"/>
<text text-anchor="start" x="860.5" y="-53.9" font-family="Arial" font-size="14.00" fill="#000000">updated_at    </text>
<text text-anchor="start" x="964.7468" y="-53.9" font-family="Arial" font-size="14.00" fill="#666666">[timestamp without time zone]</text>
</g>
<!-- public.group_member&#45;&gt;public.account_profile -->
<g id="edge3" class="edge">
<title>public.group_member:account_profile_id&#45;&gt;public.account_profile:account_profile_id</title>
<path fill="none" stroke="#000000" d="M767.6717,-576.7465C856.4204,-562.718 750.4649,-357.5 853.5,-357.5"/>
<polygon fill="#000000" stroke="#000000" points="767.4727,-576.7612 757.1675,-573.0123 762.4863,-577.1306 757.5,-577.5 757.5,-577.5 757.5,-577.5 762.4863,-577.1306 757.8325,-581.9877 767.4727,-576.7612 767.4727,-576.7612"/>
</g>
</g>
</svg>
