<?xml version="1.0" encoding="UTF-8" standalone="no"?>
<!DOCTYPE svg PUBLIC "-//W3C//DTD SVG 1.1//EN"
 "http://www.w3.org/Graphics/SVG/1.1/DTD/svg11.dtd">
<!-- Generated by graphviz version 2.40.1 (20161225.0304)
 -->
<!-- Title: public.account_profile Pages: 1 -->
<svg width="1361pt" height="1319pt"
 viewBox="0.00 0.00 1361.00 1319.00" xmlns="http://www.w3.org/2000/svg" xmlns:xlink="http://www.w3.org/1999/xlink">
<g id="graph0" class="graph" transform="scale(1 1) rotate(0) translate(4 1315)">
<title>public.account_profile</title>
<polygon fill="#ffffff" stroke="transparent" points="-4,4 -4,-1315 1357,-1315 1357,4 -4,4"/>
<!-- public.account_profile -->
<g id="node1" class="node">
<title>public.account_profile</title>
<polygon fill="#efefef" stroke="transparent" points="492.5,-862.5 492.5,-897.5 807.5,-897.5 807.5,-862.5 492.5,-862.5"/>
<polygon fill="none" stroke="#000000" points="492.5,-862.5 492.5,-897.5 807.5,-897.5 807.5,-862.5 492.5,-862.5"/>
<text text-anchor="start" x="499.1941" y="-875.3" font-family="Arial Bold" font-size="18.00" fill="#000000">public.account_profile</text>
<text text-anchor="start" x="673.2379" y="-875.3" font-family="Arial" font-size="14.00" fill="#000000">    </text>
<text text-anchor="start" x="707.4427" y="-875.3" font-family="Arial" font-size="14.00" fill="#666666">[BASE TABLE]</text>
<polygon fill="none" stroke="#000000" points="492.5,-832.5 492.5,-862.5 807.5,-862.5 807.5,-832.5 492.5,-832.5"/>
<text text-anchor="start" x="499.5" y="-843.9" font-family="Arial" font-size="14.00" fill="#000000">account_profile_id </text>
<text text-anchor="start" x="616.9782" y="-843.9" font-family="Arial" font-size="14.00" fill="#666666">[bigint]</text>
<polygon fill="none" stroke="#000000" points="492.5,-802.5 492.5,-832.5 807.5,-832.5 807.5,-802.5 492.5,-802.5"/>
<text text-anchor="start" x="499.5" y="-813.9" font-family="Arial" font-size="14.00" fill="#000000">token </text>
<text text-anchor="start" x="537.629" y="-813.9" font-family="Arial" font-size="14.00" fill="#666666">[varchar(255)]</text>
<polygon fill="none" stroke="#000000" points="492.5,-772.5 492.5,-802.5 807.5,-802.5 807.5,-772.5 492.5,-772.5"/>
<text text-anchor="start" x="499.5" y="-783.9" font-family="Arial" font-size="14.00" fill="#000000">account_id </text>
<text text-anchor="start" x="571.0834" y="-783.9" font-family="Arial" font-size="14.00" fill="#666666">[bigint]</text>
<polygon fill="none" stroke="#000000" points="492.5,-742.5 492.5,-772.5 807.5,-772.5 807.5,-742.5 492.5,-742.5"/>
<text text-anchor="start" x="499.5" y="-753.9" font-family="Arial" font-size="14.00" fill="#000000">name </text>
<text text-anchor="start" x="538.399" y="-753.9" font-family="Arial" font-size="14.00" fill="#666666">[varchar(255)]</text>
<polygon fill="none" stroke="#000000" points="492.5,-712.5 492.5,-742.5 807.5,-742.5 807.5,-712.5 492.5,-712.5"/>
<text text-anchor="start" x="499.5" y="-723.9" font-family="Arial" font-size="14.00" fill="#000000">affiliation </text>
<text text-anchor="start" x="558.6192" y="-723.9" font-family="Arial" font-size="14.00" fill="#666666">[varchar(255)]</text>
<polygon fill="none" stroke="#000000" points="492.5,-682.5 492.5,-712.5 807.5,-712.5 807.5,-682.5 492.5,-682.5"/>
<text text-anchor="start" x="499.5" y="-693.9" font-family="Arial" font-size="14.00" fill="#000000">location </text>
<text text-anchor="start" x="551.6248" y="-693.9" font-family="Arial" font-size="14.00" fill="#666666">[varchar(255)]</text>
<polygon fill="none" stroke="#000000" points="492.5,-652.5 492.5,-682.5 807.5,-682.5 807.5,-652.5 492.5,-652.5"/>
<text text-anchor="start" x="499.5" y="-663.9" font-family="Arial" font-size="14.00" fill="#000000">bio </text>
<text text-anchor="start" x="522.0624" y="-663.9" font-family="Arial" font-size="14.00" fill="#666666">[text]</text>
<polygon fill="none" stroke="#000000" points="492.5,-622.5 492.5,-652.5 807.5,-652.5 807.5,-622.5 492.5,-622.5"/>
<text text-anchor="start" x="499.5" y="-633.9" font-family="Arial" font-size="14.00" fill="#000000">email </text>
<text text-anchor="start" x="536.8296" y="-633.9" font-family="Arial" font-size="14.00" fill="#666666">[varchar(255)]</text>
<polygon fill="none" stroke="#000000" points="492.5,-592.5 492.5,-622.5 807.5,-622.5 807.5,-592.5 492.5,-592.5"/>
<text text-anchor="start" x="499.5" y="-603.9" font-family="Arial" font-size="14.00" fill="#000000">telno </text>
<text text-anchor="start" x="533.7356" y="-603.9" font-family="Arial" font-size="14.00" fill="#666666">[varchar(255)]</text>
<polygon fill="none" stroke="#000000" points="492.5,-562.5 492.5,-592.5 807.5,-592.5 807.5,-562.5 492.5,-562.5"/>
<text text-anchor="start" x="499.5" y="-573.9" font-family="Arial" font-size="14.00" fill="#000000">birthdate </text>
<text text-anchor="start" x="557.852" y="-573.9" font-family="Arial" font-size="14.00" fill="#666666">[timestamp without time zone]</text>
<polygon fill="none" stroke="#000000" points="492.5,-532.5 492.5,-562.5 807.5,-562.5 807.5,-532.5 492.5,-532.5"/>
<text text-anchor="start" x="499.5" y="-543.9" font-family="Arial" font-size="14.00" fill="#000000">gender </text>
<text text-anchor="start" x="546.9642" y="-543.9" font-family="Arial" font-size="14.00" fill="#666666">[integer]</text>
<polygon fill="none" stroke="#000000" points="492.5,-502.5 492.5,-532.5 807.5,-532.5 807.5,-502.5 492.5,-502.5"/>
<text text-anchor="start" x="499.5" y="-513.9" font-family="Arial" font-size="14.00" fill="#000000">created_at </text>
<text text-anchor="start" x="569.528" y="-513.9" font-family="Arial" font-size="14.00" fill="#666666">[timestamp without time zone]</text>
<polygon fill="none" stroke="#000000" points="492.5,-472.5 492.5,-502.5 807.5,-502.5 807.5,-472.5 492.5,-472.5"/>
<text text-anchor="start" x="499.5" y="-483.9" font-family="Arial" font-size="14.00" fill="#000000">updated_at </text>
<text text-anchor="start" x="573.4326" y="-483.9" font-family="Arial" font-size="14.00" fill="#666666">[timestamp without time zone]</text>
<polygon fill="none" stroke="#000000" stroke-width="3" points="490.5,-471.5 490.5,-899.5 808.5,-899.5 808.5,-471.5 490.5,-471.5"/>
</g>
<!-- public.account -->
<g id="node5" class="node">
<title>public.account</title>
<polygon fill="#efefef" stroke="transparent" points="494.5,-312.5 494.5,-347.5 805.5,-347.5 805.5,-312.5 494.5,-312.5"/>
<polygon fill="none" stroke="#000000" points="494.5,-312.5 494.5,-347.5 805.5,-347.5 805.5,-312.5 494.5,-312.5"/>
<text text-anchor="start" x="528.6979" y="-325.3" font-family="Arial Bold" font-size="18.00" fill="#000000">public.account</text>
<text text-anchor="start" x="643.7341" y="-325.3" font-family="Arial" font-size="14.00" fill="#000000">    </text>
<text text-anchor="start" x="677.9389" y="-325.3" font-family="Arial" font-size="14.00" fill="#666666">[BASE TABLE]</text>
<polygon fill="none" stroke="#000000" points="494.5,-282.5 494.5,-312.5 805.5,-312.5 805.5,-282.5 494.5,-282.5"/>
<text text-anchor="start" x="501.5" y="-293.9" font-family="Arial" font-size="14.00" fill="#000000">account_id    </text>
<text text-anchor="start" x="603.3976" y="-293.9" font-family="Arial" font-size="14.00" fill="#666666">[bigint]</text>
<polygon fill="none" stroke="#000000" points="494.5,-252.5 494.5,-282.5 805.5,-282.5 805.5,-252.5 494.5,-252.5"/>
<text text-anchor="start" x="501.5" y="-263.9" font-family="Arial" font-size="14.00" fill="#000000">account_name    </text>
<text text-anchor="start" x="627.5168" y="-263.9" font-family="Arial" font-size="14.00" fill="#666666">[varchar(255)]</text>
<polygon fill="none" stroke="#000000" points="494.5,-222.5 494.5,-252.5 805.5,-252.5 805.5,-222.5 494.5,-222.5"/>
<text text-anchor="start" x="501.5" y="-233.9" font-family="Arial" font-size="14.00" fill="#000000">email    </text>
<text text-anchor="start" x="569.1438" y="-233.9" font-family="Arial" font-size="14.00" fill="#666666">[varchar(255)]</text>
<polygon fill="none" stroke="#000000" points="494.5,-192.5 494.5,-222.5 805.5,-222.5 805.5,-192.5 494.5,-192.5"/>
<text text-anchor="start" x="501.5" y="-203.9" font-family="Arial" font-size="14.00" fill="#000000">public_user_id    </text>
<text text-anchor="start" x="625.946" y="-203.9" font-family="Arial" font-size="14.00" fill="#666666">[varchar(255)]</text>
<polygon fill="none" stroke="#000000" points="494.5,-162.5 494.5,-192.5 805.5,-192.5 805.5,-162.5 494.5,-162.5"/>
<text text-anchor="start" x="501.5" y="-173.9" font-family="Arial" font-size="14.00" fill="#000000">default_account_profile_id    </text>
<text text-anchor="start" x="699.0932" y="-173.9" font-family="Arial" font-size="14.00" fill="#666666">[bigint]</text>
<polygon fill="none" stroke="#000000" points="494.5,-132.5 494.5,-162.5 805.5,-162.5 805.5,-132.5 494.5,-132.5"/>
<text text-anchor="start" x="501.5" y="-143.9" font-family="Arial" font-size="14.00" fill="#000000">default_workspace_id    </text>
<text text-anchor="start" x="671.075" y="-143.9" font-family="Arial" font-size="14.00" fill="#666666">[bigint]</text>
<polygon fill="none" stroke="#000000" points="494.5,-102.5 494.5,-132.5 805.5,-132.5 805.5,-102.5 494.5,-102.5"/>
<text text-anchor="start" x="501.5" y="-113.9" font-family="Arial" font-size="14.00" fill="#000000">created_at    </text>
<text text-anchor="start" x="601.8422" y="-113.9" font-family="Arial" font-size="14.00" fill="#666666">[timestamp without time zone]</text>
<polygon fill="none" stroke="#000000" points="494.5,-72.5 494.5,-102.5 805.5,-102.5 805.5,-72.5 494.5,-72.5"/>
<text text-anchor="start" x="501.0379" y="-83.9" font-family="Arial" font-size="14.00" fill="#000000">last_login_at    </text>
<text text-anchor="start" x="613.8219" y="-83.9" font-family="Arial" font-size="14.00" fill="#666666">[timestamp without time zone]</text>
<polygon fill="none" stroke="#000000" points="494.5,-42.5 494.5,-72.5 805.5,-72.5 805.5,-42.5 494.5,-42.5"/>
<text text-anchor="start" x="501.5" y="-53.9" font-family="Arial" font-size="14.00" fill="#000000">is_public    </text>
<text text-anchor="start" x="590.155" y="-53.9" font-family="Arial" font-size="14.00" fill="#666666">[boolean]</text>
</g>
<!-- public.account_profile&#45;&gt;public.account -->
<g id="edge4" class="edge">
<title>public.account_profile:account_id&#45;&gt;public.account:account_id</title>
<path fill="none" stroke="#000000" d="M482.4525,-787.1449C274.8356,-772.3071 280.1232,-297.5 494.5,-297.5"/>
<polygon fill="#000000" stroke="#000000" points="482.5062,-787.1467 492.341,-791.9972 487.5031,-787.3233 492.5,-787.5 492.5,-787.5 492.5,-787.5 487.5031,-787.3233 492.659,-783.0028 482.5062,-787.1467 482.5062,-787.1467"/>
</g>
<!-- public.group_member -->
<g id="node2" class="node">
<title>public.group_member</title>
<polygon fill="#efefef" stroke="transparent" points="43.5,-1202.5 43.5,-1237.5 358.5,-1237.5 358.5,-1202.5 43.5,-1202.5"/>
<polygon fill="none" stroke="#000000" points="43.5,-1202.5 43.5,-1237.5 358.5,-1237.5 358.5,-1202.5 43.5,-1202.5"/>
<text text-anchor="start" x="50.2022" y="-1215.3" font-family="Arial Bold" font-size="18.00" fill="#000000">public.group_member</text>
<text text-anchor="start" x="224.2298" y="-1215.3" font-family="Arial" font-size="14.00" fill="#000000">    </text>
<text text-anchor="start" x="258.4346" y="-1215.3" font-family="Arial" font-size="14.00" fill="#666666">[BASE TABLE]</text>
<polygon fill="none" stroke="#000000" points="43.5,-1172.5 43.5,-1202.5 358.5,-1202.5 358.5,-1172.5 43.5,-1172.5"/>
<text text-anchor="start" x="50.5" y="-1183.9" font-family="Arial" font-size="14.00" fill="#000000">group_member_id    </text>
<text text-anchor="start" x="198.2798" y="-1183.9" font-family="Arial" font-size="14.00" fill="#666666">[bigint]</text>
<polygon fill="none" stroke="#000000" points="43.5,-1142.5 43.5,-1172.5 358.5,-1172.5 358.5,-1142.5 43.5,-1142.5"/>
<text text-anchor="start" x="50.5" y="-1153.9" font-family="Arial" font-size="14.00" fill="#000000">group_id    </text>
<text text-anchor="start" x="139.1676" y="-1153.9" font-family="Arial" font-size="14.00" fill="#666666">[bigint]</text>
<polygon fill="none" stroke="#000000" points="43.5,-1112.5 43.5,-1142.5 358.5,-1142.5 358.5,-1112.5 43.5,-1112.5"/>
<text text-anchor="start" x="50.5" y="-1123.9" font-family="Arial" font-size="14.00" fill="#000000">account_id    </text>
<text text-anchor="start" x="152.3976" y="-1123.9" font-family="Arial" font-size="14.00" fill="#666666">[bigint]</text>
<polygon fill="none" stroke="#000000" points="43.5,-1082.5 43.5,-1112.5 358.5,-1112.5 358.5,-1082.5 43.5,-1082.5"/>
<text text-anchor="start" x="50.5" y="-1093.9" font-family="Arial" font-size="14.00" fill="#000000">account_profile_id    </text>
<text text-anchor="start" x="198.2924" y="-1093.9" font-family="Arial" font-size="14.00" fill="#666666">[bigint]</text>
<polygon fill="none" stroke="#000000" points="43.5,-1052.5 43.5,-1082.5 358.5,-1082.5 358.5,-1052.5 43.5,-1052.5"/>
<text text-anchor="start" x="50.5" y="-1063.9" font-family="Arial" font-size="14.00" fill="#000000">role    </text>
<text text-anchor="start" x="108.0372" y="-1063.9" font-family="Arial" font-size="14.00" fill="#666666">[integer]</text>
</g>
<!-- public.group_member&#45;&gt;public.account_profile -->
<g id="edge1" class="edge">
<title>public.group_member:account_profile_id&#45;&gt;public.account_profile:account_profile_id</title>
<path fill="none" stroke="#000000" d="M368.7024,-1096.6365C411.3798,-1088.6589 384.7423,-1027.0303 409.5,-980 441.8692,-918.5108 423.0112,-847.5 492.5,-847.5"/>
<polygon fill="#000000" stroke="#000000" points="368.4644,-1096.6566 358.1205,-1093.016 363.4822,-1097.0783 358.5,-1097.5 358.5,-1097.5 358.5,-1097.5 363.4822,-1097.0783 358.8795,-1101.984 368.4644,-1096.6566 368.4644,-1096.6566"/>
</g>
<!-- public.account_profile_avatar -->
<g id="node3" class="node">
<title>public.account_profile_avatar</title>
<polygon fill="#efefef" stroke="transparent" points="462.5,-1232.5 462.5,-1267.5 837.5,-1267.5 837.5,-1232.5 462.5,-1232.5"/>
<polygon fill="none" stroke="#000000" points="462.5,-1232.5 462.5,-1267.5 837.5,-1267.5 837.5,-1232.5 462.5,-1232.5"/>
<text text-anchor="start" x="469.1845" y="-1245.3" font-family="Arial Bold" font-size="18.00" fill="#000000">public.account_profile_avatar</text>
<text text-anchor="start" x="703.2475" y="-1245.3" font-family="Arial" font-size="14.00" fill="#000000">    </text>
<text text-anchor="start" x="737.4523" y="-1245.3" font-family="Arial" font-size="14.00" fill="#666666">[BASE TABLE]</text>
<polygon fill="none" stroke="#000000" points="462.5,-1202.5 462.5,-1232.5 837.5,-1232.5 837.5,-1202.5 462.5,-1202.5"/>
<text text-anchor="start" x="469.5" y="-1213.9" font-family="Arial" font-size="14.00" fill="#000000">account_profile_avatar_id    </text>
<text text-anchor="start" x="663.974" y="-1213.9" font-family="Arial" font-size="14.00" fill="#666666">[bigint]</text>
<polygon fill="none" stroke="#000000" points="462.5,-1172.5 462.5,-1202.5 837.5,-1202.5 837.5,-1172.5 462.5,-1172.5"/>
<text text-anchor="start" x="469.5" y="-1183.9" font-family="Arial" font-size="14.00" fill="#000000">account_profile_id    </text>
<text text-anchor="start" x="617.2924" y="-1183.9" font-family="Arial" font-size="14.00" fill="#666666">[bigint]</text>
<polygon fill="none" stroke="#000000" points="462.5,-1142.5 462.5,-1172.5 837.5,-1172.5 837.5,-1142.5 462.5,-1142.5"/>
<text text-anchor="start" x="469.5" y="-1153.9" font-family="Arial" font-size="14.00" fill="#000000">file_key    </text>
<text text-anchor="start" x="551.1564" y="-1153.9" font-family="Arial" font-size="14.00" fill="#666666">[varchar(255)]</text>
<polygon fill="none" stroke="#000000" points="462.5,-1112.5 462.5,-1142.5 837.5,-1142.5 837.5,-1112.5 462.5,-1112.5"/>
<text text-anchor="start" x="469.5" y="-1123.9" font-family="Arial" font-size="14.00" fill="#000000">file_name    </text>
<text text-anchor="start" x="564.3822" y="-1123.9" font-family="Arial" font-size="14.00" fill="#666666">[varchar(255)]</text>
<polygon fill="none" stroke="#000000" points="462.5,-1082.5 462.5,-1112.5 837.5,-1112.5 837.5,-1082.5 462.5,-1082.5"/>
<text text-anchor="start" x="469.5" y="-1093.9" font-family="Arial" font-size="14.00" fill="#000000">file_size    </text>
<text text-anchor="start" x="554.263" y="-1093.9" font-family="Arial" font-size="14.00" fill="#666666">[bigint]</text>
<polygon fill="none" stroke="#000000" points="462.5,-1052.5 462.5,-1082.5 837.5,-1082.5 837.5,-1052.5 462.5,-1052.5"/>
<text text-anchor="start" x="469.5" y="-1063.9" font-family="Arial" font-size="14.00" fill="#000000">content_type    </text>
<text text-anchor="start" x="583.8548" y="-1063.9" font-family="Arial" font-size="14.00" fill="#666666">[varchar(255)]</text>
<polygon fill="none" stroke="#000000" points="462.5,-1022.5 462.5,-1052.5 837.5,-1052.5 837.5,-1022.5 462.5,-1022.5"/>
<text text-anchor="start" x="469.5" y="-1033.9" font-family="Arial" font-size="14.00" fill="#000000">created_at    </text>
<text text-anchor="start" x="569.8422" y="-1033.9" font-family="Arial" font-size="14.00" fill="#666666">[timestamp without time zone]</text>
</g>
<!-- public.account_profile_avatar&#45;&gt;public.account_profile -->
<g id="edge2" class="edge">
<title>public.account_profile_avatar:account_profile_id&#45;&gt;public.account_profile:account_profile_id</title>
<path fill="none" stroke="#000000" d="M452.5253,-1185.3288C389.5641,-1156.3721 420.2063,-847.5 492.5,-847.5"/>
<polygon fill="#000000" stroke="#000000" points="452.7288,-1185.373 461.5429,-1191.897 457.6144,-1186.4365 462.5,-1187.5 462.5,-1187.5 462.5,-1187.5 457.6144,-1186.4365 463.4571,-1183.103 452.7288,-1185.373 452.7288,-1185.373"/>
</g>
<!-- public.account_profile_cover -->
<g id="node4" class="node">
<title>public.account_profile_cover</title>
<polygon fill="#efefef" stroke="transparent" points="941.5,-1232.5 941.5,-1267.5 1310.5,-1267.5 1310.5,-1232.5 941.5,-1232.5"/>
<polygon fill="none" stroke="#000000" points="941.5,-1232.5 941.5,-1267.5 1310.5,-1267.5 1310.5,-1232.5 941.5,-1232.5"/>
<text text-anchor="start" x="948.1887" y="-1245.3" font-family="Arial Bold" font-size="18.00" fill="#000000">public.account_profile_cover</text>
<text text-anchor="start" x="1176.2433" y="-1245.3" font-family="Arial" font-size="14.00" fill="#000000">    </text>
<text text-anchor="start" x="1210.4481" y="-1245.3" font-family="Arial" font-size="14.00" fill="#666666">[BASE TABLE]</text>
<polygon fill="none" stroke="#000000" points="941.5,-1202.5 941.5,-1232.5 1310.5,-1232.5 1310.5,-1202.5 941.5,-1202.5"/>
<text text-anchor="start" x="948.5" y="-1213.9" font-family="Arial" font-size="14.00" fill="#000000">account_profile_cover_id    </text>
<text text-anchor="start" x="1138.3008" y="-1213.9" font-family="Arial" font-size="14.00" fill="#666666">[bigint]</text>
<polygon fill="none" stroke="#000000" points="941.5,-1172.5 941.5,-1202.5 1310.5,-1202.5 1310.5,-1172.5 941.5,-1172.5"/>
<text text-anchor="start" x="948.5" y="-1183.9" font-family="Arial" font-size="14.00" fill="#000000">account_profile_id    </text>
<text text-anchor="start" x="1096.2924" y="-1183.9" font-family="Arial" font-size="14.00" fill="#666666">[bigint]</text>
<polygon fill="none" stroke="#000000" points="941.5,-1142.5 941.5,-1172.5 1310.5,-1172.5 1310.5,-1142.5 941.5,-1142.5"/>
<text text-anchor="start" x="948.5" y="-1153.9" font-family="Arial" font-size="14.00" fill="#000000">file_key    </text>
<text text-anchor="start" x="1030.1564" y="-1153.9" font-family="Arial" font-size="14.00" fill="#666666">[varchar(255)]</text>
<polygon fill="none" stroke="#000000" points="941.5,-1112.5 941.5,-1142.5 1310.5,-1142.5 1310.5,-1112.5 941.5,-1112.5"/>
<text text-anchor="start" x="948.5" y="-1123.9" font-family="Arial" font-size="14.00" fill="#000000">file_name    </text>
<text text-anchor="start" x="1043.3822" y="-1123.9" font-family="Arial" font-size="14.00" fill="#666666">[varchar(255)]</text>
<polygon fill="none" stroke="#000000" points="941.5,-1082.5 941.5,-1112.5 1310.5,-1112.5 1310.5,-1082.5 941.5,-1082.5"/>
<text text-anchor="start" x="948.5" y="-1093.9" font-family="Arial" font-size="14.00" fill="#000000">file_size    </text>
<text text-anchor="start" x="1033.263" y="-1093.9" font-family="Arial" font-size="14.00" fill="#666666">[bigint]</text>
<polygon fill="none" stroke="#000000" points="941.5,-1052.5 941.5,-1082.5 1310.5,-1082.5 1310.5,-1052.5 941.5,-1052.5"/>
<text text-anchor="start" x="948.5" y="-1063.9" font-family="Arial" font-size="14.00" fill="#000000">content_type    </text>
<text text-anchor="start" x="1062.8548" y="-1063.9" font-family="Arial" font-size="14.00" fill="#666666">[varchar(255)]</text>
<polygon fill="none" stroke="#000000" points="941.5,-1022.5 941.5,-1052.5 1310.5,-1052.5 1310.5,-1022.5 941.5,-1022.5"/>
<text text-anchor="start" x="948.5" y="-1033.9" font-family="Arial" font-size="14.00" fill="#000000">created_at    </text>
<text text-anchor="start" x="1048.8422" y="-1033.9" font-family="Arial" font-size="14.00" fill="#666666">[timestamp without time zone]</text>
</g>
<!-- public.account_profile_cover&#45;&gt;public.account_profile -->
<g id="edge3" class="edge">
<title>public.account_profile_cover:account_profile_id&#45;&gt;public.account_profile:account_profile_id</title>
<path fill="none" stroke="#000000" d="M931.1429,-1186.9601C852.504,-1178.1802 925.0657,-1064.1532 889.5,-980 862.5401,-916.2092 876.7539,-847.5 807.5,-847.5"/>
<polygon fill="#000000" stroke="#000000" points="931.5136,-1186.9793 941.2657,-1191.9939 936.5068,-1187.2397 941.5,-1187.5 941.5,-1187.5 941.5,-1187.5 936.5068,-1187.2397 941.7343,-1183.0061 931.5136,-1186.9793 931.5136,-1186.9793"/>
</g>
</g>
</svg>
