<?xml version="1.0" encoding="UTF-8" standalone="no"?>
<!DOCTYPE svg PUBLIC "-//W3C//DTD SVG 1.1//EN"
 "http://www.w3.org/Graphics/SVG/1.1/DTD/svg11.dtd">
<!-- Generated by graphviz version 2.40.1 (20161225.0304)
 -->
<!-- Title: public.group_cover Pages: 1 -->
<svg width="408pt" height="862pt"
 viewBox="0.00 0.00 407.85 862.00" xmlns="http://www.w3.org/2000/svg" xmlns:xlink="http://www.w3.org/1999/xlink">
<g id="graph0" class="graph" transform="scale(1 1) rotate(0) translate(4 858)">
<title>public.group_cover</title>
<polygon fill="#ffffff" stroke="transparent" points="-4,4 -4,-858 403.8487,-858 403.8487,4 -4,4"/>
<!-- public.group_cover -->
<g id="node1" class="node">
<title>public.group_cover</title>
<polygon fill="#efefef" stroke="transparent" points="59.3487,-772.5 59.3487,-807.5 352.3487,-807.5 352.3487,-772.5 59.3487,-772.5"/>
<polygon fill="none" stroke="#000000" points="59.3487,-772.5 59.3487,-807.5 352.3487,-807.5 352.3487,-772.5 59.3487,-772.5"/>
<text text-anchor="start" x="66.0462" y="-785.3" font-family="Arial Bold" font-size="18.00" fill="#000000">public.group_cover</text>
<text text-anchor="start" x="218.0832" y="-785.3" font-family="Arial" font-size="14.00" fill="#000000">    </text>
<text text-anchor="start" x="252.288" y="-785.3" font-family="Arial" font-size="14.00" fill="#666666">[BASE TABLE]</text>
<polygon fill="none" stroke="#000000" points="59.3487,-742.5 59.3487,-772.5 352.3487,-772.5 352.3487,-742.5 59.3487,-742.5"/>
<text text-anchor="start" x="66.3487" y="-753.9" font-family="Arial" font-size="14.00" fill="#000000">group_cover_id </text>
<text text-anchor="start" x="166.7105" y="-753.9" font-family="Arial" font-size="14.00" fill="#666666">[bigint]</text>
<polygon fill="none" stroke="#000000" points="59.3487,-712.5 59.3487,-742.5 352.3487,-742.5 352.3487,-712.5 59.3487,-712.5"/>
<text text-anchor="start" x="66.3487" y="-723.9" font-family="Arial" font-size="14.00" fill="#000000">group_id </text>
<text text-anchor="start" x="124.7021" y="-723.9" font-family="Arial" font-size="14.00" fill="#666666">[bigint]</text>
<polygon fill="none" stroke="#000000" points="59.3487,-682.5 59.3487,-712.5 352.3487,-712.5 352.3487,-682.5 59.3487,-682.5"/>
<text text-anchor="start" x="66.3487" y="-693.9" font-family="Arial" font-size="14.00" fill="#000000">file_key </text>
<text text-anchor="start" x="117.6909" y="-693.9" font-family="Arial" font-size="14.00" fill="#666666">[varchar(255)]</text>
<polygon fill="none" stroke="#000000" points="59.3487,-652.5 59.3487,-682.5 352.3487,-682.5 352.3487,-652.5 59.3487,-652.5"/>
<text text-anchor="start" x="66.3487" y="-663.9" font-family="Arial" font-size="14.00" fill="#000000">file_name </text>
<text text-anchor="start" x="130.9167" y="-663.9" font-family="Arial" font-size="14.00" fill="#666666">[varchar(255)]</text>
<polygon fill="none" stroke="#000000" points="59.3487,-622.5 59.3487,-652.5 352.3487,-652.5 352.3487,-622.5 59.3487,-622.5"/>
<text text-anchor="start" x="66.3487" y="-633.9" font-family="Arial" font-size="14.00" fill="#000000">file_size </text>
<text text-anchor="start" x="120.7975" y="-633.9" font-family="Arial" font-size="14.00" fill="#666666">[bigint]</text>
<polygon fill="none" stroke="#000000" points="59.3487,-592.5 59.3487,-622.5 352.3487,-622.5 352.3487,-592.5 59.3487,-592.5"/>
<text text-anchor="start" x="66.3487" y="-603.9" font-family="Arial" font-size="14.00" fill="#000000">content_type </text>
<text text-anchor="start" x="150.3893" y="-603.9" font-family="Arial" font-size="14.00" fill="#666666">[varchar(255)]</text>
<polygon fill="none" stroke="#000000" points="59.3487,-562.5 59.3487,-592.5 352.3487,-592.5 352.3487,-562.5 59.3487,-562.5"/>
<text text-anchor="start" x="66.3487" y="-573.9" font-family="Arial" font-size="14.00" fill="#000000">created_at </text>
<text text-anchor="start" x="136.3767" y="-573.9" font-family="Arial" font-size="14.00" fill="#666666">[timestamp without time zone]</text>
<polygon fill="none" stroke="#000000" stroke-width="3" points="57.3487,-561.5 57.3487,-809.5 353.3487,-809.5 353.3487,-561.5 57.3487,-561.5"/>
</g>
<!-- public.group -->
<g id="node2" class="node">
<title>public.group</title>
<polygon fill="#efefef" stroke="transparent" points="54.3487,-402.5 54.3487,-437.5 357.3487,-437.5 357.3487,-402.5 54.3487,-402.5"/>
<polygon fill="none" stroke="#000000" points="54.3487,-402.5 54.3487,-437.5 357.3487,-437.5 357.3487,-402.5 54.3487,-402.5"/>
<text text-anchor="start" x="93.0516" y="-415.3" font-family="Arial Bold" font-size="18.00" fill="#000000">public.group</text>
<text text-anchor="start" x="191.0778" y="-415.3" font-family="Arial" font-size="14.00" fill="#000000">    </text>
<text text-anchor="start" x="225.2826" y="-415.3" font-family="Arial" font-size="14.00" fill="#666666">[BASE TABLE]</text>
<polygon fill="none" stroke="#000000" points="54.3487,-372.5 54.3487,-402.5 357.3487,-402.5 357.3487,-372.5 54.3487,-372.5"/>
<text text-anchor="start" x="61.3487" y="-383.9" font-family="Arial" font-size="14.00" fill="#000000">group_id    </text>
<text text-anchor="start" x="150.0163" y="-383.9" font-family="Arial" font-size="14.00" fill="#666666">[bigint]</text>
<polygon fill="none" stroke="#000000" points="54.3487,-342.5 54.3487,-372.5 357.3487,-372.5 357.3487,-342.5 54.3487,-342.5"/>
<text text-anchor="start" x="61.3487" y="-353.9" font-family="Arial" font-size="14.00" fill="#000000">group_name    </text>
<text text-anchor="start" x="174.1355" y="-353.9" font-family="Arial" font-size="14.00" fill="#666666">[varchar(255)]</text>
<polygon fill="none" stroke="#000000" points="54.3487,-312.5 54.3487,-342.5 357.3487,-342.5 357.3487,-312.5 54.3487,-312.5"/>
<text text-anchor="start" x="61.3487" y="-323.9" font-family="Arial" font-size="14.00" fill="#000000">name    </text>
<text text-anchor="start" x="130.5619" y="-323.9" font-family="Arial" font-size="14.00" fill="#666666">[varchar(255)]</text>
<polygon fill="none" stroke="#000000" points="54.3487,-282.5 54.3487,-312.5 357.3487,-312.5 357.3487,-282.5 54.3487,-282.5"/>
<text text-anchor="start" x="61.3487" y="-293.9" font-family="Arial" font-size="14.00" fill="#000000">description    </text>
<text text-anchor="start" x="163.2309" y="-293.9" font-family="Arial" font-size="14.00" fill="#666666">[text]</text>
<polygon fill="none" stroke="#000000" points="54.3487,-252.5 54.3487,-282.5 357.3487,-282.5 357.3487,-252.5 54.3487,-252.5"/>
<text text-anchor="start" x="61.3487" y="-263.9" font-family="Arial" font-size="14.00" fill="#000000">representative    </text>
<text text-anchor="start" x="184.2407" y="-263.9" font-family="Arial" font-size="14.00" fill="#666666">[varchar(255)]</text>
<polygon fill="none" stroke="#000000" points="54.3487,-222.5 54.3487,-252.5 357.3487,-252.5 357.3487,-222.5 54.3487,-222.5"/>
<text text-anchor="start" x="61.3487" y="-233.9" font-family="Arial" font-size="14.00" fill="#000000">location    </text>
<text text-anchor="start" x="143.7877" y="-233.9" font-family="Arial" font-size="14.00" fill="#666666">[varchar(255)]</text>
<polygon fill="none" stroke="#000000" points="54.3487,-192.5 54.3487,-222.5 357.3487,-222.5 357.3487,-192.5 54.3487,-192.5"/>
<text text-anchor="start" x="61.3487" y="-203.9" font-family="Arial" font-size="14.00" fill="#000000">email    </text>
<text text-anchor="start" x="128.9925" y="-203.9" font-family="Arial" font-size="14.00" fill="#666666">[varchar(255)]</text>
<polygon fill="none" stroke="#000000" points="54.3487,-162.5 54.3487,-192.5 357.3487,-192.5 357.3487,-162.5 54.3487,-162.5"/>
<text text-anchor="start" x="61.3487" y="-173.9" font-family="Arial" font-size="14.00" fill="#000000">telno    </text>
<text text-anchor="start" x="125.8985" y="-173.9" font-family="Arial" font-size="14.00" fill="#666666">[varchar(255)]</text>
<polygon fill="none" stroke="#000000" points="54.3487,-132.5 54.3487,-162.5 357.3487,-162.5 357.3487,-132.5 54.3487,-132.5"/>
<text text-anchor="start" x="61.1552" y="-143.9" font-family="Arial" font-size="14.00" fill="#000000">founded_at    </text>
<text text-anchor="start" x="165.402" y="-143.9" font-family="Arial" font-size="14.00" fill="#666666">[timestamp without time zone]</text>
<polygon fill="none" stroke="#000000" points="54.3487,-102.5 54.3487,-132.5 357.3487,-132.5 357.3487,-102.5 54.3487,-102.5"/>
<text text-anchor="start" x="61.3487" y="-113.9" font-family="Arial" font-size="14.00" fill="#000000">created_at    </text>
<text text-anchor="start" x="161.6909" y="-113.9" font-family="Arial" font-size="14.00" fill="#666666">[timestamp without time zone]</text>
<polygon fill="none" stroke="#000000" points="54.3487,-72.5 54.3487,-102.5 357.3487,-102.5 357.3487,-72.5 54.3487,-72.5"/>
<text text-anchor="start" x="61.1552" y="-83.9" font-family="Arial" font-size="14.00" fill="#000000">updated_at    </text>
<text text-anchor="start" x="165.402" y="-83.9" font-family="Arial" font-size="14.00" fill="#666666">[timestamp without time zone]</text>
<polygon fill="none" stroke="#000000" points="54.3487,-42.5 54.3487,-72.5 357.3487,-72.5 357.3487,-42.5 54.3487,-42.5"/>
<text text-anchor="start" x="61.3487" y="-53.9" font-family="Arial" font-size="14.00" fill="#000000">is_public    </text>
<text text-anchor="start" x="150.0037" y="-53.9" font-family="Arial" font-size="14.00" fill="#666666">[boolean]</text>
</g>
<!-- public.group_cover&#45;&gt;public.group -->
<g id="edge1" class="edge">
<title>public.group_cover:group_id&#45;&gt;public.group:group_id</title>
<path fill="none" stroke="#000000" d="M49.1887,-725.3288C-16.5067,-696.3721 -17.6729,-387.5 54.3487,-387.5"/>
<polygon fill="#000000" stroke="#000000" points="49.5695,-725.4101 58.4083,-731.9006 54.4591,-726.4551 59.3487,-727.5 59.3487,-727.5 59.3487,-727.5 54.4591,-726.4551 60.2892,-723.0994 49.5695,-725.4101 49.5695,-725.4101"/>
</g>
</g>
</svg>
