<?xml version="1.0" encoding="UTF-8" standalone="no"?>
<!DOCTYPE svg PUBLIC "-//W3C//DTD SVG 1.1//EN"
 "http://www.w3.org/Graphics/SVG/1.1/DTD/svg11.dtd">
<!-- Generated by graphviz version 2.40.1 (20161225.0304)
 -->
<!-- Title: public.account Pages: 1 -->
<svg width="1285pt" height="742pt"
 viewBox="0.00 0.00 1284.50 742.00" xmlns="http://www.w3.org/2000/svg" xmlns:xlink="http://www.w3.org/1999/xlink">
<g id="graph0" class="graph" transform="scale(1 1) rotate(0) translate(4 738)">
<title>public.account</title>
<polygon fill="#ffffff" stroke="transparent" points="-4,4 -4,-738 1280.5,-738 1280.5,4 -4,4"/>
<!-- public.account -->
<g id="node1" class="node">
<title>public.account</title>
<polygon fill="#efefef" stroke="transparent" points="485.5,-165.5 485.5,-200.5 754.5,-200.5 754.5,-165.5 485.5,-165.5"/>
<polygon fill="none" stroke="#000000" points="485.5,-165.5 485.5,-200.5 754.5,-200.5 754.5,-165.5 485.5,-165.5"/>
<text text-anchor="start" x="498.6979" y="-178.3" font-family="Arial Bold" font-size="18.00" fill="#000000">public.account</text>
<text text-anchor="start" x="613.7341" y="-178.3" font-family="Arial" font-size="14.00" fill="#000000">    </text>
<text text-anchor="start" x="647.9389" y="-178.3" font-family="Arial" font-size="14.00" fill="#666666">[BASE TABLE]</text>
<polygon fill="none" stroke="#000000" points="485.5,-135.5 485.5,-165.5 754.5,-165.5 754.5,-135.5 485.5,-135.5"/>
<text text-anchor="start" x="492.5" y="-146.9" font-family="Arial" font-size="14.00" fill="#000000">account_id </text>
<text text-anchor="start" x="564.0834" y="-146.9" font-family="Arial" font-size="14.00" fill="#666666">[bigint]</text>
<polygon fill="none" stroke="#000000" points="485.5,-105.5 485.5,-135.5 754.5,-135.5 754.5,-105.5 485.5,-105.5"/>
<text text-anchor="start" x="492.5" y="-116.9" font-family="Arial" font-size="14.00" fill="#000000">account_name </text>
<text text-anchor="start" x="588.2026" y="-116.9" font-family="Arial" font-size="14.00" fill="#666666">[varchar(255)]</text>
<polygon fill="none" stroke="#000000" points="485.5,-75.5 485.5,-105.5 754.5,-105.5 754.5,-75.5 485.5,-75.5"/>
<text text-anchor="start" x="492.5" y="-86.9" font-family="Arial" font-size="14.00" fill="#000000">public_user_id </text>
<text text-anchor="start" x="586.6318" y="-86.9" font-family="Arial" font-size="14.00" fill="#666666">[varchar(255)]</text>
<polygon fill="none" stroke="#000000" points="485.5,-45.5 485.5,-75.5 754.5,-75.5 754.5,-45.5 485.5,-45.5"/>
<text text-anchor="start" x="492.4159" y="-56.9" font-family="Arial" font-size="14.00" fill="#000000">created_at </text>
<text text-anchor="start" x="562.4439" y="-56.9" font-family="Arial" font-size="14.00" fill="#666666">[timestamp without time zone]</text>
<polygon fill="none" stroke="#000000" stroke-width="3" points="483.5,-44.5 483.5,-202.5 755.5,-202.5 755.5,-44.5 483.5,-44.5"/>
</g>
<!-- public.account_profile -->
<g id="node2" class="node">
<title>public.account_profile</title>
<polygon fill="#efefef" stroke="transparent" points="43.5,-655.5 43.5,-690.5 358.5,-690.5 358.5,-655.5 43.5,-655.5"/>
<polygon fill="none" stroke="#000000" points="43.5,-655.5 43.5,-690.5 358.5,-690.5 358.5,-655.5 43.5,-655.5"/>
<text text-anchor="start" x="50.1941" y="-668.3" font-family="Arial Bold" font-size="18.00" fill="#000000">public.account_profile</text>
<text text-anchor="start" x="224.2379" y="-668.3" font-family="Arial" font-size="14.00" fill="#000000">    </text>
<text text-anchor="start" x="258.4427" y="-668.3" font-family="Arial" font-size="14.00" fill="#666666">[BASE TABLE]</text>
<polygon fill="none" stroke="#000000" points="43.5,-625.5 43.5,-655.5 358.5,-655.5 358.5,-625.5 43.5,-625.5"/>
<text text-anchor="start" x="50.5" y="-636.9" font-family="Arial" font-size="14.00" fill="#000000">account_profile_id    </text>
<text text-anchor="start" x="198.2924" y="-636.9" font-family="Arial" font-size="14.00" fill="#666666">[bigint]</text>
<polygon fill="none" stroke="#000000" points="43.5,-595.5 43.5,-625.5 358.5,-625.5 358.5,-595.5 43.5,-595.5"/>
<text text-anchor="start" x="50.5" y="-606.9" font-family="Arial" font-size="14.00" fill="#000000">account_id    </text>
<text text-anchor="start" x="152.3976" y="-606.9" font-family="Arial" font-size="14.00" fill="#666666">[bigint]</text>
<polygon fill="none" stroke="#000000" points="43.5,-565.5 43.5,-595.5 358.5,-595.5 358.5,-565.5 43.5,-565.5"/>
<text text-anchor="start" x="50.5" y="-576.9" font-family="Arial" font-size="14.00" fill="#000000">token    </text>
<text text-anchor="start" x="118.9432" y="-576.9" font-family="Arial" font-size="14.00" fill="#666666">[varchar(255)]</text>
<polygon fill="none" stroke="#000000" points="43.5,-535.5 43.5,-565.5 358.5,-565.5 358.5,-535.5 43.5,-535.5"/>
<text text-anchor="start" x="50.5" y="-546.9" font-family="Arial" font-size="14.00" fill="#000000">name    </text>
<text text-anchor="start" x="119.7132" y="-546.9" font-family="Arial" font-size="14.00" fill="#666666">[varchar(255)]</text>
<polygon fill="none" stroke="#000000" points="43.5,-505.5 43.5,-535.5 358.5,-535.5 358.5,-505.5 43.5,-505.5"/>
<text text-anchor="start" x="50.5" y="-516.9" font-family="Arial" font-size="14.00" fill="#000000">affiliation    </text>
<text text-anchor="start" x="139.9334" y="-516.9" font-family="Arial" font-size="14.00" fill="#666666">[varchar(255)]</text>
<polygon fill="none" stroke="#000000" points="43.5,-475.5 43.5,-505.5 358.5,-505.5 358.5,-475.5 43.5,-475.5"/>
<text text-anchor="start" x="50.5" y="-486.9" font-family="Arial" font-size="14.00" fill="#000000">bio    </text>
<text text-anchor="start" x="103.3766" y="-486.9" font-family="Arial" font-size="14.00" fill="#666666">[text]</text>
<polygon fill="none" stroke="#000000" points="43.5,-445.5 43.5,-475.5 358.5,-475.5 358.5,-445.5 43.5,-445.5"/>
<text text-anchor="start" x="50.5" y="-456.9" font-family="Arial" font-size="14.00" fill="#000000">email    </text>
<text text-anchor="start" x="118.1438" y="-456.9" font-family="Arial" font-size="14.00" fill="#666666">[varchar(255)]</text>
<polygon fill="none" stroke="#000000" points="43.5,-415.5 43.5,-445.5 358.5,-445.5 358.5,-415.5 43.5,-415.5"/>
<text text-anchor="start" x="50.5" y="-426.9" font-family="Arial" font-size="14.00" fill="#000000">birthdate    </text>
<text text-anchor="start" x="139.1662" y="-426.9" font-family="Arial" font-size="14.00" fill="#666666">[timestamp without time zone]</text>
<polygon fill="none" stroke="#000000" points="43.5,-385.5 43.5,-415.5 358.5,-415.5 358.5,-385.5 43.5,-385.5"/>
<text text-anchor="start" x="50.5" y="-396.9" font-family="Arial" font-size="14.00" fill="#000000">gender    </text>
<text text-anchor="start" x="128.2784" y="-396.9" font-family="Arial" font-size="14.00" fill="#666666">[integer]</text>
<polygon fill="none" stroke="#000000" points="43.5,-355.5 43.5,-385.5 358.5,-385.5 358.5,-355.5 43.5,-355.5"/>
<text text-anchor="start" x="50.5" y="-366.9" font-family="Arial" font-size="14.00" fill="#000000">created_at    </text>
<text text-anchor="start" x="150.8422" y="-366.9" font-family="Arial" font-size="14.00" fill="#666666">[timestamp without time zone]</text>
<polygon fill="none" stroke="#000000" points="43.5,-325.5 43.5,-355.5 358.5,-355.5 358.5,-325.5 43.5,-325.5"/>
<text text-anchor="start" x="50.5" y="-336.9" font-family="Arial" font-size="14.00" fill="#000000">updated_at    </text>
<text text-anchor="start" x="154.7468" y="-336.9" font-family="Arial" font-size="14.00" fill="#666666">[timestamp without time zone]</text>
</g>
<!-- public.account_profile&#45;&gt;public.account -->
<g id="edge1" class="edge">
<title>public.account_profile:account_id&#45;&gt;public.account:account_id</title>
<path fill="none" stroke="#000000" d="M368.4483,-608.7066C427.7303,-585.7538 386.2932,-349.1032 409.5,-283 431.988,-218.9443 417.6116,-150.5 485.5,-150.5"/>
<polygon fill="#000000" stroke="#000000" points="368.3414,-608.7258 357.7016,-606.0714 363.4207,-609.6129 358.5,-610.5 358.5,-610.5 358.5,-610.5 363.4207,-609.6129 359.2984,-614.9286 368.3414,-608.7258 368.3414,-608.7258"/>
</g>
<!-- public.group_member -->
<g id="node3" class="node">
<title>public.group_member</title>
<polygon fill="#efefef" stroke="transparent" points="462.5,-565.5 462.5,-600.5 777.5,-600.5 777.5,-565.5 462.5,-565.5"/>
<polygon fill="none" stroke="#000000" points="462.5,-565.5 462.5,-600.5 777.5,-600.5 777.5,-565.5 462.5,-565.5"/>
<text text-anchor="start" x="469.2022" y="-578.3" font-family="Arial Bold" font-size="18.00" fill="#000000">public.group_member</text>
<text text-anchor="start" x="643.2298" y="-578.3" font-family="Arial" font-size="14.00" fill="#000000">    </text>
<text text-anchor="start" x="677.4346" y="-578.3" font-family="Arial" font-size="14.00" fill="#666666">[BASE TABLE]</text>
<polygon fill="none" stroke="#000000" points="462.5,-535.5 462.5,-565.5 777.5,-565.5 777.5,-535.5 462.5,-535.5"/>
<text text-anchor="start" x="469.5" y="-546.9" font-family="Arial" font-size="14.00" fill="#000000">group_member_id    </text>
<text text-anchor="start" x="617.2798" y="-546.9" font-family="Arial" font-size="14.00" fill="#666666">[bigint]</text>
<polygon fill="none" stroke="#000000" points="462.5,-505.5 462.5,-535.5 777.5,-535.5 777.5,-505.5 462.5,-505.5"/>
<text text-anchor="start" x="469.5" y="-516.9" font-family="Arial" font-size="14.00" fill="#000000">group_id    </text>
<text text-anchor="start" x="558.1676" y="-516.9" font-family="Arial" font-size="14.00" fill="#666666">[bigint]</text>
<polygon fill="none" stroke="#000000" points="462.5,-475.5 462.5,-505.5 777.5,-505.5 777.5,-475.5 462.5,-475.5"/>
<text text-anchor="start" x="469.5" y="-486.9" font-family="Arial" font-size="14.00" fill="#000000">account_id    </text>
<text text-anchor="start" x="571.3976" y="-486.9" font-family="Arial" font-size="14.00" fill="#666666">[bigint]</text>
<polygon fill="none" stroke="#000000" points="462.5,-445.5 462.5,-475.5 777.5,-475.5 777.5,-445.5 462.5,-445.5"/>
<text text-anchor="start" x="469.5" y="-456.9" font-family="Arial" font-size="14.00" fill="#000000">account_profile_id    </text>
<text text-anchor="start" x="617.2924" y="-456.9" font-family="Arial" font-size="14.00" fill="#666666">[bigint]</text>
<polygon fill="none" stroke="#000000" points="462.5,-415.5 462.5,-445.5 777.5,-445.5 777.5,-415.5 462.5,-415.5"/>
<text text-anchor="start" x="469.5" y="-426.9" font-family="Arial" font-size="14.00" fill="#000000">role    </text>
<text text-anchor="start" x="527.0372" y="-426.9" font-family="Arial" font-size="14.00" fill="#666666">[smallint]</text>
</g>
<!-- public.group_member&#45;&gt;public.account -->
<g id="edge2" class="edge">
<title>public.group_member:account_id&#45;&gt;public.account:account_id</title>
<path fill="none" stroke="#000000" d="M452.4968,-488.3288C389.0439,-459.3721 413.3215,-150.5 485.5,-150.5"/>
<polygon fill="#000000" stroke="#000000" points="452.7275,-488.3788 461.5455,-494.8976 457.6138,-489.4394 462.5,-490.5 462.5,-490.5 462.5,-490.5 457.6138,-489.4394 463.4545,-486.1024 452.7275,-488.3788 452.7275,-488.3788"/>
</g>
<!-- public.account_workspace -->
<g id="node4" class="node">
<title>public.account_workspace</title>
<polygon fill="#efefef" stroke="transparent" points="881.5,-535.5 881.5,-570.5 1233.5,-570.5 1233.5,-535.5 881.5,-535.5"/>
<polygon fill="none" stroke="#000000" points="881.5,-535.5 881.5,-570.5 1233.5,-570.5 1233.5,-535.5 881.5,-535.5"/>
<text text-anchor="start" x="888.1892" y="-548.3" font-family="Arial Bold" font-size="18.00" fill="#000000">public.account_workspace</text>
<text text-anchor="start" x="1099.2428" y="-548.3" font-family="Arial" font-size="14.00" fill="#000000">    </text>
<text text-anchor="start" x="1133.4476" y="-548.3" font-family="Arial" font-size="14.00" fill="#666666">[BASE TABLE]</text>
<polygon fill="none" stroke="#000000" points="881.5,-505.5 881.5,-535.5 1233.5,-535.5 1233.5,-505.5 881.5,-505.5"/>
<text text-anchor="start" x="888.5" y="-516.9" font-family="Arial" font-size="14.00" fill="#000000">account_workspace_id    </text>
<text text-anchor="start" x="1065.0778" y="-516.9" font-family="Arial" font-size="14.00" fill="#666666">[bigint]</text>
<polygon fill="none" stroke="#000000" points="881.5,-475.5 881.5,-505.5 1233.5,-505.5 1233.5,-475.5 881.5,-475.5"/>
<text text-anchor="start" x="888.5" y="-486.9" font-family="Arial" font-size="14.00" fill="#000000">workspace_id    </text>
<text text-anchor="start" x="1008.2742" y="-486.9" font-family="Arial" font-size="14.00" fill="#666666">[bigint]</text>
<polygon fill="none" stroke="#000000" points="881.5,-445.5 881.5,-475.5 1233.5,-475.5 1233.5,-445.5 881.5,-445.5"/>
<text text-anchor="start" x="888.5" y="-456.9" font-family="Arial" font-size="14.00" fill="#000000">account_id    </text>
<text text-anchor="start" x="990.3976" y="-456.9" font-family="Arial" font-size="14.00" fill="#666666">[bigint]</text>
</g>
<!-- public.account_workspace&#45;&gt;public.account -->
<g id="edge3" class="edge">
<title>public.account_workspace:account_id&#45;&gt;public.account:account_id</title>
<path fill="none" stroke="#000000" d="M871.2744,-459.8954C804.6953,-451.4078 860.0759,-355.3132 829.5,-283 803.1469,-220.674 822.1684,-150.5 754.5,-150.5"/>
<polygon fill="#000000" stroke="#000000" points="871.5174,-459.9097 881.2344,-464.9922 876.5087,-460.2048 881.5,-460.5 881.5,-460.5 881.5,-460.5 876.5087,-460.2048 881.7656,-456.0078 871.5174,-459.9097 871.5174,-459.9097"/>
</g>
</g>
</svg>
