<?xml version="1.0" encoding="UTF-8" standalone="no"?>
<!DOCTYPE svg PUBLIC "-//W3C//DTD SVG 1.1//EN"
 "http://www.w3.org/Graphics/SVG/1.1/DTD/svg11.dtd">
<!-- Generated by graphviz version 2.40.1 (20161225.0304)
 -->
<!-- Title: public.group Pages: 1 -->
<svg width="848pt" height="562pt"
 viewBox="0.00 0.00 848.00 562.00" xmlns="http://www.w3.org/2000/svg" xmlns:xlink="http://www.w3.org/1999/xlink">
<g id="graph0" class="graph" transform="scale(1 1) rotate(0) translate(4 558)">
<title>public.group</title>
<polygon fill="#ffffff" stroke="transparent" points="-4,4 -4,-558 844,-558 844,4 -4,4"/>
<!-- public.group -->
<g id="node1" class="node">
<title>public.group</title>
<polygon fill="#efefef" stroke="transparent" points="278.5,-165.5 278.5,-200.5 551.5,-200.5 551.5,-165.5 278.5,-165.5"/>
<polygon fill="none" stroke="#000000" points="278.5,-165.5 278.5,-200.5 551.5,-200.5 551.5,-165.5 278.5,-165.5"/>
<text text-anchor="start" x="302.2029" y="-178.3" font-family="Arial Bold" font-size="18.00" fill="#000000">public.group</text>
<text text-anchor="start" x="400.2291" y="-178.3" font-family="Arial" font-size="14.00" fill="#000000">    </text>
<text text-anchor="start" x="434.4339" y="-178.3" font-family="Arial" font-size="14.00" fill="#666666">[BASE TABLE]</text>
<polygon fill="none" stroke="#000000" points="278.5,-135.5 278.5,-165.5 551.5,-165.5 551.5,-135.5 278.5,-135.5"/>
<text text-anchor="start" x="285.5" y="-146.9" font-family="Arial" font-size="14.00" fill="#000000">group_id </text>
<text text-anchor="start" x="343.8534" y="-146.9" font-family="Arial" font-size="14.00" fill="#666666">[bigint]</text>
<polygon fill="none" stroke="#000000" points="278.5,-105.5 278.5,-135.5 551.5,-135.5 551.5,-105.5 278.5,-105.5"/>
<text text-anchor="start" x="285.5" y="-116.9" font-family="Arial" font-size="14.00" fill="#000000">group_name </text>
<text text-anchor="start" x="367.9726" y="-116.9" font-family="Arial" font-size="14.00" fill="#666666">[varchar(255)]</text>
<polygon fill="none" stroke="#000000" points="278.5,-75.5 278.5,-105.5 551.5,-105.5 551.5,-75.5 278.5,-75.5"/>
<text text-anchor="start" x="285.5" y="-86.9" font-family="Arial" font-size="14.00" fill="#000000">created_at </text>
<text text-anchor="start" x="355.528" y="-86.9" font-family="Arial" font-size="14.00" fill="#666666">[timestamp without time zone]</text>
<polygon fill="none" stroke="#000000" points="278.5,-45.5 278.5,-75.5 551.5,-75.5 551.5,-45.5 278.5,-45.5"/>
<text text-anchor="start" x="285.4636" y="-56.9" font-family="Arial" font-size="14.00" fill="#000000">updated_at </text>
<text text-anchor="start" x="359.3962" y="-56.9" font-family="Arial" font-size="14.00" fill="#666666">[timestamp without time zone]</text>
<polygon fill="none" stroke="#000000" stroke-width="3" points="276.5,-44.5 276.5,-202.5 552.5,-202.5 552.5,-44.5 276.5,-44.5"/>
</g>
<!-- public.group_member -->
<g id="node2" class="node">
<title>public.group_member</title>
<polygon fill="#efefef" stroke="transparent" points="43.5,-475.5 43.5,-510.5 358.5,-510.5 358.5,-475.5 43.5,-475.5"/>
<polygon fill="none" stroke="#000000" points="43.5,-475.5 43.5,-510.5 358.5,-510.5 358.5,-475.5 43.5,-475.5"/>
<text text-anchor="start" x="50.2022" y="-488.3" font-family="Arial Bold" font-size="18.00" fill="#000000">public.group_member</text>
<text text-anchor="start" x="224.2298" y="-488.3" font-family="Arial" font-size="14.00" fill="#000000">    </text>
<text text-anchor="start" x="258.4346" y="-488.3" font-family="Arial" font-size="14.00" fill="#666666">[BASE TABLE]</text>
<polygon fill="none" stroke="#000000" points="43.5,-445.5 43.5,-475.5 358.5,-475.5 358.5,-445.5 43.5,-445.5"/>
<text text-anchor="start" x="50.5" y="-456.9" font-family="Arial" font-size="14.00" fill="#000000">group_member_id    </text>
<text text-anchor="start" x="198.2798" y="-456.9" font-family="Arial" font-size="14.00" fill="#666666">[bigint]</text>
<polygon fill="none" stroke="#000000" points="43.5,-415.5 43.5,-445.5 358.5,-445.5 358.5,-415.5 43.5,-415.5"/>
<text text-anchor="start" x="50.5" y="-426.9" font-family="Arial" font-size="14.00" fill="#000000">group_id    </text>
<text text-anchor="start" x="139.1676" y="-426.9" font-family="Arial" font-size="14.00" fill="#666666">[bigint]</text>
<polygon fill="none" stroke="#000000" points="43.5,-385.5 43.5,-415.5 358.5,-415.5 358.5,-385.5 43.5,-385.5"/>
<text text-anchor="start" x="50.5" y="-396.9" font-family="Arial" font-size="14.00" fill="#000000">account_id    </text>
<text text-anchor="start" x="152.3976" y="-396.9" font-family="Arial" font-size="14.00" fill="#666666">[bigint]</text>
<polygon fill="none" stroke="#000000" points="43.5,-355.5 43.5,-385.5 358.5,-385.5 358.5,-355.5 43.5,-355.5"/>
<text text-anchor="start" x="50.5" y="-366.9" font-family="Arial" font-size="14.00" fill="#000000">account_profile_id    </text>
<text text-anchor="start" x="198.2924" y="-366.9" font-family="Arial" font-size="14.00" fill="#666666">[bigint]</text>
<polygon fill="none" stroke="#000000" points="43.5,-325.5 43.5,-355.5 358.5,-355.5 358.5,-325.5 43.5,-325.5"/>
<text text-anchor="start" x="50.5" y="-336.9" font-family="Arial" font-size="14.00" fill="#000000">role    </text>
<text text-anchor="start" x="108.0372" y="-336.9" font-family="Arial" font-size="14.00" fill="#666666">[smallint]</text>
</g>
<!-- public.group_member&#45;&gt;public.group -->
<g id="edge1" class="edge">
<title>public.group_member:group_id&#45;&gt;public.group:group_id</title>
<path fill="none" stroke="#000000" d="M368.7364,-429.6338C420.6435,-420.1472 392.0787,-334.9323 358.5,-283 337.3297,-250.2583 299.6703,-279.7417 278.5,-247 255.2126,-210.984 235.6111,-150.5 278.5,-150.5"/>
<polygon fill="#000000" stroke="#000000" points="368.4644,-429.6567 358.1205,-426.016 363.4822,-430.0784 358.5,-430.5 358.5,-430.5 358.5,-430.5 363.4822,-430.0784 358.8795,-434.984 368.4644,-429.6567 368.4644,-429.6567"/>
</g>
<!-- public.group_workspace -->
<g id="node3" class="node">
<title>public.group_workspace</title>
<polygon fill="#efefef" stroke="transparent" points="462.5,-445.5 462.5,-480.5 797.5,-480.5 797.5,-445.5 462.5,-445.5"/>
<polygon fill="none" stroke="#000000" points="462.5,-445.5 462.5,-480.5 797.5,-480.5 797.5,-445.5 462.5,-445.5"/>
<text text-anchor="start" x="469.1942" y="-458.3" font-family="Arial Bold" font-size="18.00" fill="#000000">public.group_workspace</text>
<text text-anchor="start" x="663.2378" y="-458.3" font-family="Arial" font-size="14.00" fill="#000000">    </text>
<text text-anchor="start" x="697.4426" y="-458.3" font-family="Arial" font-size="14.00" fill="#666666">[BASE TABLE]</text>
<polygon fill="none" stroke="#000000" points="462.5,-415.5 462.5,-445.5 797.5,-445.5 797.5,-415.5 462.5,-415.5"/>
<text text-anchor="start" x="469.5" y="-426.9" font-family="Arial" font-size="14.00" fill="#000000">group_workspace_id    </text>
<text text-anchor="start" x="632.8478" y="-426.9" font-family="Arial" font-size="14.00" fill="#666666">[bigint]</text>
<polygon fill="none" stroke="#000000" points="462.5,-385.5 462.5,-415.5 797.5,-415.5 797.5,-385.5 462.5,-385.5"/>
<text text-anchor="start" x="469.5" y="-396.9" font-family="Arial" font-size="14.00" fill="#000000">workspace_id    </text>
<text text-anchor="start" x="589.2742" y="-396.9" font-family="Arial" font-size="14.00" fill="#666666">[bigint]</text>
<polygon fill="none" stroke="#000000" points="462.5,-355.5 462.5,-385.5 797.5,-385.5 797.5,-355.5 462.5,-355.5"/>
<text text-anchor="start" x="469.5" y="-366.9" font-family="Arial" font-size="14.00" fill="#000000">group_id    </text>
<text text-anchor="start" x="558.1676" y="-366.9" font-family="Arial" font-size="14.00" fill="#666666">[bigint]</text>
</g>
<!-- public.group_workspace&#45;&gt;public.group -->
<g id="edge2" class="edge">
<title>public.group_workspace:group_id&#45;&gt;public.group:group_id</title>
<path fill="none" stroke="#000000" d="M452.62,-367.6633C441.7032,-358.931 452.9843,-331.9032 462.5,-313 484.6423,-269.0136 529.3577,-290.9864 551.5,-247 570.7843,-208.6911 594.3889,-150.5 551.5,-150.5"/>
<polygon fill="#000000" stroke="#000000" points="452.8883,-367.7403 461.2581,-374.8253 457.6942,-369.1202 462.5,-370.5 462.5,-370.5 462.5,-370.5 457.6942,-369.1202 463.7419,-366.1747 452.8883,-367.7403 452.8883,-367.7403"/>
</g>
</g>
</svg>
