<?xml version="1.0" encoding="UTF-8" standalone="no"?>
<!DOCTYPE svg PUBLIC "-//W3C//DTD SVG 1.1//EN"
 "http://www.w3.org/Graphics/SVG/1.1/DTD/svg11.dtd">
<!-- Generated by graphviz version 2.40.1 (20161225.0304)
 -->
<!-- Title: public.group Pages: 1 -->
<svg width="1654pt" height="862pt"
 viewBox="0.00 0.00 1654.00 862.00" xmlns="http://www.w3.org/2000/svg" xmlns:xlink="http://www.w3.org/1999/xlink">
<g id="graph0" class="graph" transform="scale(1 1) rotate(0) translate(4 858)">
<title>public.group</title>
<polygon fill="#ffffff" stroke="transparent" points="-4,4 -4,-858 1650,-858 1650,4 -4,4"/>
<!-- public.group -->
<g id="node1" class="node">
<title>public.group</title>
<polygon fill="#efefef" stroke="transparent" points="703.5,-405.5 703.5,-440.5 976.5,-440.5 976.5,-405.5 703.5,-405.5"/>
<polygon fill="none" stroke="#000000" points="703.5,-405.5 703.5,-440.5 976.5,-440.5 976.5,-405.5 703.5,-405.5"/>
<text text-anchor="start" x="727.2029" y="-418.3" font-family="Arial Bold" font-size="18.00" fill="#000000">public.group</text>
<text text-anchor="start" x="825.2291" y="-418.3" font-family="Arial" font-size="14.00" fill="#000000">    </text>
<text text-anchor="start" x="859.4339" y="-418.3" font-family="Arial" font-size="14.00" fill="#666666">[BASE TABLE]</text>
<polygon fill="none" stroke="#000000" points="703.5,-375.5 703.5,-405.5 976.5,-405.5 976.5,-375.5 703.5,-375.5"/>
<text text-anchor="start" x="710.5" y="-386.9" font-family="Arial" font-size="14.00" fill="#000000">group_id </text>
<text text-anchor="start" x="768.8534" y="-386.9" font-family="Arial" font-size="14.00" fill="#666666">[bigint]</text>
<polygon fill="none" stroke="#000000" points="703.5,-345.5 703.5,-375.5 976.5,-375.5 976.5,-345.5 703.5,-345.5"/>
<text text-anchor="start" x="710.5" y="-356.9" font-family="Arial" font-size="14.00" fill="#000000">group_name </text>
<text text-anchor="start" x="792.9726" y="-356.9" font-family="Arial" font-size="14.00" fill="#666666">[varchar(255)]</text>
<polygon fill="none" stroke="#000000" points="703.5,-315.5 703.5,-345.5 976.5,-345.5 976.5,-315.5 703.5,-315.5"/>
<text text-anchor="start" x="710.5" y="-326.9" font-family="Arial" font-size="14.00" fill="#000000">name </text>
<text text-anchor="start" x="749.399" y="-326.9" font-family="Arial" font-size="14.00" fill="#666666">[varchar(255)]</text>
<polygon fill="none" stroke="#000000" points="703.5,-285.5 703.5,-315.5 976.5,-315.5 976.5,-285.5 703.5,-285.5"/>
<text text-anchor="start" x="710.5" y="-296.9" font-family="Arial" font-size="14.00" fill="#000000">description </text>
<text text-anchor="start" x="782.068" y="-296.9" font-family="Arial" font-size="14.00" fill="#666666">[text]</text>
<polygon fill="none" stroke="#000000" points="703.5,-255.5 703.5,-285.5 976.5,-285.5 976.5,-255.5 703.5,-255.5"/>
<text text-anchor="start" x="710.5" y="-266.9" font-family="Arial" font-size="14.00" fill="#000000">representative </text>
<text text-anchor="start" x="803.0778" y="-266.9" font-family="Arial" font-size="14.00" fill="#666666">[varchar(255)]</text>
<polygon fill="none" stroke="#000000" points="703.5,-225.5 703.5,-255.5 976.5,-255.5 976.5,-225.5 703.5,-225.5"/>
<text text-anchor="start" x="710.5" y="-236.9" font-family="Arial" font-size="14.00" fill="#000000">location </text>
<text text-anchor="start" x="762.6248" y="-236.9" font-family="Arial" font-size="14.00" fill="#666666">[varchar(255)]</text>
<polygon fill="none" stroke="#000000" points="703.5,-195.5 703.5,-225.5 976.5,-225.5 976.5,-195.5 703.5,-195.5"/>
<text text-anchor="start" x="710.5" y="-206.9" font-family="Arial" font-size="14.00" fill="#000000">email </text>
<text text-anchor="start" x="747.8296" y="-206.9" font-family="Arial" font-size="14.00" fill="#666666">[varchar(255)]</text>
<polygon fill="none" stroke="#000000" points="703.5,-165.5 703.5,-195.5 976.5,-195.5 976.5,-165.5 703.5,-165.5"/>
<text text-anchor="start" x="710.5" y="-176.9" font-family="Arial" font-size="14.00" fill="#000000">telno </text>
<text text-anchor="start" x="744.7356" y="-176.9" font-family="Arial" font-size="14.00" fill="#666666">[varchar(255)]</text>
<polygon fill="none" stroke="#000000" points="703.5,-135.5 703.5,-165.5 976.5,-165.5 976.5,-135.5 703.5,-135.5"/>
<text text-anchor="start" x="710.4636" y="-146.9" font-family="Arial" font-size="14.00" fill="#000000">founded_at </text>
<text text-anchor="start" x="784.3962" y="-146.9" font-family="Arial" font-size="14.00" fill="#666666">[timestamp without time zone]</text>
<polygon fill="none" stroke="#000000" points="703.5,-105.5 703.5,-135.5 976.5,-135.5 976.5,-105.5 703.5,-105.5"/>
<text text-anchor="start" x="710.5" y="-116.9" font-family="Arial" font-size="14.00" fill="#000000">created_at </text>
<text text-anchor="start" x="780.528" y="-116.9" font-family="Arial" font-size="14.00" fill="#666666">[timestamp without time zone]</text>
<polygon fill="none" stroke="#000000" points="703.5,-75.5 703.5,-105.5 976.5,-105.5 976.5,-75.5 703.5,-75.5"/>
<text text-anchor="start" x="710.4636" y="-86.9" font-family="Arial" font-size="14.00" fill="#000000">updated_at </text>
<text text-anchor="start" x="784.3962" y="-86.9" font-family="Arial" font-size="14.00" fill="#666666">[timestamp without time zone]</text>
<polygon fill="none" stroke="#000000" points="703.5,-45.5 703.5,-75.5 976.5,-75.5 976.5,-45.5 703.5,-45.5"/>
<text text-anchor="start" x="710.5" y="-56.9" font-family="Arial" font-size="14.00" fill="#000000">is_public </text>
<text text-anchor="start" x="768.8408" y="-56.9" font-family="Arial" font-size="14.00" fill="#666666">[boolean]</text>
<polygon fill="none" stroke="#000000" stroke-width="3" points="701.5,-44.5 701.5,-442.5 977.5,-442.5 977.5,-44.5 701.5,-44.5"/>
</g>
<!-- public.group_member -->
<g id="node2" class="node">
<title>public.group_member</title>
<polygon fill="#efefef" stroke="transparent" points="43.5,-745.5 43.5,-780.5 358.5,-780.5 358.5,-745.5 43.5,-745.5"/>
<polygon fill="none" stroke="#000000" points="43.5,-745.5 43.5,-780.5 358.5,-780.5 358.5,-745.5 43.5,-745.5"/>
<text text-anchor="start" x="50.2022" y="-758.3" font-family="Arial Bold" font-size="18.00" fill="#000000">public.group_member</text>
<text text-anchor="start" x="224.2298" y="-758.3" font-family="Arial" font-size="14.00" fill="#000000">    </text>
<text text-anchor="start" x="258.4346" y="-758.3" font-family="Arial" font-size="14.00" fill="#666666">[BASE TABLE]</text>
<polygon fill="none" stroke="#000000" points="43.5,-715.5 43.5,-745.5 358.5,-745.5 358.5,-715.5 43.5,-715.5"/>
<text text-anchor="start" x="50.5" y="-726.9" font-family="Arial" font-size="14.00" fill="#000000">group_member_id    </text>
<text text-anchor="start" x="198.2798" y="-726.9" font-family="Arial" font-size="14.00" fill="#666666">[bigint]</text>
<polygon fill="none" stroke="#000000" points="43.5,-685.5 43.5,-715.5 358.5,-715.5 358.5,-685.5 43.5,-685.5"/>
<text text-anchor="start" x="50.5" y="-696.9" font-family="Arial" font-size="14.00" fill="#000000">group_id    </text>
<text text-anchor="start" x="139.1676" y="-696.9" font-family="Arial" font-size="14.00" fill="#666666">[bigint]</text>
<polygon fill="none" stroke="#000000" points="43.5,-655.5 43.5,-685.5 358.5,-685.5 358.5,-655.5 43.5,-655.5"/>
<text text-anchor="start" x="50.5" y="-666.9" font-family="Arial" font-size="14.00" fill="#000000">account_id    </text>
<text text-anchor="start" x="152.3976" y="-666.9" font-family="Arial" font-size="14.00" fill="#666666">[bigint]</text>
<polygon fill="none" stroke="#000000" points="43.5,-625.5 43.5,-655.5 358.5,-655.5 358.5,-625.5 43.5,-625.5"/>
<text text-anchor="start" x="50.5" y="-636.9" font-family="Arial" font-size="14.00" fill="#000000">account_profile_id    </text>
<text text-anchor="start" x="198.2924" y="-636.9" font-family="Arial" font-size="14.00" fill="#666666">[bigint]</text>
<polygon fill="none" stroke="#000000" points="43.5,-595.5 43.5,-625.5 358.5,-625.5 358.5,-595.5 43.5,-595.5"/>
<text text-anchor="start" x="50.5" y="-606.9" font-family="Arial" font-size="14.00" fill="#000000">role    </text>
<text text-anchor="start" x="108.0372" y="-606.9" font-family="Arial" font-size="14.00" fill="#666666">[integer]</text>
</g>
<!-- public.group_member&#45;&gt;public.group -->
<g id="edge1" class="edge">
<title>public.group_member:group_id&#45;&gt;public.group:group_id</title>
<path fill="none" stroke="#000000" d="M368.579,-699.8164C433.2409,-690.2357 358.1879,-582.2672 409.5,-523 503.312,-414.6441 560.1763,-390.5 703.5,-390.5"/>
<polygon fill="#000000" stroke="#000000" points="368.4771,-699.8232 358.1955,-696.0103 363.4885,-700.1616 358.5,-700.5 358.5,-700.5 358.5,-700.5 363.4885,-700.1616 358.8045,-704.9897 368.4771,-699.8232 368.4771,-699.8232"/>
</g>
<!-- public.group_workspace -->
<g id="node3" class="node">
<title>public.group_workspace</title>
<polygon fill="#efefef" stroke="transparent" points="462.5,-715.5 462.5,-750.5 797.5,-750.5 797.5,-715.5 462.5,-715.5"/>
<polygon fill="none" stroke="#000000" points="462.5,-715.5 462.5,-750.5 797.5,-750.5 797.5,-715.5 462.5,-715.5"/>
<text text-anchor="start" x="469.1942" y="-728.3" font-family="Arial Bold" font-size="18.00" fill="#000000">public.group_workspace</text>
<text text-anchor="start" x="663.2378" y="-728.3" font-family="Arial" font-size="14.00" fill="#000000">    </text>
<text text-anchor="start" x="697.4426" y="-728.3" font-family="Arial" font-size="14.00" fill="#666666">[BASE TABLE]</text>
<polygon fill="none" stroke="#000000" points="462.5,-685.5 462.5,-715.5 797.5,-715.5 797.5,-685.5 462.5,-685.5"/>
<text text-anchor="start" x="469.5" y="-696.9" font-family="Arial" font-size="14.00" fill="#000000">group_workspace_id    </text>
<text text-anchor="start" x="632.8478" y="-696.9" font-family="Arial" font-size="14.00" fill="#666666">[bigint]</text>
<polygon fill="none" stroke="#000000" points="462.5,-655.5 462.5,-685.5 797.5,-685.5 797.5,-655.5 462.5,-655.5"/>
<text text-anchor="start" x="469.5" y="-666.9" font-family="Arial" font-size="14.00" fill="#000000">workspace_id    </text>
<text text-anchor="start" x="589.2742" y="-666.9" font-family="Arial" font-size="14.00" fill="#666666">[bigint]</text>
<polygon fill="none" stroke="#000000" points="462.5,-625.5 462.5,-655.5 797.5,-655.5 797.5,-625.5 462.5,-625.5"/>
<text text-anchor="start" x="469.5" y="-636.9" font-family="Arial" font-size="14.00" fill="#000000">group_id    </text>
<text text-anchor="start" x="558.1676" y="-636.9" font-family="Arial" font-size="14.00" fill="#666666">[bigint]</text>
</g>
<!-- public.group_workspace&#45;&gt;public.group -->
<g id="edge2" class="edge">
<title>public.group_workspace:group_id&#45;&gt;public.group:group_id</title>
<path fill="none" stroke="#000000" d="M807.2453,-637.7246C817.7743,-629.1686 805.4958,-602.5946 797.5,-583 774.9389,-527.7114 726.0611,-542.2886 703.5,-487 687.2959,-447.29 660.6111,-390.5 703.5,-390.5"/>
<polygon fill="#000000" stroke="#000000" points="807.1176,-637.7609 796.2674,-636.1721 802.3088,-639.1305 797.5,-640.5 797.5,-640.5 797.5,-640.5 802.3088,-639.1305 798.7326,-644.8279 807.1176,-637.7609 807.1176,-637.7609"/>
</g>
<!-- public.group_avatar -->
<g id="node4" class="node">
<title>public.group_avatar</title>
<polygon fill="#efefef" stroke="transparent" points="901.5,-775.5 901.5,-810.5 1200.5,-810.5 1200.5,-775.5 901.5,-775.5"/>
<polygon fill="none" stroke="#000000" points="901.5,-775.5 901.5,-810.5 1200.5,-810.5 1200.5,-775.5 901.5,-775.5"/>
<text text-anchor="start" x="908.1933" y="-788.3" font-family="Arial Bold" font-size="18.00" fill="#000000">public.group_avatar</text>
<text text-anchor="start" x="1066.2387" y="-788.3" font-family="Arial" font-size="14.00" fill="#000000">    </text>
<text text-anchor="start" x="1100.4435" y="-788.3" font-family="Arial" font-size="14.00" fill="#666666">[BASE TABLE]</text>
<polygon fill="none" stroke="#000000" points="901.5,-745.5 901.5,-775.5 1200.5,-775.5 1200.5,-745.5 901.5,-745.5"/>
<text text-anchor="start" x="908.5" y="-756.9" font-family="Arial" font-size="14.00" fill="#000000">group_avatar_id    </text>
<text text-anchor="start" x="1043.8492" y="-756.9" font-family="Arial" font-size="14.00" fill="#666666">[bigint]</text>
<polygon fill="none" stroke="#000000" points="901.5,-715.5 901.5,-745.5 1200.5,-745.5 1200.5,-715.5 901.5,-715.5"/>
<text text-anchor="start" x="908.5" y="-726.9" font-family="Arial" font-size="14.00" fill="#000000">group_id    </text>
<text text-anchor="start" x="997.1676" y="-726.9" font-family="Arial" font-size="14.00" fill="#666666">[bigint]</text>
<polygon fill="none" stroke="#000000" points="901.5,-685.5 901.5,-715.5 1200.5,-715.5 1200.5,-685.5 901.5,-685.5"/>
<text text-anchor="start" x="908.5" y="-696.9" font-family="Arial" font-size="14.00" fill="#000000">file_key    </text>
<text text-anchor="start" x="990.1564" y="-696.9" font-family="Arial" font-size="14.00" fill="#666666">[varchar(255)]</text>
<polygon fill="none" stroke="#000000" points="901.5,-655.5 901.5,-685.5 1200.5,-685.5 1200.5,-655.5 901.5,-655.5"/>
<text text-anchor="start" x="908.5" y="-666.9" font-family="Arial" font-size="14.00" fill="#000000">file_name    </text>
<text text-anchor="start" x="1003.3822" y="-666.9" font-family="Arial" font-size="14.00" fill="#666666">[varchar(255)]</text>
<polygon fill="none" stroke="#000000" points="901.5,-625.5 901.5,-655.5 1200.5,-655.5 1200.5,-625.5 901.5,-625.5"/>
<text text-anchor="start" x="908.5" y="-636.9" font-family="Arial" font-size="14.00" fill="#000000">file_size    </text>
<text text-anchor="start" x="993.263" y="-636.9" font-family="Arial" font-size="14.00" fill="#666666">[bigint]</text>
<polygon fill="none" stroke="#000000" points="901.5,-595.5 901.5,-625.5 1200.5,-625.5 1200.5,-595.5 901.5,-595.5"/>
<text text-anchor="start" x="908.5" y="-606.9" font-family="Arial" font-size="14.00" fill="#000000">content_type    </text>
<text text-anchor="start" x="1022.8548" y="-606.9" font-family="Arial" font-size="14.00" fill="#666666">[varchar(255)]</text>
<polygon fill="none" stroke="#000000" points="901.5,-565.5 901.5,-595.5 1200.5,-595.5 1200.5,-565.5 901.5,-565.5"/>
<text text-anchor="start" x="908.2588" y="-576.9" font-family="Arial" font-size="14.00" fill="#000000">created_at    </text>
<text text-anchor="start" x="1008.601" y="-576.9" font-family="Arial" font-size="14.00" fill="#666666">[timestamp without time zone]</text>
</g>
<!-- public.group_avatar&#45;&gt;public.group -->
<g id="edge3" class="edge">
<title>public.group_avatar:group_id&#45;&gt;public.group:group_id</title>
<path fill="none" stroke="#000000" d="M891.9009,-727.5572C858.775,-704.9663 878.861,-558.9787 901.5,-523 921.1916,-491.7054 956.8084,-518.2946 976.5,-487 999.3415,-450.6995 1019.3889,-390.5 976.5,-390.5"/>
<polygon fill="#000000" stroke="#000000" points="891.9392,-727.5689 900.181,-734.8024 896.7196,-729.0345 901.5,-730.5 901.5,-730.5 901.5,-730.5 896.7196,-729.0345 902.819,-726.1976 891.9392,-727.5689 891.9392,-727.5689"/>
</g>
<!-- public.group_cover -->
<g id="node5" class="node">
<title>public.group_cover</title>
<polygon fill="#efefef" stroke="transparent" points="1304.5,-775.5 1304.5,-810.5 1603.5,-810.5 1603.5,-775.5 1304.5,-775.5"/>
<polygon fill="none" stroke="#000000" points="1304.5,-775.5 1304.5,-810.5 1603.5,-810.5 1603.5,-775.5 1304.5,-775.5"/>
<text text-anchor="start" x="1314.1975" y="-788.3" font-family="Arial Bold" font-size="18.00" fill="#000000">public.group_cover</text>
<text text-anchor="start" x="1466.2345" y="-788.3" font-family="Arial" font-size="14.00" fill="#000000">    </text>
<text text-anchor="start" x="1500.4393" y="-788.3" font-family="Arial" font-size="14.00" fill="#666666">[BASE TABLE]</text>
<polygon fill="none" stroke="#000000" points="1304.5,-745.5 1304.5,-775.5 1603.5,-775.5 1603.5,-745.5 1304.5,-745.5"/>
<text text-anchor="start" x="1311.5" y="-756.9" font-family="Arial" font-size="14.00" fill="#000000">group_cover_id    </text>
<text text-anchor="start" x="1442.176" y="-756.9" font-family="Arial" font-size="14.00" fill="#666666">[bigint]</text>
<polygon fill="none" stroke="#000000" points="1304.5,-715.5 1304.5,-745.5 1603.5,-745.5 1603.5,-715.5 1304.5,-715.5"/>
<text text-anchor="start" x="1311.5" y="-726.9" font-family="Arial" font-size="14.00" fill="#000000">group_id    </text>
<text text-anchor="start" x="1400.1676" y="-726.9" font-family="Arial" font-size="14.00" fill="#666666">[bigint]</text>
<polygon fill="none" stroke="#000000" points="1304.5,-685.5 1304.5,-715.5 1603.5,-715.5 1603.5,-685.5 1304.5,-685.5"/>
<text text-anchor="start" x="1311.5" y="-696.9" font-family="Arial" font-size="14.00" fill="#000000">file_key    </text>
<text text-anchor="start" x="1393.1564" y="-696.9" font-family="Arial" font-size="14.00" fill="#666666">[varchar(255)]</text>
<polygon fill="none" stroke="#000000" points="1304.5,-655.5 1304.5,-685.5 1603.5,-685.5 1603.5,-655.5 1304.5,-655.5"/>
<text text-anchor="start" x="1311.5" y="-666.9" font-family="Arial" font-size="14.00" fill="#000000">file_name    </text>
<text text-anchor="start" x="1406.3822" y="-666.9" font-family="Arial" font-size="14.00" fill="#666666">[varchar(255)]</text>
<polygon fill="none" stroke="#000000" points="1304.5,-625.5 1304.5,-655.5 1603.5,-655.5 1603.5,-625.5 1304.5,-625.5"/>
<text text-anchor="start" x="1311.5" y="-636.9" font-family="Arial" font-size="14.00" fill="#000000">file_size    </text>
<text text-anchor="start" x="1396.263" y="-636.9" font-family="Arial" font-size="14.00" fill="#666666">[bigint]</text>
<polygon fill="none" stroke="#000000" points="1304.5,-595.5 1304.5,-625.5 1603.5,-625.5 1603.5,-595.5 1304.5,-595.5"/>
<text text-anchor="start" x="1311.5" y="-606.9" font-family="Arial" font-size="14.00" fill="#000000">content_type    </text>
<text text-anchor="start" x="1425.8548" y="-606.9" font-family="Arial" font-size="14.00" fill="#666666">[varchar(255)]</text>
<polygon fill="none" stroke="#000000" points="1304.5,-565.5 1304.5,-595.5 1603.5,-595.5 1603.5,-565.5 1304.5,-565.5"/>
<text text-anchor="start" x="1311.2588" y="-576.9" font-family="Arial" font-size="14.00" fill="#000000">created_at    </text>
<text text-anchor="start" x="1411.601" y="-576.9" font-family="Arial" font-size="14.00" fill="#666666">[timestamp without time zone]</text>
</g>
<!-- public.group_cover&#45;&gt;public.group -->
<g id="edge4" class="edge">
<title>public.group_cover:group_id&#45;&gt;public.group:group_id</title>
<path fill="none" stroke="#000000" d="M1294.2445,-729.8989C1217.2377,-720.1359 1310.2573,-593.7868 1252.5,-523 1166.4774,-417.5717 1112.5699,-390.5 976.5,-390.5"/>
<polygon fill="#000000" stroke="#000000" points="1294.5171,-729.9148 1304.2367,-734.9923 1299.5086,-730.2074 1304.5,-730.5 1304.5,-730.5 1304.5,-730.5 1299.5086,-730.2074 1304.7633,-726.0077 1294.5171,-729.9148 1294.5171,-729.9148"/>
</g>
</g>
</svg>
