<?xml version="1.0" encoding="UTF-8" standalone="no"?>
<!DOCTYPE svg PUBLIC "-//W3C//DTD SVG 1.1//EN"
 "http://www.w3.org/Graphics/SVG/1.1/DTD/svg11.dtd">
<!-- Generated by graphviz version 2.40.1 (20161225.0304)
 -->
<!-- Title: public.group_workspace Pages: 1 -->
<svg width="804pt" height="502pt"
 viewBox="0.00 0.00 804.00 502.00" xmlns="http://www.w3.org/2000/svg" xmlns:xlink="http://www.w3.org/1999/xlink">
<g id="graph0" class="graph" transform="scale(1 1) rotate(0) translate(4 498)">
<title>public.group_workspace</title>
<polygon fill="#ffffff" stroke="transparent" points="-4,4 -4,-498 800,-498 800,4 -4,4"/>
<!-- public.group_workspace -->
<g id="node1" class="node">
<title>public.group_workspace</title>
<polygon fill="#efefef" stroke="transparent" points="230.5,-412.5 230.5,-447.5 565.5,-447.5 565.5,-412.5 230.5,-412.5"/>
<polygon fill="none" stroke="#000000" points="230.5,-412.5 230.5,-447.5 565.5,-447.5 565.5,-412.5 230.5,-412.5"/>
<text text-anchor="start" x="237.1942" y="-425.3" font-family="Arial Bold" font-size="18.00" fill="#000000">public.group_workspace</text>
<text text-anchor="start" x="431.2378" y="-425.3" font-family="Arial" font-size="14.00" fill="#000000">    </text>
<text text-anchor="start" x="465.4426" y="-425.3" font-family="Arial" font-size="14.00" fill="#666666">[BASE TABLE]</text>
<polygon fill="none" stroke="#000000" points="230.5,-382.5 230.5,-412.5 565.5,-412.5 565.5,-382.5 230.5,-382.5"/>
<text text-anchor="start" x="237.5" y="-393.9" font-family="Arial" font-size="14.00" fill="#000000">group_workspace_id </text>
<text text-anchor="start" x="370.5336" y="-393.9" font-family="Arial" font-size="14.00" fill="#666666">[bigint]</text>
<polygon fill="none" stroke="#000000" points="230.5,-352.5 230.5,-382.5 565.5,-382.5 565.5,-352.5 230.5,-352.5"/>
<text text-anchor="start" x="237.5" y="-363.9" font-family="Arial" font-size="14.00" fill="#000000">workspace_id </text>
<text text-anchor="start" x="326.96" y="-363.9" font-family="Arial" font-size="14.00" fill="#666666">[bigint]</text>
<polygon fill="none" stroke="#000000" points="230.5,-322.5 230.5,-352.5 565.5,-352.5 565.5,-322.5 230.5,-322.5"/>
<text text-anchor="start" x="237.5" y="-333.9" font-family="Arial" font-size="14.00" fill="#000000">group_id </text>
<text text-anchor="start" x="295.8534" y="-333.9" font-family="Arial" font-size="14.00" fill="#666666">[bigint]</text>
<polygon fill="none" stroke="#000000" stroke-width="3" points="228.5,-321.5 228.5,-449.5 566.5,-449.5 566.5,-321.5 228.5,-321.5"/>
</g>
<!-- public.workspace -->
<g id="node2" class="node">
<title>public.workspace</title>
<polygon fill="#efefef" stroke="transparent" points="43.5,-162.5 43.5,-197.5 346.5,-197.5 346.5,-162.5 43.5,-162.5"/>
<polygon fill="none" stroke="#000000" points="43.5,-162.5 43.5,-197.5 346.5,-197.5 346.5,-162.5 43.5,-162.5"/>
<text text-anchor="start" x="62.2058" y="-175.3" font-family="Arial Bold" font-size="18.00" fill="#000000">public.workspace</text>
<text text-anchor="start" x="200.2262" y="-175.3" font-family="Arial" font-size="14.00" fill="#000000">    </text>
<text text-anchor="start" x="234.431" y="-175.3" font-family="Arial" font-size="14.00" fill="#666666">[BASE TABLE]</text>
<polygon fill="none" stroke="#000000" points="43.5,-132.5 43.5,-162.5 346.5,-162.5 346.5,-132.5 43.5,-132.5"/>
<text text-anchor="start" x="50.5" y="-143.9" font-family="Arial" font-size="14.00" fill="#000000">workspace_id    </text>
<text text-anchor="start" x="170.2742" y="-143.9" font-family="Arial" font-size="14.00" fill="#666666">[bigint]</text>
<polygon fill="none" stroke="#000000" points="43.5,-102.5 43.5,-132.5 346.5,-132.5 346.5,-102.5 43.5,-102.5"/>
<text text-anchor="start" x="50.5" y="-113.9" font-family="Arial" font-size="14.00" fill="#000000">workspace_name    </text>
<text text-anchor="start" x="194.3934" y="-113.9" font-family="Arial" font-size="14.00" fill="#666666">[varchar(255)]</text>
<polygon fill="none" stroke="#000000" points="43.5,-72.5 43.5,-102.5 346.5,-102.5 346.5,-72.5 43.5,-72.5"/>
<text text-anchor="start" x="50.5" y="-83.9" font-family="Arial" font-size="14.00" fill="#000000">created_at    </text>
<text text-anchor="start" x="150.8422" y="-83.9" font-family="Arial" font-size="14.00" fill="#666666">[timestamp without time zone]</text>
<polygon fill="none" stroke="#000000" points="43.5,-42.5 43.5,-72.5 346.5,-72.5 346.5,-42.5 43.5,-42.5"/>
<text text-anchor="start" x="50.3065" y="-53.9" font-family="Arial" font-size="14.00" fill="#000000">updated_at    </text>
<text text-anchor="start" x="154.5533" y="-53.9" font-family="Arial" font-size="14.00" fill="#666666">[timestamp without time zone]</text>
</g>
<!-- public.group_workspace&#45;&gt;public.workspace -->
<g id="edge1" class="edge">
<title>public.group_workspace:workspace_id&#45;&gt;public.workspace:workspace_id</title>
<path fill="none" stroke="#000000" d="M220.2894,-365.9154C193.5456,-356.3945 208.9729,-306.2208 230.5,-277 262.5178,-233.5392 314.4822,-284.4608 346.5,-241 371.1477,-207.5433 388.0556,-147.5 346.5,-147.5"/>
<polygon fill="#000000" stroke="#000000" points="220.6183,-365.9663 229.8098,-371.9468 225.5591,-366.7332 230.5,-367.5 230.5,-367.5 230.5,-367.5 225.5591,-366.7332 231.1902,-363.0532 220.6183,-365.9663 220.6183,-365.9663"/>
</g>
<!-- public.group -->
<g id="node3" class="node">
<title>public.group</title>
<polygon fill="#efefef" stroke="transparent" points="450.5,-162.5 450.5,-197.5 753.5,-197.5 753.5,-162.5 450.5,-162.5"/>
<polygon fill="none" stroke="#000000" points="450.5,-162.5 450.5,-197.5 753.5,-197.5 753.5,-162.5 450.5,-162.5"/>
<text text-anchor="start" x="489.2029" y="-175.3" font-family="Arial Bold" font-size="18.00" fill="#000000">public.group</text>
<text text-anchor="start" x="587.2291" y="-175.3" font-family="Arial" font-size="14.00" fill="#000000">    </text>
<text text-anchor="start" x="621.4339" y="-175.3" font-family="Arial" font-size="14.00" fill="#666666">[BASE TABLE]</text>
<polygon fill="none" stroke="#000000" points="450.5,-132.5 450.5,-162.5 753.5,-162.5 753.5,-132.5 450.5,-132.5"/>
<text text-anchor="start" x="457.5" y="-143.9" font-family="Arial" font-size="14.00" fill="#000000">group_id    </text>
<text text-anchor="start" x="546.1676" y="-143.9" font-family="Arial" font-size="14.00" fill="#666666">[bigint]</text>
<polygon fill="none" stroke="#000000" points="450.5,-102.5 450.5,-132.5 753.5,-132.5 753.5,-102.5 450.5,-102.5"/>
<text text-anchor="start" x="457.5" y="-113.9" font-family="Arial" font-size="14.00" fill="#000000">group_name    </text>
<text text-anchor="start" x="570.2868" y="-113.9" font-family="Arial" font-size="14.00" fill="#666666">[varchar(255)]</text>
<polygon fill="none" stroke="#000000" points="450.5,-72.5 450.5,-102.5 753.5,-102.5 753.5,-72.5 450.5,-72.5"/>
<text text-anchor="start" x="457.5" y="-83.9" font-family="Arial" font-size="14.00" fill="#000000">created_at    </text>
<text text-anchor="start" x="557.8422" y="-83.9" font-family="Arial" font-size="14.00" fill="#666666">[timestamp without time zone]</text>
<polygon fill="none" stroke="#000000" points="450.5,-42.5 450.5,-72.5 753.5,-72.5 753.5,-42.5 450.5,-42.5"/>
<text text-anchor="start" x="457.3065" y="-53.9" font-family="Arial" font-size="14.00" fill="#000000">updated_at    </text>
<text text-anchor="start" x="561.5533" y="-53.9" font-family="Arial" font-size="14.00" fill="#666666">[timestamp without time zone]</text>
</g>
<!-- public.group_workspace&#45;&gt;public.group -->
<g id="edge2" class="edge">
<title>public.group_workspace:group_id&#45;&gt;public.group:group_id</title>
<path fill="none" stroke="#000000" d="M575.457,-334.8695C588.8407,-325.7841 578.9341,-295.2824 565.5,-277 533.787,-233.8418 482.213,-284.1582 450.5,-241 425.8934,-207.513 408.9444,-147.5 450.5,-147.5"/>
<polygon fill="#000000" stroke="#000000" points="575.1683,-334.9457 564.3506,-333.1493 570.3341,-336.2228 565.5,-337.5 565.5,-337.5 565.5,-337.5 570.3341,-336.2228 566.6494,-341.8507 575.1683,-334.9457 575.1683,-334.9457"/>
</g>
</g>
</svg>
