<?xml version="1.0" encoding="UTF-8" standalone="no"?>
<!DOCTYPE svg PUBLIC "-//W3C//DTD SVG 1.1//EN"
 "http://www.w3.org/Graphics/SVG/1.1/DTD/svg11.dtd">
<!-- Generated by graphviz version 2.40.1 (20161225.0304)
 -->
<!-- Title: public.account_profile_cover Pages: 1 -->
<svg width="469pt" height="892pt"
 viewBox="0.00 0.00 469.00 892.00" xmlns="http://www.w3.org/2000/svg" xmlns:xlink="http://www.w3.org/1999/xlink">
<g id="graph0" class="graph" transform="scale(1 1) rotate(0) translate(4 888)">
<title>public.account_profile_cover</title>
<polygon fill="#ffffff" stroke="transparent" points="-4,4 -4,-888 465,-888 465,4 -4,4"/>
<!-- public.account_profile_cover -->
<g id="node1" class="node">
<title>public.account_profile_cover</title>
<polygon fill="#efefef" stroke="transparent" points="46.5,-802.5 46.5,-837.5 415.5,-837.5 415.5,-802.5 46.5,-802.5"/>
<polygon fill="none" stroke="#000000" points="46.5,-802.5 46.5,-837.5 415.5,-837.5 415.5,-802.5 46.5,-802.5"/>
<text text-anchor="start" x="53.1887" y="-815.3" font-family="Arial Bold" font-size="18.00" fill="#000000">public.account_profile_cover</text>
<text text-anchor="start" x="281.2433" y="-815.3" font-family="Arial" font-size="14.00" fill="#000000">    </text>
<text text-anchor="start" x="315.4481" y="-815.3" font-family="Arial" font-size="14.00" fill="#666666">[BASE TABLE]</text>
<polygon fill="none" stroke="#000000" points="46.5,-772.5 46.5,-802.5 415.5,-802.5 415.5,-772.5 46.5,-772.5"/>
<text text-anchor="start" x="53.5" y="-783.9" font-family="Arial" font-size="14.00" fill="#000000">account_profile_cover_id </text>
<text text-anchor="start" x="212.9866" y="-783.9" font-family="Arial" font-size="14.00" fill="#666666">[bigint]</text>
<polygon fill="none" stroke="#000000" points="46.5,-742.5 46.5,-772.5 415.5,-772.5 415.5,-742.5 46.5,-742.5"/>
<text text-anchor="start" x="53.5" y="-753.9" font-family="Arial" font-size="14.00" fill="#000000">account_profile_id </text>
<text text-anchor="start" x="170.9782" y="-753.9" font-family="Arial" font-size="14.00" fill="#666666">[bigint]</text>
<polygon fill="none" stroke="#000000" points="46.5,-712.5 46.5,-742.5 415.5,-742.5 415.5,-712.5 46.5,-712.5"/>
<text text-anchor="start" x="53.5" y="-723.9" font-family="Arial" font-size="14.00" fill="#000000">file_key </text>
<text text-anchor="start" x="104.8422" y="-723.9" font-family="Arial" font-size="14.00" fill="#666666">[varchar(255)]</text>
<polygon fill="none" stroke="#000000" points="46.5,-682.5 46.5,-712.5 415.5,-712.5 415.5,-682.5 46.5,-682.5"/>
<text text-anchor="start" x="53.5" y="-693.9" font-family="Arial" font-size="14.00" fill="#000000">file_name </text>
<text text-anchor="start" x="118.068" y="-693.9" font-family="Arial" font-size="14.00" fill="#666666">[varchar(255)]</text>
<polygon fill="none" stroke="#000000" points="46.5,-652.5 46.5,-682.5 415.5,-682.5 415.5,-652.5 46.5,-652.5"/>
<text text-anchor="start" x="53.5" y="-663.9" font-family="Arial" font-size="14.00" fill="#000000">file_size </text>
<text text-anchor="start" x="107.9488" y="-663.9" font-family="Arial" font-size="14.00" fill="#666666">[bigint]</text>
<polygon fill="none" stroke="#000000" points="46.5,-622.5 46.5,-652.5 415.5,-652.5 415.5,-622.5 46.5,-622.5"/>
<text text-anchor="start" x="53.5" y="-633.9" font-family="Arial" font-size="14.00" fill="#000000">content_type </text>
<text text-anchor="start" x="137.5406" y="-633.9" font-family="Arial" font-size="14.00" fill="#666666">[varchar(255)]</text>
<polygon fill="none" stroke="#000000" points="46.5,-592.5 46.5,-622.5 415.5,-622.5 415.5,-592.5 46.5,-592.5"/>
<text text-anchor="start" x="53.5" y="-603.9" font-family="Arial" font-size="14.00" fill="#000000">created_at </text>
<text text-anchor="start" x="123.528" y="-603.9" font-family="Arial" font-size="14.00" fill="#666666">[timestamp without time zone]</text>
<polygon fill="none" stroke="#000000" stroke-width="3" points="44.5,-591.5 44.5,-839.5 416.5,-839.5 416.5,-591.5 44.5,-591.5"/>
</g>
<!-- public.account_profile -->
<g id="node2" class="node">
<title>public.account_profile</title>
<polygon fill="#efefef" stroke="transparent" points="73.5,-432.5 73.5,-467.5 388.5,-467.5 388.5,-432.5 73.5,-432.5"/>
<polygon fill="none" stroke="#000000" points="73.5,-432.5 73.5,-467.5 388.5,-467.5 388.5,-432.5 73.5,-432.5"/>
<text text-anchor="start" x="80.1941" y="-445.3" font-family="Arial Bold" font-size="18.00" fill="#000000">public.account_profile</text>
<text text-anchor="start" x="254.2379" y="-445.3" font-family="Arial" font-size="14.00" fill="#000000">    </text>
<text text-anchor="start" x="288.4427" y="-445.3" font-family="Arial" font-size="14.00" fill="#666666">[BASE TABLE]</text>
<polygon fill="none" stroke="#000000" points="73.5,-402.5 73.5,-432.5 388.5,-432.5 388.5,-402.5 73.5,-402.5"/>
<text text-anchor="start" x="80.5" y="-413.9" font-family="Arial" font-size="14.00" fill="#000000">account_profile_id    </text>
<text text-anchor="start" x="228.2924" y="-413.9" font-family="Arial" font-size="14.00" fill="#666666">[bigint]</text>
<polygon fill="none" stroke="#000000" points="73.5,-372.5 73.5,-402.5 388.5,-402.5 388.5,-372.5 73.5,-372.5"/>
<text text-anchor="start" x="80.5" y="-383.9" font-family="Arial" font-size="14.00" fill="#000000">token    </text>
<text text-anchor="start" x="148.9432" y="-383.9" font-family="Arial" font-size="14.00" fill="#666666">[varchar(255)]</text>
<polygon fill="none" stroke="#000000" points="73.5,-342.5 73.5,-372.5 388.5,-372.5 388.5,-342.5 73.5,-342.5"/>
<text text-anchor="start" x="80.5" y="-353.9" font-family="Arial" font-size="14.00" fill="#000000">account_id    </text>
<text text-anchor="start" x="182.3976" y="-353.9" font-family="Arial" font-size="14.00" fill="#666666">[bigint]</text>
<polygon fill="none" stroke="#000000" points="73.5,-312.5 73.5,-342.5 388.5,-342.5 388.5,-312.5 73.5,-312.5"/>
<text text-anchor="start" x="80.5" y="-323.9" font-family="Arial" font-size="14.00" fill="#000000">name    </text>
<text text-anchor="start" x="149.7132" y="-323.9" font-family="Arial" font-size="14.00" fill="#666666">[varchar(255)]</text>
<polygon fill="none" stroke="#000000" points="73.5,-282.5 73.5,-312.5 388.5,-312.5 388.5,-282.5 73.5,-282.5"/>
<text text-anchor="start" x="80.5" y="-293.9" font-family="Arial" font-size="14.00" fill="#000000">affiliation    </text>
<text text-anchor="start" x="169.9334" y="-293.9" font-family="Arial" font-size="14.00" fill="#666666">[varchar(255)]</text>
<polygon fill="none" stroke="#000000" points="73.5,-252.5 73.5,-282.5 388.5,-282.5 388.5,-252.5 73.5,-252.5"/>
<text text-anchor="start" x="80.5" y="-263.9" font-family="Arial" font-size="14.00" fill="#000000">location    </text>
<text text-anchor="start" x="162.939" y="-263.9" font-family="Arial" font-size="14.00" fill="#666666">[varchar(255)]</text>
<polygon fill="none" stroke="#000000" points="73.5,-222.5 73.5,-252.5 388.5,-252.5 388.5,-222.5 73.5,-222.5"/>
<text text-anchor="start" x="80.5" y="-233.9" font-family="Arial" font-size="14.00" fill="#000000">bio    </text>
<text text-anchor="start" x="133.3766" y="-233.9" font-family="Arial" font-size="14.00" fill="#666666">[text]</text>
<polygon fill="none" stroke="#000000" points="73.5,-192.5 73.5,-222.5 388.5,-222.5 388.5,-192.5 73.5,-192.5"/>
<text text-anchor="start" x="80.5" y="-203.9" font-family="Arial" font-size="14.00" fill="#000000">email    </text>
<text text-anchor="start" x="148.1438" y="-203.9" font-family="Arial" font-size="14.00" fill="#666666">[varchar(255)]</text>
<polygon fill="none" stroke="#000000" points="73.5,-162.5 73.5,-192.5 388.5,-192.5 388.5,-162.5 73.5,-162.5"/>
<text text-anchor="start" x="80.5" y="-173.9" font-family="Arial" font-size="14.00" fill="#000000">telno    </text>
<text text-anchor="start" x="145.0498" y="-173.9" font-family="Arial" font-size="14.00" fill="#666666">[varchar(255)]</text>
<polygon fill="none" stroke="#000000" points="73.5,-132.5 73.5,-162.5 388.5,-162.5 388.5,-132.5 73.5,-132.5"/>
<text text-anchor="start" x="80.5" y="-143.9" font-family="Arial" font-size="14.00" fill="#000000">birthdate    </text>
<text text-anchor="start" x="169.1662" y="-143.9" font-family="Arial" font-size="14.00" fill="#666666">[timestamp without time zone]</text>
<polygon fill="none" stroke="#000000" points="73.5,-102.5 73.5,-132.5 388.5,-132.5 388.5,-102.5 73.5,-102.5"/>
<text text-anchor="start" x="80.5" y="-113.9" font-family="Arial" font-size="14.00" fill="#000000">gender    </text>
<text text-anchor="start" x="158.2784" y="-113.9" font-family="Arial" font-size="14.00" fill="#666666">[integer]</text>
<polygon fill="none" stroke="#000000" points="73.5,-72.5 73.5,-102.5 388.5,-102.5 388.5,-72.5 73.5,-72.5"/>
<text text-anchor="start" x="80.5" y="-83.9" font-family="Arial" font-size="14.00" fill="#000000">created_at    </text>
<text text-anchor="start" x="180.8422" y="-83.9" font-family="Arial" font-size="14.00" fill="#666666">[timestamp without time zone]</text>
<polygon fill="none" stroke="#000000" points="73.5,-42.5 73.5,-72.5 388.5,-72.5 388.5,-42.5 73.5,-42.5"/>
<text text-anchor="start" x="80.5" y="-53.9" font-family="Arial" font-size="14.00" fill="#000000">updated_at    </text>
<text text-anchor="start" x="184.7468" y="-53.9" font-family="Arial" font-size="14.00" fill="#666666">[timestamp without time zone]</text>
</g>
<!-- public.account_profile_cover&#45;&gt;public.account_profile -->
<g id="edge1" class="edge">
<title>public.account_profile_cover:account_profile_id&#45;&gt;public.account_profile:account_profile_id</title>
<path fill="none" stroke="#000000" d="M36.5136,-755.3288C-26.655,-726.3721 1.2594,-417.5 73.5,-417.5"/>
<polygon fill="#000000" stroke="#000000" points="36.7283,-755.3754 45.5439,-761.8973 41.6141,-756.4377 46.5,-757.5 46.5,-757.5 46.5,-757.5 41.6141,-756.4377 47.4561,-753.1027 36.7283,-755.3754 36.7283,-755.3754"/>
</g>
</g>
</svg>
