<?xml version="1.0" encoding="UTF-8" standalone="no"?>
<!DOCTYPE svg PUBLIC "-//W3C//DTD SVG 1.1//EN"
 "http://www.w3.org/Graphics/SVG/1.1/DTD/svg11.dtd">
<!-- Generated by graphviz version 2.40.1 (20161225.0304)
 -->
<!-- Title: public.workspace Pages: 1 -->
<svg width="886pt" height="502pt"
 viewBox="0.00 0.00 885.50 502.00" xmlns="http://www.w3.org/2000/svg" xmlns:xlink="http://www.w3.org/1999/xlink">
<g id="graph0" class="graph" transform="scale(1 1) rotate(0) translate(4 498)">
<title>public.workspace</title>
<polygon fill="#ffffff" stroke="transparent" points="-4,4 -4,-498 881.5,-498 881.5,4 -4,4"/>
<!-- public.workspace -->
<g id="node1" class="node">
<title>public.workspace</title>
<polygon fill="#efefef" stroke="transparent" points="303,-165.5 303,-200.5 582,-200.5 582,-165.5 303,-165.5"/>
<polygon fill="none" stroke="#000000" points="303,-165.5 303,-200.5 582,-200.5 582,-165.5 303,-165.5"/>
<text text-anchor="start" x="309.7058" y="-178.3" font-family="Arial Bold" font-size="18.00" fill="#000000">public.workspace</text>
<text text-anchor="start" x="447.7262" y="-178.3" font-family="Arial" font-size="14.00" fill="#000000">    </text>
<text text-anchor="start" x="481.931" y="-178.3" font-family="Arial" font-size="14.00" fill="#666666">[BASE TABLE]</text>
<polygon fill="none" stroke="#000000" points="303,-135.5 303,-165.5 582,-165.5 582,-135.5 303,-135.5"/>
<text text-anchor="start" x="310" y="-146.9" font-family="Arial" font-size="14.00" fill="#000000">workspace_id </text>
<text text-anchor="start" x="399.46" y="-146.9" font-family="Arial" font-size="14.00" fill="#666666">[bigint]</text>
<polygon fill="none" stroke="#000000" points="303,-105.5 303,-135.5 582,-135.5 582,-105.5 303,-105.5"/>
<text text-anchor="start" x="310" y="-116.9" font-family="Arial" font-size="14.00" fill="#000000">workspace_name </text>
<text text-anchor="start" x="423.5792" y="-116.9" font-family="Arial" font-size="14.00" fill="#666666">[varchar(255)]</text>
<polygon fill="none" stroke="#000000" points="303,-75.5 303,-105.5 582,-105.5 582,-75.5 303,-75.5"/>
<text text-anchor="start" x="310" y="-86.9" font-family="Arial" font-size="14.00" fill="#000000">created_at </text>
<text text-anchor="start" x="380.028" y="-86.9" font-family="Arial" font-size="14.00" fill="#666666">[timestamp without time zone]</text>
<polygon fill="none" stroke="#000000" points="303,-45.5 303,-75.5 582,-75.5 582,-45.5 303,-45.5"/>
<text text-anchor="start" x="310" y="-56.9" font-family="Arial" font-size="14.00" fill="#000000">updated_at </text>
<text text-anchor="start" x="383.9326" y="-56.9" font-family="Arial" font-size="14.00" fill="#666666">[timestamp without time zone]</text>
<polygon fill="none" stroke="#000000" stroke-width="3" points="301,-44.5 301,-202.5 583,-202.5 583,-44.5 301,-44.5"/>
</g>
<!-- public.account_workspace -->
<g id="node2" class="node">
<title>public.account_workspace</title>
<polygon fill="#efefef" stroke="transparent" points="43,-415.5 43,-450.5 395,-450.5 395,-415.5 43,-415.5"/>
<polygon fill="none" stroke="#000000" points="43,-415.5 43,-450.5 395,-450.5 395,-415.5 43,-415.5"/>
<text text-anchor="start" x="49.6892" y="-428.3" font-family="Arial Bold" font-size="18.00" fill="#000000">public.account_workspace</text>
<text text-anchor="start" x="260.7428" y="-428.3" font-family="Arial" font-size="14.00" fill="#000000">    </text>
<text text-anchor="start" x="294.9476" y="-428.3" font-family="Arial" font-size="14.00" fill="#666666">[BASE TABLE]</text>
<polygon fill="none" stroke="#000000" points="43,-385.5 43,-415.5 395,-415.5 395,-385.5 43,-385.5"/>
<text text-anchor="start" x="50" y="-396.9" font-family="Arial" font-size="14.00" fill="#000000">account_workspace_id    </text>
<text text-anchor="start" x="226.5778" y="-396.9" font-family="Arial" font-size="14.00" fill="#666666">[bigint]</text>
<polygon fill="none" stroke="#000000" points="43,-355.5 43,-385.5 395,-385.5 395,-355.5 43,-355.5"/>
<text text-anchor="start" x="50" y="-366.9" font-family="Arial" font-size="14.00" fill="#000000">workspace_id    </text>
<text text-anchor="start" x="169.7742" y="-366.9" font-family="Arial" font-size="14.00" fill="#666666">[bigint]</text>
<polygon fill="none" stroke="#000000" points="43,-325.5 43,-355.5 395,-355.5 395,-325.5 43,-325.5"/>
<text text-anchor="start" x="50" y="-336.9" font-family="Arial" font-size="14.00" fill="#000000">account_id    </text>
<text text-anchor="start" x="151.8976" y="-336.9" font-family="Arial" font-size="14.00" fill="#666666">[bigint]</text>
</g>
<!-- public.account_workspace&#45;&gt;public.workspace -->
<g id="edge1" class="edge">
<title>public.account_workspace:workspace_id&#45;&gt;public.workspace:workspace_id</title>
<path fill="none" stroke="#000000" d="M405.1739,-368.8687C430.3916,-359.4909 414.6966,-311.8582 395,-283 370.2475,-246.7341 327.7525,-283.2659 303,-247 278.8219,-211.5758 260.1111,-150.5 303,-150.5"/>
<polygon fill="#000000" stroke="#000000" points="404.8739,-368.9167 394.2875,-366.0568 399.9369,-369.7083 395,-370.5 395,-370.5 395,-370.5 399.9369,-369.7083 395.7125,-374.9432 404.8739,-368.9167 404.8739,-368.9167"/>
</g>
<!-- public.group_workspace -->
<g id="node3" class="node">
<title>public.group_workspace</title>
<polygon fill="#efefef" stroke="transparent" points="500,-415.5 500,-450.5 835,-450.5 835,-415.5 500,-415.5"/>
<polygon fill="none" stroke="#000000" points="500,-415.5 500,-450.5 835,-450.5 835,-415.5 500,-415.5"/>
<text text-anchor="start" x="506.6942" y="-428.3" font-family="Arial Bold" font-size="18.00" fill="#000000">public.group_workspace</text>
<text text-anchor="start" x="700.7378" y="-428.3" font-family="Arial" font-size="14.00" fill="#000000">    </text>
<text text-anchor="start" x="734.9426" y="-428.3" font-family="Arial" font-size="14.00" fill="#666666">[BASE TABLE]</text>
<polygon fill="none" stroke="#000000" points="500,-385.5 500,-415.5 835,-415.5 835,-385.5 500,-385.5"/>
<text text-anchor="start" x="507" y="-396.9" font-family="Arial" font-size="14.00" fill="#000000">group_workspace_id    </text>
<text text-anchor="start" x="670.3478" y="-396.9" font-family="Arial" font-size="14.00" fill="#666666">[bigint]</text>
<polygon fill="none" stroke="#000000" points="500,-355.5 500,-385.5 835,-385.5 835,-355.5 500,-355.5"/>
<text text-anchor="start" x="507" y="-366.9" font-family="Arial" font-size="14.00" fill="#000000">workspace_id    </text>
<text text-anchor="start" x="626.7742" y="-366.9" font-family="Arial" font-size="14.00" fill="#666666">[bigint]</text>
<polygon fill="none" stroke="#000000" points="500,-325.5 500,-355.5 835,-355.5 835,-325.5 500,-325.5"/>
<text text-anchor="start" x="507" y="-336.9" font-family="Arial" font-size="14.00" fill="#000000">group_id    </text>
<text text-anchor="start" x="595.6676" y="-336.9" font-family="Arial" font-size="14.00" fill="#666666">[bigint]</text>
</g>
<!-- public.group_workspace&#45;&gt;public.workspace -->
<g id="edge2" class="edge">
<title>public.group_workspace:workspace_id&#45;&gt;public.workspace:workspace_id</title>
<path fill="none" stroke="#000000" d="M489.8444,-368.8809C464.7285,-359.5711 480.8948,-312.253 500,-283 521.7643,-249.6756 560.2357,-280.3244 582,-247 605.4522,-211.0911 624.8889,-150.5 582,-150.5"/>
<polygon fill="#000000" stroke="#000000" points="490.1247,-368.9255 499.2915,-374.9439 495.0624,-369.7127 500,-370.5 500,-370.5 500,-370.5 495.0624,-369.7127 500.7085,-366.0561 490.1247,-368.9255 490.1247,-368.9255"/>
</g>
</g>
</svg>
