<?xml version="1.0" encoding="UTF-8" standalone="no"?>
<!DOCTYPE svg PUBLIC "-//W3C//DTD SVG 1.1//EN"
 "http://www.w3.org/Graphics/SVG/1.1/DTD/svg11.dtd">
<!-- Generated by graphviz version 2.40.1 (20161225.0304)
 -->
<!-- Title: public.account_profile Pages: 1 -->
<svg width="888pt" height="1049pt"
 viewBox="0.00 0.00 888.00 1049.00" xmlns="http://www.w3.org/2000/svg" xmlns:xlink="http://www.w3.org/1999/xlink">
<g id="graph0" class="graph" transform="scale(1 1) rotate(0) translate(4 1045)">
<title>public.account_profile</title>
<polygon fill="#ffffff" stroke="transparent" points="-4,4 -4,-1045 884,-1045 884,4 -4,4"/>
<!-- public.account_profile -->
<g id="node1" class="node">
<title>public.account_profile</title>
<polygon fill="#efefef" stroke="transparent" points="267.5,-652.5 267.5,-687.5 582.5,-687.5 582.5,-652.5 267.5,-652.5"/>
<polygon fill="none" stroke="#000000" points="267.5,-652.5 267.5,-687.5 582.5,-687.5 582.5,-652.5 267.5,-652.5"/>
<text text-anchor="start" x="274.1941" y="-665.3" font-family="Arial Bold" font-size="18.00" fill="#000000">public.account_profile</text>
<text text-anchor="start" x="448.2379" y="-665.3" font-family="Arial" font-size="14.00" fill="#000000">    </text>
<text text-anchor="start" x="482.4427" y="-665.3" font-family="Arial" font-size="14.00" fill="#666666">[BASE TABLE]</text>
<polygon fill="none" stroke="#000000" points="267.5,-622.5 267.5,-652.5 582.5,-652.5 582.5,-622.5 267.5,-622.5"/>
<text text-anchor="start" x="274.5" y="-633.9" font-family="Arial" font-size="14.00" fill="#000000">account_profile_id </text>
<text text-anchor="start" x="391.9782" y="-633.9" font-family="Arial" font-size="14.00" fill="#666666">[bigint]</text>
<polygon fill="none" stroke="#000000" points="267.5,-592.5 267.5,-622.5 582.5,-622.5 582.5,-592.5 267.5,-592.5"/>
<text text-anchor="start" x="274.5" y="-603.9" font-family="Arial" font-size="14.00" fill="#000000">account_id </text>
<text text-anchor="start" x="346.0834" y="-603.9" font-family="Arial" font-size="14.00" fill="#666666">[bigint]</text>
<polygon fill="none" stroke="#000000" points="267.5,-562.5 267.5,-592.5 582.5,-592.5 582.5,-562.5 267.5,-562.5"/>
<text text-anchor="start" x="274.5" y="-573.9" font-family="Arial" font-size="14.00" fill="#000000">token </text>
<text text-anchor="start" x="312.629" y="-573.9" font-family="Arial" font-size="14.00" fill="#666666">[varchar(255)]</text>
<polygon fill="none" stroke="#000000" points="267.5,-532.5 267.5,-562.5 582.5,-562.5 582.5,-532.5 267.5,-532.5"/>
<text text-anchor="start" x="274.5" y="-543.9" font-family="Arial" font-size="14.00" fill="#000000">name </text>
<text text-anchor="start" x="313.399" y="-543.9" font-family="Arial" font-size="14.00" fill="#666666">[varchar(255)]</text>
<polygon fill="none" stroke="#000000" points="267.5,-502.5 267.5,-532.5 582.5,-532.5 582.5,-502.5 267.5,-502.5"/>
<text text-anchor="start" x="274.5" y="-513.9" font-family="Arial" font-size="14.00" fill="#000000">affiliation </text>
<text text-anchor="start" x="333.6192" y="-513.9" font-family="Arial" font-size="14.00" fill="#666666">[varchar(255)]</text>
<polygon fill="none" stroke="#000000" points="267.5,-472.5 267.5,-502.5 582.5,-502.5 582.5,-472.5 267.5,-472.5"/>
<text text-anchor="start" x="274.5" y="-483.9" font-family="Arial" font-size="14.00" fill="#000000">bio </text>
<text text-anchor="start" x="297.0624" y="-483.9" font-family="Arial" font-size="14.00" fill="#666666">[text]</text>
<polygon fill="none" stroke="#000000" points="267.5,-442.5 267.5,-472.5 582.5,-472.5 582.5,-442.5 267.5,-442.5"/>
<text text-anchor="start" x="274.5" y="-453.9" font-family="Arial" font-size="14.00" fill="#000000">email </text>
<text text-anchor="start" x="311.8296" y="-453.9" font-family="Arial" font-size="14.00" fill="#666666">[varchar(255)]</text>
<polygon fill="none" stroke="#000000" points="267.5,-412.5 267.5,-442.5 582.5,-442.5 582.5,-412.5 267.5,-412.5"/>
<text text-anchor="start" x="274.5" y="-423.9" font-family="Arial" font-size="14.00" fill="#000000">birthdate </text>
<text text-anchor="start" x="332.852" y="-423.9" font-family="Arial" font-size="14.00" fill="#666666">[timestamp without time zone]</text>
<polygon fill="none" stroke="#000000" points="267.5,-382.5 267.5,-412.5 582.5,-412.5 582.5,-382.5 267.5,-382.5"/>
<text text-anchor="start" x="274.5" y="-393.9" font-family="Arial" font-size="14.00" fill="#000000">gender </text>
<text text-anchor="start" x="321.9642" y="-393.9" font-family="Arial" font-size="14.00" fill="#666666">[integer]</text>
<polygon fill="none" stroke="#000000" points="267.5,-352.5 267.5,-382.5 582.5,-382.5 582.5,-352.5 267.5,-352.5"/>
<text text-anchor="start" x="274.5" y="-363.9" font-family="Arial" font-size="14.00" fill="#000000">created_at </text>
<text text-anchor="start" x="344.528" y="-363.9" font-family="Arial" font-size="14.00" fill="#666666">[timestamp without time zone]</text>
<polygon fill="none" stroke="#000000" points="267.5,-322.5 267.5,-352.5 582.5,-352.5 582.5,-322.5 267.5,-322.5"/>
<text text-anchor="start" x="274.5" y="-333.9" font-family="Arial" font-size="14.00" fill="#000000">updated_at </text>
<text text-anchor="start" x="348.4326" y="-333.9" font-family="Arial" font-size="14.00" fill="#666666">[timestamp without time zone]</text>
<polygon fill="none" stroke="#000000" stroke-width="3" points="265.5,-321.5 265.5,-689.5 583.5,-689.5 583.5,-321.5 265.5,-321.5"/>
</g>
<!-- public.account -->
<g id="node4" class="node">
<title>public.account</title>
<polygon fill="#efefef" stroke="transparent" points="275.5,-162.5 275.5,-197.5 574.5,-197.5 574.5,-162.5 275.5,-162.5"/>
<polygon fill="none" stroke="#000000" points="275.5,-162.5 275.5,-197.5 574.5,-197.5 574.5,-162.5 275.5,-162.5"/>
<text text-anchor="start" x="303.6979" y="-175.3" font-family="Arial Bold" font-size="18.00" fill="#000000">public.account</text>
<text text-anchor="start" x="418.7341" y="-175.3" font-family="Arial" font-size="14.00" fill="#000000">    </text>
<text text-anchor="start" x="452.9389" y="-175.3" font-family="Arial" font-size="14.00" fill="#666666">[BASE TABLE]</text>
<polygon fill="none" stroke="#000000" points="275.5,-132.5 275.5,-162.5 574.5,-162.5 574.5,-132.5 275.5,-132.5"/>
<text text-anchor="start" x="282.5" y="-143.9" font-family="Arial" font-size="14.00" fill="#000000">account_id    </text>
<text text-anchor="start" x="384.3976" y="-143.9" font-family="Arial" font-size="14.00" fill="#666666">[bigint]</text>
<polygon fill="none" stroke="#000000" points="275.5,-102.5 275.5,-132.5 574.5,-132.5 574.5,-102.5 275.5,-102.5"/>
<text text-anchor="start" x="282.5" y="-113.9" font-family="Arial" font-size="14.00" fill="#000000">account_name    </text>
<text text-anchor="start" x="408.5168" y="-113.9" font-family="Arial" font-size="14.00" fill="#666666">[varchar(255)]</text>
<polygon fill="none" stroke="#000000" points="275.5,-72.5 275.5,-102.5 574.5,-102.5 574.5,-72.5 275.5,-72.5"/>
<text text-anchor="start" x="282.5" y="-83.9" font-family="Arial" font-size="14.00" fill="#000000">public_user_id    </text>
<text text-anchor="start" x="406.946" y="-83.9" font-family="Arial" font-size="14.00" fill="#666666">[varchar(255)]</text>
<polygon fill="none" stroke="#000000" points="275.5,-42.5 275.5,-72.5 574.5,-72.5 574.5,-42.5 275.5,-42.5"/>
<text text-anchor="start" x="282.2588" y="-53.9" font-family="Arial" font-size="14.00" fill="#000000">created_at    </text>
<text text-anchor="start" x="382.601" y="-53.9" font-family="Arial" font-size="14.00" fill="#666666">[timestamp without time zone]</text>
</g>
<!-- public.account_profile&#45;&gt;public.account -->
<g id="edge3" class="edge">
<title>public.account_profile:account_id&#45;&gt;public.account:account_id</title>
<path fill="none" stroke="#000000" d="M257.4918,-607.1239C63.3444,-592.3533 74.4193,-147.5 275.5,-147.5"/>
<polygon fill="#000000" stroke="#000000" points="257.5071,-607.1243 267.331,-611.9968 262.5035,-607.3122 267.5,-607.5 267.5,-607.5 267.5,-607.5 262.5035,-607.3122 267.669,-603.0032 257.5071,-607.1243 257.5071,-607.1243"/>
</g>
<!-- public.group_member -->
<g id="node2" class="node">
<title>public.group_member</title>
<polygon fill="#efefef" stroke="transparent" points="43.5,-962.5 43.5,-997.5 358.5,-997.5 358.5,-962.5 43.5,-962.5"/>
<polygon fill="none" stroke="#000000" points="43.5,-962.5 43.5,-997.5 358.5,-997.5 358.5,-962.5 43.5,-962.5"/>
<text text-anchor="start" x="50.2022" y="-975.3" font-family="Arial Bold" font-size="18.00" fill="#000000">public.group_member</text>
<text text-anchor="start" x="224.2298" y="-975.3" font-family="Arial" font-size="14.00" fill="#000000">    </text>
<text text-anchor="start" x="258.4346" y="-975.3" font-family="Arial" font-size="14.00" fill="#666666">[BASE TABLE]</text>
<polygon fill="none" stroke="#000000" points="43.5,-932.5 43.5,-962.5 358.5,-962.5 358.5,-932.5 43.5,-932.5"/>
<text text-anchor="start" x="50.5" y="-943.9" font-family="Arial" font-size="14.00" fill="#000000">group_member_id    </text>
<text text-anchor="start" x="198.2798" y="-943.9" font-family="Arial" font-size="14.00" fill="#666666">[bigint]</text>
<polygon fill="none" stroke="#000000" points="43.5,-902.5 43.5,-932.5 358.5,-932.5 358.5,-902.5 43.5,-902.5"/>
<text text-anchor="start" x="50.5" y="-913.9" font-family="Arial" font-size="14.00" fill="#000000">group_id    </text>
<text text-anchor="start" x="139.1676" y="-913.9" font-family="Arial" font-size="14.00" fill="#666666">[bigint]</text>
<polygon fill="none" stroke="#000000" points="43.5,-872.5 43.5,-902.5 358.5,-902.5 358.5,-872.5 43.5,-872.5"/>
<text text-anchor="start" x="50.5" y="-883.9" font-family="Arial" font-size="14.00" fill="#000000">account_id    </text>
<text text-anchor="start" x="152.3976" y="-883.9" font-family="Arial" font-size="14.00" fill="#666666">[bigint]</text>
<polygon fill="none" stroke="#000000" points="43.5,-842.5 43.5,-872.5 358.5,-872.5 358.5,-842.5 43.5,-842.5"/>
<text text-anchor="start" x="50.5" y="-853.9" font-family="Arial" font-size="14.00" fill="#000000">account_profile_id    </text>
<text text-anchor="start" x="198.2924" y="-853.9" font-family="Arial" font-size="14.00" fill="#666666">[bigint]</text>
<polygon fill="none" stroke="#000000" points="43.5,-812.5 43.5,-842.5 358.5,-842.5 358.5,-812.5 43.5,-812.5"/>
<text text-anchor="start" x="50.5" y="-823.9" font-family="Arial" font-size="14.00" fill="#000000">role    </text>
<text text-anchor="start" x="108.0372" y="-823.9" font-family="Arial" font-size="14.00" fill="#666666">[smallint]</text>
</g>
<!-- public.group_member&#45;&gt;public.account_profile -->
<g id="edge1" class="edge">
<title>public.group_member:account_profile_id&#45;&gt;public.account_profile:account_profile_id</title>
<path fill="none" stroke="#000000" d="M368.6722,-855.8698C393.8807,-846.4984 378.1428,-798.8948 358.5,-770 334.0476,-734.0301 291.9524,-769.9699 267.5,-734 243.3879,-698.5308 224.6111,-637.5 267.5,-637.5"/>
<polygon fill="#000000" stroke="#000000" points="368.374,-855.9175 357.7879,-853.0567 363.437,-856.7088 358.5,-857.5 358.5,-857.5 358.5,-857.5 363.437,-856.7088 359.2121,-861.9433 368.374,-855.9175 368.374,-855.9175"/>
</g>
<!-- public.account_profile_avatar -->
<g id="node3" class="node">
<title>public.account_profile_avatar</title>
<polygon fill="#efefef" stroke="transparent" points="462.5,-962.5 462.5,-997.5 837.5,-997.5 837.5,-962.5 462.5,-962.5"/>
<polygon fill="none" stroke="#000000" points="462.5,-962.5 462.5,-997.5 837.5,-997.5 837.5,-962.5 462.5,-962.5"/>
<text text-anchor="start" x="469.1845" y="-975.3" font-family="Arial Bold" font-size="18.00" fill="#000000">public.account_profile_avatar</text>
<text text-anchor="start" x="703.2475" y="-975.3" font-family="Arial" font-size="14.00" fill="#000000">    </text>
<text text-anchor="start" x="737.4523" y="-975.3" font-family="Arial" font-size="14.00" fill="#666666">[BASE TABLE]</text>
<polygon fill="none" stroke="#000000" points="462.5,-932.5 462.5,-962.5 837.5,-962.5 837.5,-932.5 462.5,-932.5"/>
<text text-anchor="start" x="469.5" y="-943.9" font-family="Arial" font-size="14.00" fill="#000000">account_profile_avatar_id    </text>
<text text-anchor="start" x="663.974" y="-943.9" font-family="Arial" font-size="14.00" fill="#666666">[bigint]</text>
<polygon fill="none" stroke="#000000" points="462.5,-902.5 462.5,-932.5 837.5,-932.5 837.5,-902.5 462.5,-902.5"/>
<text text-anchor="start" x="469.5" y="-913.9" font-family="Arial" font-size="14.00" fill="#000000">account_profile_id    </text>
<text text-anchor="start" x="617.2924" y="-913.9" font-family="Arial" font-size="14.00" fill="#666666">[bigint]</text>
<polygon fill="none" stroke="#000000" points="462.5,-872.5 462.5,-902.5 837.5,-902.5 837.5,-872.5 462.5,-872.5"/>
<text text-anchor="start" x="469.5" y="-883.9" font-family="Arial" font-size="14.00" fill="#000000">file_key    </text>
<text text-anchor="start" x="551.1564" y="-883.9" font-family="Arial" font-size="14.00" fill="#666666">[varchar(255)]</text>
<polygon fill="none" stroke="#000000" points="462.5,-842.5 462.5,-872.5 837.5,-872.5 837.5,-842.5 462.5,-842.5"/>
<text text-anchor="start" x="469.5" y="-853.9" font-family="Arial" font-size="14.00" fill="#000000">mime    </text>
<text text-anchor="start" x="537.9152" y="-853.9" font-family="Arial" font-size="14.00" fill="#666666">[varchar(255)]</text>
<polygon fill="none" stroke="#000000" points="462.5,-812.5 462.5,-842.5 837.5,-842.5 837.5,-812.5 462.5,-812.5"/>
<text text-anchor="start" x="469.5" y="-823.9" font-family="Arial" font-size="14.00" fill="#000000">created_at    </text>
<text text-anchor="start" x="569.8422" y="-823.9" font-family="Arial" font-size="14.00" fill="#666666">[timestamp without time zone]</text>
</g>
<!-- public.account_profile_avatar&#45;&gt;public.account_profile -->
<g id="edge2" class="edge">
<title>public.account_profile_avatar:account_profile_id&#45;&gt;public.account_profile:account_profile_id</title>
<path fill="none" stroke="#000000" d="M452.2315,-916.6115C399.9785,-906.8848 425.5844,-819.6158 462.5,-770 495.7381,-725.327 549.2619,-778.673 582.5,-734 608.1017,-699.5905 625.3889,-637.5 582.5,-637.5"/>
<polygon fill="#000000" stroke="#000000" points="452.5372,-916.6379 462.112,-921.9832 457.5186,-917.0689 462.5,-917.5 462.5,-917.5 462.5,-917.5 457.5186,-917.0689 462.888,-913.0168 452.5372,-916.6379 452.5372,-916.6379"/>
</g>
</g>
</svg>
