<?xml version="1.0" encoding="UTF-8" standalone="no"?>
<!DOCTYPE svg PUBLIC "-//W3C//DTD SVG 1.1//EN"
 "http://www.w3.org/Graphics/SVG/1.1/DTD/svg11.dtd">
<!-- Generated by graphviz version 2.40.1 (20161225.0304)
 -->
<!-- Title: public.account_profile_avatar Pages: 1 -->
<svg width="475pt" height="772pt"
 viewBox="0.00 0.00 475.00 772.00" xmlns="http://www.w3.org/2000/svg" xmlns:xlink="http://www.w3.org/1999/xlink">
<g id="graph0" class="graph" transform="scale(1 1) rotate(0) translate(4 768)">
<title>public.account_profile_avatar</title>
<polygon fill="#ffffff" stroke="transparent" points="-4,4 -4,-768 471,-768 471,4 -4,4"/>
<!-- public.account_profile_avatar -->
<g id="node1" class="node">
<title>public.account_profile_avatar</title>
<polygon fill="#efefef" stroke="transparent" points="46.5,-682.5 46.5,-717.5 421.5,-717.5 421.5,-682.5 46.5,-682.5"/>
<polygon fill="none" stroke="#000000" points="46.5,-682.5 46.5,-717.5 421.5,-717.5 421.5,-682.5 46.5,-682.5"/>
<text text-anchor="start" x="53.1845" y="-695.3" font-family="Arial Bold" font-size="18.00" fill="#000000">public.account_profile_avatar</text>
<text text-anchor="start" x="287.2475" y="-695.3" font-family="Arial" font-size="14.00" fill="#000000">    </text>
<text text-anchor="start" x="321.4523" y="-695.3" font-family="Arial" font-size="14.00" fill="#666666">[BASE TABLE]</text>
<polygon fill="none" stroke="#000000" points="46.5,-652.5 46.5,-682.5 421.5,-682.5 421.5,-652.5 46.5,-652.5"/>
<text text-anchor="start" x="53.5" y="-663.9" font-family="Arial" font-size="14.00" fill="#000000">account_profile_avatar_id </text>
<text text-anchor="start" x="217.6598" y="-663.9" font-family="Arial" font-size="14.00" fill="#666666">[bigint]</text>
<polygon fill="none" stroke="#000000" points="46.5,-622.5 46.5,-652.5 421.5,-652.5 421.5,-622.5 46.5,-622.5"/>
<text text-anchor="start" x="53.5" y="-633.9" font-family="Arial" font-size="14.00" fill="#000000">account_profile_id </text>
<text text-anchor="start" x="170.9782" y="-633.9" font-family="Arial" font-size="14.00" fill="#666666">[bigint]</text>
<polygon fill="none" stroke="#000000" points="46.5,-592.5 46.5,-622.5 421.5,-622.5 421.5,-592.5 46.5,-592.5"/>
<text text-anchor="start" x="53.5" y="-603.9" font-family="Arial" font-size="14.00" fill="#000000">file_key </text>
<text text-anchor="start" x="104.8422" y="-603.9" font-family="Arial" font-size="14.00" fill="#666666">[varchar(255)]</text>
<polygon fill="none" stroke="#000000" points="46.5,-562.5 46.5,-592.5 421.5,-592.5 421.5,-562.5 46.5,-562.5"/>
<text text-anchor="start" x="53.5" y="-573.9" font-family="Arial" font-size="14.00" fill="#000000">mime </text>
<text text-anchor="start" x="91.601" y="-573.9" font-family="Arial" font-size="14.00" fill="#666666">[varchar(255)]</text>
<polygon fill="none" stroke="#000000" points="46.5,-532.5 46.5,-562.5 421.5,-562.5 421.5,-532.5 46.5,-532.5"/>
<text text-anchor="start" x="53.5" y="-543.9" font-family="Arial" font-size="14.00" fill="#000000">created_at </text>
<text text-anchor="start" x="123.528" y="-543.9" font-family="Arial" font-size="14.00" fill="#666666">[timestamp without time zone]</text>
<polygon fill="none" stroke="#000000" stroke-width="3" points="44.5,-531.5 44.5,-719.5 422.5,-719.5 422.5,-531.5 44.5,-531.5"/>
</g>
<!-- public.account_profile -->
<g id="node2" class="node">
<title>public.account_profile</title>
<polygon fill="#efefef" stroke="transparent" points="76.5,-372.5 76.5,-407.5 391.5,-407.5 391.5,-372.5 76.5,-372.5"/>
<polygon fill="none" stroke="#000000" points="76.5,-372.5 76.5,-407.5 391.5,-407.5 391.5,-372.5 76.5,-372.5"/>
<text text-anchor="start" x="83.1941" y="-385.3" font-family="Arial Bold" font-size="18.00" fill="#000000">public.account_profile</text>
<text text-anchor="start" x="257.2379" y="-385.3" font-family="Arial" font-size="14.00" fill="#000000">    </text>
<text text-anchor="start" x="291.4427" y="-385.3" font-family="Arial" font-size="14.00" fill="#666666">[BASE TABLE]</text>
<polygon fill="none" stroke="#000000" points="76.5,-342.5 76.5,-372.5 391.5,-372.5 391.5,-342.5 76.5,-342.5"/>
<text text-anchor="start" x="83.5" y="-353.9" font-family="Arial" font-size="14.00" fill="#000000">account_profile_id    </text>
<text text-anchor="start" x="231.2924" y="-353.9" font-family="Arial" font-size="14.00" fill="#666666">[bigint]</text>
<polygon fill="none" stroke="#000000" points="76.5,-312.5 76.5,-342.5 391.5,-342.5 391.5,-312.5 76.5,-312.5"/>
<text text-anchor="start" x="83.5" y="-323.9" font-family="Arial" font-size="14.00" fill="#000000">account_id    </text>
<text text-anchor="start" x="185.3976" y="-323.9" font-family="Arial" font-size="14.00" fill="#666666">[bigint]</text>
<polygon fill="none" stroke="#000000" points="76.5,-282.5 76.5,-312.5 391.5,-312.5 391.5,-282.5 76.5,-282.5"/>
<text text-anchor="start" x="83.5" y="-293.9" font-family="Arial" font-size="14.00" fill="#000000">token    </text>
<text text-anchor="start" x="151.9432" y="-293.9" font-family="Arial" font-size="14.00" fill="#666666">[varchar(255)]</text>
<polygon fill="none" stroke="#000000" points="76.5,-252.5 76.5,-282.5 391.5,-282.5 391.5,-252.5 76.5,-252.5"/>
<text text-anchor="start" x="83.5" y="-263.9" font-family="Arial" font-size="14.00" fill="#000000">name    </text>
<text text-anchor="start" x="152.7132" y="-263.9" font-family="Arial" font-size="14.00" fill="#666666">[varchar(255)]</text>
<polygon fill="none" stroke="#000000" points="76.5,-222.5 76.5,-252.5 391.5,-252.5 391.5,-222.5 76.5,-222.5"/>
<text text-anchor="start" x="83.5" y="-233.9" font-family="Arial" font-size="14.00" fill="#000000">affiliation    </text>
<text text-anchor="start" x="172.9334" y="-233.9" font-family="Arial" font-size="14.00" fill="#666666">[varchar(255)]</text>
<polygon fill="none" stroke="#000000" points="76.5,-192.5 76.5,-222.5 391.5,-222.5 391.5,-192.5 76.5,-192.5"/>
<text text-anchor="start" x="83.5" y="-203.9" font-family="Arial" font-size="14.00" fill="#000000">bio    </text>
<text text-anchor="start" x="136.3766" y="-203.9" font-family="Arial" font-size="14.00" fill="#666666">[text]</text>
<polygon fill="none" stroke="#000000" points="76.5,-162.5 76.5,-192.5 391.5,-192.5 391.5,-162.5 76.5,-162.5"/>
<text text-anchor="start" x="83.5" y="-173.9" font-family="Arial" font-size="14.00" fill="#000000">email    </text>
<text text-anchor="start" x="151.1438" y="-173.9" font-family="Arial" font-size="14.00" fill="#666666">[varchar(255)]</text>
<polygon fill="none" stroke="#000000" points="76.5,-132.5 76.5,-162.5 391.5,-162.5 391.5,-132.5 76.5,-132.5"/>
<text text-anchor="start" x="83.5" y="-143.9" font-family="Arial" font-size="14.00" fill="#000000">birthdate    </text>
<text text-anchor="start" x="172.1662" y="-143.9" font-family="Arial" font-size="14.00" fill="#666666">[timestamp without time zone]</text>
<polygon fill="none" stroke="#000000" points="76.5,-102.5 76.5,-132.5 391.5,-132.5 391.5,-102.5 76.5,-102.5"/>
<text text-anchor="start" x="83.5" y="-113.9" font-family="Arial" font-size="14.00" fill="#000000">gender    </text>
<text text-anchor="start" x="161.2784" y="-113.9" font-family="Arial" font-size="14.00" fill="#666666">[integer]</text>
<polygon fill="none" stroke="#000000" points="76.5,-72.5 76.5,-102.5 391.5,-102.5 391.5,-72.5 76.5,-72.5"/>
<text text-anchor="start" x="83.5" y="-83.9" font-family="Arial" font-size="14.00" fill="#000000">created_at    </text>
<text text-anchor="start" x="183.8422" y="-83.9" font-family="Arial" font-size="14.00" fill="#666666">[timestamp without time zone]</text>
<polygon fill="none" stroke="#000000" points="76.5,-42.5 76.5,-72.5 391.5,-72.5 391.5,-42.5 76.5,-42.5"/>
<text text-anchor="start" x="83.5" y="-53.9" font-family="Arial" font-size="14.00" fill="#000000">updated_at    </text>
<text text-anchor="start" x="187.7468" y="-53.9" font-family="Arial" font-size="14.00" fill="#666666">[timestamp without time zone]</text>
</g>
<!-- public.account_profile_avatar&#45;&gt;public.account_profile -->
<g id="edge1" class="edge">
<title>public.account_profile_avatar:account_profile_id&#45;&gt;public.account_profile:account_profile_id</title>
<path fill="none" stroke="#000000" d="M36.7467,-634.9069C-12.5754,-606.6795 17.4661,-357.5 76.5,-357.5"/>
<polygon fill="#000000" stroke="#000000" points="36.8357,-634.9305 45.3437,-641.8489 41.6679,-636.2153 46.5,-637.5 46.5,-637.5 46.5,-637.5 41.6679,-636.2153 47.6563,-633.1511 36.8357,-634.9305 36.8357,-634.9305"/>
</g>
</g>
</svg>
