<?xml version="1.0" encoding="UTF-8" standalone="no"?>
<!DOCTYPE svg PUBLIC "-//W3C//DTD SVG 1.1//EN"
 "http://www.w3.org/Graphics/SVG/1.1/DTD/svg11.dtd">
<!-- Generated by graphviz version 2.40.1 (20161225.0304)
 -->
<!-- Title: public.account Pages: 1 -->
<svg width="1285pt" height="952pt"
 viewBox="0.00 0.00 1284.50 952.00" xmlns="http://www.w3.org/2000/svg" xmlns:xlink="http://www.w3.org/1999/xlink">
<g id="graph0" class="graph" transform="scale(1 1) rotate(0) translate(4 948)">
<title>public.account</title>
<polygon fill="#ffffff" stroke="transparent" points="-4,4 -4,-948 1280.5,-948 1280.5,4 -4,4"/>
<!-- public.account -->
<g id="node1" class="node">
<title>public.account</title>
<polygon fill="#efefef" stroke="transparent" points="479.5,-315.5 479.5,-350.5 760.5,-350.5 760.5,-315.5 479.5,-315.5"/>
<polygon fill="none" stroke="#000000" points="479.5,-315.5 479.5,-350.5 760.5,-350.5 760.5,-315.5 479.5,-315.5"/>
<text text-anchor="start" x="498.6979" y="-328.3" font-family="Arial Bold" font-size="18.00" fill="#000000">public.account</text>
<text text-anchor="start" x="613.7341" y="-328.3" font-family="Arial" font-size="14.00" fill="#000000">    </text>
<text text-anchor="start" x="647.9389" y="-328.3" font-family="Arial" font-size="14.00" fill="#666666">[BASE TABLE]</text>
<polygon fill="none" stroke="#000000" points="479.5,-285.5 479.5,-315.5 760.5,-315.5 760.5,-285.5 479.5,-285.5"/>
<text text-anchor="start" x="486.5" y="-296.9" font-family="Arial" font-size="14.00" fill="#000000">account_id </text>
<text text-anchor="start" x="558.0834" y="-296.9" font-family="Arial" font-size="14.00" fill="#666666">[bigint]</text>
<polygon fill="none" stroke="#000000" points="479.5,-255.5 479.5,-285.5 760.5,-285.5 760.5,-255.5 479.5,-255.5"/>
<text text-anchor="start" x="486.5" y="-266.9" font-family="Arial" font-size="14.00" fill="#000000">account_name </text>
<text text-anchor="start" x="582.2026" y="-266.9" font-family="Arial" font-size="14.00" fill="#666666">[varchar(255)]</text>
<polygon fill="none" stroke="#000000" points="479.5,-225.5 479.5,-255.5 760.5,-255.5 760.5,-225.5 479.5,-225.5"/>
<text text-anchor="start" x="486.5" y="-236.9" font-family="Arial" font-size="14.00" fill="#000000">email </text>
<text text-anchor="start" x="523.8296" y="-236.9" font-family="Arial" font-size="14.00" fill="#666666">[varchar(255)]</text>
<polygon fill="none" stroke="#000000" points="479.5,-195.5 479.5,-225.5 760.5,-225.5 760.5,-195.5 479.5,-195.5"/>
<text text-anchor="start" x="486.5" y="-206.9" font-family="Arial" font-size="14.00" fill="#000000">public_user_id </text>
<text text-anchor="start" x="580.6318" y="-206.9" font-family="Arial" font-size="14.00" fill="#666666">[varchar(255)]</text>
<polygon fill="none" stroke="#000000" points="479.5,-165.5 479.5,-195.5 760.5,-195.5 760.5,-165.5 479.5,-165.5"/>
<text text-anchor="start" x="486.5" y="-176.9" font-family="Arial" font-size="14.00" fill="#000000">default_account_profile_id </text>
<text text-anchor="start" x="653.779" y="-176.9" font-family="Arial" font-size="14.00" fill="#666666">[bigint]</text>
<polygon fill="none" stroke="#000000" points="479.5,-135.5 479.5,-165.5 760.5,-165.5 760.5,-135.5 479.5,-135.5"/>
<text text-anchor="start" x="486.5" y="-146.9" font-family="Arial" font-size="14.00" fill="#000000">default_workspace_id </text>
<text text-anchor="start" x="625.7608" y="-146.9" font-family="Arial" font-size="14.00" fill="#666666">[bigint]</text>
<polygon fill="none" stroke="#000000" points="479.5,-105.5 479.5,-135.5 760.5,-135.5 760.5,-105.5 479.5,-105.5"/>
<text text-anchor="start" x="486.5" y="-116.9" font-family="Arial" font-size="14.00" fill="#000000">created_at </text>
<text text-anchor="start" x="556.528" y="-116.9" font-family="Arial" font-size="14.00" fill="#666666">[timestamp without time zone]</text>
<polygon fill="none" stroke="#000000" points="479.5,-75.5 479.5,-105.5 760.5,-105.5 760.5,-75.5 479.5,-75.5"/>
<text text-anchor="start" x="486.195" y="-86.9" font-family="Arial" font-size="14.00" fill="#000000">last_login_at </text>
<text text-anchor="start" x="568.6648" y="-86.9" font-family="Arial" font-size="14.00" fill="#666666">[timestamp without time zone]</text>
<polygon fill="none" stroke="#000000" points="479.5,-45.5 479.5,-75.5 760.5,-75.5 760.5,-45.5 479.5,-45.5"/>
<text text-anchor="start" x="486.5" y="-56.9" font-family="Arial" font-size="14.00" fill="#000000">is_public </text>
<text text-anchor="start" x="544.8408" y="-56.9" font-family="Arial" font-size="14.00" fill="#666666">[boolean]</text>
<polygon fill="none" stroke="#000000" stroke-width="3" points="477.5,-44.5 477.5,-352.5 761.5,-352.5 761.5,-44.5 477.5,-44.5"/>
</g>
<!-- public.account_profile -->
<g id="node2" class="node">
<title>public.account_profile</title>
<polygon fill="#efefef" stroke="transparent" points="43.5,-865.5 43.5,-900.5 358.5,-900.5 358.5,-865.5 43.5,-865.5"/>
<polygon fill="none" stroke="#000000" points="43.5,-865.5 43.5,-900.5 358.5,-900.5 358.5,-865.5 43.5,-865.5"/>
<text text-anchor="start" x="50.1941" y="-878.3" font-family="Arial Bold" font-size="18.00" fill="#000000">public.account_profile</text>
<text text-anchor="start" x="224.2379" y="-878.3" font-family="Arial" font-size="14.00" fill="#000000">    </text>
<text text-anchor="start" x="258.4427" y="-878.3" font-family="Arial" font-size="14.00" fill="#666666">[BASE TABLE]</text>
<polygon fill="none" stroke="#000000" points="43.5,-835.5 43.5,-865.5 358.5,-865.5 358.5,-835.5 43.5,-835.5"/>
<text text-anchor="start" x="50.5" y="-846.9" font-family="Arial" font-size="14.00" fill="#000000">account_profile_id    </text>
<text text-anchor="start" x="198.2924" y="-846.9" font-family="Arial" font-size="14.00" fill="#666666">[bigint]</text>
<polygon fill="none" stroke="#000000" points="43.5,-805.5 43.5,-835.5 358.5,-835.5 358.5,-805.5 43.5,-805.5"/>
<text text-anchor="start" x="50.5" y="-816.9" font-family="Arial" font-size="14.00" fill="#000000">token    </text>
<text text-anchor="start" x="118.9432" y="-816.9" font-family="Arial" font-size="14.00" fill="#666666">[varchar(255)]</text>
<polygon fill="none" stroke="#000000" points="43.5,-775.5 43.5,-805.5 358.5,-805.5 358.5,-775.5 43.5,-775.5"/>
<text text-anchor="start" x="50.5" y="-786.9" font-family="Arial" font-size="14.00" fill="#000000">account_id    </text>
<text text-anchor="start" x="152.3976" y="-786.9" font-family="Arial" font-size="14.00" fill="#666666">[bigint]</text>
<polygon fill="none" stroke="#000000" points="43.5,-745.5 43.5,-775.5 358.5,-775.5 358.5,-745.5 43.5,-745.5"/>
<text text-anchor="start" x="50.5" y="-756.9" font-family="Arial" font-size="14.00" fill="#000000">name    </text>
<text text-anchor="start" x="119.7132" y="-756.9" font-family="Arial" font-size="14.00" fill="#666666">[varchar(255)]</text>
<polygon fill="none" stroke="#000000" points="43.5,-715.5 43.5,-745.5 358.5,-745.5 358.5,-715.5 43.5,-715.5"/>
<text text-anchor="start" x="50.5" y="-726.9" font-family="Arial" font-size="14.00" fill="#000000">affiliation    </text>
<text text-anchor="start" x="139.9334" y="-726.9" font-family="Arial" font-size="14.00" fill="#666666">[varchar(255)]</text>
<polygon fill="none" stroke="#000000" points="43.5,-685.5 43.5,-715.5 358.5,-715.5 358.5,-685.5 43.5,-685.5"/>
<text text-anchor="start" x="50.5" y="-696.9" font-family="Arial" font-size="14.00" fill="#000000">location    </text>
<text text-anchor="start" x="132.939" y="-696.9" font-family="Arial" font-size="14.00" fill="#666666">[varchar(255)]</text>
<polygon fill="none" stroke="#000000" points="43.5,-655.5 43.5,-685.5 358.5,-685.5 358.5,-655.5 43.5,-655.5"/>
<text text-anchor="start" x="50.5" y="-666.9" font-family="Arial" font-size="14.00" fill="#000000">bio    </text>
<text text-anchor="start" x="103.3766" y="-666.9" font-family="Arial" font-size="14.00" fill="#666666">[text]</text>
<polygon fill="none" stroke="#000000" points="43.5,-625.5 43.5,-655.5 358.5,-655.5 358.5,-625.5 43.5,-625.5"/>
<text text-anchor="start" x="50.5" y="-636.9" font-family="Arial" font-size="14.00" fill="#000000">email    </text>
<text text-anchor="start" x="118.1438" y="-636.9" font-family="Arial" font-size="14.00" fill="#666666">[varchar(255)]</text>
<polygon fill="none" stroke="#000000" points="43.5,-595.5 43.5,-625.5 358.5,-625.5 358.5,-595.5 43.5,-595.5"/>
<text text-anchor="start" x="50.5" y="-606.9" font-family="Arial" font-size="14.00" fill="#000000">telno    </text>
<text text-anchor="start" x="115.0498" y="-606.9" font-family="Arial" font-size="14.00" fill="#666666">[varchar(255)]</text>
<polygon fill="none" stroke="#000000" points="43.5,-565.5 43.5,-595.5 358.5,-595.5 358.5,-565.5 43.5,-565.5"/>
<text text-anchor="start" x="50.5" y="-576.9" font-family="Arial" font-size="14.00" fill="#000000">birthdate    </text>
<text text-anchor="start" x="139.1662" y="-576.9" font-family="Arial" font-size="14.00" fill="#666666">[timestamp without time zone]</text>
<polygon fill="none" stroke="#000000" points="43.5,-535.5 43.5,-565.5 358.5,-565.5 358.5,-535.5 43.5,-535.5"/>
<text text-anchor="start" x="50.5" y="-546.9" font-family="Arial" font-size="14.00" fill="#000000">gender    </text>
<text text-anchor="start" x="128.2784" y="-546.9" font-family="Arial" font-size="14.00" fill="#666666">[integer]</text>
<polygon fill="none" stroke="#000000" points="43.5,-505.5 43.5,-535.5 358.5,-535.5 358.5,-505.5 43.5,-505.5"/>
<text text-anchor="start" x="50.5" y="-516.9" font-family="Arial" font-size="14.00" fill="#000000">created_at    </text>
<text text-anchor="start" x="150.8422" y="-516.9" font-family="Arial" font-size="14.00" fill="#666666">[timestamp without time zone]</text>
<polygon fill="none" stroke="#000000" points="43.5,-475.5 43.5,-505.5 358.5,-505.5 358.5,-475.5 43.5,-475.5"/>
<text text-anchor="start" x="50.5" y="-486.9" font-family="Arial" font-size="14.00" fill="#000000">updated_at    </text>
<text text-anchor="start" x="154.7468" y="-486.9" font-family="Arial" font-size="14.00" fill="#666666">[timestamp without time zone]</text>
</g>
<!-- public.account_profile&#45;&gt;public.account -->
<g id="edge1" class="edge">
<title>public.account_profile:account_id&#45;&gt;public.account:account_id</title>
<path fill="none" stroke="#000000" d="M368.5212,-788.8419C434.054,-765.6519 385.8371,-505.8996 409.5,-433 430.0626,-369.6519 412.8982,-300.5 479.5,-300.5"/>
<polygon fill="#000000" stroke="#000000" points="368.3659,-788.8675 357.7654,-786.0604 363.4329,-789.6837 358.5,-790.5 358.5,-790.5 358.5,-790.5 363.4329,-789.6837 359.2346,-794.9396 368.3659,-788.8675 368.3659,-788.8675"/>
</g>
<!-- public.group_member -->
<g id="node3" class="node">
<title>public.group_member</title>
<polygon fill="#efefef" stroke="transparent" points="462.5,-745.5 462.5,-780.5 777.5,-780.5 777.5,-745.5 462.5,-745.5"/>
<polygon fill="none" stroke="#000000" points="462.5,-745.5 462.5,-780.5 777.5,-780.5 777.5,-745.5 462.5,-745.5"/>
<text text-anchor="start" x="469.2022" y="-758.3" font-family="Arial Bold" font-size="18.00" fill="#000000">public.group_member</text>
<text text-anchor="start" x="643.2298" y="-758.3" font-family="Arial" font-size="14.00" fill="#000000">    </text>
<text text-anchor="start" x="677.4346" y="-758.3" font-family="Arial" font-size="14.00" fill="#666666">[BASE TABLE]</text>
<polygon fill="none" stroke="#000000" points="462.5,-715.5 462.5,-745.5 777.5,-745.5 777.5,-715.5 462.5,-715.5"/>
<text text-anchor="start" x="469.5" y="-726.9" font-family="Arial" font-size="14.00" fill="#000000">group_member_id    </text>
<text text-anchor="start" x="617.2798" y="-726.9" font-family="Arial" font-size="14.00" fill="#666666">[bigint]</text>
<polygon fill="none" stroke="#000000" points="462.5,-685.5 462.5,-715.5 777.5,-715.5 777.5,-685.5 462.5,-685.5"/>
<text text-anchor="start" x="469.5" y="-696.9" font-family="Arial" font-size="14.00" fill="#000000">group_id    </text>
<text text-anchor="start" x="558.1676" y="-696.9" font-family="Arial" font-size="14.00" fill="#666666">[bigint]</text>
<polygon fill="none" stroke="#000000" points="462.5,-655.5 462.5,-685.5 777.5,-685.5 777.5,-655.5 462.5,-655.5"/>
<text text-anchor="start" x="469.5" y="-666.9" font-family="Arial" font-size="14.00" fill="#000000">account_id    </text>
<text text-anchor="start" x="571.3976" y="-666.9" font-family="Arial" font-size="14.00" fill="#666666">[bigint]</text>
<polygon fill="none" stroke="#000000" points="462.5,-625.5 462.5,-655.5 777.5,-655.5 777.5,-625.5 462.5,-625.5"/>
<text text-anchor="start" x="469.5" y="-636.9" font-family="Arial" font-size="14.00" fill="#000000">account_profile_id    </text>
<text text-anchor="start" x="617.2924" y="-636.9" font-family="Arial" font-size="14.00" fill="#666666">[bigint]</text>
<polygon fill="none" stroke="#000000" points="462.5,-595.5 462.5,-625.5 777.5,-625.5 777.5,-595.5 462.5,-595.5"/>
<text text-anchor="start" x="469.5" y="-606.9" font-family="Arial" font-size="14.00" fill="#000000">role    </text>
<text text-anchor="start" x="527.0372" y="-606.9" font-family="Arial" font-size="14.00" fill="#666666">[integer]</text>
</g>
<!-- public.group_member&#45;&gt;public.account -->
<g id="edge2" class="edge">
<title>public.group_member:account_id&#45;&gt;public.account:account_id</title>
<path fill="none" stroke="#000000" d="M454.2838,-664.6882C424.002,-617.6162 441.4,-300.5 479.5,-300.5"/>
<polygon fill="#000000" stroke="#000000" points="454.336,-664.7251 459.9013,-674.1738 458.418,-667.6125 462.5,-670.5 462.5,-670.5 462.5,-670.5 458.418,-667.6125 465.0987,-666.8262 454.336,-664.7251 454.336,-664.7251"/>
</g>
<!-- public.account_workspace -->
<g id="node4" class="node">
<title>public.account_workspace</title>
<polygon fill="#efefef" stroke="transparent" points="881.5,-715.5 881.5,-750.5 1233.5,-750.5 1233.5,-715.5 881.5,-715.5"/>
<polygon fill="none" stroke="#000000" points="881.5,-715.5 881.5,-750.5 1233.5,-750.5 1233.5,-715.5 881.5,-715.5"/>
<text text-anchor="start" x="888.1892" y="-728.3" font-family="Arial Bold" font-size="18.00" fill="#000000">public.account_workspace</text>
<text text-anchor="start" x="1099.2428" y="-728.3" font-family="Arial" font-size="14.00" fill="#000000">    </text>
<text text-anchor="start" x="1133.4476" y="-728.3" font-family="Arial" font-size="14.00" fill="#666666">[BASE TABLE]</text>
<polygon fill="none" stroke="#000000" points="881.5,-685.5 881.5,-715.5 1233.5,-715.5 1233.5,-685.5 881.5,-685.5"/>
<text text-anchor="start" x="888.5" y="-696.9" font-family="Arial" font-size="14.00" fill="#000000">account_workspace_id    </text>
<text text-anchor="start" x="1065.0778" y="-696.9" font-family="Arial" font-size="14.00" fill="#666666">[bigint]</text>
<polygon fill="none" stroke="#000000" points="881.5,-655.5 881.5,-685.5 1233.5,-685.5 1233.5,-655.5 881.5,-655.5"/>
<text text-anchor="start" x="888.5" y="-666.9" font-family="Arial" font-size="14.00" fill="#000000">workspace_id    </text>
<text text-anchor="start" x="1008.2742" y="-666.9" font-family="Arial" font-size="14.00" fill="#666666">[bigint]</text>
<polygon fill="none" stroke="#000000" points="881.5,-625.5 881.5,-655.5 1233.5,-655.5 1233.5,-625.5 881.5,-625.5"/>
<text text-anchor="start" x="888.5" y="-636.9" font-family="Arial" font-size="14.00" fill="#000000">account_id    </text>
<text text-anchor="start" x="990.3976" y="-636.9" font-family="Arial" font-size="14.00" fill="#666666">[bigint]</text>
</g>
<!-- public.account_workspace&#45;&gt;public.account -->
<g id="edge3" class="edge">
<title>public.account_workspace:account_id&#45;&gt;public.account:account_id</title>
<path fill="none" stroke="#000000" d="M871.1285,-639.9659C792.2587,-631.2785 861.9256,-518.4123 829.5,-433 805.9349,-370.9272 826.8954,-300.5 760.5,-300.5"/>
<polygon fill="#000000" stroke="#000000" points="871.5132,-639.9856 881.2685,-644.994 876.5066,-640.2428 881.5,-640.5 881.5,-640.5 881.5,-640.5 876.5066,-640.2428 881.7315,-636.006 871.5132,-639.9856 871.5132,-639.9856"/>
</g>
</g>
</svg>
