<?xml version="1.0" encoding="UTF-8" standalone="no"?>
<!DOCTYPE svg PUBLIC "-//W3C//DTD SVG 1.1//EN"
 "http://www.w3.org/Graphics/SVG/1.1/DTD/svg11.dtd">
<!-- Generated by graphviz version 2.40.1 (20161225.0304)
 -->
<!-- Title: public.account_workspace Pages: 1 -->
<svg width="812pt" height="652pt"
 viewBox="0.00 0.00 812.00 652.00" xmlns="http://www.w3.org/2000/svg" xmlns:xlink="http://www.w3.org/1999/xlink">
<g id="graph0" class="graph" transform="scale(1 1) rotate(0) translate(4 648)">
<title>public.account_workspace</title>
<polygon fill="#ffffff" stroke="transparent" points="-4,4 -4,-648 808,-648 808,4 -4,4"/>
<!-- public.account_workspace -->
<g id="node1" class="node">
<title>public.account_workspace</title>
<polygon fill="#efefef" stroke="transparent" points="224.5,-562.5 224.5,-597.5 576.5,-597.5 576.5,-562.5 224.5,-562.5"/>
<polygon fill="none" stroke="#000000" points="224.5,-562.5 224.5,-597.5 576.5,-597.5 576.5,-562.5 224.5,-562.5"/>
<text text-anchor="start" x="231.1892" y="-575.3" font-family="Arial Bold" font-size="18.00" fill="#000000">public.account_workspace</text>
<text text-anchor="start" x="442.2428" y="-575.3" font-family="Arial" font-size="14.00" fill="#000000">    </text>
<text text-anchor="start" x="476.4476" y="-575.3" font-family="Arial" font-size="14.00" fill="#666666">[BASE TABLE]</text>
<polygon fill="none" stroke="#000000" points="224.5,-532.5 224.5,-562.5 576.5,-562.5 576.5,-532.5 224.5,-532.5"/>
<text text-anchor="start" x="231.5" y="-543.9" font-family="Arial" font-size="14.00" fill="#000000">account_workspace_id </text>
<text text-anchor="start" x="377.7636" y="-543.9" font-family="Arial" font-size="14.00" fill="#666666">[bigint]</text>
<polygon fill="none" stroke="#000000" points="224.5,-502.5 224.5,-532.5 576.5,-532.5 576.5,-502.5 224.5,-502.5"/>
<text text-anchor="start" x="231.5" y="-513.9" font-family="Arial" font-size="14.00" fill="#000000">workspace_id </text>
<text text-anchor="start" x="320.96" y="-513.9" font-family="Arial" font-size="14.00" fill="#666666">[bigint]</text>
<polygon fill="none" stroke="#000000" points="224.5,-472.5 224.5,-502.5 576.5,-502.5 576.5,-472.5 224.5,-472.5"/>
<text text-anchor="start" x="231.5" y="-483.9" font-family="Arial" font-size="14.00" fill="#000000">account_id </text>
<text text-anchor="start" x="303.0834" y="-483.9" font-family="Arial" font-size="14.00" fill="#666666">[bigint]</text>
<polygon fill="none" stroke="#000000" stroke-width="3" points="223,-471.5 223,-599.5 578,-599.5 578,-471.5 223,-471.5"/>
</g>
<!-- public.workspace -->
<g id="node2" class="node">
<title>public.workspace</title>
<polygon fill="#efefef" stroke="transparent" points="43.5,-252.5 43.5,-287.5 346.5,-287.5 346.5,-252.5 43.5,-252.5"/>
<polygon fill="none" stroke="#000000" points="43.5,-252.5 43.5,-287.5 346.5,-287.5 346.5,-252.5 43.5,-252.5"/>
<text text-anchor="start" x="62.2058" y="-265.3" font-family="Arial Bold" font-size="18.00" fill="#000000">public.workspace</text>
<text text-anchor="start" x="200.2262" y="-265.3" font-family="Arial" font-size="14.00" fill="#000000">    </text>
<text text-anchor="start" x="234.431" y="-265.3" font-family="Arial" font-size="14.00" fill="#666666">[BASE TABLE]</text>
<polygon fill="none" stroke="#000000" points="43.5,-222.5 43.5,-252.5 346.5,-252.5 346.5,-222.5 43.5,-222.5"/>
<text text-anchor="start" x="50.5" y="-233.9" font-family="Arial" font-size="14.00" fill="#000000">workspace_id    </text>
<text text-anchor="start" x="170.2742" y="-233.9" font-family="Arial" font-size="14.00" fill="#666666">[bigint]</text>
<polygon fill="none" stroke="#000000" points="43.5,-192.5 43.5,-222.5 346.5,-222.5 346.5,-192.5 43.5,-192.5"/>
<text text-anchor="start" x="50.5" y="-203.9" font-family="Arial" font-size="14.00" fill="#000000">workspace_name    </text>
<text text-anchor="start" x="194.3934" y="-203.9" font-family="Arial" font-size="14.00" fill="#666666">[varchar(255)]</text>
<polygon fill="none" stroke="#000000" points="43.5,-162.5 43.5,-192.5 346.5,-192.5 346.5,-162.5 43.5,-162.5"/>
<text text-anchor="start" x="50.5" y="-173.9" font-family="Arial" font-size="14.00" fill="#000000">name    </text>
<text text-anchor="start" x="119.7132" y="-173.9" font-family="Arial" font-size="14.00" fill="#666666">[varchar(255)]</text>
<polygon fill="none" stroke="#000000" points="43.5,-132.5 43.5,-162.5 346.5,-162.5 346.5,-132.5 43.5,-132.5"/>
<text text-anchor="start" x="50.5" y="-143.9" font-family="Arial" font-size="14.00" fill="#000000">created_at    </text>
<text text-anchor="start" x="150.8422" y="-143.9" font-family="Arial" font-size="14.00" fill="#666666">[timestamp without time zone]</text>
<polygon fill="none" stroke="#000000" points="43.5,-102.5 43.5,-132.5 346.5,-132.5 346.5,-102.5 43.5,-102.5"/>
<text text-anchor="start" x="50.3065" y="-113.9" font-family="Arial" font-size="14.00" fill="#000000">updated_at    </text>
<text text-anchor="start" x="154.5533" y="-113.9" font-family="Arial" font-size="14.00" fill="#666666">[timestamp without time zone]</text>
</g>
<!-- public.account_workspace&#45;&gt;public.workspace -->
<g id="edge1" class="edge">
<title>public.account_workspace:workspace_id&#45;&gt;public.workspace:workspace_id</title>
<path fill="none" stroke="#000000" d="M214.4517,-516.0134C188.6537,-507.064 208.6462,-459.6486 224.5,-427 254.6384,-364.9342 316.3616,-393.0658 346.5,-331 364.652,-293.6186 388.0556,-237.5 346.5,-237.5"/>
<polygon fill="#000000" stroke="#000000" points="214.6077,-516.0364 223.8414,-521.9515 219.5538,-516.7682 224.5,-517.5 224.5,-517.5 224.5,-517.5 219.5538,-516.7682 225.1586,-513.0485 214.6077,-516.0364 214.6077,-516.0364"/>
</g>
<!-- public.account -->
<g id="node3" class="node">
<title>public.account</title>
<polygon fill="#efefef" stroke="transparent" points="450.5,-312.5 450.5,-347.5 761.5,-347.5 761.5,-312.5 450.5,-312.5"/>
<polygon fill="none" stroke="#000000" points="450.5,-312.5 450.5,-347.5 761.5,-347.5 761.5,-312.5 450.5,-312.5"/>
<text text-anchor="start" x="484.6979" y="-325.3" font-family="Arial Bold" font-size="18.00" fill="#000000">public.account</text>
<text text-anchor="start" x="599.7341" y="-325.3" font-family="Arial" font-size="14.00" fill="#000000">    </text>
<text text-anchor="start" x="633.9389" y="-325.3" font-family="Arial" font-size="14.00" fill="#666666">[BASE TABLE]</text>
<polygon fill="none" stroke="#000000" points="450.5,-282.5 450.5,-312.5 761.5,-312.5 761.5,-282.5 450.5,-282.5"/>
<text text-anchor="start" x="457.5" y="-293.9" font-family="Arial" font-size="14.00" fill="#000000">account_id    </text>
<text text-anchor="start" x="559.3976" y="-293.9" font-family="Arial" font-size="14.00" fill="#666666">[bigint]</text>
<polygon fill="none" stroke="#000000" points="450.5,-252.5 450.5,-282.5 761.5,-282.5 761.5,-252.5 450.5,-252.5"/>
<text text-anchor="start" x="457.5" y="-263.9" font-family="Arial" font-size="14.00" fill="#000000">account_name    </text>
<text text-anchor="start" x="583.5168" y="-263.9" font-family="Arial" font-size="14.00" fill="#666666">[varchar(255)]</text>
<polygon fill="none" stroke="#000000" points="450.5,-222.5 450.5,-252.5 761.5,-252.5 761.5,-222.5 450.5,-222.5"/>
<text text-anchor="start" x="457.5" y="-233.9" font-family="Arial" font-size="14.00" fill="#000000">email    </text>
<text text-anchor="start" x="525.1438" y="-233.9" font-family="Arial" font-size="14.00" fill="#666666">[varchar(255)]</text>
<polygon fill="none" stroke="#000000" points="450.5,-192.5 450.5,-222.5 761.5,-222.5 761.5,-192.5 450.5,-192.5"/>
<text text-anchor="start" x="457.5" y="-203.9" font-family="Arial" font-size="14.00" fill="#000000">public_user_id    </text>
<text text-anchor="start" x="581.946" y="-203.9" font-family="Arial" font-size="14.00" fill="#666666">[varchar(255)]</text>
<polygon fill="none" stroke="#000000" points="450.5,-162.5 450.5,-192.5 761.5,-192.5 761.5,-162.5 450.5,-162.5"/>
<text text-anchor="start" x="457.5" y="-173.9" font-family="Arial" font-size="14.00" fill="#000000">default_account_profile_id    </text>
<text text-anchor="start" x="655.0932" y="-173.9" font-family="Arial" font-size="14.00" fill="#666666">[bigint]</text>
<polygon fill="none" stroke="#000000" points="450.5,-132.5 450.5,-162.5 761.5,-162.5 761.5,-132.5 450.5,-132.5"/>
<text text-anchor="start" x="457.5" y="-143.9" font-family="Arial" font-size="14.00" fill="#000000">default_workspace_id    </text>
<text text-anchor="start" x="627.075" y="-143.9" font-family="Arial" font-size="14.00" fill="#666666">[bigint]</text>
<polygon fill="none" stroke="#000000" points="450.5,-102.5 450.5,-132.5 761.5,-132.5 761.5,-102.5 450.5,-102.5"/>
<text text-anchor="start" x="457.5" y="-113.9" font-family="Arial" font-size="14.00" fill="#000000">created_at    </text>
<text text-anchor="start" x="557.8422" y="-113.9" font-family="Arial" font-size="14.00" fill="#666666">[timestamp without time zone]</text>
<polygon fill="none" stroke="#000000" points="450.5,-72.5 450.5,-102.5 761.5,-102.5 761.5,-72.5 450.5,-72.5"/>
<text text-anchor="start" x="457.0379" y="-83.9" font-family="Arial" font-size="14.00" fill="#000000">last_login_at    </text>
<text text-anchor="start" x="569.8219" y="-83.9" font-family="Arial" font-size="14.00" fill="#666666">[timestamp without time zone]</text>
<polygon fill="none" stroke="#000000" points="450.5,-42.5 450.5,-72.5 761.5,-72.5 761.5,-42.5 450.5,-42.5"/>
<text text-anchor="start" x="457.5" y="-53.9" font-family="Arial" font-size="14.00" fill="#000000">is_public    </text>
<text text-anchor="start" x="546.155" y="-53.9" font-family="Arial" font-size="14.00" fill="#666666">[boolean]</text>
</g>
<!-- public.account_workspace&#45;&gt;public.account -->
<g id="edge2" class="edge">
<title>public.account_workspace:account_id&#45;&gt;public.account:account_id</title>
<path fill="none" stroke="#000000" d="M586.4737,-484.857C599.9121,-475.731 590.1623,-445.1125 576.5,-427 541.4276,-380.5035 485.5724,-437.4965 450.5,-391 425.4754,-357.8242 408.9444,-297.5 450.5,-297.5"/>
<polygon fill="#000000" stroke="#000000" points="586.1664,-484.9384 575.3473,-483.1501 581.3332,-486.2192 576.5,-487.5 576.5,-487.5 576.5,-487.5 581.3332,-486.2192 577.6527,-491.8499 586.1664,-484.9384 586.1664,-484.9384"/>
</g>
</g>
</svg>
