<?xml version="1.0" encoding="UTF-8" standalone="no"?>
<!DOCTYPE svg PUBLIC "-//W3C//DTD SVG 1.1//EN"
 "http://www.w3.org/Graphics/SVG/1.1/DTD/svg11.dtd">
<!-- Generated by graphviz version 2.40.1 (20161225.0304)
 -->
<!-- Title: public.account_profile Pages: 1 -->
<svg width="442pt" height="1019pt"
 viewBox="0.00 0.00 442.16 1019.00" xmlns="http://www.w3.org/2000/svg" xmlns:xlink="http://www.w3.org/1999/xlink">
<g id="graph0" class="graph" transform="scale(1 1) rotate(0) translate(4 1015)">
<title>public.account_profile</title>
<polygon fill="#ffffff" stroke="transparent" points="-4,4 -4,-1015 438.1633,-1015 438.1633,4 -4,4"/>
<!-- public.account_profile -->
<g id="node1" class="node">
<title>public.account_profile</title>
<polygon fill="#efefef" stroke="transparent" points="73.6633,-622.5 73.6633,-657.5 388.6633,-657.5 388.6633,-622.5 73.6633,-622.5"/>
<polygon fill="none" stroke="#000000" points="73.6633,-622.5 73.6633,-657.5 388.6633,-657.5 388.6633,-622.5 73.6633,-622.5"/>
<text text-anchor="start" x="80.3574" y="-635.3" font-family="Arial Bold" font-size="18.00" fill="#000000">public.account_profile</text>
<text text-anchor="start" x="254.4012" y="-635.3" font-family="Arial" font-size="14.00" fill="#000000">    </text>
<text text-anchor="start" x="288.606" y="-635.3" font-family="Arial" font-size="14.00" fill="#666666">[BASE TABLE]</text>
<polygon fill="none" stroke="#000000" points="73.6633,-592.5 73.6633,-622.5 388.6633,-622.5 388.6633,-592.5 73.6633,-592.5"/>
<text text-anchor="start" x="80.6633" y="-603.9" font-family="Arial" font-size="14.00" fill="#000000">account_profile_id </text>
<text text-anchor="start" x="198.1415" y="-603.9" font-family="Arial" font-size="14.00" fill="#666666">[bigint]</text>
<polygon fill="none" stroke="#000000" points="73.6633,-562.5 73.6633,-592.5 388.6633,-592.5 388.6633,-562.5 73.6633,-562.5"/>
<text text-anchor="start" x="80.6633" y="-573.9" font-family="Arial" font-size="14.00" fill="#000000">account_id </text>
<text text-anchor="start" x="152.2467" y="-573.9" font-family="Arial" font-size="14.00" fill="#666666">[bigint]</text>
<polygon fill="none" stroke="#000000" points="73.6633,-532.5 73.6633,-562.5 388.6633,-562.5 388.6633,-532.5 73.6633,-532.5"/>
<text text-anchor="start" x="80.6633" y="-543.9" font-family="Arial" font-size="14.00" fill="#000000">name </text>
<text text-anchor="start" x="119.5623" y="-543.9" font-family="Arial" font-size="14.00" fill="#666666">[varchar(255)]</text>
<polygon fill="none" stroke="#000000" points="73.6633,-502.5 73.6633,-532.5 388.6633,-532.5 388.6633,-502.5 73.6633,-502.5"/>
<text text-anchor="start" x="80.6633" y="-513.9" font-family="Arial" font-size="14.00" fill="#000000">affiliation </text>
<text text-anchor="start" x="139.7825" y="-513.9" font-family="Arial" font-size="14.00" fill="#666666">[varchar(255)]</text>
<polygon fill="none" stroke="#000000" points="73.6633,-472.5 73.6633,-502.5 388.6633,-502.5 388.6633,-472.5 73.6633,-472.5"/>
<text text-anchor="start" x="80.6633" y="-483.9" font-family="Arial" font-size="14.00" fill="#000000">bio </text>
<text text-anchor="start" x="103.2257" y="-483.9" font-family="Arial" font-size="14.00" fill="#666666">[text]</text>
<polygon fill="none" stroke="#000000" points="73.6633,-442.5 73.6633,-472.5 388.6633,-472.5 388.6633,-442.5 73.6633,-442.5"/>
<text text-anchor="start" x="80.6633" y="-453.9" font-family="Arial" font-size="14.00" fill="#000000">email </text>
<text text-anchor="start" x="117.9929" y="-453.9" font-family="Arial" font-size="14.00" fill="#666666">[varchar(255)]</text>
<polygon fill="none" stroke="#000000" points="73.6633,-412.5 73.6633,-442.5 388.6633,-442.5 388.6633,-412.5 73.6633,-412.5"/>
<text text-anchor="start" x="80.6633" y="-423.9" font-family="Arial" font-size="14.00" fill="#000000">birthdate </text>
<text text-anchor="start" x="139.0153" y="-423.9" font-family="Arial" font-size="14.00" fill="#666666">[timestamp without time zone]</text>
<polygon fill="none" stroke="#000000" points="73.6633,-382.5 73.6633,-412.5 388.6633,-412.5 388.6633,-382.5 73.6633,-382.5"/>
<text text-anchor="start" x="80.6633" y="-393.9" font-family="Arial" font-size="14.00" fill="#000000">gender </text>
<text text-anchor="start" x="128.1275" y="-393.9" font-family="Arial" font-size="14.00" fill="#666666">[smallint]</text>
<polygon fill="none" stroke="#000000" points="73.6633,-352.5 73.6633,-382.5 388.6633,-382.5 388.6633,-352.5 73.6633,-352.5"/>
<text text-anchor="start" x="80.6633" y="-363.9" font-family="Arial" font-size="14.00" fill="#000000">created_at </text>
<text text-anchor="start" x="150.6913" y="-363.9" font-family="Arial" font-size="14.00" fill="#666666">[timestamp without time zone]</text>
<polygon fill="none" stroke="#000000" points="73.6633,-322.5 73.6633,-352.5 388.6633,-352.5 388.6633,-322.5 73.6633,-322.5"/>
<text text-anchor="start" x="80.6633" y="-333.9" font-family="Arial" font-size="14.00" fill="#000000">updated_at </text>
<text text-anchor="start" x="154.5959" y="-333.9" font-family="Arial" font-size="14.00" fill="#666666">[timestamp without time zone]</text>
<polygon fill="none" stroke="#000000" stroke-width="3" points="71.6633,-321.5 71.6633,-659.5 389.6633,-659.5 389.6633,-321.5 71.6633,-321.5"/>
</g>
<!-- public.account -->
<g id="node3" class="node">
<title>public.account</title>
<polygon fill="#efefef" stroke="transparent" points="81.6633,-162.5 81.6633,-197.5 380.6633,-197.5 380.6633,-162.5 81.6633,-162.5"/>
<polygon fill="none" stroke="#000000" points="81.6633,-162.5 81.6633,-197.5 380.6633,-197.5 380.6633,-162.5 81.6633,-162.5"/>
<text text-anchor="start" x="109.8612" y="-175.3" font-family="Arial Bold" font-size="18.00" fill="#000000">public.account</text>
<text text-anchor="start" x="224.8974" y="-175.3" font-family="Arial" font-size="14.00" fill="#000000">    </text>
<text text-anchor="start" x="259.1022" y="-175.3" font-family="Arial" font-size="14.00" fill="#666666">[BASE TABLE]</text>
<polygon fill="none" stroke="#000000" points="81.6633,-132.5 81.6633,-162.5 380.6633,-162.5 380.6633,-132.5 81.6633,-132.5"/>
<text text-anchor="start" x="88.6633" y="-143.9" font-family="Arial" font-size="14.00" fill="#000000">account_id    </text>
<text text-anchor="start" x="190.5609" y="-143.9" font-family="Arial" font-size="14.00" fill="#666666">[bigint]</text>
<polygon fill="none" stroke="#000000" points="81.6633,-102.5 81.6633,-132.5 380.6633,-132.5 380.6633,-102.5 81.6633,-102.5"/>
<text text-anchor="start" x="88.6633" y="-113.9" font-family="Arial" font-size="14.00" fill="#000000">account_name    </text>
<text text-anchor="start" x="214.6801" y="-113.9" font-family="Arial" font-size="14.00" fill="#666666">[varchar(255)]</text>
<polygon fill="none" stroke="#000000" points="81.6633,-72.5 81.6633,-102.5 380.6633,-102.5 380.6633,-72.5 81.6633,-72.5"/>
<text text-anchor="start" x="88.6633" y="-83.9" font-family="Arial" font-size="14.00" fill="#000000">user_subject    </text>
<text text-anchor="start" x="202.2215" y="-83.9" font-family="Arial" font-size="14.00" fill="#666666">[varchar(255)]</text>
<polygon fill="none" stroke="#000000" points="81.6633,-42.5 81.6633,-72.5 380.6633,-72.5 380.6633,-42.5 81.6633,-42.5"/>
<text text-anchor="start" x="88.4221" y="-53.9" font-family="Arial" font-size="14.00" fill="#000000">created_at    </text>
<text text-anchor="start" x="188.7643" y="-53.9" font-family="Arial" font-size="14.00" fill="#666666">[timestamp without time zone]</text>
</g>
<!-- public.account_profile&#45;&gt;public.account -->
<g id="edge2" class="edge">
<title>public.account_profile:account_id&#45;&gt;public.account:account_id</title>
<path fill="none" stroke="#000000" d="M63.7083,-575.8564C-21.2164,-546.9872 -10.4555,-147.5 81.6633,-147.5"/>
<polygon fill="#000000" stroke="#000000" points="63.7968,-575.8709 72.9302,-581.9399 68.73,-576.6855 73.6633,-577.5 73.6633,-577.5 73.6633,-577.5 68.73,-576.6855 74.3963,-573.0601 63.7968,-575.8709 63.7968,-575.8709"/>
</g>
<!-- public.group_member -->
<g id="node2" class="node">
<title>public.group_member</title>
<polygon fill="#efefef" stroke="transparent" points="73.6633,-932.5 73.6633,-967.5 388.6633,-967.5 388.6633,-932.5 73.6633,-932.5"/>
<polygon fill="none" stroke="#000000" points="73.6633,-932.5 73.6633,-967.5 388.6633,-967.5 388.6633,-932.5 73.6633,-932.5"/>
<text text-anchor="start" x="80.3655" y="-945.3" font-family="Arial Bold" font-size="18.00" fill="#000000">public.group_member</text>
<text text-anchor="start" x="254.3931" y="-945.3" font-family="Arial" font-size="14.00" fill="#000000">    </text>
<text text-anchor="start" x="288.5979" y="-945.3" font-family="Arial" font-size="14.00" fill="#666666">[BASE TABLE]</text>
<polygon fill="none" stroke="#000000" points="73.6633,-902.5 73.6633,-932.5 388.6633,-932.5 388.6633,-902.5 73.6633,-902.5"/>
<text text-anchor="start" x="80.6633" y="-913.9" font-family="Arial" font-size="14.00" fill="#000000">group_member_id    </text>
<text text-anchor="start" x="228.4431" y="-913.9" font-family="Arial" font-size="14.00" fill="#666666">[bigint]</text>
<polygon fill="none" stroke="#000000" points="73.6633,-872.5 73.6633,-902.5 388.6633,-902.5 388.6633,-872.5 73.6633,-872.5"/>
<text text-anchor="start" x="80.6633" y="-883.9" font-family="Arial" font-size="14.00" fill="#000000">group_id    </text>
<text text-anchor="start" x="169.3309" y="-883.9" font-family="Arial" font-size="14.00" fill="#666666">[bigint]</text>
<polygon fill="none" stroke="#000000" points="73.6633,-842.5 73.6633,-872.5 388.6633,-872.5 388.6633,-842.5 73.6633,-842.5"/>
<text text-anchor="start" x="80.6633" y="-853.9" font-family="Arial" font-size="14.00" fill="#000000">account_id    </text>
<text text-anchor="start" x="182.5609" y="-853.9" font-family="Arial" font-size="14.00" fill="#666666">[bigint]</text>
<polygon fill="none" stroke="#000000" points="73.6633,-812.5 73.6633,-842.5 388.6633,-842.5 388.6633,-812.5 73.6633,-812.5"/>
<text text-anchor="start" x="80.6633" y="-823.9" font-family="Arial" font-size="14.00" fill="#000000">account_profile_id    </text>
<text text-anchor="start" x="228.4557" y="-823.9" font-family="Arial" font-size="14.00" fill="#666666">[bigint]</text>
<polygon fill="none" stroke="#000000" points="73.6633,-782.5 73.6633,-812.5 388.6633,-812.5 388.6633,-782.5 73.6633,-782.5"/>
<text text-anchor="start" x="80.6633" y="-793.9" font-family="Arial" font-size="14.00" fill="#000000">role    </text>
<text text-anchor="start" x="138.2005" y="-793.9" font-family="Arial" font-size="14.00" fill="#666666">[smallint]</text>
</g>
<!-- public.group_member&#45;&gt;public.account_profile -->
<g id="edge1" class="edge">
<title>public.group_member:account_profile_id&#45;&gt;public.account_profile:account_profile_id</title>
<path fill="none" stroke="#000000" d="M63.4473,-826.6591C-23.9869,-811.8888 -20.5815,-607.5 73.6633,-607.5"/>
<polygon fill="#000000" stroke="#000000" points="63.697,-826.6795 73.294,-831.9848 68.6801,-827.0898 73.6633,-827.5 73.6633,-827.5 73.6633,-827.5 68.6801,-827.0898 74.0325,-823.0152 63.697,-826.6795 63.697,-826.6795"/>
</g>
</g>
</svg>
