<?xml version="1.0" encoding="UTF-8" standalone="no"?>
<!DOCTYPE svg PUBLIC "-//W3C//DTD SVG 1.1//EN"
 "http://www.w3.org/Graphics/SVG/1.1/DTD/svg11.dtd">
<!-- Generated by graphviz version 2.40.1 (20161225.0304)
 -->
<!-- Title: public.workspace Pages: 1 -->
<svg width="886pt" height="532pt"
 viewBox="0.00 0.00 885.50 532.00" xmlns="http://www.w3.org/2000/svg" xmlns:xlink="http://www.w3.org/1999/xlink">
<g id="graph0" class="graph" transform="scale(1 1) rotate(0) translate(4 528)">
<title>public.workspace</title>
<polygon fill="#ffffff" stroke="transparent" points="-4,4 -4,-528 881.5,-528 881.5,4 -4,4"/>
<!-- public.workspace -->
<g id="node1" class="node">
<title>public.workspace</title>
<polygon fill="#efefef" stroke="transparent" points="303,-195.5 303,-230.5 582,-230.5 582,-195.5 303,-195.5"/>
<polygon fill="none" stroke="#000000" points="303,-195.5 303,-230.5 582,-230.5 582,-195.5 303,-195.5"/>
<text text-anchor="start" x="309.7058" y="-208.3" font-family="Arial Bold" font-size="18.00" fill="#000000">public.workspace</text>
<text text-anchor="start" x="447.7262" y="-208.3" font-family="Arial" font-size="14.00" fill="#000000">    </text>
<text text-anchor="start" x="481.931" y="-208.3" font-family="Arial" font-size="14.00" fill="#666666">[BASE TABLE]</text>
<polygon fill="none" stroke="#000000" points="303,-165.5 303,-195.5 582,-195.5 582,-165.5 303,-165.5"/>
<text text-anchor="start" x="310" y="-176.9" font-family="Arial" font-size="14.00" fill="#000000">workspace_id </text>
<text text-anchor="start" x="399.46" y="-176.9" font-family="Arial" font-size="14.00" fill="#666666">[bigint]</text>
<polygon fill="none" stroke="#000000" points="303,-135.5 303,-165.5 582,-165.5 582,-135.5 303,-135.5"/>
<text text-anchor="start" x="310" y="-146.9" font-family="Arial" font-size="14.00" fill="#000000">workspace_name </text>
<text text-anchor="start" x="423.5792" y="-146.9" font-family="Arial" font-size="14.00" fill="#666666">[varchar(255)]</text>
<polygon fill="none" stroke="#000000" points="303,-105.5 303,-135.5 582,-135.5 582,-105.5 303,-105.5"/>
<text text-anchor="start" x="310" y="-116.9" font-family="Arial" font-size="14.00" fill="#000000">name </text>
<text text-anchor="start" x="348.899" y="-116.9" font-family="Arial" font-size="14.00" fill="#666666">[varchar(255)]</text>
<polygon fill="none" stroke="#000000" points="303,-75.5 303,-105.5 582,-105.5 582,-75.5 303,-75.5"/>
<text text-anchor="start" x="310" y="-86.9" font-family="Arial" font-size="14.00" fill="#000000">created_at </text>
<text text-anchor="start" x="380.028" y="-86.9" font-family="Arial" font-size="14.00" fill="#666666">[timestamp without time zone]</text>
<polygon fill="none" stroke="#000000" points="303,-45.5 303,-75.5 582,-75.5 582,-45.5 303,-45.5"/>
<text text-anchor="start" x="310" y="-56.9" font-family="Arial" font-size="14.00" fill="#000000">updated_at </text>
<text text-anchor="start" x="383.9326" y="-56.9" font-family="Arial" font-size="14.00" fill="#666666">[timestamp without time zone]</text>
<polygon fill="none" stroke="#000000" stroke-width="3" points="301,-44.5 301,-232.5 583,-232.5 583,-44.5 301,-44.5"/>
</g>
<!-- public.account_workspace -->
<g id="node2" class="node">
<title>public.account_workspace</title>
<polygon fill="#efefef" stroke="transparent" points="43,-445.5 43,-480.5 395,-480.5 395,-445.5 43,-445.5"/>
<polygon fill="none" stroke="#000000" points="43,-445.5 43,-480.5 395,-480.5 395,-445.5 43,-445.5"/>
<text text-anchor="start" x="49.6892" y="-458.3" font-family="Arial Bold" font-size="18.00" fill="#000000">public.account_workspace</text>
<text text-anchor="start" x="260.7428" y="-458.3" font-family="Arial" font-size="14.00" fill="#000000">    </text>
<text text-anchor="start" x="294.9476" y="-458.3" font-family="Arial" font-size="14.00" fill="#666666">[BASE TABLE]</text>
<polygon fill="none" stroke="#000000" points="43,-415.5 43,-445.5 395,-445.5 395,-415.5 43,-415.5"/>
<text text-anchor="start" x="50" y="-426.9" font-family="Arial" font-size="14.00" fill="#000000">account_workspace_id    </text>
<text text-anchor="start" x="226.5778" y="-426.9" font-family="Arial" font-size="14.00" fill="#666666">[bigint]</text>
<polygon fill="none" stroke="#000000" points="43,-385.5 43,-415.5 395,-415.5 395,-385.5 43,-385.5"/>
<text text-anchor="start" x="50" y="-396.9" font-family="Arial" font-size="14.00" fill="#000000">workspace_id    </text>
<text text-anchor="start" x="169.7742" y="-396.9" font-family="Arial" font-size="14.00" fill="#666666">[bigint]</text>
<polygon fill="none" stroke="#000000" points="43,-355.5 43,-385.5 395,-385.5 395,-355.5 43,-355.5"/>
<text text-anchor="start" x="50" y="-366.9" font-family="Arial" font-size="14.00" fill="#000000">account_id    </text>
<text text-anchor="start" x="151.8976" y="-366.9" font-family="Arial" font-size="14.00" fill="#666666">[bigint]</text>
</g>
<!-- public.account_workspace&#45;&gt;public.workspace -->
<g id="edge1" class="edge">
<title>public.account_workspace:workspace_id&#45;&gt;public.workspace:workspace_id</title>
<path fill="none" stroke="#000000" d="M405.1739,-398.8687C430.3916,-389.4909 414.6966,-341.8582 395,-313 370.2475,-276.7341 327.7525,-313.2659 303,-277 278.8219,-241.5758 260.1111,-180.5 303,-180.5"/>
<polygon fill="#000000" stroke="#000000" points="404.8739,-398.9167 394.2875,-396.0568 399.9369,-399.7083 395,-400.5 395,-400.5 395,-400.5 399.9369,-399.7083 395.7125,-404.9432 404.8739,-398.9167 404.8739,-398.9167"/>
</g>
<!-- public.group_workspace -->
<g id="node3" class="node">
<title>public.group_workspace</title>
<polygon fill="#efefef" stroke="transparent" points="500,-445.5 500,-480.5 835,-480.5 835,-445.5 500,-445.5"/>
<polygon fill="none" stroke="#000000" points="500,-445.5 500,-480.5 835,-480.5 835,-445.5 500,-445.5"/>
<text text-anchor="start" x="506.6942" y="-458.3" font-family="Arial Bold" font-size="18.00" fill="#000000">public.group_workspace</text>
<text text-anchor="start" x="700.7378" y="-458.3" font-family="Arial" font-size="14.00" fill="#000000">    </text>
<text text-anchor="start" x="734.9426" y="-458.3" font-family="Arial" font-size="14.00" fill="#666666">[BASE TABLE]</text>
<polygon fill="none" stroke="#000000" points="500,-415.5 500,-445.5 835,-445.5 835,-415.5 500,-415.5"/>
<text text-anchor="start" x="507" y="-426.9" font-family="Arial" font-size="14.00" fill="#000000">group_workspace_id    </text>
<text text-anchor="start" x="670.3478" y="-426.9" font-family="Arial" font-size="14.00" fill="#666666">[bigint]</text>
<polygon fill="none" stroke="#000000" points="500,-385.5 500,-415.5 835,-415.5 835,-385.5 500,-385.5"/>
<text text-anchor="start" x="507" y="-396.9" font-family="Arial" font-size="14.00" fill="#000000">workspace_id    </text>
<text text-anchor="start" x="626.7742" y="-396.9" font-family="Arial" font-size="14.00" fill="#666666">[bigint]</text>
<polygon fill="none" stroke="#000000" points="500,-355.5 500,-385.5 835,-385.5 835,-355.5 500,-355.5"/>
<text text-anchor="start" x="507" y="-366.9" font-family="Arial" font-size="14.00" fill="#000000">group_id    </text>
<text text-anchor="start" x="595.6676" y="-366.9" font-family="Arial" font-size="14.00" fill="#666666">[bigint]</text>
</g>
<!-- public.group_workspace&#45;&gt;public.workspace -->
<g id="edge2" class="edge">
<title>public.group_workspace:workspace_id&#45;&gt;public.workspace:workspace_id</title>
<path fill="none" stroke="#000000" d="M489.8444,-398.8809C464.7285,-389.5711 480.8948,-342.253 500,-313 521.7643,-279.6756 560.2357,-310.3244 582,-277 605.4522,-241.0911 624.8889,-180.5 582,-180.5"/>
<polygon fill="#000000" stroke="#000000" points="490.1247,-398.9255 499.2915,-404.9439 495.0624,-399.7127 500,-400.5 500,-400.5 500,-400.5 495.0624,-399.7127 500.7085,-396.0561 490.1247,-398.9255 490.1247,-398.9255"/>
</g>
</g>
</svg>
