<?xml version="1.0" encoding="UTF-8" standalone="no"?>
<!DOCTYPE svg PUBLIC "-//W3C//DTD SVG 1.1//EN"
 "http://www.w3.org/Graphics/SVG/1.1/DTD/svg11.dtd">
<!-- Generated by graphviz version 2.40.1 (20161225.0304)
 -->
<!-- Title: public.group_avatar Pages: 1 -->
<svg width="410pt" height="862pt"
 viewBox="0.00 0.00 410.42 862.00" xmlns="http://www.w3.org/2000/svg" xmlns:xlink="http://www.w3.org/1999/xlink">
<g id="graph0" class="graph" transform="scale(1 1) rotate(0) translate(4 858)">
<title>public.group_avatar</title>
<polygon fill="#ffffff" stroke="transparent" points="-4,4 -4,-858 406.4165,-858 406.4165,4 -4,4"/>
<!-- public.group_avatar -->
<g id="node1" class="node">
<title>public.group_avatar</title>
<polygon fill="#efefef" stroke="transparent" points="57.9165,-772.5 57.9165,-807.5 356.9165,-807.5 356.9165,-772.5 57.9165,-772.5"/>
<polygon fill="none" stroke="#000000" points="57.9165,-772.5 57.9165,-807.5 356.9165,-807.5 356.9165,-772.5 57.9165,-772.5"/>
<text text-anchor="start" x="64.6098" y="-785.3" font-family="Arial Bold" font-size="18.00" fill="#000000">public.group_avatar</text>
<text text-anchor="start" x="222.6552" y="-785.3" font-family="Arial" font-size="14.00" fill="#000000">    </text>
<text text-anchor="start" x="256.86" y="-785.3" font-family="Arial" font-size="14.00" fill="#666666">[BASE TABLE]</text>
<polygon fill="none" stroke="#000000" points="57.9165,-742.5 57.9165,-772.5 356.9165,-772.5 356.9165,-742.5 57.9165,-742.5"/>
<text text-anchor="start" x="64.9165" y="-753.9" font-family="Arial" font-size="14.00" fill="#000000">group_avatar_id </text>
<text text-anchor="start" x="169.9515" y="-753.9" font-family="Arial" font-size="14.00" fill="#666666">[bigint]</text>
<polygon fill="none" stroke="#000000" points="57.9165,-712.5 57.9165,-742.5 356.9165,-742.5 356.9165,-712.5 57.9165,-712.5"/>
<text text-anchor="start" x="64.9165" y="-723.9" font-family="Arial" font-size="14.00" fill="#000000">group_id </text>
<text text-anchor="start" x="123.2699" y="-723.9" font-family="Arial" font-size="14.00" fill="#666666">[bigint]</text>
<polygon fill="none" stroke="#000000" points="57.9165,-682.5 57.9165,-712.5 356.9165,-712.5 356.9165,-682.5 57.9165,-682.5"/>
<text text-anchor="start" x="64.9165" y="-693.9" font-family="Arial" font-size="14.00" fill="#000000">file_key </text>
<text text-anchor="start" x="116.2587" y="-693.9" font-family="Arial" font-size="14.00" fill="#666666">[varchar(255)]</text>
<polygon fill="none" stroke="#000000" points="57.9165,-652.5 57.9165,-682.5 356.9165,-682.5 356.9165,-652.5 57.9165,-652.5"/>
<text text-anchor="start" x="64.9165" y="-663.9" font-family="Arial" font-size="14.00" fill="#000000">file_name </text>
<text text-anchor="start" x="129.4845" y="-663.9" font-family="Arial" font-size="14.00" fill="#666666">[varchar(255)]</text>
<polygon fill="none" stroke="#000000" points="57.9165,-622.5 57.9165,-652.5 356.9165,-652.5 356.9165,-622.5 57.9165,-622.5"/>
<text text-anchor="start" x="64.9165" y="-633.9" font-family="Arial" font-size="14.00" fill="#000000">file_size </text>
<text text-anchor="start" x="119.3653" y="-633.9" font-family="Arial" font-size="14.00" fill="#666666">[bigint]</text>
<polygon fill="none" stroke="#000000" points="57.9165,-592.5 57.9165,-622.5 356.9165,-622.5 356.9165,-592.5 57.9165,-592.5"/>
<text text-anchor="start" x="64.9165" y="-603.9" font-family="Arial" font-size="14.00" fill="#000000">content_type </text>
<text text-anchor="start" x="148.9571" y="-603.9" font-family="Arial" font-size="14.00" fill="#666666">[varchar(255)]</text>
<polygon fill="none" stroke="#000000" points="57.9165,-562.5 57.9165,-592.5 356.9165,-592.5 356.9165,-562.5 57.9165,-562.5"/>
<text text-anchor="start" x="64.9165" y="-573.9" font-family="Arial" font-size="14.00" fill="#000000">created_at </text>
<text text-anchor="start" x="134.9445" y="-573.9" font-family="Arial" font-size="14.00" fill="#666666">[timestamp without time zone]</text>
<polygon fill="none" stroke="#000000" stroke-width="3" points="55.9165,-561.5 55.9165,-809.5 357.9165,-809.5 357.9165,-561.5 55.9165,-561.5"/>
</g>
<!-- public.group -->
<g id="node2" class="node">
<title>public.group</title>
<polygon fill="#efefef" stroke="transparent" points="55.9165,-402.5 55.9165,-437.5 358.9165,-437.5 358.9165,-402.5 55.9165,-402.5"/>
<polygon fill="none" stroke="#000000" points="55.9165,-402.5 55.9165,-437.5 358.9165,-437.5 358.9165,-402.5 55.9165,-402.5"/>
<text text-anchor="start" x="94.6194" y="-415.3" font-family="Arial Bold" font-size="18.00" fill="#000000">public.group</text>
<text text-anchor="start" x="192.6456" y="-415.3" font-family="Arial" font-size="14.00" fill="#000000">    </text>
<text text-anchor="start" x="226.8504" y="-415.3" font-family="Arial" font-size="14.00" fill="#666666">[BASE TABLE]</text>
<polygon fill="none" stroke="#000000" points="55.9165,-372.5 55.9165,-402.5 358.9165,-402.5 358.9165,-372.5 55.9165,-372.5"/>
<text text-anchor="start" x="62.9165" y="-383.9" font-family="Arial" font-size="14.00" fill="#000000">group_id    </text>
<text text-anchor="start" x="151.5841" y="-383.9" font-family="Arial" font-size="14.00" fill="#666666">[bigint]</text>
<polygon fill="none" stroke="#000000" points="55.9165,-342.5 55.9165,-372.5 358.9165,-372.5 358.9165,-342.5 55.9165,-342.5"/>
<text text-anchor="start" x="62.9165" y="-353.9" font-family="Arial" font-size="14.00" fill="#000000">group_name    </text>
<text text-anchor="start" x="175.7033" y="-353.9" font-family="Arial" font-size="14.00" fill="#666666">[varchar(255)]</text>
<polygon fill="none" stroke="#000000" points="55.9165,-312.5 55.9165,-342.5 358.9165,-342.5 358.9165,-312.5 55.9165,-312.5"/>
<text text-anchor="start" x="62.9165" y="-323.9" font-family="Arial" font-size="14.00" fill="#000000">name    </text>
<text text-anchor="start" x="132.1297" y="-323.9" font-family="Arial" font-size="14.00" fill="#666666">[varchar(255)]</text>
<polygon fill="none" stroke="#000000" points="55.9165,-282.5 55.9165,-312.5 358.9165,-312.5 358.9165,-282.5 55.9165,-282.5"/>
<text text-anchor="start" x="62.9165" y="-293.9" font-family="Arial" font-size="14.00" fill="#000000">description    </text>
<text text-anchor="start" x="164.7987" y="-293.9" font-family="Arial" font-size="14.00" fill="#666666">[text]</text>
<polygon fill="none" stroke="#000000" points="55.9165,-252.5 55.9165,-282.5 358.9165,-282.5 358.9165,-252.5 55.9165,-252.5"/>
<text text-anchor="start" x="62.9165" y="-263.9" font-family="Arial" font-size="14.00" fill="#000000">representative    </text>
<text text-anchor="start" x="185.8085" y="-263.9" font-family="Arial" font-size="14.00" fill="#666666">[varchar(255)]</text>
<polygon fill="none" stroke="#000000" points="55.9165,-222.5 55.9165,-252.5 358.9165,-252.5 358.9165,-222.5 55.9165,-222.5"/>
<text text-anchor="start" x="62.9165" y="-233.9" font-family="Arial" font-size="14.00" fill="#000000">location    </text>
<text text-anchor="start" x="145.3555" y="-233.9" font-family="Arial" font-size="14.00" fill="#666666">[varchar(255)]</text>
<polygon fill="none" stroke="#000000" points="55.9165,-192.5 55.9165,-222.5 358.9165,-222.5 358.9165,-192.5 55.9165,-192.5"/>
<text text-anchor="start" x="62.9165" y="-203.9" font-family="Arial" font-size="14.00" fill="#000000">email    </text>
<text text-anchor="start" x="130.5603" y="-203.9" font-family="Arial" font-size="14.00" fill="#666666">[varchar(255)]</text>
<polygon fill="none" stroke="#000000" points="55.9165,-162.5 55.9165,-192.5 358.9165,-192.5 358.9165,-162.5 55.9165,-162.5"/>
<text text-anchor="start" x="62.9165" y="-173.9" font-family="Arial" font-size="14.00" fill="#000000">telno    </text>
<text text-anchor="start" x="127.4663" y="-173.9" font-family="Arial" font-size="14.00" fill="#666666">[varchar(255)]</text>
<polygon fill="none" stroke="#000000" points="55.9165,-132.5 55.9165,-162.5 358.9165,-162.5 358.9165,-132.5 55.9165,-132.5"/>
<text text-anchor="start" x="62.723" y="-143.9" font-family="Arial" font-size="14.00" fill="#000000">founded_at    </text>
<text text-anchor="start" x="166.9698" y="-143.9" font-family="Arial" font-size="14.00" fill="#666666">[timestamp without time zone]</text>
<polygon fill="none" stroke="#000000" points="55.9165,-102.5 55.9165,-132.5 358.9165,-132.5 358.9165,-102.5 55.9165,-102.5"/>
<text text-anchor="start" x="62.9165" y="-113.9" font-family="Arial" font-size="14.00" fill="#000000">created_at    </text>
<text text-anchor="start" x="163.2587" y="-113.9" font-family="Arial" font-size="14.00" fill="#666666">[timestamp without time zone]</text>
<polygon fill="none" stroke="#000000" points="55.9165,-72.5 55.9165,-102.5 358.9165,-102.5 358.9165,-72.5 55.9165,-72.5"/>
<text text-anchor="start" x="62.723" y="-83.9" font-family="Arial" font-size="14.00" fill="#000000">updated_at    </text>
<text text-anchor="start" x="166.9698" y="-83.9" font-family="Arial" font-size="14.00" fill="#666666">[timestamp without time zone]</text>
<polygon fill="none" stroke="#000000" points="55.9165,-42.5 55.9165,-72.5 358.9165,-72.5 358.9165,-42.5 55.9165,-42.5"/>
<text text-anchor="start" x="62.9165" y="-53.9" font-family="Arial" font-size="14.00" fill="#000000">is_public    </text>
<text text-anchor="start" x="151.5715" y="-53.9" font-family="Arial" font-size="14.00" fill="#666666">[boolean]</text>
</g>
<!-- public.group_avatar&#45;&gt;public.group -->
<g id="edge1" class="edge">
<title>public.group_avatar:group_id&#45;&gt;public.group:group_id</title>
<path fill="none" stroke="#000000" d="M47.7766,-725.3288C-17.6575,-696.3721 -16.0987,-387.5 55.9165,-387.5"/>
<polygon fill="#000000" stroke="#000000" points="48.1381,-725.4062 56.9743,-731.9003 53.0273,-726.4531 57.9165,-727.5 57.9165,-727.5 57.9165,-727.5 53.0273,-726.4531 58.8587,-723.0997 48.1381,-725.4062 48.1381,-725.4062"/>
</g>
</g>
</svg>
