<?xml version="1.0" encoding="UTF-8" standalone="no"?>
<!DOCTYPE svg PUBLIC "-//W3C//DTD SVG 1.1//EN"
 "http://www.w3.org/Graphics/SVG/1.1/DTD/svg11.dtd">
<!-- Generated by graphviz version 2.40.1 (20161225.0304)
 -->
<!-- Title: meower_account Pages: 1 -->
<svg width="1784pt" height="1043pt"
 viewBox="0.00 0.00 1783.50 1043.00" xmlns="http://www.w3.org/2000/svg" xmlns:xlink="http://www.w3.org/1999/xlink">
<g id="graph0" class="graph" transform="scale(1 1) rotate(0) translate(4 1039)">
<title>meower_account</title>
<polygon fill="#ffffff" stroke="transparent" points="-4,4 -4,-1039 1779.5,-1039 1779.5,4 -4,4"/>
<!-- public.account -->
<g id="node1" class="node">
<title>public.account</title>
<polygon fill="#efefef" stroke="transparent" points="945,-162.5 945,-197.5 1244,-197.5 1244,-162.5 945,-162.5"/>
<polygon fill="none" stroke="#000000" points="945,-162.5 945,-197.5 1244,-197.5 1244,-162.5 945,-162.5"/>
<text text-anchor="start" x="973.1979" y="-175.3" font-family="Arial Bold" font-size="18.00" fill="#000000">public.account</text>
<text text-anchor="start" x="1088.2341" y="-175.3" font-family="Arial" font-size="14.00" fill="#000000">    </text>
<text text-anchor="start" x="1122.4389" y="-175.3" font-family="Arial" font-size="14.00" fill="#666666">[BASE TABLE]</text>
<polygon fill="none" stroke="#000000" points="945,-132.5 945,-162.5 1244,-162.5 1244,-132.5 945,-132.5"/>
<text text-anchor="start" x="952" y="-143.9" font-family="Arial" font-size="14.00" fill="#000000">account_id    </text>
<text text-anchor="start" x="1053.8976" y="-143.9" font-family="Arial" font-size="14.00" fill="#666666">[bigint]</text>
<polygon fill="none" stroke="#000000" points="945,-102.5 945,-132.5 1244,-132.5 1244,-102.5 945,-102.5"/>
<text text-anchor="start" x="952" y="-113.9" font-family="Arial" font-size="14.00" fill="#000000">account_name    </text>
<text text-anchor="start" x="1078.0168" y="-113.9" font-family="Arial" font-size="14.00" fill="#666666">[varchar(255)]</text>
<polygon fill="none" stroke="#000000" points="945,-72.5 945,-102.5 1244,-102.5 1244,-72.5 945,-72.5"/>
<text text-anchor="start" x="952" y="-83.9" font-family="Arial" font-size="14.00" fill="#000000">public_user_id    </text>
<text text-anchor="start" x="1076.446" y="-83.9" font-family="Arial" font-size="14.00" fill="#666666">[varchar(255)]</text>
<polygon fill="none" stroke="#000000" points="945,-42.5 945,-72.5 1244,-72.5 1244,-42.5 945,-42.5"/>
<text text-anchor="start" x="951.7588" y="-53.9" font-family="Arial" font-size="14.00" fill="#000000">created_at    </text>
<text text-anchor="start" x="1052.101" y="-53.9" font-family="Arial" font-size="14.00" fill="#666666">[timestamp without time zone]</text>
</g>
<!-- public.account_profile -->
<g id="node2" class="node">
<title>public.account_profile</title>
<polygon fill="#efefef" stroke="transparent" points="1167,-649.5 1167,-684.5 1482,-684.5 1482,-649.5 1167,-649.5"/>
<polygon fill="none" stroke="#000000" points="1167,-649.5 1167,-684.5 1482,-684.5 1482,-649.5 1167,-649.5"/>
<text text-anchor="start" x="1173.6941" y="-662.3" font-family="Arial Bold" font-size="18.00" fill="#000000">public.account_profile</text>
<text text-anchor="start" x="1347.7379" y="-662.3" font-family="Arial" font-size="14.00" fill="#000000">    </text>
<text text-anchor="start" x="1381.9427" y="-662.3" font-family="Arial" font-size="14.00" fill="#666666">[BASE TABLE]</text>
<polygon fill="none" stroke="#000000" points="1167,-619.5 1167,-649.5 1482,-649.5 1482,-619.5 1167,-619.5"/>
<text text-anchor="start" x="1174" y="-630.9" font-family="Arial" font-size="14.00" fill="#000000">account_profile_id    </text>
<text text-anchor="start" x="1321.7924" y="-630.9" font-family="Arial" font-size="14.00" fill="#666666">[bigint]</text>
<polygon fill="none" stroke="#000000" points="1167,-589.5 1167,-619.5 1482,-619.5 1482,-589.5 1167,-589.5"/>
<text text-anchor="start" x="1174" y="-600.9" font-family="Arial" font-size="14.00" fill="#000000">account_id    </text>
<text text-anchor="start" x="1275.8976" y="-600.9" font-family="Arial" font-size="14.00" fill="#666666">[bigint]</text>
<polygon fill="none" stroke="#000000" points="1167,-559.5 1167,-589.5 1482,-589.5 1482,-559.5 1167,-559.5"/>
<text text-anchor="start" x="1174" y="-570.9" font-family="Arial" font-size="14.00" fill="#000000">token    </text>
<text text-anchor="start" x="1242.4432" y="-570.9" font-family="Arial" font-size="14.00" fill="#666666">[varchar(255)]</text>
<polygon fill="none" stroke="#000000" points="1167,-529.5 1167,-559.5 1482,-559.5 1482,-529.5 1167,-529.5"/>
<text text-anchor="start" x="1174" y="-540.9" font-family="Arial" font-size="14.00" fill="#000000">name    </text>
<text text-anchor="start" x="1243.2132" y="-540.9" font-family="Arial" font-size="14.00" fill="#666666">[varchar(255)]</text>
<polygon fill="none" stroke="#000000" points="1167,-499.5 1167,-529.5 1482,-529.5 1482,-499.5 1167,-499.5"/>
<text text-anchor="start" x="1174" y="-510.9" font-family="Arial" font-size="14.00" fill="#000000">affiliation    </text>
<text text-anchor="start" x="1263.4334" y="-510.9" font-family="Arial" font-size="14.00" fill="#666666">[varchar(255)]</text>
<polygon fill="none" stroke="#000000" points="1167,-469.5 1167,-499.5 1482,-499.5 1482,-469.5 1167,-469.5"/>
<text text-anchor="start" x="1174" y="-480.9" font-family="Arial" font-size="14.00" fill="#000000">bio    </text>
<text text-anchor="start" x="1226.8766" y="-480.9" font-family="Arial" font-size="14.00" fill="#666666">[text]</text>
<polygon fill="none" stroke="#000000" points="1167,-439.5 1167,-469.5 1482,-469.5 1482,-439.5 1167,-439.5"/>
<text text-anchor="start" x="1174" y="-450.9" font-family="Arial" font-size="14.00" fill="#000000">email    </text>
<text text-anchor="start" x="1241.6438" y="-450.9" font-family="Arial" font-size="14.00" fill="#666666">[varchar(255)]</text>
<polygon fill="none" stroke="#000000" points="1167,-409.5 1167,-439.5 1482,-439.5 1482,-409.5 1167,-409.5"/>
<text text-anchor="start" x="1174" y="-420.9" font-family="Arial" font-size="14.00" fill="#000000">birthdate    </text>
<text text-anchor="start" x="1262.6662" y="-420.9" font-family="Arial" font-size="14.00" fill="#666666">[timestamp without time zone]</text>
<polygon fill="none" stroke="#000000" points="1167,-379.5 1167,-409.5 1482,-409.5 1482,-379.5 1167,-379.5"/>
<text text-anchor="start" x="1174" y="-390.9" font-family="Arial" font-size="14.00" fill="#000000">gender    </text>
<text text-anchor="start" x="1251.7784" y="-390.9" font-family="Arial" font-size="14.00" fill="#666666">[integer]</text>
<polygon fill="none" stroke="#000000" points="1167,-349.5 1167,-379.5 1482,-379.5 1482,-349.5 1167,-349.5"/>
<text text-anchor="start" x="1174" y="-360.9" font-family="Arial" font-size="14.00" fill="#000000">created_at    </text>
<text text-anchor="start" x="1274.3422" y="-360.9" font-family="Arial" font-size="14.00" fill="#666666">[timestamp without time zone]</text>
<polygon fill="none" stroke="#000000" points="1167,-319.5 1167,-349.5 1482,-349.5 1482,-319.5 1167,-319.5"/>
<text text-anchor="start" x="1174" y="-330.9" font-family="Arial" font-size="14.00" fill="#000000">updated_at    </text>
<text text-anchor="start" x="1278.2468" y="-330.9" font-family="Arial" font-size="14.00" fill="#666666">[timestamp without time zone]</text>
</g>
<!-- public.account_profile&#45;&gt;public.account -->
<g id="edge1" class="edge">
<title>public.account_profile:account_id&#45;&gt;public.account:account_id</title>
<path fill="none" stroke="#000000" d="M1157.089,-602.6515C1097.5265,-579.0017 1129.8352,-335.4018 1167,-277 1187.282,-245.1283 1223.718,-272.8717 1244,-241 1266.3102,-205.9412 1285.5556,-147.5 1244,-147.5"/>
<polygon fill="#000000" stroke="#000000" points="1157.1695,-602.6664 1166.1749,-608.9237 1162.0848,-603.5832 1167,-604.5 1167,-604.5 1167,-604.5 1162.0848,-603.5832 1167.8251,-600.0763 1157.1695,-602.6664 1157.1695,-602.6664"/>
</g>
<!-- public.group -->
<g id="node3" class="node">
<title>public.group</title>
<polygon fill="#efefef" stroke="transparent" points="718,-544.5 718,-579.5 1021,-579.5 1021,-544.5 718,-544.5"/>
<polygon fill="none" stroke="#000000" points="718,-544.5 718,-579.5 1021,-579.5 1021,-544.5 718,-544.5"/>
<text text-anchor="start" x="756.7029" y="-557.3" font-family="Arial Bold" font-size="18.00" fill="#000000">public.group</text>
<text text-anchor="start" x="854.7291" y="-557.3" font-family="Arial" font-size="14.00" fill="#000000">    </text>
<text text-anchor="start" x="888.9339" y="-557.3" font-family="Arial" font-size="14.00" fill="#666666">[BASE TABLE]</text>
<polygon fill="none" stroke="#000000" points="718,-514.5 718,-544.5 1021,-544.5 1021,-514.5 718,-514.5"/>
<text text-anchor="start" x="725" y="-525.9" font-family="Arial" font-size="14.00" fill="#000000">group_id    </text>
<text text-anchor="start" x="813.6676" y="-525.9" font-family="Arial" font-size="14.00" fill="#666666">[bigint]</text>
<polygon fill="none" stroke="#000000" points="718,-484.5 718,-514.5 1021,-514.5 1021,-484.5 718,-484.5"/>
<text text-anchor="start" x="725" y="-495.9" font-family="Arial" font-size="14.00" fill="#000000">group_name    </text>
<text text-anchor="start" x="837.7868" y="-495.9" font-family="Arial" font-size="14.00" fill="#666666">[varchar(255)]</text>
<polygon fill="none" stroke="#000000" points="718,-454.5 718,-484.5 1021,-484.5 1021,-454.5 718,-454.5"/>
<text text-anchor="start" x="725" y="-465.9" font-family="Arial" font-size="14.00" fill="#000000">created_at    </text>
<text text-anchor="start" x="825.3422" y="-465.9" font-family="Arial" font-size="14.00" fill="#666666">[timestamp without time zone]</text>
<polygon fill="none" stroke="#000000" points="718,-424.5 718,-454.5 1021,-454.5 1021,-424.5 718,-424.5"/>
<text text-anchor="start" x="724.8065" y="-435.9" font-family="Arial" font-size="14.00" fill="#000000">updated_at    </text>
<text text-anchor="start" x="829.0533" y="-435.9" font-family="Arial" font-size="14.00" fill="#666666">[timestamp without time zone]</text>
</g>
<!-- public.group_member -->
<g id="node4" class="node">
<title>public.group_member</title>
<polygon fill="#efefef" stroke="transparent" points="939,-956.5 939,-991.5 1254,-991.5 1254,-956.5 939,-956.5"/>
<polygon fill="none" stroke="#000000" points="939,-956.5 939,-991.5 1254,-991.5 1254,-956.5 939,-956.5"/>
<text text-anchor="start" x="945.7022" y="-969.3" font-family="Arial Bold" font-size="18.00" fill="#000000">public.group_member</text>
<text text-anchor="start" x="1119.7298" y="-969.3" font-family="Arial" font-size="14.00" fill="#000000">    </text>
<text text-anchor="start" x="1153.9346" y="-969.3" font-family="Arial" font-size="14.00" fill="#666666">[BASE TABLE]</text>
<polygon fill="none" stroke="#000000" points="939,-926.5 939,-956.5 1254,-956.5 1254,-926.5 939,-926.5"/>
<text text-anchor="start" x="946" y="-937.9" font-family="Arial" font-size="14.00" fill="#000000">group_member_id    </text>
<text text-anchor="start" x="1093.7798" y="-937.9" font-family="Arial" font-size="14.00" fill="#666666">[bigint]</text>
<polygon fill="none" stroke="#000000" points="939,-896.5 939,-926.5 1254,-926.5 1254,-896.5 939,-896.5"/>
<text text-anchor="start" x="946" y="-907.9" font-family="Arial" font-size="14.00" fill="#000000">group_id    </text>
<text text-anchor="start" x="1034.6676" y="-907.9" font-family="Arial" font-size="14.00" fill="#666666">[bigint]</text>
<polygon fill="none" stroke="#000000" points="939,-866.5 939,-896.5 1254,-896.5 1254,-866.5 939,-866.5"/>
<text text-anchor="start" x="946" y="-877.9" font-family="Arial" font-size="14.00" fill="#000000">account_id    </text>
<text text-anchor="start" x="1047.8976" y="-877.9" font-family="Arial" font-size="14.00" fill="#666666">[bigint]</text>
<polygon fill="none" stroke="#000000" points="939,-836.5 939,-866.5 1254,-866.5 1254,-836.5 939,-836.5"/>
<text text-anchor="start" x="946" y="-847.9" font-family="Arial" font-size="14.00" fill="#000000">account_profile_id    </text>
<text text-anchor="start" x="1093.7924" y="-847.9" font-family="Arial" font-size="14.00" fill="#666666">[bigint]</text>
<polygon fill="none" stroke="#000000" points="939,-806.5 939,-836.5 1254,-836.5 1254,-806.5 939,-806.5"/>
<text text-anchor="start" x="946" y="-817.9" font-family="Arial" font-size="14.00" fill="#000000">role    </text>
<text text-anchor="start" x="1003.5372" y="-817.9" font-family="Arial" font-size="14.00" fill="#666666">[smallint]</text>
</g>
<!-- public.group_member&#45;&gt;public.account -->
<g id="edge2" class="edge">
<title>public.group_member:account_id&#45;&gt;public.account:account_id</title>
<path fill="none" stroke="#000000" d="M929.0408,-880.4104C889.7089,-870.9754 909.4571,-802.5273 939,-764 976.5246,-715.0636 1033.2446,-775.142 1073,-728 1137.8903,-651.0529 1050.4831,-354.2605 1115,-277 1153.1528,-231.3111 1208.0088,-288.4104 1244,-241 1269.1265,-207.9013 1285.5556,-147.5 1244,-147.5"/>
<polygon fill="#000000" stroke="#000000" points="929.0593,-880.4123 938.5106,-885.9733 934.0297,-880.9562 939,-881.5 939,-881.5 939,-881.5 934.0297,-880.9562 939.4894,-877.0267 929.0593,-880.4123 929.0593,-880.4123"/>
</g>
<!-- public.group_member&#45;&gt;public.account_profile -->
<g id="edge3" class="edge">
<title>public.group_member:account_profile_id&#45;&gt;public.account_profile:account_profile_id</title>
<path fill="none" stroke="#000000" d="M1264.1652,-849.8745C1289.3347,-840.5294 1273.4164,-793.0474 1254,-764 1230.7452,-729.2103 1190.2548,-762.7897 1167,-728 1143.9068,-693.452 1125.4444,-634.5 1167,-634.5"/>
<polygon fill="#000000" stroke="#000000" points="1263.8746,-849.9209 1253.2894,-847.0565 1258.9373,-850.7105 1254,-851.5 1254,-851.5 1254,-851.5 1258.9373,-850.7105 1254.7106,-855.9435 1263.8746,-849.9209 1263.8746,-849.9209"/>
</g>
<!-- public.group_member&#45;&gt;public.group -->
<g id="edge4" class="edge">
<title>public.group_member:group_id&#45;&gt;public.group:group_id</title>
<path fill="none" stroke="#000000" d="M928.8846,-911.0513C807.9134,-899.6575 1007.078,-674.6319 1021,-623 1031.8186,-582.8774 1062.5556,-529.5 1021,-529.5"/>
<polygon fill="#000000" stroke="#000000" points="929.0098,-911.0568 938.8006,-915.9956 934.0049,-911.2784 939,-911.5 939,-911.5 939,-911.5 934.0049,-911.2784 939.1994,-907.0044 929.0098,-911.0568 929.0098,-911.0568"/>
</g>
<!-- public.workspace -->
<g id="node5" class="node">
<title>public.workspace</title>
<polygon fill="#efefef" stroke="transparent" points="305,-544.5 305,-579.5 608,-579.5 608,-544.5 305,-544.5"/>
<polygon fill="none" stroke="#000000" points="305,-544.5 305,-579.5 608,-579.5 608,-544.5 305,-544.5"/>
<text text-anchor="start" x="323.7058" y="-557.3" font-family="Arial Bold" font-size="18.00" fill="#000000">public.workspace</text>
<text text-anchor="start" x="461.7262" y="-557.3" font-family="Arial" font-size="14.00" fill="#000000">    </text>
<text text-anchor="start" x="495.931" y="-557.3" font-family="Arial" font-size="14.00" fill="#666666">[BASE TABLE]</text>
<polygon fill="none" stroke="#000000" points="305,-514.5 305,-544.5 608,-544.5 608,-514.5 305,-514.5"/>
<text text-anchor="start" x="312" y="-525.9" font-family="Arial" font-size="14.00" fill="#000000">workspace_id    </text>
<text text-anchor="start" x="431.7742" y="-525.9" font-family="Arial" font-size="14.00" fill="#666666">[bigint]</text>
<polygon fill="none" stroke="#000000" points="305,-484.5 305,-514.5 608,-514.5 608,-484.5 305,-484.5"/>
<text text-anchor="start" x="312" y="-495.9" font-family="Arial" font-size="14.00" fill="#000000">workspace_name    </text>
<text text-anchor="start" x="455.8934" y="-495.9" font-family="Arial" font-size="14.00" fill="#666666">[varchar(255)]</text>
<polygon fill="none" stroke="#000000" points="305,-454.5 305,-484.5 608,-484.5 608,-454.5 305,-454.5"/>
<text text-anchor="start" x="312" y="-465.9" font-family="Arial" font-size="14.00" fill="#000000">created_at    </text>
<text text-anchor="start" x="412.3422" y="-465.9" font-family="Arial" font-size="14.00" fill="#666666">[timestamp without time zone]</text>
<polygon fill="none" stroke="#000000" points="305,-424.5 305,-454.5 608,-454.5 608,-424.5 305,-424.5"/>
<text text-anchor="start" x="311.8065" y="-435.9" font-family="Arial" font-size="14.00" fill="#000000">updated_at    </text>
<text text-anchor="start" x="416.0533" y="-435.9" font-family="Arial" font-size="14.00" fill="#666666">[timestamp without time zone]</text>
</g>
<!-- public.account_workspace -->
<g id="node6" class="node">
<title>public.account_workspace</title>
<polygon fill="#efefef" stroke="transparent" points="43,-926.5 43,-961.5 395,-961.5 395,-926.5 43,-926.5"/>
<polygon fill="none" stroke="#000000" points="43,-926.5 43,-961.5 395,-961.5 395,-926.5 43,-926.5"/>
<text text-anchor="start" x="49.6892" y="-939.3" font-family="Arial Bold" font-size="18.00" fill="#000000">public.account_workspace</text>
<text text-anchor="start" x="260.7428" y="-939.3" font-family="Arial" font-size="14.00" fill="#000000">    </text>
<text text-anchor="start" x="294.9476" y="-939.3" font-family="Arial" font-size="14.00" fill="#666666">[BASE TABLE]</text>
<polygon fill="none" stroke="#000000" points="43,-896.5 43,-926.5 395,-926.5 395,-896.5 43,-896.5"/>
<text text-anchor="start" x="50" y="-907.9" font-family="Arial" font-size="14.00" fill="#000000">account_workspace_id    </text>
<text text-anchor="start" x="226.5778" y="-907.9" font-family="Arial" font-size="14.00" fill="#666666">[bigint]</text>
<polygon fill="none" stroke="#000000" points="43,-866.5 43,-896.5 395,-896.5 395,-866.5 43,-866.5"/>
<text text-anchor="start" x="50" y="-877.9" font-family="Arial" font-size="14.00" fill="#000000">workspace_id    </text>
<text text-anchor="start" x="169.7742" y="-877.9" font-family="Arial" font-size="14.00" fill="#666666">[bigint]</text>
<polygon fill="none" stroke="#000000" points="43,-836.5 43,-866.5 395,-866.5 395,-836.5 43,-836.5"/>
<text text-anchor="start" x="50" y="-847.9" font-family="Arial" font-size="14.00" fill="#000000">account_id    </text>
<text text-anchor="start" x="151.8976" y="-847.9" font-family="Arial" font-size="14.00" fill="#666666">[bigint]</text>
</g>
<!-- public.account_workspace&#45;&gt;public.account -->
<g id="edge5" class="edge">
<title>public.account_workspace:account_id&#45;&gt;public.account:account_id</title>
<path fill="none" stroke="#000000" d="M218.9277,-826.3519C215.4766,-583.9827 90.3777,-461.2064 253,-277 356.5402,-159.7174 788.5527,-147.5 945,-147.5"/>
<polygon fill="#000000" stroke="#000000" points="218.9287,-826.5003 214.5001,-836.5321 218.9643,-831.5001 219,-836.5 219,-836.5 219,-836.5 218.9643,-831.5001 223.4999,-836.4679 218.9287,-826.5003 218.9287,-826.5003"/>
</g>
<!-- public.account_workspace&#45;&gt;public.workspace -->
<g id="edge6" class="edge">
<title>public.account_workspace:workspace_id&#45;&gt;public.workspace:workspace_id</title>
<path fill="none" stroke="#000000" d="M405.0244,-880.9752C538.2162,-865.8651 147.1498,-529.5 305,-529.5"/>
<polygon fill="#000000" stroke="#000000" points="404.9863,-880.9771 394.7647,-877.0062 399.9932,-881.2386 395,-881.5 395,-881.5 395,-881.5 399.9932,-881.2386 395.2353,-885.9938 404.9863,-880.9771 404.9863,-880.9771"/>
</g>
<!-- public.group_workspace -->
<g id="node7" class="node">
<title>public.group_workspace</title>
<polygon fill="#efefef" stroke="transparent" points="500,-926.5 500,-961.5 835,-961.5 835,-926.5 500,-926.5"/>
<polygon fill="none" stroke="#000000" points="500,-926.5 500,-961.5 835,-961.5 835,-926.5 500,-926.5"/>
<text text-anchor="start" x="506.6942" y="-939.3" font-family="Arial Bold" font-size="18.00" fill="#000000">public.group_workspace</text>
<text text-anchor="start" x="700.7378" y="-939.3" font-family="Arial" font-size="14.00" fill="#000000">    </text>
<text text-anchor="start" x="734.9426" y="-939.3" font-family="Arial" font-size="14.00" fill="#666666">[BASE TABLE]</text>
<polygon fill="none" stroke="#000000" points="500,-896.5 500,-926.5 835,-926.5 835,-896.5 500,-896.5"/>
<text text-anchor="start" x="507" y="-907.9" font-family="Arial" font-size="14.00" fill="#000000">group_workspace_id    </text>
<text text-anchor="start" x="670.3478" y="-907.9" font-family="Arial" font-size="14.00" fill="#666666">[bigint]</text>
<polygon fill="none" stroke="#000000" points="500,-866.5 500,-896.5 835,-896.5 835,-866.5 500,-866.5"/>
<text text-anchor="start" x="507" y="-877.9" font-family="Arial" font-size="14.00" fill="#000000">workspace_id    </text>
<text text-anchor="start" x="626.7742" y="-877.9" font-family="Arial" font-size="14.00" fill="#666666">[bigint]</text>
<polygon fill="none" stroke="#000000" points="500,-836.5 500,-866.5 835,-866.5 835,-836.5 500,-836.5"/>
<text text-anchor="start" x="507" y="-847.9" font-family="Arial" font-size="14.00" fill="#000000">group_id    </text>
<text text-anchor="start" x="595.6676" y="-847.9" font-family="Arial" font-size="14.00" fill="#666666">[bigint]</text>
</g>
<!-- public.group_workspace&#45;&gt;public.group -->
<g id="edge7" class="edge">
<title>public.group_workspace:group_id&#45;&gt;public.group:group_id</title>
<path fill="none" stroke="#000000" d="M844.8702,-848.5375C854.4232,-839.8897 841.1957,-814.0271 835,-794 807.7842,-706.0267 745.2158,-710.9733 718,-623 705.7185,-583.3008 676.4444,-529.5 718,-529.5"/>
<polygon fill="#000000" stroke="#000000" points="844.5779,-848.6251 833.7063,-847.19 839.7889,-850.0626 835,-851.5 835,-851.5 835,-851.5 839.7889,-850.0626 836.2937,-855.81 844.5779,-848.6251 844.5779,-848.6251"/>
</g>
<!-- public.group_workspace&#45;&gt;public.workspace -->
<g id="edge8" class="edge">
<title>public.group_workspace:workspace_id&#45;&gt;public.workspace:workspace_id</title>
<path fill="none" stroke="#000000" d="M489.8662,-880.9752C355.6092,-865.8651 767.9669,-529.5 608,-529.5"/>
<polygon fill="#000000" stroke="#000000" points="490.0134,-880.9828 499.7672,-885.994 495.0067,-881.2414 500,-881.5 500,-881.5 500,-881.5 495.0067,-881.2414 500.2328,-877.006 490.0134,-880.9828 490.0134,-880.9828"/>
</g>
<!-- public.account_profile_avatar -->
<g id="node8" class="node">
<title>public.account_profile_avatar</title>
<polygon fill="#efefef" stroke="transparent" points="1358,-956.5 1358,-991.5 1733,-991.5 1733,-956.5 1358,-956.5"/>
<polygon fill="none" stroke="#000000" points="1358,-956.5 1358,-991.5 1733,-991.5 1733,-956.5 1358,-956.5"/>
<text text-anchor="start" x="1364.6845" y="-969.3" font-family="Arial Bold" font-size="18.00" fill="#000000">public.account_profile_avatar</text>
<text text-anchor="start" x="1598.7475" y="-969.3" font-family="Arial" font-size="14.00" fill="#000000">    </text>
<text text-anchor="start" x="1632.9523" y="-969.3" font-family="Arial" font-size="14.00" fill="#666666">[BASE TABLE]</text>
<polygon fill="none" stroke="#000000" points="1358,-926.5 1358,-956.5 1733,-956.5 1733,-926.5 1358,-926.5"/>
<text text-anchor="start" x="1365" y="-937.9" font-family="Arial" font-size="14.00" fill="#000000">account_profile_avatar_id    </text>
<text text-anchor="start" x="1559.474" y="-937.9" font-family="Arial" font-size="14.00" fill="#666666">[bigint]</text>
<polygon fill="none" stroke="#000000" points="1358,-896.5 1358,-926.5 1733,-926.5 1733,-896.5 1358,-896.5"/>
<text text-anchor="start" x="1365" y="-907.9" font-family="Arial" font-size="14.00" fill="#000000">account_profile_id    </text>
<text text-anchor="start" x="1512.7924" y="-907.9" font-family="Arial" font-size="14.00" fill="#666666">[bigint]</text>
<polygon fill="none" stroke="#000000" points="1358,-866.5 1358,-896.5 1733,-896.5 1733,-866.5 1358,-866.5"/>
<text text-anchor="start" x="1365" y="-877.9" font-family="Arial" font-size="14.00" fill="#000000">file_key    </text>
<text text-anchor="start" x="1446.6564" y="-877.9" font-family="Arial" font-size="14.00" fill="#666666">[varchar(255)]</text>
<polygon fill="none" stroke="#000000" points="1358,-836.5 1358,-866.5 1733,-866.5 1733,-836.5 1358,-836.5"/>
<text text-anchor="start" x="1365" y="-847.9" font-family="Arial" font-size="14.00" fill="#000000">mime    </text>
<text text-anchor="start" x="1433.4152" y="-847.9" font-family="Arial" font-size="14.00" fill="#666666">[varchar(255)]</text>
<polygon fill="none" stroke="#000000" points="1358,-806.5 1358,-836.5 1733,-836.5 1733,-806.5 1358,-806.5"/>
<text text-anchor="start" x="1365" y="-817.9" font-family="Arial" font-size="14.00" fill="#000000">created_at    </text>
<text text-anchor="start" x="1465.3422" y="-817.9" font-family="Arial" font-size="14.00" fill="#666666">[timestamp without time zone]</text>
</g>
<!-- public.account_profile_avatar&#45;&gt;public.account_profile -->
<g id="edge9" class="edge">
<title>public.account_profile_avatar:account_profile_id&#45;&gt;public.account_profile:account_profile_id</title>
<path fill="none" stroke="#000000" d="M1347.7294,-910.6099C1295.4535,-900.8661 1320.8639,-813.451 1358,-764 1392.4605,-718.112 1447.5395,-773.888 1482,-728 1506.9539,-694.771 1523.5556,-634.5 1482,-634.5"/>
<polygon fill="#000000" stroke="#000000" points="1348.0373,-910.6365 1357.6114,-915.9832 1353.0187,-911.0683 1358,-911.5 1358,-911.5 1358,-911.5 1353.0187,-911.0683 1358.3886,-907.0168 1348.0373,-910.6365 1348.0373,-910.6365"/>
</g>
</g>
</svg>
