<?xml version="1.0" encoding="UTF-8" standalone="no"?>
<!DOCTYPE svg PUBLIC "-//W3C//DTD SVG 1.1//EN"
 "http://www.w3.org/Graphics/SVG/1.1/DTD/svg11.dtd">
<!-- Generated by graphviz version 2.40.1 (20161225.0304)
 -->
<!-- Title: meower_account Pages: 1 -->
<svg width="1499pt" height="1013pt"
 viewBox="0.00 0.00 1498.61 1013.00" xmlns="http://www.w3.org/2000/svg" xmlns:xlink="http://www.w3.org/1999/xlink">
<g id="graph0" class="graph" transform="scale(1 1) rotate(0) translate(4 1009)">
<title>meower_account</title>
<polygon fill="#ffffff" stroke="transparent" points="-4,4 -4,-1009 1494.6059,-1009 1494.6059,4 -4,4"/>
<!-- public.account -->
<g id="node1" class="node">
<title>public.account</title>
<polygon fill="#efefef" stroke="transparent" points="121.6059,-162.5 121.6059,-197.5 420.6059,-197.5 420.6059,-162.5 121.6059,-162.5"/>
<polygon fill="none" stroke="#000000" points="121.6059,-162.5 121.6059,-197.5 420.6059,-197.5 420.6059,-162.5 121.6059,-162.5"/>
<text text-anchor="start" x="149.8038" y="-175.3" font-family="Arial Bold" font-size="18.00" fill="#000000">public.account</text>
<text text-anchor="start" x="264.84" y="-175.3" font-family="Arial" font-size="14.00" fill="#000000">    </text>
<text text-anchor="start" x="299.0448" y="-175.3" font-family="Arial" font-size="14.00" fill="#666666">[BASE TABLE]</text>
<polygon fill="none" stroke="#000000" points="121.6059,-132.5 121.6059,-162.5 420.6059,-162.5 420.6059,-132.5 121.6059,-132.5"/>
<text text-anchor="start" x="128.6059" y="-143.9" font-family="Arial" font-size="14.00" fill="#000000">account_id    </text>
<text text-anchor="start" x="230.5035" y="-143.9" font-family="Arial" font-size="14.00" fill="#666666">[bigint]</text>
<polygon fill="none" stroke="#000000" points="121.6059,-102.5 121.6059,-132.5 420.6059,-132.5 420.6059,-102.5 121.6059,-102.5"/>
<text text-anchor="start" x="128.6059" y="-113.9" font-family="Arial" font-size="14.00" fill="#000000">account_name    </text>
<text text-anchor="start" x="254.6227" y="-113.9" font-family="Arial" font-size="14.00" fill="#666666">[varchar(255)]</text>
<polygon fill="none" stroke="#000000" points="121.6059,-72.5 121.6059,-102.5 420.6059,-102.5 420.6059,-72.5 121.6059,-72.5"/>
<text text-anchor="start" x="128.6059" y="-83.9" font-family="Arial" font-size="14.00" fill="#000000">user_subject    </text>
<text text-anchor="start" x="242.1641" y="-83.9" font-family="Arial" font-size="14.00" fill="#666666">[varchar(255)]</text>
<polygon fill="none" stroke="#000000" points="121.6059,-42.5 121.6059,-72.5 420.6059,-72.5 420.6059,-42.5 121.6059,-42.5"/>
<text text-anchor="start" x="128.3647" y="-53.9" font-family="Arial" font-size="14.00" fill="#000000">created_at    </text>
<text text-anchor="start" x="228.7069" y="-53.9" font-family="Arial" font-size="14.00" fill="#666666">[timestamp without time zone]</text>
</g>
<!-- public.account_profile -->
<g id="node2" class="node">
<title>public.account_profile</title>
<polygon fill="#efefef" stroke="transparent" points="113.6059,-619.5 113.6059,-654.5 428.6059,-654.5 428.6059,-619.5 113.6059,-619.5"/>
<polygon fill="none" stroke="#000000" points="113.6059,-619.5 113.6059,-654.5 428.6059,-654.5 428.6059,-619.5 113.6059,-619.5"/>
<text text-anchor="start" x="120.3" y="-632.3" font-family="Arial Bold" font-size="18.00" fill="#000000">public.account_profile</text>
<text text-anchor="start" x="294.3438" y="-632.3" font-family="Arial" font-size="14.00" fill="#000000">    </text>
<text text-anchor="start" x="328.5486" y="-632.3" font-family="Arial" font-size="14.00" fill="#666666">[BASE TABLE]</text>
<polygon fill="none" stroke="#000000" points="113.6059,-589.5 113.6059,-619.5 428.6059,-619.5 428.6059,-589.5 113.6059,-589.5"/>
<text text-anchor="start" x="120.6059" y="-600.9" font-family="Arial" font-size="14.00" fill="#000000">account_profile_id    </text>
<text text-anchor="start" x="268.3983" y="-600.9" font-family="Arial" font-size="14.00" fill="#666666">[bigint]</text>
<polygon fill="none" stroke="#000000" points="113.6059,-559.5 113.6059,-589.5 428.6059,-589.5 428.6059,-559.5 113.6059,-559.5"/>
<text text-anchor="start" x="120.6059" y="-570.9" font-family="Arial" font-size="14.00" fill="#000000">account_id    </text>
<text text-anchor="start" x="222.5035" y="-570.9" font-family="Arial" font-size="14.00" fill="#666666">[bigint]</text>
<polygon fill="none" stroke="#000000" points="113.6059,-529.5 113.6059,-559.5 428.6059,-559.5 428.6059,-529.5 113.6059,-529.5"/>
<text text-anchor="start" x="120.6059" y="-540.9" font-family="Arial" font-size="14.00" fill="#000000">name    </text>
<text text-anchor="start" x="189.8191" y="-540.9" font-family="Arial" font-size="14.00" fill="#666666">[varchar(255)]</text>
<polygon fill="none" stroke="#000000" points="113.6059,-499.5 113.6059,-529.5 428.6059,-529.5 428.6059,-499.5 113.6059,-499.5"/>
<text text-anchor="start" x="120.6059" y="-510.9" font-family="Arial" font-size="14.00" fill="#000000">affiliation    </text>
<text text-anchor="start" x="210.0393" y="-510.9" font-family="Arial" font-size="14.00" fill="#666666">[varchar(255)]</text>
<polygon fill="none" stroke="#000000" points="113.6059,-469.5 113.6059,-499.5 428.6059,-499.5 428.6059,-469.5 113.6059,-469.5"/>
<text text-anchor="start" x="120.6059" y="-480.9" font-family="Arial" font-size="14.00" fill="#000000">bio    </text>
<text text-anchor="start" x="173.4825" y="-480.9" font-family="Arial" font-size="14.00" fill="#666666">[text]</text>
<polygon fill="none" stroke="#000000" points="113.6059,-439.5 113.6059,-469.5 428.6059,-469.5 428.6059,-439.5 113.6059,-439.5"/>
<text text-anchor="start" x="120.6059" y="-450.9" font-family="Arial" font-size="14.00" fill="#000000">email    </text>
<text text-anchor="start" x="188.2497" y="-450.9" font-family="Arial" font-size="14.00" fill="#666666">[varchar(255)]</text>
<polygon fill="none" stroke="#000000" points="113.6059,-409.5 113.6059,-439.5 428.6059,-439.5 428.6059,-409.5 113.6059,-409.5"/>
<text text-anchor="start" x="120.6059" y="-420.9" font-family="Arial" font-size="14.00" fill="#000000">birthdate    </text>
<text text-anchor="start" x="209.2721" y="-420.9" font-family="Arial" font-size="14.00" fill="#666666">[timestamp without time zone]</text>
<polygon fill="none" stroke="#000000" points="113.6059,-379.5 113.6059,-409.5 428.6059,-409.5 428.6059,-379.5 113.6059,-379.5"/>
<text text-anchor="start" x="120.6059" y="-390.9" font-family="Arial" font-size="14.00" fill="#000000">gender    </text>
<text text-anchor="start" x="198.3843" y="-390.9" font-family="Arial" font-size="14.00" fill="#666666">[smallint]</text>
<polygon fill="none" stroke="#000000" points="113.6059,-349.5 113.6059,-379.5 428.6059,-379.5 428.6059,-349.5 113.6059,-349.5"/>
<text text-anchor="start" x="120.6059" y="-360.9" font-family="Arial" font-size="14.00" fill="#000000">created_at    </text>
<text text-anchor="start" x="220.9481" y="-360.9" font-family="Arial" font-size="14.00" fill="#666666">[timestamp without time zone]</text>
<polygon fill="none" stroke="#000000" points="113.6059,-319.5 113.6059,-349.5 428.6059,-349.5 428.6059,-319.5 113.6059,-319.5"/>
<text text-anchor="start" x="120.6059" y="-330.9" font-family="Arial" font-size="14.00" fill="#000000">updated_at    </text>
<text text-anchor="start" x="224.8527" y="-330.9" font-family="Arial" font-size="14.00" fill="#666666">[timestamp without time zone]</text>
</g>
<!-- public.account_profile&#45;&gt;public.account -->
<g id="edge1" class="edge">
<title>public.account_profile:account_id&#45;&gt;public.account:account_id</title>
<path fill="none" stroke="#000000" d="M104.8814,-569.1011C67.3896,-519.672 77.3043,-147.5 121.6059,-147.5"/>
<polygon fill="#000000" stroke="#000000" points="105.1024,-569.2379 111.238,-578.3266 109.3541,-571.8689 113.6059,-574.5 113.6059,-574.5 113.6059,-574.5 109.3541,-571.8689 115.9739,-570.6734 105.1024,-569.2379 105.1024,-569.2379"/>
</g>
<!-- public.group -->
<g id="node3" class="node">
<title>public.group</title>
<polygon fill="#efefef" stroke="transparent" points="532.6059,-529.5 532.6059,-564.5 835.6059,-564.5 835.6059,-529.5 532.6059,-529.5"/>
<polygon fill="none" stroke="#000000" points="532.6059,-529.5 532.6059,-564.5 835.6059,-564.5 835.6059,-529.5 532.6059,-529.5"/>
<text text-anchor="start" x="571.3088" y="-542.3" font-family="Arial Bold" font-size="18.00" fill="#000000">public.group</text>
<text text-anchor="start" x="669.335" y="-542.3" font-family="Arial" font-size="14.00" fill="#000000">    </text>
<text text-anchor="start" x="703.5398" y="-542.3" font-family="Arial" font-size="14.00" fill="#666666">[BASE TABLE]</text>
<polygon fill="none" stroke="#000000" points="532.6059,-499.5 532.6059,-529.5 835.6059,-529.5 835.6059,-499.5 532.6059,-499.5"/>
<text text-anchor="start" x="539.6059" y="-510.9" font-family="Arial" font-size="14.00" fill="#000000">group_id    </text>
<text text-anchor="start" x="628.2735" y="-510.9" font-family="Arial" font-size="14.00" fill="#666666">[bigint]</text>
<polygon fill="none" stroke="#000000" points="532.6059,-469.5 532.6059,-499.5 835.6059,-499.5 835.6059,-469.5 532.6059,-469.5"/>
<text text-anchor="start" x="539.6059" y="-480.9" font-family="Arial" font-size="14.00" fill="#000000">group_name    </text>
<text text-anchor="start" x="652.3927" y="-480.9" font-family="Arial" font-size="14.00" fill="#666666">[varchar(255)]</text>
<polygon fill="none" stroke="#000000" points="532.6059,-439.5 532.6059,-469.5 835.6059,-469.5 835.6059,-439.5 532.6059,-439.5"/>
<text text-anchor="start" x="539.6059" y="-450.9" font-family="Arial" font-size="14.00" fill="#000000">created_at    </text>
<text text-anchor="start" x="639.9481" y="-450.9" font-family="Arial" font-size="14.00" fill="#666666">[timestamp without time zone]</text>
<polygon fill="none" stroke="#000000" points="532.6059,-409.5 532.6059,-439.5 835.6059,-439.5 835.6059,-409.5 532.6059,-409.5"/>
<text text-anchor="start" x="539.4124" y="-420.9" font-family="Arial" font-size="14.00" fill="#000000">updated_at    </text>
<text text-anchor="start" x="643.6592" y="-420.9" font-family="Arial" font-size="14.00" fill="#666666">[timestamp without time zone]</text>
</g>
<!-- public.group_member -->
<g id="node4" class="node">
<title>public.group_member</title>
<polygon fill="#efefef" stroke="transparent" points="113.6059,-926.5 113.6059,-961.5 428.6059,-961.5 428.6059,-926.5 113.6059,-926.5"/>
<polygon fill="none" stroke="#000000" points="113.6059,-926.5 113.6059,-961.5 428.6059,-961.5 428.6059,-926.5 113.6059,-926.5"/>
<text text-anchor="start" x="120.3081" y="-939.3" font-family="Arial Bold" font-size="18.00" fill="#000000">public.group_member</text>
<text text-anchor="start" x="294.3357" y="-939.3" font-family="Arial" font-size="14.00" fill="#000000">    </text>
<text text-anchor="start" x="328.5405" y="-939.3" font-family="Arial" font-size="14.00" fill="#666666">[BASE TABLE]</text>
<polygon fill="none" stroke="#000000" points="113.6059,-896.5 113.6059,-926.5 428.6059,-926.5 428.6059,-896.5 113.6059,-896.5"/>
<text text-anchor="start" x="120.6059" y="-907.9" font-family="Arial" font-size="14.00" fill="#000000">group_member_id    </text>
<text text-anchor="start" x="268.3857" y="-907.9" font-family="Arial" font-size="14.00" fill="#666666">[bigint]</text>
<polygon fill="none" stroke="#000000" points="113.6059,-866.5 113.6059,-896.5 428.6059,-896.5 428.6059,-866.5 113.6059,-866.5"/>
<text text-anchor="start" x="120.6059" y="-877.9" font-family="Arial" font-size="14.00" fill="#000000">group_id    </text>
<text text-anchor="start" x="209.2735" y="-877.9" font-family="Arial" font-size="14.00" fill="#666666">[bigint]</text>
<polygon fill="none" stroke="#000000" points="113.6059,-836.5 113.6059,-866.5 428.6059,-866.5 428.6059,-836.5 113.6059,-836.5"/>
<text text-anchor="start" x="120.6059" y="-847.9" font-family="Arial" font-size="14.00" fill="#000000">account_id    </text>
<text text-anchor="start" x="222.5035" y="-847.9" font-family="Arial" font-size="14.00" fill="#666666">[bigint]</text>
<polygon fill="none" stroke="#000000" points="113.6059,-806.5 113.6059,-836.5 428.6059,-836.5 428.6059,-806.5 113.6059,-806.5"/>
<text text-anchor="start" x="120.6059" y="-817.9" font-family="Arial" font-size="14.00" fill="#000000">account_profile_id    </text>
<text text-anchor="start" x="268.3983" y="-817.9" font-family="Arial" font-size="14.00" fill="#666666">[bigint]</text>
<polygon fill="none" stroke="#000000" points="113.6059,-776.5 113.6059,-806.5 428.6059,-806.5 428.6059,-776.5 113.6059,-776.5"/>
<text text-anchor="start" x="120.6059" y="-787.9" font-family="Arial" font-size="14.00" fill="#000000">role    </text>
<text text-anchor="start" x="178.1431" y="-787.9" font-family="Arial" font-size="14.00" fill="#666666">[smallint]</text>
</g>
<!-- public.group_member&#45;&gt;public.account -->
<g id="edge2" class="edge">
<title>public.group_member:account_id&#45;&gt;public.account:account_id</title>
<path fill="none" stroke="#000000" d="M103.3123,-850.4505C-42.4143,-820.2302 -31.3345,-147.5 121.6059,-147.5"/>
<polygon fill="#000000" stroke="#000000" points="103.6575,-850.4856 113.1494,-855.9768 108.6317,-850.9928 113.6059,-851.5 113.6059,-851.5 113.6059,-851.5 108.6317,-850.9928 114.0624,-847.0232 103.6575,-850.4856 103.6575,-850.4856"/>
</g>
<!-- public.group_member&#45;&gt;public.account_profile -->
<g id="edge3" class="edge">
<title>public.group_member:account_profile_id&#45;&gt;public.account_profile:account_profile_id</title>
<path fill="none" stroke="#000000" d="M103.6658,-818.0914C65.6493,-790.4844 68.9627,-604.5 113.6059,-604.5"/>
<polygon fill="#000000" stroke="#000000" points="104.1466,-818.2563 112.1462,-825.7567 108.8763,-819.8781 113.6059,-821.5 113.6059,-821.5 113.6059,-821.5 108.8763,-819.8781 115.0656,-817.2433 104.1466,-818.2563 104.1466,-818.2563"/>
</g>
<!-- public.group_member&#45;&gt;public.group -->
<g id="edge4" class="edge">
<title>public.group_member:group_id&#45;&gt;public.group:group_id</title>
<path fill="none" stroke="#000000" d="M438.7243,-879.5254C508.0185,-850.6385 451.4813,-514.5 532.6059,-514.5"/>
<polygon fill="#000000" stroke="#000000" points="438.4208,-879.5846 427.744,-877.0833 433.5134,-880.5423 428.6059,-881.5 428.6059,-881.5 428.6059,-881.5 433.5134,-880.5423 429.4679,-885.9167 438.4208,-879.5846 438.4208,-879.5846"/>
</g>
<!-- public.workspace -->
<g id="node5" class="node">
<title>public.workspace</title>
<polygon fill="#efefef" stroke="transparent" points="939.6059,-529.5 939.6059,-564.5 1242.6059,-564.5 1242.6059,-529.5 939.6059,-529.5"/>
<polygon fill="none" stroke="#000000" points="939.6059,-529.5 939.6059,-564.5 1242.6059,-564.5 1242.6059,-529.5 939.6059,-529.5"/>
<text text-anchor="start" x="958.3117" y="-542.3" font-family="Arial Bold" font-size="18.00" fill="#000000">public.workspace</text>
<text text-anchor="start" x="1096.3321" y="-542.3" font-family="Arial" font-size="14.00" fill="#000000">    </text>
<text text-anchor="start" x="1130.5369" y="-542.3" font-family="Arial" font-size="14.00" fill="#666666">[BASE TABLE]</text>
<polygon fill="none" stroke="#000000" points="939.6059,-499.5 939.6059,-529.5 1242.6059,-529.5 1242.6059,-499.5 939.6059,-499.5"/>
<text text-anchor="start" x="946.6059" y="-510.9" font-family="Arial" font-size="14.00" fill="#000000">workspace_id    </text>
<text text-anchor="start" x="1066.3801" y="-510.9" font-family="Arial" font-size="14.00" fill="#666666">[bigint]</text>
<polygon fill="none" stroke="#000000" points="939.6059,-469.5 939.6059,-499.5 1242.6059,-499.5 1242.6059,-469.5 939.6059,-469.5"/>
<text text-anchor="start" x="946.6059" y="-480.9" font-family="Arial" font-size="14.00" fill="#000000">workspace_name    </text>
<text text-anchor="start" x="1090.4993" y="-480.9" font-family="Arial" font-size="14.00" fill="#666666">[varchar(255)]</text>
<polygon fill="none" stroke="#000000" points="939.6059,-439.5 939.6059,-469.5 1242.6059,-469.5 1242.6059,-439.5 939.6059,-439.5"/>
<text text-anchor="start" x="946.6059" y="-450.9" font-family="Arial" font-size="14.00" fill="#000000">created_at    </text>
<text text-anchor="start" x="1046.9481" y="-450.9" font-family="Arial" font-size="14.00" fill="#666666">[timestamp without time zone]</text>
<polygon fill="none" stroke="#000000" points="939.6059,-409.5 939.6059,-439.5 1242.6059,-439.5 1242.6059,-409.5 939.6059,-409.5"/>
<text text-anchor="start" x="946.4124" y="-420.9" font-family="Arial" font-size="14.00" fill="#000000">updated_at    </text>
<text text-anchor="start" x="1050.6592" y="-420.9" font-family="Arial" font-size="14.00" fill="#666666">[timestamp without time zone]</text>
</g>
<!-- public.account_workspace -->
<g id="node6" class="node">
<title>public.account_workspace</title>
<polygon fill="#efefef" stroke="transparent" points="1095.6059,-896.5 1095.6059,-931.5 1447.6059,-931.5 1447.6059,-896.5 1095.6059,-896.5"/>
<polygon fill="none" stroke="#000000" points="1095.6059,-896.5 1095.6059,-931.5 1447.6059,-931.5 1447.6059,-896.5 1095.6059,-896.5"/>
<text text-anchor="start" x="1102.2951" y="-909.3" font-family="Arial Bold" font-size="18.00" fill="#000000">public.account_workspace</text>
<text text-anchor="start" x="1313.3487" y="-909.3" font-family="Arial" font-size="14.00" fill="#000000">    </text>
<text text-anchor="start" x="1347.5535" y="-909.3" font-family="Arial" font-size="14.00" fill="#666666">[BASE TABLE]</text>
<polygon fill="none" stroke="#000000" points="1095.6059,-866.5 1095.6059,-896.5 1447.6059,-896.5 1447.6059,-866.5 1095.6059,-866.5"/>
<text text-anchor="start" x="1102.6059" y="-877.9" font-family="Arial" font-size="14.00" fill="#000000">account_workspace_id    </text>
<text text-anchor="start" x="1279.1837" y="-877.9" font-family="Arial" font-size="14.00" fill="#666666">[bigint]</text>
<polygon fill="none" stroke="#000000" points="1095.6059,-836.5 1095.6059,-866.5 1447.6059,-866.5 1447.6059,-836.5 1095.6059,-836.5"/>
<text text-anchor="start" x="1102.6059" y="-847.9" font-family="Arial" font-size="14.00" fill="#000000">workspace_id    </text>
<text text-anchor="start" x="1222.3801" y="-847.9" font-family="Arial" font-size="14.00" fill="#666666">[bigint]</text>
<polygon fill="none" stroke="#000000" points="1095.6059,-806.5 1095.6059,-836.5 1447.6059,-836.5 1447.6059,-806.5 1095.6059,-806.5"/>
<text text-anchor="start" x="1102.6059" y="-817.9" font-family="Arial" font-size="14.00" fill="#000000">account_id    </text>
<text text-anchor="start" x="1204.5035" y="-817.9" font-family="Arial" font-size="14.00" fill="#666666">[bigint]</text>
</g>
<!-- public.account_workspace&#45;&gt;public.account -->
<g id="edge5" class="edge">
<title>public.account_workspace:account_id&#45;&gt;public.account:account_id</title>
<path fill="none" stroke="#000000" d="M1271.8742,-796.3966C1274.1209,-755.5319 1289.8382,-743.4823 1294.6059,-698 1314.1132,-511.9085 1416.8334,-418.6722 1294.6059,-277 1230.477,-202.669 518.7772,-147.5 420.6059,-147.5"/>
<polygon fill="#000000" stroke="#000000" points="1271.8715,-796.5035 1267.1075,-806.3805 1271.7387,-801.5018 1271.6059,-806.5 1271.6059,-806.5 1271.6059,-806.5 1271.7387,-801.5018 1276.1043,-806.6195 1271.8715,-796.5035 1271.8715,-796.5035"/>
</g>
<!-- public.account_workspace&#45;&gt;public.workspace -->
<g id="edge6" class="edge">
<title>public.account_workspace:workspace_id&#45;&gt;public.workspace:workspace_id</title>
<path fill="none" stroke="#000000" d="M1085.6427,-849.9806C1061.5969,-841.2255 1082.716,-796.4746 1095.6059,-764 1130.7518,-675.4544 1207.46,-696.5456 1242.6059,-608 1257.9368,-569.3758 1284.1615,-514.5 1242.6059,-514.5"/>
<polygon fill="#000000" stroke="#000000" points="1085.7202,-849.9923 1094.9275,-855.9486 1090.6631,-850.7462 1095.6059,-851.5 1095.6059,-851.5 1095.6059,-851.5 1090.6631,-850.7462 1096.2844,-847.0514 1085.7202,-849.9923 1085.7202,-849.9923"/>
</g>
<!-- public.group_workspace -->
<g id="node7" class="node">
<title>public.group_workspace</title>
<polygon fill="#efefef" stroke="transparent" points="615.6059,-896.5 615.6059,-931.5 950.6059,-931.5 950.6059,-896.5 615.6059,-896.5"/>
<polygon fill="none" stroke="#000000" points="615.6059,-896.5 615.6059,-931.5 950.6059,-931.5 950.6059,-896.5 615.6059,-896.5"/>
<text text-anchor="start" x="622.3001" y="-909.3" font-family="Arial Bold" font-size="18.00" fill="#000000">public.group_workspace</text>
<text text-anchor="start" x="816.3437" y="-909.3" font-family="Arial" font-size="14.00" fill="#000000">    </text>
<text text-anchor="start" x="850.5485" y="-909.3" font-family="Arial" font-size="14.00" fill="#666666">[BASE TABLE]</text>
<polygon fill="none" stroke="#000000" points="615.6059,-866.5 615.6059,-896.5 950.6059,-896.5 950.6059,-866.5 615.6059,-866.5"/>
<text text-anchor="start" x="622.6059" y="-877.9" font-family="Arial" font-size="14.00" fill="#000000">group_workspace_id    </text>
<text text-anchor="start" x="785.9537" y="-877.9" font-family="Arial" font-size="14.00" fill="#666666">[bigint]</text>
<polygon fill="none" stroke="#000000" points="615.6059,-836.5 615.6059,-866.5 950.6059,-866.5 950.6059,-836.5 615.6059,-836.5"/>
<text text-anchor="start" x="622.6059" y="-847.9" font-family="Arial" font-size="14.00" fill="#000000">workspace_id    </text>
<text text-anchor="start" x="742.3801" y="-847.9" font-family="Arial" font-size="14.00" fill="#666666">[bigint]</text>
<polygon fill="none" stroke="#000000" points="615.6059,-806.5 615.6059,-836.5 950.6059,-836.5 950.6059,-806.5 615.6059,-806.5"/>
<text text-anchor="start" x="622.6059" y="-817.9" font-family="Arial" font-size="14.00" fill="#000000">group_id    </text>
<text text-anchor="start" x="711.2735" y="-817.9" font-family="Arial" font-size="14.00" fill="#666666">[bigint]</text>
</g>
<!-- public.group_workspace&#45;&gt;public.group -->
<g id="edge7" class="edge">
<title>public.group_workspace:group_id&#45;&gt;public.group:group_id</title>
<path fill="none" stroke="#000000" d="M783.9533,-796.4073C792.737,-666.6495 964.0785,-514.5 835.6059,-514.5"/>
<polygon fill="#000000" stroke="#000000" points="783.95,-796.5059 779.1086,-806.3452 783.7779,-801.503 783.6059,-806.5 783.6059,-806.5 783.6059,-806.5 783.7779,-801.503 788.1033,-806.6548 783.95,-796.5059 783.95,-796.5059"/>
</g>
<!-- public.group_workspace&#45;&gt;public.workspace -->
<g id="edge8" class="edge">
<title>public.group_workspace:workspace_id&#45;&gt;public.workspace:workspace_id</title>
<path fill="none" stroke="#000000" d="M960.7717,-850.9072C1085.5664,-835.2458 793.407,-514.5 939.6059,-514.5"/>
<polygon fill="#000000" stroke="#000000" points="960.589,-850.9178 950.3439,-847.0076 955.5974,-851.2089 950.6059,-851.5 950.6059,-851.5 950.6059,-851.5 955.5974,-851.2089 950.8679,-855.9924 960.589,-850.9178 960.589,-850.9178"/>
</g>
</g>
</svg>
