<?xml version="1.0" encoding="UTF-8" standalone="no"?>
<!DOCTYPE svg PUBLIC "-//W3C//DTD SVG 1.1//EN"
 "http://www.w3.org/Graphics/SVG/1.1/DTD/svg11.dtd">
<!-- Generated by graphviz version 2.40.1 (20161225.0304)
 -->
<!-- Title: meower_account Pages: 1 -->
<svg width="3063pt" height="1313pt"
 viewBox="0.00 0.00 3062.50 1313.00" xmlns="http://www.w3.org/2000/svg" xmlns:xlink="http://www.w3.org/1999/xlink">
<g id="graph0" class="graph" transform="scale(1 1) rotate(0) translate(4 1309)">
<title>meower_account</title>
<polygon fill="#ffffff" stroke="transparent" points="-4,4 -4,-1309 3058.5,-1309 3058.5,4 -4,4"/>
<!-- public.account -->
<g id="node1" class="node">
<title>public.account</title>
<polygon fill="#efefef" stroke="transparent" points="1747,-312.5 1747,-347.5 2058,-347.5 2058,-312.5 1747,-312.5"/>
<polygon fill="none" stroke="#000000" points="1747,-312.5 1747,-347.5 2058,-347.5 2058,-312.5 1747,-312.5"/>
<text text-anchor="start" x="1781.1979" y="-325.3" font-family="Arial Bold" font-size="18.00" fill="#000000">public.account</text>
<text text-anchor="start" x="1896.2341" y="-325.3" font-family="Arial" font-size="14.00" fill="#000000">    </text>
<text text-anchor="start" x="1930.4389" y="-325.3" font-family="Arial" font-size="14.00" fill="#666666">[BASE TABLE]</text>
<polygon fill="none" stroke="#000000" points="1747,-282.5 1747,-312.5 2058,-312.5 2058,-282.5 1747,-282.5"/>
<text text-anchor="start" x="1754" y="-293.9" font-family="Arial" font-size="14.00" fill="#000000">account_id    </text>
<text text-anchor="start" x="1855.8976" y="-293.9" font-family="Arial" font-size="14.00" fill="#666666">[bigint]</text>
<polygon fill="none" stroke="#000000" points="1747,-252.5 1747,-282.5 2058,-282.5 2058,-252.5 1747,-252.5"/>
<text text-anchor="start" x="1754" y="-263.9" font-family="Arial" font-size="14.00" fill="#000000">account_name    </text>
<text text-anchor="start" x="1880.0168" y="-263.9" font-family="Arial" font-size="14.00" fill="#666666">[varchar(255)]</text>
<polygon fill="none" stroke="#000000" points="1747,-222.5 1747,-252.5 2058,-252.5 2058,-222.5 1747,-222.5"/>
<text text-anchor="start" x="1754" y="-233.9" font-family="Arial" font-size="14.00" fill="#000000">email    </text>
<text text-anchor="start" x="1821.6438" y="-233.9" font-family="Arial" font-size="14.00" fill="#666666">[varchar(255)]</text>
<polygon fill="none" stroke="#000000" points="1747,-192.5 1747,-222.5 2058,-222.5 2058,-192.5 1747,-192.5"/>
<text text-anchor="start" x="1754" y="-203.9" font-family="Arial" font-size="14.00" fill="#000000">public_user_id    </text>
<text text-anchor="start" x="1878.446" y="-203.9" font-family="Arial" font-size="14.00" fill="#666666">[varchar(255)]</text>
<polygon fill="none" stroke="#000000" points="1747,-162.5 1747,-192.5 2058,-192.5 2058,-162.5 1747,-162.5"/>
<text text-anchor="start" x="1754" y="-173.9" font-family="Arial" font-size="14.00" fill="#000000">default_account_profile_id    </text>
<text text-anchor="start" x="1951.5932" y="-173.9" font-family="Arial" font-size="14.00" fill="#666666">[bigint]</text>
<polygon fill="none" stroke="#000000" points="1747,-132.5 1747,-162.5 2058,-162.5 2058,-132.5 1747,-132.5"/>
<text text-anchor="start" x="1754" y="-143.9" font-family="Arial" font-size="14.00" fill="#000000">default_workspace_id    </text>
<text text-anchor="start" x="1923.575" y="-143.9" font-family="Arial" font-size="14.00" fill="#666666">[bigint]</text>
<polygon fill="none" stroke="#000000" points="1747,-102.5 1747,-132.5 2058,-132.5 2058,-102.5 1747,-102.5"/>
<text text-anchor="start" x="1754" y="-113.9" font-family="Arial" font-size="14.00" fill="#000000">created_at    </text>
<text text-anchor="start" x="1854.3422" y="-113.9" font-family="Arial" font-size="14.00" fill="#666666">[timestamp without time zone]</text>
<polygon fill="none" stroke="#000000" points="1747,-72.5 1747,-102.5 2058,-102.5 2058,-72.5 1747,-72.5"/>
<text text-anchor="start" x="1753.5379" y="-83.9" font-family="Arial" font-size="14.00" fill="#000000">last_login_at    </text>
<text text-anchor="start" x="1866.3219" y="-83.9" font-family="Arial" font-size="14.00" fill="#666666">[timestamp without time zone]</text>
<polygon fill="none" stroke="#000000" points="1747,-42.5 1747,-72.5 2058,-72.5 2058,-42.5 1747,-42.5"/>
<text text-anchor="start" x="1754" y="-53.9" font-family="Arial" font-size="14.00" fill="#000000">is_public    </text>
<text text-anchor="start" x="1842.655" y="-53.9" font-family="Arial" font-size="14.00" fill="#666666">[boolean]</text>
</g>
<!-- public.account_profile -->
<g id="node2" class="node">
<title>public.account_profile</title>
<polygon fill="#efefef" stroke="transparent" points="2083,-859.5 2083,-894.5 2398,-894.5 2398,-859.5 2083,-859.5"/>
<polygon fill="none" stroke="#000000" points="2083,-859.5 2083,-894.5 2398,-894.5 2398,-859.5 2083,-859.5"/>
<text text-anchor="start" x="2089.6941" y="-872.3" font-family="Arial Bold" font-size="18.00" fill="#000000">public.account_profile</text>
<text text-anchor="start" x="2263.7379" y="-872.3" font-family="Arial" font-size="14.00" fill="#000000">    </text>
<text text-anchor="start" x="2297.9427" y="-872.3" font-family="Arial" font-size="14.00" fill="#666666">[BASE TABLE]</text>
<polygon fill="none" stroke="#000000" points="2083,-829.5 2083,-859.5 2398,-859.5 2398,-829.5 2083,-829.5"/>
<text text-anchor="start" x="2090" y="-840.9" font-family="Arial" font-size="14.00" fill="#000000">account_profile_id    </text>
<text text-anchor="start" x="2237.7924" y="-840.9" font-family="Arial" font-size="14.00" fill="#666666">[bigint]</text>
<polygon fill="none" stroke="#000000" points="2083,-799.5 2083,-829.5 2398,-829.5 2398,-799.5 2083,-799.5"/>
<text text-anchor="start" x="2090" y="-810.9" font-family="Arial" font-size="14.00" fill="#000000">token    </text>
<text text-anchor="start" x="2158.4432" y="-810.9" font-family="Arial" font-size="14.00" fill="#666666">[varchar(255)]</text>
<polygon fill="none" stroke="#000000" points="2083,-769.5 2083,-799.5 2398,-799.5 2398,-769.5 2083,-769.5"/>
<text text-anchor="start" x="2090" y="-780.9" font-family="Arial" font-size="14.00" fill="#000000">account_id    </text>
<text text-anchor="start" x="2191.8976" y="-780.9" font-family="Arial" font-size="14.00" fill="#666666">[bigint]</text>
<polygon fill="none" stroke="#000000" points="2083,-739.5 2083,-769.5 2398,-769.5 2398,-739.5 2083,-739.5"/>
<text text-anchor="start" x="2090" y="-750.9" font-family="Arial" font-size="14.00" fill="#000000">name    </text>
<text text-anchor="start" x="2159.2132" y="-750.9" font-family="Arial" font-size="14.00" fill="#666666">[varchar(255)]</text>
<polygon fill="none" stroke="#000000" points="2083,-709.5 2083,-739.5 2398,-739.5 2398,-709.5 2083,-709.5"/>
<text text-anchor="start" x="2090" y="-720.9" font-family="Arial" font-size="14.00" fill="#000000">affiliation    </text>
<text text-anchor="start" x="2179.4334" y="-720.9" font-family="Arial" font-size="14.00" fill="#666666">[varchar(255)]</text>
<polygon fill="none" stroke="#000000" points="2083,-679.5 2083,-709.5 2398,-709.5 2398,-679.5 2083,-679.5"/>
<text text-anchor="start" x="2090" y="-690.9" font-family="Arial" font-size="14.00" fill="#000000">location    </text>
<text text-anchor="start" x="2172.439" y="-690.9" font-family="Arial" font-size="14.00" fill="#666666">[varchar(255)]</text>
<polygon fill="none" stroke="#000000" points="2083,-649.5 2083,-679.5 2398,-679.5 2398,-649.5 2083,-649.5"/>
<text text-anchor="start" x="2090" y="-660.9" font-family="Arial" font-size="14.00" fill="#000000">bio    </text>
<text text-anchor="start" x="2142.8766" y="-660.9" font-family="Arial" font-size="14.00" fill="#666666">[text]</text>
<polygon fill="none" stroke="#000000" points="2083,-619.5 2083,-649.5 2398,-649.5 2398,-619.5 2083,-619.5"/>
<text text-anchor="start" x="2090" y="-630.9" font-family="Arial" font-size="14.00" fill="#000000">email    </text>
<text text-anchor="start" x="2157.6438" y="-630.9" font-family="Arial" font-size="14.00" fill="#666666">[varchar(255)]</text>
<polygon fill="none" stroke="#000000" points="2083,-589.5 2083,-619.5 2398,-619.5 2398,-589.5 2083,-589.5"/>
<text text-anchor="start" x="2090" y="-600.9" font-family="Arial" font-size="14.00" fill="#000000">telno    </text>
<text text-anchor="start" x="2154.5498" y="-600.9" font-family="Arial" font-size="14.00" fill="#666666">[varchar(255)]</text>
<polygon fill="none" stroke="#000000" points="2083,-559.5 2083,-589.5 2398,-589.5 2398,-559.5 2083,-559.5"/>
<text text-anchor="start" x="2090" y="-570.9" font-family="Arial" font-size="14.00" fill="#000000">birthdate    </text>
<text text-anchor="start" x="2178.6662" y="-570.9" font-family="Arial" font-size="14.00" fill="#666666">[timestamp without time zone]</text>
<polygon fill="none" stroke="#000000" points="2083,-529.5 2083,-559.5 2398,-559.5 2398,-529.5 2083,-529.5"/>
<text text-anchor="start" x="2090" y="-540.9" font-family="Arial" font-size="14.00" fill="#000000">gender    </text>
<text text-anchor="start" x="2167.7784" y="-540.9" font-family="Arial" font-size="14.00" fill="#666666">[integer]</text>
<polygon fill="none" stroke="#000000" points="2083,-499.5 2083,-529.5 2398,-529.5 2398,-499.5 2083,-499.5"/>
<text text-anchor="start" x="2090" y="-510.9" font-family="Arial" font-size="14.00" fill="#000000">created_at    </text>
<text text-anchor="start" x="2190.3422" y="-510.9" font-family="Arial" font-size="14.00" fill="#666666">[timestamp without time zone]</text>
<polygon fill="none" stroke="#000000" points="2083,-469.5 2083,-499.5 2398,-499.5 2398,-469.5 2083,-469.5"/>
<text text-anchor="start" x="2090" y="-480.9" font-family="Arial" font-size="14.00" fill="#000000">updated_at    </text>
<text text-anchor="start" x="2194.2468" y="-480.9" font-family="Arial" font-size="14.00" fill="#666666">[timestamp without time zone]</text>
</g>
<!-- public.account_profile&#45;&gt;public.account -->
<g id="edge1" class="edge">
<title>public.account_profile:account_id&#45;&gt;public.account:account_id</title>
<path fill="none" stroke="#000000" d="M2074.3855,-779.0308C2038.7009,-725.5273 2108.796,-297.5 2058,-297.5"/>
<polygon fill="#000000" stroke="#000000" points="2074.5577,-779.1401 2080.588,-788.299 2078.7789,-781.82 2083,-784.5 2083,-784.5 2083,-784.5 2078.7789,-781.82 2085.412,-780.701 2074.5577,-779.1401 2074.5577,-779.1401"/>
</g>
<!-- public.group -->
<g id="node3" class="node">
<title>public.group</title>
<polygon fill="#efefef" stroke="transparent" points="1138,-844.5 1138,-879.5 1441,-879.5 1441,-844.5 1138,-844.5"/>
<polygon fill="none" stroke="#000000" points="1138,-844.5 1138,-879.5 1441,-879.5 1441,-844.5 1138,-844.5"/>
<text text-anchor="start" x="1176.7029" y="-857.3" font-family="Arial Bold" font-size="18.00" fill="#000000">public.group</text>
<text text-anchor="start" x="1274.7291" y="-857.3" font-family="Arial" font-size="14.00" fill="#000000">    </text>
<text text-anchor="start" x="1308.9339" y="-857.3" font-family="Arial" font-size="14.00" fill="#666666">[BASE TABLE]</text>
<polygon fill="none" stroke="#000000" points="1138,-814.5 1138,-844.5 1441,-844.5 1441,-814.5 1138,-814.5"/>
<text text-anchor="start" x="1145" y="-825.9" font-family="Arial" font-size="14.00" fill="#000000">group_id    </text>
<text text-anchor="start" x="1233.6676" y="-825.9" font-family="Arial" font-size="14.00" fill="#666666">[bigint]</text>
<polygon fill="none" stroke="#000000" points="1138,-784.5 1138,-814.5 1441,-814.5 1441,-784.5 1138,-784.5"/>
<text text-anchor="start" x="1145" y="-795.9" font-family="Arial" font-size="14.00" fill="#000000">group_name    </text>
<text text-anchor="start" x="1257.7868" y="-795.9" font-family="Arial" font-size="14.00" fill="#666666">[varchar(255)]</text>
<polygon fill="none" stroke="#000000" points="1138,-754.5 1138,-784.5 1441,-784.5 1441,-754.5 1138,-754.5"/>
<text text-anchor="start" x="1145" y="-765.9" font-family="Arial" font-size="14.00" fill="#000000">name    </text>
<text text-anchor="start" x="1214.2132" y="-765.9" font-family="Arial" font-size="14.00" fill="#666666">[varchar(255)]</text>
<polygon fill="none" stroke="#000000" points="1138,-724.5 1138,-754.5 1441,-754.5 1441,-724.5 1138,-724.5"/>
<text text-anchor="start" x="1145" y="-735.9" font-family="Arial" font-size="14.00" fill="#000000">description    </text>
<text text-anchor="start" x="1246.8822" y="-735.9" font-family="Arial" font-size="14.00" fill="#666666">[text]</text>
<polygon fill="none" stroke="#000000" points="1138,-694.5 1138,-724.5 1441,-724.5 1441,-694.5 1138,-694.5"/>
<text text-anchor="start" x="1145" y="-705.9" font-family="Arial" font-size="14.00" fill="#000000">representative    </text>
<text text-anchor="start" x="1267.892" y="-705.9" font-family="Arial" font-size="14.00" fill="#666666">[varchar(255)]</text>
<polygon fill="none" stroke="#000000" points="1138,-664.5 1138,-694.5 1441,-694.5 1441,-664.5 1138,-664.5"/>
<text text-anchor="start" x="1145" y="-675.9" font-family="Arial" font-size="14.00" fill="#000000">location    </text>
<text text-anchor="start" x="1227.439" y="-675.9" font-family="Arial" font-size="14.00" fill="#666666">[varchar(255)]</text>
<polygon fill="none" stroke="#000000" points="1138,-634.5 1138,-664.5 1441,-664.5 1441,-634.5 1138,-634.5"/>
<text text-anchor="start" x="1145" y="-645.9" font-family="Arial" font-size="14.00" fill="#000000">email    </text>
<text text-anchor="start" x="1212.6438" y="-645.9" font-family="Arial" font-size="14.00" fill="#666666">[varchar(255)]</text>
<polygon fill="none" stroke="#000000" points="1138,-604.5 1138,-634.5 1441,-634.5 1441,-604.5 1138,-604.5"/>
<text text-anchor="start" x="1145" y="-615.9" font-family="Arial" font-size="14.00" fill="#000000">telno    </text>
<text text-anchor="start" x="1209.5498" y="-615.9" font-family="Arial" font-size="14.00" fill="#666666">[varchar(255)]</text>
<polygon fill="none" stroke="#000000" points="1138,-574.5 1138,-604.5 1441,-604.5 1441,-574.5 1138,-574.5"/>
<text text-anchor="start" x="1144.8065" y="-585.9" font-family="Arial" font-size="14.00" fill="#000000">founded_at    </text>
<text text-anchor="start" x="1249.0533" y="-585.9" font-family="Arial" font-size="14.00" fill="#666666">[timestamp without time zone]</text>
<polygon fill="none" stroke="#000000" points="1138,-544.5 1138,-574.5 1441,-574.5 1441,-544.5 1138,-544.5"/>
<text text-anchor="start" x="1145" y="-555.9" font-family="Arial" font-size="14.00" fill="#000000">created_at    </text>
<text text-anchor="start" x="1245.3422" y="-555.9" font-family="Arial" font-size="14.00" fill="#666666">[timestamp without time zone]</text>
<polygon fill="none" stroke="#000000" points="1138,-514.5 1138,-544.5 1441,-544.5 1441,-514.5 1138,-514.5"/>
<text text-anchor="start" x="1144.8065" y="-525.9" font-family="Arial" font-size="14.00" fill="#000000">updated_at    </text>
<text text-anchor="start" x="1249.0533" y="-525.9" font-family="Arial" font-size="14.00" fill="#666666">[timestamp without time zone]</text>
<polygon fill="none" stroke="#000000" points="1138,-484.5 1138,-514.5 1441,-514.5 1441,-484.5 1138,-484.5"/>
<text text-anchor="start" x="1145" y="-495.9" font-family="Arial" font-size="14.00" fill="#000000">is_public    </text>
<text text-anchor="start" x="1233.655" y="-495.9" font-family="Arial" font-size="14.00" fill="#666666">[boolean]</text>
</g>
<!-- public.group_member -->
<g id="node4" class="node">
<title>public.group_member</title>
<polygon fill="#efefef" stroke="transparent" points="1745,-1196.5 1745,-1231.5 2060,-1231.5 2060,-1196.5 1745,-1196.5"/>
<polygon fill="none" stroke="#000000" points="1745,-1196.5 1745,-1231.5 2060,-1231.5 2060,-1196.5 1745,-1196.5"/>
<text text-anchor="start" x="1751.7022" y="-1209.3" font-family="Arial Bold" font-size="18.00" fill="#000000">public.group_member</text>
<text text-anchor="start" x="1925.7298" y="-1209.3" font-family="Arial" font-size="14.00" fill="#000000">    </text>
<text text-anchor="start" x="1959.9346" y="-1209.3" font-family="Arial" font-size="14.00" fill="#666666">[BASE TABLE]</text>
<polygon fill="none" stroke="#000000" points="1745,-1166.5 1745,-1196.5 2060,-1196.5 2060,-1166.5 1745,-1166.5"/>
<text text-anchor="start" x="1752" y="-1177.9" font-family="Arial" font-size="14.00" fill="#000000">group_member_id    </text>
<text text-anchor="start" x="1899.7798" y="-1177.9" font-family="Arial" font-size="14.00" fill="#666666">[bigint]</text>
<polygon fill="none" stroke="#000000" points="1745,-1136.5 1745,-1166.5 2060,-1166.5 2060,-1136.5 1745,-1136.5"/>
<text text-anchor="start" x="1752" y="-1147.9" font-family="Arial" font-size="14.00" fill="#000000">group_id    </text>
<text text-anchor="start" x="1840.6676" y="-1147.9" font-family="Arial" font-size="14.00" fill="#666666">[bigint]</text>
<polygon fill="none" stroke="#000000" points="1745,-1106.5 1745,-1136.5 2060,-1136.5 2060,-1106.5 1745,-1106.5"/>
<text text-anchor="start" x="1752" y="-1117.9" font-family="Arial" font-size="14.00" fill="#000000">account_id    </text>
<text text-anchor="start" x="1853.8976" y="-1117.9" font-family="Arial" font-size="14.00" fill="#666666">[bigint]</text>
<polygon fill="none" stroke="#000000" points="1745,-1076.5 1745,-1106.5 2060,-1106.5 2060,-1076.5 1745,-1076.5"/>
<text text-anchor="start" x="1752" y="-1087.9" font-family="Arial" font-size="14.00" fill="#000000">account_profile_id    </text>
<text text-anchor="start" x="1899.7924" y="-1087.9" font-family="Arial" font-size="14.00" fill="#666666">[bigint]</text>
<polygon fill="none" stroke="#000000" points="1745,-1046.5 1745,-1076.5 2060,-1076.5 2060,-1046.5 1745,-1046.5"/>
<text text-anchor="start" x="1752" y="-1057.9" font-family="Arial" font-size="14.00" fill="#000000">role    </text>
<text text-anchor="start" x="1809.5372" y="-1057.9" font-family="Arial" font-size="14.00" fill="#666666">[integer]</text>
</g>
<!-- public.group_member&#45;&gt;public.account -->
<g id="edge2" class="edge">
<title>public.group_member:account_id&#45;&gt;public.account:account_id</title>
<path fill="none" stroke="#000000" d="M2070.1348,-1120.4352C2106.2774,-1111.7196 2070.2349,-1051.2506 2060,-1004 2053.1787,-972.5089 2036.8213,-969.4911 2030,-938 1981.9206,-716.0364 1956.2942,-641.8183 2030,-427 2036.5783,-407.8274 2051.4217,-410.1726 2058,-391 2071.4863,-351.6937 2099.5556,-297.5 2058,-297.5"/>
<polygon fill="#000000" stroke="#000000" points="2069.9453,-1120.455 2059.5298,-1117.0246 2064.9726,-1120.9775 2060,-1121.5 2060,-1121.5 2060,-1121.5 2064.9726,-1120.9775 2060.4702,-1125.9754 2069.9453,-1120.455 2069.9453,-1120.455"/>
</g>
<!-- public.group_member&#45;&gt;public.account_profile -->
<g id="edge3" class="edge">
<title>public.group_member:account_profile_id&#45;&gt;public.account_profile:account_profile_id</title>
<path fill="none" stroke="#000000" d="M2069.9869,-1090.7012C2157.4764,-1075.37 1976.408,-844.5 2083,-844.5"/>
<polygon fill="#000000" stroke="#000000" points="2069.9682,-1090.7026 2059.6412,-1087.0143 2064.9841,-1091.1013 2060,-1091.5 2060,-1091.5 2060,-1091.5 2064.9841,-1091.1013 2060.3588,-1095.9857 2069.9682,-1090.7026 2069.9682,-1090.7026"/>
</g>
<!-- public.group_member&#45;&gt;public.group -->
<g id="edge4" class="edge">
<title>public.group_member:group_id&#45;&gt;public.group:group_id</title>
<path fill="none" stroke="#000000" d="M1734.8632,-1150.8309C1669.6286,-1141.4514 1740.7864,-1035.6677 1692,-974 1612.1365,-873.0497 1569.7212,-829.5 1441,-829.5"/>
<polygon fill="#000000" stroke="#000000" points="1735.0217,-1150.8413 1744.7036,-1155.9902 1740.0109,-1151.1707 1745,-1151.5 1745,-1151.5 1745,-1151.5 1740.0109,-1151.1707 1745.2964,-1147.0098 1735.0217,-1150.8413 1735.0217,-1150.8413"/>
</g>
<!-- public.workspace -->
<g id="node5" class="node">
<title>public.workspace</title>
<polygon fill="#efefef" stroke="transparent" points="460,-739.5 460,-774.5 763,-774.5 763,-739.5 460,-739.5"/>
<polygon fill="none" stroke="#000000" points="460,-739.5 460,-774.5 763,-774.5 763,-739.5 460,-739.5"/>
<text text-anchor="start" x="478.7058" y="-752.3" font-family="Arial Bold" font-size="18.00" fill="#000000">public.workspace</text>
<text text-anchor="start" x="616.7262" y="-752.3" font-family="Arial" font-size="14.00" fill="#000000">    </text>
<text text-anchor="start" x="650.931" y="-752.3" font-family="Arial" font-size="14.00" fill="#666666">[BASE TABLE]</text>
<polygon fill="none" stroke="#000000" points="460,-709.5 460,-739.5 763,-739.5 763,-709.5 460,-709.5"/>
<text text-anchor="start" x="467" y="-720.9" font-family="Arial" font-size="14.00" fill="#000000">workspace_id    </text>
<text text-anchor="start" x="586.7742" y="-720.9" font-family="Arial" font-size="14.00" fill="#666666">[bigint]</text>
<polygon fill="none" stroke="#000000" points="460,-679.5 460,-709.5 763,-709.5 763,-679.5 460,-679.5"/>
<text text-anchor="start" x="467" y="-690.9" font-family="Arial" font-size="14.00" fill="#000000">workspace_name    </text>
<text text-anchor="start" x="610.8934" y="-690.9" font-family="Arial" font-size="14.00" fill="#666666">[varchar(255)]</text>
<polygon fill="none" stroke="#000000" points="460,-649.5 460,-679.5 763,-679.5 763,-649.5 460,-649.5"/>
<text text-anchor="start" x="467" y="-660.9" font-family="Arial" font-size="14.00" fill="#000000">name    </text>
<text text-anchor="start" x="536.2132" y="-660.9" font-family="Arial" font-size="14.00" fill="#666666">[varchar(255)]</text>
<polygon fill="none" stroke="#000000" points="460,-619.5 460,-649.5 763,-649.5 763,-619.5 460,-619.5"/>
<text text-anchor="start" x="467" y="-630.9" font-family="Arial" font-size="14.00" fill="#000000">created_at    </text>
<text text-anchor="start" x="567.3422" y="-630.9" font-family="Arial" font-size="14.00" fill="#666666">[timestamp without time zone]</text>
<polygon fill="none" stroke="#000000" points="460,-589.5 460,-619.5 763,-619.5 763,-589.5 460,-589.5"/>
<text text-anchor="start" x="466.8065" y="-600.9" font-family="Arial" font-size="14.00" fill="#000000">updated_at    </text>
<text text-anchor="start" x="571.0533" y="-600.9" font-family="Arial" font-size="14.00" fill="#666666">[timestamp without time zone]</text>
</g>
<!-- public.account_workspace -->
<g id="node6" class="node">
<title>public.account_workspace</title>
<polygon fill="#efefef" stroke="transparent" points="43,-1166.5 43,-1201.5 395,-1201.5 395,-1166.5 43,-1166.5"/>
<polygon fill="none" stroke="#000000" points="43,-1166.5 43,-1201.5 395,-1201.5 395,-1166.5 43,-1166.5"/>
<text text-anchor="start" x="49.6892" y="-1179.3" font-family="Arial Bold" font-size="18.00" fill="#000000">public.account_workspace</text>
<text text-anchor="start" x="260.7428" y="-1179.3" font-family="Arial" font-size="14.00" fill="#000000">    </text>
<text text-anchor="start" x="294.9476" y="-1179.3" font-family="Arial" font-size="14.00" fill="#666666">[BASE TABLE]</text>
<polygon fill="none" stroke="#000000" points="43,-1136.5 43,-1166.5 395,-1166.5 395,-1136.5 43,-1136.5"/>
<text text-anchor="start" x="50" y="-1147.9" font-family="Arial" font-size="14.00" fill="#000000">account_workspace_id    </text>
<text text-anchor="start" x="226.5778" y="-1147.9" font-family="Arial" font-size="14.00" fill="#666666">[bigint]</text>
<polygon fill="none" stroke="#000000" points="43,-1106.5 43,-1136.5 395,-1136.5 395,-1106.5 43,-1106.5"/>
<text text-anchor="start" x="50" y="-1117.9" font-family="Arial" font-size="14.00" fill="#000000">workspace_id    </text>
<text text-anchor="start" x="169.7742" y="-1117.9" font-family="Arial" font-size="14.00" fill="#666666">[bigint]</text>
<polygon fill="none" stroke="#000000" points="43,-1076.5 43,-1106.5 395,-1106.5 395,-1076.5 43,-1076.5"/>
<text text-anchor="start" x="50" y="-1087.9" font-family="Arial" font-size="14.00" fill="#000000">account_id    </text>
<text text-anchor="start" x="151.8976" y="-1087.9" font-family="Arial" font-size="14.00" fill="#666666">[bigint]</text>
</g>
<!-- public.account_workspace&#45;&gt;public.account -->
<g id="edge5" class="edge">
<title>public.account_workspace:account_id&#45;&gt;public.account:account_id</title>
<path fill="none" stroke="#000000" d="M218.9841,-1066.4292C218.0631,-772.4515 178.3412,-616.7579 407,-427 522.1081,-331.4748 1597.4174,-297.5 1747,-297.5"/>
<polygon fill="#000000" stroke="#000000" points="218.9841,-1066.5 214.5,-1076.5072 218.992,-1071.5 219,-1076.5 219,-1076.5 219,-1076.5 218.992,-1071.5 223.5,-1076.4928 218.9841,-1066.5 218.9841,-1066.5"/>
</g>
<!-- public.account_workspace&#45;&gt;public.workspace -->
<g id="edge6" class="edge">
<title>public.account_workspace:workspace_id&#45;&gt;public.workspace:workspace_id</title>
<path fill="none" stroke="#000000" d="M405.0026,-1119.5512C475.4041,-1089.6015 374.2698,-724.5 460,-724.5"/>
<polygon fill="#000000" stroke="#000000" points="404.8154,-1119.5876 394.1394,-1117.0831 399.9077,-1120.5438 395,-1121.5 395,-1121.5 395,-1121.5 399.9077,-1120.5438 395.8606,-1125.9169 404.8154,-1119.5876 404.8154,-1119.5876"/>
</g>
<!-- public.group_workspace -->
<g id="node7" class="node">
<title>public.group_workspace</title>
<polygon fill="#efefef" stroke="transparent" points="500,-1166.5 500,-1201.5 835,-1201.5 835,-1166.5 500,-1166.5"/>
<polygon fill="none" stroke="#000000" points="500,-1166.5 500,-1201.5 835,-1201.5 835,-1166.5 500,-1166.5"/>
<text text-anchor="start" x="506.6942" y="-1179.3" font-family="Arial Bold" font-size="18.00" fill="#000000">public.group_workspace</text>
<text text-anchor="start" x="700.7378" y="-1179.3" font-family="Arial" font-size="14.00" fill="#000000">    </text>
<text text-anchor="start" x="734.9426" y="-1179.3" font-family="Arial" font-size="14.00" fill="#666666">[BASE TABLE]</text>
<polygon fill="none" stroke="#000000" points="500,-1136.5 500,-1166.5 835,-1166.5 835,-1136.5 500,-1136.5"/>
<text text-anchor="start" x="507" y="-1147.9" font-family="Arial" font-size="14.00" fill="#000000">group_workspace_id    </text>
<text text-anchor="start" x="670.3478" y="-1147.9" font-family="Arial" font-size="14.00" fill="#666666">[bigint]</text>
<polygon fill="none" stroke="#000000" points="500,-1106.5 500,-1136.5 835,-1136.5 835,-1106.5 500,-1106.5"/>
<text text-anchor="start" x="507" y="-1117.9" font-family="Arial" font-size="14.00" fill="#000000">workspace_id    </text>
<text text-anchor="start" x="626.7742" y="-1117.9" font-family="Arial" font-size="14.00" fill="#666666">[bigint]</text>
<polygon fill="none" stroke="#000000" points="500,-1076.5 500,-1106.5 835,-1106.5 835,-1076.5 500,-1076.5"/>
<text text-anchor="start" x="507" y="-1087.9" font-family="Arial" font-size="14.00" fill="#000000">group_id    </text>
<text text-anchor="start" x="595.6676" y="-1087.9" font-family="Arial" font-size="14.00" fill="#666666">[bigint]</text>
</g>
<!-- public.group_workspace&#45;&gt;public.group -->
<g id="edge7" class="edge">
<title>public.group_workspace:group_id&#45;&gt;public.group:group_id</title>
<path fill="none" stroke="#000000" d="M845.0611,-1090.5384C886.4615,-1081.6735 850.5634,-1013.6111 886,-974 972.0809,-877.7785 1008.8935,-829.5 1138,-829.5"/>
<polygon fill="#000000" stroke="#000000" points="844.9546,-1090.5485 834.5718,-1087.0204 839.9773,-1091.0242 835,-1091.5 835,-1091.5 835,-1091.5 839.9773,-1091.0242 835.4282,-1095.9796 844.9546,-1090.5485 844.9546,-1090.5485"/>
</g>
<!-- public.group_workspace&#45;&gt;public.workspace -->
<g id="edge8" class="edge">
<title>public.group_workspace:workspace_id&#45;&gt;public.workspace:workspace_id</title>
<path fill="none" stroke="#000000" d="M489.9736,-1119.9531C465.5761,-1111.0453 485.0673,-1065.5874 500,-1034 564.6461,-897.2524 698.3539,-954.7476 763,-818 780.7604,-780.431 804.5556,-724.5 763,-724.5"/>
<polygon fill="#000000" stroke="#000000" points="490.1169,-1119.9752 499.3138,-1125.9474 495.0585,-1120.7376 500,-1121.5 500,-1121.5 500,-1121.5 495.0585,-1120.7376 500.6862,-1117.0526 490.1169,-1119.9752 490.1169,-1119.9752"/>
</g>
<!-- public.account_profile_avatar -->
<g id="node8" class="node">
<title>public.account_profile_avatar</title>
<polygon fill="#efefef" stroke="transparent" points="2637,-1226.5 2637,-1261.5 3012,-1261.5 3012,-1226.5 2637,-1226.5"/>
<polygon fill="none" stroke="#000000" points="2637,-1226.5 2637,-1261.5 3012,-1261.5 3012,-1226.5 2637,-1226.5"/>
<text text-anchor="start" x="2643.6845" y="-1239.3" font-family="Arial Bold" font-size="18.00" fill="#000000">public.account_profile_avatar</text>
<text text-anchor="start" x="2877.7475" y="-1239.3" font-family="Arial" font-size="14.00" fill="#000000">    </text>
<text text-anchor="start" x="2911.9523" y="-1239.3" font-family="Arial" font-size="14.00" fill="#666666">[BASE TABLE]</text>
<polygon fill="none" stroke="#000000" points="2637,-1196.5 2637,-1226.5 3012,-1226.5 3012,-1196.5 2637,-1196.5"/>
<text text-anchor="start" x="2644" y="-1207.9" font-family="Arial" font-size="14.00" fill="#000000">account_profile_avatar_id    </text>
<text text-anchor="start" x="2838.474" y="-1207.9" font-family="Arial" font-size="14.00" fill="#666666">[bigint]</text>
<polygon fill="none" stroke="#000000" points="2637,-1166.5 2637,-1196.5 3012,-1196.5 3012,-1166.5 2637,-1166.5"/>
<text text-anchor="start" x="2644" y="-1177.9" font-family="Arial" font-size="14.00" fill="#000000">account_profile_id    </text>
<text text-anchor="start" x="2791.7924" y="-1177.9" font-family="Arial" font-size="14.00" fill="#666666">[bigint]</text>
<polygon fill="none" stroke="#000000" points="2637,-1136.5 2637,-1166.5 3012,-1166.5 3012,-1136.5 2637,-1136.5"/>
<text text-anchor="start" x="2644" y="-1147.9" font-family="Arial" font-size="14.00" fill="#000000">file_key    </text>
<text text-anchor="start" x="2725.6564" y="-1147.9" font-family="Arial" font-size="14.00" fill="#666666">[varchar(255)]</text>
<polygon fill="none" stroke="#000000" points="2637,-1106.5 2637,-1136.5 3012,-1136.5 3012,-1106.5 2637,-1106.5"/>
<text text-anchor="start" x="2644" y="-1117.9" font-family="Arial" font-size="14.00" fill="#000000">file_name    </text>
<text text-anchor="start" x="2738.8822" y="-1117.9" font-family="Arial" font-size="14.00" fill="#666666">[varchar(255)]</text>
<polygon fill="none" stroke="#000000" points="2637,-1076.5 2637,-1106.5 3012,-1106.5 3012,-1076.5 2637,-1076.5"/>
<text text-anchor="start" x="2644" y="-1087.9" font-family="Arial" font-size="14.00" fill="#000000">file_size    </text>
<text text-anchor="start" x="2728.763" y="-1087.9" font-family="Arial" font-size="14.00" fill="#666666">[bigint]</text>
<polygon fill="none" stroke="#000000" points="2637,-1046.5 2637,-1076.5 3012,-1076.5 3012,-1046.5 2637,-1046.5"/>
<text text-anchor="start" x="2644" y="-1057.9" font-family="Arial" font-size="14.00" fill="#000000">content_type    </text>
<text text-anchor="start" x="2758.3548" y="-1057.9" font-family="Arial" font-size="14.00" fill="#666666">[varchar(255)]</text>
<polygon fill="none" stroke="#000000" points="2637,-1016.5 2637,-1046.5 3012,-1046.5 3012,-1016.5 2637,-1016.5"/>
<text text-anchor="start" x="2644" y="-1027.9" font-family="Arial" font-size="14.00" fill="#000000">created_at    </text>
<text text-anchor="start" x="2744.3422" y="-1027.9" font-family="Arial" font-size="14.00" fill="#666666">[timestamp without time zone]</text>
</g>
<!-- public.account_profile_avatar&#45;&gt;public.account_profile -->
<g id="edge9" class="edge">
<title>public.account_profile_avatar:account_profile_id&#45;&gt;public.account_profile:account_profile_id</title>
<path fill="none" stroke="#000000" d="M2626.7181,-1180.9188C2549.2869,-1171.475 2636.9869,-1049.1268 2585,-974 2527.4739,-890.8685 2499.0945,-844.5 2398,-844.5"/>
<polygon fill="#000000" stroke="#000000" points="2627.0159,-1180.9355 2636.746,-1185.9928 2632.008,-1181.2178 2637,-1181.5 2637,-1181.5 2637,-1181.5 2632.008,-1181.2178 2637.254,-1177.0072 2627.0159,-1180.9355 2627.0159,-1180.9355"/>
</g>
<!-- public.account_profile_cover -->
<g id="node9" class="node">
<title>public.account_profile_cover</title>
<polygon fill="#efefef" stroke="transparent" points="2164,-1226.5 2164,-1261.5 2533,-1261.5 2533,-1226.5 2164,-1226.5"/>
<polygon fill="none" stroke="#000000" points="2164,-1226.5 2164,-1261.5 2533,-1261.5 2533,-1226.5 2164,-1226.5"/>
<text text-anchor="start" x="2170.6887" y="-1239.3" font-family="Arial Bold" font-size="18.00" fill="#000000">public.account_profile_cover</text>
<text text-anchor="start" x="2398.7433" y="-1239.3" font-family="Arial" font-size="14.00" fill="#000000">    </text>
<text text-anchor="start" x="2432.9481" y="-1239.3" font-family="Arial" font-size="14.00" fill="#666666">[BASE TABLE]</text>
<polygon fill="none" stroke="#000000" points="2164,-1196.5 2164,-1226.5 2533,-1226.5 2533,-1196.5 2164,-1196.5"/>
<text text-anchor="start" x="2171" y="-1207.9" font-family="Arial" font-size="14.00" fill="#000000">account_profile_cover_id    </text>
<text text-anchor="start" x="2360.8008" y="-1207.9" font-family="Arial" font-size="14.00" fill="#666666">[bigint]</text>
<polygon fill="none" stroke="#000000" points="2164,-1166.5 2164,-1196.5 2533,-1196.5 2533,-1166.5 2164,-1166.5"/>
<text text-anchor="start" x="2171" y="-1177.9" font-family="Arial" font-size="14.00" fill="#000000">account_profile_id    </text>
<text text-anchor="start" x="2318.7924" y="-1177.9" font-family="Arial" font-size="14.00" fill="#666666">[bigint]</text>
<polygon fill="none" stroke="#000000" points="2164,-1136.5 2164,-1166.5 2533,-1166.5 2533,-1136.5 2164,-1136.5"/>
<text text-anchor="start" x="2171" y="-1147.9" font-family="Arial" font-size="14.00" fill="#000000">file_key    </text>
<text text-anchor="start" x="2252.6564" y="-1147.9" font-family="Arial" font-size="14.00" fill="#666666">[varchar(255)]</text>
<polygon fill="none" stroke="#000000" points="2164,-1106.5 2164,-1136.5 2533,-1136.5 2533,-1106.5 2164,-1106.5"/>
<text text-anchor="start" x="2171" y="-1117.9" font-family="Arial" font-size="14.00" fill="#000000">file_name    </text>
<text text-anchor="start" x="2265.8822" y="-1117.9" font-family="Arial" font-size="14.00" fill="#666666">[varchar(255)]</text>
<polygon fill="none" stroke="#000000" points="2164,-1076.5 2164,-1106.5 2533,-1106.5 2533,-1076.5 2164,-1076.5"/>
<text text-anchor="start" x="2171" y="-1087.9" font-family="Arial" font-size="14.00" fill="#000000">file_size    </text>
<text text-anchor="start" x="2255.763" y="-1087.9" font-family="Arial" font-size="14.00" fill="#666666">[bigint]</text>
<polygon fill="none" stroke="#000000" points="2164,-1046.5 2164,-1076.5 2533,-1076.5 2533,-1046.5 2164,-1046.5"/>
<text text-anchor="start" x="2171" y="-1057.9" font-family="Arial" font-size="14.00" fill="#000000">content_type    </text>
<text text-anchor="start" x="2285.3548" y="-1057.9" font-family="Arial" font-size="14.00" fill="#666666">[varchar(255)]</text>
<polygon fill="none" stroke="#000000" points="2164,-1016.5 2164,-1046.5 2533,-1046.5 2533,-1016.5 2164,-1016.5"/>
<text text-anchor="start" x="2171" y="-1027.9" font-family="Arial" font-size="14.00" fill="#000000">created_at    </text>
<text text-anchor="start" x="2271.3422" y="-1027.9" font-family="Arial" font-size="14.00" fill="#666666">[timestamp without time zone]</text>
</g>
<!-- public.account_profile_cover&#45;&gt;public.account_profile -->
<g id="edge10" class="edge">
<title>public.account_profile_cover:account_profile_id&#45;&gt;public.account_profile:account_profile_id</title>
<path fill="none" stroke="#000000" d="M2154.3086,-1178.4892C2120.4875,-1155.3856 2136.3213,-1006.2626 2164,-974 2232.5143,-894.1389 2329.4857,-1017.8611 2398,-938 2425.0581,-906.4608 2439.5556,-844.5 2398,-844.5"/>
<polygon fill="#000000" stroke="#000000" points="2154.4502,-1178.5331 2162.6649,-1185.7974 2159.2251,-1180.0166 2164,-1181.5 2164,-1181.5 2164,-1181.5 2159.2251,-1180.0166 2165.3351,-1177.2026 2154.4502,-1178.5331 2154.4502,-1178.5331"/>
</g>
<!-- public.group_avatar -->
<g id="node10" class="node">
<title>public.group_avatar</title>
<polygon fill="#efefef" stroke="transparent" points="1342,-1226.5 1342,-1261.5 1641,-1261.5 1641,-1226.5 1342,-1226.5"/>
<polygon fill="none" stroke="#000000" points="1342,-1226.5 1342,-1261.5 1641,-1261.5 1641,-1226.5 1342,-1226.5"/>
<text text-anchor="start" x="1348.6933" y="-1239.3" font-family="Arial Bold" font-size="18.00" fill="#000000">public.group_avatar</text>
<text text-anchor="start" x="1506.7387" y="-1239.3" font-family="Arial" font-size="14.00" fill="#000000">    </text>
<text text-anchor="start" x="1540.9435" y="-1239.3" font-family="Arial" font-size="14.00" fill="#666666">[BASE TABLE]</text>
<polygon fill="none" stroke="#000000" points="1342,-1196.5 1342,-1226.5 1641,-1226.5 1641,-1196.5 1342,-1196.5"/>
<text text-anchor="start" x="1349" y="-1207.9" font-family="Arial" font-size="14.00" fill="#000000">group_avatar_id    </text>
<text text-anchor="start" x="1484.3492" y="-1207.9" font-family="Arial" font-size="14.00" fill="#666666">[bigint]</text>
<polygon fill="none" stroke="#000000" points="1342,-1166.5 1342,-1196.5 1641,-1196.5 1641,-1166.5 1342,-1166.5"/>
<text text-anchor="start" x="1349" y="-1177.9" font-family="Arial" font-size="14.00" fill="#000000">group_id    </text>
<text text-anchor="start" x="1437.6676" y="-1177.9" font-family="Arial" font-size="14.00" fill="#666666">[bigint]</text>
<polygon fill="none" stroke="#000000" points="1342,-1136.5 1342,-1166.5 1641,-1166.5 1641,-1136.5 1342,-1136.5"/>
<text text-anchor="start" x="1349" y="-1147.9" font-family="Arial" font-size="14.00" fill="#000000">file_key    </text>
<text text-anchor="start" x="1430.6564" y="-1147.9" font-family="Arial" font-size="14.00" fill="#666666">[varchar(255)]</text>
<polygon fill="none" stroke="#000000" points="1342,-1106.5 1342,-1136.5 1641,-1136.5 1641,-1106.5 1342,-1106.5"/>
<text text-anchor="start" x="1349" y="-1117.9" font-family="Arial" font-size="14.00" fill="#000000">file_name    </text>
<text text-anchor="start" x="1443.8822" y="-1117.9" font-family="Arial" font-size="14.00" fill="#666666">[varchar(255)]</text>
<polygon fill="none" stroke="#000000" points="1342,-1076.5 1342,-1106.5 1641,-1106.5 1641,-1076.5 1342,-1076.5"/>
<text text-anchor="start" x="1349" y="-1087.9" font-family="Arial" font-size="14.00" fill="#000000">file_size    </text>
<text text-anchor="start" x="1433.763" y="-1087.9" font-family="Arial" font-size="14.00" fill="#666666">[bigint]</text>
<polygon fill="none" stroke="#000000" points="1342,-1046.5 1342,-1076.5 1641,-1076.5 1641,-1046.5 1342,-1046.5"/>
<text text-anchor="start" x="1349" y="-1057.9" font-family="Arial" font-size="14.00" fill="#000000">content_type    </text>
<text text-anchor="start" x="1463.3548" y="-1057.9" font-family="Arial" font-size="14.00" fill="#666666">[varchar(255)]</text>
<polygon fill="none" stroke="#000000" points="1342,-1016.5 1342,-1046.5 1641,-1046.5 1641,-1016.5 1342,-1016.5"/>
<text text-anchor="start" x="1348.7588" y="-1027.9" font-family="Arial" font-size="14.00" fill="#000000">created_at    </text>
<text text-anchor="start" x="1449.101" y="-1027.9" font-family="Arial" font-size="14.00" fill="#666666">[timestamp without time zone]</text>
</g>
<!-- public.group_avatar&#45;&gt;public.group -->
<g id="edge11" class="edge">
<title>public.group_avatar:group_id&#45;&gt;public.group:group_id</title>
<path fill="none" stroke="#000000" d="M1332.4102,-1178.563C1299.3545,-1156.0155 1319.8701,-1010.294 1342,-974 1367.7671,-931.7409 1415.2329,-965.2591 1441,-923 1462.6337,-887.5198 1482.5556,-829.5 1441,-829.5"/>
<polygon fill="#000000" stroke="#000000" points="1332.4384,-1178.5716 1340.6822,-1185.8027 1337.2192,-1180.0358 1342,-1181.5 1342,-1181.5 1342,-1181.5 1337.2192,-1180.0358 1343.3178,-1177.1973 1332.4384,-1178.5716 1332.4384,-1178.5716"/>
</g>
<!-- public.group_cover -->
<g id="node11" class="node">
<title>public.group_cover</title>
<polygon fill="#efefef" stroke="transparent" points="939,-1226.5 939,-1261.5 1238,-1261.5 1238,-1226.5 939,-1226.5"/>
<polygon fill="none" stroke="#000000" points="939,-1226.5 939,-1261.5 1238,-1261.5 1238,-1226.5 939,-1226.5"/>
<text text-anchor="start" x="948.6975" y="-1239.3" font-family="Arial Bold" font-size="18.00" fill="#000000">public.group_cover</text>
<text text-anchor="start" x="1100.7345" y="-1239.3" font-family="Arial" font-size="14.00" fill="#000000">    </text>
<text text-anchor="start" x="1134.9393" y="-1239.3" font-family="Arial" font-size="14.00" fill="#666666">[BASE TABLE]</text>
<polygon fill="none" stroke="#000000" points="939,-1196.5 939,-1226.5 1238,-1226.5 1238,-1196.5 939,-1196.5"/>
<text text-anchor="start" x="946" y="-1207.9" font-family="Arial" font-size="14.00" fill="#000000">group_cover_id    </text>
<text text-anchor="start" x="1076.676" y="-1207.9" font-family="Arial" font-size="14.00" fill="#666666">[bigint]</text>
<polygon fill="none" stroke="#000000" points="939,-1166.5 939,-1196.5 1238,-1196.5 1238,-1166.5 939,-1166.5"/>
<text text-anchor="start" x="946" y="-1177.9" font-family="Arial" font-size="14.00" fill="#000000">group_id    </text>
<text text-anchor="start" x="1034.6676" y="-1177.9" font-family="Arial" font-size="14.00" fill="#666666">[bigint]</text>
<polygon fill="none" stroke="#000000" points="939,-1136.5 939,-1166.5 1238,-1166.5 1238,-1136.5 939,-1136.5"/>
<text text-anchor="start" x="946" y="-1147.9" font-family="Arial" font-size="14.00" fill="#000000">file_key    </text>
<text text-anchor="start" x="1027.6564" y="-1147.9" font-family="Arial" font-size="14.00" fill="#666666">[varchar(255)]</text>
<polygon fill="none" stroke="#000000" points="939,-1106.5 939,-1136.5 1238,-1136.5 1238,-1106.5 939,-1106.5"/>
<text text-anchor="start" x="946" y="-1117.9" font-family="Arial" font-size="14.00" fill="#000000">file_name    </text>
<text text-anchor="start" x="1040.8822" y="-1117.9" font-family="Arial" font-size="14.00" fill="#666666">[varchar(255)]</text>
<polygon fill="none" stroke="#000000" points="939,-1076.5 939,-1106.5 1238,-1106.5 1238,-1076.5 939,-1076.5"/>
<text text-anchor="start" x="946" y="-1087.9" font-family="Arial" font-size="14.00" fill="#000000">file_size    </text>
<text text-anchor="start" x="1030.763" y="-1087.9" font-family="Arial" font-size="14.00" fill="#666666">[bigint]</text>
<polygon fill="none" stroke="#000000" points="939,-1046.5 939,-1076.5 1238,-1076.5 1238,-1046.5 939,-1046.5"/>
<text text-anchor="start" x="946" y="-1057.9" font-family="Arial" font-size="14.00" fill="#000000">content_type    </text>
<text text-anchor="start" x="1060.3548" y="-1057.9" font-family="Arial" font-size="14.00" fill="#666666">[varchar(255)]</text>
<polygon fill="none" stroke="#000000" points="939,-1016.5 939,-1046.5 1238,-1046.5 1238,-1016.5 939,-1016.5"/>
<text text-anchor="start" x="945.7588" y="-1027.9" font-family="Arial" font-size="14.00" fill="#000000">created_at    </text>
<text text-anchor="start" x="1046.101" y="-1027.9" font-family="Arial" font-size="14.00" fill="#666666">[timestamp without time zone]</text>
</g>
<!-- public.group_cover&#45;&gt;public.group -->
<g id="edge12" class="edge">
<title>public.group_cover:group_id&#45;&gt;public.group:group_id</title>
<path fill="none" stroke="#000000" d="M1247.5912,-1178.5622C1280.657,-1156.0085 1260.2039,-1010.2488 1238,-974 1211.9402,-931.4562 1164.0598,-965.5438 1138,-923 1116.294,-887.564 1096.4444,-829.5 1138,-829.5"/>
<polygon fill="#000000" stroke="#000000" points="1247.5615,-1178.5712 1236.682,-1177.1973 1242.7808,-1180.0356 1238,-1181.5 1238,-1181.5 1238,-1181.5 1242.7808,-1180.0356 1239.318,-1185.8027 1247.5615,-1178.5712 1247.5615,-1178.5712"/>
</g>
</g>
</svg>
