<?xml version="1.0" encoding="UTF-8" standalone="no"?>
<!DOCTYPE svg PUBLIC "-//W3C//DTD SVG 1.1//EN"
 "http://www.w3.org/Graphics/SVG/1.1/DTD/svg11.dtd">
<!-- Generated by graphviz version 2.40.1 (20161225.0304)
 -->
<!-- Title: public.user Pages: 1 -->
<svg width="1737pt" height="682pt"
 viewBox="0.00 0.00 1737.00 682.00" xmlns="http://www.w3.org/2000/svg" xmlns:xlink="http://www.w3.org/1999/xlink">
<g id="graph0" class="graph" transform="scale(1 1) rotate(0) translate(4 678)">
<title>public.user</title>
<polygon fill="#ffffff" stroke="transparent" points="-4,4 -4,-678 1733,-678 1733,4 -4,4"/>
<!-- public.user -->
<g id="node1" class="node">
<title>public.user</title>
<polygon fill="#efefef" stroke="transparent" points="721.5,-285.5 721.5,-320.5 1002.5,-320.5 1002.5,-285.5 721.5,-285.5"/>
<polygon fill="none" stroke="#000000" points="721.5,-285.5 721.5,-320.5 1002.5,-320.5 1002.5,-285.5 721.5,-285.5"/>
<text text-anchor="start" x="754.7091" y="-298.3" font-family="Arial Bold" font-size="18.00" fill="#000000">public.user</text>
<text text-anchor="start" x="841.7229" y="-298.3" font-family="Arial" font-size="14.00" fill="#000000">    </text>
<text text-anchor="start" x="875.9277" y="-298.3" font-family="Arial" font-size="14.00" fill="#666666">[BASE TABLE]</text>
<polygon fill="none" stroke="#000000" points="721.5,-255.5 721.5,-285.5 1002.5,-285.5 1002.5,-255.5 721.5,-255.5"/>
<text text-anchor="start" x="728.5" y="-266.9" font-family="Arial" font-size="14.00" fill="#000000">user_id </text>
<text text-anchor="start" x="778.2882" y="-266.9" font-family="Arial" font-size="14.00" fill="#666666">[bigint]</text>
<polygon fill="none" stroke="#000000" points="721.5,-225.5 721.5,-255.5 1002.5,-255.5 1002.5,-225.5 721.5,-225.5"/>
<text text-anchor="start" x="728.5" y="-236.9" font-family="Arial" font-size="14.00" fill="#000000">public_user_id </text>
<text text-anchor="start" x="822.6318" y="-236.9" font-family="Arial" font-size="14.00" fill="#666666">[varchar(255)]</text>
<polygon fill="none" stroke="#000000" points="721.5,-195.5 721.5,-225.5 1002.5,-225.5 1002.5,-195.5 721.5,-195.5"/>
<text text-anchor="start" x="728.5" y="-206.9" font-family="Arial" font-size="14.00" fill="#000000">jwt_subject </text>
<text text-anchor="start" x="801.622" y="-206.9" font-family="Arial" font-size="14.00" fill="#666666">[varchar(255)]</text>
<polygon fill="none" stroke="#000000" points="721.5,-165.5 721.5,-195.5 1002.5,-195.5 1002.5,-165.5 721.5,-165.5"/>
<text text-anchor="start" x="728.5" y="-176.9" font-family="Arial" font-size="14.00" fill="#000000">email </text>
<text text-anchor="start" x="765.8296" y="-176.9" font-family="Arial" font-size="14.00" fill="#666666">[varchar(255)]</text>
<polygon fill="none" stroke="#000000" points="721.5,-135.5 721.5,-165.5 1002.5,-165.5 1002.5,-135.5 721.5,-135.5"/>
<text text-anchor="start" x="728.5" y="-146.9" font-family="Arial" font-size="14.00" fill="#000000">created_at </text>
<text text-anchor="start" x="798.528" y="-146.9" font-family="Arial" font-size="14.00" fill="#666666">[timestamp without time zone]</text>
<polygon fill="none" stroke="#000000" points="721.5,-105.5 721.5,-135.5 1002.5,-135.5 1002.5,-105.5 721.5,-105.5"/>
<text text-anchor="start" x="728.5" y="-116.9" font-family="Arial" font-size="14.00" fill="#000000">updated_at </text>
<text text-anchor="start" x="802.4326" y="-116.9" font-family="Arial" font-size="14.00" fill="#666666">[timestamp without time zone]</text>
<polygon fill="none" stroke="#000000" points="721.5,-75.5 721.5,-105.5 1002.5,-105.5 1002.5,-75.5 721.5,-75.5"/>
<text text-anchor="start" x="728.195" y="-86.9" font-family="Arial" font-size="14.00" fill="#000000">last_login_at </text>
<text text-anchor="start" x="810.6648" y="-86.9" font-family="Arial" font-size="14.00" fill="#666666">[timestamp without time zone]</text>
<polygon fill="none" stroke="#000000" points="721.5,-45.5 721.5,-75.5 1002.5,-75.5 1002.5,-45.5 721.5,-45.5"/>
<text text-anchor="start" x="728.5" y="-56.9" font-family="Arial" font-size="14.00" fill="#000000">is_deleted </text>
<text text-anchor="start" x="796.19" y="-56.9" font-family="Arial" font-size="14.00" fill="#666666">[boolean]</text>
<polygon fill="none" stroke="#000000" stroke-width="3" points="719.5,-44.5 719.5,-322.5 1003.5,-322.5 1003.5,-44.5 719.5,-44.5"/>
</g>
<!-- public.user_auth -->
<g id="node2" class="node">
<title>public.user_auth</title>
<polygon fill="#efefef" stroke="transparent" points="43.5,-595.5 43.5,-630.5 346.5,-630.5 346.5,-595.5 43.5,-595.5"/>
<polygon fill="none" stroke="#000000" points="43.5,-595.5 43.5,-630.5 346.5,-630.5 346.5,-595.5 43.5,-595.5"/>
<text text-anchor="start" x="65.1956" y="-608.3" font-family="Arial Bold" font-size="18.00" fill="#000000">public.user_auth</text>
<text text-anchor="start" x="197.2364" y="-608.3" font-family="Arial" font-size="14.00" fill="#000000">    </text>
<text text-anchor="start" x="231.4412" y="-608.3" font-family="Arial" font-size="14.00" fill="#666666">[BASE TABLE]</text>
<polygon fill="none" stroke="#000000" points="43.5,-565.5 43.5,-595.5 346.5,-595.5 346.5,-565.5 43.5,-565.5"/>
<text text-anchor="start" x="50.5" y="-576.9" font-family="Arial" font-size="14.00" fill="#000000">user_auth_id    </text>
<text text-anchor="start" x="165.6234" y="-576.9" font-family="Arial" font-size="14.00" fill="#666666">[bigint]</text>
<polygon fill="none" stroke="#000000" points="43.5,-535.5 43.5,-565.5 346.5,-565.5 346.5,-535.5 43.5,-535.5"/>
<text text-anchor="start" x="50.5" y="-546.9" font-family="Arial" font-size="14.00" fill="#000000">user_id    </text>
<text text-anchor="start" x="130.6024" y="-546.9" font-family="Arial" font-size="14.00" fill="#666666">[bigint]</text>
<polygon fill="none" stroke="#000000" points="43.5,-505.5 43.5,-535.5 346.5,-535.5 346.5,-505.5 43.5,-505.5"/>
<text text-anchor="start" x="50.5" y="-516.9" font-family="Arial" font-size="14.00" fill="#000000">password    </text>
<text text-anchor="start" x="144.6024" y="-516.9" font-family="Arial" font-size="14.00" fill="#666666">[varchar(255)]</text>
<polygon fill="none" stroke="#000000" points="43.5,-475.5 43.5,-505.5 346.5,-505.5 346.5,-475.5 43.5,-475.5"/>
<text text-anchor="start" x="50.5" y="-486.9" font-family="Arial" font-size="14.00" fill="#000000">created_at    </text>
<text text-anchor="start" x="150.8422" y="-486.9" font-family="Arial" font-size="14.00" fill="#666666">[timestamp without time zone]</text>
<polygon fill="none" stroke="#000000" points="43.5,-445.5 43.5,-475.5 346.5,-475.5 346.5,-445.5 43.5,-445.5"/>
<text text-anchor="start" x="50.3065" y="-456.9" font-family="Arial" font-size="14.00" fill="#000000">updated_at    </text>
<text text-anchor="start" x="154.5533" y="-456.9" font-family="Arial" font-size="14.00" fill="#666666">[timestamp without time zone]</text>
</g>
<!-- public.user_auth&#45;&gt;public.user -->
<g id="edge1" class="edge">
<title>public.user_auth:user_id&#45;&gt;public.user:user_id</title>
<path fill="none" stroke="#000000" d="M356.7341,-549.6521C409.1949,-540.0165 353.2211,-450.6179 398.5,-403 505.4217,-290.5551 566.3353,-270.5 721.5,-270.5"/>
<polygon fill="#000000" stroke="#000000" points="356.4659,-549.6742 346.1284,-546.0154 351.4829,-550.0871 346.5,-550.5 346.5,-550.5 346.5,-550.5 351.4829,-550.0871 346.8716,-554.9846 356.4659,-549.6742 356.4659,-549.6742"/>
</g>
<!-- public.reset_password_token -->
<g id="node3" class="node">
<title>public.reset_password_token</title>
<polygon fill="#efefef" stroke="transparent" points="450.5,-595.5 450.5,-630.5 824.5,-630.5 824.5,-595.5 450.5,-595.5"/>
<polygon fill="none" stroke="#000000" points="450.5,-595.5 450.5,-630.5 824.5,-630.5 824.5,-595.5 450.5,-595.5"/>
<text text-anchor="start" x="457.1858" y="-608.3" font-family="Arial Bold" font-size="18.00" fill="#000000">public.reset_password_token</text>
<text text-anchor="start" x="690.2462" y="-608.3" font-family="Arial" font-size="14.00" fill="#000000">    </text>
<text text-anchor="start" x="724.451" y="-608.3" font-family="Arial" font-size="14.00" fill="#666666">[BASE TABLE]</text>
<polygon fill="none" stroke="#000000" points="450.5,-565.5 450.5,-595.5 824.5,-595.5 824.5,-565.5 450.5,-565.5"/>
<text text-anchor="start" x="457.5" y="-576.9" font-family="Arial" font-size="14.00" fill="#000000">reset_password_token_id    </text>
<text text-anchor="start" x="651.1942" y="-576.9" font-family="Arial" font-size="14.00" fill="#666666">[bigint]</text>
<polygon fill="none" stroke="#000000" points="450.5,-535.5 450.5,-565.5 824.5,-565.5 824.5,-535.5 450.5,-535.5"/>
<text text-anchor="start" x="457.5" y="-546.9" font-family="Arial" font-size="14.00" fill="#000000">user_id    </text>
<text text-anchor="start" x="537.6024" y="-546.9" font-family="Arial" font-size="14.00" fill="#666666">[bigint]</text>
<polygon fill="none" stroke="#000000" points="450.5,-505.5 450.5,-535.5 824.5,-535.5 824.5,-505.5 450.5,-505.5"/>
<text text-anchor="start" x="457.5" y="-516.9" font-family="Arial" font-size="14.00" fill="#000000">token    </text>
<text text-anchor="start" x="525.9432" y="-516.9" font-family="Arial" font-size="14.00" fill="#666666">[varchar(255)]</text>
<polygon fill="none" stroke="#000000" points="450.5,-475.5 450.5,-505.5 824.5,-505.5 824.5,-475.5 450.5,-475.5"/>
<text text-anchor="start" x="457.5" y="-486.9" font-family="Arial" font-size="14.00" fill="#000000">created_at    </text>
<text text-anchor="start" x="557.8422" y="-486.9" font-family="Arial" font-size="14.00" fill="#666666">[timestamp without time zone]</text>
<polygon fill="none" stroke="#000000" points="450.5,-445.5 450.5,-475.5 824.5,-475.5 824.5,-445.5 450.5,-445.5"/>
<text text-anchor="start" x="457.5" y="-456.9" font-family="Arial" font-size="14.00" fill="#000000">expired_at    </text>
<text text-anchor="start" x="557.0582" y="-456.9" font-family="Arial" font-size="14.00" fill="#666666">[timestamp without time zone]</text>
</g>
<!-- public.reset_password_token&#45;&gt;public.user -->
<g id="edge2" class="edge">
<title>public.reset_password_token:user_id&#45;&gt;public.user:user_id</title>
<path fill="none" stroke="#000000" d="M834.7577,-549.6194C886.8946,-539.977 860.2954,-453.4299 824.5,-403 796.4312,-363.4557 749.5688,-406.5443 721.5,-367 696.6752,-332.0259 678.6111,-270.5 721.5,-270.5"/>
<polygon fill="#000000" stroke="#000000" points="834.4633,-549.6445 824.115,-546.0165 829.4817,-550.0723 824.5,-550.5 824.5,-550.5 824.5,-550.5 829.4817,-550.0723 824.885,-554.9835 834.4633,-549.6445 834.4633,-549.6445"/>
</g>
<!-- public.jwt_token_code -->
<g id="node4" class="node">
<title>public.jwt_token_code</title>
<polygon fill="#efefef" stroke="transparent" points="928.5,-595.5 928.5,-630.5 1246.5,-630.5 1246.5,-595.5 928.5,-595.5"/>
<polygon fill="none" stroke="#000000" points="928.5,-595.5 928.5,-630.5 1246.5,-630.5 1246.5,-595.5 928.5,-595.5"/>
<text text-anchor="start" x="935.1902" y="-608.3" font-family="Arial Bold" font-size="18.00" fill="#000000">public.jwt_token_code</text>
<text text-anchor="start" x="1112.2418" y="-608.3" font-family="Arial" font-size="14.00" fill="#000000">    </text>
<text text-anchor="start" x="1146.4466" y="-608.3" font-family="Arial" font-size="14.00" fill="#666666">[BASE TABLE]</text>
<polygon fill="none" stroke="#000000" points="928.5,-565.5 928.5,-595.5 1246.5,-595.5 1246.5,-565.5 928.5,-565.5"/>
<text text-anchor="start" x="935.5" y="-576.9" font-family="Arial" font-size="14.00" fill="#000000">jwt_token_code_id    </text>
<text text-anchor="start" x="1085.6318" y="-576.9" font-family="Arial" font-size="14.00" fill="#666666">[bigint]</text>
<polygon fill="none" stroke="#000000" points="928.5,-535.5 928.5,-565.5 1246.5,-565.5 1246.5,-535.5 928.5,-535.5"/>
<text text-anchor="start" x="935.5" y="-546.9" font-family="Arial" font-size="14.00" fill="#000000">user_id    </text>
<text text-anchor="start" x="1015.6024" y="-546.9" font-family="Arial" font-size="14.00" fill="#666666">[bigint]</text>
<polygon fill="none" stroke="#000000" points="928.5,-505.5 928.5,-535.5 1246.5,-535.5 1246.5,-505.5 928.5,-505.5"/>
<text text-anchor="start" x="935.5" y="-516.9" font-family="Arial" font-size="14.00" fill="#000000">code    </text>
<text text-anchor="start" x="1000.0526" y="-516.9" font-family="Arial" font-size="14.00" fill="#666666">[varchar(255)]</text>
<polygon fill="none" stroke="#000000" points="928.5,-475.5 928.5,-505.5 1246.5,-505.5 1246.5,-475.5 928.5,-475.5"/>
<text text-anchor="start" x="935.5" y="-486.9" font-family="Arial" font-size="14.00" fill="#000000">created_at    </text>
<text text-anchor="start" x="1035.8422" y="-486.9" font-family="Arial" font-size="14.00" fill="#666666">[timestamp without time zone]</text>
<polygon fill="none" stroke="#000000" points="928.5,-445.5 928.5,-475.5 1246.5,-475.5 1246.5,-445.5 928.5,-445.5"/>
<text text-anchor="start" x="935.5" y="-456.9" font-family="Arial" font-size="14.00" fill="#000000">expired_at    </text>
<text text-anchor="start" x="1035.0582" y="-456.9" font-family="Arial" font-size="14.00" fill="#666666">[timestamp without time zone]</text>
</g>
<!-- public.jwt_token_code&#45;&gt;public.user -->
<g id="edge3" class="edge">
<title>public.jwt_token_code:user_id&#45;&gt;public.user:user_id</title>
<path fill="none" stroke="#000000" d="M918.2712,-549.6386C866.445,-540.2034 895.7021,-455.4289 928.5,-403 947.897,-371.993 983.103,-398.007 1002.5,-367 1025.246,-330.6396 1045.3889,-270.5 1002.5,-270.5"/>
<polygon fill="#000000" stroke="#000000" points="918.5353,-549.6607 928.1223,-554.9841 923.5176,-550.0804 928.5,-550.5 928.5,-550.5 928.5,-550.5 923.5176,-550.0804 928.8777,-546.0159 918.5353,-549.6607 918.5353,-549.6607"/>
</g>
<!-- public.jwt_refresh_token -->
<g id="node5" class="node">
<title>public.jwt_refresh_token</title>
<polygon fill="#efefef" stroke="transparent" points="1351.5,-595.5 1351.5,-630.5 1686.5,-630.5 1686.5,-595.5 1351.5,-595.5"/>
<polygon fill="none" stroke="#000000" points="1351.5,-595.5 1351.5,-630.5 1686.5,-630.5 1686.5,-595.5 1351.5,-595.5"/>
<text text-anchor="start" x="1358.1969" y="-608.3" font-family="Arial Bold" font-size="18.00" fill="#000000">public.jwt_refresh_token</text>
<text text-anchor="start" x="1552.2351" y="-608.3" font-family="Arial" font-size="14.00" fill="#000000">    </text>
<text text-anchor="start" x="1586.4399" y="-608.3" font-family="Arial" font-size="14.00" fill="#666666">[BASE TABLE]</text>
<polygon fill="none" stroke="#000000" points="1351.5,-565.5 1351.5,-595.5 1686.5,-595.5 1686.5,-565.5 1351.5,-565.5"/>
<text text-anchor="start" x="1358.5" y="-576.9" font-family="Arial" font-size="14.00" fill="#000000">jwt_refresh_token_id    </text>
<text text-anchor="start" x="1521.8436" y="-576.9" font-family="Arial" font-size="14.00" fill="#666666">[bigint]</text>
<polygon fill="none" stroke="#000000" points="1351.5,-535.5 1351.5,-565.5 1686.5,-565.5 1686.5,-535.5 1351.5,-535.5"/>
<text text-anchor="start" x="1358.5" y="-546.9" font-family="Arial" font-size="14.00" fill="#000000">user_id    </text>
<text text-anchor="start" x="1438.6024" y="-546.9" font-family="Arial" font-size="14.00" fill="#666666">[bigint]</text>
<polygon fill="none" stroke="#000000" points="1351.5,-505.5 1351.5,-535.5 1686.5,-535.5 1686.5,-505.5 1351.5,-505.5"/>
<text text-anchor="start" x="1358.5" y="-516.9" font-family="Arial" font-size="14.00" fill="#000000">token    </text>
<text text-anchor="start" x="1426.9432" y="-516.9" font-family="Arial" font-size="14.00" fill="#666666">[varchar(255)]</text>
<polygon fill="none" stroke="#000000" points="1351.5,-475.5 1351.5,-505.5 1686.5,-505.5 1686.5,-475.5 1351.5,-475.5"/>
<text text-anchor="start" x="1358.5" y="-486.9" font-family="Arial" font-size="14.00" fill="#000000">created_at    </text>
<text text-anchor="start" x="1458.8422" y="-486.9" font-family="Arial" font-size="14.00" fill="#666666">[timestamp without time zone]</text>
<polygon fill="none" stroke="#000000" points="1351.5,-445.5 1351.5,-475.5 1686.5,-475.5 1686.5,-445.5 1351.5,-445.5"/>
<text text-anchor="start" x="1358.5" y="-456.9" font-family="Arial" font-size="14.00" fill="#000000">expired_at    </text>
<text text-anchor="start" x="1458.0582" y="-456.9" font-family="Arial" font-size="14.00" fill="#666666">[timestamp without time zone]</text>
</g>
<!-- public.jwt_refresh_token&#45;&gt;public.user -->
<g id="edge4" class="edge">
<title>public.jwt_refresh_token:user_id&#45;&gt;public.user:user_id</title>
<path fill="none" stroke="#000000" d="M1341.2308,-549.6582C1288.509,-540.0908 1343.2618,-451.2965 1298.5,-403 1200.5234,-297.2865 1146.6345,-270.5 1002.5,-270.5"/>
<polygon fill="#000000" stroke="#000000" points="1341.5334,-549.6829 1351.1323,-554.985 1346.5167,-550.0914 1351.5,-550.5 1351.5,-550.5 1351.5,-550.5 1346.5167,-550.0914 1351.8677,-546.015 1341.5334,-549.6829 1341.5334,-549.6829"/>
</g>
</g>
</svg>
