<?xml version="1.0" encoding="UTF-8" standalone="no"?>
<!DOCTYPE svg PUBLIC "-//W3C//DTD SVG 1.1//EN"
 "http://www.w3.org/Graphics/SVG/1.1/DTD/svg11.dtd">
<!-- Generated by graphviz version 2.40.1 (20161225.0304)
 -->
<!-- Title: public.jwt_token_code Pages: 1 -->
<svg width="421pt" height="682pt"
 viewBox="0.00 0.00 421.00 682.00" xmlns="http://www.w3.org/2000/svg" xmlns:xlink="http://www.w3.org/1999/xlink">
<g id="graph0" class="graph" transform="scale(1 1) rotate(0) translate(4 678)">
<title>public.jwt_token_code</title>
<polygon fill="#ffffff" stroke="transparent" points="-4,4 -4,-678 417,-678 417,4 -4,4"/>
<!-- public.jwt_token_code -->
<g id="node1" class="node">
<title>public.jwt_token_code</title>
<polygon fill="#efefef" stroke="transparent" points="48.5,-592.5 48.5,-627.5 366.5,-627.5 366.5,-592.5 48.5,-592.5"/>
<polygon fill="none" stroke="#000000" points="48.5,-592.5 48.5,-627.5 366.5,-627.5 366.5,-592.5 48.5,-592.5"/>
<text text-anchor="start" x="55.1902" y="-605.3" font-family="Arial Bold" font-size="18.00" fill="#000000">public.jwt_token_code</text>
<text text-anchor="start" x="232.2418" y="-605.3" font-family="Arial" font-size="14.00" fill="#000000">    </text>
<text text-anchor="start" x="266.4466" y="-605.3" font-family="Arial" font-size="14.00" fill="#666666">[BASE TABLE]</text>
<polygon fill="none" stroke="#000000" points="48.5,-562.5 48.5,-592.5 366.5,-592.5 366.5,-562.5 48.5,-562.5"/>
<text text-anchor="start" x="55.5" y="-573.9" font-family="Arial" font-size="14.00" fill="#000000">jwt_token_code_id </text>
<text text-anchor="start" x="175.3176" y="-573.9" font-family="Arial" font-size="14.00" fill="#666666">[bigint]</text>
<polygon fill="none" stroke="#000000" points="48.5,-532.5 48.5,-562.5 366.5,-562.5 366.5,-532.5 48.5,-532.5"/>
<text text-anchor="start" x="55.5" y="-543.9" font-family="Arial" font-size="14.00" fill="#000000">user_id </text>
<text text-anchor="start" x="105.2882" y="-543.9" font-family="Arial" font-size="14.00" fill="#666666">[bigint]</text>
<polygon fill="none" stroke="#000000" points="48.5,-502.5 48.5,-532.5 366.5,-532.5 366.5,-502.5 48.5,-502.5"/>
<text text-anchor="start" x="55.5" y="-513.9" font-family="Arial" font-size="14.00" fill="#000000">code </text>
<text text-anchor="start" x="89.7384" y="-513.9" font-family="Arial" font-size="14.00" fill="#666666">[varchar(255)]</text>
<polygon fill="none" stroke="#000000" points="48.5,-472.5 48.5,-502.5 366.5,-502.5 366.5,-472.5 48.5,-472.5"/>
<text text-anchor="start" x="55.5" y="-483.9" font-family="Arial" font-size="14.00" fill="#000000">created_at </text>
<text text-anchor="start" x="125.528" y="-483.9" font-family="Arial" font-size="14.00" fill="#666666">[timestamp without time zone]</text>
<polygon fill="none" stroke="#000000" points="48.5,-442.5 48.5,-472.5 366.5,-472.5 366.5,-442.5 48.5,-442.5"/>
<text text-anchor="start" x="55.5" y="-453.9" font-family="Arial" font-size="14.00" fill="#000000">expired_at </text>
<text text-anchor="start" x="124.744" y="-453.9" font-family="Arial" font-size="14.00" fill="#666666">[timestamp without time zone]</text>
<polygon fill="none" stroke="#000000" stroke-width="3" points="47,-441.5 47,-629.5 368,-629.5 368,-441.5 47,-441.5"/>
</g>
<!-- public.user -->
<g id="node2" class="node">
<title>public.user</title>
<polygon fill="#efefef" stroke="transparent" points="43.5,-282.5 43.5,-317.5 370.5,-317.5 370.5,-282.5 43.5,-282.5"/>
<polygon fill="none" stroke="#000000" points="43.5,-282.5 43.5,-317.5 370.5,-317.5 370.5,-282.5 43.5,-282.5"/>
<text text-anchor="start" x="99.7091" y="-295.3" font-family="Arial Bold" font-size="18.00" fill="#000000">public.user</text>
<text text-anchor="start" x="186.7229" y="-295.3" font-family="Arial" font-size="14.00" fill="#000000">    </text>
<text text-anchor="start" x="220.9277" y="-295.3" font-family="Arial" font-size="14.00" fill="#666666">[BASE TABLE]</text>
<polygon fill="none" stroke="#000000" points="43.5,-252.5 43.5,-282.5 370.5,-282.5 370.5,-252.5 43.5,-252.5"/>
<text text-anchor="start" x="50.5" y="-263.9" font-family="Arial" font-size="14.00" fill="#000000">user_id    </text>
<text text-anchor="start" x="130.6024" y="-263.9" font-family="Arial" font-size="14.00" fill="#666666">[bigint]</text>
<polygon fill="none" stroke="#000000" points="43.5,-222.5 43.5,-252.5 370.5,-252.5 370.5,-222.5 43.5,-222.5"/>
<text text-anchor="start" x="50.5" y="-233.9" font-family="Arial" font-size="14.00" fill="#000000">public_user_id    </text>
<text text-anchor="start" x="174.946" y="-233.9" font-family="Arial" font-size="14.00" fill="#666666">[varchar(255)]</text>
<polygon fill="none" stroke="#000000" points="43.5,-192.5 43.5,-222.5 370.5,-222.5 370.5,-192.5 43.5,-192.5"/>
<text text-anchor="start" x="50.5" y="-203.9" font-family="Arial" font-size="14.00" fill="#000000">jwt_subject    </text>
<text text-anchor="start" x="153.9362" y="-203.9" font-family="Arial" font-size="14.00" fill="#666666">[varchar(255)]</text>
<polygon fill="none" stroke="#000000" points="43.5,-162.5 43.5,-192.5 370.5,-192.5 370.5,-162.5 43.5,-162.5"/>
<text text-anchor="start" x="50.5" y="-173.9" font-family="Arial" font-size="14.00" fill="#000000">email    </text>
<text text-anchor="start" x="118.1438" y="-173.9" font-family="Arial" font-size="14.00" fill="#666666">[varchar(255)]</text>
<polygon fill="none" stroke="#000000" points="43.5,-132.5 43.5,-162.5 370.5,-162.5 370.5,-132.5 43.5,-132.5"/>
<text text-anchor="start" x="50.5" y="-143.9" font-family="Arial" font-size="14.00" fill="#000000">created_at    </text>
<text text-anchor="start" x="150.8422" y="-143.9" font-family="Arial" font-size="14.00" fill="#666666">[timestamp without time zone]</text>
<polygon fill="none" stroke="#000000" points="43.5,-102.5 43.5,-132.5 370.5,-132.5 370.5,-102.5 43.5,-102.5"/>
<text text-anchor="start" x="50.5" y="-113.9" font-family="Arial" font-size="14.00" fill="#000000">updated_at    </text>
<text text-anchor="start" x="154.7468" y="-113.9" font-family="Arial" font-size="14.00" fill="#666666">[timestamp without time zone]</text>
<polygon fill="none" stroke="#000000" points="43.5,-72.5 43.5,-102.5 370.5,-102.5 370.5,-72.5 43.5,-72.5"/>
<text text-anchor="start" x="50.2553" y="-83.9" font-family="Arial" font-size="14.00" fill="#000000">last_logined_at    </text>
<text text-anchor="start" x="178.6045" y="-83.9" font-family="Arial" font-size="14.00" fill="#666666">[timestamp without time zone]</text>
<polygon fill="none" stroke="#000000" points="43.5,-42.5 43.5,-72.5 370.5,-72.5 370.5,-42.5 43.5,-42.5"/>
<text text-anchor="start" x="50.5" y="-53.9" font-family="Arial" font-size="14.00" fill="#000000">is_deleted    </text>
<text text-anchor="start" x="148.5042" y="-53.9" font-family="Arial" font-size="14.00" fill="#666666">[boolean]</text>
</g>
<!-- public.jwt_token_code&#45;&gt;public.user -->
<g id="edge1" class="edge">
<title>public.jwt_token_code:user_id&#45;&gt;public.user:user_id</title>
<path fill="none" stroke="#000000" d="M38.3153,-546.6218C-15.8836,-536.644 6.346,-444.1295 48.5,-397 144.5019,-289.6668 274.4981,-468.3332 370.5,-361 398.2037,-330.0263 412.0556,-267.5 370.5,-267.5"/>
<polygon fill="#000000" stroke="#000000" points="38.537,-546.6408 48.1134,-551.9834 43.5185,-547.0704 48.5,-547.5 48.5,-547.5 48.5,-547.5 43.5185,-547.0704 48.8866,-543.0166 38.537,-546.6408 38.537,-546.6408"/>
</g>
</g>
</svg>
