<?xml version="1.0" encoding="UTF-8" standalone="no"?>
<!DOCTYPE svg PUBLIC "-//W3C//DTD SVG 1.1//EN"
 "http://www.w3.org/Graphics/SVG/1.1/DTD/svg11.dtd">
<!-- Generated by graphviz version 2.40.1 (20161225.0304)
 -->
<!-- Title: public.reset_password_token Pages: 1 -->
<svg width="474pt" height="682pt"
 viewBox="0.00 0.00 474.00 682.00" xmlns="http://www.w3.org/2000/svg" xmlns:xlink="http://www.w3.org/1999/xlink">
<g id="graph0" class="graph" transform="scale(1 1) rotate(0) translate(4 678)">
<title>public.reset_password_token</title>
<polygon fill="#ffffff" stroke="transparent" points="-4,4 -4,-678 470,-678 470,4 -4,4"/>
<!-- public.reset_password_token -->
<g id="node1" class="node">
<title>public.reset_password_token</title>
<polygon fill="#efefef" stroke="transparent" points="46,-592.5 46,-627.5 420,-627.5 420,-592.5 46,-592.5"/>
<polygon fill="none" stroke="#000000" points="46,-592.5 46,-627.5 420,-627.5 420,-592.5 46,-592.5"/>
<text text-anchor="start" x="52.6858" y="-605.3" font-family="Arial Bold" font-size="18.00" fill="#000000">public.reset_password_token</text>
<text text-anchor="start" x="285.7462" y="-605.3" font-family="Arial" font-size="14.00" fill="#000000">    </text>
<text text-anchor="start" x="319.951" y="-605.3" font-family="Arial" font-size="14.00" fill="#666666">[BASE TABLE]</text>
<polygon fill="none" stroke="#000000" points="46,-562.5 46,-592.5 420,-592.5 420,-562.5 46,-562.5"/>
<text text-anchor="start" x="53" y="-573.9" font-family="Arial" font-size="14.00" fill="#000000">reset_password_token_id </text>
<text text-anchor="start" x="216.38" y="-573.9" font-family="Arial" font-size="14.00" fill="#666666">[bigint]</text>
<polygon fill="none" stroke="#000000" points="46,-532.5 46,-562.5 420,-562.5 420,-532.5 46,-532.5"/>
<text text-anchor="start" x="53" y="-543.9" font-family="Arial" font-size="14.00" fill="#000000">user_id </text>
<text text-anchor="start" x="102.7882" y="-543.9" font-family="Arial" font-size="14.00" fill="#666666">[bigint]</text>
<polygon fill="none" stroke="#000000" points="46,-502.5 46,-532.5 420,-532.5 420,-502.5 46,-502.5"/>
<text text-anchor="start" x="53" y="-513.9" font-family="Arial" font-size="14.00" fill="#000000">token </text>
<text text-anchor="start" x="91.129" y="-513.9" font-family="Arial" font-size="14.00" fill="#666666">[varchar(255)]</text>
<polygon fill="none" stroke="#000000" points="46,-472.5 46,-502.5 420,-502.5 420,-472.5 46,-472.5"/>
<text text-anchor="start" x="53" y="-483.9" font-family="Arial" font-size="14.00" fill="#000000">created_at </text>
<text text-anchor="start" x="123.028" y="-483.9" font-family="Arial" font-size="14.00" fill="#666666">[timestamp without time zone]</text>
<polygon fill="none" stroke="#000000" points="46,-442.5 46,-472.5 420,-472.5 420,-442.5 46,-442.5"/>
<text text-anchor="start" x="53" y="-453.9" font-family="Arial" font-size="14.00" fill="#000000">expired_at </text>
<text text-anchor="start" x="122.244" y="-453.9" font-family="Arial" font-size="14.00" fill="#666666">[timestamp without time zone]</text>
<polygon fill="none" stroke="#000000" stroke-width="3" points="44.5,-441.5 44.5,-629.5 421.5,-629.5 421.5,-441.5 44.5,-441.5"/>
</g>
<!-- public.user -->
<g id="node2" class="node">
<title>public.user</title>
<polygon fill="#efefef" stroke="transparent" points="69,-282.5 69,-317.5 396,-317.5 396,-282.5 69,-282.5"/>
<polygon fill="none" stroke="#000000" points="69,-282.5 69,-317.5 396,-317.5 396,-282.5 69,-282.5"/>
<text text-anchor="start" x="125.2091" y="-295.3" font-family="Arial Bold" font-size="18.00" fill="#000000">public.user</text>
<text text-anchor="start" x="212.2229" y="-295.3" font-family="Arial" font-size="14.00" fill="#000000">    </text>
<text text-anchor="start" x="246.4277" y="-295.3" font-family="Arial" font-size="14.00" fill="#666666">[BASE TABLE]</text>
<polygon fill="none" stroke="#000000" points="69,-252.5 69,-282.5 396,-282.5 396,-252.5 69,-252.5"/>
<text text-anchor="start" x="76" y="-263.9" font-family="Arial" font-size="14.00" fill="#000000">user_id    </text>
<text text-anchor="start" x="156.1024" y="-263.9" font-family="Arial" font-size="14.00" fill="#666666">[bigint]</text>
<polygon fill="none" stroke="#000000" points="69,-222.5 69,-252.5 396,-252.5 396,-222.5 69,-222.5"/>
<text text-anchor="start" x="76" y="-233.9" font-family="Arial" font-size="14.00" fill="#000000">public_user_id    </text>
<text text-anchor="start" x="200.446" y="-233.9" font-family="Arial" font-size="14.00" fill="#666666">[varchar(255)]</text>
<polygon fill="none" stroke="#000000" points="69,-192.5 69,-222.5 396,-222.5 396,-192.5 69,-192.5"/>
<text text-anchor="start" x="76" y="-203.9" font-family="Arial" font-size="14.00" fill="#000000">jwt_subject    </text>
<text text-anchor="start" x="179.4362" y="-203.9" font-family="Arial" font-size="14.00" fill="#666666">[varchar(255)]</text>
<polygon fill="none" stroke="#000000" points="69,-162.5 69,-192.5 396,-192.5 396,-162.5 69,-162.5"/>
<text text-anchor="start" x="76" y="-173.9" font-family="Arial" font-size="14.00" fill="#000000">email    </text>
<text text-anchor="start" x="143.6438" y="-173.9" font-family="Arial" font-size="14.00" fill="#666666">[varchar(255)]</text>
<polygon fill="none" stroke="#000000" points="69,-132.5 69,-162.5 396,-162.5 396,-132.5 69,-132.5"/>
<text text-anchor="start" x="76" y="-143.9" font-family="Arial" font-size="14.00" fill="#000000">created_at    </text>
<text text-anchor="start" x="176.3422" y="-143.9" font-family="Arial" font-size="14.00" fill="#666666">[timestamp without time zone]</text>
<polygon fill="none" stroke="#000000" points="69,-102.5 69,-132.5 396,-132.5 396,-102.5 69,-102.5"/>
<text text-anchor="start" x="76" y="-113.9" font-family="Arial" font-size="14.00" fill="#000000">updated_at    </text>
<text text-anchor="start" x="180.2468" y="-113.9" font-family="Arial" font-size="14.00" fill="#666666">[timestamp without time zone]</text>
<polygon fill="none" stroke="#000000" points="69,-72.5 69,-102.5 396,-102.5 396,-72.5 69,-72.5"/>
<text text-anchor="start" x="75.7553" y="-83.9" font-family="Arial" font-size="14.00" fill="#000000">last_logined_at    </text>
<text text-anchor="start" x="204.1045" y="-83.9" font-family="Arial" font-size="14.00" fill="#666666">[timestamp without time zone]</text>
<polygon fill="none" stroke="#000000" points="69,-42.5 69,-72.5 396,-72.5 396,-42.5 69,-42.5"/>
<text text-anchor="start" x="76" y="-53.9" font-family="Arial" font-size="14.00" fill="#000000">is_deleted    </text>
<text text-anchor="start" x="174.0042" y="-53.9" font-family="Arial" font-size="14.00" fill="#666666">[boolean]</text>
</g>
<!-- public.reset_password_token&#45;&gt;public.user -->
<g id="edge1" class="edge">
<title>public.reset_password_token:user_id&#45;&gt;public.user:user_id</title>
<path fill="none" stroke="#000000" d="M35.8134,-546.6201C-18.4063,-536.6235 3.6381,-443.9427 46,-397 98.3826,-338.9531 343.6174,-419.0469 396,-361 423.8404,-330.1491 437.5556,-267.5 396,-267.5"/>
<polygon fill="#000000" stroke="#000000" points="36.0371,-546.6393 45.6127,-551.9833 41.0185,-547.0697 46,-547.5 46,-547.5 46,-547.5 41.0185,-547.0697 46.3873,-543.0167 36.0371,-546.6393 36.0371,-546.6393"/>
</g>
</g>
</svg>
