<?xml version="1.0" encoding="UTF-8" standalone="no"?>
<!DOCTYPE svg PUBLIC "-//W3C//DTD SVG 1.1//EN"
 "http://www.w3.org/Graphics/SVG/1.1/DTD/svg11.dtd">
<!-- Generated by graphviz version 2.40.1 (20161225.0304)
 -->
<!-- Title: public.jwt_token_code Pages: 1 -->
<svg width="418pt" height="682pt"
 viewBox="0.00 0.00 418.00 682.00" xmlns="http://www.w3.org/2000/svg" xmlns:xlink="http://www.w3.org/1999/xlink">
<g id="graph0" class="graph" transform="scale(1 1) rotate(0) translate(4 678)">
<title>public.jwt_token_code</title>
<polygon fill="#ffffff" stroke="transparent" points="-4,4 -4,-678 414,-678 414,4 -4,4"/>
<!-- public.jwt_token_code -->
<g id="node1" class="node">
<title>public.jwt_token_code</title>
<polygon fill="#efefef" stroke="transparent" points="46,-592.5 46,-627.5 364,-627.5 364,-592.5 46,-592.5"/>
<polygon fill="none" stroke="#000000" points="46,-592.5 46,-627.5 364,-627.5 364,-592.5 46,-592.5"/>
<text text-anchor="start" x="52.6902" y="-605.3" font-family="Arial Bold" font-size="18.00" fill="#000000">public.jwt_token_code</text>
<text text-anchor="start" x="229.7418" y="-605.3" font-family="Arial" font-size="14.00" fill="#000000">    </text>
<text text-anchor="start" x="263.9466" y="-605.3" font-family="Arial" font-size="14.00" fill="#666666">[BASE TABLE]</text>
<polygon fill="none" stroke="#000000" points="46,-562.5 46,-592.5 364,-592.5 364,-562.5 46,-562.5"/>
<text text-anchor="start" x="53" y="-573.9" font-family="Arial" font-size="14.00" fill="#000000">jwt_token_code_id </text>
<text text-anchor="start" x="172.8176" y="-573.9" font-family="Arial" font-size="14.00" fill="#666666">[bigint]</text>
<polygon fill="none" stroke="#000000" points="46,-532.5 46,-562.5 364,-562.5 364,-532.5 46,-532.5"/>
<text text-anchor="start" x="53" y="-543.9" font-family="Arial" font-size="14.00" fill="#000000">user_id </text>
<text text-anchor="start" x="102.7882" y="-543.9" font-family="Arial" font-size="14.00" fill="#666666">[bigint]</text>
<polygon fill="none" stroke="#000000" points="46,-502.5 46,-532.5 364,-532.5 364,-502.5 46,-502.5"/>
<text text-anchor="start" x="53" y="-513.9" font-family="Arial" font-size="14.00" fill="#000000">code </text>
<text text-anchor="start" x="87.2384" y="-513.9" font-family="Arial" font-size="14.00" fill="#666666">[varchar(255)]</text>
<polygon fill="none" stroke="#000000" points="46,-472.5 46,-502.5 364,-502.5 364,-472.5 46,-472.5"/>
<text text-anchor="start" x="53" y="-483.9" font-family="Arial" font-size="14.00" fill="#000000">created_at </text>
<text text-anchor="start" x="123.028" y="-483.9" font-family="Arial" font-size="14.00" fill="#666666">[timestamp without time zone]</text>
<polygon fill="none" stroke="#000000" points="46,-442.5 46,-472.5 364,-472.5 364,-442.5 46,-442.5"/>
<text text-anchor="start" x="53" y="-453.9" font-family="Arial" font-size="14.00" fill="#000000">expired_at </text>
<text text-anchor="start" x="122.244" y="-453.9" font-family="Arial" font-size="14.00" fill="#666666">[timestamp without time zone]</text>
<polygon fill="none" stroke="#000000" stroke-width="3" points="44.5,-441.5 44.5,-629.5 365.5,-629.5 365.5,-441.5 44.5,-441.5"/>
</g>
<!-- public.user -->
<g id="node2" class="node">
<title>public.user</title>
<polygon fill="#efefef" stroke="transparent" points="49,-282.5 49,-317.5 360,-317.5 360,-282.5 49,-282.5"/>
<polygon fill="none" stroke="#000000" points="49,-282.5 49,-317.5 360,-317.5 360,-282.5 49,-282.5"/>
<text text-anchor="start" x="97.2091" y="-295.3" font-family="Arial Bold" font-size="18.00" fill="#000000">public.user</text>
<text text-anchor="start" x="184.2229" y="-295.3" font-family="Arial" font-size="14.00" fill="#000000">    </text>
<text text-anchor="start" x="218.4277" y="-295.3" font-family="Arial" font-size="14.00" fill="#666666">[BASE TABLE]</text>
<polygon fill="none" stroke="#000000" points="49,-252.5 49,-282.5 360,-282.5 360,-252.5 49,-252.5"/>
<text text-anchor="start" x="56" y="-263.9" font-family="Arial" font-size="14.00" fill="#000000">user_id    </text>
<text text-anchor="start" x="136.1024" y="-263.9" font-family="Arial" font-size="14.00" fill="#666666">[bigint]</text>
<polygon fill="none" stroke="#000000" points="49,-222.5 49,-252.5 360,-252.5 360,-222.5 49,-222.5"/>
<text text-anchor="start" x="56" y="-233.9" font-family="Arial" font-size="14.00" fill="#000000">public_user_id    </text>
<text text-anchor="start" x="180.446" y="-233.9" font-family="Arial" font-size="14.00" fill="#666666">[varchar(255)]</text>
<polygon fill="none" stroke="#000000" points="49,-192.5 49,-222.5 360,-222.5 360,-192.5 49,-192.5"/>
<text text-anchor="start" x="56" y="-203.9" font-family="Arial" font-size="14.00" fill="#000000">jwt_subject    </text>
<text text-anchor="start" x="159.4362" y="-203.9" font-family="Arial" font-size="14.00" fill="#666666">[varchar(255)]</text>
<polygon fill="none" stroke="#000000" points="49,-162.5 49,-192.5 360,-192.5 360,-162.5 49,-162.5"/>
<text text-anchor="start" x="56" y="-173.9" font-family="Arial" font-size="14.00" fill="#000000">email    </text>
<text text-anchor="start" x="123.6438" y="-173.9" font-family="Arial" font-size="14.00" fill="#666666">[varchar(255)]</text>
<polygon fill="none" stroke="#000000" points="49,-132.5 49,-162.5 360,-162.5 360,-132.5 49,-132.5"/>
<text text-anchor="start" x="56" y="-143.9" font-family="Arial" font-size="14.00" fill="#000000">created_at    </text>
<text text-anchor="start" x="156.3422" y="-143.9" font-family="Arial" font-size="14.00" fill="#666666">[timestamp without time zone]</text>
<polygon fill="none" stroke="#000000" points="49,-102.5 49,-132.5 360,-132.5 360,-102.5 49,-102.5"/>
<text text-anchor="start" x="56" y="-113.9" font-family="Arial" font-size="14.00" fill="#000000">updated_at    </text>
<text text-anchor="start" x="160.2468" y="-113.9" font-family="Arial" font-size="14.00" fill="#666666">[timestamp without time zone]</text>
<polygon fill="none" stroke="#000000" points="49,-72.5 49,-102.5 360,-102.5 360,-72.5 49,-72.5"/>
<text text-anchor="start" x="55.5379" y="-83.9" font-family="Arial" font-size="14.00" fill="#000000">last_login_at    </text>
<text text-anchor="start" x="168.3219" y="-83.9" font-family="Arial" font-size="14.00" fill="#666666">[timestamp without time zone]</text>
<polygon fill="none" stroke="#000000" points="49,-42.5 49,-72.5 360,-72.5 360,-42.5 49,-42.5"/>
<text text-anchor="start" x="56" y="-53.9" font-family="Arial" font-size="14.00" fill="#000000">is_deleted    </text>
<text text-anchor="start" x="154.0042" y="-53.9" font-family="Arial" font-size="14.00" fill="#666666">[boolean]</text>
</g>
<!-- public.jwt_token_code&#45;&gt;public.user -->
<g id="edge1" class="edge">
<title>public.jwt_token_code:user_id&#45;&gt;public.user:user_id</title>
<path fill="none" stroke="#000000" d="M35.8159,-546.6223C-18.3763,-536.6504 3.9123,-444.1887 46,-397 139.4993,-292.1685 266.5007,-465.8315 360,-361 387.6602,-329.9874 401.5556,-267.5 360,-267.5"/>
<polygon fill="#000000" stroke="#000000" points="36.0369,-546.6413 45.6136,-551.9834 41.0185,-547.0706 46,-547.5 46,-547.5 46,-547.5 41.0185,-547.0706 46.3864,-543.0166 36.0369,-546.6413 36.0369,-546.6413"/>
</g>
</g>
</svg>
