<?xml version="1.0" encoding="UTF-8" standalone="no"?>
<!DOCTYPE svg PUBLIC "-//W3C//DTD SVG 1.1//EN"
 "http://www.w3.org/Graphics/SVG/1.1/DTD/svg11.dtd">
<!-- Generated by graphviz version 2.40.1 (20161225.0304)
 -->
<!-- Title: public.jwt_refresh_token Pages: 1 -->
<svg width="435pt" height="652pt"
 viewBox="0.00 0.00 435.00 652.00" xmlns="http://www.w3.org/2000/svg" xmlns:xlink="http://www.w3.org/1999/xlink">
<g id="graph0" class="graph" transform="scale(1 1) rotate(0) translate(4 648)">
<title>public.jwt_refresh_token</title>
<polygon fill="#ffffff" stroke="transparent" points="-4,4 -4,-648 431,-648 431,4 -4,4"/>
<!-- public.jwt_refresh_token -->
<g id="node1" class="node">
<title>public.jwt_refresh_token</title>
<polygon fill="#efefef" stroke="transparent" points="46.5,-562.5 46.5,-597.5 381.5,-597.5 381.5,-562.5 46.5,-562.5"/>
<polygon fill="none" stroke="#000000" points="46.5,-562.5 46.5,-597.5 381.5,-597.5 381.5,-562.5 46.5,-562.5"/>
<text text-anchor="start" x="53.1969" y="-575.3" font-family="Arial Bold" font-size="18.00" fill="#000000">public.jwt_refresh_token</text>
<text text-anchor="start" x="247.2351" y="-575.3" font-family="Arial" font-size="14.00" fill="#000000">    </text>
<text text-anchor="start" x="281.4399" y="-575.3" font-family="Arial" font-size="14.00" fill="#666666">[BASE TABLE]</text>
<polygon fill="none" stroke="#000000" points="46.5,-532.5 46.5,-562.5 381.5,-562.5 381.5,-532.5 46.5,-532.5"/>
<text text-anchor="start" x="53.5" y="-543.9" font-family="Arial" font-size="14.00" fill="#000000">jwt_refresh_token_id </text>
<text text-anchor="start" x="186.5294" y="-543.9" font-family="Arial" font-size="14.00" fill="#666666">[bigint]</text>
<polygon fill="none" stroke="#000000" points="46.5,-502.5 46.5,-532.5 381.5,-532.5 381.5,-502.5 46.5,-502.5"/>
<text text-anchor="start" x="53.5" y="-513.9" font-family="Arial" font-size="14.00" fill="#000000">user_id </text>
<text text-anchor="start" x="103.2882" y="-513.9" font-family="Arial" font-size="14.00" fill="#666666">[bigint]</text>
<polygon fill="none" stroke="#000000" points="46.5,-472.5 46.5,-502.5 381.5,-502.5 381.5,-472.5 46.5,-472.5"/>
<text text-anchor="start" x="53.5" y="-483.9" font-family="Arial" font-size="14.00" fill="#000000">token </text>
<text text-anchor="start" x="91.629" y="-483.9" font-family="Arial" font-size="14.00" fill="#666666">[varchar(255)]</text>
<polygon fill="none" stroke="#000000" points="46.5,-442.5 46.5,-472.5 381.5,-472.5 381.5,-442.5 46.5,-442.5"/>
<text text-anchor="start" x="53.5" y="-453.9" font-family="Arial" font-size="14.00" fill="#000000">created_at </text>
<text text-anchor="start" x="123.528" y="-453.9" font-family="Arial" font-size="14.00" fill="#666666">[timestamp without time zone]</text>
<polygon fill="none" stroke="#000000" points="46.5,-412.5 46.5,-442.5 381.5,-442.5 381.5,-412.5 46.5,-412.5"/>
<text text-anchor="start" x="53.5" y="-423.9" font-family="Arial" font-size="14.00" fill="#000000">expired_at </text>
<text text-anchor="start" x="122.744" y="-423.9" font-family="Arial" font-size="14.00" fill="#666666">[timestamp without time zone]</text>
<polygon fill="none" stroke="#000000" stroke-width="3" points="44.5,-411.5 44.5,-599.5 382.5,-599.5 382.5,-411.5 44.5,-411.5"/>
</g>
<!-- public.user -->
<g id="node2" class="node">
<title>public.user</title>
<polygon fill="#efefef" stroke="transparent" points="50.5,-252.5 50.5,-287.5 377.5,-287.5 377.5,-252.5 50.5,-252.5"/>
<polygon fill="none" stroke="#000000" points="50.5,-252.5 50.5,-287.5 377.5,-287.5 377.5,-252.5 50.5,-252.5"/>
<text text-anchor="start" x="106.7091" y="-265.3" font-family="Arial Bold" font-size="18.00" fill="#000000">public.user</text>
<text text-anchor="start" x="193.7229" y="-265.3" font-family="Arial" font-size="14.00" fill="#000000">    </text>
<text text-anchor="start" x="227.9277" y="-265.3" font-family="Arial" font-size="14.00" fill="#666666">[BASE TABLE]</text>
<polygon fill="none" stroke="#000000" points="50.5,-222.5 50.5,-252.5 377.5,-252.5 377.5,-222.5 50.5,-222.5"/>
<text text-anchor="start" x="57.5" y="-233.9" font-family="Arial" font-size="14.00" fill="#000000">user_id    </text>
<text text-anchor="start" x="137.6024" y="-233.9" font-family="Arial" font-size="14.00" fill="#666666">[bigint]</text>
<polygon fill="none" stroke="#000000" points="50.5,-192.5 50.5,-222.5 377.5,-222.5 377.5,-192.5 50.5,-192.5"/>
<text text-anchor="start" x="57.5" y="-203.9" font-family="Arial" font-size="14.00" fill="#000000">email    </text>
<text text-anchor="start" x="125.1438" y="-203.9" font-family="Arial" font-size="14.00" fill="#666666">[varchar(255)]</text>
<polygon fill="none" stroke="#000000" points="50.5,-162.5 50.5,-192.5 377.5,-192.5 377.5,-162.5 50.5,-162.5"/>
<text text-anchor="start" x="57.5" y="-173.9" font-family="Arial" font-size="14.00" fill="#000000">jwt_subject    </text>
<text text-anchor="start" x="160.9362" y="-173.9" font-family="Arial" font-size="14.00" fill="#666666">[varchar(255)]</text>
<polygon fill="none" stroke="#000000" points="50.5,-132.5 50.5,-162.5 377.5,-162.5 377.5,-132.5 50.5,-132.5"/>
<text text-anchor="start" x="57.5" y="-143.9" font-family="Arial" font-size="14.00" fill="#000000">created_at    </text>
<text text-anchor="start" x="157.8422" y="-143.9" font-family="Arial" font-size="14.00" fill="#666666">[timestamp without time zone]</text>
<polygon fill="none" stroke="#000000" points="50.5,-102.5 50.5,-132.5 377.5,-132.5 377.5,-102.5 50.5,-102.5"/>
<text text-anchor="start" x="57.5" y="-113.9" font-family="Arial" font-size="14.00" fill="#000000">updated_at    </text>
<text text-anchor="start" x="161.7468" y="-113.9" font-family="Arial" font-size="14.00" fill="#666666">[timestamp without time zone]</text>
<polygon fill="none" stroke="#000000" points="50.5,-72.5 50.5,-102.5 377.5,-102.5 377.5,-72.5 50.5,-72.5"/>
<text text-anchor="start" x="57.2553" y="-83.9" font-family="Arial" font-size="14.00" fill="#000000">last_logined_at    </text>
<text text-anchor="start" x="185.6045" y="-83.9" font-family="Arial" font-size="14.00" fill="#666666">[timestamp without time zone]</text>
<polygon fill="none" stroke="#000000" points="50.5,-42.5 50.5,-72.5 377.5,-72.5 377.5,-42.5 50.5,-42.5"/>
<text text-anchor="start" x="57.5" y="-53.9" font-family="Arial" font-size="14.00" fill="#000000">is_deleted    </text>
<text text-anchor="start" x="155.5042" y="-53.9" font-family="Arial" font-size="14.00" fill="#666666">[boolean]</text>
</g>
<!-- public.jwt_refresh_token&#45;&gt;public.user -->
<g id="edge1" class="edge">
<title>public.jwt_refresh_token:user_id&#45;&gt;public.user:user_id</title>
<path fill="none" stroke="#000000" d="M36.562,-514.9069C-15.0886,-486.6795 -8.2039,-237.5 50.5,-237.5"/>
<polygon fill="#000000" stroke="#000000" points="36.824,-514.9752 45.3638,-521.8542 41.662,-516.2376 46.5,-517.5 46.5,-517.5 46.5,-517.5 41.662,-516.2376 47.6362,-513.1458 36.824,-514.9752 36.824,-514.9752"/>
</g>
</g>
</svg>
