<?xml version="1.0" encoding="UTF-8" standalone="no"?>
<!DOCTYPE svg PUBLIC "-//W3C//DTD SVG 1.1//EN"
 "http://www.w3.org/Graphics/SVG/1.1/DTD/svg11.dtd">
<!-- Generated by graphviz version 2.40.1 (20161225.0304)
 -->
<!-- Title: public.user Pages: 1 -->
<svg width="1737pt" height="682pt"
 viewBox="0.00 0.00 1737.00 682.00" xmlns="http://www.w3.org/2000/svg" xmlns:xlink="http://www.w3.org/1999/xlink">
<g id="graph0" class="graph" transform="scale(1 1) rotate(0) translate(4 678)">
<title>public.user</title>
<polygon fill="#ffffff" stroke="transparent" points="-4,4 -4,-678 1733,-678 1733,4 -4,4"/>
<!-- public.user -->
<g id="node1" class="node">
<title>public.user</title>
<polygon fill="#efefef" stroke="transparent" points="713.5,-285.5 713.5,-320.5 1010.5,-320.5 1010.5,-285.5 713.5,-285.5"/>
<polygon fill="none" stroke="#000000" points="713.5,-285.5 713.5,-320.5 1010.5,-320.5 1010.5,-285.5 713.5,-285.5"/>
<text text-anchor="start" x="754.7091" y="-298.3" font-family="Arial Bold" font-size="18.00" fill="#000000">public.user</text>
<text text-anchor="start" x="841.7229" y="-298.3" font-family="Arial" font-size="14.00" fill="#000000">    </text>
<text text-anchor="start" x="875.9277" y="-298.3" font-family="Arial" font-size="14.00" fill="#666666">[BASE TABLE]</text>
<polygon fill="none" stroke="#000000" points="713.5,-255.5 713.5,-285.5 1010.5,-285.5 1010.5,-255.5 713.5,-255.5"/>
<text text-anchor="start" x="720.5" y="-266.9" font-family="Arial" font-size="14.00" fill="#000000">user_id </text>
<text text-anchor="start" x="770.2882" y="-266.9" font-family="Arial" font-size="14.00" fill="#666666">[bigint]</text>
<polygon fill="none" stroke="#000000" points="713.5,-225.5 713.5,-255.5 1010.5,-255.5 1010.5,-225.5 713.5,-225.5"/>
<text text-anchor="start" x="720.5" y="-236.9" font-family="Arial" font-size="14.00" fill="#000000">public_user_id </text>
<text text-anchor="start" x="814.6318" y="-236.9" font-family="Arial" font-size="14.00" fill="#666666">[varchar(255)]</text>
<polygon fill="none" stroke="#000000" points="713.5,-195.5 713.5,-225.5 1010.5,-225.5 1010.5,-195.5 713.5,-195.5"/>
<text text-anchor="start" x="720.5" y="-206.9" font-family="Arial" font-size="14.00" fill="#000000">jwt_subject </text>
<text text-anchor="start" x="793.622" y="-206.9" font-family="Arial" font-size="14.00" fill="#666666">[varchar(255)]</text>
<polygon fill="none" stroke="#000000" points="713.5,-165.5 713.5,-195.5 1010.5,-195.5 1010.5,-165.5 713.5,-165.5"/>
<text text-anchor="start" x="720.5" y="-176.9" font-family="Arial" font-size="14.00" fill="#000000">email </text>
<text text-anchor="start" x="757.8296" y="-176.9" font-family="Arial" font-size="14.00" fill="#666666">[varchar(255)]</text>
<polygon fill="none" stroke="#000000" points="713.5,-135.5 713.5,-165.5 1010.5,-165.5 1010.5,-135.5 713.5,-135.5"/>
<text text-anchor="start" x="720.5" y="-146.9" font-family="Arial" font-size="14.00" fill="#000000">created_at </text>
<text text-anchor="start" x="790.528" y="-146.9" font-family="Arial" font-size="14.00" fill="#666666">[timestamp without time zone]</text>
<polygon fill="none" stroke="#000000" points="713.5,-105.5 713.5,-135.5 1010.5,-135.5 1010.5,-105.5 713.5,-105.5"/>
<text text-anchor="start" x="720.5" y="-116.9" font-family="Arial" font-size="14.00" fill="#000000">updated_at </text>
<text text-anchor="start" x="794.4326" y="-116.9" font-family="Arial" font-size="14.00" fill="#666666">[timestamp without time zone]</text>
<polygon fill="none" stroke="#000000" points="713.5,-75.5 713.5,-105.5 1010.5,-105.5 1010.5,-75.5 713.5,-75.5"/>
<text text-anchor="start" x="720.4124" y="-86.9" font-family="Arial" font-size="14.00" fill="#000000">last_logined_at </text>
<text text-anchor="start" x="818.4474" y="-86.9" font-family="Arial" font-size="14.00" fill="#666666">[timestamp without time zone]</text>
<polygon fill="none" stroke="#000000" points="713.5,-45.5 713.5,-75.5 1010.5,-75.5 1010.5,-45.5 713.5,-45.5"/>
<text text-anchor="start" x="720.5" y="-56.9" font-family="Arial" font-size="14.00" fill="#000000">is_deleted </text>
<text text-anchor="start" x="788.19" y="-56.9" font-family="Arial" font-size="14.00" fill="#666666">[boolean]</text>
<polygon fill="none" stroke="#000000" stroke-width="3" points="711.5,-44.5 711.5,-322.5 1011.5,-322.5 1011.5,-44.5 711.5,-44.5"/>
</g>
<!-- public.user_auth -->
<g id="node2" class="node">
<title>public.user_auth</title>
<polygon fill="#efefef" stroke="transparent" points="43.5,-595.5 43.5,-630.5 346.5,-630.5 346.5,-595.5 43.5,-595.5"/>
<polygon fill="none" stroke="#000000" points="43.5,-595.5 43.5,-630.5 346.5,-630.5 346.5,-595.5 43.5,-595.5"/>
<text text-anchor="start" x="65.1956" y="-608.3" font-family="Arial Bold" font-size="18.00" fill="#000000">public.user_auth</text>
<text text-anchor="start" x="197.2364" y="-608.3" font-family="Arial" font-size="14.00" fill="#000000">    </text>
<text text-anchor="start" x="231.4412" y="-608.3" font-family="Arial" font-size="14.00" fill="#666666">[BASE TABLE]</text>
<polygon fill="none" stroke="#000000" points="43.5,-565.5 43.5,-595.5 346.5,-595.5 346.5,-565.5 43.5,-565.5"/>
<text text-anchor="start" x="50.5" y="-576.9" font-family="Arial" font-size="14.00" fill="#000000">user_auth_id    </text>
<text text-anchor="start" x="165.6234" y="-576.9" font-family="Arial" font-size="14.00" fill="#666666">[bigint]</text>
<polygon fill="none" stroke="#000000" points="43.5,-535.5 43.5,-565.5 346.5,-565.5 346.5,-535.5 43.5,-535.5"/>
<text text-anchor="start" x="50.5" y="-546.9" font-family="Arial" font-size="14.00" fill="#000000">user_id    </text>
<text text-anchor="start" x="130.6024" y="-546.9" font-family="Arial" font-size="14.00" fill="#666666">[bigint]</text>
<polygon fill="none" stroke="#000000" points="43.5,-505.5 43.5,-535.5 346.5,-535.5 346.5,-505.5 43.5,-505.5"/>
<text text-anchor="start" x="50.5" y="-516.9" font-family="Arial" font-size="14.00" fill="#000000">password    </text>
<text text-anchor="start" x="144.6024" y="-516.9" font-family="Arial" font-size="14.00" fill="#666666">[varchar(255)]</text>
<polygon fill="none" stroke="#000000" points="43.5,-475.5 43.5,-505.5 346.5,-505.5 346.5,-475.5 43.5,-475.5"/>
<text text-anchor="start" x="50.5" y="-486.9" font-family="Arial" font-size="14.00" fill="#000000">created_at    </text>
<text text-anchor="start" x="150.8422" y="-486.9" font-family="Arial" font-size="14.00" fill="#666666">[timestamp without time zone]</text>
<polygon fill="none" stroke="#000000" points="43.5,-445.5 43.5,-475.5 346.5,-475.5 346.5,-445.5 43.5,-445.5"/>
<text text-anchor="start" x="50.3065" y="-456.9" font-family="Arial" font-size="14.00" fill="#000000">updated_at    </text>
<text text-anchor="start" x="154.5533" y="-456.9" font-family="Arial" font-size="14.00" fill="#666666">[timestamp without time zone]</text>
</g>
<!-- public.user_auth&#45;&gt;public.user -->
<g id="edge1" class="edge">
<title>public.user_auth:user_id&#45;&gt;public.user:user_id</title>
<path fill="none" stroke="#000000" d="M356.736,-549.6539C409.2181,-540.0385 353.4331,-450.8185 398.5,-403 502.6691,-292.4708 561.6188,-270.5 713.5,-270.5"/>
<polygon fill="#000000" stroke="#000000" points="356.466,-549.6761 346.1293,-546.0153 351.483,-550.0881 346.5,-550.5 346.5,-550.5 346.5,-550.5 351.483,-550.0881 346.8707,-554.9847 356.466,-549.6761 356.466,-549.6761"/>
</g>
<!-- public.reset_password_token -->
<g id="node3" class="node">
<title>public.reset_password_token</title>
<polygon fill="#efefef" stroke="transparent" points="450.5,-595.5 450.5,-630.5 824.5,-630.5 824.5,-595.5 450.5,-595.5"/>
<polygon fill="none" stroke="#000000" points="450.5,-595.5 450.5,-630.5 824.5,-630.5 824.5,-595.5 450.5,-595.5"/>
<text text-anchor="start" x="457.1858" y="-608.3" font-family="Arial Bold" font-size="18.00" fill="#000000">public.reset_password_token</text>
<text text-anchor="start" x="690.2462" y="-608.3" font-family="Arial" font-size="14.00" fill="#000000">    </text>
<text text-anchor="start" x="724.451" y="-608.3" font-family="Arial" font-size="14.00" fill="#666666">[BASE TABLE]</text>
<polygon fill="none" stroke="#000000" points="450.5,-565.5 450.5,-595.5 824.5,-595.5 824.5,-565.5 450.5,-565.5"/>
<text text-anchor="start" x="457.5" y="-576.9" font-family="Arial" font-size="14.00" fill="#000000">reset_password_token_id    </text>
<text text-anchor="start" x="651.1942" y="-576.9" font-family="Arial" font-size="14.00" fill="#666666">[bigint]</text>
<polygon fill="none" stroke="#000000" points="450.5,-535.5 450.5,-565.5 824.5,-565.5 824.5,-535.5 450.5,-535.5"/>
<text text-anchor="start" x="457.5" y="-546.9" font-family="Arial" font-size="14.00" fill="#000000">user_id    </text>
<text text-anchor="start" x="537.6024" y="-546.9" font-family="Arial" font-size="14.00" fill="#666666">[bigint]</text>
<polygon fill="none" stroke="#000000" points="450.5,-505.5 450.5,-535.5 824.5,-535.5 824.5,-505.5 450.5,-505.5"/>
<text text-anchor="start" x="457.5" y="-516.9" font-family="Arial" font-size="14.00" fill="#000000">token    </text>
<text text-anchor="start" x="525.9432" y="-516.9" font-family="Arial" font-size="14.00" fill="#666666">[varchar(255)]</text>
<polygon fill="none" stroke="#000000" points="450.5,-475.5 450.5,-505.5 824.5,-505.5 824.5,-475.5 450.5,-475.5"/>
<text text-anchor="start" x="457.5" y="-486.9" font-family="Arial" font-size="14.00" fill="#000000">created_at    </text>
<text text-anchor="start" x="557.8422" y="-486.9" font-family="Arial" font-size="14.00" fill="#666666">[timestamp without time zone]</text>
<polygon fill="none" stroke="#000000" points="450.5,-445.5 450.5,-475.5 824.5,-475.5 824.5,-445.5 450.5,-445.5"/>
<text text-anchor="start" x="457.5" y="-456.9" font-family="Arial" font-size="14.00" fill="#000000">expired_at    </text>
<text text-anchor="start" x="557.0582" y="-456.9" font-family="Arial" font-size="14.00" fill="#666666">[timestamp without time zone]</text>
</g>
<!-- public.reset_password_token&#45;&gt;public.user -->
<g id="edge2" class="edge">
<title>public.reset_password_token:user_id&#45;&gt;public.user:user_id</title>
<path fill="none" stroke="#000000" d="M834.7632,-549.6154C886.959,-539.9308 860.8636,-453.0218 824.5,-403 794.0044,-361.0501 743.9956,-408.9499 713.5,-367 688.2812,-332.309 670.6111,-270.5 713.5,-270.5"/>
<polygon fill="#000000" stroke="#000000" points="834.4631,-549.6412 824.1135,-546.0166 829.4815,-550.0706 824.5,-550.5 824.5,-550.5 824.5,-550.5 829.4815,-550.0706 824.8865,-554.9834 834.4631,-549.6412 834.4631,-549.6412"/>
</g>
<!-- public.jwt_token_code -->
<g id="node4" class="node">
<title>public.jwt_token_code</title>
<polygon fill="#efefef" stroke="transparent" points="928.5,-595.5 928.5,-630.5 1246.5,-630.5 1246.5,-595.5 928.5,-595.5"/>
<polygon fill="none" stroke="#000000" points="928.5,-595.5 928.5,-630.5 1246.5,-630.5 1246.5,-595.5 928.5,-595.5"/>
<text text-anchor="start" x="935.1902" y="-608.3" font-family="Arial Bold" font-size="18.00" fill="#000000">public.jwt_token_code</text>
<text text-anchor="start" x="1112.2418" y="-608.3" font-family="Arial" font-size="14.00" fill="#000000">    </text>
<text text-anchor="start" x="1146.4466" y="-608.3" font-family="Arial" font-size="14.00" fill="#666666">[BASE TABLE]</text>
<polygon fill="none" stroke="#000000" points="928.5,-565.5 928.5,-595.5 1246.5,-595.5 1246.5,-565.5 928.5,-565.5"/>
<text text-anchor="start" x="935.5" y="-576.9" font-family="Arial" font-size="14.00" fill="#000000">jwt_token_code_id    </text>
<text text-anchor="start" x="1085.6318" y="-576.9" font-family="Arial" font-size="14.00" fill="#666666">[bigint]</text>
<polygon fill="none" stroke="#000000" points="928.5,-535.5 928.5,-565.5 1246.5,-565.5 1246.5,-535.5 928.5,-535.5"/>
<text text-anchor="start" x="935.5" y="-546.9" font-family="Arial" font-size="14.00" fill="#000000">user_id    </text>
<text text-anchor="start" x="1015.6024" y="-546.9" font-family="Arial" font-size="14.00" fill="#666666">[bigint]</text>
<polygon fill="none" stroke="#000000" points="928.5,-505.5 928.5,-535.5 1246.5,-535.5 1246.5,-505.5 928.5,-505.5"/>
<text text-anchor="start" x="935.5" y="-516.9" font-family="Arial" font-size="14.00" fill="#000000">code    </text>
<text text-anchor="start" x="1000.0526" y="-516.9" font-family="Arial" font-size="14.00" fill="#666666">[varchar(255)]</text>
<polygon fill="none" stroke="#000000" points="928.5,-475.5 928.5,-505.5 1246.5,-505.5 1246.5,-475.5 928.5,-475.5"/>
<text text-anchor="start" x="935.5" y="-486.9" font-family="Arial" font-size="14.00" fill="#000000">created_at    </text>
<text text-anchor="start" x="1035.8422" y="-486.9" font-family="Arial" font-size="14.00" fill="#666666">[timestamp without time zone]</text>
<polygon fill="none" stroke="#000000" points="928.5,-445.5 928.5,-475.5 1246.5,-475.5 1246.5,-445.5 928.5,-445.5"/>
<text text-anchor="start" x="935.5" y="-456.9" font-family="Arial" font-size="14.00" fill="#000000">expired_at    </text>
<text text-anchor="start" x="1035.0582" y="-456.9" font-family="Arial" font-size="14.00" fill="#666666">[timestamp without time zone]</text>
</g>
<!-- public.jwt_token_code&#45;&gt;public.user -->
<g id="edge3" class="edge">
<title>public.jwt_token_code:user_id&#45;&gt;public.user:user_id</title>
<path fill="none" stroke="#000000" d="M918.2614,-549.6323C866.3296,-540.1297 894.6837,-454.7779 928.5,-403 950.2643,-369.6756 988.7357,-400.3244 1010.5,-367 1033.9522,-331.0911 1053.3889,-270.5 1010.5,-270.5"/>
<polygon fill="#000000" stroke="#000000" points="918.5357,-549.6555 928.12,-554.9839 923.5179,-550.0777 928.5,-550.5 928.5,-550.5 928.5,-550.5 923.5179,-550.0777 928.88,-546.0161 918.5357,-549.6555 918.5357,-549.6555"/>
</g>
<!-- public.jwt_refresh_token -->
<g id="node5" class="node">
<title>public.jwt_refresh_token</title>
<polygon fill="#efefef" stroke="transparent" points="1351.5,-595.5 1351.5,-630.5 1686.5,-630.5 1686.5,-595.5 1351.5,-595.5"/>
<polygon fill="none" stroke="#000000" points="1351.5,-595.5 1351.5,-630.5 1686.5,-630.5 1686.5,-595.5 1351.5,-595.5"/>
<text text-anchor="start" x="1358.1969" y="-608.3" font-family="Arial Bold" font-size="18.00" fill="#000000">public.jwt_refresh_token</text>
<text text-anchor="start" x="1552.2351" y="-608.3" font-family="Arial" font-size="14.00" fill="#000000">    </text>
<text text-anchor="start" x="1586.4399" y="-608.3" font-family="Arial" font-size="14.00" fill="#666666">[BASE TABLE]</text>
<polygon fill="none" stroke="#000000" points="1351.5,-565.5 1351.5,-595.5 1686.5,-595.5 1686.5,-565.5 1351.5,-565.5"/>
<text text-anchor="start" x="1358.5" y="-576.9" font-family="Arial" font-size="14.00" fill="#000000">jwt_refresh_token_id    </text>
<text text-anchor="start" x="1521.8436" y="-576.9" font-family="Arial" font-size="14.00" fill="#666666">[bigint]</text>
<polygon fill="none" stroke="#000000" points="1351.5,-535.5 1351.5,-565.5 1686.5,-565.5 1686.5,-535.5 1351.5,-535.5"/>
<text text-anchor="start" x="1358.5" y="-546.9" font-family="Arial" font-size="14.00" fill="#000000">user_id    </text>
<text text-anchor="start" x="1438.6024" y="-546.9" font-family="Arial" font-size="14.00" fill="#666666">[bigint]</text>
<polygon fill="none" stroke="#000000" points="1351.5,-505.5 1351.5,-535.5 1686.5,-535.5 1686.5,-505.5 1351.5,-505.5"/>
<text text-anchor="start" x="1358.5" y="-516.9" font-family="Arial" font-size="14.00" fill="#000000">token    </text>
<text text-anchor="start" x="1426.9432" y="-516.9" font-family="Arial" font-size="14.00" fill="#666666">[varchar(255)]</text>
<polygon fill="none" stroke="#000000" points="1351.5,-475.5 1351.5,-505.5 1686.5,-505.5 1686.5,-475.5 1351.5,-475.5"/>
<text text-anchor="start" x="1358.5" y="-486.9" font-family="Arial" font-size="14.00" fill="#000000">created_at    </text>
<text text-anchor="start" x="1458.8422" y="-486.9" font-family="Arial" font-size="14.00" fill="#666666">[timestamp without time zone]</text>
<polygon fill="none" stroke="#000000" points="1351.5,-445.5 1351.5,-475.5 1686.5,-475.5 1686.5,-445.5 1351.5,-445.5"/>
<text text-anchor="start" x="1358.5" y="-456.9" font-family="Arial" font-size="14.00" fill="#000000">expired_at    </text>
<text text-anchor="start" x="1458.0582" y="-456.9" font-family="Arial" font-size="14.00" fill="#666666">[timestamp without time zone]</text>
</g>
<!-- public.jwt_refresh_token&#45;&gt;public.user -->
<g id="edge4" class="edge">
<title>public.jwt_refresh_token:user_id&#45;&gt;public.user:user_id</title>
<path fill="none" stroke="#000000" d="M1341.2285,-549.6602C1288.4817,-540.1159 1343.0123,-451.5266 1298.5,-403 1203.2583,-299.1688 1151.3968,-270.5 1010.5,-270.5"/>
<polygon fill="#000000" stroke="#000000" points="1341.5333,-549.6851 1351.1333,-554.985 1346.5166,-550.0925 1351.5,-550.5 1351.5,-550.5 1351.5,-550.5 1346.5166,-550.0925 1351.8667,-546.015 1341.5333,-549.6851 1341.5333,-549.6851"/>
</g>
</g>
</svg>
