<?xml version="1.0" encoding="UTF-8" standalone="no"?>
<!DOCTYPE svg PUBLIC "-//W3C//DTD SVG 1.1//EN"
 "http://www.w3.org/Graphics/SVG/1.1/DTD/svg11.dtd">
<!-- Generated by graphviz version 2.40.1 (20161225.0304)
 -->
<!-- Title: public.client_application Pages: 1 -->
<svg width="530pt" height="592pt"
 viewBox="0.00 0.00 530.00 592.00" xmlns="http://www.w3.org/2000/svg" xmlns:xlink="http://www.w3.org/1999/xlink">
<g id="graph0" class="graph" transform="scale(1 1) rotate(0) translate(4 588)">
<title>public.client_application</title>
<polygon fill="#ffffff" stroke="transparent" points="-4,4 -4,-588 526,-588 526,4 -4,4"/>
<!-- public.client_application -->
<g id="node1" class="node">
<title>public.client_application</title>
<polygon fill="#efefef" stroke="transparent" points="95,-255.5 95,-290.5 426,-290.5 426,-255.5 95,-255.5"/>
<polygon fill="none" stroke="#000000" points="95,-255.5 95,-290.5 426,-290.5 426,-255.5 95,-255.5"/>
<text text-anchor="start" x="101.6958" y="-268.3" font-family="Arial Bold" font-size="18.00" fill="#000000">public.client_application</text>
<text text-anchor="start" x="291.7362" y="-268.3" font-family="Arial" font-size="14.00" fill="#000000">    </text>
<text text-anchor="start" x="325.941" y="-268.3" font-family="Arial" font-size="14.00" fill="#666666">[BASE TABLE]</text>
<polygon fill="none" stroke="#000000" points="95,-225.5 95,-255.5 426,-255.5 426,-225.5 95,-225.5"/>
<text text-anchor="start" x="102" y="-236.9" font-family="Arial" font-size="14.00" fill="#000000">client_application_id </text>
<text text-anchor="start" x="231.92" y="-236.9" font-family="Arial" font-size="14.00" fill="#666666">[bigint]</text>
<polygon fill="none" stroke="#000000" points="95,-195.5 95,-225.5 426,-225.5 426,-195.5 95,-195.5"/>
<text text-anchor="start" x="102" y="-206.9" font-family="Arial" font-size="14.00" fill="#000000">name </text>
<text text-anchor="start" x="140.899" y="-206.9" font-family="Arial" font-size="14.00" fill="#666666">[varchar(255)]</text>
<polygon fill="none" stroke="#000000" points="95,-165.5 95,-195.5 426,-195.5 426,-165.5 95,-165.5"/>
<text text-anchor="start" x="102" y="-176.9" font-family="Arial" font-size="14.00" fill="#000000">client_id </text>
<text text-anchor="start" x="157.2314" y="-176.9" font-family="Arial" font-size="14.00" fill="#666666">[varchar(255)]</text>
<polygon fill="none" stroke="#000000" points="95,-135.5 95,-165.5 426,-165.5 426,-135.5 95,-135.5"/>
<text text-anchor="start" x="102" y="-146.9" font-family="Arial" font-size="14.00" fill="#000000">client_secret </text>
<text text-anchor="start" x="184.4586" y="-146.9" font-family="Arial" font-size="14.00" fill="#666666">[varchar(255)]</text>
<polygon fill="none" stroke="#000000" points="95,-105.5 95,-135.5 426,-135.5 426,-105.5 95,-105.5"/>
<text text-anchor="start" x="102" y="-116.9" font-family="Arial" font-size="14.00" fill="#000000">redirect_uri </text>
<text text-anchor="start" x="175.8892" y="-116.9" font-family="Arial" font-size="14.00" fill="#666666">[varchar(255)]</text>
<polygon fill="none" stroke="#000000" points="95,-75.5 95,-105.5 426,-105.5 426,-75.5 95,-75.5"/>
<text text-anchor="start" x="102" y="-86.9" font-family="Arial" font-size="14.00" fill="#000000">created_at </text>
<text text-anchor="start" x="172.028" y="-86.9" font-family="Arial" font-size="14.00" fill="#666666">[timestamp without time zone]</text>
<polygon fill="none" stroke="#000000" points="95,-45.5 95,-75.5 426,-75.5 426,-45.5 95,-45.5"/>
<text text-anchor="start" x="102" y="-56.9" font-family="Arial" font-size="14.00" fill="#000000">updated_at </text>
<text text-anchor="start" x="175.9326" y="-56.9" font-family="Arial" font-size="14.00" fill="#666666">[timestamp without time zone]</text>
<polygon fill="none" stroke="#000000" stroke-width="3" points="93,-44.5 93,-292.5 427,-292.5 427,-44.5 93,-44.5"/>
</g>
<!-- public.client_application_allow_origin -->
<g id="node2" class="node">
<title>public.client_application_allow_origin</title>
<polygon fill="#efefef" stroke="transparent" points="43,-505.5 43,-540.5 479,-540.5 479,-505.5 43,-505.5"/>
<polygon fill="none" stroke="#000000" points="43,-505.5 43,-540.5 479,-540.5 479,-505.5 43,-505.5"/>
<text text-anchor="start" x="49.6925" y="-518.3" font-family="Arial Bold" font-size="18.00" fill="#000000">public.client_application_allow_origin</text>
<text text-anchor="start" x="344.7395" y="-518.3" font-family="Arial" font-size="14.00" fill="#000000">    </text>
<text text-anchor="start" x="378.9443" y="-518.3" font-family="Arial" font-size="14.00" fill="#666666">[BASE TABLE]</text>
<polygon fill="none" stroke="#000000" points="43,-475.5 43,-505.5 479,-505.5 479,-475.5 43,-475.5"/>
<text text-anchor="start" x="50" y="-486.9" font-family="Arial" font-size="14.00" fill="#000000">client_application_allow_origin_id    </text>
<text text-anchor="start" x="291.906" y="-486.9" font-family="Arial" font-size="14.00" fill="#666666">[bigint]</text>
<polygon fill="none" stroke="#000000" points="43,-445.5 43,-475.5 479,-475.5 479,-445.5 43,-445.5"/>
<text text-anchor="start" x="50" y="-456.9" font-family="Arial" font-size="14.00" fill="#000000">client_application_id    </text>
<text text-anchor="start" x="210.2342" y="-456.9" font-family="Arial" font-size="14.00" fill="#666666">[bigint]</text>
<polygon fill="none" stroke="#000000" points="43,-415.5 43,-445.5 479,-445.5 479,-415.5 43,-415.5"/>
<text text-anchor="start" x="50" y="-426.9" font-family="Arial" font-size="14.00" fill="#000000">allow_origin    </text>
<text text-anchor="start" x="158.094" y="-426.9" font-family="Arial" font-size="14.00" fill="#666666">[varchar(255)]</text>
</g>
<!-- public.client_application_allow_origin&#45;&gt;public.client_application -->
<g id="edge1" class="edge">
<title>public.client_application_allow_origin:client_application_id&#45;&gt;public.client_application:client_application_id</title>
<path fill="none" stroke="#000000" d="M33.0475,-458.902C6.7217,-449.3126 19.3764,-398.9483 43,-373 100.55,-309.7869 368.45,-400.2131 426,-337 454.8731,-305.2857 468.8889,-240.5 426,-240.5"/>
<polygon fill="#000000" stroke="#000000" points="33.1265,-458.9146 42.2866,-464.9431 38.0632,-459.7073 43,-460.5 43,-460.5 43,-460.5 38.0632,-459.7073 43.7134,-456.0569 33.1265,-458.9146 33.1265,-458.9146"/>
</g>
</g>
</svg>
