<?xml version="1.0" encoding="UTF-8" standalone="no"?>
<!DOCTYPE svg PUBLIC "-//W3C//DTD SVG 1.1//EN"
 "http://www.w3.org/Graphics/SVG/1.1/DTD/svg11.dtd">
<!-- Generated by graphviz version 2.40.1 (20161225.0304)
 -->
<!-- Title: public.user Pages: 1 -->
<svg width="1737pt" height="622pt"
 viewBox="0.00 0.00 1737.00 622.00" xmlns="http://www.w3.org/2000/svg" xmlns:xlink="http://www.w3.org/1999/xlink">
<g id="graph0" class="graph" transform="scale(1 1) rotate(0) translate(4 618)">
<title>public.user</title>
<polygon fill="#ffffff" stroke="transparent" points="-4,4 -4,-618 1733,-618 1733,4 -4,4"/>
<!-- public.user -->
<g id="node1" class="node">
<title>public.user</title>
<polygon fill="#efefef" stroke="transparent" points="725.5,-225.5 725.5,-260.5 998.5,-260.5 998.5,-225.5 725.5,-225.5"/>
<polygon fill="none" stroke="#000000" points="725.5,-225.5 725.5,-260.5 998.5,-260.5 998.5,-225.5 725.5,-225.5"/>
<text text-anchor="start" x="754.7091" y="-238.3" font-family="Arial Bold" font-size="18.00" fill="#000000">public.user</text>
<text text-anchor="start" x="841.7229" y="-238.3" font-family="Arial" font-size="14.00" fill="#000000">    </text>
<text text-anchor="start" x="875.9277" y="-238.3" font-family="Arial" font-size="14.00" fill="#666666">[BASE TABLE]</text>
<polygon fill="none" stroke="#000000" points="725.5,-195.5 725.5,-225.5 998.5,-225.5 998.5,-195.5 725.5,-195.5"/>
<text text-anchor="start" x="732.5" y="-206.9" font-family="Arial" font-size="14.00" fill="#000000">user_id </text>
<text text-anchor="start" x="782.2882" y="-206.9" font-family="Arial" font-size="14.00" fill="#666666">[bigint]</text>
<polygon fill="none" stroke="#000000" points="725.5,-165.5 725.5,-195.5 998.5,-195.5 998.5,-165.5 725.5,-165.5"/>
<text text-anchor="start" x="732.5" y="-176.9" font-family="Arial" font-size="14.00" fill="#000000">email </text>
<text text-anchor="start" x="769.8296" y="-176.9" font-family="Arial" font-size="14.00" fill="#666666">[varchar(255)]</text>
<polygon fill="none" stroke="#000000" points="725.5,-135.5 725.5,-165.5 998.5,-165.5 998.5,-135.5 725.5,-135.5"/>
<text text-anchor="start" x="732.5" y="-146.9" font-family="Arial" font-size="14.00" fill="#000000">jwt_subject </text>
<text text-anchor="start" x="805.622" y="-146.9" font-family="Arial" font-size="14.00" fill="#666666">[varchar(255)]</text>
<polygon fill="none" stroke="#000000" points="725.5,-105.5 725.5,-135.5 998.5,-135.5 998.5,-105.5 725.5,-105.5"/>
<text text-anchor="start" x="732.5" y="-116.9" font-family="Arial" font-size="14.00" fill="#000000">created_at </text>
<text text-anchor="start" x="802.528" y="-116.9" font-family="Arial" font-size="14.00" fill="#666666">[timestamp without time zone]</text>
<polygon fill="none" stroke="#000000" points="725.5,-75.5 725.5,-105.5 998.5,-105.5 998.5,-75.5 725.5,-75.5"/>
<text text-anchor="start" x="732.4636" y="-86.9" font-family="Arial" font-size="14.00" fill="#000000">updated_at </text>
<text text-anchor="start" x="806.3962" y="-86.9" font-family="Arial" font-size="14.00" fill="#666666">[timestamp without time zone]</text>
<polygon fill="none" stroke="#000000" points="725.5,-45.5 725.5,-75.5 998.5,-75.5 998.5,-45.5 725.5,-45.5"/>
<text text-anchor="start" x="732.5" y="-56.9" font-family="Arial" font-size="14.00" fill="#000000">is_deleted </text>
<text text-anchor="start" x="800.19" y="-56.9" font-family="Arial" font-size="14.00" fill="#666666">[boolean]</text>
<polygon fill="none" stroke="#000000" stroke-width="3" points="723.5,-44.5 723.5,-262.5 999.5,-262.5 999.5,-44.5 723.5,-44.5"/>
</g>
<!-- public.user_auth -->
<g id="node2" class="node">
<title>public.user_auth</title>
<polygon fill="#efefef" stroke="transparent" points="43.5,-535.5 43.5,-570.5 346.5,-570.5 346.5,-535.5 43.5,-535.5"/>
<polygon fill="none" stroke="#000000" points="43.5,-535.5 43.5,-570.5 346.5,-570.5 346.5,-535.5 43.5,-535.5"/>
<text text-anchor="start" x="65.1956" y="-548.3" font-family="Arial Bold" font-size="18.00" fill="#000000">public.user_auth</text>
<text text-anchor="start" x="197.2364" y="-548.3" font-family="Arial" font-size="14.00" fill="#000000">    </text>
<text text-anchor="start" x="231.4412" y="-548.3" font-family="Arial" font-size="14.00" fill="#666666">[BASE TABLE]</text>
<polygon fill="none" stroke="#000000" points="43.5,-505.5 43.5,-535.5 346.5,-535.5 346.5,-505.5 43.5,-505.5"/>
<text text-anchor="start" x="50.5" y="-516.9" font-family="Arial" font-size="14.00" fill="#000000">user_auth_id    </text>
<text text-anchor="start" x="165.6234" y="-516.9" font-family="Arial" font-size="14.00" fill="#666666">[bigint]</text>
<polygon fill="none" stroke="#000000" points="43.5,-475.5 43.5,-505.5 346.5,-505.5 346.5,-475.5 43.5,-475.5"/>
<text text-anchor="start" x="50.5" y="-486.9" font-family="Arial" font-size="14.00" fill="#000000">user_id    </text>
<text text-anchor="start" x="130.6024" y="-486.9" font-family="Arial" font-size="14.00" fill="#666666">[bigint]</text>
<polygon fill="none" stroke="#000000" points="43.5,-445.5 43.5,-475.5 346.5,-475.5 346.5,-445.5 43.5,-445.5"/>
<text text-anchor="start" x="50.5" y="-456.9" font-family="Arial" font-size="14.00" fill="#000000">password    </text>
<text text-anchor="start" x="144.6024" y="-456.9" font-family="Arial" font-size="14.00" fill="#666666">[varchar(255)]</text>
<polygon fill="none" stroke="#000000" points="43.5,-415.5 43.5,-445.5 346.5,-445.5 346.5,-415.5 43.5,-415.5"/>
<text text-anchor="start" x="50.5" y="-426.9" font-family="Arial" font-size="14.00" fill="#000000">created_at    </text>
<text text-anchor="start" x="150.8422" y="-426.9" font-family="Arial" font-size="14.00" fill="#666666">[timestamp without time zone]</text>
<polygon fill="none" stroke="#000000" points="43.5,-385.5 43.5,-415.5 346.5,-415.5 346.5,-385.5 43.5,-385.5"/>
<text text-anchor="start" x="50.3065" y="-396.9" font-family="Arial" font-size="14.00" fill="#000000">updated_at    </text>
<text text-anchor="start" x="154.5533" y="-396.9" font-family="Arial" font-size="14.00" fill="#666666">[timestamp without time zone]</text>
</g>
<!-- public.user_auth&#45;&gt;public.user -->
<g id="edge1" class="edge">
<title>public.user_auth:user_id&#45;&gt;public.user:user_id</title>
<path fill="none" stroke="#000000" d="M356.7332,-489.6512C409.1837,-480.0059 353.1187,-390.5203 398.5,-343 506.8003,-229.5949 568.689,-210.5 725.5,-210.5"/>
<polygon fill="#000000" stroke="#000000" points="356.4658,-489.6733 346.128,-486.0154 351.4829,-490.0867 346.5,-490.5 346.5,-490.5 346.5,-490.5 351.4829,-490.0867 346.872,-494.9846 356.4658,-489.6733 356.4658,-489.6733"/>
</g>
<!-- public.reset_password_token -->
<g id="node3" class="node">
<title>public.reset_password_token</title>
<polygon fill="#efefef" stroke="transparent" points="450.5,-535.5 450.5,-570.5 824.5,-570.5 824.5,-535.5 450.5,-535.5"/>
<polygon fill="none" stroke="#000000" points="450.5,-535.5 450.5,-570.5 824.5,-570.5 824.5,-535.5 450.5,-535.5"/>
<text text-anchor="start" x="457.1858" y="-548.3" font-family="Arial Bold" font-size="18.00" fill="#000000">public.reset_password_token</text>
<text text-anchor="start" x="690.2462" y="-548.3" font-family="Arial" font-size="14.00" fill="#000000">    </text>
<text text-anchor="start" x="724.451" y="-548.3" font-family="Arial" font-size="14.00" fill="#666666">[BASE TABLE]</text>
<polygon fill="none" stroke="#000000" points="450.5,-505.5 450.5,-535.5 824.5,-535.5 824.5,-505.5 450.5,-505.5"/>
<text text-anchor="start" x="457.5" y="-516.9" font-family="Arial" font-size="14.00" fill="#000000">reset_password_token_id    </text>
<text text-anchor="start" x="651.1942" y="-516.9" font-family="Arial" font-size="14.00" fill="#666666">[bigint]</text>
<polygon fill="none" stroke="#000000" points="450.5,-475.5 450.5,-505.5 824.5,-505.5 824.5,-475.5 450.5,-475.5"/>
<text text-anchor="start" x="457.5" y="-486.9" font-family="Arial" font-size="14.00" fill="#000000">user_id    </text>
<text text-anchor="start" x="537.6024" y="-486.9" font-family="Arial" font-size="14.00" fill="#666666">[bigint]</text>
<polygon fill="none" stroke="#000000" points="450.5,-445.5 450.5,-475.5 824.5,-475.5 824.5,-445.5 450.5,-445.5"/>
<text text-anchor="start" x="457.5" y="-456.9" font-family="Arial" font-size="14.00" fill="#000000">token    </text>
<text text-anchor="start" x="525.9432" y="-456.9" font-family="Arial" font-size="14.00" fill="#666666">[varchar(255)]</text>
<polygon fill="none" stroke="#000000" points="450.5,-415.5 450.5,-445.5 824.5,-445.5 824.5,-415.5 450.5,-415.5"/>
<text text-anchor="start" x="457.5" y="-426.9" font-family="Arial" font-size="14.00" fill="#000000">created_at    </text>
<text text-anchor="start" x="557.8422" y="-426.9" font-family="Arial" font-size="14.00" fill="#666666">[timestamp without time zone]</text>
<polygon fill="none" stroke="#000000" points="450.5,-385.5 450.5,-415.5 824.5,-415.5 824.5,-385.5 450.5,-385.5"/>
<text text-anchor="start" x="457.5" y="-396.9" font-family="Arial" font-size="14.00" fill="#000000">expired_at    </text>
<text text-anchor="start" x="557.0582" y="-396.9" font-family="Arial" font-size="14.00" fill="#666666">[timestamp without time zone]</text>
</g>
<!-- public.reset_password_token&#45;&gt;public.user -->
<g id="edge2" class="edge">
<title>public.reset_password_token:user_id&#45;&gt;public.user:user_id</title>
<path fill="none" stroke="#000000" d="M834.7546,-489.6215C886.8587,-480.0023 859.9788,-393.6531 824.5,-343 797.6402,-304.6522 752.3598,-345.3478 725.5,-307 700.8948,-271.8711 682.6111,-210.5 725.5,-210.5"/>
<polygon fill="#000000" stroke="#000000" points="834.4635,-489.6464 824.1159,-486.0164 829.4818,-490.0732 824.5,-490.5 824.5,-490.5 824.5,-490.5 829.4818,-490.0732 824.8841,-494.9836 834.4635,-489.6464 834.4635,-489.6464"/>
</g>
<!-- public.jwt_token_code -->
<g id="node4" class="node">
<title>public.jwt_token_code</title>
<polygon fill="#efefef" stroke="transparent" points="928.5,-535.5 928.5,-570.5 1246.5,-570.5 1246.5,-535.5 928.5,-535.5"/>
<polygon fill="none" stroke="#000000" points="928.5,-535.5 928.5,-570.5 1246.5,-570.5 1246.5,-535.5 928.5,-535.5"/>
<text text-anchor="start" x="935.1902" y="-548.3" font-family="Arial Bold" font-size="18.00" fill="#000000">public.jwt_token_code</text>
<text text-anchor="start" x="1112.2418" y="-548.3" font-family="Arial" font-size="14.00" fill="#000000">    </text>
<text text-anchor="start" x="1146.4466" y="-548.3" font-family="Arial" font-size="14.00" fill="#666666">[BASE TABLE]</text>
<polygon fill="none" stroke="#000000" points="928.5,-505.5 928.5,-535.5 1246.5,-535.5 1246.5,-505.5 928.5,-505.5"/>
<text text-anchor="start" x="935.5" y="-516.9" font-family="Arial" font-size="14.00" fill="#000000">jwt_token_code_id    </text>
<text text-anchor="start" x="1085.6318" y="-516.9" font-family="Arial" font-size="14.00" fill="#666666">[bigint]</text>
<polygon fill="none" stroke="#000000" points="928.5,-475.5 928.5,-505.5 1246.5,-505.5 1246.5,-475.5 928.5,-475.5"/>
<text text-anchor="start" x="935.5" y="-486.9" font-family="Arial" font-size="14.00" fill="#000000">user_id    </text>
<text text-anchor="start" x="1015.6024" y="-486.9" font-family="Arial" font-size="14.00" fill="#666666">[bigint]</text>
<polygon fill="none" stroke="#000000" points="928.5,-445.5 928.5,-475.5 1246.5,-475.5 1246.5,-445.5 928.5,-445.5"/>
<text text-anchor="start" x="935.5" y="-456.9" font-family="Arial" font-size="14.00" fill="#000000">code    </text>
<text text-anchor="start" x="1000.0526" y="-456.9" font-family="Arial" font-size="14.00" fill="#666666">[varchar(255)]</text>
<polygon fill="none" stroke="#000000" points="928.5,-415.5 928.5,-445.5 1246.5,-445.5 1246.5,-415.5 928.5,-415.5"/>
<text text-anchor="start" x="935.5" y="-426.9" font-family="Arial" font-size="14.00" fill="#000000">created_at    </text>
<text text-anchor="start" x="1035.8422" y="-426.9" font-family="Arial" font-size="14.00" fill="#666666">[timestamp without time zone]</text>
<polygon fill="none" stroke="#000000" points="928.5,-385.5 928.5,-415.5 1246.5,-415.5 1246.5,-385.5 928.5,-385.5"/>
<text text-anchor="start" x="935.5" y="-396.9" font-family="Arial" font-size="14.00" fill="#000000">expired_at    </text>
<text text-anchor="start" x="1035.0582" y="-396.9" font-family="Arial" font-size="14.00" fill="#666666">[timestamp without time zone]</text>
</g>
<!-- public.jwt_token_code&#45;&gt;public.user -->
<g id="edge3" class="edge">
<title>public.jwt_token_code:user_id&#45;&gt;public.user:user_id</title>
<path fill="none" stroke="#000000" d="M918.2768,-489.6421C866.5112,-480.2444 896.2869,-395.7902 928.5,-343 946.723,-313.1366 980.277,-336.8634 998.5,-307 1020.8404,-270.389 1041.3889,-210.5 998.5,-210.5"/>
<polygon fill="#000000" stroke="#000000" points="918.535,-489.6637 928.1236,-494.9842 923.5175,-490.0818 928.5,-490.5 928.5,-490.5 928.5,-490.5 923.5175,-490.0818 928.8764,-486.0158 918.535,-489.6637 918.535,-489.6637"/>
</g>
<!-- public.jwt_refresh_token -->
<g id="node5" class="node">
<title>public.jwt_refresh_token</title>
<polygon fill="#efefef" stroke="transparent" points="1351.5,-535.5 1351.5,-570.5 1686.5,-570.5 1686.5,-535.5 1351.5,-535.5"/>
<polygon fill="none" stroke="#000000" points="1351.5,-535.5 1351.5,-570.5 1686.5,-570.5 1686.5,-535.5 1351.5,-535.5"/>
<text text-anchor="start" x="1358.1969" y="-548.3" font-family="Arial Bold" font-size="18.00" fill="#000000">public.jwt_refresh_token</text>
<text text-anchor="start" x="1552.2351" y="-548.3" font-family="Arial" font-size="14.00" fill="#000000">    </text>
<text text-anchor="start" x="1586.4399" y="-548.3" font-family="Arial" font-size="14.00" fill="#666666">[BASE TABLE]</text>
<polygon fill="none" stroke="#000000" points="1351.5,-505.5 1351.5,-535.5 1686.5,-535.5 1686.5,-505.5 1351.5,-505.5"/>
<text text-anchor="start" x="1358.5" y="-516.9" font-family="Arial" font-size="14.00" fill="#000000">jwt_refresh_token_id    </text>
<text text-anchor="start" x="1521.8436" y="-516.9" font-family="Arial" font-size="14.00" fill="#666666">[bigint]</text>
<polygon fill="none" stroke="#000000" points="1351.5,-475.5 1351.5,-505.5 1686.5,-505.5 1686.5,-475.5 1351.5,-475.5"/>
<text text-anchor="start" x="1358.5" y="-486.9" font-family="Arial" font-size="14.00" fill="#000000">user_id    </text>
<text text-anchor="start" x="1438.6024" y="-486.9" font-family="Arial" font-size="14.00" fill="#666666">[bigint]</text>
<polygon fill="none" stroke="#000000" points="1351.5,-445.5 1351.5,-475.5 1686.5,-475.5 1686.5,-445.5 1351.5,-445.5"/>
<text text-anchor="start" x="1358.5" y="-456.9" font-family="Arial" font-size="14.00" fill="#000000">token    </text>
<text text-anchor="start" x="1426.9432" y="-456.9" font-family="Arial" font-size="14.00" fill="#666666">[varchar(255)]</text>
<polygon fill="none" stroke="#000000" points="1351.5,-415.5 1351.5,-445.5 1686.5,-445.5 1686.5,-415.5 1351.5,-415.5"/>
<text text-anchor="start" x="1358.5" y="-426.9" font-family="Arial" font-size="14.00" fill="#000000">created_at    </text>
<text text-anchor="start" x="1458.8422" y="-426.9" font-family="Arial" font-size="14.00" fill="#666666">[timestamp without time zone]</text>
<polygon fill="none" stroke="#000000" points="1351.5,-385.5 1351.5,-415.5 1686.5,-415.5 1686.5,-385.5 1351.5,-385.5"/>
<text text-anchor="start" x="1358.5" y="-396.9" font-family="Arial" font-size="14.00" fill="#000000">expired_at    </text>
<text text-anchor="start" x="1458.0582" y="-396.9" font-family="Arial" font-size="14.00" fill="#666666">[timestamp without time zone]</text>
</g>
<!-- public.jwt_refresh_token&#45;&gt;public.user -->
<g id="edge4" class="edge">
<title>public.jwt_refresh_token:user_id&#45;&gt;public.user:user_id</title>
<path fill="none" stroke="#000000" d="M1341.2319,-489.6572C1288.5221,-480.0785 1343.382,-391.1848 1298.5,-343 1199.1531,-236.3423 1144.259,-210.5 998.5,-210.5"/>
<polygon fill="#000000" stroke="#000000" points="1341.5335,-489.6818 1351.1318,-494.9849 1346.5168,-490.0909 1351.5,-490.5 1351.5,-490.5 1351.5,-490.5 1346.5168,-490.0909 1351.8682,-486.0151 1341.5335,-489.6818 1341.5335,-489.6818"/>
</g>
</g>
</svg>
