<?xml version="1.0" encoding="UTF-8" standalone="no"?>
<!DOCTYPE svg PUBLIC "-//W3C//DTD SVG 1.1//EN"
 "http://www.w3.org/Graphics/SVG/1.1/DTD/svg11.dtd">
<!-- Generated by graphviz version 2.40.1 (20161225.0304)
 -->
<!-- Title: public.jwt_token_code Pages: 1 -->
<svg width="418pt" height="622pt"
 viewBox="0.00 0.00 418.00 622.00" xmlns="http://www.w3.org/2000/svg" xmlns:xlink="http://www.w3.org/1999/xlink">
<g id="graph0" class="graph" transform="scale(1 1) rotate(0) translate(4 618)">
<title>public.jwt_token_code</title>
<polygon fill="#ffffff" stroke="transparent" points="-4,4 -4,-618 414,-618 414,4 -4,4"/>
<!-- public.jwt_token_code -->
<g id="node1" class="node">
<title>public.jwt_token_code</title>
<polygon fill="#efefef" stroke="transparent" points="46,-532.5 46,-567.5 364,-567.5 364,-532.5 46,-532.5"/>
<polygon fill="none" stroke="#000000" points="46,-532.5 46,-567.5 364,-567.5 364,-532.5 46,-532.5"/>
<text text-anchor="start" x="52.6902" y="-545.3" font-family="Arial Bold" font-size="18.00" fill="#000000">public.jwt_token_code</text>
<text text-anchor="start" x="229.7418" y="-545.3" font-family="Arial" font-size="14.00" fill="#000000">    </text>
<text text-anchor="start" x="263.9466" y="-545.3" font-family="Arial" font-size="14.00" fill="#666666">[BASE TABLE]</text>
<polygon fill="none" stroke="#000000" points="46,-502.5 46,-532.5 364,-532.5 364,-502.5 46,-502.5"/>
<text text-anchor="start" x="53" y="-513.9" font-family="Arial" font-size="14.00" fill="#000000">jwt_token_code_id </text>
<text text-anchor="start" x="172.8176" y="-513.9" font-family="Arial" font-size="14.00" fill="#666666">[bigint]</text>
<polygon fill="none" stroke="#000000" points="46,-472.5 46,-502.5 364,-502.5 364,-472.5 46,-472.5"/>
<text text-anchor="start" x="53" y="-483.9" font-family="Arial" font-size="14.00" fill="#000000">user_id </text>
<text text-anchor="start" x="102.7882" y="-483.9" font-family="Arial" font-size="14.00" fill="#666666">[bigint]</text>
<polygon fill="none" stroke="#000000" points="46,-442.5 46,-472.5 364,-472.5 364,-442.5 46,-442.5"/>
<text text-anchor="start" x="53" y="-453.9" font-family="Arial" font-size="14.00" fill="#000000">code </text>
<text text-anchor="start" x="87.2384" y="-453.9" font-family="Arial" font-size="14.00" fill="#666666">[varchar(255)]</text>
<polygon fill="none" stroke="#000000" points="46,-412.5 46,-442.5 364,-442.5 364,-412.5 46,-412.5"/>
<text text-anchor="start" x="53" y="-423.9" font-family="Arial" font-size="14.00" fill="#000000">created_at </text>
<text text-anchor="start" x="123.028" y="-423.9" font-family="Arial" font-size="14.00" fill="#666666">[timestamp without time zone]</text>
<polygon fill="none" stroke="#000000" points="46,-382.5 46,-412.5 364,-412.5 364,-382.5 46,-382.5"/>
<text text-anchor="start" x="53" y="-393.9" font-family="Arial" font-size="14.00" fill="#000000">expired_at </text>
<text text-anchor="start" x="122.244" y="-393.9" font-family="Arial" font-size="14.00" fill="#666666">[timestamp without time zone]</text>
<polygon fill="none" stroke="#000000" stroke-width="3" points="44.5,-381.5 44.5,-569.5 365.5,-569.5 365.5,-381.5 44.5,-381.5"/>
</g>
<!-- public.user -->
<g id="node2" class="node">
<title>public.user</title>
<polygon fill="#efefef" stroke="transparent" points="53,-222.5 53,-257.5 356,-257.5 356,-222.5 53,-222.5"/>
<polygon fill="none" stroke="#000000" points="53,-222.5 53,-257.5 356,-257.5 356,-222.5 53,-222.5"/>
<text text-anchor="start" x="97.2091" y="-235.3" font-family="Arial Bold" font-size="18.00" fill="#000000">public.user</text>
<text text-anchor="start" x="184.2229" y="-235.3" font-family="Arial" font-size="14.00" fill="#000000">    </text>
<text text-anchor="start" x="218.4277" y="-235.3" font-family="Arial" font-size="14.00" fill="#666666">[BASE TABLE]</text>
<polygon fill="none" stroke="#000000" points="53,-192.5 53,-222.5 356,-222.5 356,-192.5 53,-192.5"/>
<text text-anchor="start" x="60" y="-203.9" font-family="Arial" font-size="14.00" fill="#000000">user_id    </text>
<text text-anchor="start" x="140.1024" y="-203.9" font-family="Arial" font-size="14.00" fill="#666666">[bigint]</text>
<polygon fill="none" stroke="#000000" points="53,-162.5 53,-192.5 356,-192.5 356,-162.5 53,-162.5"/>
<text text-anchor="start" x="60" y="-173.9" font-family="Arial" font-size="14.00" fill="#000000">email    </text>
<text text-anchor="start" x="127.6438" y="-173.9" font-family="Arial" font-size="14.00" fill="#666666">[varchar(255)]</text>
<polygon fill="none" stroke="#000000" points="53,-132.5 53,-162.5 356,-162.5 356,-132.5 53,-132.5"/>
<text text-anchor="start" x="60" y="-143.9" font-family="Arial" font-size="14.00" fill="#000000">jwt_subject    </text>
<text text-anchor="start" x="163.4362" y="-143.9" font-family="Arial" font-size="14.00" fill="#666666">[varchar(255)]</text>
<polygon fill="none" stroke="#000000" points="53,-102.5 53,-132.5 356,-132.5 356,-102.5 53,-102.5"/>
<text text-anchor="start" x="60" y="-113.9" font-family="Arial" font-size="14.00" fill="#000000">created_at    </text>
<text text-anchor="start" x="160.3422" y="-113.9" font-family="Arial" font-size="14.00" fill="#666666">[timestamp without time zone]</text>
<polygon fill="none" stroke="#000000" points="53,-72.5 53,-102.5 356,-102.5 356,-72.5 53,-72.5"/>
<text text-anchor="start" x="59.8065" y="-83.9" font-family="Arial" font-size="14.00" fill="#000000">updated_at    </text>
<text text-anchor="start" x="164.0533" y="-83.9" font-family="Arial" font-size="14.00" fill="#666666">[timestamp without time zone]</text>
<polygon fill="none" stroke="#000000" points="53,-42.5 53,-72.5 356,-72.5 356,-42.5 53,-42.5"/>
<text text-anchor="start" x="60" y="-53.9" font-family="Arial" font-size="14.00" fill="#000000">is_deleted    </text>
<text text-anchor="start" x="158.0042" y="-53.9" font-family="Arial" font-size="14.00" fill="#666666">[boolean]</text>
</g>
<!-- public.jwt_token_code&#45;&gt;public.user -->
<g id="edge1" class="edge">
<title>public.jwt_token_code:user_id&#45;&gt;public.user:user_id</title>
<path fill="none" stroke="#000000" d="M35.8162,-486.6226C-18.3725,-476.6538 3.9468,-384.2194 46,-337 138.2482,-233.4192 263.7518,-404.5808 356,-301 383.6375,-269.9672 397.5556,-207.5 356,-207.5"/>
<polygon fill="#000000" stroke="#000000" points="36.0369,-486.6415 45.6137,-491.9834 41.0185,-487.0708 46,-487.5 46,-487.5 46,-487.5 41.0185,-487.0708 46.3863,-483.0166 36.0369,-486.6415 36.0369,-486.6415"/>
</g>
</g>
</svg>
