<?xml version="1.0" encoding="UTF-8" standalone="no"?>
<!DOCTYPE svg PUBLIC "-//W3C//DTD SVG 1.1//EN"
 "http://www.w3.org/Graphics/SVG/1.1/DTD/svg11.dtd">
<!-- Generated by graphviz version 2.40.1 (20161225.0304)
 -->
<!-- Title: public.user_auth Pages: 1 -->
<svg width="421pt" height="652pt"
 viewBox="0.00 0.00 421.00 652.00" xmlns="http://www.w3.org/2000/svg" xmlns:xlink="http://www.w3.org/1999/xlink">
<g id="graph0" class="graph" transform="scale(1 1) rotate(0) translate(4 648)">
<title>public.user_auth</title>
<polygon fill="#ffffff" stroke="transparent" points="-4,4 -4,-648 417,-648 417,4 -4,4"/>
<!-- public.user_auth -->
<g id="node1" class="node">
<title>public.user_auth</title>
<polygon fill="#efefef" stroke="transparent" points="70.5,-562.5 70.5,-597.5 343.5,-597.5 343.5,-562.5 70.5,-562.5"/>
<polygon fill="none" stroke="#000000" points="70.5,-562.5 70.5,-597.5 343.5,-597.5 343.5,-562.5 70.5,-562.5"/>
<text text-anchor="start" x="77.1956" y="-575.3" font-family="Arial Bold" font-size="18.00" fill="#000000">public.user_auth</text>
<text text-anchor="start" x="209.2364" y="-575.3" font-family="Arial" font-size="14.00" fill="#000000">    </text>
<text text-anchor="start" x="243.4412" y="-575.3" font-family="Arial" font-size="14.00" fill="#666666">[BASE TABLE]</text>
<polygon fill="none" stroke="#000000" points="70.5,-532.5 70.5,-562.5 343.5,-562.5 343.5,-532.5 70.5,-532.5"/>
<text text-anchor="start" x="77.5" y="-543.9" font-family="Arial" font-size="14.00" fill="#000000">user_auth_id </text>
<text text-anchor="start" x="162.3092" y="-543.9" font-family="Arial" font-size="14.00" fill="#666666">[bigint]</text>
<polygon fill="none" stroke="#000000" points="70.5,-502.5 70.5,-532.5 343.5,-532.5 343.5,-502.5 70.5,-502.5"/>
<text text-anchor="start" x="77.5" y="-513.9" font-family="Arial" font-size="14.00" fill="#000000">user_id </text>
<text text-anchor="start" x="127.2882" y="-513.9" font-family="Arial" font-size="14.00" fill="#666666">[bigint]</text>
<polygon fill="none" stroke="#000000" points="70.5,-472.5 70.5,-502.5 343.5,-502.5 343.5,-472.5 70.5,-472.5"/>
<text text-anchor="start" x="77.5" y="-483.9" font-family="Arial" font-size="14.00" fill="#000000">password </text>
<text text-anchor="start" x="141.2882" y="-483.9" font-family="Arial" font-size="14.00" fill="#666666">[varchar(255)]</text>
<polygon fill="none" stroke="#000000" points="70.5,-442.5 70.5,-472.5 343.5,-472.5 343.5,-442.5 70.5,-442.5"/>
<text text-anchor="start" x="77.5" y="-453.9" font-family="Arial" font-size="14.00" fill="#000000">created_at </text>
<text text-anchor="start" x="147.528" y="-453.9" font-family="Arial" font-size="14.00" fill="#666666">[timestamp without time zone]</text>
<polygon fill="none" stroke="#000000" points="70.5,-412.5 70.5,-442.5 343.5,-442.5 343.5,-412.5 70.5,-412.5"/>
<text text-anchor="start" x="77.4636" y="-423.9" font-family="Arial" font-size="14.00" fill="#000000">updated_at </text>
<text text-anchor="start" x="151.3962" y="-423.9" font-family="Arial" font-size="14.00" fill="#666666">[timestamp without time zone]</text>
<polygon fill="none" stroke="#000000" stroke-width="3" points="68.5,-411.5 68.5,-599.5 344.5,-599.5 344.5,-411.5 68.5,-411.5"/>
</g>
<!-- public.user -->
<g id="node2" class="node">
<title>public.user</title>
<polygon fill="#efefef" stroke="transparent" points="43.5,-252.5 43.5,-287.5 370.5,-287.5 370.5,-252.5 43.5,-252.5"/>
<polygon fill="none" stroke="#000000" points="43.5,-252.5 43.5,-287.5 370.5,-287.5 370.5,-252.5 43.5,-252.5"/>
<text text-anchor="start" x="99.7091" y="-265.3" font-family="Arial Bold" font-size="18.00" fill="#000000">public.user</text>
<text text-anchor="start" x="186.7229" y="-265.3" font-family="Arial" font-size="14.00" fill="#000000">    </text>
<text text-anchor="start" x="220.9277" y="-265.3" font-family="Arial" font-size="14.00" fill="#666666">[BASE TABLE]</text>
<polygon fill="none" stroke="#000000" points="43.5,-222.5 43.5,-252.5 370.5,-252.5 370.5,-222.5 43.5,-222.5"/>
<text text-anchor="start" x="50.5" y="-233.9" font-family="Arial" font-size="14.00" fill="#000000">user_id    </text>
<text text-anchor="start" x="130.6024" y="-233.9" font-family="Arial" font-size="14.00" fill="#666666">[bigint]</text>
<polygon fill="none" stroke="#000000" points="43.5,-192.5 43.5,-222.5 370.5,-222.5 370.5,-192.5 43.5,-192.5"/>
<text text-anchor="start" x="50.5" y="-203.9" font-family="Arial" font-size="14.00" fill="#000000">email    </text>
<text text-anchor="start" x="118.1438" y="-203.9" font-family="Arial" font-size="14.00" fill="#666666">[varchar(255)]</text>
<polygon fill="none" stroke="#000000" points="43.5,-162.5 43.5,-192.5 370.5,-192.5 370.5,-162.5 43.5,-162.5"/>
<text text-anchor="start" x="50.5" y="-173.9" font-family="Arial" font-size="14.00" fill="#000000">jwt_subject    </text>
<text text-anchor="start" x="153.9362" y="-173.9" font-family="Arial" font-size="14.00" fill="#666666">[varchar(255)]</text>
<polygon fill="none" stroke="#000000" points="43.5,-132.5 43.5,-162.5 370.5,-162.5 370.5,-132.5 43.5,-132.5"/>
<text text-anchor="start" x="50.5" y="-143.9" font-family="Arial" font-size="14.00" fill="#000000">created_at    </text>
<text text-anchor="start" x="150.8422" y="-143.9" font-family="Arial" font-size="14.00" fill="#666666">[timestamp without time zone]</text>
<polygon fill="none" stroke="#000000" points="43.5,-102.5 43.5,-132.5 370.5,-132.5 370.5,-102.5 43.5,-102.5"/>
<text text-anchor="start" x="50.5" y="-113.9" font-family="Arial" font-size="14.00" fill="#000000">updated_at    </text>
<text text-anchor="start" x="154.7468" y="-113.9" font-family="Arial" font-size="14.00" fill="#666666">[timestamp without time zone]</text>
<polygon fill="none" stroke="#000000" points="43.5,-72.5 43.5,-102.5 370.5,-102.5 370.5,-72.5 43.5,-72.5"/>
<text text-anchor="start" x="50.2553" y="-83.9" font-family="Arial" font-size="14.00" fill="#000000">last_logined_at    </text>
<text text-anchor="start" x="178.6045" y="-83.9" font-family="Arial" font-size="14.00" fill="#666666">[timestamp without time zone]</text>
<polygon fill="none" stroke="#000000" points="43.5,-42.5 43.5,-72.5 370.5,-72.5 370.5,-42.5 43.5,-42.5"/>
<text text-anchor="start" x="50.5" y="-53.9" font-family="Arial" font-size="14.00" fill="#000000">is_deleted    </text>
<text text-anchor="start" x="148.5042" y="-53.9" font-family="Arial" font-size="14.00" fill="#666666">[boolean]</text>
</g>
<!-- public.user_auth&#45;&gt;public.user -->
<g id="edge1" class="edge">
<title>public.user_auth:user_id&#45;&gt;public.user:user_id</title>
<path fill="none" stroke="#000000" d="M60.5718,-515.0794C5.3037,-487.7124 -15.5923,-237.5 43.5,-237.5"/>
<polygon fill="#000000" stroke="#000000" points="60.7846,-515.1312 69.434,-521.8719 65.6423,-516.3156 70.5,-517.5 70.5,-517.5 70.5,-517.5 65.6423,-516.3156 71.566,-513.1281 60.7846,-515.1312 60.7846,-515.1312"/>
</g>
</g>
</svg>
