<?xml version="1.0" encoding="UTF-8" standalone="no"?>
<!DOCTYPE svg PUBLIC "-//W3C//DTD SVG 1.1//EN"
 "http://www.w3.org/Graphics/SVG/1.1/DTD/svg11.dtd">
<!-- Generated by graphviz version 2.40.1 (20161225.0304)
 -->
<!-- Title: public.client_application_allow_origin Pages: 1 -->
<svg width="536pt" height="592pt"
 viewBox="0.00 0.00 536.00 592.00" xmlns="http://www.w3.org/2000/svg" xmlns:xlink="http://www.w3.org/1999/xlink">
<g id="graph0" class="graph" transform="scale(1 1) rotate(0) translate(4 588)">
<title>public.client_application_allow_origin</title>
<polygon fill="#ffffff" stroke="transparent" points="-4,4 -4,-588 532,-588 532,4 -4,4"/>
<!-- public.client_application_allow_origin -->
<g id="node1" class="node">
<title>public.client_application_allow_origin</title>
<polygon fill="#efefef" stroke="transparent" points="46,-502.5 46,-537.5 482,-537.5 482,-502.5 46,-502.5"/>
<polygon fill="none" stroke="#000000" points="46,-502.5 46,-537.5 482,-537.5 482,-502.5 46,-502.5"/>
<text text-anchor="start" x="52.6925" y="-515.3" font-family="Arial Bold" font-size="18.00" fill="#000000">public.client_application_allow_origin</text>
<text text-anchor="start" x="347.7395" y="-515.3" font-family="Arial" font-size="14.00" fill="#000000">    </text>
<text text-anchor="start" x="381.9443" y="-515.3" font-family="Arial" font-size="14.00" fill="#666666">[BASE TABLE]</text>
<polygon fill="none" stroke="#000000" points="46,-472.5 46,-502.5 482,-502.5 482,-472.5 46,-472.5"/>
<text text-anchor="start" x="53" y="-483.9" font-family="Arial" font-size="14.00" fill="#000000">client_application_allow_origin_id </text>
<text text-anchor="start" x="264.5918" y="-483.9" font-family="Arial" font-size="14.00" fill="#666666">[bigint]</text>
<polygon fill="none" stroke="#000000" points="46,-442.5 46,-472.5 482,-472.5 482,-442.5 46,-442.5"/>
<text text-anchor="start" x="53" y="-453.9" font-family="Arial" font-size="14.00" fill="#000000">client_application_id </text>
<text text-anchor="start" x="182.92" y="-453.9" font-family="Arial" font-size="14.00" fill="#666666">[bigint]</text>
<polygon fill="none" stroke="#000000" points="46,-412.5 46,-442.5 482,-442.5 482,-412.5 46,-412.5"/>
<text text-anchor="start" x="53" y="-423.9" font-family="Arial" font-size="14.00" fill="#000000">allow_origin </text>
<text text-anchor="start" x="130.7798" y="-423.9" font-family="Arial" font-size="14.00" fill="#666666">[varchar(255)]</text>
<polygon fill="none" stroke="#000000" stroke-width="3" points="44.5,-411.5 44.5,-539.5 483.5,-539.5 483.5,-411.5 44.5,-411.5"/>
</g>
<!-- public.client_application -->
<g id="node2" class="node">
<title>public.client_application</title>
<polygon fill="#efefef" stroke="transparent" points="98,-252.5 98,-287.5 429,-287.5 429,-252.5 98,-252.5"/>
<polygon fill="none" stroke="#000000" points="98,-252.5 98,-287.5 429,-287.5 429,-252.5 98,-252.5"/>
<text text-anchor="start" x="104.6958" y="-265.3" font-family="Arial Bold" font-size="18.00" fill="#000000">public.client_application</text>
<text text-anchor="start" x="294.7362" y="-265.3" font-family="Arial" font-size="14.00" fill="#000000">    </text>
<text text-anchor="start" x="328.941" y="-265.3" font-family="Arial" font-size="14.00" fill="#666666">[BASE TABLE]</text>
<polygon fill="none" stroke="#000000" points="98,-222.5 98,-252.5 429,-252.5 429,-222.5 98,-222.5"/>
<text text-anchor="start" x="105" y="-233.9" font-family="Arial" font-size="14.00" fill="#000000">client_application_id    </text>
<text text-anchor="start" x="265.2342" y="-233.9" font-family="Arial" font-size="14.00" fill="#666666">[bigint]</text>
<polygon fill="none" stroke="#000000" points="98,-192.5 98,-222.5 429,-222.5 429,-192.5 98,-192.5"/>
<text text-anchor="start" x="105" y="-203.9" font-family="Arial" font-size="14.00" fill="#000000">name    </text>
<text text-anchor="start" x="174.2132" y="-203.9" font-family="Arial" font-size="14.00" fill="#666666">[varchar(255)]</text>
<polygon fill="none" stroke="#000000" points="98,-162.5 98,-192.5 429,-192.5 429,-162.5 98,-162.5"/>
<text text-anchor="start" x="105" y="-173.9" font-family="Arial" font-size="14.00" fill="#000000">client_id    </text>
<text text-anchor="start" x="190.5456" y="-173.9" font-family="Arial" font-size="14.00" fill="#666666">[varchar(255)]</text>
<polygon fill="none" stroke="#000000" points="98,-132.5 98,-162.5 429,-162.5 429,-132.5 98,-132.5"/>
<text text-anchor="start" x="105" y="-143.9" font-family="Arial" font-size="14.00" fill="#000000">client_secret    </text>
<text text-anchor="start" x="217.7728" y="-143.9" font-family="Arial" font-size="14.00" fill="#666666">[varchar(255)]</text>
<polygon fill="none" stroke="#000000" points="98,-102.5 98,-132.5 429,-132.5 429,-102.5 98,-102.5"/>
<text text-anchor="start" x="105" y="-113.9" font-family="Arial" font-size="14.00" fill="#000000">redirect_uri    </text>
<text text-anchor="start" x="209.2034" y="-113.9" font-family="Arial" font-size="14.00" fill="#666666">[varchar(255)]</text>
<polygon fill="none" stroke="#000000" points="98,-72.5 98,-102.5 429,-102.5 429,-72.5 98,-72.5"/>
<text text-anchor="start" x="105" y="-83.9" font-family="Arial" font-size="14.00" fill="#000000">created_at    </text>
<text text-anchor="start" x="205.3422" y="-83.9" font-family="Arial" font-size="14.00" fill="#666666">[timestamp without time zone]</text>
<polygon fill="none" stroke="#000000" points="98,-42.5 98,-72.5 429,-72.5 429,-42.5 98,-42.5"/>
<text text-anchor="start" x="105" y="-53.9" font-family="Arial" font-size="14.00" fill="#000000">updated_at    </text>
<text text-anchor="start" x="209.2468" y="-53.9" font-family="Arial" font-size="14.00" fill="#666666">[timestamp without time zone]</text>
</g>
<!-- public.client_application_allow_origin&#45;&gt;public.client_application -->
<g id="edge1" class="edge">
<title>public.client_application_allow_origin:client_application_id&#45;&gt;public.client_application:client_application_id</title>
<path fill="none" stroke="#000000" d="M36.0621,-455.9736C8.3648,-446.3806 21.4606,-393.9541 46,-367 103.55,-303.7869 371.45,-394.2131 429,-331 456.9755,-300.2716 470.5556,-237.5 429,-237.5"/>
<polygon fill="#000000" stroke="#000000" points="36.1159,-455.9818 45.3168,-461.9478 41.058,-456.7409 46,-457.5 46,-457.5 46,-457.5 41.058,-456.7409 46.6832,-453.0522 36.1159,-455.9818 36.1159,-455.9818"/>
</g>
</g>
</svg>
