<?xml version="1.0" encoding="UTF-8" standalone="no"?>
<!DOCTYPE svg PUBLIC "-//W3C//DTD SVG 1.1//EN"
 "http://www.w3.org/Graphics/SVG/1.1/DTD/svg11.dtd">
<!-- Generated by graphviz version 2.40.1 (20161225.0304)
 -->
<!-- Title: public.user_auth Pages: 1 -->
<svg width="405pt" height="682pt"
 viewBox="0.00 0.00 405.00 682.00" xmlns="http://www.w3.org/2000/svg" xmlns:xlink="http://www.w3.org/1999/xlink">
<g id="graph0" class="graph" transform="scale(1 1) rotate(0) translate(4 678)">
<title>public.user_auth</title>
<polygon fill="#ffffff" stroke="transparent" points="-4,4 -4,-678 401,-678 401,4 -4,4"/>
<!-- public.user_auth -->
<g id="node1" class="node">
<title>public.user_auth</title>
<polygon fill="#efefef" stroke="transparent" points="62.5,-592.5 62.5,-627.5 335.5,-627.5 335.5,-592.5 62.5,-592.5"/>
<polygon fill="none" stroke="#000000" points="62.5,-592.5 62.5,-627.5 335.5,-627.5 335.5,-592.5 62.5,-592.5"/>
<text text-anchor="start" x="69.1956" y="-605.3" font-family="Arial Bold" font-size="18.00" fill="#000000">public.user_auth</text>
<text text-anchor="start" x="201.2364" y="-605.3" font-family="Arial" font-size="14.00" fill="#000000">    </text>
<text text-anchor="start" x="235.4412" y="-605.3" font-family="Arial" font-size="14.00" fill="#666666">[BASE TABLE]</text>
<polygon fill="none" stroke="#000000" points="62.5,-562.5 62.5,-592.5 335.5,-592.5 335.5,-562.5 62.5,-562.5"/>
<text text-anchor="start" x="69.5" y="-573.9" font-family="Arial" font-size="14.00" fill="#000000">user_auth_id </text>
<text text-anchor="start" x="154.3092" y="-573.9" font-family="Arial" font-size="14.00" fill="#666666">[bigint]</text>
<polygon fill="none" stroke="#000000" points="62.5,-532.5 62.5,-562.5 335.5,-562.5 335.5,-532.5 62.5,-532.5"/>
<text text-anchor="start" x="69.5" y="-543.9" font-family="Arial" font-size="14.00" fill="#000000">user_id </text>
<text text-anchor="start" x="119.2882" y="-543.9" font-family="Arial" font-size="14.00" fill="#666666">[bigint]</text>
<polygon fill="none" stroke="#000000" points="62.5,-502.5 62.5,-532.5 335.5,-532.5 335.5,-502.5 62.5,-502.5"/>
<text text-anchor="start" x="69.5" y="-513.9" font-family="Arial" font-size="14.00" fill="#000000">password </text>
<text text-anchor="start" x="133.2882" y="-513.9" font-family="Arial" font-size="14.00" fill="#666666">[varchar(255)]</text>
<polygon fill="none" stroke="#000000" points="62.5,-472.5 62.5,-502.5 335.5,-502.5 335.5,-472.5 62.5,-472.5"/>
<text text-anchor="start" x="69.5" y="-483.9" font-family="Arial" font-size="14.00" fill="#000000">created_at </text>
<text text-anchor="start" x="139.528" y="-483.9" font-family="Arial" font-size="14.00" fill="#666666">[timestamp without time zone]</text>
<polygon fill="none" stroke="#000000" points="62.5,-442.5 62.5,-472.5 335.5,-472.5 335.5,-442.5 62.5,-442.5"/>
<text text-anchor="start" x="69.4636" y="-453.9" font-family="Arial" font-size="14.00" fill="#000000">updated_at </text>
<text text-anchor="start" x="143.3962" y="-453.9" font-family="Arial" font-size="14.00" fill="#666666">[timestamp without time zone]</text>
<polygon fill="none" stroke="#000000" stroke-width="3" points="60.5,-441.5 60.5,-629.5 336.5,-629.5 336.5,-441.5 60.5,-441.5"/>
</g>
<!-- public.user -->
<g id="node2" class="node">
<title>public.user</title>
<polygon fill="#efefef" stroke="transparent" points="43.5,-282.5 43.5,-317.5 354.5,-317.5 354.5,-282.5 43.5,-282.5"/>
<polygon fill="none" stroke="#000000" points="43.5,-282.5 43.5,-317.5 354.5,-317.5 354.5,-282.5 43.5,-282.5"/>
<text text-anchor="start" x="91.7091" y="-295.3" font-family="Arial Bold" font-size="18.00" fill="#000000">public.user</text>
<text text-anchor="start" x="178.7229" y="-295.3" font-family="Arial" font-size="14.00" fill="#000000">    </text>
<text text-anchor="start" x="212.9277" y="-295.3" font-family="Arial" font-size="14.00" fill="#666666">[BASE TABLE]</text>
<polygon fill="none" stroke="#000000" points="43.5,-252.5 43.5,-282.5 354.5,-282.5 354.5,-252.5 43.5,-252.5"/>
<text text-anchor="start" x="50.5" y="-263.9" font-family="Arial" font-size="14.00" fill="#000000">user_id    </text>
<text text-anchor="start" x="130.6024" y="-263.9" font-family="Arial" font-size="14.00" fill="#666666">[bigint]</text>
<polygon fill="none" stroke="#000000" points="43.5,-222.5 43.5,-252.5 354.5,-252.5 354.5,-222.5 43.5,-222.5"/>
<text text-anchor="start" x="50.5" y="-233.9" font-family="Arial" font-size="14.00" fill="#000000">public_user_id    </text>
<text text-anchor="start" x="174.946" y="-233.9" font-family="Arial" font-size="14.00" fill="#666666">[varchar(255)]</text>
<polygon fill="none" stroke="#000000" points="43.5,-192.5 43.5,-222.5 354.5,-222.5 354.5,-192.5 43.5,-192.5"/>
<text text-anchor="start" x="50.5" y="-203.9" font-family="Arial" font-size="14.00" fill="#000000">jwt_subject    </text>
<text text-anchor="start" x="153.9362" y="-203.9" font-family="Arial" font-size="14.00" fill="#666666">[varchar(255)]</text>
<polygon fill="none" stroke="#000000" points="43.5,-162.5 43.5,-192.5 354.5,-192.5 354.5,-162.5 43.5,-162.5"/>
<text text-anchor="start" x="50.5" y="-173.9" font-family="Arial" font-size="14.00" fill="#000000">email    </text>
<text text-anchor="start" x="118.1438" y="-173.9" font-family="Arial" font-size="14.00" fill="#666666">[varchar(255)]</text>
<polygon fill="none" stroke="#000000" points="43.5,-132.5 43.5,-162.5 354.5,-162.5 354.5,-132.5 43.5,-132.5"/>
<text text-anchor="start" x="50.5" y="-143.9" font-family="Arial" font-size="14.00" fill="#000000">created_at    </text>
<text text-anchor="start" x="150.8422" y="-143.9" font-family="Arial" font-size="14.00" fill="#666666">[timestamp without time zone]</text>
<polygon fill="none" stroke="#000000" points="43.5,-102.5 43.5,-132.5 354.5,-132.5 354.5,-102.5 43.5,-102.5"/>
<text text-anchor="start" x="50.5" y="-113.9" font-family="Arial" font-size="14.00" fill="#000000">updated_at    </text>
<text text-anchor="start" x="154.7468" y="-113.9" font-family="Arial" font-size="14.00" fill="#666666">[timestamp without time zone]</text>
<polygon fill="none" stroke="#000000" points="43.5,-72.5 43.5,-102.5 354.5,-102.5 354.5,-72.5 43.5,-72.5"/>
<text text-anchor="start" x="50.0379" y="-83.9" font-family="Arial" font-size="14.00" fill="#000000">last_login_at    </text>
<text text-anchor="start" x="162.8219" y="-83.9" font-family="Arial" font-size="14.00" fill="#666666">[timestamp without time zone]</text>
<polygon fill="none" stroke="#000000" points="43.5,-42.5 43.5,-72.5 354.5,-72.5 354.5,-42.5 43.5,-42.5"/>
<text text-anchor="start" x="50.5" y="-53.9" font-family="Arial" font-size="14.00" fill="#000000">is_deleted    </text>
<text text-anchor="start" x="148.5042" y="-53.9" font-family="Arial" font-size="14.00" fill="#666666">[boolean]</text>
</g>
<!-- public.user_auth&#45;&gt;public.user -->
<g id="edge1" class="edge">
<title>public.user_auth:user_id&#45;&gt;public.user:user_id</title>
<path fill="none" stroke="#000000" d="M52.6635,-545.0794C-1.7001,-517.7124 -15.4547,-267.5 43.5,-267.5"/>
<polygon fill="#000000" stroke="#000000" points="52.7897,-545.1104 61.4247,-551.8696 57.6448,-546.3052 62.5,-547.5 62.5,-547.5 62.5,-547.5 57.6448,-546.3052 63.5753,-543.1304 52.7897,-545.1104 52.7897,-545.1104"/>
</g>
</g>
</svg>
