<?xml version="1.0" encoding="UTF-8" standalone="no"?>
<!DOCTYPE svg PUBLIC "-//W3C//DTD SVG 1.1//EN"
 "http://www.w3.org/Graphics/SVG/1.1/DTD/svg11.dtd">
<!-- Generated by graphviz version 2.40.1 (20161225.0304)
 -->
<!-- Title: public.reset_password_token Pages: 1 -->
<svg width="474pt" height="682pt"
 viewBox="0.00 0.00 474.00 682.00" xmlns="http://www.w3.org/2000/svg" xmlns:xlink="http://www.w3.org/1999/xlink">
<g id="graph0" class="graph" transform="scale(1 1) rotate(0) translate(4 678)">
<title>public.reset_password_token</title>
<polygon fill="#ffffff" stroke="transparent" points="-4,4 -4,-678 470,-678 470,4 -4,4"/>
<!-- public.reset_password_token -->
<g id="node1" class="node">
<title>public.reset_password_token</title>
<polygon fill="#efefef" stroke="transparent" points="46,-592.5 46,-627.5 420,-627.5 420,-592.5 46,-592.5"/>
<polygon fill="none" stroke="#000000" points="46,-592.5 46,-627.5 420,-627.5 420,-592.5 46,-592.5"/>
<text text-anchor="start" x="52.6858" y="-605.3" font-family="Arial Bold" font-size="18.00" fill="#000000">public.reset_password_token</text>
<text text-anchor="start" x="285.7462" y="-605.3" font-family="Arial" font-size="14.00" fill="#000000">    </text>
<text text-anchor="start" x="319.951" y="-605.3" font-family="Arial" font-size="14.00" fill="#666666">[BASE TABLE]</text>
<polygon fill="none" stroke="#000000" points="46,-562.5 46,-592.5 420,-592.5 420,-562.5 46,-562.5"/>
<text text-anchor="start" x="53" y="-573.9" font-family="Arial" font-size="14.00" fill="#000000">reset_password_token_id </text>
<text text-anchor="start" x="216.38" y="-573.9" font-family="Arial" font-size="14.00" fill="#666666">[bigint]</text>
<polygon fill="none" stroke="#000000" points="46,-532.5 46,-562.5 420,-562.5 420,-532.5 46,-532.5"/>
<text text-anchor="start" x="53" y="-543.9" font-family="Arial" font-size="14.00" fill="#000000">user_id </text>
<text text-anchor="start" x="102.7882" y="-543.9" font-family="Arial" font-size="14.00" fill="#666666">[bigint]</text>
<polygon fill="none" stroke="#000000" points="46,-502.5 46,-532.5 420,-532.5 420,-502.5 46,-502.5"/>
<text text-anchor="start" x="53" y="-513.9" font-family="Arial" font-size="14.00" fill="#000000">token </text>
<text text-anchor="start" x="91.129" y="-513.9" font-family="Arial" font-size="14.00" fill="#666666">[varchar(255)]</text>
<polygon fill="none" stroke="#000000" points="46,-472.5 46,-502.5 420,-502.5 420,-472.5 46,-472.5"/>
<text text-anchor="start" x="53" y="-483.9" font-family="Arial" font-size="14.00" fill="#000000">created_at </text>
<text text-anchor="start" x="123.028" y="-483.9" font-family="Arial" font-size="14.00" fill="#666666">[timestamp without time zone]</text>
<polygon fill="none" stroke="#000000" points="46,-442.5 46,-472.5 420,-472.5 420,-442.5 46,-442.5"/>
<text text-anchor="start" x="53" y="-453.9" font-family="Arial" font-size="14.00" fill="#000000">expired_at </text>
<text text-anchor="start" x="122.244" y="-453.9" font-family="Arial" font-size="14.00" fill="#666666">[timestamp without time zone]</text>
<polygon fill="none" stroke="#000000" stroke-width="3" points="44.5,-441.5 44.5,-629.5 421.5,-629.5 421.5,-441.5 44.5,-441.5"/>
</g>
<!-- public.user -->
<g id="node2" class="node">
<title>public.user</title>
<polygon fill="#efefef" stroke="transparent" points="77,-282.5 77,-317.5 388,-317.5 388,-282.5 77,-282.5"/>
<polygon fill="none" stroke="#000000" points="77,-282.5 77,-317.5 388,-317.5 388,-282.5 77,-282.5"/>
<text text-anchor="start" x="125.2091" y="-295.3" font-family="Arial Bold" font-size="18.00" fill="#000000">public.user</text>
<text text-anchor="start" x="212.2229" y="-295.3" font-family="Arial" font-size="14.00" fill="#000000">    </text>
<text text-anchor="start" x="246.4277" y="-295.3" font-family="Arial" font-size="14.00" fill="#666666">[BASE TABLE]</text>
<polygon fill="none" stroke="#000000" points="77,-252.5 77,-282.5 388,-282.5 388,-252.5 77,-252.5"/>
<text text-anchor="start" x="84" y="-263.9" font-family="Arial" font-size="14.00" fill="#000000">user_id    </text>
<text text-anchor="start" x="164.1024" y="-263.9" font-family="Arial" font-size="14.00" fill="#666666">[bigint]</text>
<polygon fill="none" stroke="#000000" points="77,-222.5 77,-252.5 388,-252.5 388,-222.5 77,-222.5"/>
<text text-anchor="start" x="84" y="-233.9" font-family="Arial" font-size="14.00" fill="#000000">public_user_id    </text>
<text text-anchor="start" x="208.446" y="-233.9" font-family="Arial" font-size="14.00" fill="#666666">[varchar(255)]</text>
<polygon fill="none" stroke="#000000" points="77,-192.5 77,-222.5 388,-222.5 388,-192.5 77,-192.5"/>
<text text-anchor="start" x="84" y="-203.9" font-family="Arial" font-size="14.00" fill="#000000">jwt_subject    </text>
<text text-anchor="start" x="187.4362" y="-203.9" font-family="Arial" font-size="14.00" fill="#666666">[varchar(255)]</text>
<polygon fill="none" stroke="#000000" points="77,-162.5 77,-192.5 388,-192.5 388,-162.5 77,-162.5"/>
<text text-anchor="start" x="84" y="-173.9" font-family="Arial" font-size="14.00" fill="#000000">email    </text>
<text text-anchor="start" x="151.6438" y="-173.9" font-family="Arial" font-size="14.00" fill="#666666">[varchar(255)]</text>
<polygon fill="none" stroke="#000000" points="77,-132.5 77,-162.5 388,-162.5 388,-132.5 77,-132.5"/>
<text text-anchor="start" x="84" y="-143.9" font-family="Arial" font-size="14.00" fill="#000000">created_at    </text>
<text text-anchor="start" x="184.3422" y="-143.9" font-family="Arial" font-size="14.00" fill="#666666">[timestamp without time zone]</text>
<polygon fill="none" stroke="#000000" points="77,-102.5 77,-132.5 388,-132.5 388,-102.5 77,-102.5"/>
<text text-anchor="start" x="84" y="-113.9" font-family="Arial" font-size="14.00" fill="#000000">updated_at    </text>
<text text-anchor="start" x="188.2468" y="-113.9" font-family="Arial" font-size="14.00" fill="#666666">[timestamp without time zone]</text>
<polygon fill="none" stroke="#000000" points="77,-72.5 77,-102.5 388,-102.5 388,-72.5 77,-72.5"/>
<text text-anchor="start" x="83.5379" y="-83.9" font-family="Arial" font-size="14.00" fill="#000000">last_login_at    </text>
<text text-anchor="start" x="196.3219" y="-83.9" font-family="Arial" font-size="14.00" fill="#666666">[timestamp without time zone]</text>
<polygon fill="none" stroke="#000000" points="77,-42.5 77,-72.5 388,-72.5 388,-42.5 77,-42.5"/>
<text text-anchor="start" x="84" y="-53.9" font-family="Arial" font-size="14.00" fill="#000000">is_deleted    </text>
<text text-anchor="start" x="182.0042" y="-53.9" font-family="Arial" font-size="14.00" fill="#666666">[boolean]</text>
</g>
<!-- public.reset_password_token&#45;&gt;public.user -->
<g id="edge1" class="edge">
<title>public.reset_password_token:user_id&#45;&gt;public.user:user_id</title>
<path fill="none" stroke="#000000" d="M35.8139,-546.6205C-18.4002,-536.629 3.694,-443.993 46,-397 97.1304,-340.2049 336.8696,-417.7951 388,-361 415.8037,-330.116 429.5556,-267.5 388,-267.5"/>
<polygon fill="#000000" stroke="#000000" points="36.0371,-546.6397 45.6129,-551.9833 41.0185,-547.0699 46,-547.5 46,-547.5 46,-547.5 41.0185,-547.0699 46.3871,-543.0167 36.0371,-546.6397 36.0371,-546.6397"/>
</g>
</g>
</svg>
