<?xml version="1.0" encoding="UTF-8" standalone="no"?>
<!DOCTYPE svg PUBLIC "-//W3C//DTD SVG 1.1//EN"
 "http://www.w3.org/Graphics/SVG/1.1/DTD/svg11.dtd">
<!-- Generated by graphviz version 2.40.1 (20161225.0304)
 -->
<!-- Title: public.jwt_refresh_token Pages: 1 -->
<svg width="435pt" height="682pt"
 viewBox="0.00 0.00 435.00 682.00" xmlns="http://www.w3.org/2000/svg" xmlns:xlink="http://www.w3.org/1999/xlink">
<g id="graph0" class="graph" transform="scale(1 1) rotate(0) translate(4 678)">
<title>public.jwt_refresh_token</title>
<polygon fill="#ffffff" stroke="transparent" points="-4,4 -4,-678 431,-678 431,4 -4,4"/>
<!-- public.jwt_refresh_token -->
<g id="node1" class="node">
<title>public.jwt_refresh_token</title>
<polygon fill="#efefef" stroke="transparent" points="46.5,-592.5 46.5,-627.5 381.5,-627.5 381.5,-592.5 46.5,-592.5"/>
<polygon fill="none" stroke="#000000" points="46.5,-592.5 46.5,-627.5 381.5,-627.5 381.5,-592.5 46.5,-592.5"/>
<text text-anchor="start" x="53.1969" y="-605.3" font-family="Arial Bold" font-size="18.00" fill="#000000">public.jwt_refresh_token</text>
<text text-anchor="start" x="247.2351" y="-605.3" font-family="Arial" font-size="14.00" fill="#000000">    </text>
<text text-anchor="start" x="281.4399" y="-605.3" font-family="Arial" font-size="14.00" fill="#666666">[BASE TABLE]</text>
<polygon fill="none" stroke="#000000" points="46.5,-562.5 46.5,-592.5 381.5,-592.5 381.5,-562.5 46.5,-562.5"/>
<text text-anchor="start" x="53.5" y="-573.9" font-family="Arial" font-size="14.00" fill="#000000">jwt_refresh_token_id </text>
<text text-anchor="start" x="186.5294" y="-573.9" font-family="Arial" font-size="14.00" fill="#666666">[bigint]</text>
<polygon fill="none" stroke="#000000" points="46.5,-532.5 46.5,-562.5 381.5,-562.5 381.5,-532.5 46.5,-532.5"/>
<text text-anchor="start" x="53.5" y="-543.9" font-family="Arial" font-size="14.00" fill="#000000">user_id </text>
<text text-anchor="start" x="103.2882" y="-543.9" font-family="Arial" font-size="14.00" fill="#666666">[bigint]</text>
<polygon fill="none" stroke="#000000" points="46.5,-502.5 46.5,-532.5 381.5,-532.5 381.5,-502.5 46.5,-502.5"/>
<text text-anchor="start" x="53.5" y="-513.9" font-family="Arial" font-size="14.00" fill="#000000">token </text>
<text text-anchor="start" x="91.629" y="-513.9" font-family="Arial" font-size="14.00" fill="#666666">[varchar(255)]</text>
<polygon fill="none" stroke="#000000" points="46.5,-472.5 46.5,-502.5 381.5,-502.5 381.5,-472.5 46.5,-472.5"/>
<text text-anchor="start" x="53.5" y="-483.9" font-family="Arial" font-size="14.00" fill="#000000">created_at </text>
<text text-anchor="start" x="123.528" y="-483.9" font-family="Arial" font-size="14.00" fill="#666666">[timestamp without time zone]</text>
<polygon fill="none" stroke="#000000" points="46.5,-442.5 46.5,-472.5 381.5,-472.5 381.5,-442.5 46.5,-442.5"/>
<text text-anchor="start" x="53.5" y="-453.9" font-family="Arial" font-size="14.00" fill="#000000">expired_at </text>
<text text-anchor="start" x="122.744" y="-453.9" font-family="Arial" font-size="14.00" fill="#666666">[timestamp without time zone]</text>
<polygon fill="none" stroke="#000000" stroke-width="3" points="44.5,-441.5 44.5,-629.5 382.5,-629.5 382.5,-441.5 44.5,-441.5"/>
</g>
<!-- public.user -->
<g id="node2" class="node">
<title>public.user</title>
<polygon fill="#efefef" stroke="transparent" points="58.5,-282.5 58.5,-317.5 369.5,-317.5 369.5,-282.5 58.5,-282.5"/>
<polygon fill="none" stroke="#000000" points="58.5,-282.5 58.5,-317.5 369.5,-317.5 369.5,-282.5 58.5,-282.5"/>
<text text-anchor="start" x="106.7091" y="-295.3" font-family="Arial Bold" font-size="18.00" fill="#000000">public.user</text>
<text text-anchor="start" x="193.7229" y="-295.3" font-family="Arial" font-size="14.00" fill="#000000">    </text>
<text text-anchor="start" x="227.9277" y="-295.3" font-family="Arial" font-size="14.00" fill="#666666">[BASE TABLE]</text>
<polygon fill="none" stroke="#000000" points="58.5,-252.5 58.5,-282.5 369.5,-282.5 369.5,-252.5 58.5,-252.5"/>
<text text-anchor="start" x="65.5" y="-263.9" font-family="Arial" font-size="14.00" fill="#000000">user_id    </text>
<text text-anchor="start" x="145.6024" y="-263.9" font-family="Arial" font-size="14.00" fill="#666666">[bigint]</text>
<polygon fill="none" stroke="#000000" points="58.5,-222.5 58.5,-252.5 369.5,-252.5 369.5,-222.5 58.5,-222.5"/>
<text text-anchor="start" x="65.5" y="-233.9" font-family="Arial" font-size="14.00" fill="#000000">public_user_id    </text>
<text text-anchor="start" x="189.946" y="-233.9" font-family="Arial" font-size="14.00" fill="#666666">[varchar(255)]</text>
<polygon fill="none" stroke="#000000" points="58.5,-192.5 58.5,-222.5 369.5,-222.5 369.5,-192.5 58.5,-192.5"/>
<text text-anchor="start" x="65.5" y="-203.9" font-family="Arial" font-size="14.00" fill="#000000">jwt_subject    </text>
<text text-anchor="start" x="168.9362" y="-203.9" font-family="Arial" font-size="14.00" fill="#666666">[varchar(255)]</text>
<polygon fill="none" stroke="#000000" points="58.5,-162.5 58.5,-192.5 369.5,-192.5 369.5,-162.5 58.5,-162.5"/>
<text text-anchor="start" x="65.5" y="-173.9" font-family="Arial" font-size="14.00" fill="#000000">email    </text>
<text text-anchor="start" x="133.1438" y="-173.9" font-family="Arial" font-size="14.00" fill="#666666">[varchar(255)]</text>
<polygon fill="none" stroke="#000000" points="58.5,-132.5 58.5,-162.5 369.5,-162.5 369.5,-132.5 58.5,-132.5"/>
<text text-anchor="start" x="65.5" y="-143.9" font-family="Arial" font-size="14.00" fill="#000000">created_at    </text>
<text text-anchor="start" x="165.8422" y="-143.9" font-family="Arial" font-size="14.00" fill="#666666">[timestamp without time zone]</text>
<polygon fill="none" stroke="#000000" points="58.5,-102.5 58.5,-132.5 369.5,-132.5 369.5,-102.5 58.5,-102.5"/>
<text text-anchor="start" x="65.5" y="-113.9" font-family="Arial" font-size="14.00" fill="#000000">updated_at    </text>
<text text-anchor="start" x="169.7468" y="-113.9" font-family="Arial" font-size="14.00" fill="#666666">[timestamp without time zone]</text>
<polygon fill="none" stroke="#000000" points="58.5,-72.5 58.5,-102.5 369.5,-102.5 369.5,-72.5 58.5,-72.5"/>
<text text-anchor="start" x="65.0379" y="-83.9" font-family="Arial" font-size="14.00" fill="#000000">last_login_at    </text>
<text text-anchor="start" x="177.8219" y="-83.9" font-family="Arial" font-size="14.00" fill="#666666">[timestamp without time zone]</text>
<polygon fill="none" stroke="#000000" points="58.5,-42.5 58.5,-72.5 369.5,-72.5 369.5,-42.5 58.5,-42.5"/>
<text text-anchor="start" x="65.5" y="-53.9" font-family="Arial" font-size="14.00" fill="#000000">is_deleted    </text>
<text text-anchor="start" x="163.5042" y="-53.9" font-family="Arial" font-size="14.00" fill="#666666">[boolean]</text>
</g>
<!-- public.jwt_refresh_token&#45;&gt;public.user -->
<g id="edge1" class="edge">
<title>public.jwt_refresh_token:user_id&#45;&gt;public.user:user_id</title>
<path fill="none" stroke="#000000" d="M36.6279,-544.9069C-14.2587,-516.6795 -.2518,-267.5 58.5,-267.5"/>
<polygon fill="#000000" stroke="#000000" points="36.8281,-544.9594 45.3567,-551.8524 41.664,-546.2297 46.5,-547.5 46.5,-547.5 46.5,-547.5 41.664,-546.2297 47.6433,-543.1476 36.8281,-544.9594 36.8281,-544.9594"/>
</g>
</g>
</svg>
