<?xml version="1.0" encoding="UTF-8" standalone="no"?>
<!DOCTYPE svg PUBLIC "-//W3C//DTD SVG 1.1//EN"
 "http://www.w3.org/Graphics/SVG/1.1/DTD/svg11.dtd">
<!-- Generated by graphviz version 2.40.1 (20161225.0304)
 -->
<!-- Title: meower_auth Pages: 1 -->
<svg width="2750pt" height="646pt"
 viewBox="0.00 0.00 2749.50 646.00" xmlns="http://www.w3.org/2000/svg" xmlns:xlink="http://www.w3.org/1999/xlink">
<g id="graph0" class="graph" transform="scale(1 1) rotate(0) translate(4 642)">
<title>meower_auth</title>
<polygon fill="#ffffff" stroke="transparent" points="-4,4 -4,-642 2745.5,-642 2745.5,4 -4,4"/>
<!-- public.user -->
<g id="node1" class="node">
<title>public.user</title>
<polygon fill="#efefef" stroke="transparent" points="698.5,-252.5 698.5,-287.5 1025.5,-287.5 1025.5,-252.5 698.5,-252.5"/>
<polygon fill="none" stroke="#000000" points="698.5,-252.5 698.5,-287.5 1025.5,-287.5 1025.5,-252.5 698.5,-252.5"/>
<text text-anchor="start" x="754.7091" y="-265.3" font-family="Arial Bold" font-size="18.00" fill="#000000">public.user</text>
<text text-anchor="start" x="841.7229" y="-265.3" font-family="Arial" font-size="14.00" fill="#000000">    </text>
<text text-anchor="start" x="875.9277" y="-265.3" font-family="Arial" font-size="14.00" fill="#666666">[BASE TABLE]</text>
<polygon fill="none" stroke="#000000" points="698.5,-222.5 698.5,-252.5 1025.5,-252.5 1025.5,-222.5 698.5,-222.5"/>
<text text-anchor="start" x="705.5" y="-233.9" font-family="Arial" font-size="14.00" fill="#000000">user_id    </text>
<text text-anchor="start" x="785.6024" y="-233.9" font-family="Arial" font-size="14.00" fill="#666666">[bigint]</text>
<polygon fill="none" stroke="#000000" points="698.5,-192.5 698.5,-222.5 1025.5,-222.5 1025.5,-192.5 698.5,-192.5"/>
<text text-anchor="start" x="705.5" y="-203.9" font-family="Arial" font-size="14.00" fill="#000000">email    </text>
<text text-anchor="start" x="773.1438" y="-203.9" font-family="Arial" font-size="14.00" fill="#666666">[varchar(255)]</text>
<polygon fill="none" stroke="#000000" points="698.5,-162.5 698.5,-192.5 1025.5,-192.5 1025.5,-162.5 698.5,-162.5"/>
<text text-anchor="start" x="705.5" y="-173.9" font-family="Arial" font-size="14.00" fill="#000000">jwt_subject    </text>
<text text-anchor="start" x="808.9362" y="-173.9" font-family="Arial" font-size="14.00" fill="#666666">[varchar(255)]</text>
<polygon fill="none" stroke="#000000" points="698.5,-132.5 698.5,-162.5 1025.5,-162.5 1025.5,-132.5 698.5,-132.5"/>
<text text-anchor="start" x="705.5" y="-143.9" font-family="Arial" font-size="14.00" fill="#000000">created_at    </text>
<text text-anchor="start" x="805.8422" y="-143.9" font-family="Arial" font-size="14.00" fill="#666666">[timestamp without time zone]</text>
<polygon fill="none" stroke="#000000" points="698.5,-102.5 698.5,-132.5 1025.5,-132.5 1025.5,-102.5 698.5,-102.5"/>
<text text-anchor="start" x="705.5" y="-113.9" font-family="Arial" font-size="14.00" fill="#000000">updated_at    </text>
<text text-anchor="start" x="809.7468" y="-113.9" font-family="Arial" font-size="14.00" fill="#666666">[timestamp without time zone]</text>
<polygon fill="none" stroke="#000000" points="698.5,-72.5 698.5,-102.5 1025.5,-102.5 1025.5,-72.5 698.5,-72.5"/>
<text text-anchor="start" x="705.2553" y="-83.9" font-family="Arial" font-size="14.00" fill="#000000">last_logined_at    </text>
<text text-anchor="start" x="833.6045" y="-83.9" font-family="Arial" font-size="14.00" fill="#666666">[timestamp without time zone]</text>
<polygon fill="none" stroke="#000000" points="698.5,-42.5 698.5,-72.5 1025.5,-72.5 1025.5,-42.5 698.5,-42.5"/>
<text text-anchor="start" x="705.5" y="-53.9" font-family="Arial" font-size="14.00" fill="#000000">is_deleted    </text>
<text text-anchor="start" x="803.5042" y="-53.9" font-family="Arial" font-size="14.00" fill="#666666">[boolean]</text>
</g>
<!-- public.user_auth -->
<g id="node2" class="node">
<title>public.user_auth</title>
<polygon fill="#efefef" stroke="transparent" points="43.5,-559.5 43.5,-594.5 346.5,-594.5 346.5,-559.5 43.5,-559.5"/>
<polygon fill="none" stroke="#000000" points="43.5,-559.5 43.5,-594.5 346.5,-594.5 346.5,-559.5 43.5,-559.5"/>
<text text-anchor="start" x="65.1956" y="-572.3" font-family="Arial Bold" font-size="18.00" fill="#000000">public.user_auth</text>
<text text-anchor="start" x="197.2364" y="-572.3" font-family="Arial" font-size="14.00" fill="#000000">    </text>
<text text-anchor="start" x="231.4412" y="-572.3" font-family="Arial" font-size="14.00" fill="#666666">[BASE TABLE]</text>
<polygon fill="none" stroke="#000000" points="43.5,-529.5 43.5,-559.5 346.5,-559.5 346.5,-529.5 43.5,-529.5"/>
<text text-anchor="start" x="50.5" y="-540.9" font-family="Arial" font-size="14.00" fill="#000000">user_auth_id    </text>
<text text-anchor="start" x="165.6234" y="-540.9" font-family="Arial" font-size="14.00" fill="#666666">[bigint]</text>
<polygon fill="none" stroke="#000000" points="43.5,-499.5 43.5,-529.5 346.5,-529.5 346.5,-499.5 43.5,-499.5"/>
<text text-anchor="start" x="50.5" y="-510.9" font-family="Arial" font-size="14.00" fill="#000000">user_id    </text>
<text text-anchor="start" x="130.6024" y="-510.9" font-family="Arial" font-size="14.00" fill="#666666">[bigint]</text>
<polygon fill="none" stroke="#000000" points="43.5,-469.5 43.5,-499.5 346.5,-499.5 346.5,-469.5 43.5,-469.5"/>
<text text-anchor="start" x="50.5" y="-480.9" font-family="Arial" font-size="14.00" fill="#000000">password    </text>
<text text-anchor="start" x="144.6024" y="-480.9" font-family="Arial" font-size="14.00" fill="#666666">[varchar(255)]</text>
<polygon fill="none" stroke="#000000" points="43.5,-439.5 43.5,-469.5 346.5,-469.5 346.5,-439.5 43.5,-439.5"/>
<text text-anchor="start" x="50.5" y="-450.9" font-family="Arial" font-size="14.00" fill="#000000">created_at    </text>
<text text-anchor="start" x="150.8422" y="-450.9" font-family="Arial" font-size="14.00" fill="#666666">[timestamp without time zone]</text>
<polygon fill="none" stroke="#000000" points="43.5,-409.5 43.5,-439.5 346.5,-439.5 346.5,-409.5 43.5,-409.5"/>
<text text-anchor="start" x="50.3065" y="-420.9" font-family="Arial" font-size="14.00" fill="#000000">updated_at    </text>
<text text-anchor="start" x="154.5533" y="-420.9" font-family="Arial" font-size="14.00" fill="#666666">[timestamp without time zone]</text>
</g>
<!-- public.user_auth&#45;&gt;public.user -->
<g id="edge1" class="edge">
<title>public.user_auth:user_id&#45;&gt;public.user:user_id</title>
<path fill="none" stroke="#000000" d="M356.738,-513.6558C409.2426,-504.0614 353.6568,-415.0284 398.5,-367 497.6097,-260.8506 553.2746,-237.5 698.5,-237.5"/>
<polygon fill="#000000" stroke="#000000" points="356.4662,-513.6781 346.1301,-510.0152 351.4831,-514.089 346.5,-514.5 346.5,-514.5 346.5,-514.5 351.4831,-514.089 346.8699,-518.9848 356.4662,-513.6781 356.4662,-513.6781"/>
</g>
<!-- public.temporary_user -->
<g id="node3" class="node">
<title>public.temporary_user</title>
<polygon fill="#efefef" stroke="transparent" points="1814.5,-222.5 1814.5,-257.5 2133.5,-257.5 2133.5,-222.5 1814.5,-222.5"/>
<polygon fill="none" stroke="#000000" points="1814.5,-222.5 1814.5,-257.5 2133.5,-257.5 2133.5,-222.5 1814.5,-222.5"/>
<text text-anchor="start" x="1821.2042" y="-235.3" font-family="Arial Bold" font-size="18.00" fill="#000000">public.temporary_user</text>
<text text-anchor="start" x="1999.2278" y="-235.3" font-family="Arial" font-size="14.00" fill="#000000">    </text>
<text text-anchor="start" x="2033.4326" y="-235.3" font-family="Arial" font-size="14.00" fill="#666666">[BASE TABLE]</text>
<polygon fill="none" stroke="#000000" points="1814.5,-192.5 1814.5,-222.5 2133.5,-222.5 2133.5,-192.5 1814.5,-192.5"/>
<text text-anchor="start" x="1821.5" y="-203.9" font-family="Arial" font-size="14.00" fill="#000000">temporary_user_id    </text>
<text text-anchor="start" x="1972.3878" y="-203.9" font-family="Arial" font-size="14.00" fill="#666666">[bigint]</text>
<polygon fill="none" stroke="#000000" points="1814.5,-162.5 1814.5,-192.5 2133.5,-192.5 2133.5,-162.5 1814.5,-162.5"/>
<text text-anchor="start" x="1821.5" y="-173.9" font-family="Arial" font-size="14.00" fill="#000000">token    </text>
<text text-anchor="start" x="1889.9432" y="-173.9" font-family="Arial" font-size="14.00" fill="#666666">[varchar(255)]</text>
<polygon fill="none" stroke="#000000" points="1814.5,-132.5 1814.5,-162.5 2133.5,-162.5 2133.5,-132.5 1814.5,-132.5"/>
<text text-anchor="start" x="1821.5" y="-143.9" font-family="Arial" font-size="14.00" fill="#000000">email    </text>
<text text-anchor="start" x="1889.1438" y="-143.9" font-family="Arial" font-size="14.00" fill="#666666">[varchar(255)]</text>
<polygon fill="none" stroke="#000000" points="1814.5,-102.5 1814.5,-132.5 2133.5,-132.5 2133.5,-102.5 1814.5,-102.5"/>
<text text-anchor="start" x="1821.5" y="-113.9" font-family="Arial" font-size="14.00" fill="#000000">password    </text>
<text text-anchor="start" x="1915.6024" y="-113.9" font-family="Arial" font-size="14.00" fill="#666666">[varchar(255)]</text>
<polygon fill="none" stroke="#000000" points="1814.5,-72.5 1814.5,-102.5 2133.5,-102.5 2133.5,-72.5 1814.5,-72.5"/>
<text text-anchor="start" x="1821.5" y="-83.9" font-family="Arial" font-size="14.00" fill="#000000">created_at    </text>
<text text-anchor="start" x="1921.8422" y="-83.9" font-family="Arial" font-size="14.00" fill="#666666">[timestamp without time zone]</text>
</g>
<!-- public.temporary_user_code -->
<g id="node4" class="node">
<title>public.temporary_user_code</title>
<polygon fill="#efefef" stroke="transparent" points="1790.5,-559.5 1790.5,-594.5 2158.5,-594.5 2158.5,-559.5 1790.5,-559.5"/>
<polygon fill="none" stroke="#000000" points="1790.5,-559.5 1790.5,-594.5 2158.5,-594.5 2158.5,-559.5 1790.5,-559.5"/>
<text text-anchor="start" x="1797.1918" y="-572.3" font-family="Arial Bold" font-size="18.00" fill="#000000">public.temporary_user_code</text>
<text text-anchor="start" x="2024.2402" y="-572.3" font-family="Arial" font-size="14.00" fill="#000000">    </text>
<text text-anchor="start" x="2058.445" y="-572.3" font-family="Arial" font-size="14.00" fill="#666666">[BASE TABLE]</text>
<polygon fill="none" stroke="#000000" points="1790.5,-529.5 1790.5,-559.5 2158.5,-559.5 2158.5,-529.5 1790.5,-529.5"/>
<text text-anchor="start" x="1797.5" y="-540.9" font-family="Arial" font-size="14.00" fill="#000000">temporary_user_code_id    </text>
<text text-anchor="start" x="1986.5182" y="-540.9" font-family="Arial" font-size="14.00" fill="#666666">[bigint]</text>
<polygon fill="none" stroke="#000000" points="1790.5,-499.5 1790.5,-529.5 2158.5,-529.5 2158.5,-499.5 1790.5,-499.5"/>
<text text-anchor="start" x="1797.5" y="-510.9" font-family="Arial" font-size="14.00" fill="#000000">temporary_user_id    </text>
<text text-anchor="start" x="1948.3878" y="-510.9" font-family="Arial" font-size="14.00" fill="#666666">[bigint]</text>
<polygon fill="none" stroke="#000000" points="1790.5,-469.5 1790.5,-499.5 2158.5,-499.5 2158.5,-469.5 1790.5,-469.5"/>
<text text-anchor="start" x="1797.5" y="-480.9" font-family="Arial" font-size="14.00" fill="#000000">code    </text>
<text text-anchor="start" x="1862.0526" y="-480.9" font-family="Arial" font-size="14.00" fill="#666666">[varchar(255)]</text>
<polygon fill="none" stroke="#000000" points="1790.5,-439.5 1790.5,-469.5 2158.5,-469.5 2158.5,-439.5 1790.5,-439.5"/>
<text text-anchor="start" x="1797.5" y="-450.9" font-family="Arial" font-size="14.00" fill="#000000">created_at    </text>
<text text-anchor="start" x="1897.8422" y="-450.9" font-family="Arial" font-size="14.00" fill="#666666">[timestamp without time zone]</text>
<polygon fill="none" stroke="#000000" points="1790.5,-409.5 1790.5,-439.5 2158.5,-439.5 2158.5,-409.5 1790.5,-409.5"/>
<text text-anchor="start" x="1797.5" y="-420.9" font-family="Arial" font-size="14.00" fill="#000000">expired_at    </text>
<text text-anchor="start" x="1897.0582" y="-420.9" font-family="Arial" font-size="14.00" fill="#666666">[timestamp without time zone]</text>
</g>
<!-- public.temporary_user_code&#45;&gt;public.temporary_user -->
<g id="edge2" class="edge">
<title>public.temporary_user_code:temporary_user_id&#45;&gt;public.temporary_user:temporary_user_id</title>
<path fill="none" stroke="#000000" d="M1780.5349,-513.6536C1727.6022,-504.0343 1751.0368,-414.7807 1790.5,-367 1889.3585,-247.3056 2034.6415,-420.6944 2133.5,-301 2159.9629,-268.9597 2175.0556,-207.5 2133.5,-207.5"/>
<polygon fill="#000000" stroke="#000000" points="1780.5359,-513.6535 1790.1191,-518.9839 1785.5179,-514.0768 1790.5,-514.5 1790.5,-514.5 1790.5,-514.5 1785.5179,-514.0768 1790.8809,-510.0161 1780.5359,-513.6535 1780.5359,-513.6535"/>
</g>
<!-- public.reset_password_token -->
<g id="node5" class="node">
<title>public.reset_password_token</title>
<polygon fill="#efefef" stroke="transparent" points="450.5,-559.5 450.5,-594.5 824.5,-594.5 824.5,-559.5 450.5,-559.5"/>
<polygon fill="none" stroke="#000000" points="450.5,-559.5 450.5,-594.5 824.5,-594.5 824.5,-559.5 450.5,-559.5"/>
<text text-anchor="start" x="457.1858" y="-572.3" font-family="Arial Bold" font-size="18.00" fill="#000000">public.reset_password_token</text>
<text text-anchor="start" x="690.2462" y="-572.3" font-family="Arial" font-size="14.00" fill="#000000">    </text>
<text text-anchor="start" x="724.451" y="-572.3" font-family="Arial" font-size="14.00" fill="#666666">[BASE TABLE]</text>
<polygon fill="none" stroke="#000000" points="450.5,-529.5 450.5,-559.5 824.5,-559.5 824.5,-529.5 450.5,-529.5"/>
<text text-anchor="start" x="457.5" y="-540.9" font-family="Arial" font-size="14.00" fill="#000000">reset_password_token_id    </text>
<text text-anchor="start" x="651.1942" y="-540.9" font-family="Arial" font-size="14.00" fill="#666666">[bigint]</text>
<polygon fill="none" stroke="#000000" points="450.5,-499.5 450.5,-529.5 824.5,-529.5 824.5,-499.5 450.5,-499.5"/>
<text text-anchor="start" x="457.5" y="-510.9" font-family="Arial" font-size="14.00" fill="#000000">user_id    </text>
<text text-anchor="start" x="537.6024" y="-510.9" font-family="Arial" font-size="14.00" fill="#666666">[bigint]</text>
<polygon fill="none" stroke="#000000" points="450.5,-469.5 450.5,-499.5 824.5,-499.5 824.5,-469.5 450.5,-469.5"/>
<text text-anchor="start" x="457.5" y="-480.9" font-family="Arial" font-size="14.00" fill="#000000">token    </text>
<text text-anchor="start" x="525.9432" y="-480.9" font-family="Arial" font-size="14.00" fill="#666666">[varchar(255)]</text>
<polygon fill="none" stroke="#000000" points="450.5,-439.5 450.5,-469.5 824.5,-469.5 824.5,-439.5 450.5,-439.5"/>
<text text-anchor="start" x="457.5" y="-450.9" font-family="Arial" font-size="14.00" fill="#000000">created_at    </text>
<text text-anchor="start" x="557.8422" y="-450.9" font-family="Arial" font-size="14.00" fill="#666666">[timestamp without time zone]</text>
<polygon fill="none" stroke="#000000" points="450.5,-409.5 450.5,-439.5 824.5,-439.5 824.5,-409.5 450.5,-409.5"/>
<text text-anchor="start" x="457.5" y="-420.9" font-family="Arial" font-size="14.00" fill="#000000">expired_at    </text>
<text text-anchor="start" x="557.0582" y="-420.9" font-family="Arial" font-size="14.00" fill="#666666">[timestamp without time zone]</text>
</g>
<!-- public.reset_password_token&#45;&gt;public.user -->
<g id="edge3" class="edge">
<title>public.reset_password_token:user_id&#45;&gt;public.user:user_id</title>
<path fill="none" stroke="#000000" d="M834.7716,-513.6092C887.0584,-503.8571 861.7412,-416.3718 824.5,-367 789.4276,-320.5035 733.5724,-377.4965 698.5,-331 673.4754,-297.8242 656.9444,-237.5 698.5,-237.5"/>
<polygon fill="#000000" stroke="#000000" points="834.4626,-513.6359 824.1111,-510.0168 829.4813,-514.0679 824.5,-514.5 824.5,-514.5 824.5,-514.5 829.4813,-514.0679 824.8889,-518.9832 834.4626,-513.6359 834.4626,-513.6359"/>
</g>
<!-- public.jwt_token_code -->
<g id="node6" class="node">
<title>public.jwt_token_code</title>
<polygon fill="#efefef" stroke="transparent" points="928.5,-559.5 928.5,-594.5 1246.5,-594.5 1246.5,-559.5 928.5,-559.5"/>
<polygon fill="none" stroke="#000000" points="928.5,-559.5 928.5,-594.5 1246.5,-594.5 1246.5,-559.5 928.5,-559.5"/>
<text text-anchor="start" x="935.1902" y="-572.3" font-family="Arial Bold" font-size="18.00" fill="#000000">public.jwt_token_code</text>
<text text-anchor="start" x="1112.2418" y="-572.3" font-family="Arial" font-size="14.00" fill="#000000">    </text>
<text text-anchor="start" x="1146.4466" y="-572.3" font-family="Arial" font-size="14.00" fill="#666666">[BASE TABLE]</text>
<polygon fill="none" stroke="#000000" points="928.5,-529.5 928.5,-559.5 1246.5,-559.5 1246.5,-529.5 928.5,-529.5"/>
<text text-anchor="start" x="935.5" y="-540.9" font-family="Arial" font-size="14.00" fill="#000000">jwt_token_code_id    </text>
<text text-anchor="start" x="1085.6318" y="-540.9" font-family="Arial" font-size="14.00" fill="#666666">[bigint]</text>
<polygon fill="none" stroke="#000000" points="928.5,-499.5 928.5,-529.5 1246.5,-529.5 1246.5,-499.5 928.5,-499.5"/>
<text text-anchor="start" x="935.5" y="-510.9" font-family="Arial" font-size="14.00" fill="#000000">user_id    </text>
<text text-anchor="start" x="1015.6024" y="-510.9" font-family="Arial" font-size="14.00" fill="#666666">[bigint]</text>
<polygon fill="none" stroke="#000000" points="928.5,-469.5 928.5,-499.5 1246.5,-499.5 1246.5,-469.5 928.5,-469.5"/>
<text text-anchor="start" x="935.5" y="-480.9" font-family="Arial" font-size="14.00" fill="#000000">code    </text>
<text text-anchor="start" x="1000.0526" y="-480.9" font-family="Arial" font-size="14.00" fill="#666666">[varchar(255)]</text>
<polygon fill="none" stroke="#000000" points="928.5,-439.5 928.5,-469.5 1246.5,-469.5 1246.5,-439.5 928.5,-439.5"/>
<text text-anchor="start" x="935.5" y="-450.9" font-family="Arial" font-size="14.00" fill="#000000">created_at    </text>
<text text-anchor="start" x="1035.8422" y="-450.9" font-family="Arial" font-size="14.00" fill="#666666">[timestamp without time zone]</text>
<polygon fill="none" stroke="#000000" points="928.5,-409.5 928.5,-439.5 1246.5,-439.5 1246.5,-409.5 928.5,-409.5"/>
<text text-anchor="start" x="935.5" y="-420.9" font-family="Arial" font-size="14.00" fill="#000000">expired_at    </text>
<text text-anchor="start" x="1035.0582" y="-420.9" font-family="Arial" font-size="14.00" fill="#666666">[timestamp without time zone]</text>
</g>
<!-- public.jwt_token_code&#45;&gt;public.user -->
<g id="edge4" class="edge">
<title>public.jwt_token_code:user_id&#45;&gt;public.user:user_id</title>
<path fill="none" stroke="#000000" d="M918.247,-513.6226C866.1602,-504.0155 893.1887,-417.77 928.5,-367 954.7566,-329.2487 999.2434,-368.7513 1025.5,-331 1049.2278,-296.8846 1067.0556,-237.5 1025.5,-237.5"/>
<polygon fill="#000000" stroke="#000000" points="918.5364,-513.6473 928.1163,-518.9836 923.5182,-514.0737 928.5,-514.5 928.5,-514.5 928.5,-514.5 923.5182,-514.0737 928.8837,-510.0164 918.5364,-513.6473 918.5364,-513.6473"/>
</g>
<!-- public.jwt_refresh_token -->
<g id="node7" class="node">
<title>public.jwt_refresh_token</title>
<polygon fill="#efefef" stroke="transparent" points="1351.5,-559.5 1351.5,-594.5 1686.5,-594.5 1686.5,-559.5 1351.5,-559.5"/>
<polygon fill="none" stroke="#000000" points="1351.5,-559.5 1351.5,-594.5 1686.5,-594.5 1686.5,-559.5 1351.5,-559.5"/>
<text text-anchor="start" x="1358.1969" y="-572.3" font-family="Arial Bold" font-size="18.00" fill="#000000">public.jwt_refresh_token</text>
<text text-anchor="start" x="1552.2351" y="-572.3" font-family="Arial" font-size="14.00" fill="#000000">    </text>
<text text-anchor="start" x="1586.4399" y="-572.3" font-family="Arial" font-size="14.00" fill="#666666">[BASE TABLE]</text>
<polygon fill="none" stroke="#000000" points="1351.5,-529.5 1351.5,-559.5 1686.5,-559.5 1686.5,-529.5 1351.5,-529.5"/>
<text text-anchor="start" x="1358.5" y="-540.9" font-family="Arial" font-size="14.00" fill="#000000">jwt_refresh_token_id    </text>
<text text-anchor="start" x="1521.8436" y="-540.9" font-family="Arial" font-size="14.00" fill="#666666">[bigint]</text>
<polygon fill="none" stroke="#000000" points="1351.5,-499.5 1351.5,-529.5 1686.5,-529.5 1686.5,-499.5 1351.5,-499.5"/>
<text text-anchor="start" x="1358.5" y="-510.9" font-family="Arial" font-size="14.00" fill="#000000">user_id    </text>
<text text-anchor="start" x="1438.6024" y="-510.9" font-family="Arial" font-size="14.00" fill="#666666">[bigint]</text>
<polygon fill="none" stroke="#000000" points="1351.5,-469.5 1351.5,-499.5 1686.5,-499.5 1686.5,-469.5 1351.5,-469.5"/>
<text text-anchor="start" x="1358.5" y="-480.9" font-family="Arial" font-size="14.00" fill="#000000">token    </text>
<text text-anchor="start" x="1426.9432" y="-480.9" font-family="Arial" font-size="14.00" fill="#666666">[varchar(255)]</text>
<polygon fill="none" stroke="#000000" points="1351.5,-439.5 1351.5,-469.5 1686.5,-469.5 1686.5,-439.5 1351.5,-439.5"/>
<text text-anchor="start" x="1358.5" y="-450.9" font-family="Arial" font-size="14.00" fill="#000000">created_at    </text>
<text text-anchor="start" x="1458.8422" y="-450.9" font-family="Arial" font-size="14.00" fill="#666666">[timestamp without time zone]</text>
<polygon fill="none" stroke="#000000" points="1351.5,-409.5 1351.5,-439.5 1686.5,-439.5 1686.5,-409.5 1351.5,-409.5"/>
<text text-anchor="start" x="1358.5" y="-420.9" font-family="Arial" font-size="14.00" fill="#000000">expired_at    </text>
<text text-anchor="start" x="1458.0582" y="-420.9" font-family="Arial" font-size="14.00" fill="#666666">[timestamp without time zone]</text>
</g>
<!-- public.jwt_refresh_token&#45;&gt;public.user -->
<g id="edge5" class="edge">
<title>public.jwt_refresh_token:user_id&#45;&gt;public.user:user_id</title>
<path fill="none" stroke="#000000" d="M1341.226,-513.6626C1288.4505,-504.1444 1342.7269,-415.7868 1298.5,-367 1208.3046,-267.5052 1159.7923,-237.5 1025.5,-237.5"/>
<polygon fill="#000000" stroke="#000000" points="1341.5331,-513.6875 1351.1344,-518.9851 1346.5165,-514.0938 1351.5,-514.5 1351.5,-514.5 1351.5,-514.5 1346.5165,-514.0938 1351.8656,-510.0149 1341.5331,-513.6875 1341.5331,-513.6875"/>
</g>
<!-- public.client_application -->
<g id="node8" class="node">
<title>public.client_application</title>
<polygon fill="#efefef" stroke="transparent" points="2314.5,-252.5 2314.5,-287.5 2645.5,-287.5 2645.5,-252.5 2314.5,-252.5"/>
<polygon fill="none" stroke="#000000" points="2314.5,-252.5 2314.5,-287.5 2645.5,-287.5 2645.5,-252.5 2314.5,-252.5"/>
<text text-anchor="start" x="2321.1958" y="-265.3" font-family="Arial Bold" font-size="18.00" fill="#000000">public.client_application</text>
<text text-anchor="start" x="2511.2362" y="-265.3" font-family="Arial" font-size="14.00" fill="#000000">    </text>
<text text-anchor="start" x="2545.441" y="-265.3" font-family="Arial" font-size="14.00" fill="#666666">[BASE TABLE]</text>
<polygon fill="none" stroke="#000000" points="2314.5,-222.5 2314.5,-252.5 2645.5,-252.5 2645.5,-222.5 2314.5,-222.5"/>
<text text-anchor="start" x="2321.5" y="-233.9" font-family="Arial" font-size="14.00" fill="#000000">client_application_id    </text>
<text text-anchor="start" x="2481.7342" y="-233.9" font-family="Arial" font-size="14.00" fill="#666666">[bigint]</text>
<polygon fill="none" stroke="#000000" points="2314.5,-192.5 2314.5,-222.5 2645.5,-222.5 2645.5,-192.5 2314.5,-192.5"/>
<text text-anchor="start" x="2321.5" y="-203.9" font-family="Arial" font-size="14.00" fill="#000000">name    </text>
<text text-anchor="start" x="2390.7132" y="-203.9" font-family="Arial" font-size="14.00" fill="#666666">[varchar(255)]</text>
<polygon fill="none" stroke="#000000" points="2314.5,-162.5 2314.5,-192.5 2645.5,-192.5 2645.5,-162.5 2314.5,-162.5"/>
<text text-anchor="start" x="2321.5" y="-173.9" font-family="Arial" font-size="14.00" fill="#000000">client_id    </text>
<text text-anchor="start" x="2407.0456" y="-173.9" font-family="Arial" font-size="14.00" fill="#666666">[varchar(255)]</text>
<polygon fill="none" stroke="#000000" points="2314.5,-132.5 2314.5,-162.5 2645.5,-162.5 2645.5,-132.5 2314.5,-132.5"/>
<text text-anchor="start" x="2321.5" y="-143.9" font-family="Arial" font-size="14.00" fill="#000000">client_secret    </text>
<text text-anchor="start" x="2434.2728" y="-143.9" font-family="Arial" font-size="14.00" fill="#666666">[varchar(255)]</text>
<polygon fill="none" stroke="#000000" points="2314.5,-102.5 2314.5,-132.5 2645.5,-132.5 2645.5,-102.5 2314.5,-102.5"/>
<text text-anchor="start" x="2321.5" y="-113.9" font-family="Arial" font-size="14.00" fill="#000000">redirect_uri    </text>
<text text-anchor="start" x="2425.7034" y="-113.9" font-family="Arial" font-size="14.00" fill="#666666">[varchar(255)]</text>
<polygon fill="none" stroke="#000000" points="2314.5,-72.5 2314.5,-102.5 2645.5,-102.5 2645.5,-72.5 2314.5,-72.5"/>
<text text-anchor="start" x="2321.5" y="-83.9" font-family="Arial" font-size="14.00" fill="#000000">created_at    </text>
<text text-anchor="start" x="2421.8422" y="-83.9" font-family="Arial" font-size="14.00" fill="#666666">[timestamp without time zone]</text>
<polygon fill="none" stroke="#000000" points="2314.5,-42.5 2314.5,-72.5 2645.5,-72.5 2645.5,-42.5 2314.5,-42.5"/>
<text text-anchor="start" x="2321.5" y="-53.9" font-family="Arial" font-size="14.00" fill="#000000">updated_at    </text>
<text text-anchor="start" x="2425.7468" y="-53.9" font-family="Arial" font-size="14.00" fill="#666666">[timestamp without time zone]</text>
</g>
<!-- public.client_application_allow_origin -->
<g id="node9" class="node">
<title>public.client_application_allow_origin</title>
<polygon fill="#efefef" stroke="transparent" points="2262.5,-529.5 2262.5,-564.5 2698.5,-564.5 2698.5,-529.5 2262.5,-529.5"/>
<polygon fill="none" stroke="#000000" points="2262.5,-529.5 2262.5,-564.5 2698.5,-564.5 2698.5,-529.5 2262.5,-529.5"/>
<text text-anchor="start" x="2269.1925" y="-542.3" font-family="Arial Bold" font-size="18.00" fill="#000000">public.client_application_allow_origin</text>
<text text-anchor="start" x="2564.2395" y="-542.3" font-family="Arial" font-size="14.00" fill="#000000">    </text>
<text text-anchor="start" x="2598.4443" y="-542.3" font-family="Arial" font-size="14.00" fill="#666666">[BASE TABLE]</text>
<polygon fill="none" stroke="#000000" points="2262.5,-499.5 2262.5,-529.5 2698.5,-529.5 2698.5,-499.5 2262.5,-499.5"/>
<text text-anchor="start" x="2269.5" y="-510.9" font-family="Arial" font-size="14.00" fill="#000000">client_application_allow_origin_id    </text>
<text text-anchor="start" x="2511.406" y="-510.9" font-family="Arial" font-size="14.00" fill="#666666">[bigint]</text>
<polygon fill="none" stroke="#000000" points="2262.5,-469.5 2262.5,-499.5 2698.5,-499.5 2698.5,-469.5 2262.5,-469.5"/>
<text text-anchor="start" x="2269.5" y="-480.9" font-family="Arial" font-size="14.00" fill="#000000">client_application_id    </text>
<text text-anchor="start" x="2429.7342" y="-480.9" font-family="Arial" font-size="14.00" fill="#666666">[bigint]</text>
<polygon fill="none" stroke="#000000" points="2262.5,-439.5 2262.5,-469.5 2698.5,-469.5 2698.5,-439.5 2262.5,-439.5"/>
<text text-anchor="start" x="2269.5" y="-450.9" font-family="Arial" font-size="14.00" fill="#000000">allow_origin    </text>
<text text-anchor="start" x="2377.594" y="-450.9" font-family="Arial" font-size="14.00" fill="#666666">[varchar(255)]</text>
</g>
<!-- public.client_application_allow_origin&#45;&gt;public.client_application -->
<g id="edge6" class="edge">
<title>public.client_application_allow_origin:client_application_id&#45;&gt;public.client_application:client_application_id</title>
<path fill="none" stroke="#000000" d="M2252.5765,-482.9274C2226.42,-473.4863 2239.8917,-423.8375 2262.5,-397 2373.7863,-264.8962 2534.2137,-463.1038 2645.5,-331 2672.2732,-299.2185 2687.0556,-237.5 2645.5,-237.5"/>
<polygon fill="#000000" stroke="#000000" points="2252.6232,-482.9347 2261.7956,-488.9445 2257.5616,-483.7174 2262.5,-484.5 2262.5,-484.5 2262.5,-484.5 2257.5616,-483.7174 2263.2044,-480.0555 2252.6232,-482.9347 2252.6232,-482.9347"/>
</g>
</g>
</svg>
