<?xml version="1.0" encoding="UTF-8" standalone="no"?>
<!DOCTYPE svg PUBLIC "-//W3C//DTD SVG 1.1//EN"
 "http://www.w3.org/Graphics/SVG/1.1/DTD/svg11.dtd">
<!-- Generated by graphviz version 2.40.1 (20161225.0304)
 -->
<!-- Title: meower_auth Pages: 1 -->
<svg width="2645pt" height="706pt"
 viewBox="0.00 0.00 2645.00 706.00" xmlns="http://www.w3.org/2000/svg" xmlns:xlink="http://www.w3.org/1999/xlink">
<g id="graph0" class="graph" transform="scale(1 1) rotate(0) translate(4 702)">
<title>meower_auth</title>
<polygon fill="#ffffff" stroke="transparent" points="-4,4 -4,-702 2641,-702 2641,4 -4,4"/>
<!-- public.user -->
<g id="node1" class="node">
<title>public.user</title>
<polygon fill="#efefef" stroke="transparent" points="698.5,-252.5 698.5,-287.5 1025.5,-287.5 1025.5,-252.5 698.5,-252.5"/>
<polygon fill="none" stroke="#000000" points="698.5,-252.5 698.5,-287.5 1025.5,-287.5 1025.5,-252.5 698.5,-252.5"/>
<text text-anchor="start" x="754.7091" y="-265.3" font-family="Arial Bold" font-size="18.00" fill="#000000">public.user</text>
<text text-anchor="start" x="841.7229" y="-265.3" font-family="Arial" font-size="14.00" fill="#000000">    </text>
<text text-anchor="start" x="875.9277" y="-265.3" font-family="Arial" font-size="14.00" fill="#666666">[BASE TABLE]</text>
<polygon fill="none" stroke="#000000" points="698.5,-222.5 698.5,-252.5 1025.5,-252.5 1025.5,-222.5 698.5,-222.5"/>
<text text-anchor="start" x="705.5" y="-233.9" font-family="Arial" font-size="14.00" fill="#000000">user_id    </text>
<text text-anchor="start" x="785.6024" y="-233.9" font-family="Arial" font-size="14.00" fill="#666666">[bigint]</text>
<polygon fill="none" stroke="#000000" points="698.5,-192.5 698.5,-222.5 1025.5,-222.5 1025.5,-192.5 698.5,-192.5"/>
<text text-anchor="start" x="705.5" y="-203.9" font-family="Arial" font-size="14.00" fill="#000000">email    </text>
<text text-anchor="start" x="773.1438" y="-203.9" font-family="Arial" font-size="14.00" fill="#666666">[varchar(255)]</text>
<polygon fill="none" stroke="#000000" points="698.5,-162.5 698.5,-192.5 1025.5,-192.5 1025.5,-162.5 698.5,-162.5"/>
<text text-anchor="start" x="705.5" y="-173.9" font-family="Arial" font-size="14.00" fill="#000000">jwt_subject    </text>
<text text-anchor="start" x="808.9362" y="-173.9" font-family="Arial" font-size="14.00" fill="#666666">[varchar(255)]</text>
<polygon fill="none" stroke="#000000" points="698.5,-132.5 698.5,-162.5 1025.5,-162.5 1025.5,-132.5 698.5,-132.5"/>
<text text-anchor="start" x="705.5" y="-143.9" font-family="Arial" font-size="14.00" fill="#000000">created_at    </text>
<text text-anchor="start" x="805.8422" y="-143.9" font-family="Arial" font-size="14.00" fill="#666666">[timestamp without time zone]</text>
<polygon fill="none" stroke="#000000" points="698.5,-102.5 698.5,-132.5 1025.5,-132.5 1025.5,-102.5 698.5,-102.5"/>
<text text-anchor="start" x="705.5" y="-113.9" font-family="Arial" font-size="14.00" fill="#000000">updated_at    </text>
<text text-anchor="start" x="809.7468" y="-113.9" font-family="Arial" font-size="14.00" fill="#666666">[timestamp without time zone]</text>
<polygon fill="none" stroke="#000000" points="698.5,-72.5 698.5,-102.5 1025.5,-102.5 1025.5,-72.5 698.5,-72.5"/>
<text text-anchor="start" x="705.2553" y="-83.9" font-family="Arial" font-size="14.00" fill="#000000">last_logined_at    </text>
<text text-anchor="start" x="833.6045" y="-83.9" font-family="Arial" font-size="14.00" fill="#666666">[timestamp without time zone]</text>
<polygon fill="none" stroke="#000000" points="698.5,-42.5 698.5,-72.5 1025.5,-72.5 1025.5,-42.5 698.5,-42.5"/>
<text text-anchor="start" x="705.5" y="-53.9" font-family="Arial" font-size="14.00" fill="#000000">is_deleted    </text>
<text text-anchor="start" x="803.5042" y="-53.9" font-family="Arial" font-size="14.00" fill="#666666">[boolean]</text>
</g>
<!-- public.user_auth -->
<g id="node2" class="node">
<title>public.user_auth</title>
<polygon fill="#efefef" stroke="transparent" points="43.5,-589.5 43.5,-624.5 346.5,-624.5 346.5,-589.5 43.5,-589.5"/>
<polygon fill="none" stroke="#000000" points="43.5,-589.5 43.5,-624.5 346.5,-624.5 346.5,-589.5 43.5,-589.5"/>
<text text-anchor="start" x="65.1956" y="-602.3" font-family="Arial Bold" font-size="18.00" fill="#000000">public.user_auth</text>
<text text-anchor="start" x="197.2364" y="-602.3" font-family="Arial" font-size="14.00" fill="#000000">    </text>
<text text-anchor="start" x="231.4412" y="-602.3" font-family="Arial" font-size="14.00" fill="#666666">[BASE TABLE]</text>
<polygon fill="none" stroke="#000000" points="43.5,-559.5 43.5,-589.5 346.5,-589.5 346.5,-559.5 43.5,-559.5"/>
<text text-anchor="start" x="50.5" y="-570.9" font-family="Arial" font-size="14.00" fill="#000000">user_auth_id    </text>
<text text-anchor="start" x="165.6234" y="-570.9" font-family="Arial" font-size="14.00" fill="#666666">[bigint]</text>
<polygon fill="none" stroke="#000000" points="43.5,-529.5 43.5,-559.5 346.5,-559.5 346.5,-529.5 43.5,-529.5"/>
<text text-anchor="start" x="50.5" y="-540.9" font-family="Arial" font-size="14.00" fill="#000000">user_id    </text>
<text text-anchor="start" x="130.6024" y="-540.9" font-family="Arial" font-size="14.00" fill="#666666">[bigint]</text>
<polygon fill="none" stroke="#000000" points="43.5,-499.5 43.5,-529.5 346.5,-529.5 346.5,-499.5 43.5,-499.5"/>
<text text-anchor="start" x="50.5" y="-510.9" font-family="Arial" font-size="14.00" fill="#000000">password    </text>
<text text-anchor="start" x="144.6024" y="-510.9" font-family="Arial" font-size="14.00" fill="#666666">[varchar(255)]</text>
<polygon fill="none" stroke="#000000" points="43.5,-469.5 43.5,-499.5 346.5,-499.5 346.5,-469.5 43.5,-469.5"/>
<text text-anchor="start" x="50.5" y="-480.9" font-family="Arial" font-size="14.00" fill="#000000">created_at    </text>
<text text-anchor="start" x="150.8422" y="-480.9" font-family="Arial" font-size="14.00" fill="#666666">[timestamp without time zone]</text>
<polygon fill="none" stroke="#000000" points="43.5,-439.5 43.5,-469.5 346.5,-469.5 346.5,-439.5 43.5,-439.5"/>
<text text-anchor="start" x="50.3065" y="-450.9" font-family="Arial" font-size="14.00" fill="#000000">updated_at    </text>
<text text-anchor="start" x="154.5533" y="-450.9" font-family="Arial" font-size="14.00" fill="#666666">[timestamp without time zone]</text>
</g>
<!-- public.user_auth&#45;&gt;public.user -->
<g id="edge1" class="edge">
<title>public.user_auth:user_id&#45;&gt;public.user:user_id</title>
<path fill="none" stroke="#000000" d="M356.5959,-543.8136C421.3787,-534.1947 346.4868,-425.8108 398.5,-367 494.7104,-258.2159 553.2746,-237.5 698.5,-237.5"/>
<polygon fill="#000000" stroke="#000000" points="356.477,-543.8216 346.1947,-540.0104 351.4885,-544.1608 346.5,-544.5 346.5,-544.5 346.5,-544.5 351.4885,-544.1608 346.8053,-548.9896 356.477,-543.8216 356.477,-543.8216"/>
</g>
<!-- public.temporary_user -->
<g id="node3" class="node">
<title>public.temporary_user</title>
<polygon fill="#efefef" stroke="transparent" points="1814.5,-222.5 1814.5,-257.5 2133.5,-257.5 2133.5,-222.5 1814.5,-222.5"/>
<polygon fill="none" stroke="#000000" points="1814.5,-222.5 1814.5,-257.5 2133.5,-257.5 2133.5,-222.5 1814.5,-222.5"/>
<text text-anchor="start" x="1821.2042" y="-235.3" font-family="Arial Bold" font-size="18.00" fill="#000000">public.temporary_user</text>
<text text-anchor="start" x="1999.2278" y="-235.3" font-family="Arial" font-size="14.00" fill="#000000">    </text>
<text text-anchor="start" x="2033.4326" y="-235.3" font-family="Arial" font-size="14.00" fill="#666666">[BASE TABLE]</text>
<polygon fill="none" stroke="#000000" points="1814.5,-192.5 1814.5,-222.5 2133.5,-222.5 2133.5,-192.5 1814.5,-192.5"/>
<text text-anchor="start" x="1821.5" y="-203.9" font-family="Arial" font-size="14.00" fill="#000000">temporary_user_id    </text>
<text text-anchor="start" x="1972.3878" y="-203.9" font-family="Arial" font-size="14.00" fill="#666666">[bigint]</text>
<polygon fill="none" stroke="#000000" points="1814.5,-162.5 1814.5,-192.5 2133.5,-192.5 2133.5,-162.5 1814.5,-162.5"/>
<text text-anchor="start" x="1821.5" y="-173.9" font-family="Arial" font-size="14.00" fill="#000000">token    </text>
<text text-anchor="start" x="1889.9432" y="-173.9" font-family="Arial" font-size="14.00" fill="#666666">[varchar(255)]</text>
<polygon fill="none" stroke="#000000" points="1814.5,-132.5 1814.5,-162.5 2133.5,-162.5 2133.5,-132.5 1814.5,-132.5"/>
<text text-anchor="start" x="1821.5" y="-143.9" font-family="Arial" font-size="14.00" fill="#000000">email    </text>
<text text-anchor="start" x="1889.1438" y="-143.9" font-family="Arial" font-size="14.00" fill="#666666">[varchar(255)]</text>
<polygon fill="none" stroke="#000000" points="1814.5,-102.5 1814.5,-132.5 2133.5,-132.5 2133.5,-102.5 1814.5,-102.5"/>
<text text-anchor="start" x="1821.5" y="-113.9" font-family="Arial" font-size="14.00" fill="#000000">password    </text>
<text text-anchor="start" x="1915.6024" y="-113.9" font-family="Arial" font-size="14.00" fill="#666666">[varchar(255)]</text>
<polygon fill="none" stroke="#000000" points="1814.5,-72.5 1814.5,-102.5 2133.5,-102.5 2133.5,-72.5 1814.5,-72.5"/>
<text text-anchor="start" x="1821.5" y="-83.9" font-family="Arial" font-size="14.00" fill="#000000">created_at    </text>
<text text-anchor="start" x="1921.8422" y="-83.9" font-family="Arial" font-size="14.00" fill="#666666">[timestamp without time zone]</text>
</g>
<!-- public.temporary_user_code -->
<g id="node4" class="node">
<title>public.temporary_user_code</title>
<polygon fill="#efefef" stroke="transparent" points="1790.5,-589.5 1790.5,-624.5 2158.5,-624.5 2158.5,-589.5 1790.5,-589.5"/>
<polygon fill="none" stroke="#000000" points="1790.5,-589.5 1790.5,-624.5 2158.5,-624.5 2158.5,-589.5 1790.5,-589.5"/>
<text text-anchor="start" x="1797.1918" y="-602.3" font-family="Arial Bold" font-size="18.00" fill="#000000">public.temporary_user_code</text>
<text text-anchor="start" x="2024.2402" y="-602.3" font-family="Arial" font-size="14.00" fill="#000000">    </text>
<text text-anchor="start" x="2058.445" y="-602.3" font-family="Arial" font-size="14.00" fill="#666666">[BASE TABLE]</text>
<polygon fill="none" stroke="#000000" points="1790.5,-559.5 1790.5,-589.5 2158.5,-589.5 2158.5,-559.5 1790.5,-559.5"/>
<text text-anchor="start" x="1797.5" y="-570.9" font-family="Arial" font-size="14.00" fill="#000000">temporary_user_code_id    </text>
<text text-anchor="start" x="1986.5182" y="-570.9" font-family="Arial" font-size="14.00" fill="#666666">[bigint]</text>
<polygon fill="none" stroke="#000000" points="1790.5,-529.5 1790.5,-559.5 2158.5,-559.5 2158.5,-529.5 1790.5,-529.5"/>
<text text-anchor="start" x="1797.5" y="-540.9" font-family="Arial" font-size="14.00" fill="#000000">temporary_user_id    </text>
<text text-anchor="start" x="1948.3878" y="-540.9" font-family="Arial" font-size="14.00" fill="#666666">[bigint]</text>
<polygon fill="none" stroke="#000000" points="1790.5,-499.5 1790.5,-529.5 2158.5,-529.5 2158.5,-499.5 1790.5,-499.5"/>
<text text-anchor="start" x="1797.5" y="-510.9" font-family="Arial" font-size="14.00" fill="#000000">code    </text>
<text text-anchor="start" x="1862.0526" y="-510.9" font-family="Arial" font-size="14.00" fill="#666666">[varchar(255)]</text>
<polygon fill="none" stroke="#000000" points="1790.5,-469.5 1790.5,-499.5 2158.5,-499.5 2158.5,-469.5 1790.5,-469.5"/>
<text text-anchor="start" x="1797.5" y="-480.9" font-family="Arial" font-size="14.00" fill="#000000">created_at    </text>
<text text-anchor="start" x="1897.8422" y="-480.9" font-family="Arial" font-size="14.00" fill="#666666">[timestamp without time zone]</text>
<polygon fill="none" stroke="#000000" points="1790.5,-439.5 1790.5,-469.5 2158.5,-469.5 2158.5,-439.5 1790.5,-439.5"/>
<text text-anchor="start" x="1797.5" y="-450.9" font-family="Arial" font-size="14.00" fill="#000000">expired_at    </text>
<text text-anchor="start" x="1897.0582" y="-450.9" font-family="Arial" font-size="14.00" fill="#666666">[timestamp without time zone]</text>
</g>
<!-- public.temporary_user_code&#45;&gt;public.temporary_user -->
<g id="edge2" class="edge">
<title>public.temporary_user_code:temporary_user_id&#45;&gt;public.temporary_user:temporary_user_id</title>
<path fill="none" stroke="#000000" d="M1780.2271,-543.6082C1727.9265,-533.8457 1753.1256,-446.2711 1790.5,-397 1886.17,-270.877 2037.83,-427.123 2133.5,-301 2158.614,-267.8919 2175.0556,-207.5 2133.5,-207.5"/>
<polygon fill="#000000" stroke="#000000" points="1780.5375,-543.6351 1790.1108,-548.9831 1785.5187,-544.0675 1790.5,-544.5 1790.5,-544.5 1790.5,-544.5 1785.5187,-544.0675 1790.8892,-540.0169 1780.5375,-543.6351 1780.5375,-543.6351"/>
</g>
<!-- public.reset_password_token -->
<g id="node5" class="node">
<title>public.reset_password_token</title>
<polygon fill="#efefef" stroke="transparent" points="450.5,-589.5 450.5,-624.5 824.5,-624.5 824.5,-589.5 450.5,-589.5"/>
<polygon fill="none" stroke="#000000" points="450.5,-589.5 450.5,-624.5 824.5,-624.5 824.5,-589.5 450.5,-589.5"/>
<text text-anchor="start" x="457.1858" y="-602.3" font-family="Arial Bold" font-size="18.00" fill="#000000">public.reset_password_token</text>
<text text-anchor="start" x="690.2462" y="-602.3" font-family="Arial" font-size="14.00" fill="#000000">    </text>
<text text-anchor="start" x="724.451" y="-602.3" font-family="Arial" font-size="14.00" fill="#666666">[BASE TABLE]</text>
<polygon fill="none" stroke="#000000" points="450.5,-559.5 450.5,-589.5 824.5,-589.5 824.5,-559.5 450.5,-559.5"/>
<text text-anchor="start" x="457.5" y="-570.9" font-family="Arial" font-size="14.00" fill="#000000">reset_password_token_id    </text>
<text text-anchor="start" x="651.1942" y="-570.9" font-family="Arial" font-size="14.00" fill="#666666">[bigint]</text>
<polygon fill="none" stroke="#000000" points="450.5,-529.5 450.5,-559.5 824.5,-559.5 824.5,-529.5 450.5,-529.5"/>
<text text-anchor="start" x="457.5" y="-540.9" font-family="Arial" font-size="14.00" fill="#000000">user_id    </text>
<text text-anchor="start" x="537.6024" y="-540.9" font-family="Arial" font-size="14.00" fill="#666666">[bigint]</text>
<polygon fill="none" stroke="#000000" points="450.5,-499.5 450.5,-529.5 824.5,-529.5 824.5,-499.5 450.5,-499.5"/>
<text text-anchor="start" x="457.5" y="-510.9" font-family="Arial" font-size="14.00" fill="#000000">token    </text>
<text text-anchor="start" x="525.9432" y="-510.9" font-family="Arial" font-size="14.00" fill="#666666">[varchar(255)]</text>
<polygon fill="none" stroke="#000000" points="450.5,-469.5 450.5,-499.5 824.5,-499.5 824.5,-469.5 450.5,-469.5"/>
<text text-anchor="start" x="457.5" y="-480.9" font-family="Arial" font-size="14.00" fill="#000000">created_at    </text>
<text text-anchor="start" x="557.8422" y="-480.9" font-family="Arial" font-size="14.00" fill="#666666">[timestamp without time zone]</text>
<polygon fill="none" stroke="#000000" points="450.5,-439.5 450.5,-469.5 824.5,-469.5 824.5,-439.5 450.5,-439.5"/>
<text text-anchor="start" x="457.5" y="-450.9" font-family="Arial" font-size="14.00" fill="#000000">expired_at    </text>
<text text-anchor="start" x="557.0582" y="-450.9" font-family="Arial" font-size="14.00" fill="#666666">[timestamp without time zone]</text>
</g>
<!-- public.reset_password_token&#45;&gt;public.user -->
<g id="edge3" class="edge">
<title>public.reset_password_token:user_id&#45;&gt;public.user:user_id</title>
<path fill="none" stroke="#000000" d="M834.7213,-543.6432C886.4663,-534.258 856.5148,-449.9107 824.5,-397 791.7734,-342.9129 731.2266,-385.0871 698.5,-331 676.9874,-295.4462 656.9444,-237.5 698.5,-237.5"/>
<polygon fill="#000000" stroke="#000000" points="834.4651,-543.6646 824.1241,-540.0157 829.4825,-544.0823 824.5,-544.5 824.5,-544.5 824.5,-544.5 829.4825,-544.0823 824.8759,-548.9843 834.4651,-543.6646 834.4651,-543.6646"/>
</g>
<!-- public.jwt_token_code -->
<g id="node6" class="node">
<title>public.jwt_token_code</title>
<polygon fill="#efefef" stroke="transparent" points="928.5,-589.5 928.5,-624.5 1246.5,-624.5 1246.5,-589.5 928.5,-589.5"/>
<polygon fill="none" stroke="#000000" points="928.5,-589.5 928.5,-624.5 1246.5,-624.5 1246.5,-589.5 928.5,-589.5"/>
<text text-anchor="start" x="935.1902" y="-602.3" font-family="Arial Bold" font-size="18.00" fill="#000000">public.jwt_token_code</text>
<text text-anchor="start" x="1112.2418" y="-602.3" font-family="Arial" font-size="14.00" fill="#000000">    </text>
<text text-anchor="start" x="1146.4466" y="-602.3" font-family="Arial" font-size="14.00" fill="#666666">[BASE TABLE]</text>
<polygon fill="none" stroke="#000000" points="928.5,-559.5 928.5,-589.5 1246.5,-589.5 1246.5,-559.5 928.5,-559.5"/>
<text text-anchor="start" x="935.5" y="-570.9" font-family="Arial" font-size="14.00" fill="#000000">jwt_token_code_id    </text>
<text text-anchor="start" x="1085.6318" y="-570.9" font-family="Arial" font-size="14.00" fill="#666666">[bigint]</text>
<polygon fill="none" stroke="#000000" points="928.5,-529.5 928.5,-559.5 1246.5,-559.5 1246.5,-529.5 928.5,-529.5"/>
<text text-anchor="start" x="935.5" y="-540.9" font-family="Arial" font-size="14.00" fill="#000000">user_id    </text>
<text text-anchor="start" x="1015.6024" y="-540.9" font-family="Arial" font-size="14.00" fill="#666666">[bigint]</text>
<polygon fill="none" stroke="#000000" points="928.5,-499.5 928.5,-529.5 1246.5,-529.5 1246.5,-499.5 928.5,-499.5"/>
<text text-anchor="start" x="935.5" y="-510.9" font-family="Arial" font-size="14.00" fill="#000000">code    </text>
<text text-anchor="start" x="1000.0526" y="-510.9" font-family="Arial" font-size="14.00" fill="#666666">[varchar(255)]</text>
<polygon fill="none" stroke="#000000" points="928.5,-469.5 928.5,-499.5 1246.5,-499.5 1246.5,-469.5 928.5,-469.5"/>
<text text-anchor="start" x="935.5" y="-480.9" font-family="Arial" font-size="14.00" fill="#000000">created_at    </text>
<text text-anchor="start" x="1035.8422" y="-480.9" font-family="Arial" font-size="14.00" fill="#666666">[timestamp without time zone]</text>
<polygon fill="none" stroke="#000000" points="928.5,-439.5 928.5,-469.5 1246.5,-469.5 1246.5,-439.5 928.5,-439.5"/>
<text text-anchor="start" x="935.5" y="-450.9" font-family="Arial" font-size="14.00" fill="#000000">expired_at    </text>
<text text-anchor="start" x="1035.0582" y="-450.9" font-family="Arial" font-size="14.00" fill="#666666">[timestamp without time zone]</text>
</g>
<!-- public.jwt_token_code&#45;&gt;public.user -->
<g id="edge4" class="edge">
<title>public.jwt_token_code:user_id&#45;&gt;public.user:user_id</title>
<path fill="none" stroke="#000000" d="M918.3085,-543.6601C866.8839,-534.4564 899.5773,-451.6623 928.5,-397 952.887,-350.91 1001.113,-377.09 1025.5,-331 1044.9349,-294.2692 1067.0556,-237.5 1025.5,-237.5"/>
<polygon fill="#000000" stroke="#000000" points="918.5338,-543.6786 928.1304,-548.9848 923.5169,-544.0893 928.5,-544.5 928.5,-544.5 928.5,-544.5 923.5169,-544.0893 928.8696,-540.0152 918.5338,-543.6786 918.5338,-543.6786"/>
</g>
<!-- public.jwt_refresh_token -->
<g id="node7" class="node">
<title>public.jwt_refresh_token</title>
<polygon fill="#efefef" stroke="transparent" points="1351.5,-589.5 1351.5,-624.5 1686.5,-624.5 1686.5,-589.5 1351.5,-589.5"/>
<polygon fill="none" stroke="#000000" points="1351.5,-589.5 1351.5,-624.5 1686.5,-624.5 1686.5,-589.5 1351.5,-589.5"/>
<text text-anchor="start" x="1358.1969" y="-602.3" font-family="Arial Bold" font-size="18.00" fill="#000000">public.jwt_refresh_token</text>
<text text-anchor="start" x="1552.2351" y="-602.3" font-family="Arial" font-size="14.00" fill="#000000">    </text>
<text text-anchor="start" x="1586.4399" y="-602.3" font-family="Arial" font-size="14.00" fill="#666666">[BASE TABLE]</text>
<polygon fill="none" stroke="#000000" points="1351.5,-559.5 1351.5,-589.5 1686.5,-589.5 1686.5,-559.5 1351.5,-559.5"/>
<text text-anchor="start" x="1358.5" y="-570.9" font-family="Arial" font-size="14.00" fill="#000000">jwt_refresh_token_id    </text>
<text text-anchor="start" x="1521.8436" y="-570.9" font-family="Arial" font-size="14.00" fill="#666666">[bigint]</text>
<polygon fill="none" stroke="#000000" points="1351.5,-529.5 1351.5,-559.5 1686.5,-559.5 1686.5,-529.5 1351.5,-529.5"/>
<text text-anchor="start" x="1358.5" y="-540.9" font-family="Arial" font-size="14.00" fill="#000000">user_id    </text>
<text text-anchor="start" x="1438.6024" y="-540.9" font-family="Arial" font-size="14.00" fill="#666666">[bigint]</text>
<polygon fill="none" stroke="#000000" points="1351.5,-499.5 1351.5,-529.5 1686.5,-529.5 1686.5,-499.5 1351.5,-499.5"/>
<text text-anchor="start" x="1358.5" y="-510.9" font-family="Arial" font-size="14.00" fill="#000000">token    </text>
<text text-anchor="start" x="1426.9432" y="-510.9" font-family="Arial" font-size="14.00" fill="#666666">[varchar(255)]</text>
<polygon fill="none" stroke="#000000" points="1351.5,-469.5 1351.5,-499.5 1686.5,-499.5 1686.5,-469.5 1351.5,-469.5"/>
<text text-anchor="start" x="1358.5" y="-480.9" font-family="Arial" font-size="14.00" fill="#000000">created_at    </text>
<text text-anchor="start" x="1458.8422" y="-480.9" font-family="Arial" font-size="14.00" fill="#666666">[timestamp without time zone]</text>
<polygon fill="none" stroke="#000000" points="1351.5,-439.5 1351.5,-469.5 1686.5,-469.5 1686.5,-439.5 1351.5,-439.5"/>
<text text-anchor="start" x="1358.5" y="-450.9" font-family="Arial" font-size="14.00" fill="#000000">expired_at    </text>
<text text-anchor="start" x="1458.0582" y="-450.9" font-family="Arial" font-size="14.00" fill="#666666">[timestamp without time zone]</text>
</g>
<!-- public.jwt_refresh_token&#45;&gt;public.user -->
<g id="edge5" class="edge">
<title>public.jwt_refresh_token:user_id&#45;&gt;public.user:user_id</title>
<path fill="none" stroke="#000000" d="M1341.3778,-543.8189C1276.3451,-534.273 1349.6965,-426.6819 1298.5,-367 1211.0638,-265.0719 1159.7923,-237.5 1025.5,-237.5"/>
<polygon fill="#000000" stroke="#000000" points="1341.5226,-543.8286 1351.1979,-548.9898 1346.5113,-544.1643 1351.5,-544.5 1351.5,-544.5 1351.5,-544.5 1346.5113,-544.1643 1351.8021,-540.0102 1341.5226,-543.8286 1341.5226,-543.8286"/>
</g>
<!-- public.client_application -->
<g id="node8" class="node">
<title>public.client_application</title>
<polygon fill="#efefef" stroke="transparent" points="2263.5,-619.5 2263.5,-654.5 2594.5,-654.5 2594.5,-619.5 2263.5,-619.5"/>
<polygon fill="none" stroke="#000000" points="2263.5,-619.5 2263.5,-654.5 2594.5,-654.5 2594.5,-619.5 2263.5,-619.5"/>
<text text-anchor="start" x="2270.1958" y="-632.3" font-family="Arial Bold" font-size="18.00" fill="#000000">public.client_application</text>
<text text-anchor="start" x="2460.2362" y="-632.3" font-family="Arial" font-size="14.00" fill="#000000">    </text>
<text text-anchor="start" x="2494.441" y="-632.3" font-family="Arial" font-size="14.00" fill="#666666">[BASE TABLE]</text>
<polygon fill="none" stroke="#000000" points="2263.5,-589.5 2263.5,-619.5 2594.5,-619.5 2594.5,-589.5 2263.5,-589.5"/>
<text text-anchor="start" x="2270.5" y="-600.9" font-family="Arial" font-size="14.00" fill="#000000">client_application_id    </text>
<text text-anchor="start" x="2430.7342" y="-600.9" font-family="Arial" font-size="14.00" fill="#666666">[bigint]</text>
<polygon fill="none" stroke="#000000" points="2263.5,-559.5 2263.5,-589.5 2594.5,-589.5 2594.5,-559.5 2263.5,-559.5"/>
<text text-anchor="start" x="2270.5" y="-570.9" font-family="Arial" font-size="14.00" fill="#000000">name    </text>
<text text-anchor="start" x="2339.7132" y="-570.9" font-family="Arial" font-size="14.00" fill="#666666">[varchar(255)]</text>
<polygon fill="none" stroke="#000000" points="2263.5,-529.5 2263.5,-559.5 2594.5,-559.5 2594.5,-529.5 2263.5,-529.5"/>
<text text-anchor="start" x="2270.5" y="-540.9" font-family="Arial" font-size="14.00" fill="#000000">client_id    </text>
<text text-anchor="start" x="2356.0456" y="-540.9" font-family="Arial" font-size="14.00" fill="#666666">[varchar(255)]</text>
<polygon fill="none" stroke="#000000" points="2263.5,-499.5 2263.5,-529.5 2594.5,-529.5 2594.5,-499.5 2263.5,-499.5"/>
<text text-anchor="start" x="2270.5" y="-510.9" font-family="Arial" font-size="14.00" fill="#000000">client_secret    </text>
<text text-anchor="start" x="2383.2728" y="-510.9" font-family="Arial" font-size="14.00" fill="#666666">[varchar(255)]</text>
<polygon fill="none" stroke="#000000" points="2263.5,-469.5 2263.5,-499.5 2594.5,-499.5 2594.5,-469.5 2263.5,-469.5"/>
<text text-anchor="start" x="2270.5" y="-480.9" font-family="Arial" font-size="14.00" fill="#000000">redirect_uri    </text>
<text text-anchor="start" x="2374.7034" y="-480.9" font-family="Arial" font-size="14.00" fill="#666666">[varchar(255)]</text>
<polygon fill="none" stroke="#000000" points="2263.5,-439.5 2263.5,-469.5 2594.5,-469.5 2594.5,-439.5 2263.5,-439.5"/>
<text text-anchor="start" x="2270.5" y="-450.9" font-family="Arial" font-size="14.00" fill="#000000">created_at    </text>
<text text-anchor="start" x="2370.8422" y="-450.9" font-family="Arial" font-size="14.00" fill="#666666">[timestamp without time zone]</text>
<polygon fill="none" stroke="#000000" points="2263.5,-409.5 2263.5,-439.5 2594.5,-439.5 2594.5,-409.5 2263.5,-409.5"/>
<text text-anchor="start" x="2270.5" y="-420.9" font-family="Arial" font-size="14.00" fill="#000000">updated_at    </text>
<text text-anchor="start" x="2374.7468" y="-420.9" font-family="Arial" font-size="14.00" fill="#666666">[timestamp without time zone]</text>
</g>
</g>
</svg>
