<?xml version="1.0" encoding="UTF-8" standalone="no"?>
<!DOCTYPE svg PUBLIC "-//W3C//DTD SVG 1.1//EN"
 "http://www.w3.org/Graphics/SVG/1.1/DTD/svg11.dtd">
<!-- Generated by graphviz version 2.40.1 (20161225.0304)
 -->
<!-- Title: meower_auth Pages: 1 -->
<svg width="2645pt" height="676pt"
 viewBox="0.00 0.00 2645.00 676.00" xmlns="http://www.w3.org/2000/svg" xmlns:xlink="http://www.w3.org/1999/xlink">
<g id="graph0" class="graph" transform="scale(1 1) rotate(0) translate(4 672)">
<title>meower_auth</title>
<polygon fill="#ffffff" stroke="transparent" points="-4,4 -4,-672 2641,-672 2641,4 -4,4"/>
<!-- public.user -->
<g id="node1" class="node">
<title>public.user</title>
<polygon fill="#efefef" stroke="transparent" points="710.5,-222.5 710.5,-257.5 1013.5,-257.5 1013.5,-222.5 710.5,-222.5"/>
<polygon fill="none" stroke="#000000" points="710.5,-222.5 710.5,-257.5 1013.5,-257.5 1013.5,-222.5 710.5,-222.5"/>
<text text-anchor="start" x="754.7091" y="-235.3" font-family="Arial Bold" font-size="18.00" fill="#000000">public.user</text>
<text text-anchor="start" x="841.7229" y="-235.3" font-family="Arial" font-size="14.00" fill="#000000">    </text>
<text text-anchor="start" x="875.9277" y="-235.3" font-family="Arial" font-size="14.00" fill="#666666">[BASE TABLE]</text>
<polygon fill="none" stroke="#000000" points="710.5,-192.5 710.5,-222.5 1013.5,-222.5 1013.5,-192.5 710.5,-192.5"/>
<text text-anchor="start" x="717.5" y="-203.9" font-family="Arial" font-size="14.00" fill="#000000">user_id    </text>
<text text-anchor="start" x="797.6024" y="-203.9" font-family="Arial" font-size="14.00" fill="#666666">[bigint]</text>
<polygon fill="none" stroke="#000000" points="710.5,-162.5 710.5,-192.5 1013.5,-192.5 1013.5,-162.5 710.5,-162.5"/>
<text text-anchor="start" x="717.5" y="-173.9" font-family="Arial" font-size="14.00" fill="#000000">email    </text>
<text text-anchor="start" x="785.1438" y="-173.9" font-family="Arial" font-size="14.00" fill="#666666">[varchar(255)]</text>
<polygon fill="none" stroke="#000000" points="710.5,-132.5 710.5,-162.5 1013.5,-162.5 1013.5,-132.5 710.5,-132.5"/>
<text text-anchor="start" x="717.5" y="-143.9" font-family="Arial" font-size="14.00" fill="#000000">jwt_subject    </text>
<text text-anchor="start" x="820.9362" y="-143.9" font-family="Arial" font-size="14.00" fill="#666666">[varchar(255)]</text>
<polygon fill="none" stroke="#000000" points="710.5,-102.5 710.5,-132.5 1013.5,-132.5 1013.5,-102.5 710.5,-102.5"/>
<text text-anchor="start" x="717.5" y="-113.9" font-family="Arial" font-size="14.00" fill="#000000">created_at    </text>
<text text-anchor="start" x="817.8422" y="-113.9" font-family="Arial" font-size="14.00" fill="#666666">[timestamp without time zone]</text>
<polygon fill="none" stroke="#000000" points="710.5,-72.5 710.5,-102.5 1013.5,-102.5 1013.5,-72.5 710.5,-72.5"/>
<text text-anchor="start" x="717.3065" y="-83.9" font-family="Arial" font-size="14.00" fill="#000000">updated_at    </text>
<text text-anchor="start" x="821.5533" y="-83.9" font-family="Arial" font-size="14.00" fill="#666666">[timestamp without time zone]</text>
<polygon fill="none" stroke="#000000" points="710.5,-42.5 710.5,-72.5 1013.5,-72.5 1013.5,-42.5 710.5,-42.5"/>
<text text-anchor="start" x="717.5" y="-53.9" font-family="Arial" font-size="14.00" fill="#000000">is_deleted    </text>
<text text-anchor="start" x="815.5042" y="-53.9" font-family="Arial" font-size="14.00" fill="#666666">[boolean]</text>
</g>
<!-- public.user_auth -->
<g id="node2" class="node">
<title>public.user_auth</title>
<polygon fill="#efefef" stroke="transparent" points="43.5,-559.5 43.5,-594.5 346.5,-594.5 346.5,-559.5 43.5,-559.5"/>
<polygon fill="none" stroke="#000000" points="43.5,-559.5 43.5,-594.5 346.5,-594.5 346.5,-559.5 43.5,-559.5"/>
<text text-anchor="start" x="65.1956" y="-572.3" font-family="Arial Bold" font-size="18.00" fill="#000000">public.user_auth</text>
<text text-anchor="start" x="197.2364" y="-572.3" font-family="Arial" font-size="14.00" fill="#000000">    </text>
<text text-anchor="start" x="231.4412" y="-572.3" font-family="Arial" font-size="14.00" fill="#666666">[BASE TABLE]</text>
<polygon fill="none" stroke="#000000" points="43.5,-529.5 43.5,-559.5 346.5,-559.5 346.5,-529.5 43.5,-529.5"/>
<text text-anchor="start" x="50.5" y="-540.9" font-family="Arial" font-size="14.00" fill="#000000">user_auth_id    </text>
<text text-anchor="start" x="165.6234" y="-540.9" font-family="Arial" font-size="14.00" fill="#666666">[bigint]</text>
<polygon fill="none" stroke="#000000" points="43.5,-499.5 43.5,-529.5 346.5,-529.5 346.5,-499.5 43.5,-499.5"/>
<text text-anchor="start" x="50.5" y="-510.9" font-family="Arial" font-size="14.00" fill="#000000">user_id    </text>
<text text-anchor="start" x="130.6024" y="-510.9" font-family="Arial" font-size="14.00" fill="#666666">[bigint]</text>
<polygon fill="none" stroke="#000000" points="43.5,-469.5 43.5,-499.5 346.5,-499.5 346.5,-469.5 43.5,-469.5"/>
<text text-anchor="start" x="50.5" y="-480.9" font-family="Arial" font-size="14.00" fill="#000000">password    </text>
<text text-anchor="start" x="144.6024" y="-480.9" font-family="Arial" font-size="14.00" fill="#666666">[varchar(255)]</text>
<polygon fill="none" stroke="#000000" points="43.5,-439.5 43.5,-469.5 346.5,-469.5 346.5,-439.5 43.5,-439.5"/>
<text text-anchor="start" x="50.5" y="-450.9" font-family="Arial" font-size="14.00" fill="#000000">created_at    </text>
<text text-anchor="start" x="150.8422" y="-450.9" font-family="Arial" font-size="14.00" fill="#666666">[timestamp without time zone]</text>
<polygon fill="none" stroke="#000000" points="43.5,-409.5 43.5,-439.5 346.5,-439.5 346.5,-409.5 43.5,-409.5"/>
<text text-anchor="start" x="50.3065" y="-420.9" font-family="Arial" font-size="14.00" fill="#000000">updated_at    </text>
<text text-anchor="start" x="154.5533" y="-420.9" font-family="Arial" font-size="14.00" fill="#666666">[timestamp without time zone]</text>
</g>
<!-- public.user_auth&#45;&gt;public.user -->
<g id="edge1" class="edge">
<title>public.user_auth:user_id&#45;&gt;public.user:user_id</title>
<path fill="none" stroke="#000000" d="M356.5934,-513.8114C421.3416,-504.1617 346.0741,-395.4432 398.5,-337 498.7534,-225.2398 560.3631,-207.5 710.5,-207.5"/>
<polygon fill="#000000" stroke="#000000" points="356.4768,-513.8193 346.1937,-510.0104 351.4884,-514.1596 346.5,-514.5 346.5,-514.5 346.5,-514.5 351.4884,-514.1596 346.8063,-518.9896 356.4768,-513.8193 356.4768,-513.8193"/>
</g>
<!-- public.temporary_user -->
<g id="node3" class="node">
<title>public.temporary_user</title>
<polygon fill="#efefef" stroke="transparent" points="1814.5,-207.5 1814.5,-242.5 2133.5,-242.5 2133.5,-207.5 1814.5,-207.5"/>
<polygon fill="none" stroke="#000000" points="1814.5,-207.5 1814.5,-242.5 2133.5,-242.5 2133.5,-207.5 1814.5,-207.5"/>
<text text-anchor="start" x="1821.2042" y="-220.3" font-family="Arial Bold" font-size="18.00" fill="#000000">public.temporary_user</text>
<text text-anchor="start" x="1999.2278" y="-220.3" font-family="Arial" font-size="14.00" fill="#000000">    </text>
<text text-anchor="start" x="2033.4326" y="-220.3" font-family="Arial" font-size="14.00" fill="#666666">[BASE TABLE]</text>
<polygon fill="none" stroke="#000000" points="1814.5,-177.5 1814.5,-207.5 2133.5,-207.5 2133.5,-177.5 1814.5,-177.5"/>
<text text-anchor="start" x="1821.5" y="-188.9" font-family="Arial" font-size="14.00" fill="#000000">temporary_user_id    </text>
<text text-anchor="start" x="1972.3878" y="-188.9" font-family="Arial" font-size="14.00" fill="#666666">[bigint]</text>
<polygon fill="none" stroke="#000000" points="1814.5,-147.5 1814.5,-177.5 2133.5,-177.5 2133.5,-147.5 1814.5,-147.5"/>
<text text-anchor="start" x="1821.5" y="-158.9" font-family="Arial" font-size="14.00" fill="#000000">token    </text>
<text text-anchor="start" x="1889.9432" y="-158.9" font-family="Arial" font-size="14.00" fill="#666666">[varchar(255)]</text>
<polygon fill="none" stroke="#000000" points="1814.5,-117.5 1814.5,-147.5 2133.5,-147.5 2133.5,-117.5 1814.5,-117.5"/>
<text text-anchor="start" x="1821.5" y="-128.9" font-family="Arial" font-size="14.00" fill="#000000">email    </text>
<text text-anchor="start" x="1889.1438" y="-128.9" font-family="Arial" font-size="14.00" fill="#666666">[varchar(255)]</text>
<polygon fill="none" stroke="#000000" points="1814.5,-87.5 1814.5,-117.5 2133.5,-117.5 2133.5,-87.5 1814.5,-87.5"/>
<text text-anchor="start" x="1821.5" y="-98.9" font-family="Arial" font-size="14.00" fill="#000000">password    </text>
<text text-anchor="start" x="1915.6024" y="-98.9" font-family="Arial" font-size="14.00" fill="#666666">[varchar(255)]</text>
<polygon fill="none" stroke="#000000" points="1814.5,-57.5 1814.5,-87.5 2133.5,-87.5 2133.5,-57.5 1814.5,-57.5"/>
<text text-anchor="start" x="1821.5" y="-68.9" font-family="Arial" font-size="14.00" fill="#000000">created_at    </text>
<text text-anchor="start" x="1921.8422" y="-68.9" font-family="Arial" font-size="14.00" fill="#666666">[timestamp without time zone]</text>
</g>
<!-- public.temporary_user_code -->
<g id="node4" class="node">
<title>public.temporary_user_code</title>
<polygon fill="#efefef" stroke="transparent" points="1790.5,-559.5 1790.5,-594.5 2158.5,-594.5 2158.5,-559.5 1790.5,-559.5"/>
<polygon fill="none" stroke="#000000" points="1790.5,-559.5 1790.5,-594.5 2158.5,-594.5 2158.5,-559.5 1790.5,-559.5"/>
<text text-anchor="start" x="1797.1918" y="-572.3" font-family="Arial Bold" font-size="18.00" fill="#000000">public.temporary_user_code</text>
<text text-anchor="start" x="2024.2402" y="-572.3" font-family="Arial" font-size="14.00" fill="#000000">    </text>
<text text-anchor="start" x="2058.445" y="-572.3" font-family="Arial" font-size="14.00" fill="#666666">[BASE TABLE]</text>
<polygon fill="none" stroke="#000000" points="1790.5,-529.5 1790.5,-559.5 2158.5,-559.5 2158.5,-529.5 1790.5,-529.5"/>
<text text-anchor="start" x="1797.5" y="-540.9" font-family="Arial" font-size="14.00" fill="#000000">temporary_user_code_id    </text>
<text text-anchor="start" x="1986.5182" y="-540.9" font-family="Arial" font-size="14.00" fill="#666666">[bigint]</text>
<polygon fill="none" stroke="#000000" points="1790.5,-499.5 1790.5,-529.5 2158.5,-529.5 2158.5,-499.5 1790.5,-499.5"/>
<text text-anchor="start" x="1797.5" y="-510.9" font-family="Arial" font-size="14.00" fill="#000000">temporary_user_id    </text>
<text text-anchor="start" x="1948.3878" y="-510.9" font-family="Arial" font-size="14.00" fill="#666666">[bigint]</text>
<polygon fill="none" stroke="#000000" points="1790.5,-469.5 1790.5,-499.5 2158.5,-499.5 2158.5,-469.5 1790.5,-469.5"/>
<text text-anchor="start" x="1797.5" y="-480.9" font-family="Arial" font-size="14.00" fill="#000000">code    </text>
<text text-anchor="start" x="1862.0526" y="-480.9" font-family="Arial" font-size="14.00" fill="#666666">[varchar(255)]</text>
<polygon fill="none" stroke="#000000" points="1790.5,-439.5 1790.5,-469.5 2158.5,-469.5 2158.5,-439.5 1790.5,-439.5"/>
<text text-anchor="start" x="1797.5" y="-450.9" font-family="Arial" font-size="14.00" fill="#000000">created_at    </text>
<text text-anchor="start" x="1897.8422" y="-450.9" font-family="Arial" font-size="14.00" fill="#666666">[timestamp without time zone]</text>
<polygon fill="none" stroke="#000000" points="1790.5,-409.5 1790.5,-439.5 2158.5,-439.5 2158.5,-409.5 1790.5,-409.5"/>
<text text-anchor="start" x="1797.5" y="-420.9" font-family="Arial" font-size="14.00" fill="#000000">expired_at    </text>
<text text-anchor="start" x="1897.0582" y="-420.9" font-family="Arial" font-size="14.00" fill="#666666">[timestamp without time zone]</text>
</g>
<!-- public.temporary_user_code&#45;&gt;public.temporary_user -->
<g id="edge2" class="edge">
<title>public.temporary_user_code:temporary_user_id&#45;&gt;public.temporary_user:temporary_user_id</title>
<path fill="none" stroke="#000000" d="M1780.2175,-513.6007C1727.813,-503.7578 1752.1235,-415.4947 1790.5,-367 1887.7017,-244.1703 2036.2983,-408.8297 2133.5,-286 2159.2874,-253.4136 2175.0556,-192.5 2133.5,-192.5"/>
<polygon fill="#000000" stroke="#000000" points="1780.538,-513.6287 1790.1079,-518.9829 1785.519,-514.0643 1790.5,-514.5 1790.5,-514.5 1790.5,-514.5 1785.519,-514.0643 1790.8921,-510.0171 1780.538,-513.6287 1780.538,-513.6287"/>
</g>
<!-- public.reset_password_token -->
<g id="node5" class="node">
<title>public.reset_password_token</title>
<polygon fill="#efefef" stroke="transparent" points="450.5,-559.5 450.5,-594.5 824.5,-594.5 824.5,-559.5 450.5,-559.5"/>
<polygon fill="none" stroke="#000000" points="450.5,-559.5 450.5,-594.5 824.5,-594.5 824.5,-559.5 450.5,-559.5"/>
<text text-anchor="start" x="457.1858" y="-572.3" font-family="Arial Bold" font-size="18.00" fill="#000000">public.reset_password_token</text>
<text text-anchor="start" x="690.2462" y="-572.3" font-family="Arial" font-size="14.00" fill="#000000">    </text>
<text text-anchor="start" x="724.451" y="-572.3" font-family="Arial" font-size="14.00" fill="#666666">[BASE TABLE]</text>
<polygon fill="none" stroke="#000000" points="450.5,-529.5 450.5,-559.5 824.5,-559.5 824.5,-529.5 450.5,-529.5"/>
<text text-anchor="start" x="457.5" y="-540.9" font-family="Arial" font-size="14.00" fill="#000000">reset_password_token_id    </text>
<text text-anchor="start" x="651.1942" y="-540.9" font-family="Arial" font-size="14.00" fill="#666666">[bigint]</text>
<polygon fill="none" stroke="#000000" points="450.5,-499.5 450.5,-529.5 824.5,-529.5 824.5,-499.5 450.5,-499.5"/>
<text text-anchor="start" x="457.5" y="-510.9" font-family="Arial" font-size="14.00" fill="#000000">user_id    </text>
<text text-anchor="start" x="537.6024" y="-510.9" font-family="Arial" font-size="14.00" fill="#666666">[bigint]</text>
<polygon fill="none" stroke="#000000" points="450.5,-469.5 450.5,-499.5 824.5,-499.5 824.5,-469.5 450.5,-469.5"/>
<text text-anchor="start" x="457.5" y="-480.9" font-family="Arial" font-size="14.00" fill="#000000">token    </text>
<text text-anchor="start" x="525.9432" y="-480.9" font-family="Arial" font-size="14.00" fill="#666666">[varchar(255)]</text>
<polygon fill="none" stroke="#000000" points="450.5,-439.5 450.5,-469.5 824.5,-469.5 824.5,-439.5 450.5,-439.5"/>
<text text-anchor="start" x="457.5" y="-450.9" font-family="Arial" font-size="14.00" fill="#000000">created_at    </text>
<text text-anchor="start" x="557.8422" y="-450.9" font-family="Arial" font-size="14.00" fill="#666666">[timestamp without time zone]</text>
<polygon fill="none" stroke="#000000" points="450.5,-409.5 450.5,-439.5 824.5,-439.5 824.5,-409.5 450.5,-409.5"/>
<text text-anchor="start" x="457.5" y="-420.9" font-family="Arial" font-size="14.00" fill="#000000">expired_at    </text>
<text text-anchor="start" x="557.0582" y="-420.9" font-family="Arial" font-size="14.00" fill="#666666">[timestamp without time zone]</text>
</g>
<!-- public.reset_password_token&#45;&gt;public.user -->
<g id="edge3" class="edge">
<title>public.reset_password_token:user_id&#45;&gt;public.user:user_id</title>
<path fill="none" stroke="#000000" d="M834.7105,-513.6496C886.3388,-504.3333 855.3892,-420.5756 824.5,-367 795.2577,-316.2807 739.7423,-351.7193 710.5,-301 689.7438,-264.9994 668.9444,-207.5 710.5,-207.5"/>
<polygon fill="#000000" stroke="#000000" points="834.4655,-513.6699 824.1265,-510.0155 829.4827,-514.085 824.5,-514.5 824.5,-514.5 824.5,-514.5 829.4827,-514.085 824.8735,-518.9845 834.4655,-513.6699 834.4655,-513.6699"/>
</g>
<!-- public.jwt_token_code -->
<g id="node6" class="node">
<title>public.jwt_token_code</title>
<polygon fill="#efefef" stroke="transparent" points="928.5,-559.5 928.5,-594.5 1246.5,-594.5 1246.5,-559.5 928.5,-559.5"/>
<polygon fill="none" stroke="#000000" points="928.5,-559.5 928.5,-594.5 1246.5,-594.5 1246.5,-559.5 928.5,-559.5"/>
<text text-anchor="start" x="935.1902" y="-572.3" font-family="Arial Bold" font-size="18.00" fill="#000000">public.jwt_token_code</text>
<text text-anchor="start" x="1112.2418" y="-572.3" font-family="Arial" font-size="14.00" fill="#000000">    </text>
<text text-anchor="start" x="1146.4466" y="-572.3" font-family="Arial" font-size="14.00" fill="#666666">[BASE TABLE]</text>
<polygon fill="none" stroke="#000000" points="928.5,-529.5 928.5,-559.5 1246.5,-559.5 1246.5,-529.5 928.5,-529.5"/>
<text text-anchor="start" x="935.5" y="-540.9" font-family="Arial" font-size="14.00" fill="#000000">jwt_token_code_id    </text>
<text text-anchor="start" x="1085.6318" y="-540.9" font-family="Arial" font-size="14.00" fill="#666666">[bigint]</text>
<polygon fill="none" stroke="#000000" points="928.5,-499.5 928.5,-529.5 1246.5,-529.5 1246.5,-499.5 928.5,-499.5"/>
<text text-anchor="start" x="935.5" y="-510.9" font-family="Arial" font-size="14.00" fill="#000000">user_id    </text>
<text text-anchor="start" x="1015.6024" y="-510.9" font-family="Arial" font-size="14.00" fill="#666666">[bigint]</text>
<polygon fill="none" stroke="#000000" points="928.5,-469.5 928.5,-499.5 1246.5,-499.5 1246.5,-469.5 928.5,-469.5"/>
<text text-anchor="start" x="935.5" y="-480.9" font-family="Arial" font-size="14.00" fill="#000000">code    </text>
<text text-anchor="start" x="1000.0526" y="-480.9" font-family="Arial" font-size="14.00" fill="#666666">[varchar(255)]</text>
<polygon fill="none" stroke="#000000" points="928.5,-439.5 928.5,-469.5 1246.5,-469.5 1246.5,-439.5 928.5,-439.5"/>
<text text-anchor="start" x="935.5" y="-450.9" font-family="Arial" font-size="14.00" fill="#000000">created_at    </text>
<text text-anchor="start" x="1035.8422" y="-450.9" font-family="Arial" font-size="14.00" fill="#666666">[timestamp without time zone]</text>
<polygon fill="none" stroke="#000000" points="928.5,-409.5 928.5,-439.5 1246.5,-439.5 1246.5,-409.5 928.5,-409.5"/>
<text text-anchor="start" x="935.5" y="-420.9" font-family="Arial" font-size="14.00" fill="#000000">expired_at    </text>
<text text-anchor="start" x="1035.0582" y="-420.9" font-family="Arial" font-size="14.00" fill="#666666">[timestamp without time zone]</text>
</g>
<!-- public.jwt_token_code&#45;&gt;public.user -->
<g id="edge4" class="edge">
<title>public.jwt_token_code:user_id&#45;&gt;public.user:user_id</title>
<path fill="none" stroke="#000000" d="M918.3251,-513.6686C867.0799,-504.5562 901.3068,-422.5429 928.5,-367 949.5312,-324.0431 992.4688,-343.9569 1013.5,-301 1031.7727,-263.6775 1055.0556,-207.5 1013.5,-207.5"/>
<polygon fill="#000000" stroke="#000000" points="918.5332,-513.6855 928.1335,-518.9851 923.5166,-514.0927 928.5,-514.5 928.5,-514.5 928.5,-514.5 923.5166,-514.0927 928.8665,-510.0149 918.5332,-513.6855 918.5332,-513.6855"/>
</g>
<!-- public.jwt_refresh_token -->
<g id="node7" class="node">
<title>public.jwt_refresh_token</title>
<polygon fill="#efefef" stroke="transparent" points="1351.5,-559.5 1351.5,-594.5 1686.5,-594.5 1686.5,-559.5 1351.5,-559.5"/>
<polygon fill="none" stroke="#000000" points="1351.5,-559.5 1351.5,-594.5 1686.5,-594.5 1686.5,-559.5 1351.5,-559.5"/>
<text text-anchor="start" x="1358.1969" y="-572.3" font-family="Arial Bold" font-size="18.00" fill="#000000">public.jwt_refresh_token</text>
<text text-anchor="start" x="1552.2351" y="-572.3" font-family="Arial" font-size="14.00" fill="#000000">    </text>
<text text-anchor="start" x="1586.4399" y="-572.3" font-family="Arial" font-size="14.00" fill="#666666">[BASE TABLE]</text>
<polygon fill="none" stroke="#000000" points="1351.5,-529.5 1351.5,-559.5 1686.5,-559.5 1686.5,-529.5 1351.5,-529.5"/>
<text text-anchor="start" x="1358.5" y="-540.9" font-family="Arial" font-size="14.00" fill="#000000">jwt_refresh_token_id    </text>
<text text-anchor="start" x="1521.8436" y="-540.9" font-family="Arial" font-size="14.00" fill="#666666">[bigint]</text>
<polygon fill="none" stroke="#000000" points="1351.5,-499.5 1351.5,-529.5 1686.5,-529.5 1686.5,-499.5 1351.5,-499.5"/>
<text text-anchor="start" x="1358.5" y="-510.9" font-family="Arial" font-size="14.00" fill="#000000">user_id    </text>
<text text-anchor="start" x="1438.6024" y="-510.9" font-family="Arial" font-size="14.00" fill="#666666">[bigint]</text>
<polygon fill="none" stroke="#000000" points="1351.5,-469.5 1351.5,-499.5 1686.5,-499.5 1686.5,-469.5 1351.5,-469.5"/>
<text text-anchor="start" x="1358.5" y="-480.9" font-family="Arial" font-size="14.00" fill="#000000">token    </text>
<text text-anchor="start" x="1426.9432" y="-480.9" font-family="Arial" font-size="14.00" fill="#666666">[varchar(255)]</text>
<polygon fill="none" stroke="#000000" points="1351.5,-439.5 1351.5,-469.5 1686.5,-469.5 1686.5,-439.5 1351.5,-439.5"/>
<text text-anchor="start" x="1358.5" y="-450.9" font-family="Arial" font-size="14.00" fill="#000000">created_at    </text>
<text text-anchor="start" x="1458.8422" y="-450.9" font-family="Arial" font-size="14.00" fill="#666666">[timestamp without time zone]</text>
<polygon fill="none" stroke="#000000" points="1351.5,-409.5 1351.5,-439.5 1686.5,-439.5 1686.5,-409.5 1351.5,-409.5"/>
<text text-anchor="start" x="1358.5" y="-420.9" font-family="Arial" font-size="14.00" fill="#000000">expired_at    </text>
<text text-anchor="start" x="1458.0582" y="-420.9" font-family="Arial" font-size="14.00" fill="#666666">[timestamp without time zone]</text>
</g>
<!-- public.jwt_refresh_token&#45;&gt;public.user -->
<g id="edge5" class="edge">
<title>public.jwt_refresh_token:user_id&#45;&gt;public.user:user_id</title>
<path fill="none" stroke="#000000" d="M1341.3808,-513.8164C1276.389,-504.235 1350.185,-396.2593 1298.5,-337 1207.0498,-232.148 1152.6297,-207.5 1013.5,-207.5"/>
<polygon fill="#000000" stroke="#000000" points="1341.5227,-513.8259 1351.1966,-518.9898 1346.5114,-514.1629 1351.5,-514.5 1351.5,-514.5 1351.5,-514.5 1346.5114,-514.1629 1351.8034,-510.0102 1341.5227,-513.8259 1341.5227,-513.8259"/>
</g>
<!-- public.client_application -->
<g id="node8" class="node">
<title>public.client_application</title>
<polygon fill="#efefef" stroke="transparent" points="2263.5,-589.5 2263.5,-624.5 2594.5,-624.5 2594.5,-589.5 2263.5,-589.5"/>
<polygon fill="none" stroke="#000000" points="2263.5,-589.5 2263.5,-624.5 2594.5,-624.5 2594.5,-589.5 2263.5,-589.5"/>
<text text-anchor="start" x="2270.1958" y="-602.3" font-family="Arial Bold" font-size="18.00" fill="#000000">public.client_application</text>
<text text-anchor="start" x="2460.2362" y="-602.3" font-family="Arial" font-size="14.00" fill="#000000">    </text>
<text text-anchor="start" x="2494.441" y="-602.3" font-family="Arial" font-size="14.00" fill="#666666">[BASE TABLE]</text>
<polygon fill="none" stroke="#000000" points="2263.5,-559.5 2263.5,-589.5 2594.5,-589.5 2594.5,-559.5 2263.5,-559.5"/>
<text text-anchor="start" x="2270.5" y="-570.9" font-family="Arial" font-size="14.00" fill="#000000">client_application_id    </text>
<text text-anchor="start" x="2430.7342" y="-570.9" font-family="Arial" font-size="14.00" fill="#666666">[bigint]</text>
<polygon fill="none" stroke="#000000" points="2263.5,-529.5 2263.5,-559.5 2594.5,-559.5 2594.5,-529.5 2263.5,-529.5"/>
<text text-anchor="start" x="2270.5" y="-540.9" font-family="Arial" font-size="14.00" fill="#000000">name    </text>
<text text-anchor="start" x="2339.7132" y="-540.9" font-family="Arial" font-size="14.00" fill="#666666">[varchar(255)]</text>
<polygon fill="none" stroke="#000000" points="2263.5,-499.5 2263.5,-529.5 2594.5,-529.5 2594.5,-499.5 2263.5,-499.5"/>
<text text-anchor="start" x="2270.5" y="-510.9" font-family="Arial" font-size="14.00" fill="#000000">client_id    </text>
<text text-anchor="start" x="2356.0456" y="-510.9" font-family="Arial" font-size="14.00" fill="#666666">[varchar(255)]</text>
<polygon fill="none" stroke="#000000" points="2263.5,-469.5 2263.5,-499.5 2594.5,-499.5 2594.5,-469.5 2263.5,-469.5"/>
<text text-anchor="start" x="2270.5" y="-480.9" font-family="Arial" font-size="14.00" fill="#000000">client_secret    </text>
<text text-anchor="start" x="2383.2728" y="-480.9" font-family="Arial" font-size="14.00" fill="#666666">[varchar(255)]</text>
<polygon fill="none" stroke="#000000" points="2263.5,-439.5 2263.5,-469.5 2594.5,-469.5 2594.5,-439.5 2263.5,-439.5"/>
<text text-anchor="start" x="2270.5" y="-450.9" font-family="Arial" font-size="14.00" fill="#000000">redirect_uri    </text>
<text text-anchor="start" x="2374.7034" y="-450.9" font-family="Arial" font-size="14.00" fill="#666666">[varchar(255)]</text>
<polygon fill="none" stroke="#000000" points="2263.5,-409.5 2263.5,-439.5 2594.5,-439.5 2594.5,-409.5 2263.5,-409.5"/>
<text text-anchor="start" x="2270.5" y="-420.9" font-family="Arial" font-size="14.00" fill="#000000">created_at    </text>
<text text-anchor="start" x="2370.8422" y="-420.9" font-family="Arial" font-size="14.00" fill="#666666">[timestamp without time zone]</text>
<polygon fill="none" stroke="#000000" points="2263.5,-379.5 2263.5,-409.5 2594.5,-409.5 2594.5,-379.5 2263.5,-379.5"/>
<text text-anchor="start" x="2270.5" y="-390.9" font-family="Arial" font-size="14.00" fill="#000000">updated_at    </text>
<text text-anchor="start" x="2374.7468" y="-390.9" font-family="Arial" font-size="14.00" fill="#666666">[timestamp without time zone]</text>
</g>
</g>
</svg>
