<?xml version="1.0" encoding="UTF-8" standalone="no"?>
<!DOCTYPE svg PUBLIC "-//W3C//DTD SVG 1.1//EN"
 "http://www.w3.org/Graphics/SVG/1.1/DTD/svg11.dtd">
<!-- Generated by graphviz version 2.40.1 (20161225.0304)
 -->
<!-- Title: public.user Pages: 1 -->
<svg width="1283pt" height="652pt"
 viewBox="0.00 0.00 1282.50 652.00" xmlns="http://www.w3.org/2000/svg" xmlns:xlink="http://www.w3.org/1999/xlink">
<g id="graph0" class="graph" transform="scale(1 1) rotate(0) translate(4 648)">
<title>public.user</title>
<polygon fill="#ffffff" stroke="transparent" points="-4,4 -4,-648 1278.5,-648 1278.5,4 -4,4"/>
<!-- public.user -->
<g id="node1" class="node">
<title>public.user</title>
<polygon fill="#efefef" stroke="transparent" points="465.5,-195.5 465.5,-230.5 738.5,-230.5 738.5,-195.5 465.5,-195.5"/>
<polygon fill="none" stroke="#000000" points="465.5,-195.5 465.5,-230.5 738.5,-230.5 738.5,-195.5 465.5,-195.5"/>
<text text-anchor="start" x="494.7091" y="-208.3" font-family="Arial Bold" font-size="18.00" fill="#000000">public.user</text>
<text text-anchor="start" x="581.7229" y="-208.3" font-family="Arial" font-size="14.00" fill="#000000">    </text>
<text text-anchor="start" x="615.9277" y="-208.3" font-family="Arial" font-size="14.00" fill="#666666">[BASE TABLE]</text>
<polygon fill="none" stroke="#000000" points="465.5,-165.5 465.5,-195.5 738.5,-195.5 738.5,-165.5 465.5,-165.5"/>
<text text-anchor="start" x="472.5" y="-176.9" font-family="Arial" font-size="14.00" fill="#000000">user_id </text>
<text text-anchor="start" x="522.2882" y="-176.9" font-family="Arial" font-size="14.00" fill="#666666">[bigint]</text>
<polygon fill="none" stroke="#000000" points="465.5,-135.5 465.5,-165.5 738.5,-165.5 738.5,-135.5 465.5,-135.5"/>
<text text-anchor="start" x="472.5" y="-146.9" font-family="Arial" font-size="14.00" fill="#000000">email </text>
<text text-anchor="start" x="509.8296" y="-146.9" font-family="Arial" font-size="14.00" fill="#666666">[varchar(255)]</text>
<polygon fill="none" stroke="#000000" points="465.5,-105.5 465.5,-135.5 738.5,-135.5 738.5,-105.5 465.5,-105.5"/>
<text text-anchor="start" x="472.5" y="-116.9" font-family="Arial" font-size="14.00" fill="#000000">created_at </text>
<text text-anchor="start" x="542.528" y="-116.9" font-family="Arial" font-size="14.00" fill="#666666">[timestamp without time zone]</text>
<polygon fill="none" stroke="#000000" points="465.5,-75.5 465.5,-105.5 738.5,-105.5 738.5,-75.5 465.5,-75.5"/>
<text text-anchor="start" x="472.4636" y="-86.9" font-family="Arial" font-size="14.00" fill="#000000">updated_at </text>
<text text-anchor="start" x="546.3962" y="-86.9" font-family="Arial" font-size="14.00" fill="#666666">[timestamp without time zone]</text>
<polygon fill="none" stroke="#000000" points="465.5,-45.5 465.5,-75.5 738.5,-75.5 738.5,-45.5 465.5,-45.5"/>
<text text-anchor="start" x="472.5" y="-56.9" font-family="Arial" font-size="14.00" fill="#000000">is_deleted </text>
<text text-anchor="start" x="540.19" y="-56.9" font-family="Arial" font-size="14.00" fill="#666666">[boolean]</text>
<polygon fill="none" stroke="#000000" stroke-width="3" points="463.5,-44.5 463.5,-232.5 739.5,-232.5 739.5,-44.5 463.5,-44.5"/>
</g>
<!-- public.user_auth -->
<g id="node2" class="node">
<title>public.user_auth</title>
<polygon fill="#efefef" stroke="transparent" points="43.5,-535.5 43.5,-570.5 346.5,-570.5 346.5,-535.5 43.5,-535.5"/>
<polygon fill="none" stroke="#000000" points="43.5,-535.5 43.5,-570.5 346.5,-570.5 346.5,-535.5 43.5,-535.5"/>
<text text-anchor="start" x="65.1956" y="-548.3" font-family="Arial Bold" font-size="18.00" fill="#000000">public.user_auth</text>
<text text-anchor="start" x="197.2364" y="-548.3" font-family="Arial" font-size="14.00" fill="#000000">    </text>
<text text-anchor="start" x="231.4412" y="-548.3" font-family="Arial" font-size="14.00" fill="#666666">[BASE TABLE]</text>
<polygon fill="none" stroke="#000000" points="43.5,-505.5 43.5,-535.5 346.5,-535.5 346.5,-505.5 43.5,-505.5"/>
<text text-anchor="start" x="50.5" y="-516.9" font-family="Arial" font-size="14.00" fill="#000000">user_auth_id    </text>
<text text-anchor="start" x="165.6234" y="-516.9" font-family="Arial" font-size="14.00" fill="#666666">[bigint]</text>
<polygon fill="none" stroke="#000000" points="43.5,-475.5 43.5,-505.5 346.5,-505.5 346.5,-475.5 43.5,-475.5"/>
<text text-anchor="start" x="50.5" y="-486.9" font-family="Arial" font-size="14.00" fill="#000000">user_id    </text>
<text text-anchor="start" x="130.6024" y="-486.9" font-family="Arial" font-size="14.00" fill="#666666">[bigint]</text>
<polygon fill="none" stroke="#000000" points="43.5,-445.5 43.5,-475.5 346.5,-475.5 346.5,-445.5 43.5,-445.5"/>
<text text-anchor="start" x="50.5" y="-456.9" font-family="Arial" font-size="14.00" fill="#000000">password    </text>
<text text-anchor="start" x="144.6024" y="-456.9" font-family="Arial" font-size="14.00" fill="#666666">[varchar(255)]</text>
<polygon fill="none" stroke="#000000" points="43.5,-415.5 43.5,-445.5 346.5,-445.5 346.5,-415.5 43.5,-415.5"/>
<text text-anchor="start" x="50.5" y="-426.9" font-family="Arial" font-size="14.00" fill="#000000">created_at    </text>
<text text-anchor="start" x="150.8422" y="-426.9" font-family="Arial" font-size="14.00" fill="#666666">[timestamp without time zone]</text>
<polygon fill="none" stroke="#000000" points="43.5,-385.5 43.5,-415.5 346.5,-415.5 346.5,-385.5 43.5,-385.5"/>
<text text-anchor="start" x="50.3065" y="-396.9" font-family="Arial" font-size="14.00" fill="#000000">updated_at    </text>
<text text-anchor="start" x="154.5533" y="-396.9" font-family="Arial" font-size="14.00" fill="#666666">[timestamp without time zone]</text>
</g>
<!-- public.user_auth&#45;&gt;public.user -->
<g id="edge1" class="edge">
<title>public.user_auth:user_id&#45;&gt;public.user:user_id</title>
<path fill="none" stroke="#000000" d="M356.715,-489.8989C423.2583,-481.4595 368.6428,-385.8889 397.5,-313 421.8655,-251.4565 399.3087,-180.5 465.5,-180.5"/>
<polygon fill="#000000" stroke="#000000" points="356.4827,-489.9124 346.2356,-486.0078 351.4914,-490.2062 346.5,-490.5 346.5,-490.5 346.5,-490.5 351.4914,-490.2062 346.7644,-494.9922 356.4827,-489.9124 356.4827,-489.9124"/>
</g>
<!-- public.user_account -->
<g id="node3" class="node">
<title>public.user_account</title>
<polygon fill="#efefef" stroke="transparent" points="450.5,-565.5 450.5,-600.5 753.5,-600.5 753.5,-565.5 450.5,-565.5"/>
<polygon fill="none" stroke="#000000" points="450.5,-565.5 450.5,-600.5 753.5,-600.5 753.5,-565.5 450.5,-565.5"/>
<text text-anchor="start" x="458.1925" y="-578.3" font-family="Arial Bold" font-size="18.00" fill="#000000">public.user_account</text>
<text text-anchor="start" x="618.2395" y="-578.3" font-family="Arial" font-size="14.00" fill="#000000">    </text>
<text text-anchor="start" x="652.4443" y="-578.3" font-family="Arial" font-size="14.00" fill="#666666">[BASE TABLE]</text>
<polygon fill="none" stroke="#000000" points="450.5,-535.5 450.5,-565.5 753.5,-565.5 753.5,-535.5 450.5,-535.5"/>
<text text-anchor="start" x="457.5" y="-546.9" font-family="Arial" font-size="14.00" fill="#000000">user_account_id    </text>
<text text-anchor="start" x="594.406" y="-546.9" font-family="Arial" font-size="14.00" fill="#666666">[bigint]</text>
<polygon fill="none" stroke="#000000" points="450.5,-505.5 450.5,-535.5 753.5,-535.5 753.5,-505.5 450.5,-505.5"/>
<text text-anchor="start" x="457.5" y="-516.9" font-family="Arial" font-size="14.00" fill="#000000">user_id    </text>
<text text-anchor="start" x="537.6024" y="-516.9" font-family="Arial" font-size="14.00" fill="#666666">[bigint]</text>
<polygon fill="none" stroke="#000000" points="450.5,-475.5 450.5,-505.5 753.5,-505.5 753.5,-475.5 450.5,-475.5"/>
<text text-anchor="start" x="457.5" y="-486.9" font-family="Arial" font-size="14.00" fill="#000000">user_account_name    </text>
<text text-anchor="start" x="618.5252" y="-486.9" font-family="Arial" font-size="14.00" fill="#666666">[varchar(255)]</text>
<polygon fill="none" stroke="#000000" points="450.5,-445.5 450.5,-475.5 753.5,-475.5 753.5,-445.5 450.5,-445.5"/>
<text text-anchor="start" x="457.5" y="-456.9" font-family="Arial" font-size="14.00" fill="#000000">display_name    </text>
<text text-anchor="start" x="578.0568" y="-456.9" font-family="Arial" font-size="14.00" fill="#666666">[varchar(255)]</text>
<polygon fill="none" stroke="#000000" points="450.5,-415.5 450.5,-445.5 753.5,-445.5 753.5,-415.5 450.5,-415.5"/>
<text text-anchor="start" x="457.5" y="-426.9" font-family="Arial" font-size="14.00" fill="#000000">created_at    </text>
<text text-anchor="start" x="557.8422" y="-426.9" font-family="Arial" font-size="14.00" fill="#666666">[timestamp without time zone]</text>
<polygon fill="none" stroke="#000000" points="450.5,-385.5 450.5,-415.5 753.5,-415.5 753.5,-385.5 450.5,-385.5"/>
<text text-anchor="start" x="457.3065" y="-396.9" font-family="Arial" font-size="14.00" fill="#000000">updated_at    </text>
<text text-anchor="start" x="561.5533" y="-396.9" font-family="Arial" font-size="14.00" fill="#666666">[timestamp without time zone]</text>
<polygon fill="none" stroke="#000000" points="450.5,-355.5 450.5,-385.5 753.5,-385.5 753.5,-355.5 450.5,-355.5"/>
<text text-anchor="start" x="457.5" y="-366.9" font-family="Arial" font-size="14.00" fill="#000000">is_deleted    </text>
<text text-anchor="start" x="555.5042" y="-366.9" font-family="Arial" font-size="14.00" fill="#666666">[boolean]</text>
</g>
<!-- public.user_account&#45;&gt;public.user -->
<g id="edge2" class="edge">
<title>public.user_account:user_id&#45;&gt;public.user:user_id</title>
<path fill="none" stroke="#000000" d="M440.459,-518.3288C376.4104,-489.3721 393.4161,-180.5 465.5,-180.5"/>
<polygon fill="#000000" stroke="#000000" points="440.7259,-518.3865 449.5489,-524.8984 445.6129,-519.4432 450.5,-520.5 450.5,-520.5 450.5,-520.5 445.6129,-519.4432 451.4511,-516.1016 440.7259,-518.3865 440.7259,-518.3865"/>
</g>
<!-- public.reset_password_token -->
<g id="node4" class="node">
<title>public.reset_password_token</title>
<polygon fill="#efefef" stroke="transparent" points="857.5,-520.5 857.5,-555.5 1231.5,-555.5 1231.5,-520.5 857.5,-520.5"/>
<polygon fill="none" stroke="#000000" points="857.5,-520.5 857.5,-555.5 1231.5,-555.5 1231.5,-520.5 857.5,-520.5"/>
<text text-anchor="start" x="864.1858" y="-533.3" font-family="Arial Bold" font-size="18.00" fill="#000000">public.reset_password_token</text>
<text text-anchor="start" x="1097.2462" y="-533.3" font-family="Arial" font-size="14.00" fill="#000000">    </text>
<text text-anchor="start" x="1131.451" y="-533.3" font-family="Arial" font-size="14.00" fill="#666666">[BASE TABLE]</text>
<polygon fill="none" stroke="#000000" points="857.5,-490.5 857.5,-520.5 1231.5,-520.5 1231.5,-490.5 857.5,-490.5"/>
<text text-anchor="start" x="864.5" y="-501.9" font-family="Arial" font-size="14.00" fill="#000000">reset_password_token_id    </text>
<text text-anchor="start" x="1058.1942" y="-501.9" font-family="Arial" font-size="14.00" fill="#666666">[bigint]</text>
<polygon fill="none" stroke="#000000" points="857.5,-460.5 857.5,-490.5 1231.5,-490.5 1231.5,-460.5 857.5,-460.5"/>
<text text-anchor="start" x="864.5" y="-471.9" font-family="Arial" font-size="14.00" fill="#000000">user_id    </text>
<text text-anchor="start" x="944.6024" y="-471.9" font-family="Arial" font-size="14.00" fill="#666666">[bigint]</text>
<polygon fill="none" stroke="#000000" points="857.5,-430.5 857.5,-460.5 1231.5,-460.5 1231.5,-430.5 857.5,-430.5"/>
<text text-anchor="start" x="864.5" y="-441.9" font-family="Arial" font-size="14.00" fill="#000000">token    </text>
<text text-anchor="start" x="932.9432" y="-441.9" font-family="Arial" font-size="14.00" fill="#666666">[varchar(255)]</text>
<polygon fill="none" stroke="#000000" points="857.5,-400.5 857.5,-430.5 1231.5,-430.5 1231.5,-400.5 857.5,-400.5"/>
<text text-anchor="start" x="864.5" y="-411.9" font-family="Arial" font-size="14.00" fill="#000000">created_at    </text>
<text text-anchor="start" x="964.8422" y="-411.9" font-family="Arial" font-size="14.00" fill="#666666">[timestamp without time zone]</text>
</g>
<!-- public.reset_password_token&#45;&gt;public.user -->
<g id="edge3" class="edge">
<title>public.reset_password_token:user_id&#45;&gt;public.user:user_id</title>
<path fill="none" stroke="#000000" d="M847.2862,-474.8529C786.6114,-466.5359 832.8508,-379.7403 805.5,-313 780.4766,-251.939 804.4895,-180.5 738.5,-180.5"/>
<polygon fill="#000000" stroke="#000000" points="847.52,-474.8676 857.2154,-479.991 852.51,-475.1838 857.5,-475.5 857.5,-475.5 857.5,-475.5 852.51,-475.1838 857.7846,-471.009 847.52,-474.8676 847.52,-474.8676"/>
</g>
</g>
</svg>
