<?xml version="1.0" encoding="UTF-8" standalone="no"?>
<!DOCTYPE svg PUBLIC "-//W3C//DTD SVG 1.1//EN"
 "http://www.w3.org/Graphics/SVG/1.1/DTD/svg11.dtd">
<!-- Generated by graphviz version 2.40.1 (20161225.0304)
 -->
<!-- Title: public.task Pages: 1 -->
<svg width="804pt" height="742pt"
 viewBox="0.00 0.00 804.00 742.00" xmlns="http://www.w3.org/2000/svg" xmlns:xlink="http://www.w3.org/1999/xlink">
<g id="graph0" class="graph" transform="scale(1 1) rotate(0) translate(4 738)">
<title>public.task</title>
<polygon fill="#ffffff" stroke="transparent" points="-4,4 -4,-738 800,-738 800,4 -4,4"/>
<!-- public.task -->
<g id="node1" class="node">
<title>public.task</title>
<polygon fill="#efefef" stroke="transparent" points="261.5,-652.5 261.5,-687.5 534.5,-687.5 534.5,-652.5 261.5,-652.5"/>
<polygon fill="none" stroke="#000000" points="261.5,-652.5 261.5,-687.5 534.5,-687.5 534.5,-652.5 261.5,-652.5"/>
<text text-anchor="start" x="291.7072" y="-665.3" font-family="Arial Bold" font-size="18.00" fill="#000000">public.task</text>
<text text-anchor="start" x="376.7248" y="-665.3" font-family="Arial" font-size="14.00" fill="#000000">    </text>
<text text-anchor="start" x="410.9296" y="-665.3" font-family="Arial" font-size="14.00" fill="#666666">[BASE TABLE]</text>
<polygon fill="none" stroke="#000000" points="261.5,-622.5 261.5,-652.5 534.5,-652.5 534.5,-622.5 261.5,-622.5"/>
<text text-anchor="start" x="268.5" y="-633.9" font-family="Arial" font-size="14.00" fill="#000000">task_id </text>
<text text-anchor="start" x="316.7356" y="-633.9" font-family="Arial" font-size="14.00" fill="#666666">[bigint]</text>
<polygon fill="none" stroke="#000000" points="261.5,-592.5 261.5,-622.5 534.5,-622.5 534.5,-592.5 261.5,-592.5"/>
<text text-anchor="start" x="268.5" y="-603.9" font-family="Arial" font-size="14.00" fill="#000000">project_id </text>
<text text-anchor="start" x="333.068" y="-603.9" font-family="Arial" font-size="14.00" fill="#666666">[bigint]</text>
<polygon fill="none" stroke="#000000" points="261.5,-562.5 261.5,-592.5 534.5,-592.5 534.5,-562.5 261.5,-562.5"/>
<text text-anchor="start" x="268.5" y="-573.9" font-family="Arial" font-size="14.00" fill="#000000">owner_user_account_id </text>
<text text-anchor="start" x="420.9894" y="-573.9" font-family="Arial" font-size="14.00" fill="#666666">[bigint]</text>
<polygon fill="none" stroke="#000000" points="261.5,-532.5 261.5,-562.5 534.5,-562.5 534.5,-532.5 261.5,-532.5"/>
<text text-anchor="start" x="268.5" y="-543.9" font-family="Arial" font-size="14.00" fill="#000000">title </text>
<text text-anchor="start" x="294.1676" y="-543.9" font-family="Arial" font-size="14.00" fill="#666666">[varchar(255)]</text>
<polygon fill="none" stroke="#000000" points="261.5,-502.5 261.5,-532.5 534.5,-532.5 534.5,-502.5 261.5,-502.5"/>
<text text-anchor="start" x="268.5" y="-513.9" font-family="Arial" font-size="14.00" fill="#000000">content </text>
<text text-anchor="start" x="318.3022" y="-513.9" font-family="Arial" font-size="14.00" fill="#666666">[text]</text>
<polygon fill="none" stroke="#000000" points="261.5,-472.5 261.5,-502.5 534.5,-502.5 534.5,-472.5 261.5,-472.5"/>
<text text-anchor="start" x="268.5" y="-483.9" font-family="Arial" font-size="14.00" fill="#000000">created_at </text>
<text text-anchor="start" x="338.528" y="-483.9" font-family="Arial" font-size="14.00" fill="#666666">[timestamp without time zone]</text>
<polygon fill="none" stroke="#000000" points="261.5,-442.5 261.5,-472.5 534.5,-472.5 534.5,-442.5 261.5,-442.5"/>
<text text-anchor="start" x="268.4636" y="-453.9" font-family="Arial" font-size="14.00" fill="#000000">updated_at </text>
<text text-anchor="start" x="342.3962" y="-453.9" font-family="Arial" font-size="14.00" fill="#666666">[timestamp without time zone]</text>
<polygon fill="none" stroke="#000000" points="261.5,-412.5 261.5,-442.5 534.5,-442.5 534.5,-412.5 261.5,-412.5"/>
<text text-anchor="start" x="268.5" y="-423.9" font-family="Arial" font-size="14.00" fill="#000000">is_deleted </text>
<text text-anchor="start" x="336.19" y="-423.9" font-family="Arial" font-size="14.00" fill="#666666">[boolean]</text>
<polygon fill="none" stroke="#000000" stroke-width="3" points="259.5,-411.5 259.5,-689.5 535.5,-689.5 535.5,-411.5 259.5,-411.5"/>
</g>
<!-- public.project -->
<g id="node2" class="node">
<title>public.project</title>
<polygon fill="#efefef" stroke="transparent" points="43.5,-252.5 43.5,-287.5 346.5,-287.5 346.5,-252.5 43.5,-252.5"/>
<polygon fill="none" stroke="#000000" points="43.5,-252.5 43.5,-287.5 346.5,-287.5 346.5,-252.5 43.5,-252.5"/>
<text text-anchor="start" x="78.2078" y="-265.3" font-family="Arial Bold" font-size="18.00" fill="#000000">public.project</text>
<text text-anchor="start" x="184.2242" y="-265.3" font-family="Arial" font-size="14.00" fill="#000000">    </text>
<text text-anchor="start" x="218.429" y="-265.3" font-family="Arial" font-size="14.00" fill="#666666">[BASE TABLE]</text>
<polygon fill="none" stroke="#000000" points="43.5,-222.5 43.5,-252.5 346.5,-252.5 346.5,-222.5 43.5,-222.5"/>
<text text-anchor="start" x="50.5" y="-233.9" font-family="Arial" font-size="14.00" fill="#000000">project_id    </text>
<text text-anchor="start" x="145.3822" y="-233.9" font-family="Arial" font-size="14.00" fill="#666666">[bigint]</text>
<polygon fill="none" stroke="#000000" points="43.5,-192.5 43.5,-222.5 346.5,-222.5 346.5,-192.5 43.5,-192.5"/>
<text text-anchor="start" x="50.5" y="-203.9" font-family="Arial" font-size="14.00" fill="#000000">project_name    </text>
<text text-anchor="start" x="169.5014" y="-203.9" font-family="Arial" font-size="14.00" fill="#666666">[varchar(255)]</text>
<polygon fill="none" stroke="#000000" points="43.5,-162.5 43.5,-192.5 346.5,-192.5 346.5,-162.5 43.5,-162.5"/>
<text text-anchor="start" x="50.5" y="-173.9" font-family="Arial" font-size="14.00" fill="#000000">display_name    </text>
<text text-anchor="start" x="171.0568" y="-173.9" font-family="Arial" font-size="14.00" fill="#666666">[varchar(255)]</text>
<polygon fill="none" stroke="#000000" points="43.5,-132.5 43.5,-162.5 346.5,-162.5 346.5,-132.5 43.5,-132.5"/>
<text text-anchor="start" x="50.5" y="-143.9" font-family="Arial" font-size="14.00" fill="#000000">workspace_id    </text>
<text text-anchor="start" x="170.2742" y="-143.9" font-family="Arial" font-size="14.00" fill="#666666">[bigint]</text>
<polygon fill="none" stroke="#000000" points="43.5,-102.5 43.5,-132.5 346.5,-132.5 346.5,-102.5 43.5,-102.5"/>
<text text-anchor="start" x="50.5" y="-113.9" font-family="Arial" font-size="14.00" fill="#000000">created_at    </text>
<text text-anchor="start" x="150.8422" y="-113.9" font-family="Arial" font-size="14.00" fill="#666666">[timestamp without time zone]</text>
<polygon fill="none" stroke="#000000" points="43.5,-72.5 43.5,-102.5 346.5,-102.5 346.5,-72.5 43.5,-72.5"/>
<text text-anchor="start" x="50.3065" y="-83.9" font-family="Arial" font-size="14.00" fill="#000000">updated_at    </text>
<text text-anchor="start" x="154.5533" y="-83.9" font-family="Arial" font-size="14.00" fill="#666666">[timestamp without time zone]</text>
<polygon fill="none" stroke="#000000" points="43.5,-42.5 43.5,-72.5 346.5,-72.5 346.5,-42.5 43.5,-42.5"/>
<text text-anchor="start" x="50.5" y="-53.9" font-family="Arial" font-size="14.00" fill="#000000">is_deleted    </text>
<text text-anchor="start" x="148.5042" y="-53.9" font-family="Arial" font-size="14.00" fill="#666666">[boolean]</text>
</g>
<!-- public.task&#45;&gt;public.project -->
<g id="edge1" class="edge">
<title>public.task:project_id&#45;&gt;public.project:project_id</title>
<path fill="none" stroke="#000000" d="M251.3594,-607.0071C157.8015,-597.5154 204.4284,-453.1508 261.5,-367 284.1577,-332.7978 323.8423,-365.2022 346.5,-331 369.4499,-296.3566 388.0556,-237.5 346.5,-237.5"/>
<polygon fill="#000000" stroke="#000000" points="251.5118,-607.0144 261.2815,-611.9947 256.5059,-607.2572 261.5,-607.5 261.5,-607.5 261.5,-607.5 256.5059,-607.2572 261.7185,-603.0053 251.5118,-607.0144 251.5118,-607.0144"/>
</g>
<!-- public.user_account -->
<g id="node3" class="node">
<title>public.user_account</title>
<polygon fill="#efefef" stroke="transparent" points="450.5,-252.5 450.5,-287.5 753.5,-287.5 753.5,-252.5 450.5,-252.5"/>
<polygon fill="none" stroke="#000000" points="450.5,-252.5 450.5,-287.5 753.5,-287.5 753.5,-252.5 450.5,-252.5"/>
<text text-anchor="start" x="458.1925" y="-265.3" font-family="Arial Bold" font-size="18.00" fill="#000000">public.user_account</text>
<text text-anchor="start" x="618.2395" y="-265.3" font-family="Arial" font-size="14.00" fill="#000000">    </text>
<text text-anchor="start" x="652.4443" y="-265.3" font-family="Arial" font-size="14.00" fill="#666666">[BASE TABLE]</text>
<polygon fill="none" stroke="#000000" points="450.5,-222.5 450.5,-252.5 753.5,-252.5 753.5,-222.5 450.5,-222.5"/>
<text text-anchor="start" x="457.5" y="-233.9" font-family="Arial" font-size="14.00" fill="#000000">user_account_id    </text>
<text text-anchor="start" x="594.406" y="-233.9" font-family="Arial" font-size="14.00" fill="#666666">[bigint]</text>
<polygon fill="none" stroke="#000000" points="450.5,-192.5 450.5,-222.5 753.5,-222.5 753.5,-192.5 450.5,-192.5"/>
<text text-anchor="start" x="457.5" y="-203.9" font-family="Arial" font-size="14.00" fill="#000000">user_id    </text>
<text text-anchor="start" x="537.6024" y="-203.9" font-family="Arial" font-size="14.00" fill="#666666">[bigint]</text>
<polygon fill="none" stroke="#000000" points="450.5,-162.5 450.5,-192.5 753.5,-192.5 753.5,-162.5 450.5,-162.5"/>
<text text-anchor="start" x="457.5" y="-173.9" font-family="Arial" font-size="14.00" fill="#000000">user_account_name    </text>
<text text-anchor="start" x="618.5252" y="-173.9" font-family="Arial" font-size="14.00" fill="#666666">[varchar(255)]</text>
<polygon fill="none" stroke="#000000" points="450.5,-132.5 450.5,-162.5 753.5,-162.5 753.5,-132.5 450.5,-132.5"/>
<text text-anchor="start" x="457.5" y="-143.9" font-family="Arial" font-size="14.00" fill="#000000">display_name    </text>
<text text-anchor="start" x="578.0568" y="-143.9" font-family="Arial" font-size="14.00" fill="#666666">[varchar(255)]</text>
<polygon fill="none" stroke="#000000" points="450.5,-102.5 450.5,-132.5 753.5,-132.5 753.5,-102.5 450.5,-102.5"/>
<text text-anchor="start" x="457.5" y="-113.9" font-family="Arial" font-size="14.00" fill="#000000">created_at    </text>
<text text-anchor="start" x="557.8422" y="-113.9" font-family="Arial" font-size="14.00" fill="#666666">[timestamp without time zone]</text>
<polygon fill="none" stroke="#000000" points="450.5,-72.5 450.5,-102.5 753.5,-102.5 753.5,-72.5 450.5,-72.5"/>
<text text-anchor="start" x="457.3065" y="-83.9" font-family="Arial" font-size="14.00" fill="#000000">updated_at    </text>
<text text-anchor="start" x="561.5533" y="-83.9" font-family="Arial" font-size="14.00" fill="#666666">[timestamp without time zone]</text>
<polygon fill="none" stroke="#000000" points="450.5,-42.5 450.5,-72.5 753.5,-72.5 753.5,-42.5 450.5,-42.5"/>
<text text-anchor="start" x="457.5" y="-53.9" font-family="Arial" font-size="14.00" fill="#000000">is_deleted    </text>
<text text-anchor="start" x="555.5042" y="-53.9" font-family="Arial" font-size="14.00" fill="#666666">[boolean]</text>
</g>
<!-- public.task&#45;&gt;public.user_account -->
<g id="edge2" class="edge">
<title>public.task:owner_user_account_id&#45;&gt;public.user_account:user_account_id</title>
<path fill="none" stroke="#000000" d="M544.8503,-576.9051C624.7557,-567.2394 583.9897,-442.0531 534.5,-367 512.1405,-333.0909 472.8595,-364.9091 450.5,-331 427.624,-296.3077 408.9444,-237.5 450.5,-237.5"/>
<polygon fill="#000000" stroke="#000000" points="544.4835,-576.9261 534.2417,-573.0074 539.4918,-577.213 534.5,-577.5 534.5,-577.5 534.5,-577.5 539.4918,-577.213 534.7583,-581.9926 544.4835,-576.9261 544.4835,-576.9261"/>
</g>
</g>
</svg>
