<?xml version="1.0" encoding="UTF-8" standalone="no"?>
<!DOCTYPE svg PUBLIC "-//W3C//DTD SVG 1.1//EN"
 "http://www.w3.org/Graphics/SVG/1.1/DTD/svg11.dtd">
<!-- Generated by graphviz version 2.40.1 (20161225.0304)
 -->
<!-- Title: public.project Pages: 1 -->
<svg width="824pt" height="1109pt"
 viewBox="0.00 0.00 824.00 1109.00" xmlns="http://www.w3.org/2000/svg" xmlns:xlink="http://www.w3.org/1999/xlink">
<g id="graph0" class="graph" transform="scale(1 1) rotate(0) translate(4 1105)">
<title>public.project</title>
<polygon fill="#ffffff" stroke="transparent" points="-4,4 -4,-1105 820,-1105 820,4 -4,4"/>
<!-- public.project -->
<g id="node1" class="node">
<title>public.project</title>
<polygon fill="#efefef" stroke="transparent" points="276.5,-622.5 276.5,-657.5 549.5,-657.5 549.5,-622.5 276.5,-622.5"/>
<polygon fill="none" stroke="#000000" points="276.5,-622.5 276.5,-657.5 549.5,-657.5 549.5,-622.5 276.5,-622.5"/>
<text text-anchor="start" x="296.2078" y="-635.3" font-family="Arial Bold" font-size="18.00" fill="#000000">public.project</text>
<text text-anchor="start" x="402.2242" y="-635.3" font-family="Arial" font-size="14.00" fill="#000000">    </text>
<text text-anchor="start" x="436.429" y="-635.3" font-family="Arial" font-size="14.00" fill="#666666">[BASE TABLE]</text>
<polygon fill="none" stroke="#000000" points="276.5,-592.5 276.5,-622.5 549.5,-622.5 549.5,-592.5 276.5,-592.5"/>
<text text-anchor="start" x="283.5" y="-603.9" font-family="Arial" font-size="14.00" fill="#000000">project_id </text>
<text text-anchor="start" x="348.068" y="-603.9" font-family="Arial" font-size="14.00" fill="#666666">[bigint]</text>
<polygon fill="none" stroke="#000000" points="276.5,-562.5 276.5,-592.5 549.5,-592.5 549.5,-562.5 276.5,-562.5"/>
<text text-anchor="start" x="283.5" y="-573.9" font-family="Arial" font-size="14.00" fill="#000000">project_name </text>
<text text-anchor="start" x="372.1872" y="-573.9" font-family="Arial" font-size="14.00" fill="#666666">[varchar(255)]</text>
<polygon fill="none" stroke="#000000" points="276.5,-532.5 276.5,-562.5 549.5,-562.5 549.5,-532.5 276.5,-532.5"/>
<text text-anchor="start" x="283.5" y="-543.9" font-family="Arial" font-size="14.00" fill="#000000">display_name </text>
<text text-anchor="start" x="373.7426" y="-543.9" font-family="Arial" font-size="14.00" fill="#666666">[varchar(255)]</text>
<polygon fill="none" stroke="#000000" points="276.5,-502.5 276.5,-532.5 549.5,-532.5 549.5,-502.5 276.5,-502.5"/>
<text text-anchor="start" x="283.5" y="-513.9" font-family="Arial" font-size="14.00" fill="#000000">workspace_id </text>
<text text-anchor="start" x="372.96" y="-513.9" font-family="Arial" font-size="14.00" fill="#666666">[bigint]</text>
<polygon fill="none" stroke="#000000" points="276.5,-472.5 276.5,-502.5 549.5,-502.5 549.5,-472.5 276.5,-472.5"/>
<text text-anchor="start" x="283.5" y="-483.9" font-family="Arial" font-size="14.00" fill="#000000">created_at </text>
<text text-anchor="start" x="353.528" y="-483.9" font-family="Arial" font-size="14.00" fill="#666666">[timestamp without time zone]</text>
<polygon fill="none" stroke="#000000" points="276.5,-442.5 276.5,-472.5 549.5,-472.5 549.5,-442.5 276.5,-442.5"/>
<text text-anchor="start" x="283.4636" y="-453.9" font-family="Arial" font-size="14.00" fill="#000000">updated_at </text>
<text text-anchor="start" x="357.3962" y="-453.9" font-family="Arial" font-size="14.00" fill="#666666">[timestamp without time zone]</text>
<polygon fill="none" stroke="#000000" points="276.5,-412.5 276.5,-442.5 549.5,-442.5 549.5,-412.5 276.5,-412.5"/>
<text text-anchor="start" x="283.5" y="-423.9" font-family="Arial" font-size="14.00" fill="#000000">is_deleted </text>
<text text-anchor="start" x="351.19" y="-423.9" font-family="Arial" font-size="14.00" fill="#666666">[boolean]</text>
<polygon fill="none" stroke="#000000" stroke-width="3" points="274.5,-411.5 274.5,-659.5 550.5,-659.5 550.5,-411.5 274.5,-411.5"/>
</g>
<!-- public.workspace -->
<g id="node4" class="node">
<title>public.workspace</title>
<polygon fill="#efefef" stroke="transparent" points="261.5,-252.5 261.5,-287.5 564.5,-287.5 564.5,-252.5 261.5,-252.5"/>
<polygon fill="none" stroke="#000000" points="261.5,-252.5 261.5,-287.5 564.5,-287.5 564.5,-252.5 261.5,-252.5"/>
<text text-anchor="start" x="280.2058" y="-265.3" font-family="Arial Bold" font-size="18.00" fill="#000000">public.workspace</text>
<text text-anchor="start" x="418.2262" y="-265.3" font-family="Arial" font-size="14.00" fill="#000000">    </text>
<text text-anchor="start" x="452.431" y="-265.3" font-family="Arial" font-size="14.00" fill="#666666">[BASE TABLE]</text>
<polygon fill="none" stroke="#000000" points="261.5,-222.5 261.5,-252.5 564.5,-252.5 564.5,-222.5 261.5,-222.5"/>
<text text-anchor="start" x="268.5" y="-233.9" font-family="Arial" font-size="14.00" fill="#000000">workspace_id    </text>
<text text-anchor="start" x="388.2742" y="-233.9" font-family="Arial" font-size="14.00" fill="#666666">[bigint]</text>
<polygon fill="none" stroke="#000000" points="261.5,-192.5 261.5,-222.5 564.5,-222.5 564.5,-192.5 261.5,-192.5"/>
<text text-anchor="start" x="268.5" y="-203.9" font-family="Arial" font-size="14.00" fill="#000000">workspace_name    </text>
<text text-anchor="start" x="412.3934" y="-203.9" font-family="Arial" font-size="14.00" fill="#666666">[varchar(255)]</text>
<polygon fill="none" stroke="#000000" points="261.5,-162.5 261.5,-192.5 564.5,-192.5 564.5,-162.5 261.5,-162.5"/>
<text text-anchor="start" x="268.5" y="-173.9" font-family="Arial" font-size="14.00" fill="#000000">display_name    </text>
<text text-anchor="start" x="389.0568" y="-173.9" font-family="Arial" font-size="14.00" fill="#666666">[varchar(255)]</text>
<polygon fill="none" stroke="#000000" points="261.5,-132.5 261.5,-162.5 564.5,-162.5 564.5,-132.5 261.5,-132.5"/>
<text text-anchor="start" x="268.5" y="-143.9" font-family="Arial" font-size="14.00" fill="#000000">organization_id    </text>
<text text-anchor="start" x="397.6192" y="-143.9" font-family="Arial" font-size="14.00" fill="#666666">[bigint]</text>
<polygon fill="none" stroke="#000000" points="261.5,-102.5 261.5,-132.5 564.5,-132.5 564.5,-102.5 261.5,-102.5"/>
<text text-anchor="start" x="268.5" y="-113.9" font-family="Arial" font-size="14.00" fill="#000000">created_at    </text>
<text text-anchor="start" x="368.8422" y="-113.9" font-family="Arial" font-size="14.00" fill="#666666">[timestamp without time zone]</text>
<polygon fill="none" stroke="#000000" points="261.5,-72.5 261.5,-102.5 564.5,-102.5 564.5,-72.5 261.5,-72.5"/>
<text text-anchor="start" x="268.3065" y="-83.9" font-family="Arial" font-size="14.00" fill="#000000">updated_at    </text>
<text text-anchor="start" x="372.5533" y="-83.9" font-family="Arial" font-size="14.00" fill="#666666">[timestamp without time zone]</text>
<polygon fill="none" stroke="#000000" points="261.5,-42.5 261.5,-72.5 564.5,-72.5 564.5,-42.5 261.5,-42.5"/>
<text text-anchor="start" x="268.5" y="-53.9" font-family="Arial" font-size="14.00" fill="#000000">is_deleted    </text>
<text text-anchor="start" x="366.5042" y="-53.9" font-family="Arial" font-size="14.00" fill="#666666">[boolean]</text>
</g>
<!-- public.project&#45;&gt;public.workspace -->
<g id="edge3" class="edge">
<title>public.project:workspace_id&#45;&gt;public.workspace:workspace_id</title>
<path fill="none" stroke="#000000" d="M266.1764,-516.839C151.1395,-501.8652 140.4065,-237.5 261.5,-237.5"/>
<polygon fill="#000000" stroke="#000000" points="266.5204,-516.8609 276.2124,-521.9908 271.5102,-517.1805 276.5,-517.5 276.5,-517.5 276.5,-517.5 271.5102,-517.1805 276.7876,-513.0092 266.5204,-516.8609 266.5204,-516.8609"/>
</g>
<!-- public.project_member -->
<g id="node2" class="node">
<title>public.project_member</title>
<polygon fill="#efefef" stroke="transparent" points="43.5,-962.5 43.5,-997.5 366.5,-997.5 366.5,-962.5 43.5,-962.5"/>
<polygon fill="none" stroke="#000000" points="43.5,-962.5 43.5,-997.5 366.5,-997.5 366.5,-962.5 43.5,-962.5"/>
<text text-anchor="start" x="50.2071" y="-975.3" font-family="Arial Bold" font-size="18.00" fill="#000000">public.project_member</text>
<text text-anchor="start" x="232.2249" y="-975.3" font-family="Arial" font-size="14.00" fill="#000000">    </text>
<text text-anchor="start" x="266.4297" y="-975.3" font-family="Arial" font-size="14.00" fill="#666666">[BASE TABLE]</text>
<polygon fill="none" stroke="#000000" points="43.5,-932.5 43.5,-962.5 366.5,-962.5 366.5,-932.5 43.5,-932.5"/>
<text text-anchor="start" x="50.5" y="-943.9" font-family="Arial" font-size="14.00" fill="#000000">project_member_id    </text>
<text text-anchor="start" x="204.4944" y="-943.9" font-family="Arial" font-size="14.00" fill="#666666">[bigint]</text>
<polygon fill="none" stroke="#000000" points="43.5,-902.5 43.5,-932.5 366.5,-932.5 366.5,-902.5 43.5,-902.5"/>
<text text-anchor="start" x="50.5" y="-913.9" font-family="Arial" font-size="14.00" fill="#000000">project_id    </text>
<text text-anchor="start" x="145.3822" y="-913.9" font-family="Arial" font-size="14.00" fill="#666666">[bigint]</text>
<polygon fill="none" stroke="#000000" points="43.5,-872.5 43.5,-902.5 366.5,-902.5 366.5,-872.5 43.5,-872.5"/>
<text text-anchor="start" x="50.5" y="-883.9" font-family="Arial" font-size="14.00" fill="#000000">user_account_id    </text>
<text text-anchor="start" x="187.406" y="-883.9" font-family="Arial" font-size="14.00" fill="#666666">[bigint]</text>
<polygon fill="none" stroke="#000000" points="43.5,-842.5 43.5,-872.5 366.5,-872.5 366.5,-842.5 43.5,-842.5"/>
<text text-anchor="start" x="50.5" y="-853.9" font-family="Arial" font-size="14.00" fill="#000000">project_member_authority_id    </text>
<text text-anchor="start" x="265.9558" y="-853.9" font-family="Arial" font-size="14.00" fill="#666666">[bigint]</text>
</g>
<!-- public.project_member&#45;&gt;public.project -->
<g id="edge1" class="edge">
<title>public.project_member:project_id&#45;&gt;public.project:project_id</title>
<path fill="none" stroke="#000000" d="M376.7595,-916.3973C413.8972,-907.3794 384.2788,-844.9587 366.5,-800 344.993,-745.6135 298.007,-758.3865 276.5,-704 260.7281,-664.1164 233.6111,-607.5 276.5,-607.5"/>
<polygon fill="#000000" stroke="#000000" points="376.4427,-916.4313 366.0191,-913.0258 371.4714,-916.9656 366.5,-917.5 366.5,-917.5 366.5,-917.5 371.4714,-916.9656 366.9809,-921.9742 376.4427,-916.4313 376.4427,-916.4313"/>
</g>
<!-- public.task -->
<g id="node3" class="node">
<title>public.task</title>
<polygon fill="#efefef" stroke="transparent" points="470.5,-1022.5 470.5,-1057.5 773.5,-1057.5 773.5,-1022.5 470.5,-1022.5"/>
<polygon fill="none" stroke="#000000" points="470.5,-1022.5 470.5,-1057.5 773.5,-1057.5 773.5,-1022.5 470.5,-1022.5"/>
<text text-anchor="start" x="515.7072" y="-1035.3" font-family="Arial Bold" font-size="18.00" fill="#000000">public.task</text>
<text text-anchor="start" x="600.7248" y="-1035.3" font-family="Arial" font-size="14.00" fill="#000000">    </text>
<text text-anchor="start" x="634.9296" y="-1035.3" font-family="Arial" font-size="14.00" fill="#666666">[BASE TABLE]</text>
<polygon fill="none" stroke="#000000" points="470.5,-992.5 470.5,-1022.5 773.5,-1022.5 773.5,-992.5 470.5,-992.5"/>
<text text-anchor="start" x="477.5" y="-1003.9" font-family="Arial" font-size="14.00" fill="#000000">task_id    </text>
<text text-anchor="start" x="556.0498" y="-1003.9" font-family="Arial" font-size="14.00" fill="#666666">[bigint]</text>
<polygon fill="none" stroke="#000000" points="470.5,-962.5 470.5,-992.5 773.5,-992.5 773.5,-962.5 470.5,-962.5"/>
<text text-anchor="start" x="477.5" y="-973.9" font-family="Arial" font-size="14.00" fill="#000000">project_id    </text>
<text text-anchor="start" x="572.3822" y="-973.9" font-family="Arial" font-size="14.00" fill="#666666">[bigint]</text>
<polygon fill="none" stroke="#000000" points="470.5,-932.5 470.5,-962.5 773.5,-962.5 773.5,-932.5 470.5,-932.5"/>
<text text-anchor="start" x="477.5" y="-943.9" font-family="Arial" font-size="14.00" fill="#000000">owner_user_account_id    </text>
<text text-anchor="start" x="660.3036" y="-943.9" font-family="Arial" font-size="14.00" fill="#666666">[bigint]</text>
<polygon fill="none" stroke="#000000" points="470.5,-902.5 470.5,-932.5 773.5,-932.5 773.5,-902.5 470.5,-902.5"/>
<text text-anchor="start" x="477.5" y="-913.9" font-family="Arial" font-size="14.00" fill="#000000">title    </text>
<text text-anchor="start" x="533.4818" y="-913.9" font-family="Arial" font-size="14.00" fill="#666666">[varchar(255)]</text>
<polygon fill="none" stroke="#000000" points="470.5,-872.5 470.5,-902.5 773.5,-902.5 773.5,-872.5 470.5,-872.5"/>
<text text-anchor="start" x="477.5" y="-883.9" font-family="Arial" font-size="14.00" fill="#000000">content    </text>
<text text-anchor="start" x="557.6164" y="-883.9" font-family="Arial" font-size="14.00" fill="#666666">[text]</text>
<polygon fill="none" stroke="#000000" points="470.5,-842.5 470.5,-872.5 773.5,-872.5 773.5,-842.5 470.5,-842.5"/>
<text text-anchor="start" x="477.5" y="-853.9" font-family="Arial" font-size="14.00" fill="#000000">created_at    </text>
<text text-anchor="start" x="577.8422" y="-853.9" font-family="Arial" font-size="14.00" fill="#666666">[timestamp without time zone]</text>
<polygon fill="none" stroke="#000000" points="470.5,-812.5 470.5,-842.5 773.5,-842.5 773.5,-812.5 470.5,-812.5"/>
<text text-anchor="start" x="477.3065" y="-823.9" font-family="Arial" font-size="14.00" fill="#000000">updated_at    </text>
<text text-anchor="start" x="581.5533" y="-823.9" font-family="Arial" font-size="14.00" fill="#666666">[timestamp without time zone]</text>
<polygon fill="none" stroke="#000000" points="470.5,-782.5 470.5,-812.5 773.5,-812.5 773.5,-782.5 470.5,-782.5"/>
<text text-anchor="start" x="477.5" y="-793.9" font-family="Arial" font-size="14.00" fill="#000000">is_deleted    </text>
<text text-anchor="start" x="575.5042" y="-793.9" font-family="Arial" font-size="14.00" fill="#666666">[boolean]</text>
</g>
<!-- public.task&#45;&gt;public.project -->
<g id="edge2" class="edge">
<title>public.task:project_id&#45;&gt;public.project:project_id</title>
<path fill="none" stroke="#000000" d="M460.484,-974.7547C421.1504,-951.0789 443.9556,-781.2668 470.5,-740 491.3738,-707.5489 528.6262,-736.4511 549.5,-704 572.7022,-667.9291 592.3889,-607.5 549.5,-607.5"/>
<polygon fill="#000000" stroke="#000000" points="460.8557,-974.8565 469.3104,-981.8399 465.6779,-976.1782 470.5,-977.5 470.5,-977.5 470.5,-977.5 465.6779,-976.1782 471.6896,-973.1601 460.8557,-974.8565 460.8557,-974.8565"/>
</g>
</g>
</svg>
