<?xml version="1.0" encoding="UTF-8" standalone="no"?>
<!DOCTYPE svg PUBLIC "-//W3C//DTD SVG 1.1//EN"
 "http://www.w3.org/Graphics/SVG/1.1/DTD/svg11.dtd">
<!-- Generated by graphviz version 2.40.1 (20161225.0304)
 -->
<!-- Title: public.project_member_authority Pages: 1 -->
<svg width="502pt" height="502pt"
 viewBox="0.00 0.00 502.00 502.00" xmlns="http://www.w3.org/2000/svg" xmlns:xlink="http://www.w3.org/1999/xlink">
<g id="graph0" class="graph" transform="scale(1 1) rotate(0) translate(4 498)">
<title>public.project_member_authority</title>
<polygon fill="#ffffff" stroke="transparent" points="-4,4 -4,-498 498,-498 498,4 -4,4"/>
<!-- public.project_member_authority -->
<g id="node1" class="node">
<title>public.project_member_authority</title>
<polygon fill="#efefef" stroke="transparent" points="46,-135.5 46,-170.5 448,-170.5 448,-135.5 46,-135.5"/>
<polygon fill="none" stroke="#000000" points="46,-135.5 46,-170.5 448,-170.5 448,-135.5 46,-135.5"/>
<text text-anchor="start" x="52.6962" y="-148.3" font-family="Arial Bold" font-size="18.00" fill="#000000">public.project_member_authority</text>
<text text-anchor="start" x="313.7358" y="-148.3" font-family="Arial" font-size="14.00" fill="#000000">    </text>
<text text-anchor="start" x="347.9406" y="-148.3" font-family="Arial" font-size="14.00" fill="#666666">[BASE TABLE]</text>
<polygon fill="none" stroke="#000000" points="46,-105.5 46,-135.5 448,-135.5 448,-105.5 46,-105.5"/>
<text text-anchor="start" x="53" y="-116.9" font-family="Arial" font-size="14.00" fill="#000000">project_member_authority_id </text>
<text text-anchor="start" x="238.1416" y="-116.9" font-family="Arial" font-size="14.00" fill="#666666">[bigint]</text>
<polygon fill="none" stroke="#000000" points="46,-75.5 46,-105.5 448,-105.5 448,-75.5 46,-75.5"/>
<text text-anchor="start" x="53" y="-86.9" font-family="Arial" font-size="14.00" fill="#000000">symbol </text>
<text text-anchor="start" x="101.223" y="-86.9" font-family="Arial" font-size="14.00" fill="#666666">[varchar(255)]</text>
<polygon fill="none" stroke="#000000" points="46,-45.5 46,-75.5 448,-75.5 448,-45.5 46,-45.5"/>
<text text-anchor="start" x="53" y="-56.9" font-family="Arial" font-size="14.00" fill="#000000">value </text>
<text text-anchor="start" x="90.345" y="-56.9" font-family="Arial" font-size="14.00" fill="#666666">[integer]</text>
<polygon fill="none" stroke="#000000" stroke-width="3" points="44.5,-44.5 44.5,-172.5 449.5,-172.5 449.5,-44.5 44.5,-44.5"/>
</g>
<!-- public.project_member -->
<g id="node2" class="node">
<title>public.project_member</title>
<polygon fill="#efefef" stroke="transparent" points="85,-415.5 85,-450.5 408,-450.5 408,-415.5 85,-415.5"/>
<polygon fill="none" stroke="#000000" points="85,-415.5 85,-450.5 408,-450.5 408,-415.5 85,-415.5"/>
<text text-anchor="start" x="91.7071" y="-428.3" font-family="Arial Bold" font-size="18.00" fill="#000000">public.project_member</text>
<text text-anchor="start" x="273.7249" y="-428.3" font-family="Arial" font-size="14.00" fill="#000000">    </text>
<text text-anchor="start" x="307.9297" y="-428.3" font-family="Arial" font-size="14.00" fill="#666666">[BASE TABLE]</text>
<polygon fill="none" stroke="#000000" points="85,-385.5 85,-415.5 408,-415.5 408,-385.5 85,-385.5"/>
<text text-anchor="start" x="92" y="-396.9" font-family="Arial" font-size="14.00" fill="#000000">project_member_id    </text>
<text text-anchor="start" x="245.9944" y="-396.9" font-family="Arial" font-size="14.00" fill="#666666">[bigint]</text>
<polygon fill="none" stroke="#000000" points="85,-355.5 85,-385.5 408,-385.5 408,-355.5 85,-355.5"/>
<text text-anchor="start" x="92" y="-366.9" font-family="Arial" font-size="14.00" fill="#000000">project_id    </text>
<text text-anchor="start" x="186.8822" y="-366.9" font-family="Arial" font-size="14.00" fill="#666666">[bigint]</text>
<polygon fill="none" stroke="#000000" points="85,-325.5 85,-355.5 408,-355.5 408,-325.5 85,-325.5"/>
<text text-anchor="start" x="92" y="-336.9" font-family="Arial" font-size="14.00" fill="#000000">user_account_id    </text>
<text text-anchor="start" x="228.906" y="-336.9" font-family="Arial" font-size="14.00" fill="#666666">[bigint]</text>
<polygon fill="none" stroke="#000000" points="85,-295.5 85,-325.5 408,-325.5 408,-295.5 85,-295.5"/>
<text text-anchor="start" x="92" y="-306.9" font-family="Arial" font-size="14.00" fill="#000000">project_member_authority_id    </text>
<text text-anchor="start" x="307.4558" y="-306.9" font-family="Arial" font-size="14.00" fill="#666666">[bigint]</text>
</g>
<!-- public.project_member&#45;&gt;public.project_member_authority -->
<g id="edge1" class="edge">
<title>public.project_member:project_member_authority_id&#45;&gt;public.project_member_authority:project_member_authority_id</title>
<path fill="none" stroke="#000000" d="M246.3418,-285.1204C235.6644,-206.8741 97.9781,-293.1014 46,-217 21.8103,-181.5837 3.1111,-120.5 46,-120.5"/>
<polygon fill="#000000" stroke="#000000" points="246.367,-285.52 242.509,-295.7848 246.6835,-290.51 247,-295.5 247,-295.5 247,-295.5 246.6835,-290.51 251.491,-295.2152 246.367,-285.52 246.367,-285.52"/>
</g>
</g>
</svg>
