<?xml version="1.0" encoding="UTF-8" standalone="no"?>
<!DOCTYPE svg PUBLIC "-//W3C//DTD SVG 1.1//EN"
 "http://www.w3.org/Graphics/SVG/1.1/DTD/svg11.dtd">
<!-- Generated by graphviz version 2.40.1 (20161225.0304)
 -->
<!-- Title: public.organization Pages: 1 -->
<svg width="1359pt" height="682pt"
 viewBox="0.00 0.00 1359.00 682.00" xmlns="http://www.w3.org/2000/svg" xmlns:xlink="http://www.w3.org/1999/xlink">
<g id="graph0" class="graph" transform="scale(1 1) rotate(0) translate(4 678)">
<title>public.organization</title>
<polygon fill="#ffffff" stroke="transparent" points="-4,4 -4,-678 1355,-678 1355,4 -4,4"/>
<!-- public.organization -->
<g id="node1" class="node">
<title>public.organization</title>
<polygon fill="#efefef" stroke="transparent" points="520.5,-225.5 520.5,-260.5 811.5,-260.5 811.5,-225.5 520.5,-225.5"/>
<polygon fill="none" stroke="#000000" points="520.5,-225.5 520.5,-260.5 811.5,-260.5 811.5,-225.5 520.5,-225.5"/>
<text text-anchor="start" x="527.1983" y="-238.3" font-family="Arial Bold" font-size="18.00" fill="#000000">public.organization</text>
<text text-anchor="start" x="677.2337" y="-238.3" font-family="Arial" font-size="14.00" fill="#000000">    </text>
<text text-anchor="start" x="711.4385" y="-238.3" font-family="Arial" font-size="14.00" fill="#666666">[BASE TABLE]</text>
<polygon fill="none" stroke="#000000" points="520.5,-195.5 520.5,-225.5 811.5,-225.5 811.5,-195.5 520.5,-195.5"/>
<text text-anchor="start" x="527.5" y="-206.9" font-family="Arial" font-size="14.00" fill="#000000">organization_id </text>
<text text-anchor="start" x="626.305" y="-206.9" font-family="Arial" font-size="14.00" fill="#666666">[bigint]</text>
<polygon fill="none" stroke="#000000" points="520.5,-165.5 520.5,-195.5 811.5,-195.5 811.5,-165.5 520.5,-165.5"/>
<text text-anchor="start" x="527.5" y="-176.9" font-family="Arial" font-size="14.00" fill="#000000">organization_name </text>
<text text-anchor="start" x="650.4242" y="-176.9" font-family="Arial" font-size="14.00" fill="#666666">[varchar(255)]</text>
<polygon fill="none" stroke="#000000" points="520.5,-135.5 520.5,-165.5 811.5,-165.5 811.5,-135.5 520.5,-135.5"/>
<text text-anchor="start" x="527.5" y="-146.9" font-family="Arial" font-size="14.00" fill="#000000">display_name </text>
<text text-anchor="start" x="617.7426" y="-146.9" font-family="Arial" font-size="14.00" fill="#666666">[varchar(255)]</text>
<polygon fill="none" stroke="#000000" points="520.5,-105.5 520.5,-135.5 811.5,-135.5 811.5,-105.5 520.5,-105.5"/>
<text text-anchor="start" x="527.5" y="-116.9" font-family="Arial" font-size="14.00" fill="#000000">created_at </text>
<text text-anchor="start" x="597.528" y="-116.9" font-family="Arial" font-size="14.00" fill="#666666">[timestamp without time zone]</text>
<polygon fill="none" stroke="#000000" points="520.5,-75.5 520.5,-105.5 811.5,-105.5 811.5,-75.5 520.5,-75.5"/>
<text text-anchor="start" x="527.5" y="-86.9" font-family="Arial" font-size="14.00" fill="#000000">updated_at </text>
<text text-anchor="start" x="601.4326" y="-86.9" font-family="Arial" font-size="14.00" fill="#666666">[timestamp without time zone]</text>
<polygon fill="none" stroke="#000000" points="520.5,-45.5 520.5,-75.5 811.5,-75.5 811.5,-45.5 520.5,-45.5"/>
<text text-anchor="start" x="527.5" y="-56.9" font-family="Arial" font-size="14.00" fill="#000000">is_deleted </text>
<text text-anchor="start" x="595.19" y="-56.9" font-family="Arial" font-size="14.00" fill="#666666">[boolean]</text>
<polygon fill="none" stroke="#000000" stroke-width="3" points="518.5,-44.5 518.5,-262.5 812.5,-262.5 812.5,-44.5 518.5,-44.5"/>
</g>
<!-- public.organization_member -->
<g id="node2" class="node">
<title>public.organization_member</title>
<polygon fill="#efefef" stroke="transparent" points="43.5,-550.5 43.5,-585.5 410.5,-585.5 410.5,-550.5 43.5,-550.5"/>
<polygon fill="none" stroke="#000000" points="43.5,-550.5 43.5,-585.5 410.5,-585.5 410.5,-550.5 43.5,-550.5"/>
<text text-anchor="start" x="50.1976" y="-563.3" font-family="Arial Bold" font-size="18.00" fill="#000000">public.organization_member</text>
<text text-anchor="start" x="276.2344" y="-563.3" font-family="Arial" font-size="14.00" fill="#000000">    </text>
<text text-anchor="start" x="310.4392" y="-563.3" font-family="Arial" font-size="14.00" fill="#666666">[BASE TABLE]</text>
<polygon fill="none" stroke="#000000" points="43.5,-520.5 43.5,-550.5 410.5,-550.5 410.5,-520.5 43.5,-520.5"/>
<text text-anchor="start" x="50.5" y="-531.9" font-family="Arial" font-size="14.00" fill="#000000">organization_member_id    </text>
<text text-anchor="start" x="238.7314" y="-531.9" font-family="Arial" font-size="14.00" fill="#666666">[bigint]</text>
<polygon fill="none" stroke="#000000" points="43.5,-490.5 43.5,-520.5 410.5,-520.5 410.5,-490.5 43.5,-490.5"/>
<text text-anchor="start" x="50.5" y="-501.9" font-family="Arial" font-size="14.00" fill="#000000">organization_id    </text>
<text text-anchor="start" x="179.6192" y="-501.9" font-family="Arial" font-size="14.00" fill="#666666">[bigint]</text>
<polygon fill="none" stroke="#000000" points="43.5,-460.5 43.5,-490.5 410.5,-490.5 410.5,-460.5 43.5,-460.5"/>
<text text-anchor="start" x="50.5" y="-471.9" font-family="Arial" font-size="14.00" fill="#000000">user_account_id    </text>
<text text-anchor="start" x="187.406" y="-471.9" font-family="Arial" font-size="14.00" fill="#666666">[bigint]</text>
<polygon fill="none" stroke="#000000" points="43.5,-430.5 43.5,-460.5 410.5,-460.5 410.5,-430.5 43.5,-430.5"/>
<text text-anchor="start" x="50.5" y="-441.9" font-family="Arial" font-size="14.00" fill="#000000">organization_member_authority_id    </text>
<text text-anchor="start" x="300.1928" y="-441.9" font-family="Arial" font-size="14.00" fill="#666666">[bigint]</text>
</g>
<!-- public.organization_member&#45;&gt;public.organization -->
<g id="edge1" class="edge">
<title>public.organization_member:organization_id&#45;&gt;public.organization:organization_id</title>
<path fill="none" stroke="#000000" d="M420.7026,-504.8572C481.3559,-496.595 436.0342,-410.3456 461.5,-343 484.3003,-282.7036 456.0368,-210.5 520.5,-210.5"/>
<polygon fill="#000000" stroke="#000000" points="420.4802,-504.8712 410.217,-501.0089 415.4901,-505.1856 410.5,-505.5 410.5,-505.5 410.5,-505.5 415.4901,-505.1856 410.783,-509.9911 420.4802,-504.8712 420.4802,-504.8712"/>
</g>
<!-- public.workspace -->
<g id="node3" class="node">
<title>public.workspace</title>
<polygon fill="#efefef" stroke="transparent" points="514.5,-595.5 514.5,-630.5 817.5,-630.5 817.5,-595.5 514.5,-595.5"/>
<polygon fill="none" stroke="#000000" points="514.5,-595.5 514.5,-630.5 817.5,-630.5 817.5,-595.5 514.5,-595.5"/>
<text text-anchor="start" x="533.2058" y="-608.3" font-family="Arial Bold" font-size="18.00" fill="#000000">public.workspace</text>
<text text-anchor="start" x="671.2262" y="-608.3" font-family="Arial" font-size="14.00" fill="#000000">    </text>
<text text-anchor="start" x="705.431" y="-608.3" font-family="Arial" font-size="14.00" fill="#666666">[BASE TABLE]</text>
<polygon fill="none" stroke="#000000" points="514.5,-565.5 514.5,-595.5 817.5,-595.5 817.5,-565.5 514.5,-565.5"/>
<text text-anchor="start" x="521.5" y="-576.9" font-family="Arial" font-size="14.00" fill="#000000">workspace_id    </text>
<text text-anchor="start" x="641.2742" y="-576.9" font-family="Arial" font-size="14.00" fill="#666666">[bigint]</text>
<polygon fill="none" stroke="#000000" points="514.5,-535.5 514.5,-565.5 817.5,-565.5 817.5,-535.5 514.5,-535.5"/>
<text text-anchor="start" x="521.5" y="-546.9" font-family="Arial" font-size="14.00" fill="#000000">workspace_name    </text>
<text text-anchor="start" x="665.3934" y="-546.9" font-family="Arial" font-size="14.00" fill="#666666">[varchar(255)]</text>
<polygon fill="none" stroke="#000000" points="514.5,-505.5 514.5,-535.5 817.5,-535.5 817.5,-505.5 514.5,-505.5"/>
<text text-anchor="start" x="521.5" y="-516.9" font-family="Arial" font-size="14.00" fill="#000000">display_name    </text>
<text text-anchor="start" x="642.0568" y="-516.9" font-family="Arial" font-size="14.00" fill="#666666">[varchar(255)]</text>
<polygon fill="none" stroke="#000000" points="514.5,-475.5 514.5,-505.5 817.5,-505.5 817.5,-475.5 514.5,-475.5"/>
<text text-anchor="start" x="521.5" y="-486.9" font-family="Arial" font-size="14.00" fill="#000000">organization_id    </text>
<text text-anchor="start" x="650.6192" y="-486.9" font-family="Arial" font-size="14.00" fill="#666666">[bigint]</text>
<polygon fill="none" stroke="#000000" points="514.5,-445.5 514.5,-475.5 817.5,-475.5 817.5,-445.5 514.5,-445.5"/>
<text text-anchor="start" x="521.5" y="-456.9" font-family="Arial" font-size="14.00" fill="#000000">created_at    </text>
<text text-anchor="start" x="621.8422" y="-456.9" font-family="Arial" font-size="14.00" fill="#666666">[timestamp without time zone]</text>
<polygon fill="none" stroke="#000000" points="514.5,-415.5 514.5,-445.5 817.5,-445.5 817.5,-415.5 514.5,-415.5"/>
<text text-anchor="start" x="521.3065" y="-426.9" font-family="Arial" font-size="14.00" fill="#000000">updated_at    </text>
<text text-anchor="start" x="625.5533" y="-426.9" font-family="Arial" font-size="14.00" fill="#666666">[timestamp without time zone]</text>
<polygon fill="none" stroke="#000000" points="514.5,-385.5 514.5,-415.5 817.5,-415.5 817.5,-385.5 514.5,-385.5"/>
<text text-anchor="start" x="521.5" y="-396.9" font-family="Arial" font-size="14.00" fill="#000000">is_deleted    </text>
<text text-anchor="start" x="619.5042" y="-396.9" font-family="Arial" font-size="14.00" fill="#666666">[boolean]</text>
</g>
<!-- public.workspace&#45;&gt;public.organization -->
<g id="edge2" class="edge">
<title>public.workspace:organization_id&#45;&gt;public.organization:organization_id</title>
<path fill="none" stroke="#000000" d="M504.5792,-487.9069C453.1236,-459.6795 461.7886,-210.5 520.5,-210.5"/>
<polygon fill="#000000" stroke="#000000" points="504.825,-487.9711 513.362,-494.8537 509.6625,-489.2355 514.5,-490.5 514.5,-490.5 514.5,-490.5 509.6625,-489.2355 515.638,-486.1463 504.825,-487.9711 504.825,-487.9711"/>
</g>
<!-- public.organization_workspace -->
<g id="node4" class="node">
<title>public.organization_workspace</title>
<polygon fill="#efefef" stroke="transparent" points="921.5,-535.5 921.5,-570.5 1308.5,-570.5 1308.5,-535.5 921.5,-535.5"/>
<polygon fill="none" stroke="#000000" points="921.5,-535.5 921.5,-570.5 1308.5,-570.5 1308.5,-535.5 921.5,-535.5"/>
<text text-anchor="start" x="928.1896" y="-548.3" font-family="Arial Bold" font-size="18.00" fill="#000000">public.organization_workspace</text>
<text text-anchor="start" x="1174.2424" y="-548.3" font-family="Arial" font-size="14.00" fill="#000000">    </text>
<text text-anchor="start" x="1208.4472" y="-548.3" font-family="Arial" font-size="14.00" fill="#666666">[BASE TABLE]</text>
<polygon fill="none" stroke="#000000" points="921.5,-505.5 921.5,-535.5 1308.5,-535.5 1308.5,-505.5 921.5,-505.5"/>
<text text-anchor="start" x="928.5" y="-516.9" font-family="Arial" font-size="14.00" fill="#000000">organization_workspace_id    </text>
<text text-anchor="start" x="1132.2994" y="-516.9" font-family="Arial" font-size="14.00" fill="#666666">[bigint]</text>
<polygon fill="none" stroke="#000000" points="921.5,-475.5 921.5,-505.5 1308.5,-505.5 1308.5,-475.5 921.5,-475.5"/>
<text text-anchor="start" x="928.5" y="-486.9" font-family="Arial" font-size="14.00" fill="#000000">organization_id    </text>
<text text-anchor="start" x="1057.6192" y="-486.9" font-family="Arial" font-size="14.00" fill="#666666">[bigint]</text>
<polygon fill="none" stroke="#000000" points="921.5,-445.5 921.5,-475.5 1308.5,-475.5 1308.5,-445.5 921.5,-445.5"/>
<text text-anchor="start" x="928.5" y="-456.9" font-family="Arial" font-size="14.00" fill="#000000">workspace_id    </text>
<text text-anchor="start" x="1048.2742" y="-456.9" font-family="Arial" font-size="14.00" fill="#666666">[bigint]</text>
</g>
<!-- public.organization_workspace&#45;&gt;public.organization -->
<g id="edge3" class="edge">
<title>public.organization_workspace:organization_id&#45;&gt;public.organization:organization_id</title>
<path fill="none" stroke="#000000" d="M911.4155,-489.8237C856.3366,-481.8135 893.6644,-404.2502 869.5,-343 845.9084,-283.2017 875.7837,-210.5 811.5,-210.5"/>
<polygon fill="#000000" stroke="#000000" points="911.5224,-489.8308 921.1988,-494.9899 916.5112,-490.1654 921.5,-490.5 921.5,-490.5 921.5,-490.5 916.5112,-490.1654 921.8012,-486.0101 911.5224,-489.8308 911.5224,-489.8308"/>
</g>
</g>
</svg>
