<?xml version="1.0" encoding="UTF-8" standalone="no"?>
<!DOCTYPE svg PUBLIC "-//W3C//DTD SVG 1.1//EN"
 "http://www.w3.org/Graphics/SVG/1.1/DTD/svg11.dtd">
<!-- Generated by graphviz version 2.40.1 (20161225.0304)
 -->
<!-- Title: public.organization_member_authority Pages: 1 -->
<svg width="546pt" height="502pt"
 viewBox="0.00 0.00 546.00 502.00" xmlns="http://www.w3.org/2000/svg" xmlns:xlink="http://www.w3.org/1999/xlink">
<g id="graph0" class="graph" transform="scale(1 1) rotate(0) translate(4 498)">
<title>public.organization_member_authority</title>
<polygon fill="#ffffff" stroke="transparent" points="-4,4 -4,-498 542,-498 542,4 -4,4"/>
<!-- public.organization_member_authority -->
<g id="node1" class="node">
<title>public.organization_member_authority</title>
<polygon fill="#efefef" stroke="transparent" points="46,-135.5 46,-170.5 492,-170.5 492,-135.5 46,-135.5"/>
<polygon fill="none" stroke="#000000" points="46,-135.5 46,-170.5 492,-170.5 492,-135.5 46,-135.5"/>
<text text-anchor="start" x="52.6867" y="-148.3" font-family="Arial Bold" font-size="18.00" fill="#000000">public.organization_member_authority</text>
<text text-anchor="start" x="357.7453" y="-148.3" font-family="Arial" font-size="14.00" fill="#000000">    </text>
<text text-anchor="start" x="391.9501" y="-148.3" font-family="Arial" font-size="14.00" fill="#666666">[BASE TABLE]</text>
<polygon fill="none" stroke="#000000" points="46,-105.5 46,-135.5 492,-135.5 492,-105.5 46,-105.5"/>
<text text-anchor="start" x="53" y="-116.9" font-family="Arial" font-size="14.00" fill="#000000">organization_member_authority_id </text>
<text text-anchor="start" x="272.3786" y="-116.9" font-family="Arial" font-size="14.00" fill="#666666">[bigint]</text>
<polygon fill="none" stroke="#000000" points="46,-75.5 46,-105.5 492,-105.5 492,-75.5 46,-75.5"/>
<text text-anchor="start" x="53" y="-86.9" font-family="Arial" font-size="14.00" fill="#000000">symbol </text>
<text text-anchor="start" x="101.223" y="-86.9" font-family="Arial" font-size="14.00" fill="#666666">[varchar(255)]</text>
<polygon fill="none" stroke="#000000" points="46,-45.5 46,-75.5 492,-75.5 492,-45.5 46,-45.5"/>
<text text-anchor="start" x="53" y="-56.9" font-family="Arial" font-size="14.00" fill="#000000">value </text>
<text text-anchor="start" x="90.345" y="-56.9" font-family="Arial" font-size="14.00" fill="#666666">[integer]</text>
<polygon fill="none" stroke="#000000" stroke-width="3" points="44.5,-44.5 44.5,-172.5 493.5,-172.5 493.5,-44.5 44.5,-44.5"/>
</g>
<!-- public.organization_member -->
<g id="node2" class="node">
<title>public.organization_member</title>
<polygon fill="#efefef" stroke="transparent" points="85,-415.5 85,-450.5 452,-450.5 452,-415.5 85,-415.5"/>
<polygon fill="none" stroke="#000000" points="85,-415.5 85,-450.5 452,-450.5 452,-415.5 85,-415.5"/>
<text text-anchor="start" x="91.6976" y="-428.3" font-family="Arial Bold" font-size="18.00" fill="#000000">public.organization_member</text>
<text text-anchor="start" x="317.7344" y="-428.3" font-family="Arial" font-size="14.00" fill="#000000">    </text>
<text text-anchor="start" x="351.9392" y="-428.3" font-family="Arial" font-size="14.00" fill="#666666">[BASE TABLE]</text>
<polygon fill="none" stroke="#000000" points="85,-385.5 85,-415.5 452,-415.5 452,-385.5 85,-385.5"/>
<text text-anchor="start" x="92" y="-396.9" font-family="Arial" font-size="14.00" fill="#000000">organization_member_id    </text>
<text text-anchor="start" x="280.2314" y="-396.9" font-family="Arial" font-size="14.00" fill="#666666">[bigint]</text>
<polygon fill="none" stroke="#000000" points="85,-355.5 85,-385.5 452,-385.5 452,-355.5 85,-355.5"/>
<text text-anchor="start" x="92" y="-366.9" font-family="Arial" font-size="14.00" fill="#000000">organization_id    </text>
<text text-anchor="start" x="221.1192" y="-366.9" font-family="Arial" font-size="14.00" fill="#666666">[bigint]</text>
<polygon fill="none" stroke="#000000" points="85,-325.5 85,-355.5 452,-355.5 452,-325.5 85,-325.5"/>
<text text-anchor="start" x="92" y="-336.9" font-family="Arial" font-size="14.00" fill="#000000">user_account_id    </text>
<text text-anchor="start" x="228.906" y="-336.9" font-family="Arial" font-size="14.00" fill="#666666">[bigint]</text>
<polygon fill="none" stroke="#000000" points="85,-295.5 85,-325.5 452,-325.5 452,-295.5 85,-295.5"/>
<text text-anchor="start" x="92" y="-306.9" font-family="Arial" font-size="14.00" fill="#000000">organization_member_authority_id    </text>
<text text-anchor="start" x="341.6928" y="-306.9" font-family="Arial" font-size="14.00" fill="#666666">[bigint]</text>
</g>
<!-- public.organization_member&#45;&gt;public.organization_member_authority -->
<g id="edge1" class="edge">
<title>public.organization_member:organization_member_authority_id&#45;&gt;public.organization_member_authority:organization_member_authority_id</title>
<path fill="none" stroke="#000000" d="M268.4418,-285.4713C258.0254,-197.8743 104.6468,-299.8191 46,-217 21.2142,-181.9983 3.1111,-120.5 46,-120.5"/>
<polygon fill="#000000" stroke="#000000" points="268.4442,-285.5155 264.507,-295.7501 268.7221,-290.5077 269,-295.5 269,-295.5 269,-295.5 268.7221,-290.5077 273.493,-295.2499 268.4442,-285.5155 268.4442,-285.5155"/>
</g>
</g>
</svg>
