<?xml version="1.0" encoding="UTF-8" standalone="no"?>
<!DOCTYPE svg PUBLIC "-//W3C//DTD SVG 1.1//EN"
 "http://www.w3.org/Graphics/SVG/1.1/DTD/svg11.dtd">
<!-- Generated by graphviz version 2.40.1 (20161225.0304)
 -->
<!-- Title: public.temporary_user_token Pages: 1 -->
<svg width="499pt" height="532pt"
 viewBox="0.00 0.00 498.59 532.00" xmlns="http://www.w3.org/2000/svg" xmlns:xlink="http://www.w3.org/1999/xlink">
<g id="graph0" class="graph" transform="scale(1 1) rotate(0) translate(4 528)">
<title>public.temporary_user_token</title>
<polygon fill="#ffffff" stroke="transparent" points="-4,4 -4,-528 494.5892,-528 494.5892,4 -4,4"/>
<!-- public.temporary_user_token -->
<g id="node1" class="node">
<title>public.temporary_user_token</title>
<polygon fill="#efefef" stroke="transparent" points="72.0892,-442.5 72.0892,-477.5 445.0892,-477.5 445.0892,-442.5 72.0892,-442.5"/>
<polygon fill="none" stroke="#000000" points="72.0892,-442.5 72.0892,-477.5 445.0892,-477.5 445.0892,-442.5 72.0892,-442.5"/>
<text text-anchor="start" x="78.7799" y="-455.3" font-family="Arial Bold" font-size="18.00" fill="#000000">public.temporary_user_token</text>
<text text-anchor="start" x="310.8305" y="-455.3" font-family="Arial" font-size="14.00" fill="#000000">    </text>
<text text-anchor="start" x="345.0353" y="-455.3" font-family="Arial" font-size="14.00" fill="#666666">[BASE TABLE]</text>
<polygon fill="none" stroke="#000000" points="72.0892,-412.5 72.0892,-442.5 445.0892,-442.5 445.0892,-412.5 72.0892,-412.5"/>
<text text-anchor="start" x="79.0892" y="-423.9" font-family="Arial" font-size="14.00" fill="#000000">temporary_user_token_id </text>
<text text-anchor="start" x="241.6838" y="-423.9" font-family="Arial" font-size="14.00" fill="#666666">[bigint]</text>
<polygon fill="none" stroke="#000000" points="72.0892,-382.5 72.0892,-412.5 445.0892,-412.5 445.0892,-382.5 72.0892,-382.5"/>
<text text-anchor="start" x="79.0892" y="-393.9" font-family="Arial" font-size="14.00" fill="#000000">temporary_user_id </text>
<text text-anchor="start" x="199.6628" y="-393.9" font-family="Arial" font-size="14.00" fill="#666666">[bigint]</text>
<polygon fill="none" stroke="#000000" points="72.0892,-352.5 72.0892,-382.5 445.0892,-382.5 445.0892,-352.5 72.0892,-352.5"/>
<text text-anchor="start" x="79.0892" y="-363.9" font-family="Arial" font-size="14.00" fill="#000000">token </text>
<text text-anchor="start" x="117.2182" y="-363.9" font-family="Arial" font-size="14.00" fill="#666666">[varchar(255)]</text>
<polygon fill="none" stroke="#000000" points="72.0892,-322.5 72.0892,-352.5 445.0892,-352.5 445.0892,-322.5 72.0892,-322.5"/>
<text text-anchor="start" x="79.0892" y="-333.9" font-family="Arial" font-size="14.00" fill="#000000">created_at </text>
<text text-anchor="start" x="149.1172" y="-333.9" font-family="Arial" font-size="14.00" fill="#666666">[timestamp without time zone]</text>
<polygon fill="none" stroke="#000000" stroke-width="3" points="70.0892,-321.5 70.0892,-479.5 446.0892,-479.5 446.0892,-321.5 70.0892,-321.5"/>
</g>
<!-- public.temporary_user -->
<g id="node2" class="node">
<title>public.temporary_user</title>
<polygon fill="#efefef" stroke="transparent" points="99.0892,-162.5 99.0892,-197.5 418.0892,-197.5 418.0892,-162.5 99.0892,-162.5"/>
<polygon fill="none" stroke="#000000" points="99.0892,-162.5 99.0892,-197.5 418.0892,-197.5 418.0892,-162.5 99.0892,-162.5"/>
<text text-anchor="start" x="105.7934" y="-175.3" font-family="Arial Bold" font-size="18.00" fill="#000000">public.temporary_user</text>
<text text-anchor="start" x="283.817" y="-175.3" font-family="Arial" font-size="14.00" fill="#000000">    </text>
<text text-anchor="start" x="318.0218" y="-175.3" font-family="Arial" font-size="14.00" fill="#666666">[BASE TABLE]</text>
<polygon fill="none" stroke="#000000" points="99.0892,-132.5 99.0892,-162.5 418.0892,-162.5 418.0892,-132.5 99.0892,-132.5"/>
<text text-anchor="start" x="106.0892" y="-143.9" font-family="Arial" font-size="14.00" fill="#000000">temporary_user_id    </text>
<text text-anchor="start" x="256.977" y="-143.9" font-family="Arial" font-size="14.00" fill="#666666">[bigint]</text>
<polygon fill="none" stroke="#000000" points="99.0892,-102.5 99.0892,-132.5 418.0892,-132.5 418.0892,-102.5 99.0892,-102.5"/>
<text text-anchor="start" x="106.0892" y="-113.9" font-family="Arial" font-size="14.00" fill="#000000">email    </text>
<text text-anchor="start" x="173.733" y="-113.9" font-family="Arial" font-size="14.00" fill="#666666">[varchar(255)]</text>
<polygon fill="none" stroke="#000000" points="99.0892,-72.5 99.0892,-102.5 418.0892,-102.5 418.0892,-72.5 99.0892,-72.5"/>
<text text-anchor="start" x="106.0892" y="-83.9" font-family="Arial" font-size="14.00" fill="#000000">password    </text>
<text text-anchor="start" x="200.1916" y="-83.9" font-family="Arial" font-size="14.00" fill="#666666">[varchar(255)]</text>
<polygon fill="none" stroke="#000000" points="99.0892,-42.5 99.0892,-72.5 418.0892,-72.5 418.0892,-42.5 99.0892,-42.5"/>
<text text-anchor="start" x="106.0892" y="-53.9" font-family="Arial" font-size="14.00" fill="#000000">created_at    </text>
<text text-anchor="start" x="206.4314" y="-53.9" font-family="Arial" font-size="14.00" fill="#666666">[timestamp without time zone]</text>
</g>
<!-- public.temporary_user_token&#45;&gt;public.temporary_user -->
<g id="edge1" class="edge">
<title>public.temporary_user_token:temporary_user_id&#45;&gt;public.temporary_user:temporary_user_id</title>
<path fill="none" stroke="#000000" d="M62.0168,-396.7828C-37.8977,-382.1191 -9.1756,-147.5 99.0892,-147.5"/>
<polygon fill="#000000" stroke="#000000" points="62.1145,-396.7897 71.7696,-401.9886 67.1018,-397.1448 72.0892,-397.5 72.0892,-397.5 72.0892,-397.5 67.1018,-397.1448 72.4089,-393.0114 62.1145,-396.7897 62.1145,-396.7897"/>
</g>
</g>
</svg>
