<?xml version="1.0" encoding="UTF-8" standalone="no"?>
<!DOCTYPE svg PUBLIC "-//W3C//DTD SVG 1.1//EN"
 "http://www.w3.org/Graphics/SVG/1.1/DTD/svg11.dtd">
<!-- Generated by graphviz version 2.40.1 (20161225.0304)
 -->
<!-- Title: public.user_jwt_subject Pages: 1 -->
<svg width="459pt" height="562pt"
 viewBox="0.00 0.00 458.71 562.00" xmlns="http://www.w3.org/2000/svg" xmlns:xlink="http://www.w3.org/1999/xlink">
<g id="graph0" class="graph" transform="scale(1 1) rotate(0) translate(4 558)">
<title>public.user_jwt_subject</title>
<polygon fill="#ffffff" stroke="transparent" points="-4,4 -4,-558 454.7134,-558 454.7134,4 -4,4"/>
<!-- public.user_jwt_subject -->
<g id="node1" class="node">
<title>public.user_jwt_subject</title>
<polygon fill="#efefef" stroke="transparent" points="78.2134,-472.5 78.2134,-507.5 405.2134,-507.5 405.2134,-472.5 78.2134,-472.5"/>
<polygon fill="none" stroke="#000000" points="78.2134,-472.5 78.2134,-507.5 405.2134,-507.5 405.2134,-472.5 78.2134,-472.5"/>
<text text-anchor="start" x="84.9135" y="-485.3" font-family="Arial Bold" font-size="18.00" fill="#000000">public.user_jwt_subject</text>
<text text-anchor="start" x="270.9453" y="-485.3" font-family="Arial" font-size="14.00" fill="#000000">    </text>
<text text-anchor="start" x="305.1501" y="-485.3" font-family="Arial" font-size="14.00" fill="#666666">[BASE TABLE]</text>
<polygon fill="none" stroke="#000000" points="78.2134,-442.5 78.2134,-472.5 405.2134,-472.5 405.2134,-442.5 78.2134,-442.5"/>
<text text-anchor="start" x="85.2134" y="-453.9" font-family="Arial" font-size="14.00" fill="#000000">user_jwt_subject_id </text>
<text text-anchor="start" x="212.0156" y="-453.9" font-family="Arial" font-size="14.00" fill="#666666">[bigint]</text>
<polygon fill="none" stroke="#000000" points="78.2134,-412.5 78.2134,-442.5 405.2134,-442.5 405.2134,-412.5 78.2134,-412.5"/>
<text text-anchor="start" x="85.2134" y="-423.9" font-family="Arial" font-size="14.00" fill="#000000">user_id </text>
<text text-anchor="start" x="135.0016" y="-423.9" font-family="Arial" font-size="14.00" fill="#666666">[bigint]</text>
<polygon fill="none" stroke="#000000" points="78.2134,-382.5 78.2134,-412.5 405.2134,-412.5 405.2134,-382.5 78.2134,-382.5"/>
<text text-anchor="start" x="85.2134" y="-393.9" font-family="Arial" font-size="14.00" fill="#000000">subject </text>
<text text-anchor="start" x="133.449" y="-393.9" font-family="Arial" font-size="14.00" fill="#666666">[varchar(255)]</text>
<polygon fill="none" stroke="#000000" points="78.2134,-352.5 78.2134,-382.5 405.2134,-382.5 405.2134,-352.5 78.2134,-352.5"/>
<text text-anchor="start" x="85.2134" y="-363.9" font-family="Arial" font-size="14.00" fill="#000000">created_at </text>
<text text-anchor="start" x="155.2414" y="-363.9" font-family="Arial" font-size="14.00" fill="#666666">[timestamp without time zone]</text>
<polygon fill="none" stroke="#000000" stroke-width="3" points="76.2134,-351.5 76.2134,-509.5 406.2134,-509.5 406.2134,-351.5 76.2134,-351.5"/>
</g>
<!-- public.user -->
<g id="node2" class="node">
<title>public.user</title>
<polygon fill="#efefef" stroke="transparent" points="90.2134,-192.5 90.2134,-227.5 393.2134,-227.5 393.2134,-192.5 90.2134,-192.5"/>
<polygon fill="none" stroke="#000000" points="90.2134,-192.5 90.2134,-227.5 393.2134,-227.5 393.2134,-192.5 90.2134,-192.5"/>
<text text-anchor="start" x="134.4225" y="-205.3" font-family="Arial Bold" font-size="18.00" fill="#000000">public.user</text>
<text text-anchor="start" x="221.4363" y="-205.3" font-family="Arial" font-size="14.00" fill="#000000">    </text>
<text text-anchor="start" x="255.6411" y="-205.3" font-family="Arial" font-size="14.00" fill="#666666">[BASE TABLE]</text>
<polygon fill="none" stroke="#000000" points="90.2134,-162.5 90.2134,-192.5 393.2134,-192.5 393.2134,-162.5 90.2134,-162.5"/>
<text text-anchor="start" x="97.2134" y="-173.9" font-family="Arial" font-size="14.00" fill="#000000">user_id    </text>
<text text-anchor="start" x="177.3158" y="-173.9" font-family="Arial" font-size="14.00" fill="#666666">[bigint]</text>
<polygon fill="none" stroke="#000000" points="90.2134,-132.5 90.2134,-162.5 393.2134,-162.5 393.2134,-132.5 90.2134,-132.5"/>
<text text-anchor="start" x="97.2134" y="-143.9" font-family="Arial" font-size="14.00" fill="#000000">email    </text>
<text text-anchor="start" x="164.8572" y="-143.9" font-family="Arial" font-size="14.00" fill="#666666">[varchar(255)]</text>
<polygon fill="none" stroke="#000000" points="90.2134,-102.5 90.2134,-132.5 393.2134,-132.5 393.2134,-102.5 90.2134,-102.5"/>
<text text-anchor="start" x="97.2134" y="-113.9" font-family="Arial" font-size="14.00" fill="#000000">created_at    </text>
<text text-anchor="start" x="197.5556" y="-113.9" font-family="Arial" font-size="14.00" fill="#666666">[timestamp without time zone]</text>
<polygon fill="none" stroke="#000000" points="90.2134,-72.5 90.2134,-102.5 393.2134,-102.5 393.2134,-72.5 90.2134,-72.5"/>
<text text-anchor="start" x="97.0199" y="-83.9" font-family="Arial" font-size="14.00" fill="#000000">updated_at    </text>
<text text-anchor="start" x="201.2667" y="-83.9" font-family="Arial" font-size="14.00" fill="#666666">[timestamp without time zone]</text>
<polygon fill="none" stroke="#000000" points="90.2134,-42.5 90.2134,-72.5 393.2134,-72.5 393.2134,-42.5 90.2134,-42.5"/>
<text text-anchor="start" x="97.2134" y="-53.9" font-family="Arial" font-size="14.00" fill="#000000">is_deleted    </text>
<text text-anchor="start" x="195.2176" y="-53.9" font-family="Arial" font-size="14.00" fill="#666666">[boolean]</text>
</g>
<!-- public.user_jwt_subject&#45;&gt;public.user -->
<g id="edge1" class="edge">
<title>public.user_jwt_subject:user_id&#45;&gt;public.user:user_id</title>
<path fill="none" stroke="#000000" d="M68.1451,-426.7828C-32.1787,-412.1191 -17.5494,-177.5 90.2134,-177.5"/>
<polygon fill="#000000" stroke="#000000" points="68.2387,-426.7894 77.8937,-431.9886 73.2261,-427.1447 78.2134,-427.5 78.2134,-427.5 78.2134,-427.5 73.2261,-427.1447 78.5332,-423.0114 68.2387,-426.7894 68.2387,-426.7894"/>
</g>
</g>
</svg>
