<?xml version="1.0" encoding="UTF-8" standalone="no"?>
<!DOCTYPE svg PUBLIC "-//W3C//DTD SVG 1.1//EN"
 "http://www.w3.org/Graphics/SVG/1.1/DTD/svg11.dtd">
<!-- Generated by graphviz version 2.40.1 (20161225.0304)
 -->
<!-- Title: public.user_account Pages: 1 -->
<svg width="2625pt" height="1109pt"
 viewBox="0.00 0.00 2624.50 1109.00" xmlns="http://www.w3.org/2000/svg" xmlns:xlink="http://www.w3.org/1999/xlink">
<g id="graph0" class="graph" transform="scale(1 1) rotate(0) translate(4 1105)">
<title>public.user_account</title>
<polygon fill="#ffffff" stroke="transparent" points="-4,4 -4,-1105 2620.5,-1105 2620.5,4 -4,4"/>
<!-- public.user_account -->
<g id="node1" class="node">
<title>public.user_account</title>
<polygon fill="#efefef" stroke="transparent" points="1192.5,-592.5 1192.5,-627.5 1493.5,-627.5 1493.5,-592.5 1192.5,-592.5"/>
<polygon fill="none" stroke="#000000" points="1192.5,-592.5 1192.5,-627.5 1493.5,-627.5 1493.5,-592.5 1192.5,-592.5"/>
<text text-anchor="start" x="1199.1925" y="-605.3" font-family="Arial Bold" font-size="18.00" fill="#000000">public.user_account</text>
<text text-anchor="start" x="1359.2395" y="-605.3" font-family="Arial" font-size="14.00" fill="#000000">    </text>
<text text-anchor="start" x="1393.4443" y="-605.3" font-family="Arial" font-size="14.00" fill="#666666">[BASE TABLE]</text>
<polygon fill="none" stroke="#000000" points="1192.5,-562.5 1192.5,-592.5 1493.5,-592.5 1493.5,-562.5 1192.5,-562.5"/>
<text text-anchor="start" x="1199.5" y="-573.9" font-family="Arial" font-size="14.00" fill="#000000">user_account_id </text>
<text text-anchor="start" x="1306.0918" y="-573.9" font-family="Arial" font-size="14.00" fill="#666666">[bigint]</text>
<polygon fill="none" stroke="#000000" points="1192.5,-532.5 1192.5,-562.5 1493.5,-562.5 1493.5,-532.5 1192.5,-532.5"/>
<text text-anchor="start" x="1199.5" y="-543.9" font-family="Arial" font-size="14.00" fill="#000000">user_id </text>
<text text-anchor="start" x="1249.2882" y="-543.9" font-family="Arial" font-size="14.00" fill="#666666">[bigint]</text>
<polygon fill="none" stroke="#000000" points="1192.5,-502.5 1192.5,-532.5 1493.5,-532.5 1493.5,-502.5 1192.5,-502.5"/>
<text text-anchor="start" x="1199.5" y="-513.9" font-family="Arial" font-size="14.00" fill="#000000">user_account_name </text>
<text text-anchor="start" x="1330.211" y="-513.9" font-family="Arial" font-size="14.00" fill="#666666">[varchar(255)]</text>
<polygon fill="none" stroke="#000000" points="1192.5,-472.5 1192.5,-502.5 1493.5,-502.5 1493.5,-472.5 1192.5,-472.5"/>
<text text-anchor="start" x="1199.5" y="-483.9" font-family="Arial" font-size="14.00" fill="#000000">display_name </text>
<text text-anchor="start" x="1289.7426" y="-483.9" font-family="Arial" font-size="14.00" fill="#666666">[varchar(255)]</text>
<polygon fill="none" stroke="#000000" points="1192.5,-442.5 1192.5,-472.5 1493.5,-472.5 1493.5,-442.5 1192.5,-442.5"/>
<text text-anchor="start" x="1199.5" y="-453.9" font-family="Arial" font-size="14.00" fill="#000000">last_logined_at </text>
<text text-anchor="start" x="1297.535" y="-453.9" font-family="Arial" font-size="14.00" fill="#666666">[timestamp without time zone]</text>
<polygon fill="none" stroke="#000000" points="1192.5,-412.5 1192.5,-442.5 1493.5,-442.5 1493.5,-412.5 1192.5,-412.5"/>
<text text-anchor="start" x="1199.5" y="-423.9" font-family="Arial" font-size="14.00" fill="#000000">created_at </text>
<text text-anchor="start" x="1269.528" y="-423.9" font-family="Arial" font-size="14.00" fill="#666666">[timestamp without time zone]</text>
<polygon fill="none" stroke="#000000" points="1192.5,-382.5 1192.5,-412.5 1493.5,-412.5 1493.5,-382.5 1192.5,-382.5"/>
<text text-anchor="start" x="1199.5" y="-393.9" font-family="Arial" font-size="14.00" fill="#000000">updated_at </text>
<text text-anchor="start" x="1273.4326" y="-393.9" font-family="Arial" font-size="14.00" fill="#666666">[timestamp without time zone]</text>
<polygon fill="none" stroke="#000000" points="1192.5,-352.5 1192.5,-382.5 1493.5,-382.5 1493.5,-352.5 1192.5,-352.5"/>
<text text-anchor="start" x="1199.5" y="-363.9" font-family="Arial" font-size="14.00" fill="#000000">is_deleted </text>
<text text-anchor="start" x="1267.19" y="-363.9" font-family="Arial" font-size="14.00" fill="#666666">[boolean]</text>
<polygon fill="none" stroke="#000000" stroke-width="3" points="1190.5,-351.5 1190.5,-629.5 1494.5,-629.5 1494.5,-351.5 1190.5,-351.5"/>
</g>
<!-- public.user -->
<g id="node8" class="node">
<title>public.user</title>
<polygon fill="#efefef" stroke="transparent" points="1191.5,-192.5 1191.5,-227.5 1494.5,-227.5 1494.5,-192.5 1191.5,-192.5"/>
<polygon fill="none" stroke="#000000" points="1191.5,-192.5 1191.5,-227.5 1494.5,-227.5 1494.5,-192.5 1191.5,-192.5"/>
<text text-anchor="start" x="1235.7091" y="-205.3" font-family="Arial Bold" font-size="18.00" fill="#000000">public.user</text>
<text text-anchor="start" x="1322.7229" y="-205.3" font-family="Arial" font-size="14.00" fill="#000000">    </text>
<text text-anchor="start" x="1356.9277" y="-205.3" font-family="Arial" font-size="14.00" fill="#666666">[BASE TABLE]</text>
<polygon fill="none" stroke="#000000" points="1191.5,-162.5 1191.5,-192.5 1494.5,-192.5 1494.5,-162.5 1191.5,-162.5"/>
<text text-anchor="start" x="1198.5" y="-173.9" font-family="Arial" font-size="14.00" fill="#000000">user_id    </text>
<text text-anchor="start" x="1278.6024" y="-173.9" font-family="Arial" font-size="14.00" fill="#666666">[bigint]</text>
<polygon fill="none" stroke="#000000" points="1191.5,-132.5 1191.5,-162.5 1494.5,-162.5 1494.5,-132.5 1191.5,-132.5"/>
<text text-anchor="start" x="1198.5" y="-143.9" font-family="Arial" font-size="14.00" fill="#000000">email    </text>
<text text-anchor="start" x="1266.1438" y="-143.9" font-family="Arial" font-size="14.00" fill="#666666">[varchar(255)]</text>
<polygon fill="none" stroke="#000000" points="1191.5,-102.5 1191.5,-132.5 1494.5,-132.5 1494.5,-102.5 1191.5,-102.5"/>
<text text-anchor="start" x="1198.5" y="-113.9" font-family="Arial" font-size="14.00" fill="#000000">created_at    </text>
<text text-anchor="start" x="1298.8422" y="-113.9" font-family="Arial" font-size="14.00" fill="#666666">[timestamp without time zone]</text>
<polygon fill="none" stroke="#000000" points="1191.5,-72.5 1191.5,-102.5 1494.5,-102.5 1494.5,-72.5 1191.5,-72.5"/>
<text text-anchor="start" x="1198.3065" y="-83.9" font-family="Arial" font-size="14.00" fill="#000000">updated_at    </text>
<text text-anchor="start" x="1302.5533" y="-83.9" font-family="Arial" font-size="14.00" fill="#666666">[timestamp without time zone]</text>
<polygon fill="none" stroke="#000000" points="1191.5,-42.5 1191.5,-72.5 1494.5,-72.5 1494.5,-42.5 1191.5,-42.5"/>
<text text-anchor="start" x="1198.5" y="-53.9" font-family="Arial" font-size="14.00" fill="#000000">is_deleted    </text>
<text text-anchor="start" x="1296.5042" y="-53.9" font-family="Arial" font-size="14.00" fill="#666666">[boolean]</text>
</g>
<!-- public.user_account&#45;&gt;public.user -->
<g id="edge7" class="edge">
<title>public.user_account:user_id&#45;&gt;public.user:user_id</title>
<path fill="none" stroke="#000000" d="M1182.1274,-546.995C1028.0884,-531.7723 1030.588,-177.5 1191.5,-177.5"/>
<polygon fill="#000000" stroke="#000000" points="1182.5118,-547.0136 1192.2811,-551.9947 1187.5059,-547.2568 1192.5,-547.5 1192.5,-547.5 1192.5,-547.5 1187.5059,-547.2568 1192.7189,-543.0053 1182.5118,-547.0136 1182.5118,-547.0136"/>
</g>
<!-- public.organization_member -->
<g id="node2" class="node">
<title>public.organization_member</title>
<polygon fill="#efefef" stroke="transparent" points="43.5,-947.5 43.5,-982.5 410.5,-982.5 410.5,-947.5 43.5,-947.5"/>
<polygon fill="none" stroke="#000000" points="43.5,-947.5 43.5,-982.5 410.5,-982.5 410.5,-947.5 43.5,-947.5"/>
<text text-anchor="start" x="50.1976" y="-960.3" font-family="Arial Bold" font-size="18.00" fill="#000000">public.organization_member</text>
<text text-anchor="start" x="276.2344" y="-960.3" font-family="Arial" font-size="14.00" fill="#000000">    </text>
<text text-anchor="start" x="310.4392" y="-960.3" font-family="Arial" font-size="14.00" fill="#666666">[BASE TABLE]</text>
<polygon fill="none" stroke="#000000" points="43.5,-917.5 43.5,-947.5 410.5,-947.5 410.5,-917.5 43.5,-917.5"/>
<text text-anchor="start" x="50.5" y="-928.9" font-family="Arial" font-size="14.00" fill="#000000">organization_member_id    </text>
<text text-anchor="start" x="238.7314" y="-928.9" font-family="Arial" font-size="14.00" fill="#666666">[bigint]</text>
<polygon fill="none" stroke="#000000" points="43.5,-887.5 43.5,-917.5 410.5,-917.5 410.5,-887.5 43.5,-887.5"/>
<text text-anchor="start" x="50.5" y="-898.9" font-family="Arial" font-size="14.00" fill="#000000">organization_id    </text>
<text text-anchor="start" x="179.6192" y="-898.9" font-family="Arial" font-size="14.00" fill="#666666">[bigint]</text>
<polygon fill="none" stroke="#000000" points="43.5,-857.5 43.5,-887.5 410.5,-887.5 410.5,-857.5 43.5,-857.5"/>
<text text-anchor="start" x="50.5" y="-868.9" font-family="Arial" font-size="14.00" fill="#000000">user_account_id    </text>
<text text-anchor="start" x="187.406" y="-868.9" font-family="Arial" font-size="14.00" fill="#666666">[bigint]</text>
<polygon fill="none" stroke="#000000" points="43.5,-827.5 43.5,-857.5 410.5,-857.5 410.5,-827.5 43.5,-827.5"/>
<text text-anchor="start" x="50.5" y="-838.9" font-family="Arial" font-size="14.00" fill="#000000">organization_member_authority_id    </text>
<text text-anchor="start" x="300.1928" y="-838.9" font-family="Arial" font-size="14.00" fill="#666666">[bigint]</text>
</g>
<!-- public.organization_member&#45;&gt;public.user_account -->
<g id="edge1" class="edge">
<title>public.organization_member:user_account_id&#45;&gt;public.user_account:user_account_id</title>
<path fill="none" stroke="#000000" d="M420.4986,-871.7163C478.5706,-861.6704 407.5129,-757.6375 461.5,-710 585.2897,-600.7696 1027.4086,-577.5 1192.5,-577.5"/>
<polygon fill="#000000" stroke="#000000" points="420.4694,-871.7185 410.1483,-868.0138 415.4847,-872.1092 410.5,-872.5 410.5,-872.5 410.5,-872.5 415.4847,-872.1092 410.8517,-876.9862 420.4694,-871.7185 420.4694,-871.7185"/>
</g>
<!-- public.workspace_member -->
<g id="node3" class="node">
<title>public.workspace_member</title>
<polygon fill="#efefef" stroke="transparent" points="514.5,-947.5 514.5,-982.5 869.5,-982.5 869.5,-947.5 514.5,-947.5"/>
<polygon fill="none" stroke="#000000" points="514.5,-947.5 514.5,-982.5 869.5,-982.5 869.5,-947.5 514.5,-947.5"/>
<text text-anchor="start" x="521.2051" y="-960.3" font-family="Arial Bold" font-size="18.00" fill="#000000">public.workspace_member</text>
<text text-anchor="start" x="735.2269" y="-960.3" font-family="Arial" font-size="14.00" fill="#000000">    </text>
<text text-anchor="start" x="769.4317" y="-960.3" font-family="Arial" font-size="14.00" fill="#666666">[BASE TABLE]</text>
<polygon fill="none" stroke="#000000" points="514.5,-917.5 514.5,-947.5 869.5,-947.5 869.5,-917.5 514.5,-917.5"/>
<text text-anchor="start" x="521.5" y="-928.9" font-family="Arial" font-size="14.00" fill="#000000">workspace_member_id    </text>
<text text-anchor="start" x="700.3864" y="-928.9" font-family="Arial" font-size="14.00" fill="#666666">[bigint]</text>
<polygon fill="none" stroke="#000000" points="514.5,-887.5 514.5,-917.5 869.5,-917.5 869.5,-887.5 514.5,-887.5"/>
<text text-anchor="start" x="521.5" y="-898.9" font-family="Arial" font-size="14.00" fill="#000000">workspace_id    </text>
<text text-anchor="start" x="641.2742" y="-898.9" font-family="Arial" font-size="14.00" fill="#666666">[bigint]</text>
<polygon fill="none" stroke="#000000" points="514.5,-857.5 514.5,-887.5 869.5,-887.5 869.5,-857.5 514.5,-857.5"/>
<text text-anchor="start" x="521.5" y="-868.9" font-family="Arial" font-size="14.00" fill="#000000">user_account_id    </text>
<text text-anchor="start" x="658.406" y="-868.9" font-family="Arial" font-size="14.00" fill="#666666">[bigint]</text>
<polygon fill="none" stroke="#000000" points="514.5,-827.5 514.5,-857.5 869.5,-857.5 869.5,-827.5 514.5,-827.5"/>
<text text-anchor="start" x="521.5" y="-838.9" font-family="Arial" font-size="14.00" fill="#000000">workspace_member_authority_id    </text>
<text text-anchor="start" x="761.8478" y="-838.9" font-family="Arial" font-size="14.00" fill="#666666">[bigint]</text>
</g>
<!-- public.workspace_member&#45;&gt;public.user_account -->
<g id="edge2" class="edge">
<title>public.workspace_member:user_account_id&#45;&gt;public.user_account:user_account_id</title>
<path fill="none" stroke="#000000" d="M879.5487,-871.7658C938.2554,-862.3468 873.5244,-764.564 920.5,-710 1008.2336,-608.094 1058.0306,-577.5 1192.5,-577.5"/>
<polygon fill="#000000" stroke="#000000" points="879.4734,-871.7712 869.1721,-868.012 874.4867,-872.1356 869.5,-872.5 869.5,-872.5 869.5,-872.5 874.4867,-872.1356 869.8279,-876.988 879.4734,-871.7712 879.4734,-871.7712"/>
</g>
<!-- public.project_member -->
<g id="node4" class="node">
<title>public.project_member</title>
<polygon fill="#efefef" stroke="transparent" points="973.5,-947.5 973.5,-982.5 1296.5,-982.5 1296.5,-947.5 973.5,-947.5"/>
<polygon fill="none" stroke="#000000" points="973.5,-947.5 973.5,-982.5 1296.5,-982.5 1296.5,-947.5 973.5,-947.5"/>
<text text-anchor="start" x="980.2071" y="-960.3" font-family="Arial Bold" font-size="18.00" fill="#000000">public.project_member</text>
<text text-anchor="start" x="1162.2249" y="-960.3" font-family="Arial" font-size="14.00" fill="#000000">    </text>
<text text-anchor="start" x="1196.4297" y="-960.3" font-family="Arial" font-size="14.00" fill="#666666">[BASE TABLE]</text>
<polygon fill="none" stroke="#000000" points="973.5,-917.5 973.5,-947.5 1296.5,-947.5 1296.5,-917.5 973.5,-917.5"/>
<text text-anchor="start" x="980.5" y="-928.9" font-family="Arial" font-size="14.00" fill="#000000">project_member_id    </text>
<text text-anchor="start" x="1134.4944" y="-928.9" font-family="Arial" font-size="14.00" fill="#666666">[bigint]</text>
<polygon fill="none" stroke="#000000" points="973.5,-887.5 973.5,-917.5 1296.5,-917.5 1296.5,-887.5 973.5,-887.5"/>
<text text-anchor="start" x="980.5" y="-898.9" font-family="Arial" font-size="14.00" fill="#000000">project_id    </text>
<text text-anchor="start" x="1075.3822" y="-898.9" font-family="Arial" font-size="14.00" fill="#666666">[bigint]</text>
<polygon fill="none" stroke="#000000" points="973.5,-857.5 973.5,-887.5 1296.5,-887.5 1296.5,-857.5 973.5,-857.5"/>
<text text-anchor="start" x="980.5" y="-868.9" font-family="Arial" font-size="14.00" fill="#000000">user_account_id    </text>
<text text-anchor="start" x="1117.406" y="-868.9" font-family="Arial" font-size="14.00" fill="#666666">[bigint]</text>
<polygon fill="none" stroke="#000000" points="973.5,-827.5 973.5,-857.5 1296.5,-857.5 1296.5,-827.5 973.5,-827.5"/>
<text text-anchor="start" x="980.5" y="-838.9" font-family="Arial" font-size="14.00" fill="#000000">project_member_authority_id    </text>
<text text-anchor="start" x="1195.9558" y="-838.9" font-family="Arial" font-size="14.00" fill="#666666">[bigint]</text>
</g>
<!-- public.project_member&#45;&gt;public.user_account -->
<g id="edge3" class="edge">
<title>public.project_member:user_account_id&#45;&gt;public.user_account:user_account_id</title>
<path fill="none" stroke="#000000" d="M1306.4618,-870.9811C1330.4996,-862.2292 1309.3436,-817.4929 1296.5,-785 1271.6489,-722.1295 1217.3511,-736.8705 1192.5,-674 1176.7341,-634.114 1149.6111,-577.5 1192.5,-577.5"/>
<polygon fill="#000000" stroke="#000000" points="1306.3858,-870.9927 1295.8217,-868.0514 1301.4429,-871.7463 1296.5,-872.5 1296.5,-872.5 1296.5,-872.5 1301.4429,-871.7463 1297.1783,-876.9486 1306.3858,-870.9927 1306.3858,-870.9927"/>
</g>
<!-- public.task -->
<g id="node5" class="node">
<title>public.task</title>
<polygon fill="#efefef" stroke="transparent" points="1400.5,-1007.5 1400.5,-1042.5 1703.5,-1042.5 1703.5,-1007.5 1400.5,-1007.5"/>
<polygon fill="none" stroke="#000000" points="1400.5,-1007.5 1400.5,-1042.5 1703.5,-1042.5 1703.5,-1007.5 1400.5,-1007.5"/>
<text text-anchor="start" x="1445.7072" y="-1020.3" font-family="Arial Bold" font-size="18.00" fill="#000000">public.task</text>
<text text-anchor="start" x="1530.7248" y="-1020.3" font-family="Arial" font-size="14.00" fill="#000000">    </text>
<text text-anchor="start" x="1564.9296" y="-1020.3" font-family="Arial" font-size="14.00" fill="#666666">[BASE TABLE]</text>
<polygon fill="none" stroke="#000000" points="1400.5,-977.5 1400.5,-1007.5 1703.5,-1007.5 1703.5,-977.5 1400.5,-977.5"/>
<text text-anchor="start" x="1407.5" y="-988.9" font-family="Arial" font-size="14.00" fill="#000000">task_id    </text>
<text text-anchor="start" x="1486.0498" y="-988.9" font-family="Arial" font-size="14.00" fill="#666666">[bigint]</text>
<polygon fill="none" stroke="#000000" points="1400.5,-947.5 1400.5,-977.5 1703.5,-977.5 1703.5,-947.5 1400.5,-947.5"/>
<text text-anchor="start" x="1407.5" y="-958.9" font-family="Arial" font-size="14.00" fill="#000000">project_id    </text>
<text text-anchor="start" x="1502.3822" y="-958.9" font-family="Arial" font-size="14.00" fill="#666666">[bigint]</text>
<polygon fill="none" stroke="#000000" points="1400.5,-917.5 1400.5,-947.5 1703.5,-947.5 1703.5,-917.5 1400.5,-917.5"/>
<text text-anchor="start" x="1407.5" y="-928.9" font-family="Arial" font-size="14.00" fill="#000000">owner_user_account_id    </text>
<text text-anchor="start" x="1590.3036" y="-928.9" font-family="Arial" font-size="14.00" fill="#666666">[bigint]</text>
<polygon fill="none" stroke="#000000" points="1400.5,-887.5 1400.5,-917.5 1703.5,-917.5 1703.5,-887.5 1400.5,-887.5"/>
<text text-anchor="start" x="1407.5" y="-898.9" font-family="Arial" font-size="14.00" fill="#000000">title    </text>
<text text-anchor="start" x="1463.4818" y="-898.9" font-family="Arial" font-size="14.00" fill="#666666">[varchar(255)]</text>
<polygon fill="none" stroke="#000000" points="1400.5,-857.5 1400.5,-887.5 1703.5,-887.5 1703.5,-857.5 1400.5,-857.5"/>
<text text-anchor="start" x="1407.5" y="-868.9" font-family="Arial" font-size="14.00" fill="#000000">content    </text>
<text text-anchor="start" x="1487.6164" y="-868.9" font-family="Arial" font-size="14.00" fill="#666666">[text]</text>
<polygon fill="none" stroke="#000000" points="1400.5,-827.5 1400.5,-857.5 1703.5,-857.5 1703.5,-827.5 1400.5,-827.5"/>
<text text-anchor="start" x="1407.5" y="-838.9" font-family="Arial" font-size="14.00" fill="#000000">created_at    </text>
<text text-anchor="start" x="1507.8422" y="-838.9" font-family="Arial" font-size="14.00" fill="#666666">[timestamp without time zone]</text>
<polygon fill="none" stroke="#000000" points="1400.5,-797.5 1400.5,-827.5 1703.5,-827.5 1703.5,-797.5 1400.5,-797.5"/>
<text text-anchor="start" x="1407.3065" y="-808.9" font-family="Arial" font-size="14.00" fill="#000000">updated_at    </text>
<text text-anchor="start" x="1511.5533" y="-808.9" font-family="Arial" font-size="14.00" fill="#666666">[timestamp without time zone]</text>
<polygon fill="none" stroke="#000000" points="1400.5,-767.5 1400.5,-797.5 1703.5,-797.5 1703.5,-767.5 1400.5,-767.5"/>
<text text-anchor="start" x="1407.5" y="-778.9" font-family="Arial" font-size="14.00" fill="#000000">is_deleted    </text>
<text text-anchor="start" x="1505.5042" y="-778.9" font-family="Arial" font-size="14.00" fill="#666666">[boolean]</text>
</g>
<!-- public.task&#45;&gt;public.user_account -->
<g id="edge4" class="edge">
<title>public.task:owner_user_account_id&#45;&gt;public.user_account:user_account_id</title>
<path fill="none" stroke="#000000" d="M1390.9188,-929.5682C1357.9283,-907.0599 1378.8421,-761.5776 1400.5,-725 1424.5178,-684.4368 1469.4822,-714.5632 1493.5,-674 1515.3516,-637.0952 1536.3889,-577.5 1493.5,-577.5"/>
<polygon fill="#000000" stroke="#000000" points="1390.9377,-929.5739 1399.1833,-936.8031 1395.7188,-931.037 1400.5,-932.5 1400.5,-932.5 1400.5,-932.5 1395.7188,-931.037 1401.8167,-928.1969 1390.9377,-929.5739 1390.9377,-929.5739"/>
</g>
<!-- public.task_member -->
<g id="node6" class="node">
<title>public.task_member</title>
<polygon fill="#efefef" stroke="transparent" points="1807.5,-932.5 1807.5,-967.5 2109.5,-967.5 2109.5,-932.5 1807.5,-932.5"/>
<polygon fill="none" stroke="#000000" points="1807.5,-932.5 1807.5,-967.5 2109.5,-967.5 2109.5,-932.5 1807.5,-932.5"/>
<text text-anchor="start" x="1814.2065" y="-945.3" font-family="Arial Bold" font-size="18.00" fill="#000000">public.task_member</text>
<text text-anchor="start" x="1975.2255" y="-945.3" font-family="Arial" font-size="14.00" fill="#000000">    </text>
<text text-anchor="start" x="2009.4303" y="-945.3" font-family="Arial" font-size="14.00" fill="#666666">[BASE TABLE]</text>
<polygon fill="none" stroke="#000000" points="1807.5,-902.5 1807.5,-932.5 2109.5,-932.5 2109.5,-902.5 1807.5,-902.5"/>
<text text-anchor="start" x="1814.5" y="-913.9" font-family="Arial" font-size="14.00" fill="#000000">task_member_id    </text>
<text text-anchor="start" x="1952.162" y="-913.9" font-family="Arial" font-size="14.00" fill="#666666">[bigint]</text>
<polygon fill="none" stroke="#000000" points="1807.5,-872.5 1807.5,-902.5 2109.5,-902.5 2109.5,-872.5 1807.5,-872.5"/>
<text text-anchor="start" x="1814.5" y="-883.9" font-family="Arial" font-size="14.00" fill="#000000">task_id    </text>
<text text-anchor="start" x="1893.0498" y="-883.9" font-family="Arial" font-size="14.00" fill="#666666">[bigint]</text>
<polygon fill="none" stroke="#000000" points="1807.5,-842.5 1807.5,-872.5 2109.5,-872.5 2109.5,-842.5 1807.5,-842.5"/>
<text text-anchor="start" x="1814.5" y="-853.9" font-family="Arial" font-size="14.00" fill="#000000">user_account_id    </text>
<text text-anchor="start" x="1951.406" y="-853.9" font-family="Arial" font-size="14.00" fill="#666666">[bigint]</text>
</g>
<!-- public.task_member&#45;&gt;public.user_account -->
<g id="edge5" class="edge">
<title>public.task_member:user_account_id&#45;&gt;public.user_account:user_account_id</title>
<path fill="none" stroke="#000000" d="M1797.2487,-856.6678C1744.5957,-847.2079 1798.8648,-759.3674 1755.5,-710 1669.3836,-611.9634 1623.9884,-577.5 1493.5,-577.5"/>
<polygon fill="#000000" stroke="#000000" points="1797.5328,-856.6908 1807.1358,-861.9852 1802.5164,-857.0954 1807.5,-857.5 1807.5,-857.5 1807.5,-857.5 1802.5164,-857.0954 1807.8642,-853.0148 1797.5328,-856.6908 1797.5328,-856.6908"/>
</g>
<!-- public.user_account_profile -->
<g id="node7" class="node">
<title>public.user_account_profile</title>
<polygon fill="#efefef" stroke="transparent" points="2213.5,-1022.5 2213.5,-1057.5 2573.5,-1057.5 2573.5,-1022.5 2213.5,-1022.5"/>
<polygon fill="none" stroke="#000000" points="2213.5,-1022.5 2213.5,-1057.5 2573.5,-1057.5 2573.5,-1022.5 2213.5,-1022.5"/>
<text text-anchor="start" x="2220.1887" y="-1035.3" font-family="Arial Bold" font-size="18.00" fill="#000000">public.user_account_profile</text>
<text text-anchor="start" x="2439.2433" y="-1035.3" font-family="Arial" font-size="14.00" fill="#000000">    </text>
<text text-anchor="start" x="2473.4481" y="-1035.3" font-family="Arial" font-size="14.00" fill="#666666">[BASE TABLE]</text>
<polygon fill="none" stroke="#000000" points="2213.5,-992.5 2213.5,-1022.5 2573.5,-1022.5 2573.5,-992.5 2213.5,-992.5"/>
<text text-anchor="start" x="2220.5" y="-1003.9" font-family="Arial" font-size="14.00" fill="#000000">user_account_profile_id    </text>
<text text-anchor="start" x="2403.3008" y="-1003.9" font-family="Arial" font-size="14.00" fill="#666666">[bigint]</text>
<polygon fill="none" stroke="#000000" points="2213.5,-962.5 2213.5,-992.5 2573.5,-992.5 2573.5,-962.5 2213.5,-962.5"/>
<text text-anchor="start" x="2220.5" y="-973.9" font-family="Arial" font-size="14.00" fill="#000000">user_account_id    </text>
<text text-anchor="start" x="2357.406" y="-973.9" font-family="Arial" font-size="14.00" fill="#666666">[bigint]</text>
<polygon fill="none" stroke="#000000" points="2213.5,-932.5 2213.5,-962.5 2573.5,-962.5 2573.5,-932.5 2213.5,-932.5"/>
<text text-anchor="start" x="2220.5" y="-943.9" font-family="Arial" font-size="14.00" fill="#000000">name    </text>
<text text-anchor="start" x="2289.7132" y="-943.9" font-family="Arial" font-size="14.00" fill="#666666">[varchar(255)]</text>
<polygon fill="none" stroke="#000000" points="2213.5,-902.5 2213.5,-932.5 2573.5,-932.5 2573.5,-902.5 2213.5,-902.5"/>
<text text-anchor="start" x="2220.5" y="-913.9" font-family="Arial" font-size="14.00" fill="#000000">biography    </text>
<text text-anchor="start" x="2316.1676" y="-913.9" font-family="Arial" font-size="14.00" fill="#666666">[text]</text>
<polygon fill="none" stroke="#000000" points="2213.5,-872.5 2213.5,-902.5 2573.5,-902.5 2573.5,-872.5 2213.5,-872.5"/>
<text text-anchor="start" x="2220.5" y="-883.9" font-family="Arial" font-size="14.00" fill="#000000">company    </text>
<text text-anchor="start" x="2311.4958" y="-883.9" font-family="Arial" font-size="14.00" fill="#666666">[varchar(255)]</text>
<polygon fill="none" stroke="#000000" points="2213.5,-842.5 2213.5,-872.5 2573.5,-872.5 2573.5,-842.5 2213.5,-842.5"/>
<text text-anchor="start" x="2220.5" y="-853.9" font-family="Arial" font-size="14.00" fill="#000000">title    </text>
<text text-anchor="start" x="2276.4818" y="-853.9" font-family="Arial" font-size="14.00" fill="#666666">[varchar(255)]</text>
<polygon fill="none" stroke="#000000" points="2213.5,-812.5 2213.5,-842.5 2573.5,-842.5 2573.5,-812.5 2213.5,-812.5"/>
<text text-anchor="start" x="2220.5" y="-823.9" font-family="Arial" font-size="14.00" fill="#000000">created_at    </text>
<text text-anchor="start" x="2320.8422" y="-823.9" font-family="Arial" font-size="14.00" fill="#666666">[timestamp without time zone]</text>
<polygon fill="none" stroke="#000000" points="2213.5,-782.5 2213.5,-812.5 2573.5,-812.5 2573.5,-782.5 2213.5,-782.5"/>
<text text-anchor="start" x="2220.5" y="-793.9" font-family="Arial" font-size="14.00" fill="#000000">updated_at    </text>
<text text-anchor="start" x="2324.7468" y="-793.9" font-family="Arial" font-size="14.00" fill="#666666">[timestamp without time zone]</text>
<polygon fill="none" stroke="#000000" points="2213.5,-752.5 2213.5,-782.5 2573.5,-782.5 2573.5,-752.5 2213.5,-752.5"/>
<text text-anchor="start" x="2220.5" y="-763.9" font-family="Arial" font-size="14.00" fill="#000000">is_deleted    </text>
<text text-anchor="start" x="2318.5042" y="-763.9" font-family="Arial" font-size="14.00" fill="#666666">[boolean]</text>
</g>
<!-- public.user_account_profile&#45;&gt;public.user_account -->
<g id="edge6" class="edge">
<title>public.user_account_profile:user_account_id&#45;&gt;public.user_account:user_account_id</title>
<path fill="none" stroke="#000000" d="M2203.2441,-977.0081C2101.5257,-966.5868 2244.3896,-793.2064 2161.5,-710 2054.6932,-602.7851 1644.8365,-577.5 1493.5,-577.5"/>
<polygon fill="#000000" stroke="#000000" points="2203.5115,-977.0209 2213.2844,-981.9948 2208.5057,-977.2604 2213.5,-977.5 2213.5,-977.5 2213.5,-977.5 2208.5057,-977.2604 2213.7156,-973.0052 2203.5115,-977.0209 2203.5115,-977.0209"/>
</g>
</g>
</svg>
