<?xml version="1.0" encoding="UTF-8" standalone="no"?>
<!DOCTYPE svg PUBLIC "-//W3C//DTD SVG 1.1//EN"
 "http://www.w3.org/Graphics/SVG/1.1/DTD/svg11.dtd">
<!-- Generated by graphviz version 2.40.1 (20161225.0304)
 -->
<!-- Title: public.user Pages: 1 -->
<svg width="804pt" height="652pt"
 viewBox="0.00 0.00 804.00 652.00" xmlns="http://www.w3.org/2000/svg" xmlns:xlink="http://www.w3.org/1999/xlink">
<g id="graph0" class="graph" transform="scale(1 1) rotate(0) translate(4 648)">
<title>public.user</title>
<polygon fill="#ffffff" stroke="transparent" points="-4,4 -4,-648 800,-648 800,4 -4,4"/>
<!-- public.user -->
<g id="node1" class="node">
<title>public.user</title>
<polygon fill="#efefef" stroke="transparent" points="261.5,-195.5 261.5,-230.5 534.5,-230.5 534.5,-195.5 261.5,-195.5"/>
<polygon fill="none" stroke="#000000" points="261.5,-195.5 261.5,-230.5 534.5,-230.5 534.5,-195.5 261.5,-195.5"/>
<text text-anchor="start" x="290.7091" y="-208.3" font-family="Arial Bold" font-size="18.00" fill="#000000">public.user</text>
<text text-anchor="start" x="377.7229" y="-208.3" font-family="Arial" font-size="14.00" fill="#000000">    </text>
<text text-anchor="start" x="411.9277" y="-208.3" font-family="Arial" font-size="14.00" fill="#666666">[BASE TABLE]</text>
<polygon fill="none" stroke="#000000" points="261.5,-165.5 261.5,-195.5 534.5,-195.5 534.5,-165.5 261.5,-165.5"/>
<text text-anchor="start" x="268.5" y="-176.9" font-family="Arial" font-size="14.00" fill="#000000">user_id </text>
<text text-anchor="start" x="318.2882" y="-176.9" font-family="Arial" font-size="14.00" fill="#666666">[bigint]</text>
<polygon fill="none" stroke="#000000" points="261.5,-135.5 261.5,-165.5 534.5,-165.5 534.5,-135.5 261.5,-135.5"/>
<text text-anchor="start" x="268.5" y="-146.9" font-family="Arial" font-size="14.00" fill="#000000">email </text>
<text text-anchor="start" x="305.8296" y="-146.9" font-family="Arial" font-size="14.00" fill="#666666">[varchar(255)]</text>
<polygon fill="none" stroke="#000000" points="261.5,-105.5 261.5,-135.5 534.5,-135.5 534.5,-105.5 261.5,-105.5"/>
<text text-anchor="start" x="268.5" y="-116.9" font-family="Arial" font-size="14.00" fill="#000000">created_at </text>
<text text-anchor="start" x="338.528" y="-116.9" font-family="Arial" font-size="14.00" fill="#666666">[timestamp without time zone]</text>
<polygon fill="none" stroke="#000000" points="261.5,-75.5 261.5,-105.5 534.5,-105.5 534.5,-75.5 261.5,-75.5"/>
<text text-anchor="start" x="268.4636" y="-86.9" font-family="Arial" font-size="14.00" fill="#000000">updated_at </text>
<text text-anchor="start" x="342.3962" y="-86.9" font-family="Arial" font-size="14.00" fill="#666666">[timestamp without time zone]</text>
<polygon fill="none" stroke="#000000" points="261.5,-45.5 261.5,-75.5 534.5,-75.5 534.5,-45.5 261.5,-45.5"/>
<text text-anchor="start" x="268.5" y="-56.9" font-family="Arial" font-size="14.00" fill="#000000">is_deleted </text>
<text text-anchor="start" x="336.19" y="-56.9" font-family="Arial" font-size="14.00" fill="#666666">[boolean]</text>
<polygon fill="none" stroke="#000000" stroke-width="3" points="259.5,-44.5 259.5,-232.5 535.5,-232.5 535.5,-44.5 259.5,-44.5"/>
</g>
<!-- public.user_auth -->
<g id="node2" class="node">
<title>public.user_auth</title>
<polygon fill="#efefef" stroke="transparent" points="43.5,-535.5 43.5,-570.5 346.5,-570.5 346.5,-535.5 43.5,-535.5"/>
<polygon fill="none" stroke="#000000" points="43.5,-535.5 43.5,-570.5 346.5,-570.5 346.5,-535.5 43.5,-535.5"/>
<text text-anchor="start" x="65.1956" y="-548.3" font-family="Arial Bold" font-size="18.00" fill="#000000">public.user_auth</text>
<text text-anchor="start" x="197.2364" y="-548.3" font-family="Arial" font-size="14.00" fill="#000000">    </text>
<text text-anchor="start" x="231.4412" y="-548.3" font-family="Arial" font-size="14.00" fill="#666666">[BASE TABLE]</text>
<polygon fill="none" stroke="#000000" points="43.5,-505.5 43.5,-535.5 346.5,-535.5 346.5,-505.5 43.5,-505.5"/>
<text text-anchor="start" x="50.5" y="-516.9" font-family="Arial" font-size="14.00" fill="#000000">user_auth_id    </text>
<text text-anchor="start" x="165.6234" y="-516.9" font-family="Arial" font-size="14.00" fill="#666666">[bigint]</text>
<polygon fill="none" stroke="#000000" points="43.5,-475.5 43.5,-505.5 346.5,-505.5 346.5,-475.5 43.5,-475.5"/>
<text text-anchor="start" x="50.5" y="-486.9" font-family="Arial" font-size="14.00" fill="#000000">user_id    </text>
<text text-anchor="start" x="130.6024" y="-486.9" font-family="Arial" font-size="14.00" fill="#666666">[bigint]</text>
<polygon fill="none" stroke="#000000" points="43.5,-445.5 43.5,-475.5 346.5,-475.5 346.5,-445.5 43.5,-445.5"/>
<text text-anchor="start" x="50.5" y="-456.9" font-family="Arial" font-size="14.00" fill="#000000">password    </text>
<text text-anchor="start" x="144.6024" y="-456.9" font-family="Arial" font-size="14.00" fill="#666666">[varchar(255)]</text>
<polygon fill="none" stroke="#000000" points="43.5,-415.5 43.5,-445.5 346.5,-445.5 346.5,-415.5 43.5,-415.5"/>
<text text-anchor="start" x="50.5" y="-426.9" font-family="Arial" font-size="14.00" fill="#000000">created_at    </text>
<text text-anchor="start" x="150.8422" y="-426.9" font-family="Arial" font-size="14.00" fill="#666666">[timestamp without time zone]</text>
<polygon fill="none" stroke="#000000" points="43.5,-385.5 43.5,-415.5 346.5,-415.5 346.5,-385.5 43.5,-385.5"/>
<text text-anchor="start" x="50.3065" y="-396.9" font-family="Arial" font-size="14.00" fill="#000000">updated_at    </text>
<text text-anchor="start" x="154.5533" y="-396.9" font-family="Arial" font-size="14.00" fill="#666666">[timestamp without time zone]</text>
</g>
<!-- public.user_auth&#45;&gt;public.user -->
<g id="edge1" class="edge">
<title>public.user_auth:user_id&#45;&gt;public.user:user_id</title>
<path fill="none" stroke="#000000" d="M356.6749,-489.6686C407.9201,-480.5562 373.6932,-398.5429 346.5,-343 325.4688,-300.0431 282.5312,-319.9569 261.5,-277 242.641,-238.4799 218.6111,-180.5 261.5,-180.5"/>
<polygon fill="#000000" stroke="#000000" points="356.4668,-489.6855 346.1335,-486.0149 351.4834,-490.0927 346.5,-490.5 346.5,-490.5 346.5,-490.5 351.4834,-490.0927 346.8665,-494.9851 356.4668,-489.6855 356.4668,-489.6855"/>
</g>
<!-- public.user_account -->
<g id="node3" class="node">
<title>public.user_account</title>
<polygon fill="#efefef" stroke="transparent" points="450.5,-565.5 450.5,-600.5 753.5,-600.5 753.5,-565.5 450.5,-565.5"/>
<polygon fill="none" stroke="#000000" points="450.5,-565.5 450.5,-600.5 753.5,-600.5 753.5,-565.5 450.5,-565.5"/>
<text text-anchor="start" x="458.1925" y="-578.3" font-family="Arial Bold" font-size="18.00" fill="#000000">public.user_account</text>
<text text-anchor="start" x="618.2395" y="-578.3" font-family="Arial" font-size="14.00" fill="#000000">    </text>
<text text-anchor="start" x="652.4443" y="-578.3" font-family="Arial" font-size="14.00" fill="#666666">[BASE TABLE]</text>
<polygon fill="none" stroke="#000000" points="450.5,-535.5 450.5,-565.5 753.5,-565.5 753.5,-535.5 450.5,-535.5"/>
<text text-anchor="start" x="457.5" y="-546.9" font-family="Arial" font-size="14.00" fill="#000000">user_account_id    </text>
<text text-anchor="start" x="594.406" y="-546.9" font-family="Arial" font-size="14.00" fill="#666666">[bigint]</text>
<polygon fill="none" stroke="#000000" points="450.5,-505.5 450.5,-535.5 753.5,-535.5 753.5,-505.5 450.5,-505.5"/>
<text text-anchor="start" x="457.5" y="-516.9" font-family="Arial" font-size="14.00" fill="#000000">user_id    </text>
<text text-anchor="start" x="537.6024" y="-516.9" font-family="Arial" font-size="14.00" fill="#666666">[bigint]</text>
<polygon fill="none" stroke="#000000" points="450.5,-475.5 450.5,-505.5 753.5,-505.5 753.5,-475.5 450.5,-475.5"/>
<text text-anchor="start" x="457.5" y="-486.9" font-family="Arial" font-size="14.00" fill="#000000">user_account_name    </text>
<text text-anchor="start" x="618.5252" y="-486.9" font-family="Arial" font-size="14.00" fill="#666666">[varchar(255)]</text>
<polygon fill="none" stroke="#000000" points="450.5,-445.5 450.5,-475.5 753.5,-475.5 753.5,-445.5 450.5,-445.5"/>
<text text-anchor="start" x="457.5" y="-456.9" font-family="Arial" font-size="14.00" fill="#000000">display_name    </text>
<text text-anchor="start" x="578.0568" y="-456.9" font-family="Arial" font-size="14.00" fill="#666666">[varchar(255)]</text>
<polygon fill="none" stroke="#000000" points="450.5,-415.5 450.5,-445.5 753.5,-445.5 753.5,-415.5 450.5,-415.5"/>
<text text-anchor="start" x="457.5" y="-426.9" font-family="Arial" font-size="14.00" fill="#000000">created_at    </text>
<text text-anchor="start" x="557.8422" y="-426.9" font-family="Arial" font-size="14.00" fill="#666666">[timestamp without time zone]</text>
<polygon fill="none" stroke="#000000" points="450.5,-385.5 450.5,-415.5 753.5,-415.5 753.5,-385.5 450.5,-385.5"/>
<text text-anchor="start" x="457.3065" y="-396.9" font-family="Arial" font-size="14.00" fill="#000000">updated_at    </text>
<text text-anchor="start" x="561.5533" y="-396.9" font-family="Arial" font-size="14.00" fill="#666666">[timestamp without time zone]</text>
<polygon fill="none" stroke="#000000" points="450.5,-355.5 450.5,-385.5 753.5,-385.5 753.5,-355.5 450.5,-355.5"/>
<text text-anchor="start" x="457.5" y="-366.9" font-family="Arial" font-size="14.00" fill="#000000">is_deleted    </text>
<text text-anchor="start" x="555.5042" y="-366.9" font-family="Arial" font-size="14.00" fill="#666666">[boolean]</text>
</g>
<!-- public.user_account&#45;&gt;public.user -->
<g id="edge2" class="edge">
<title>public.user_account:user_id&#45;&gt;public.user:user_id</title>
<path fill="none" stroke="#000000" d="M440.8869,-517.5483C407.656,-494.8896 427.0994,-348.488 450.5,-313 472.8595,-279.0909 512.1405,-310.9091 534.5,-277 558.1099,-241.1946 577.3889,-180.5 534.5,-180.5"/>
<polygon fill="#000000" stroke="#000000" points="440.9405,-517.5646 449.1791,-524.8018 445.7202,-519.0323 450.5,-520.5 450.5,-520.5 450.5,-520.5 445.7202,-519.0323 451.8209,-516.1982 440.9405,-517.5646 440.9405,-517.5646"/>
</g>
</g>
</svg>
