<?xml version="1.0" encoding="UTF-8" standalone="no"?>
<!DOCTYPE svg PUBLIC "-//W3C//DTD SVG 1.1//EN"
 "http://www.w3.org/Graphics/SVG/1.1/DTD/svg11.dtd">
<!-- Generated by graphviz version 2.40.1 (20161225.0304)
 -->
<!-- Title: public.project Pages: 1 -->
<svg width="824pt" height="1079pt"
 viewBox="0.00 0.00 824.00 1079.00" xmlns="http://www.w3.org/2000/svg" xmlns:xlink="http://www.w3.org/1999/xlink">
<g id="graph0" class="graph" transform="scale(1 1) rotate(0) translate(4 1075)">
<title>public.project</title>
<polygon fill="#ffffff" stroke="transparent" points="-4,4 -4,-1075 820,-1075 820,4 -4,4"/>
<!-- public.project -->
<g id="node1" class="node">
<title>public.project</title>
<polygon fill="#efefef" stroke="transparent" points="276.5,-592.5 276.5,-627.5 549.5,-627.5 549.5,-592.5 276.5,-592.5"/>
<polygon fill="none" stroke="#000000" points="276.5,-592.5 276.5,-627.5 549.5,-627.5 549.5,-592.5 276.5,-592.5"/>
<text text-anchor="start" x="296.2078" y="-605.3" font-family="Arial Bold" font-size="18.00" fill="#000000">public.project</text>
<text text-anchor="start" x="402.2242" y="-605.3" font-family="Arial" font-size="14.00" fill="#000000">    </text>
<text text-anchor="start" x="436.429" y="-605.3" font-family="Arial" font-size="14.00" fill="#666666">[BASE TABLE]</text>
<polygon fill="none" stroke="#000000" points="276.5,-562.5 276.5,-592.5 549.5,-592.5 549.5,-562.5 276.5,-562.5"/>
<text text-anchor="start" x="283.5" y="-573.9" font-family="Arial" font-size="14.00" fill="#000000">project_id </text>
<text text-anchor="start" x="348.068" y="-573.9" font-family="Arial" font-size="14.00" fill="#666666">[bigint]</text>
<polygon fill="none" stroke="#000000" points="276.5,-532.5 276.5,-562.5 549.5,-562.5 549.5,-532.5 276.5,-532.5"/>
<text text-anchor="start" x="283.5" y="-543.9" font-family="Arial" font-size="14.00" fill="#000000">project_name </text>
<text text-anchor="start" x="372.1872" y="-543.9" font-family="Arial" font-size="14.00" fill="#666666">[varchar(255)]</text>
<polygon fill="none" stroke="#000000" points="276.5,-502.5 276.5,-532.5 549.5,-532.5 549.5,-502.5 276.5,-502.5"/>
<text text-anchor="start" x="283.5" y="-513.9" font-family="Arial" font-size="14.00" fill="#000000">display_name </text>
<text text-anchor="start" x="373.7426" y="-513.9" font-family="Arial" font-size="14.00" fill="#666666">[varchar(255)]</text>
<polygon fill="none" stroke="#000000" points="276.5,-472.5 276.5,-502.5 549.5,-502.5 549.5,-472.5 276.5,-472.5"/>
<text text-anchor="start" x="283.5" y="-483.9" font-family="Arial" font-size="14.00" fill="#000000">workspace_id </text>
<text text-anchor="start" x="372.96" y="-483.9" font-family="Arial" font-size="14.00" fill="#666666">[bigint]</text>
<polygon fill="none" stroke="#000000" points="276.5,-442.5 276.5,-472.5 549.5,-472.5 549.5,-442.5 276.5,-442.5"/>
<text text-anchor="start" x="283.5" y="-453.9" font-family="Arial" font-size="14.00" fill="#000000">created_at </text>
<text text-anchor="start" x="353.528" y="-453.9" font-family="Arial" font-size="14.00" fill="#666666">[timestamp without time zone]</text>
<polygon fill="none" stroke="#000000" points="276.5,-412.5 276.5,-442.5 549.5,-442.5 549.5,-412.5 276.5,-412.5"/>
<text text-anchor="start" x="283.4636" y="-423.9" font-family="Arial" font-size="14.00" fill="#000000">updated_at </text>
<text text-anchor="start" x="357.3962" y="-423.9" font-family="Arial" font-size="14.00" fill="#666666">[timestamp without time zone]</text>
<polygon fill="none" stroke="#000000" points="276.5,-382.5 276.5,-412.5 549.5,-412.5 549.5,-382.5 276.5,-382.5"/>
<text text-anchor="start" x="283.5" y="-393.9" font-family="Arial" font-size="14.00" fill="#000000">is_deleted </text>
<text text-anchor="start" x="351.19" y="-393.9" font-family="Arial" font-size="14.00" fill="#666666">[boolean]</text>
<polygon fill="none" stroke="#000000" stroke-width="3" points="274.5,-381.5 274.5,-629.5 550.5,-629.5 550.5,-381.5 274.5,-381.5"/>
</g>
<!-- public.workspace -->
<g id="node4" class="node">
<title>public.workspace</title>
<polygon fill="#efefef" stroke="transparent" points="261.5,-222.5 261.5,-257.5 564.5,-257.5 564.5,-222.5 261.5,-222.5"/>
<polygon fill="none" stroke="#000000" points="261.5,-222.5 261.5,-257.5 564.5,-257.5 564.5,-222.5 261.5,-222.5"/>
<text text-anchor="start" x="280.2058" y="-235.3" font-family="Arial Bold" font-size="18.00" fill="#000000">public.workspace</text>
<text text-anchor="start" x="418.2262" y="-235.3" font-family="Arial" font-size="14.00" fill="#000000">    </text>
<text text-anchor="start" x="452.431" y="-235.3" font-family="Arial" font-size="14.00" fill="#666666">[BASE TABLE]</text>
<polygon fill="none" stroke="#000000" points="261.5,-192.5 261.5,-222.5 564.5,-222.5 564.5,-192.5 261.5,-192.5"/>
<text text-anchor="start" x="268.5" y="-203.9" font-family="Arial" font-size="14.00" fill="#000000">workspace_id    </text>
<text text-anchor="start" x="388.2742" y="-203.9" font-family="Arial" font-size="14.00" fill="#666666">[bigint]</text>
<polygon fill="none" stroke="#000000" points="261.5,-162.5 261.5,-192.5 564.5,-192.5 564.5,-162.5 261.5,-162.5"/>
<text text-anchor="start" x="268.5" y="-173.9" font-family="Arial" font-size="14.00" fill="#000000">workspace_name    </text>
<text text-anchor="start" x="412.3934" y="-173.9" font-family="Arial" font-size="14.00" fill="#666666">[varchar(255)]</text>
<polygon fill="none" stroke="#000000" points="261.5,-132.5 261.5,-162.5 564.5,-162.5 564.5,-132.5 261.5,-132.5"/>
<text text-anchor="start" x="268.5" y="-143.9" font-family="Arial" font-size="14.00" fill="#000000">display_name    </text>
<text text-anchor="start" x="389.0568" y="-143.9" font-family="Arial" font-size="14.00" fill="#666666">[varchar(255)]</text>
<polygon fill="none" stroke="#000000" points="261.5,-102.5 261.5,-132.5 564.5,-132.5 564.5,-102.5 261.5,-102.5"/>
<text text-anchor="start" x="268.5" y="-113.9" font-family="Arial" font-size="14.00" fill="#000000">created_at    </text>
<text text-anchor="start" x="368.8422" y="-113.9" font-family="Arial" font-size="14.00" fill="#666666">[timestamp without time zone]</text>
<polygon fill="none" stroke="#000000" points="261.5,-72.5 261.5,-102.5 564.5,-102.5 564.5,-72.5 261.5,-72.5"/>
<text text-anchor="start" x="268.3065" y="-83.9" font-family="Arial" font-size="14.00" fill="#000000">updated_at    </text>
<text text-anchor="start" x="372.5533" y="-83.9" font-family="Arial" font-size="14.00" fill="#666666">[timestamp without time zone]</text>
<polygon fill="none" stroke="#000000" points="261.5,-42.5 261.5,-72.5 564.5,-72.5 564.5,-42.5 261.5,-42.5"/>
<text text-anchor="start" x="268.5" y="-53.9" font-family="Arial" font-size="14.00" fill="#000000">is_deleted    </text>
<text text-anchor="start" x="366.5042" y="-53.9" font-family="Arial" font-size="14.00" fill="#666666">[boolean]</text>
</g>
<!-- public.project&#45;&gt;public.workspace -->
<g id="edge3" class="edge">
<title>public.project:workspace_id&#45;&gt;public.workspace:workspace_id</title>
<path fill="none" stroke="#000000" d="M266.1764,-486.839C151.1395,-471.8652 140.4065,-207.5 261.5,-207.5"/>
<polygon fill="#000000" stroke="#000000" points="266.5204,-486.8609 276.2124,-491.9908 271.5102,-487.1805 276.5,-487.5 276.5,-487.5 276.5,-487.5 271.5102,-487.1805 276.7876,-483.0092 266.5204,-486.8609 266.5204,-486.8609"/>
</g>
<!-- public.project_member -->
<g id="node2" class="node">
<title>public.project_member</title>
<polygon fill="#efefef" stroke="transparent" points="43.5,-932.5 43.5,-967.5 366.5,-967.5 366.5,-932.5 43.5,-932.5"/>
<polygon fill="none" stroke="#000000" points="43.5,-932.5 43.5,-967.5 366.5,-967.5 366.5,-932.5 43.5,-932.5"/>
<text text-anchor="start" x="50.2071" y="-945.3" font-family="Arial Bold" font-size="18.00" fill="#000000">public.project_member</text>
<text text-anchor="start" x="232.2249" y="-945.3" font-family="Arial" font-size="14.00" fill="#000000">    </text>
<text text-anchor="start" x="266.4297" y="-945.3" font-family="Arial" font-size="14.00" fill="#666666">[BASE TABLE]</text>
<polygon fill="none" stroke="#000000" points="43.5,-902.5 43.5,-932.5 366.5,-932.5 366.5,-902.5 43.5,-902.5"/>
<text text-anchor="start" x="50.5" y="-913.9" font-family="Arial" font-size="14.00" fill="#000000">project_member_id    </text>
<text text-anchor="start" x="204.4944" y="-913.9" font-family="Arial" font-size="14.00" fill="#666666">[bigint]</text>
<polygon fill="none" stroke="#000000" points="43.5,-872.5 43.5,-902.5 366.5,-902.5 366.5,-872.5 43.5,-872.5"/>
<text text-anchor="start" x="50.5" y="-883.9" font-family="Arial" font-size="14.00" fill="#000000">project_id    </text>
<text text-anchor="start" x="145.3822" y="-883.9" font-family="Arial" font-size="14.00" fill="#666666">[bigint]</text>
<polygon fill="none" stroke="#000000" points="43.5,-842.5 43.5,-872.5 366.5,-872.5 366.5,-842.5 43.5,-842.5"/>
<text text-anchor="start" x="50.5" y="-853.9" font-family="Arial" font-size="14.00" fill="#000000">user_account_id    </text>
<text text-anchor="start" x="187.406" y="-853.9" font-family="Arial" font-size="14.00" fill="#666666">[bigint]</text>
<polygon fill="none" stroke="#000000" points="43.5,-812.5 43.5,-842.5 366.5,-842.5 366.5,-812.5 43.5,-812.5"/>
<text text-anchor="start" x="50.5" y="-823.9" font-family="Arial" font-size="14.00" fill="#000000">project_member_authority_id    </text>
<text text-anchor="start" x="265.9558" y="-823.9" font-family="Arial" font-size="14.00" fill="#666666">[bigint]</text>
</g>
<!-- public.project_member&#45;&gt;public.project -->
<g id="edge1" class="edge">
<title>public.project_member:project_id&#45;&gt;public.project:project_id</title>
<path fill="none" stroke="#000000" d="M376.7595,-886.3973C413.8972,-877.3794 384.2788,-814.9587 366.5,-770 344.993,-715.6135 298.007,-728.3865 276.5,-674 260.7281,-634.1164 233.6111,-577.5 276.5,-577.5"/>
<polygon fill="#000000" stroke="#000000" points="376.4427,-886.4313 366.0191,-883.0258 371.4714,-886.9656 366.5,-887.5 366.5,-887.5 366.5,-887.5 371.4714,-886.9656 366.9809,-891.9742 376.4427,-886.4313 376.4427,-886.4313"/>
</g>
<!-- public.task -->
<g id="node3" class="node">
<title>public.task</title>
<polygon fill="#efefef" stroke="transparent" points="470.5,-992.5 470.5,-1027.5 773.5,-1027.5 773.5,-992.5 470.5,-992.5"/>
<polygon fill="none" stroke="#000000" points="470.5,-992.5 470.5,-1027.5 773.5,-1027.5 773.5,-992.5 470.5,-992.5"/>
<text text-anchor="start" x="515.7072" y="-1005.3" font-family="Arial Bold" font-size="18.00" fill="#000000">public.task</text>
<text text-anchor="start" x="600.7248" y="-1005.3" font-family="Arial" font-size="14.00" fill="#000000">    </text>
<text text-anchor="start" x="634.9296" y="-1005.3" font-family="Arial" font-size="14.00" fill="#666666">[BASE TABLE]</text>
<polygon fill="none" stroke="#000000" points="470.5,-962.5 470.5,-992.5 773.5,-992.5 773.5,-962.5 470.5,-962.5"/>
<text text-anchor="start" x="477.5" y="-973.9" font-family="Arial" font-size="14.00" fill="#000000">task_id    </text>
<text text-anchor="start" x="556.0498" y="-973.9" font-family="Arial" font-size="14.00" fill="#666666">[bigint]</text>
<polygon fill="none" stroke="#000000" points="470.5,-932.5 470.5,-962.5 773.5,-962.5 773.5,-932.5 470.5,-932.5"/>
<text text-anchor="start" x="477.5" y="-943.9" font-family="Arial" font-size="14.00" fill="#000000">project_id    </text>
<text text-anchor="start" x="572.3822" y="-943.9" font-family="Arial" font-size="14.00" fill="#666666">[bigint]</text>
<polygon fill="none" stroke="#000000" points="470.5,-902.5 470.5,-932.5 773.5,-932.5 773.5,-902.5 470.5,-902.5"/>
<text text-anchor="start" x="477.5" y="-913.9" font-family="Arial" font-size="14.00" fill="#000000">owner_user_account_id    </text>
<text text-anchor="start" x="660.3036" y="-913.9" font-family="Arial" font-size="14.00" fill="#666666">[bigint]</text>
<polygon fill="none" stroke="#000000" points="470.5,-872.5 470.5,-902.5 773.5,-902.5 773.5,-872.5 470.5,-872.5"/>
<text text-anchor="start" x="477.5" y="-883.9" font-family="Arial" font-size="14.00" fill="#000000">title    </text>
<text text-anchor="start" x="533.4818" y="-883.9" font-family="Arial" font-size="14.00" fill="#666666">[varchar(255)]</text>
<polygon fill="none" stroke="#000000" points="470.5,-842.5 470.5,-872.5 773.5,-872.5 773.5,-842.5 470.5,-842.5"/>
<text text-anchor="start" x="477.5" y="-853.9" font-family="Arial" font-size="14.00" fill="#000000">content    </text>
<text text-anchor="start" x="557.6164" y="-853.9" font-family="Arial" font-size="14.00" fill="#666666">[text]</text>
<polygon fill="none" stroke="#000000" points="470.5,-812.5 470.5,-842.5 773.5,-842.5 773.5,-812.5 470.5,-812.5"/>
<text text-anchor="start" x="477.5" y="-823.9" font-family="Arial" font-size="14.00" fill="#000000">created_at    </text>
<text text-anchor="start" x="577.8422" y="-823.9" font-family="Arial" font-size="14.00" fill="#666666">[timestamp without time zone]</text>
<polygon fill="none" stroke="#000000" points="470.5,-782.5 470.5,-812.5 773.5,-812.5 773.5,-782.5 470.5,-782.5"/>
<text text-anchor="start" x="477.3065" y="-793.9" font-family="Arial" font-size="14.00" fill="#000000">updated_at    </text>
<text text-anchor="start" x="581.5533" y="-793.9" font-family="Arial" font-size="14.00" fill="#666666">[timestamp without time zone]</text>
<polygon fill="none" stroke="#000000" points="470.5,-752.5 470.5,-782.5 773.5,-782.5 773.5,-752.5 470.5,-752.5"/>
<text text-anchor="start" x="477.5" y="-763.9" font-family="Arial" font-size="14.00" fill="#000000">is_deleted    </text>
<text text-anchor="start" x="575.5042" y="-763.9" font-family="Arial" font-size="14.00" fill="#666666">[boolean]</text>
</g>
<!-- public.task&#45;&gt;public.project -->
<g id="edge2" class="edge">
<title>public.task:project_id&#45;&gt;public.project:project_id</title>
<path fill="none" stroke="#000000" d="M460.484,-944.7547C421.1504,-921.0789 443.9556,-751.2668 470.5,-710 491.3738,-677.5489 528.6262,-706.4511 549.5,-674 572.7022,-637.9291 592.3889,-577.5 549.5,-577.5"/>
<polygon fill="#000000" stroke="#000000" points="460.8557,-944.8565 469.3104,-951.8399 465.6779,-946.1782 470.5,-947.5 470.5,-947.5 470.5,-947.5 465.6779,-946.1782 471.6896,-943.1601 460.8557,-944.8565 460.8557,-944.8565"/>
</g>
</g>
</svg>
