<?xml version="1.0" encoding="UTF-8" standalone="no"?>
<!DOCTYPE svg PUBLIC "-//W3C//DTD SVG 1.1//EN"
 "http://www.w3.org/Graphics/SVG/1.1/DTD/svg11.dtd">
<!-- Generated by graphviz version 2.40.1 (20161225.0304)
 -->
<!-- Title: public.workspace Pages: 1 -->
<svg width="856pt" height="1049pt"
 viewBox="0.00 0.00 856.00 1049.00" xmlns="http://www.w3.org/2000/svg" xmlns:xlink="http://www.w3.org/1999/xlink">
<g id="graph0" class="graph" transform="scale(1 1) rotate(0) translate(4 1045)">
<title>public.workspace</title>
<polygon fill="#ffffff" stroke="transparent" points="-4,4 -4,-1045 852,-1045 852,4 -4,4"/>
<!-- public.workspace -->
<g id="node1" class="node">
<title>public.workspace</title>
<polygon fill="#efefef" stroke="transparent" points="297.5,-592.5 297.5,-627.5 576.5,-627.5 576.5,-592.5 297.5,-592.5"/>
<polygon fill="none" stroke="#000000" points="297.5,-592.5 297.5,-627.5 576.5,-627.5 576.5,-592.5 297.5,-592.5"/>
<text text-anchor="start" x="304.2058" y="-605.3" font-family="Arial Bold" font-size="18.00" fill="#000000">public.workspace</text>
<text text-anchor="start" x="442.2262" y="-605.3" font-family="Arial" font-size="14.00" fill="#000000">    </text>
<text text-anchor="start" x="476.431" y="-605.3" font-family="Arial" font-size="14.00" fill="#666666">[BASE TABLE]</text>
<polygon fill="none" stroke="#000000" points="297.5,-562.5 297.5,-592.5 576.5,-592.5 576.5,-562.5 297.5,-562.5"/>
<text text-anchor="start" x="304.5" y="-573.9" font-family="Arial" font-size="14.00" fill="#000000">workspace_id </text>
<text text-anchor="start" x="393.96" y="-573.9" font-family="Arial" font-size="14.00" fill="#666666">[bigint]</text>
<polygon fill="none" stroke="#000000" points="297.5,-532.5 297.5,-562.5 576.5,-562.5 576.5,-532.5 297.5,-532.5"/>
<text text-anchor="start" x="304.5" y="-543.9" font-family="Arial" font-size="14.00" fill="#000000">workspace_name </text>
<text text-anchor="start" x="418.0792" y="-543.9" font-family="Arial" font-size="14.00" fill="#666666">[varchar(255)]</text>
<polygon fill="none" stroke="#000000" points="297.5,-502.5 297.5,-532.5 576.5,-532.5 576.5,-502.5 297.5,-502.5"/>
<text text-anchor="start" x="304.5" y="-513.9" font-family="Arial" font-size="14.00" fill="#000000">display_name </text>
<text text-anchor="start" x="394.7426" y="-513.9" font-family="Arial" font-size="14.00" fill="#666666">[varchar(255)]</text>
<polygon fill="none" stroke="#000000" points="297.5,-472.5 297.5,-502.5 576.5,-502.5 576.5,-472.5 297.5,-472.5"/>
<text text-anchor="start" x="304.5" y="-483.9" font-family="Arial" font-size="14.00" fill="#000000">organization_id </text>
<text text-anchor="start" x="403.305" y="-483.9" font-family="Arial" font-size="14.00" fill="#666666">[bigint]</text>
<polygon fill="none" stroke="#000000" points="297.5,-442.5 297.5,-472.5 576.5,-472.5 576.5,-442.5 297.5,-442.5"/>
<text text-anchor="start" x="304.5" y="-453.9" font-family="Arial" font-size="14.00" fill="#000000">created_at </text>
<text text-anchor="start" x="374.528" y="-453.9" font-family="Arial" font-size="14.00" fill="#666666">[timestamp without time zone]</text>
<polygon fill="none" stroke="#000000" points="297.5,-412.5 297.5,-442.5 576.5,-442.5 576.5,-412.5 297.5,-412.5"/>
<text text-anchor="start" x="304.5" y="-423.9" font-family="Arial" font-size="14.00" fill="#000000">updated_at </text>
<text text-anchor="start" x="378.4326" y="-423.9" font-family="Arial" font-size="14.00" fill="#666666">[timestamp without time zone]</text>
<polygon fill="none" stroke="#000000" points="297.5,-382.5 297.5,-412.5 576.5,-412.5 576.5,-382.5 297.5,-382.5"/>
<text text-anchor="start" x="304.5" y="-393.9" font-family="Arial" font-size="14.00" fill="#000000">is_deleted </text>
<text text-anchor="start" x="372.19" y="-393.9" font-family="Arial" font-size="14.00" fill="#666666">[boolean]</text>
<polygon fill="none" stroke="#000000" stroke-width="3" points="295.5,-381.5 295.5,-629.5 577.5,-629.5 577.5,-381.5 295.5,-381.5"/>
</g>
<!-- public.organization -->
<g id="node4" class="node">
<title>public.organization</title>
<polygon fill="#efefef" stroke="transparent" points="285.5,-222.5 285.5,-257.5 588.5,-257.5 588.5,-222.5 285.5,-222.5"/>
<polygon fill="none" stroke="#000000" points="285.5,-222.5 285.5,-257.5 588.5,-257.5 588.5,-222.5 285.5,-222.5"/>
<text text-anchor="start" x="298.1983" y="-235.3" font-family="Arial Bold" font-size="18.00" fill="#000000">public.organization</text>
<text text-anchor="start" x="448.2337" y="-235.3" font-family="Arial" font-size="14.00" fill="#000000">    </text>
<text text-anchor="start" x="482.4385" y="-235.3" font-family="Arial" font-size="14.00" fill="#666666">[BASE TABLE]</text>
<polygon fill="none" stroke="#000000" points="285.5,-192.5 285.5,-222.5 588.5,-222.5 588.5,-192.5 285.5,-192.5"/>
<text text-anchor="start" x="292.5" y="-203.9" font-family="Arial" font-size="14.00" fill="#000000">organization_id    </text>
<text text-anchor="start" x="421.6192" y="-203.9" font-family="Arial" font-size="14.00" fill="#666666">[bigint]</text>
<polygon fill="none" stroke="#000000" points="285.5,-162.5 285.5,-192.5 588.5,-192.5 588.5,-162.5 285.5,-162.5"/>
<text text-anchor="start" x="292.5" y="-173.9" font-family="Arial" font-size="14.00" fill="#000000">organization_name    </text>
<text text-anchor="start" x="445.7384" y="-173.9" font-family="Arial" font-size="14.00" fill="#666666">[varchar(255)]</text>
<polygon fill="none" stroke="#000000" points="285.5,-132.5 285.5,-162.5 588.5,-162.5 588.5,-132.5 285.5,-132.5"/>
<text text-anchor="start" x="292.5" y="-143.9" font-family="Arial" font-size="14.00" fill="#000000">display_name    </text>
<text text-anchor="start" x="413.0568" y="-143.9" font-family="Arial" font-size="14.00" fill="#666666">[varchar(255)]</text>
<polygon fill="none" stroke="#000000" points="285.5,-102.5 285.5,-132.5 588.5,-132.5 588.5,-102.5 285.5,-102.5"/>
<text text-anchor="start" x="292.5" y="-113.9" font-family="Arial" font-size="14.00" fill="#000000">created_at    </text>
<text text-anchor="start" x="392.8422" y="-113.9" font-family="Arial" font-size="14.00" fill="#666666">[timestamp without time zone]</text>
<polygon fill="none" stroke="#000000" points="285.5,-72.5 285.5,-102.5 588.5,-102.5 588.5,-72.5 285.5,-72.5"/>
<text text-anchor="start" x="292.3065" y="-83.9" font-family="Arial" font-size="14.00" fill="#000000">updated_at    </text>
<text text-anchor="start" x="396.5533" y="-83.9" font-family="Arial" font-size="14.00" fill="#666666">[timestamp without time zone]</text>
<polygon fill="none" stroke="#000000" points="285.5,-42.5 285.5,-72.5 588.5,-72.5 588.5,-42.5 285.5,-42.5"/>
<text text-anchor="start" x="292.5" y="-53.9" font-family="Arial" font-size="14.00" fill="#000000">is_deleted    </text>
<text text-anchor="start" x="390.5042" y="-53.9" font-family="Arial" font-size="14.00" fill="#666666">[boolean]</text>
</g>
<!-- public.workspace&#45;&gt;public.organization -->
<g id="edge3" class="edge">
<title>public.workspace:organization_id&#45;&gt;public.organization:organization_id</title>
<path fill="none" stroke="#000000" d="M287.1888,-486.839C172.3712,-471.8652 164.4689,-207.5 285.5,-207.5"/>
<polygon fill="#000000" stroke="#000000" points="287.5205,-486.8602 297.2121,-491.9908 292.5102,-487.1801 297.5,-487.5 297.5,-487.5 297.5,-487.5 292.5102,-487.1801 297.7879,-483.0092 287.5205,-486.8602 287.5205,-486.8602"/>
</g>
<!-- public.workspace_member -->
<g id="node2" class="node">
<title>public.workspace_member</title>
<polygon fill="#efefef" stroke="transparent" points="43.5,-917.5 43.5,-952.5 398.5,-952.5 398.5,-917.5 43.5,-917.5"/>
<polygon fill="none" stroke="#000000" points="43.5,-917.5 43.5,-952.5 398.5,-952.5 398.5,-917.5 43.5,-917.5"/>
<text text-anchor="start" x="50.2051" y="-930.3" font-family="Arial Bold" font-size="18.00" fill="#000000">public.workspace_member</text>
<text text-anchor="start" x="264.2269" y="-930.3" font-family="Arial" font-size="14.00" fill="#000000">    </text>
<text text-anchor="start" x="298.4317" y="-930.3" font-family="Arial" font-size="14.00" fill="#666666">[BASE TABLE]</text>
<polygon fill="none" stroke="#000000" points="43.5,-887.5 43.5,-917.5 398.5,-917.5 398.5,-887.5 43.5,-887.5"/>
<text text-anchor="start" x="50.5" y="-898.9" font-family="Arial" font-size="14.00" fill="#000000">workspace_member_id    </text>
<text text-anchor="start" x="229.3864" y="-898.9" font-family="Arial" font-size="14.00" fill="#666666">[bigint]</text>
<polygon fill="none" stroke="#000000" points="43.5,-857.5 43.5,-887.5 398.5,-887.5 398.5,-857.5 43.5,-857.5"/>
<text text-anchor="start" x="50.5" y="-868.9" font-family="Arial" font-size="14.00" fill="#000000">workspace_id    </text>
<text text-anchor="start" x="170.2742" y="-868.9" font-family="Arial" font-size="14.00" fill="#666666">[bigint]</text>
<polygon fill="none" stroke="#000000" points="43.5,-827.5 43.5,-857.5 398.5,-857.5 398.5,-827.5 43.5,-827.5"/>
<text text-anchor="start" x="50.5" y="-838.9" font-family="Arial" font-size="14.00" fill="#000000">user_account_id    </text>
<text text-anchor="start" x="187.406" y="-838.9" font-family="Arial" font-size="14.00" fill="#666666">[bigint]</text>
<polygon fill="none" stroke="#000000" points="43.5,-797.5 43.5,-827.5 398.5,-827.5 398.5,-797.5 43.5,-797.5"/>
<text text-anchor="start" x="50.5" y="-808.9" font-family="Arial" font-size="14.00" fill="#000000">workspace_member_authority_id    </text>
<text text-anchor="start" x="290.8478" y="-808.9" font-family="Arial" font-size="14.00" fill="#666666">[bigint]</text>
</g>
<!-- public.workspace_member&#45;&gt;public.workspace -->
<g id="edge1" class="edge">
<title>public.workspace_member:workspace_id&#45;&gt;public.workspace:workspace_id</title>
<path fill="none" stroke="#000000" d="M408.8113,-871.3746C446.363,-862.1758 419.4168,-798.5873 398.5,-755 373.605,-703.1227 322.395,-725.8773 297.5,-674 278.9443,-635.3329 254.6111,-577.5 297.5,-577.5"/>
<polygon fill="#000000" stroke="#000000" points="408.441,-871.415 398.0117,-868.0266 403.4705,-871.9575 398.5,-872.5 398.5,-872.5 398.5,-872.5 403.4705,-871.9575 398.9883,-876.9734 408.441,-871.415 408.441,-871.415"/>
</g>
<!-- public.project -->
<g id="node3" class="node">
<title>public.project</title>
<polygon fill="#efefef" stroke="transparent" points="502.5,-962.5 502.5,-997.5 805.5,-997.5 805.5,-962.5 502.5,-962.5"/>
<polygon fill="none" stroke="#000000" points="502.5,-962.5 502.5,-997.5 805.5,-997.5 805.5,-962.5 502.5,-962.5"/>
<text text-anchor="start" x="537.2078" y="-975.3" font-family="Arial Bold" font-size="18.00" fill="#000000">public.project</text>
<text text-anchor="start" x="643.2242" y="-975.3" font-family="Arial" font-size="14.00" fill="#000000">    </text>
<text text-anchor="start" x="677.429" y="-975.3" font-family="Arial" font-size="14.00" fill="#666666">[BASE TABLE]</text>
<polygon fill="none" stroke="#000000" points="502.5,-932.5 502.5,-962.5 805.5,-962.5 805.5,-932.5 502.5,-932.5"/>
<text text-anchor="start" x="509.5" y="-943.9" font-family="Arial" font-size="14.00" fill="#000000">project_id    </text>
<text text-anchor="start" x="604.3822" y="-943.9" font-family="Arial" font-size="14.00" fill="#666666">[bigint]</text>
<polygon fill="none" stroke="#000000" points="502.5,-902.5 502.5,-932.5 805.5,-932.5 805.5,-902.5 502.5,-902.5"/>
<text text-anchor="start" x="509.5" y="-913.9" font-family="Arial" font-size="14.00" fill="#000000">project_name    </text>
<text text-anchor="start" x="628.5014" y="-913.9" font-family="Arial" font-size="14.00" fill="#666666">[varchar(255)]</text>
<polygon fill="none" stroke="#000000" points="502.5,-872.5 502.5,-902.5 805.5,-902.5 805.5,-872.5 502.5,-872.5"/>
<text text-anchor="start" x="509.5" y="-883.9" font-family="Arial" font-size="14.00" fill="#000000">display_name    </text>
<text text-anchor="start" x="630.0568" y="-883.9" font-family="Arial" font-size="14.00" fill="#666666">[varchar(255)]</text>
<polygon fill="none" stroke="#000000" points="502.5,-842.5 502.5,-872.5 805.5,-872.5 805.5,-842.5 502.5,-842.5"/>
<text text-anchor="start" x="509.5" y="-853.9" font-family="Arial" font-size="14.00" fill="#000000">workspace_id    </text>
<text text-anchor="start" x="629.2742" y="-853.9" font-family="Arial" font-size="14.00" fill="#666666">[bigint]</text>
<polygon fill="none" stroke="#000000" points="502.5,-812.5 502.5,-842.5 805.5,-842.5 805.5,-812.5 502.5,-812.5"/>
<text text-anchor="start" x="509.5" y="-823.9" font-family="Arial" font-size="14.00" fill="#000000">created_at    </text>
<text text-anchor="start" x="609.8422" y="-823.9" font-family="Arial" font-size="14.00" fill="#666666">[timestamp without time zone]</text>
<polygon fill="none" stroke="#000000" points="502.5,-782.5 502.5,-812.5 805.5,-812.5 805.5,-782.5 502.5,-782.5"/>
<text text-anchor="start" x="509.3065" y="-793.9" font-family="Arial" font-size="14.00" fill="#000000">updated_at    </text>
<text text-anchor="start" x="613.5533" y="-793.9" font-family="Arial" font-size="14.00" fill="#666666">[timestamp without time zone]</text>
<polygon fill="none" stroke="#000000" points="502.5,-752.5 502.5,-782.5 805.5,-782.5 805.5,-752.5 502.5,-752.5"/>
<text text-anchor="start" x="509.5" y="-763.9" font-family="Arial" font-size="14.00" fill="#000000">is_deleted    </text>
<text text-anchor="start" x="607.5042" y="-763.9" font-family="Arial" font-size="14.00" fill="#666666">[boolean]</text>
</g>
<!-- public.project&#45;&gt;public.workspace -->
<g id="edge2" class="edge">
<title>public.project:workspace_id&#45;&gt;public.workspace:workspace_id</title>
<path fill="none" stroke="#000000" d="M492.2712,-856.6386C440.445,-847.2034 469.7021,-762.4289 502.5,-710 521.897,-678.993 557.103,-705.007 576.5,-674 599.246,-637.6396 619.3889,-577.5 576.5,-577.5"/>
<polygon fill="#000000" stroke="#000000" points="492.5353,-856.6607 502.1223,-861.9841 497.5176,-857.0804 502.5,-857.5 502.5,-857.5 502.5,-857.5 497.5176,-857.0804 502.8777,-853.0159 492.5353,-856.6607 492.5353,-856.6607"/>
</g>
</g>
</svg>
