<?xml version="1.0" encoding="UTF-8" standalone="no"?>
<!DOCTYPE svg PUBLIC "-//W3C//DTD SVG 1.1//EN"
 "http://www.w3.org/Graphics/SVG/1.1/DTD/svg11.dtd">
<!-- Generated by graphviz version 2.40.1 (20161225.0304)
 -->
<!-- Title: public.user_account Pages: 1 -->
<svg width="2625pt" height="1139pt"
 viewBox="0.00 0.00 2624.50 1139.00" xmlns="http://www.w3.org/2000/svg" xmlns:xlink="http://www.w3.org/1999/xlink">
<g id="graph0" class="graph" transform="scale(1 1) rotate(0) translate(4 1135)">
<title>public.user_account</title>
<polygon fill="#ffffff" stroke="transparent" points="-4,4 -4,-1135 2620.5,-1135 2620.5,4 -4,4"/>
<!-- public.user_account -->
<g id="node1" class="node">
<title>public.user_account</title>
<polygon fill="#efefef" stroke="transparent" points="1192.5,-592.5 1192.5,-627.5 1493.5,-627.5 1493.5,-592.5 1192.5,-592.5"/>
<polygon fill="none" stroke="#000000" points="1192.5,-592.5 1192.5,-627.5 1493.5,-627.5 1493.5,-592.5 1192.5,-592.5"/>
<text text-anchor="start" x="1199.1925" y="-605.3" font-family="Arial Bold" font-size="18.00" fill="#000000">public.user_account</text>
<text text-anchor="start" x="1359.2395" y="-605.3" font-family="Arial" font-size="14.00" fill="#000000">    </text>
<text text-anchor="start" x="1393.4443" y="-605.3" font-family="Arial" font-size="14.00" fill="#666666">[BASE TABLE]</text>
<polygon fill="none" stroke="#000000" points="1192.5,-562.5 1192.5,-592.5 1493.5,-592.5 1493.5,-562.5 1192.5,-562.5"/>
<text text-anchor="start" x="1199.5" y="-573.9" font-family="Arial" font-size="14.00" fill="#000000">user_account_id </text>
<text text-anchor="start" x="1306.0918" y="-573.9" font-family="Arial" font-size="14.00" fill="#666666">[bigint]</text>
<polygon fill="none" stroke="#000000" points="1192.5,-532.5 1192.5,-562.5 1493.5,-562.5 1493.5,-532.5 1192.5,-532.5"/>
<text text-anchor="start" x="1199.5" y="-543.9" font-family="Arial" font-size="14.00" fill="#000000">user_id </text>
<text text-anchor="start" x="1249.2882" y="-543.9" font-family="Arial" font-size="14.00" fill="#666666">[bigint]</text>
<polygon fill="none" stroke="#000000" points="1192.5,-502.5 1192.5,-532.5 1493.5,-532.5 1493.5,-502.5 1192.5,-502.5"/>
<text text-anchor="start" x="1199.5" y="-513.9" font-family="Arial" font-size="14.00" fill="#000000">user_account_name </text>
<text text-anchor="start" x="1330.211" y="-513.9" font-family="Arial" font-size="14.00" fill="#666666">[varchar(255)]</text>
<polygon fill="none" stroke="#000000" points="1192.5,-472.5 1192.5,-502.5 1493.5,-502.5 1493.5,-472.5 1192.5,-472.5"/>
<text text-anchor="start" x="1199.5" y="-483.9" font-family="Arial" font-size="14.00" fill="#000000">display_name </text>
<text text-anchor="start" x="1289.7426" y="-483.9" font-family="Arial" font-size="14.00" fill="#666666">[varchar(255)]</text>
<polygon fill="none" stroke="#000000" points="1192.5,-442.5 1192.5,-472.5 1493.5,-472.5 1493.5,-442.5 1192.5,-442.5"/>
<text text-anchor="start" x="1199.5" y="-453.9" font-family="Arial" font-size="14.00" fill="#000000">last_logined_at </text>
<text text-anchor="start" x="1297.535" y="-453.9" font-family="Arial" font-size="14.00" fill="#666666">[timestamp without time zone]</text>
<polygon fill="none" stroke="#000000" points="1192.5,-412.5 1192.5,-442.5 1493.5,-442.5 1493.5,-412.5 1192.5,-412.5"/>
<text text-anchor="start" x="1199.5" y="-423.9" font-family="Arial" font-size="14.00" fill="#000000">created_at </text>
<text text-anchor="start" x="1269.528" y="-423.9" font-family="Arial" font-size="14.00" fill="#666666">[timestamp without time zone]</text>
<polygon fill="none" stroke="#000000" points="1192.5,-382.5 1192.5,-412.5 1493.5,-412.5 1493.5,-382.5 1192.5,-382.5"/>
<text text-anchor="start" x="1199.5" y="-393.9" font-family="Arial" font-size="14.00" fill="#000000">updated_at </text>
<text text-anchor="start" x="1273.4326" y="-393.9" font-family="Arial" font-size="14.00" fill="#666666">[timestamp without time zone]</text>
<polygon fill="none" stroke="#000000" points="1192.5,-352.5 1192.5,-382.5 1493.5,-382.5 1493.5,-352.5 1192.5,-352.5"/>
<text text-anchor="start" x="1199.5" y="-363.9" font-family="Arial" font-size="14.00" fill="#000000">is_deleted </text>
<text text-anchor="start" x="1267.19" y="-363.9" font-family="Arial" font-size="14.00" fill="#666666">[boolean]</text>
<polygon fill="none" stroke="#000000" stroke-width="3" points="1190.5,-351.5 1190.5,-629.5 1494.5,-629.5 1494.5,-351.5 1190.5,-351.5"/>
</g>
<!-- public.user -->
<g id="node8" class="node">
<title>public.user</title>
<polygon fill="#efefef" stroke="transparent" points="1191.5,-192.5 1191.5,-227.5 1494.5,-227.5 1494.5,-192.5 1191.5,-192.5"/>
<polygon fill="none" stroke="#000000" points="1191.5,-192.5 1191.5,-227.5 1494.5,-227.5 1494.5,-192.5 1191.5,-192.5"/>
<text text-anchor="start" x="1235.7091" y="-205.3" font-family="Arial Bold" font-size="18.00" fill="#000000">public.user</text>
<text text-anchor="start" x="1322.7229" y="-205.3" font-family="Arial" font-size="14.00" fill="#000000">    </text>
<text text-anchor="start" x="1356.9277" y="-205.3" font-family="Arial" font-size="14.00" fill="#666666">[BASE TABLE]</text>
<polygon fill="none" stroke="#000000" points="1191.5,-162.5 1191.5,-192.5 1494.5,-192.5 1494.5,-162.5 1191.5,-162.5"/>
<text text-anchor="start" x="1198.5" y="-173.9" font-family="Arial" font-size="14.00" fill="#000000">user_id    </text>
<text text-anchor="start" x="1278.6024" y="-173.9" font-family="Arial" font-size="14.00" fill="#666666">[bigint]</text>
<polygon fill="none" stroke="#000000" points="1191.5,-132.5 1191.5,-162.5 1494.5,-162.5 1494.5,-132.5 1191.5,-132.5"/>
<text text-anchor="start" x="1198.5" y="-143.9" font-family="Arial" font-size="14.00" fill="#000000">email    </text>
<text text-anchor="start" x="1266.1438" y="-143.9" font-family="Arial" font-size="14.00" fill="#666666">[varchar(255)]</text>
<polygon fill="none" stroke="#000000" points="1191.5,-102.5 1191.5,-132.5 1494.5,-132.5 1494.5,-102.5 1191.5,-102.5"/>
<text text-anchor="start" x="1198.5" y="-113.9" font-family="Arial" font-size="14.00" fill="#000000">created_at    </text>
<text text-anchor="start" x="1298.8422" y="-113.9" font-family="Arial" font-size="14.00" fill="#666666">[timestamp without time zone]</text>
<polygon fill="none" stroke="#000000" points="1191.5,-72.5 1191.5,-102.5 1494.5,-102.5 1494.5,-72.5 1191.5,-72.5"/>
<text text-anchor="start" x="1198.3065" y="-83.9" font-family="Arial" font-size="14.00" fill="#000000">updated_at    </text>
<text text-anchor="start" x="1302.5533" y="-83.9" font-family="Arial" font-size="14.00" fill="#666666">[timestamp without time zone]</text>
<polygon fill="none" stroke="#000000" points="1191.5,-42.5 1191.5,-72.5 1494.5,-72.5 1494.5,-42.5 1191.5,-42.5"/>
<text text-anchor="start" x="1198.5" y="-53.9" font-family="Arial" font-size="14.00" fill="#000000">is_deleted    </text>
<text text-anchor="start" x="1296.5042" y="-53.9" font-family="Arial" font-size="14.00" fill="#666666">[boolean]</text>
</g>
<!-- public.user_account&#45;&gt;public.user -->
<g id="edge7" class="edge">
<title>public.user_account:user_id&#45;&gt;public.user:user_id</title>
<path fill="none" stroke="#000000" d="M1182.1274,-546.995C1028.0884,-531.7723 1030.588,-177.5 1191.5,-177.5"/>
<polygon fill="#000000" stroke="#000000" points="1182.5118,-547.0136 1192.2811,-551.9947 1187.5059,-547.2568 1192.5,-547.5 1192.5,-547.5 1192.5,-547.5 1187.5059,-547.2568 1192.7189,-543.0053 1182.5118,-547.0136 1182.5118,-547.0136"/>
</g>
<!-- public.organization_member -->
<g id="node2" class="node">
<title>public.organization_member</title>
<polygon fill="#efefef" stroke="transparent" points="43.5,-962.5 43.5,-997.5 410.5,-997.5 410.5,-962.5 43.5,-962.5"/>
<polygon fill="none" stroke="#000000" points="43.5,-962.5 43.5,-997.5 410.5,-997.5 410.5,-962.5 43.5,-962.5"/>
<text text-anchor="start" x="50.1976" y="-975.3" font-family="Arial Bold" font-size="18.00" fill="#000000">public.organization_member</text>
<text text-anchor="start" x="276.2344" y="-975.3" font-family="Arial" font-size="14.00" fill="#000000">    </text>
<text text-anchor="start" x="310.4392" y="-975.3" font-family="Arial" font-size="14.00" fill="#666666">[BASE TABLE]</text>
<polygon fill="none" stroke="#000000" points="43.5,-932.5 43.5,-962.5 410.5,-962.5 410.5,-932.5 43.5,-932.5"/>
<text text-anchor="start" x="50.5" y="-943.9" font-family="Arial" font-size="14.00" fill="#000000">organization_member_id    </text>
<text text-anchor="start" x="238.7314" y="-943.9" font-family="Arial" font-size="14.00" fill="#666666">[bigint]</text>
<polygon fill="none" stroke="#000000" points="43.5,-902.5 43.5,-932.5 410.5,-932.5 410.5,-902.5 43.5,-902.5"/>
<text text-anchor="start" x="50.5" y="-913.9" font-family="Arial" font-size="14.00" fill="#000000">organization_id    </text>
<text text-anchor="start" x="179.6192" y="-913.9" font-family="Arial" font-size="14.00" fill="#666666">[bigint]</text>
<polygon fill="none" stroke="#000000" points="43.5,-872.5 43.5,-902.5 410.5,-902.5 410.5,-872.5 43.5,-872.5"/>
<text text-anchor="start" x="50.5" y="-883.9" font-family="Arial" font-size="14.00" fill="#000000">user_account_id    </text>
<text text-anchor="start" x="187.406" y="-883.9" font-family="Arial" font-size="14.00" fill="#666666">[bigint]</text>
<polygon fill="none" stroke="#000000" points="43.5,-842.5 43.5,-872.5 410.5,-872.5 410.5,-842.5 43.5,-842.5"/>
<text text-anchor="start" x="50.5" y="-853.9" font-family="Arial" font-size="14.00" fill="#000000">organization_member_authority_id    </text>
<text text-anchor="start" x="300.1928" y="-853.9" font-family="Arial" font-size="14.00" fill="#666666">[bigint]</text>
</g>
<!-- public.organization_member&#45;&gt;public.user_account -->
<g id="edge1" class="edge">
<title>public.organization_member:user_account_id&#45;&gt;public.user_account:user_account_id</title>
<path fill="none" stroke="#000000" d="M420.5376,-886.7759C484.6269,-876.6348 403.3538,-762.579 461.5,-710 583.9521,-599.2722 1027.4086,-577.5 1192.5,-577.5"/>
<polygon fill="#000000" stroke="#000000" points="420.4741,-886.7804 410.1762,-883.0117 415.487,-887.1402 410.5,-887.5 410.5,-887.5 410.5,-887.5 415.487,-887.1402 410.8238,-891.9883 420.4741,-886.7804 420.4741,-886.7804"/>
</g>
<!-- public.workspace_member -->
<g id="node3" class="node">
<title>public.workspace_member</title>
<polygon fill="#efefef" stroke="transparent" points="514.5,-962.5 514.5,-997.5 869.5,-997.5 869.5,-962.5 514.5,-962.5"/>
<polygon fill="none" stroke="#000000" points="514.5,-962.5 514.5,-997.5 869.5,-997.5 869.5,-962.5 514.5,-962.5"/>
<text text-anchor="start" x="521.2051" y="-975.3" font-family="Arial Bold" font-size="18.00" fill="#000000">public.workspace_member</text>
<text text-anchor="start" x="735.2269" y="-975.3" font-family="Arial" font-size="14.00" fill="#000000">    </text>
<text text-anchor="start" x="769.4317" y="-975.3" font-family="Arial" font-size="14.00" fill="#666666">[BASE TABLE]</text>
<polygon fill="none" stroke="#000000" points="514.5,-932.5 514.5,-962.5 869.5,-962.5 869.5,-932.5 514.5,-932.5"/>
<text text-anchor="start" x="521.5" y="-943.9" font-family="Arial" font-size="14.00" fill="#000000">workspace_member_id    </text>
<text text-anchor="start" x="700.3864" y="-943.9" font-family="Arial" font-size="14.00" fill="#666666">[bigint]</text>
<polygon fill="none" stroke="#000000" points="514.5,-902.5 514.5,-932.5 869.5,-932.5 869.5,-902.5 514.5,-902.5"/>
<text text-anchor="start" x="521.5" y="-913.9" font-family="Arial" font-size="14.00" fill="#000000">workspace_id    </text>
<text text-anchor="start" x="641.2742" y="-913.9" font-family="Arial" font-size="14.00" fill="#666666">[bigint]</text>
<polygon fill="none" stroke="#000000" points="514.5,-872.5 514.5,-902.5 869.5,-902.5 869.5,-872.5 514.5,-872.5"/>
<text text-anchor="start" x="521.5" y="-883.9" font-family="Arial" font-size="14.00" fill="#000000">user_account_id    </text>
<text text-anchor="start" x="658.406" y="-883.9" font-family="Arial" font-size="14.00" fill="#666666">[bigint]</text>
<polygon fill="none" stroke="#000000" points="514.5,-842.5 514.5,-872.5 869.5,-872.5 869.5,-842.5 514.5,-842.5"/>
<text text-anchor="start" x="521.5" y="-853.9" font-family="Arial" font-size="14.00" fill="#000000">workspace_member_authority_id    </text>
<text text-anchor="start" x="761.8478" y="-853.9" font-family="Arial" font-size="14.00" fill="#666666">[bigint]</text>
</g>
<!-- public.workspace_member&#45;&gt;public.user_account -->
<g id="edge2" class="edge">
<title>public.workspace_member:user_account_id&#45;&gt;public.user_account:user_account_id</title>
<path fill="none" stroke="#000000" d="M879.5844,-886.821C944.321,-877.304 870.0791,-770.0272 920.5,-710 1006.9878,-607.0345 1058.0306,-577.5 1192.5,-577.5"/>
<polygon fill="#000000" stroke="#000000" points="879.4774,-886.8281 869.1977,-883.0102 874.4887,-887.1641 869.5,-887.5 869.5,-887.5 869.5,-887.5 874.4887,-887.1641 869.8023,-891.9898 879.4774,-886.8281 879.4774,-886.8281"/>
</g>
<!-- public.project_member -->
<g id="node4" class="node">
<title>public.project_member</title>
<polygon fill="#efefef" stroke="transparent" points="973.5,-962.5 973.5,-997.5 1296.5,-997.5 1296.5,-962.5 973.5,-962.5"/>
<polygon fill="none" stroke="#000000" points="973.5,-962.5 973.5,-997.5 1296.5,-997.5 1296.5,-962.5 973.5,-962.5"/>
<text text-anchor="start" x="980.2071" y="-975.3" font-family="Arial Bold" font-size="18.00" fill="#000000">public.project_member</text>
<text text-anchor="start" x="1162.2249" y="-975.3" font-family="Arial" font-size="14.00" fill="#000000">    </text>
<text text-anchor="start" x="1196.4297" y="-975.3" font-family="Arial" font-size="14.00" fill="#666666">[BASE TABLE]</text>
<polygon fill="none" stroke="#000000" points="973.5,-932.5 973.5,-962.5 1296.5,-962.5 1296.5,-932.5 973.5,-932.5"/>
<text text-anchor="start" x="980.5" y="-943.9" font-family="Arial" font-size="14.00" fill="#000000">project_member_id    </text>
<text text-anchor="start" x="1134.4944" y="-943.9" font-family="Arial" font-size="14.00" fill="#666666">[bigint]</text>
<polygon fill="none" stroke="#000000" points="973.5,-902.5 973.5,-932.5 1296.5,-932.5 1296.5,-902.5 973.5,-902.5"/>
<text text-anchor="start" x="980.5" y="-913.9" font-family="Arial" font-size="14.00" fill="#000000">project_id    </text>
<text text-anchor="start" x="1075.3822" y="-913.9" font-family="Arial" font-size="14.00" fill="#666666">[bigint]</text>
<polygon fill="none" stroke="#000000" points="973.5,-872.5 973.5,-902.5 1296.5,-902.5 1296.5,-872.5 973.5,-872.5"/>
<text text-anchor="start" x="980.5" y="-883.9" font-family="Arial" font-size="14.00" fill="#000000">user_account_id    </text>
<text text-anchor="start" x="1117.406" y="-883.9" font-family="Arial" font-size="14.00" fill="#666666">[bigint]</text>
<polygon fill="none" stroke="#000000" points="973.5,-842.5 973.5,-872.5 1296.5,-872.5 1296.5,-842.5 973.5,-842.5"/>
<text text-anchor="start" x="980.5" y="-853.9" font-family="Arial" font-size="14.00" fill="#000000">project_member_authority_id    </text>
<text text-anchor="start" x="1195.9558" y="-853.9" font-family="Arial" font-size="14.00" fill="#666666">[bigint]</text>
</g>
<!-- public.project_member&#45;&gt;public.user_account -->
<g id="edge3" class="edge">
<title>public.project_member:user_account_id&#45;&gt;public.user_account:user_account_id</title>
<path fill="none" stroke="#000000" d="M1306.43,-885.9931C1330.291,-877.3079 1308.3169,-832.8802 1296.5,-800 1271.9416,-731.6671 1217.0584,-742.3329 1192.5,-674 1177.9944,-633.6386 1149.6111,-577.5 1192.5,-577.5"/>
<polygon fill="#000000" stroke="#000000" points="1306.3868,-885.9996 1295.8248,-883.0509 1301.4434,-886.7498 1296.5,-887.5 1296.5,-887.5 1296.5,-887.5 1301.4434,-886.7498 1297.1752,-891.9491 1306.3868,-885.9996 1306.3868,-885.9996"/>
</g>
<!-- public.task -->
<g id="node5" class="node">
<title>public.task</title>
<polygon fill="#efefef" stroke="transparent" points="1400.5,-1022.5 1400.5,-1057.5 1703.5,-1057.5 1703.5,-1022.5 1400.5,-1022.5"/>
<polygon fill="none" stroke="#000000" points="1400.5,-1022.5 1400.5,-1057.5 1703.5,-1057.5 1703.5,-1022.5 1400.5,-1022.5"/>
<text text-anchor="start" x="1445.7072" y="-1035.3" font-family="Arial Bold" font-size="18.00" fill="#000000">public.task</text>
<text text-anchor="start" x="1530.7248" y="-1035.3" font-family="Arial" font-size="14.00" fill="#000000">    </text>
<text text-anchor="start" x="1564.9296" y="-1035.3" font-family="Arial" font-size="14.00" fill="#666666">[BASE TABLE]</text>
<polygon fill="none" stroke="#000000" points="1400.5,-992.5 1400.5,-1022.5 1703.5,-1022.5 1703.5,-992.5 1400.5,-992.5"/>
<text text-anchor="start" x="1407.5" y="-1003.9" font-family="Arial" font-size="14.00" fill="#000000">task_id    </text>
<text text-anchor="start" x="1486.0498" y="-1003.9" font-family="Arial" font-size="14.00" fill="#666666">[bigint]</text>
<polygon fill="none" stroke="#000000" points="1400.5,-962.5 1400.5,-992.5 1703.5,-992.5 1703.5,-962.5 1400.5,-962.5"/>
<text text-anchor="start" x="1407.5" y="-973.9" font-family="Arial" font-size="14.00" fill="#000000">project_id    </text>
<text text-anchor="start" x="1502.3822" y="-973.9" font-family="Arial" font-size="14.00" fill="#666666">[bigint]</text>
<polygon fill="none" stroke="#000000" points="1400.5,-932.5 1400.5,-962.5 1703.5,-962.5 1703.5,-932.5 1400.5,-932.5"/>
<text text-anchor="start" x="1407.5" y="-943.9" font-family="Arial" font-size="14.00" fill="#000000">owner_user_account_id    </text>
<text text-anchor="start" x="1590.3036" y="-943.9" font-family="Arial" font-size="14.00" fill="#666666">[bigint]</text>
<polygon fill="none" stroke="#000000" points="1400.5,-902.5 1400.5,-932.5 1703.5,-932.5 1703.5,-902.5 1400.5,-902.5"/>
<text text-anchor="start" x="1407.5" y="-913.9" font-family="Arial" font-size="14.00" fill="#000000">title    </text>
<text text-anchor="start" x="1463.4818" y="-913.9" font-family="Arial" font-size="14.00" fill="#666666">[varchar(255)]</text>
<polygon fill="none" stroke="#000000" points="1400.5,-872.5 1400.5,-902.5 1703.5,-902.5 1703.5,-872.5 1400.5,-872.5"/>
<text text-anchor="start" x="1407.5" y="-883.9" font-family="Arial" font-size="14.00" fill="#000000">content    </text>
<text text-anchor="start" x="1487.6164" y="-883.9" font-family="Arial" font-size="14.00" fill="#666666">[text]</text>
<polygon fill="none" stroke="#000000" points="1400.5,-842.5 1400.5,-872.5 1703.5,-872.5 1703.5,-842.5 1400.5,-842.5"/>
<text text-anchor="start" x="1407.5" y="-853.9" font-family="Arial" font-size="14.00" fill="#000000">created_at    </text>
<text text-anchor="start" x="1507.8422" y="-853.9" font-family="Arial" font-size="14.00" fill="#666666">[timestamp without time zone]</text>
<polygon fill="none" stroke="#000000" points="1400.5,-812.5 1400.5,-842.5 1703.5,-842.5 1703.5,-812.5 1400.5,-812.5"/>
<text text-anchor="start" x="1407.3065" y="-823.9" font-family="Arial" font-size="14.00" fill="#000000">updated_at    </text>
<text text-anchor="start" x="1511.5533" y="-823.9" font-family="Arial" font-size="14.00" fill="#666666">[timestamp without time zone]</text>
<polygon fill="none" stroke="#000000" points="1400.5,-782.5 1400.5,-812.5 1703.5,-812.5 1703.5,-782.5 1400.5,-782.5"/>
<text text-anchor="start" x="1407.5" y="-793.9" font-family="Arial" font-size="14.00" fill="#000000">is_deleted    </text>
<text text-anchor="start" x="1505.5042" y="-793.9" font-family="Arial" font-size="14.00" fill="#666666">[boolean]</text>
</g>
<!-- public.task&#45;&gt;public.user_account -->
<g id="edge4" class="edge">
<title>public.task:owner_user_account_id&#45;&gt;public.user_account:user_account_id</title>
<path fill="none" stroke="#000000" d="M1390.5455,-944.2994C1358.4566,-921.0233 1381.0737,-777.6075 1400.5,-740 1423.761,-694.9688 1470.239,-719.0312 1493.5,-674 1513.1835,-635.8946 1536.3889,-577.5 1493.5,-577.5"/>
<polygon fill="#000000" stroke="#000000" points="1390.98,-944.439 1399.1226,-951.784 1395.74,-945.9695 1400.5,-947.5 1400.5,-947.5 1400.5,-947.5 1395.74,-945.9695 1401.8774,-943.216 1390.98,-944.439 1390.98,-944.439"/>
</g>
<!-- public.task_member -->
<g id="node6" class="node">
<title>public.task_member</title>
<polygon fill="#efefef" stroke="transparent" points="1807.5,-947.5 1807.5,-982.5 2109.5,-982.5 2109.5,-947.5 1807.5,-947.5"/>
<polygon fill="none" stroke="#000000" points="1807.5,-947.5 1807.5,-982.5 2109.5,-982.5 2109.5,-947.5 1807.5,-947.5"/>
<text text-anchor="start" x="1814.2065" y="-960.3" font-family="Arial Bold" font-size="18.00" fill="#000000">public.task_member</text>
<text text-anchor="start" x="1975.2255" y="-960.3" font-family="Arial" font-size="14.00" fill="#000000">    </text>
<text text-anchor="start" x="2009.4303" y="-960.3" font-family="Arial" font-size="14.00" fill="#666666">[BASE TABLE]</text>
<polygon fill="none" stroke="#000000" points="1807.5,-917.5 1807.5,-947.5 2109.5,-947.5 2109.5,-917.5 1807.5,-917.5"/>
<text text-anchor="start" x="1814.5" y="-928.9" font-family="Arial" font-size="14.00" fill="#000000">task_member_id    </text>
<text text-anchor="start" x="1952.162" y="-928.9" font-family="Arial" font-size="14.00" fill="#666666">[bigint]</text>
<polygon fill="none" stroke="#000000" points="1807.5,-887.5 1807.5,-917.5 2109.5,-917.5 2109.5,-887.5 1807.5,-887.5"/>
<text text-anchor="start" x="1814.5" y="-898.9" font-family="Arial" font-size="14.00" fill="#000000">task_id    </text>
<text text-anchor="start" x="1893.0498" y="-898.9" font-family="Arial" font-size="14.00" fill="#666666">[bigint]</text>
<polygon fill="none" stroke="#000000" points="1807.5,-857.5 1807.5,-887.5 2109.5,-887.5 2109.5,-857.5 1807.5,-857.5"/>
<text text-anchor="start" x="1814.5" y="-868.9" font-family="Arial" font-size="14.00" fill="#000000">user_account_id    </text>
<text text-anchor="start" x="1951.406" y="-868.9" font-family="Arial" font-size="14.00" fill="#666666">[bigint]</text>
</g>
<!-- public.task_member&#45;&gt;public.user_account -->
<g id="edge5" class="edge">
<title>public.task_member:user_account_id&#45;&gt;public.user_account:user_account_id</title>
<path fill="none" stroke="#000000" d="M1797.4253,-871.7681C1738.5111,-862.3776 1802.3036,-764.8796 1755.5,-710 1670.8258,-610.7151 1623.9884,-577.5 1493.5,-577.5"/>
<polygon fill="#000000" stroke="#000000" points="1797.5263,-871.7753 1807.1739,-876.9882 1802.5131,-872.1377 1807.5,-872.5 1807.5,-872.5 1807.5,-872.5 1802.5131,-872.1377 1807.8261,-868.0118 1797.5263,-871.7753 1797.5263,-871.7753"/>
</g>
<!-- public.user_account_profile -->
<g id="node7" class="node">
<title>public.user_account_profile</title>
<polygon fill="#efefef" stroke="transparent" points="2213.5,-1052.5 2213.5,-1087.5 2573.5,-1087.5 2573.5,-1052.5 2213.5,-1052.5"/>
<polygon fill="none" stroke="#000000" points="2213.5,-1052.5 2213.5,-1087.5 2573.5,-1087.5 2573.5,-1052.5 2213.5,-1052.5"/>
<text text-anchor="start" x="2220.1887" y="-1065.3" font-family="Arial Bold" font-size="18.00" fill="#000000">public.user_account_profile</text>
<text text-anchor="start" x="2439.2433" y="-1065.3" font-family="Arial" font-size="14.00" fill="#000000">    </text>
<text text-anchor="start" x="2473.4481" y="-1065.3" font-family="Arial" font-size="14.00" fill="#666666">[BASE TABLE]</text>
<polygon fill="none" stroke="#000000" points="2213.5,-1022.5 2213.5,-1052.5 2573.5,-1052.5 2573.5,-1022.5 2213.5,-1022.5"/>
<text text-anchor="start" x="2220.5" y="-1033.9" font-family="Arial" font-size="14.00" fill="#000000">user_account_profile_id    </text>
<text text-anchor="start" x="2403.3008" y="-1033.9" font-family="Arial" font-size="14.00" fill="#666666">[bigint]</text>
<polygon fill="none" stroke="#000000" points="2213.5,-992.5 2213.5,-1022.5 2573.5,-1022.5 2573.5,-992.5 2213.5,-992.5"/>
<text text-anchor="start" x="2220.5" y="-1003.9" font-family="Arial" font-size="14.00" fill="#000000">user_account_id    </text>
<text text-anchor="start" x="2357.406" y="-1003.9" font-family="Arial" font-size="14.00" fill="#666666">[bigint]</text>
<polygon fill="none" stroke="#000000" points="2213.5,-962.5 2213.5,-992.5 2573.5,-992.5 2573.5,-962.5 2213.5,-962.5"/>
<text text-anchor="start" x="2220.5" y="-973.9" font-family="Arial" font-size="14.00" fill="#000000">name    </text>
<text text-anchor="start" x="2289.7132" y="-973.9" font-family="Arial" font-size="14.00" fill="#666666">[varchar(255)]</text>
<polygon fill="none" stroke="#000000" points="2213.5,-932.5 2213.5,-962.5 2573.5,-962.5 2573.5,-932.5 2213.5,-932.5"/>
<text text-anchor="start" x="2220.5" y="-943.9" font-family="Arial" font-size="14.00" fill="#000000">biography    </text>
<text text-anchor="start" x="2316.1676" y="-943.9" font-family="Arial" font-size="14.00" fill="#666666">[text]</text>
<polygon fill="none" stroke="#000000" points="2213.5,-902.5 2213.5,-932.5 2573.5,-932.5 2573.5,-902.5 2213.5,-902.5"/>
<text text-anchor="start" x="2220.5" y="-913.9" font-family="Arial" font-size="14.00" fill="#000000">company    </text>
<text text-anchor="start" x="2311.4958" y="-913.9" font-family="Arial" font-size="14.00" fill="#666666">[varchar(255)]</text>
<polygon fill="none" stroke="#000000" points="2213.5,-872.5 2213.5,-902.5 2573.5,-902.5 2573.5,-872.5 2213.5,-872.5"/>
<text text-anchor="start" x="2220.5" y="-883.9" font-family="Arial" font-size="14.00" fill="#000000">title    </text>
<text text-anchor="start" x="2276.4818" y="-883.9" font-family="Arial" font-size="14.00" fill="#666666">[varchar(255)]</text>
<polygon fill="none" stroke="#000000" points="2213.5,-842.5 2213.5,-872.5 2573.5,-872.5 2573.5,-842.5 2213.5,-842.5"/>
<text text-anchor="start" x="2220.5" y="-853.9" font-family="Arial" font-size="14.00" fill="#000000">location    </text>
<text text-anchor="start" x="2302.939" y="-853.9" font-family="Arial" font-size="14.00" fill="#666666">[varchar(255)]</text>
<polygon fill="none" stroke="#000000" points="2213.5,-812.5 2213.5,-842.5 2573.5,-842.5 2573.5,-812.5 2213.5,-812.5"/>
<text text-anchor="start" x="2220.5" y="-823.9" font-family="Arial" font-size="14.00" fill="#000000">created_at    </text>
<text text-anchor="start" x="2320.8422" y="-823.9" font-family="Arial" font-size="14.00" fill="#666666">[timestamp without time zone]</text>
<polygon fill="none" stroke="#000000" points="2213.5,-782.5 2213.5,-812.5 2573.5,-812.5 2573.5,-782.5 2213.5,-782.5"/>
<text text-anchor="start" x="2220.5" y="-793.9" font-family="Arial" font-size="14.00" fill="#000000">updated_at    </text>
<text text-anchor="start" x="2324.7468" y="-793.9" font-family="Arial" font-size="14.00" fill="#666666">[timestamp without time zone]</text>
<polygon fill="none" stroke="#000000" points="2213.5,-752.5 2213.5,-782.5 2573.5,-782.5 2573.5,-752.5 2213.5,-752.5"/>
<text text-anchor="start" x="2220.5" y="-763.9" font-family="Arial" font-size="14.00" fill="#000000">is_deleted    </text>
<text text-anchor="start" x="2318.5042" y="-763.9" font-family="Arial" font-size="14.00" fill="#666666">[boolean]</text>
</g>
<!-- public.user_account_profile&#45;&gt;public.user_account -->
<g id="edge6" class="edge">
<title>public.user_account_profile:user_account_id&#45;&gt;public.user_account:user_account_id</title>
<path fill="none" stroke="#000000" d="M2203.6089,-1005.3352C2152.8449,-980.8129 2205.8474,-755.3689 2161.5,-710 2055.7142,-601.7776 1644.8365,-577.5 1493.5,-577.5"/>
<polygon fill="#000000" stroke="#000000" points="2203.7312,-1005.3618 2212.5378,-1011.8959 2208.6156,-1006.4309 2213.5,-1007.5 2213.5,-1007.5 2213.5,-1007.5 2208.6156,-1006.4309 2214.4622,-1003.1041 2203.7312,-1005.3618 2203.7312,-1005.3618"/>
</g>
</g>
</svg>
