<?xml version="1.0" encoding="UTF-8" standalone="no"?>
<!DOCTYPE svg PUBLIC "-//W3C//DTD SVG 1.1//EN"
 "http://www.w3.org/Graphics/SVG/1.1/DTD/svg11.dtd">
<!-- Generated by graphviz version 2.40.1 (20161225.0304)
 -->
<!-- Title: public.workspace Pages: 1 -->
<svg width="1848pt" height="1049pt"
 viewBox="0.00 0.00 1848.00 1049.00" xmlns="http://www.w3.org/2000/svg" xmlns:xlink="http://www.w3.org/1999/xlink">
<g id="graph0" class="graph" transform="scale(1 1) rotate(0) translate(4 1045)">
<title>public.workspace</title>
<polygon fill="#ffffff" stroke="transparent" points="-4,4 -4,-1045 1844,-1045 1844,4 -4,4"/>
<!-- public.workspace -->
<g id="node1" class="node">
<title>public.workspace</title>
<polygon fill="#efefef" stroke="transparent" points="741.5,-592.5 741.5,-627.5 1020.5,-627.5 1020.5,-592.5 741.5,-592.5"/>
<polygon fill="none" stroke="#000000" points="741.5,-592.5 741.5,-627.5 1020.5,-627.5 1020.5,-592.5 741.5,-592.5"/>
<text text-anchor="start" x="748.2058" y="-605.3" font-family="Arial Bold" font-size="18.00" fill="#000000">public.workspace</text>
<text text-anchor="start" x="886.2262" y="-605.3" font-family="Arial" font-size="14.00" fill="#000000">    </text>
<text text-anchor="start" x="920.431" y="-605.3" font-family="Arial" font-size="14.00" fill="#666666">[BASE TABLE]</text>
<polygon fill="none" stroke="#000000" points="741.5,-562.5 741.5,-592.5 1020.5,-592.5 1020.5,-562.5 741.5,-562.5"/>
<text text-anchor="start" x="748.5" y="-573.9" font-family="Arial" font-size="14.00" fill="#000000">workspace_id </text>
<text text-anchor="start" x="837.96" y="-573.9" font-family="Arial" font-size="14.00" fill="#666666">[bigint]</text>
<polygon fill="none" stroke="#000000" points="741.5,-532.5 741.5,-562.5 1020.5,-562.5 1020.5,-532.5 741.5,-532.5"/>
<text text-anchor="start" x="748.5" y="-543.9" font-family="Arial" font-size="14.00" fill="#000000">workspace_name </text>
<text text-anchor="start" x="862.0792" y="-543.9" font-family="Arial" font-size="14.00" fill="#666666">[varchar(255)]</text>
<polygon fill="none" stroke="#000000" points="741.5,-502.5 741.5,-532.5 1020.5,-532.5 1020.5,-502.5 741.5,-502.5"/>
<text text-anchor="start" x="748.5" y="-513.9" font-family="Arial" font-size="14.00" fill="#000000">display_name </text>
<text text-anchor="start" x="838.7426" y="-513.9" font-family="Arial" font-size="14.00" fill="#666666">[varchar(255)]</text>
<polygon fill="none" stroke="#000000" points="741.5,-472.5 741.5,-502.5 1020.5,-502.5 1020.5,-472.5 741.5,-472.5"/>
<text text-anchor="start" x="748.5" y="-483.9" font-family="Arial" font-size="14.00" fill="#000000">organization_id </text>
<text text-anchor="start" x="847.305" y="-483.9" font-family="Arial" font-size="14.00" fill="#666666">[bigint]</text>
<polygon fill="none" stroke="#000000" points="741.5,-442.5 741.5,-472.5 1020.5,-472.5 1020.5,-442.5 741.5,-442.5"/>
<text text-anchor="start" x="748.5" y="-453.9" font-family="Arial" font-size="14.00" fill="#000000">created_at </text>
<text text-anchor="start" x="818.528" y="-453.9" font-family="Arial" font-size="14.00" fill="#666666">[timestamp without time zone]</text>
<polygon fill="none" stroke="#000000" points="741.5,-412.5 741.5,-442.5 1020.5,-442.5 1020.5,-412.5 741.5,-412.5"/>
<text text-anchor="start" x="748.5" y="-423.9" font-family="Arial" font-size="14.00" fill="#000000">updated_at </text>
<text text-anchor="start" x="822.4326" y="-423.9" font-family="Arial" font-size="14.00" fill="#666666">[timestamp without time zone]</text>
<polygon fill="none" stroke="#000000" points="741.5,-382.5 741.5,-412.5 1020.5,-412.5 1020.5,-382.5 741.5,-382.5"/>
<text text-anchor="start" x="748.5" y="-393.9" font-family="Arial" font-size="14.00" fill="#000000">is_deleted </text>
<text text-anchor="start" x="816.19" y="-393.9" font-family="Arial" font-size="14.00" fill="#666666">[boolean]</text>
<polygon fill="none" stroke="#000000" stroke-width="3" points="739.5,-381.5 739.5,-629.5 1021.5,-629.5 1021.5,-381.5 739.5,-381.5"/>
</g>
<!-- public.organization -->
<g id="node6" class="node">
<title>public.organization</title>
<polygon fill="#efefef" stroke="transparent" points="729.5,-222.5 729.5,-257.5 1032.5,-257.5 1032.5,-222.5 729.5,-222.5"/>
<polygon fill="none" stroke="#000000" points="729.5,-222.5 729.5,-257.5 1032.5,-257.5 1032.5,-222.5 729.5,-222.5"/>
<text text-anchor="start" x="742.1983" y="-235.3" font-family="Arial Bold" font-size="18.00" fill="#000000">public.organization</text>
<text text-anchor="start" x="892.2337" y="-235.3" font-family="Arial" font-size="14.00" fill="#000000">    </text>
<text text-anchor="start" x="926.4385" y="-235.3" font-family="Arial" font-size="14.00" fill="#666666">[BASE TABLE]</text>
<polygon fill="none" stroke="#000000" points="729.5,-192.5 729.5,-222.5 1032.5,-222.5 1032.5,-192.5 729.5,-192.5"/>
<text text-anchor="start" x="736.5" y="-203.9" font-family="Arial" font-size="14.00" fill="#000000">organization_id    </text>
<text text-anchor="start" x="865.6192" y="-203.9" font-family="Arial" font-size="14.00" fill="#666666">[bigint]</text>
<polygon fill="none" stroke="#000000" points="729.5,-162.5 729.5,-192.5 1032.5,-192.5 1032.5,-162.5 729.5,-162.5"/>
<text text-anchor="start" x="736.5" y="-173.9" font-family="Arial" font-size="14.00" fill="#000000">organization_name    </text>
<text text-anchor="start" x="889.7384" y="-173.9" font-family="Arial" font-size="14.00" fill="#666666">[varchar(255)]</text>
<polygon fill="none" stroke="#000000" points="729.5,-132.5 729.5,-162.5 1032.5,-162.5 1032.5,-132.5 729.5,-132.5"/>
<text text-anchor="start" x="736.5" y="-143.9" font-family="Arial" font-size="14.00" fill="#000000">display_name    </text>
<text text-anchor="start" x="857.0568" y="-143.9" font-family="Arial" font-size="14.00" fill="#666666">[varchar(255)]</text>
<polygon fill="none" stroke="#000000" points="729.5,-102.5 729.5,-132.5 1032.5,-132.5 1032.5,-102.5 729.5,-102.5"/>
<text text-anchor="start" x="736.5" y="-113.9" font-family="Arial" font-size="14.00" fill="#000000">created_at    </text>
<text text-anchor="start" x="836.8422" y="-113.9" font-family="Arial" font-size="14.00" fill="#666666">[timestamp without time zone]</text>
<polygon fill="none" stroke="#000000" points="729.5,-72.5 729.5,-102.5 1032.5,-102.5 1032.5,-72.5 729.5,-72.5"/>
<text text-anchor="start" x="736.3065" y="-83.9" font-family="Arial" font-size="14.00" fill="#000000">updated_at    </text>
<text text-anchor="start" x="840.5533" y="-83.9" font-family="Arial" font-size="14.00" fill="#666666">[timestamp without time zone]</text>
<polygon fill="none" stroke="#000000" points="729.5,-42.5 729.5,-72.5 1032.5,-72.5 1032.5,-42.5 729.5,-42.5"/>
<text text-anchor="start" x="736.5" y="-53.9" font-family="Arial" font-size="14.00" fill="#000000">is_deleted    </text>
<text text-anchor="start" x="834.5042" y="-53.9" font-family="Arial" font-size="14.00" fill="#666666">[boolean]</text>
</g>
<!-- public.workspace&#45;&gt;public.organization -->
<g id="edge5" class="edge">
<title>public.workspace:organization_id&#45;&gt;public.organization:organization_id</title>
<path fill="none" stroke="#000000" d="M731.1888,-486.839C616.3712,-471.8652 608.4689,-207.5 729.5,-207.5"/>
<polygon fill="#000000" stroke="#000000" points="731.5205,-486.8602 741.2121,-491.9908 736.5102,-487.1801 741.5,-487.5 741.5,-487.5 741.5,-487.5 736.5102,-487.1801 741.7879,-483.0092 731.5205,-486.8602 731.5205,-486.8602"/>
</g>
<!-- public.workspace_member -->
<g id="node2" class="node">
<title>public.workspace_member</title>
<polygon fill="#efefef" stroke="transparent" points="43.5,-917.5 43.5,-952.5 398.5,-952.5 398.5,-917.5 43.5,-917.5"/>
<polygon fill="none" stroke="#000000" points="43.5,-917.5 43.5,-952.5 398.5,-952.5 398.5,-917.5 43.5,-917.5"/>
<text text-anchor="start" x="50.2051" y="-930.3" font-family="Arial Bold" font-size="18.00" fill="#000000">public.workspace_member</text>
<text text-anchor="start" x="264.2269" y="-930.3" font-family="Arial" font-size="14.00" fill="#000000">    </text>
<text text-anchor="start" x="298.4317" y="-930.3" font-family="Arial" font-size="14.00" fill="#666666">[BASE TABLE]</text>
<polygon fill="none" stroke="#000000" points="43.5,-887.5 43.5,-917.5 398.5,-917.5 398.5,-887.5 43.5,-887.5"/>
<text text-anchor="start" x="50.5" y="-898.9" font-family="Arial" font-size="14.00" fill="#000000">workspace_member_id    </text>
<text text-anchor="start" x="229.3864" y="-898.9" font-family="Arial" font-size="14.00" fill="#666666">[bigint]</text>
<polygon fill="none" stroke="#000000" points="43.5,-857.5 43.5,-887.5 398.5,-887.5 398.5,-857.5 43.5,-857.5"/>
<text text-anchor="start" x="50.5" y="-868.9" font-family="Arial" font-size="14.00" fill="#000000">workspace_id    </text>
<text text-anchor="start" x="170.2742" y="-868.9" font-family="Arial" font-size="14.00" fill="#666666">[bigint]</text>
<polygon fill="none" stroke="#000000" points="43.5,-827.5 43.5,-857.5 398.5,-857.5 398.5,-827.5 43.5,-827.5"/>
<text text-anchor="start" x="50.5" y="-838.9" font-family="Arial" font-size="14.00" fill="#000000">user_account_id    </text>
<text text-anchor="start" x="187.406" y="-838.9" font-family="Arial" font-size="14.00" fill="#666666">[bigint]</text>
<polygon fill="none" stroke="#000000" points="43.5,-797.5 43.5,-827.5 398.5,-827.5 398.5,-797.5 43.5,-797.5"/>
<text text-anchor="start" x="50.5" y="-808.9" font-family="Arial" font-size="14.00" fill="#000000">workspace_member_authority_id    </text>
<text text-anchor="start" x="290.8478" y="-808.9" font-family="Arial" font-size="14.00" fill="#666666">[bigint]</text>
</g>
<!-- public.workspace_member&#45;&gt;public.workspace -->
<g id="edge1" class="edge">
<title>public.workspace_member:workspace_id&#45;&gt;public.workspace:workspace_id</title>
<path fill="none" stroke="#000000" d="M408.5434,-871.7612C467.183,-862.2836 401.7835,-763.9173 449.5,-710 543.9486,-603.2777 598.9862,-577.5 741.5,-577.5"/>
<polygon fill="#000000" stroke="#000000" points="408.4731,-871.7663 398.1698,-868.0121 403.4865,-872.1331 398.5,-872.5 398.5,-872.5 398.5,-872.5 403.4865,-872.1331 398.8302,-876.9879 408.4731,-871.7663 408.4731,-871.7663"/>
</g>
<!-- public.project -->
<g id="node3" class="node">
<title>public.project</title>
<polygon fill="#efefef" stroke="transparent" points="502.5,-962.5 502.5,-997.5 805.5,-997.5 805.5,-962.5 502.5,-962.5"/>
<polygon fill="none" stroke="#000000" points="502.5,-962.5 502.5,-997.5 805.5,-997.5 805.5,-962.5 502.5,-962.5"/>
<text text-anchor="start" x="537.2078" y="-975.3" font-family="Arial Bold" font-size="18.00" fill="#000000">public.project</text>
<text text-anchor="start" x="643.2242" y="-975.3" font-family="Arial" font-size="14.00" fill="#000000">    </text>
<text text-anchor="start" x="677.429" y="-975.3" font-family="Arial" font-size="14.00" fill="#666666">[BASE TABLE]</text>
<polygon fill="none" stroke="#000000" points="502.5,-932.5 502.5,-962.5 805.5,-962.5 805.5,-932.5 502.5,-932.5"/>
<text text-anchor="start" x="509.5" y="-943.9" font-family="Arial" font-size="14.00" fill="#000000">project_id    </text>
<text text-anchor="start" x="604.3822" y="-943.9" font-family="Arial" font-size="14.00" fill="#666666">[bigint]</text>
<polygon fill="none" stroke="#000000" points="502.5,-902.5 502.5,-932.5 805.5,-932.5 805.5,-902.5 502.5,-902.5"/>
<text text-anchor="start" x="509.5" y="-913.9" font-family="Arial" font-size="14.00" fill="#000000">project_name    </text>
<text text-anchor="start" x="628.5014" y="-913.9" font-family="Arial" font-size="14.00" fill="#666666">[varchar(255)]</text>
<polygon fill="none" stroke="#000000" points="502.5,-872.5 502.5,-902.5 805.5,-902.5 805.5,-872.5 502.5,-872.5"/>
<text text-anchor="start" x="509.5" y="-883.9" font-family="Arial" font-size="14.00" fill="#000000">display_name    </text>
<text text-anchor="start" x="630.0568" y="-883.9" font-family="Arial" font-size="14.00" fill="#666666">[varchar(255)]</text>
<polygon fill="none" stroke="#000000" points="502.5,-842.5 502.5,-872.5 805.5,-872.5 805.5,-842.5 502.5,-842.5"/>
<text text-anchor="start" x="509.5" y="-853.9" font-family="Arial" font-size="14.00" fill="#000000">workspace_id    </text>
<text text-anchor="start" x="629.2742" y="-853.9" font-family="Arial" font-size="14.00" fill="#666666">[bigint]</text>
<polygon fill="none" stroke="#000000" points="502.5,-812.5 502.5,-842.5 805.5,-842.5 805.5,-812.5 502.5,-812.5"/>
<text text-anchor="start" x="509.5" y="-823.9" font-family="Arial" font-size="14.00" fill="#000000">created_at    </text>
<text text-anchor="start" x="609.8422" y="-823.9" font-family="Arial" font-size="14.00" fill="#666666">[timestamp without time zone]</text>
<polygon fill="none" stroke="#000000" points="502.5,-782.5 502.5,-812.5 805.5,-812.5 805.5,-782.5 502.5,-782.5"/>
<text text-anchor="start" x="509.3065" y="-793.9" font-family="Arial" font-size="14.00" fill="#000000">updated_at    </text>
<text text-anchor="start" x="613.5533" y="-793.9" font-family="Arial" font-size="14.00" fill="#666666">[timestamp without time zone]</text>
<polygon fill="none" stroke="#000000" points="502.5,-752.5 502.5,-782.5 805.5,-782.5 805.5,-752.5 502.5,-752.5"/>
<text text-anchor="start" x="509.5" y="-763.9" font-family="Arial" font-size="14.00" fill="#000000">is_deleted    </text>
<text text-anchor="start" x="607.5042" y="-763.9" font-family="Arial" font-size="14.00" fill="#666666">[boolean]</text>
</g>
<!-- public.project&#45;&gt;public.workspace -->
<g id="edge2" class="edge">
<title>public.project:workspace_id&#45;&gt;public.workspace:workspace_id</title>
<path fill="none" stroke="#000000" d="M815.7137,-856.6478C867.3764,-847.3115 836.7209,-763.383 805.5,-710 789.024,-681.8286 757.976,-702.1714 741.5,-674 719.8477,-636.9779 698.6111,-577.5 741.5,-577.5"/>
<polygon fill="#000000" stroke="#000000" points="815.4654,-856.6684 805.1258,-853.0156 810.4827,-857.0842 805.5,-857.5 805.5,-857.5 805.5,-857.5 810.4827,-857.0842 805.8742,-861.9844 815.4654,-856.6684 815.4654,-856.6684"/>
</g>
<!-- public.user_account_workspace -->
<g id="node4" class="node">
<title>public.user_account_workspace</title>
<polygon fill="#efefef" stroke="transparent" points="909.5,-902.5 909.5,-937.5 1306.5,-937.5 1306.5,-902.5 909.5,-902.5"/>
<polygon fill="none" stroke="#000000" points="909.5,-902.5 909.5,-937.5 1306.5,-937.5 1306.5,-902.5 909.5,-902.5"/>
<text text-anchor="start" x="916.1838" y="-915.3" font-family="Arial Bold" font-size="18.00" fill="#000000">public.user_account_workspace</text>
<text text-anchor="start" x="1172.2482" y="-915.3" font-family="Arial" font-size="14.00" fill="#000000">    </text>
<text text-anchor="start" x="1206.453" y="-915.3" font-family="Arial" font-size="14.00" fill="#666666">[BASE TABLE]</text>
<polygon fill="none" stroke="#000000" points="909.5,-872.5 909.5,-902.5 1306.5,-902.5 1306.5,-872.5 909.5,-872.5"/>
<text text-anchor="start" x="916.5" y="-883.9" font-family="Arial" font-size="14.00" fill="#000000">user_account_workspace_id    </text>
<text text-anchor="start" x="1128.0862" y="-883.9" font-family="Arial" font-size="14.00" fill="#666666">[bigint]</text>
<polygon fill="none" stroke="#000000" points="909.5,-842.5 909.5,-872.5 1306.5,-872.5 1306.5,-842.5 909.5,-842.5"/>
<text text-anchor="start" x="916.5" y="-853.9" font-family="Arial" font-size="14.00" fill="#000000">user_account_id    </text>
<text text-anchor="start" x="1053.406" y="-853.9" font-family="Arial" font-size="14.00" fill="#666666">[bigint]</text>
<polygon fill="none" stroke="#000000" points="909.5,-812.5 909.5,-842.5 1306.5,-842.5 1306.5,-812.5 909.5,-812.5"/>
<text text-anchor="start" x="916.5" y="-823.9" font-family="Arial" font-size="14.00" fill="#000000">workspace_id    </text>
<text text-anchor="start" x="1036.2742" y="-823.9" font-family="Arial" font-size="14.00" fill="#666666">[bigint]</text>
</g>
<!-- public.user_account_workspace&#45;&gt;public.workspace -->
<g id="edge3" class="edge">
<title>public.user_account_workspace:workspace_id&#45;&gt;public.workspace:workspace_id</title>
<path fill="none" stroke="#000000" d="M899.6833,-824.6938C888.949,-816.049 900.6995,-789.2466 909.5,-770 936.623,-710.6825 993.377,-733.3175 1020.5,-674 1038.335,-634.9953 1063.3889,-577.5 1020.5,-577.5"/>
<polygon fill="#000000" stroke="#000000" points="899.8851,-824.7514 908.2631,-831.8267 904.6926,-826.1257 909.5,-827.5 909.5,-827.5 909.5,-827.5 904.6926,-826.1257 910.7369,-823.1733 899.8851,-824.7514 899.8851,-824.7514"/>
</g>
<!-- public.organization_workspace -->
<g id="node5" class="node">
<title>public.organization_workspace</title>
<polygon fill="#efefef" stroke="transparent" points="1410.5,-902.5 1410.5,-937.5 1797.5,-937.5 1797.5,-902.5 1410.5,-902.5"/>
<polygon fill="none" stroke="#000000" points="1410.5,-902.5 1410.5,-937.5 1797.5,-937.5 1797.5,-902.5 1410.5,-902.5"/>
<text text-anchor="start" x="1417.1896" y="-915.3" font-family="Arial Bold" font-size="18.00" fill="#000000">public.organization_workspace</text>
<text text-anchor="start" x="1663.2424" y="-915.3" font-family="Arial" font-size="14.00" fill="#000000">    </text>
<text text-anchor="start" x="1697.4472" y="-915.3" font-family="Arial" font-size="14.00" fill="#666666">[BASE TABLE]</text>
<polygon fill="none" stroke="#000000" points="1410.5,-872.5 1410.5,-902.5 1797.5,-902.5 1797.5,-872.5 1410.5,-872.5"/>
<text text-anchor="start" x="1417.5" y="-883.9" font-family="Arial" font-size="14.00" fill="#000000">organization_workspace_id    </text>
<text text-anchor="start" x="1621.2994" y="-883.9" font-family="Arial" font-size="14.00" fill="#666666">[bigint]</text>
<polygon fill="none" stroke="#000000" points="1410.5,-842.5 1410.5,-872.5 1797.5,-872.5 1797.5,-842.5 1410.5,-842.5"/>
<text text-anchor="start" x="1417.5" y="-853.9" font-family="Arial" font-size="14.00" fill="#000000">organization_id    </text>
<text text-anchor="start" x="1546.6192" y="-853.9" font-family="Arial" font-size="14.00" fill="#666666">[bigint]</text>
<polygon fill="none" stroke="#000000" points="1410.5,-812.5 1410.5,-842.5 1797.5,-842.5 1797.5,-812.5 1410.5,-812.5"/>
<text text-anchor="start" x="1417.5" y="-823.9" font-family="Arial" font-size="14.00" fill="#000000">workspace_id    </text>
<text text-anchor="start" x="1537.2742" y="-823.9" font-family="Arial" font-size="14.00" fill="#666666">[bigint]</text>
</g>
<!-- public.organization_workspace&#45;&gt;public.workspace -->
<g id="edge4" class="edge">
<title>public.organization_workspace:workspace_id&#45;&gt;public.workspace:workspace_id</title>
<path fill="none" stroke="#000000" d="M1400.4358,-826.5023C1359.1618,-817.3108 1397.0022,-746.8796 1358.5,-710 1241.9777,-598.3883 1181.8525,-577.5 1020.5,-577.5"/>
<polygon fill="#000000" stroke="#000000" points="1400.5488,-826.5134 1410.056,-831.978 1405.5244,-827.0067 1410.5,-827.5 1410.5,-827.5 1410.5,-827.5 1405.5244,-827.0067 1410.944,-823.022 1400.5488,-826.5134 1400.5488,-826.5134"/>
</g>
</g>
</svg>
