<?xml version="1.0" encoding="UTF-8" standalone="no"?>
<!DOCTYPE svg PUBLIC "-//W3C//DTD SVG 1.1//EN"
 "http://www.w3.org/Graphics/SVG/1.1/DTD/svg11.dtd">
<!-- Generated by graphviz version 2.40.1 (20161225.0304)
 -->
<!-- Title: public.organization Pages: 1 -->
<svg width="868pt" height="682pt"
 viewBox="0.00 0.00 868.00 682.00" xmlns="http://www.w3.org/2000/svg" xmlns:xlink="http://www.w3.org/1999/xlink">
<g id="graph0" class="graph" transform="scale(1 1) rotate(0) translate(4 678)">
<title>public.organization</title>
<polygon fill="#ffffff" stroke="transparent" points="-4,4 -4,-678 864,-678 864,4 -4,4"/>
<!-- public.organization -->
<g id="node1" class="node">
<title>public.organization</title>
<polygon fill="#efefef" stroke="transparent" points="300.5,-225.5 300.5,-260.5 591.5,-260.5 591.5,-225.5 300.5,-225.5"/>
<polygon fill="none" stroke="#000000" points="300.5,-225.5 300.5,-260.5 591.5,-260.5 591.5,-225.5 300.5,-225.5"/>
<text text-anchor="start" x="307.1983" y="-238.3" font-family="Arial Bold" font-size="18.00" fill="#000000">public.organization</text>
<text text-anchor="start" x="457.2337" y="-238.3" font-family="Arial" font-size="14.00" fill="#000000">    </text>
<text text-anchor="start" x="491.4385" y="-238.3" font-family="Arial" font-size="14.00" fill="#666666">[BASE TABLE]</text>
<polygon fill="none" stroke="#000000" points="300.5,-195.5 300.5,-225.5 591.5,-225.5 591.5,-195.5 300.5,-195.5"/>
<text text-anchor="start" x="307.5" y="-206.9" font-family="Arial" font-size="14.00" fill="#000000">organization_id </text>
<text text-anchor="start" x="406.305" y="-206.9" font-family="Arial" font-size="14.00" fill="#666666">[bigint]</text>
<polygon fill="none" stroke="#000000" points="300.5,-165.5 300.5,-195.5 591.5,-195.5 591.5,-165.5 300.5,-165.5"/>
<text text-anchor="start" x="307.5" y="-176.9" font-family="Arial" font-size="14.00" fill="#000000">organization_name </text>
<text text-anchor="start" x="430.4242" y="-176.9" font-family="Arial" font-size="14.00" fill="#666666">[varchar(255)]</text>
<polygon fill="none" stroke="#000000" points="300.5,-135.5 300.5,-165.5 591.5,-165.5 591.5,-135.5 300.5,-135.5"/>
<text text-anchor="start" x="307.5" y="-146.9" font-family="Arial" font-size="14.00" fill="#000000">display_name </text>
<text text-anchor="start" x="397.7426" y="-146.9" font-family="Arial" font-size="14.00" fill="#666666">[varchar(255)]</text>
<polygon fill="none" stroke="#000000" points="300.5,-105.5 300.5,-135.5 591.5,-135.5 591.5,-105.5 300.5,-105.5"/>
<text text-anchor="start" x="307.5" y="-116.9" font-family="Arial" font-size="14.00" fill="#000000">created_at </text>
<text text-anchor="start" x="377.528" y="-116.9" font-family="Arial" font-size="14.00" fill="#666666">[timestamp without time zone]</text>
<polygon fill="none" stroke="#000000" points="300.5,-75.5 300.5,-105.5 591.5,-105.5 591.5,-75.5 300.5,-75.5"/>
<text text-anchor="start" x="307.5" y="-86.9" font-family="Arial" font-size="14.00" fill="#000000">updated_at </text>
<text text-anchor="start" x="381.4326" y="-86.9" font-family="Arial" font-size="14.00" fill="#666666">[timestamp without time zone]</text>
<polygon fill="none" stroke="#000000" points="300.5,-45.5 300.5,-75.5 591.5,-75.5 591.5,-45.5 300.5,-45.5"/>
<text text-anchor="start" x="307.5" y="-56.9" font-family="Arial" font-size="14.00" fill="#000000">is_deleted </text>
<text text-anchor="start" x="375.19" y="-56.9" font-family="Arial" font-size="14.00" fill="#666666">[boolean]</text>
<polygon fill="none" stroke="#000000" stroke-width="3" points="298.5,-44.5 298.5,-262.5 592.5,-262.5 592.5,-44.5 298.5,-44.5"/>
</g>
<!-- public.organization_member -->
<g id="node2" class="node">
<title>public.organization_member</title>
<polygon fill="#efefef" stroke="transparent" points="43.5,-550.5 43.5,-585.5 410.5,-585.5 410.5,-550.5 43.5,-550.5"/>
<polygon fill="none" stroke="#000000" points="43.5,-550.5 43.5,-585.5 410.5,-585.5 410.5,-550.5 43.5,-550.5"/>
<text text-anchor="start" x="50.1976" y="-563.3" font-family="Arial Bold" font-size="18.00" fill="#000000">public.organization_member</text>
<text text-anchor="start" x="276.2344" y="-563.3" font-family="Arial" font-size="14.00" fill="#000000">    </text>
<text text-anchor="start" x="310.4392" y="-563.3" font-family="Arial" font-size="14.00" fill="#666666">[BASE TABLE]</text>
<polygon fill="none" stroke="#000000" points="43.5,-520.5 43.5,-550.5 410.5,-550.5 410.5,-520.5 43.5,-520.5"/>
<text text-anchor="start" x="50.5" y="-531.9" font-family="Arial" font-size="14.00" fill="#000000">organization_member_id    </text>
<text text-anchor="start" x="238.7314" y="-531.9" font-family="Arial" font-size="14.00" fill="#666666">[bigint]</text>
<polygon fill="none" stroke="#000000" points="43.5,-490.5 43.5,-520.5 410.5,-520.5 410.5,-490.5 43.5,-490.5"/>
<text text-anchor="start" x="50.5" y="-501.9" font-family="Arial" font-size="14.00" fill="#000000">organization_id    </text>
<text text-anchor="start" x="179.6192" y="-501.9" font-family="Arial" font-size="14.00" fill="#666666">[bigint]</text>
<polygon fill="none" stroke="#000000" points="43.5,-460.5 43.5,-490.5 410.5,-490.5 410.5,-460.5 43.5,-460.5"/>
<text text-anchor="start" x="50.5" y="-471.9" font-family="Arial" font-size="14.00" fill="#000000">user_account_id    </text>
<text text-anchor="start" x="187.406" y="-471.9" font-family="Arial" font-size="14.00" fill="#666666">[bigint]</text>
<polygon fill="none" stroke="#000000" points="43.5,-430.5 43.5,-460.5 410.5,-460.5 410.5,-430.5 43.5,-430.5"/>
<text text-anchor="start" x="50.5" y="-441.9" font-family="Arial" font-size="14.00" fill="#000000">organization_member_authority_id    </text>
<text text-anchor="start" x="300.1928" y="-441.9" font-family="Arial" font-size="14.00" fill="#666666">[bigint]</text>
</g>
<!-- public.organization_member&#45;&gt;public.organization -->
<g id="edge1" class="edge">
<title>public.organization_member:organization_id&#45;&gt;public.organization:organization_id</title>
<path fill="none" stroke="#000000" d="M420.8261,-504.3674C458.4957,-495.1105 432.3109,-431.1469 410.5,-388 383.1099,-333.816 327.8901,-361.184 300.5,-307 281.1512,-268.7236 257.6111,-210.5 300.5,-210.5"/>
<polygon fill="#000000" stroke="#000000" points="420.4404,-504.4096 410.0093,-501.0268 415.4702,-504.9548 410.5,-505.5 410.5,-505.5 410.5,-505.5 415.4702,-504.9548 410.9907,-509.9732 420.4404,-504.4096 420.4404,-504.4096"/>
</g>
<!-- public.workspace -->
<g id="node3" class="node">
<title>public.workspace</title>
<polygon fill="#efefef" stroke="transparent" points="514.5,-595.5 514.5,-630.5 817.5,-630.5 817.5,-595.5 514.5,-595.5"/>
<polygon fill="none" stroke="#000000" points="514.5,-595.5 514.5,-630.5 817.5,-630.5 817.5,-595.5 514.5,-595.5"/>
<text text-anchor="start" x="533.2058" y="-608.3" font-family="Arial Bold" font-size="18.00" fill="#000000">public.workspace</text>
<text text-anchor="start" x="671.2262" y="-608.3" font-family="Arial" font-size="14.00" fill="#000000">    </text>
<text text-anchor="start" x="705.431" y="-608.3" font-family="Arial" font-size="14.00" fill="#666666">[BASE TABLE]</text>
<polygon fill="none" stroke="#000000" points="514.5,-565.5 514.5,-595.5 817.5,-595.5 817.5,-565.5 514.5,-565.5"/>
<text text-anchor="start" x="521.5" y="-576.9" font-family="Arial" font-size="14.00" fill="#000000">workspace_id    </text>
<text text-anchor="start" x="641.2742" y="-576.9" font-family="Arial" font-size="14.00" fill="#666666">[bigint]</text>
<polygon fill="none" stroke="#000000" points="514.5,-535.5 514.5,-565.5 817.5,-565.5 817.5,-535.5 514.5,-535.5"/>
<text text-anchor="start" x="521.5" y="-546.9" font-family="Arial" font-size="14.00" fill="#000000">workspace_name    </text>
<text text-anchor="start" x="665.3934" y="-546.9" font-family="Arial" font-size="14.00" fill="#666666">[varchar(255)]</text>
<polygon fill="none" stroke="#000000" points="514.5,-505.5 514.5,-535.5 817.5,-535.5 817.5,-505.5 514.5,-505.5"/>
<text text-anchor="start" x="521.5" y="-516.9" font-family="Arial" font-size="14.00" fill="#000000">display_name    </text>
<text text-anchor="start" x="642.0568" y="-516.9" font-family="Arial" font-size="14.00" fill="#666666">[varchar(255)]</text>
<polygon fill="none" stroke="#000000" points="514.5,-475.5 514.5,-505.5 817.5,-505.5 817.5,-475.5 514.5,-475.5"/>
<text text-anchor="start" x="521.5" y="-486.9" font-family="Arial" font-size="14.00" fill="#000000">organization_id    </text>
<text text-anchor="start" x="650.6192" y="-486.9" font-family="Arial" font-size="14.00" fill="#666666">[bigint]</text>
<polygon fill="none" stroke="#000000" points="514.5,-445.5 514.5,-475.5 817.5,-475.5 817.5,-445.5 514.5,-445.5"/>
<text text-anchor="start" x="521.5" y="-456.9" font-family="Arial" font-size="14.00" fill="#000000">created_at    </text>
<text text-anchor="start" x="621.8422" y="-456.9" font-family="Arial" font-size="14.00" fill="#666666">[timestamp without time zone]</text>
<polygon fill="none" stroke="#000000" points="514.5,-415.5 514.5,-445.5 817.5,-445.5 817.5,-415.5 514.5,-415.5"/>
<text text-anchor="start" x="521.3065" y="-426.9" font-family="Arial" font-size="14.00" fill="#000000">updated_at    </text>
<text text-anchor="start" x="625.5533" y="-426.9" font-family="Arial" font-size="14.00" fill="#666666">[timestamp without time zone]</text>
<polygon fill="none" stroke="#000000" points="514.5,-385.5 514.5,-415.5 817.5,-415.5 817.5,-385.5 514.5,-385.5"/>
<text text-anchor="start" x="521.5" y="-396.9" font-family="Arial" font-size="14.00" fill="#000000">is_deleted    </text>
<text text-anchor="start" x="619.5042" y="-396.9" font-family="Arial" font-size="14.00" fill="#666666">[boolean]</text>
</g>
<!-- public.workspace&#45;&gt;public.organization -->
<g id="edge2" class="edge">
<title>public.workspace:organization_id&#45;&gt;public.organization:organization_id</title>
<path fill="none" stroke="#000000" d="M504.2673,-489.6361C452.3992,-480.1746 481.2983,-395.1741 514.5,-343 534.782,-311.1283 571.218,-338.8717 591.5,-307 614.526,-270.8163 634.3889,-210.5 591.5,-210.5"/>
<polygon fill="#000000" stroke="#000000" points="504.5354,-489.6587 514.1214,-494.984 509.5177,-490.0793 514.5,-490.5 514.5,-490.5 514.5,-490.5 509.5177,-490.0793 514.8786,-486.016 504.5354,-489.6587 504.5354,-489.6587"/>
</g>
</g>
</svg>
