<?xml version="1.0" encoding="UTF-8" standalone="no"?>
<!DOCTYPE svg PUBLIC "-//W3C//DTD SVG 1.1//EN"
 "http://www.w3.org/Graphics/SVG/1.1/DTD/svg11.dtd">
<!-- Generated by graphviz version 2.40.1 (20161225.0304)
 -->
<!-- Title: public.user_auth Pages: 1 -->
<svg width="397pt" height="592pt"
 viewBox="0.00 0.00 397.00 592.00" xmlns="http://www.w3.org/2000/svg" xmlns:xlink="http://www.w3.org/1999/xlink">
<g id="graph0" class="graph" transform="scale(1 1) rotate(0) translate(4 588)">
<title>public.user_auth</title>
<polygon fill="#ffffff" stroke="transparent" points="-4,4 -4,-588 393,-588 393,4 -4,4"/>
<!-- public.user_auth -->
<g id="node1" class="node">
<title>public.user_auth</title>
<polygon fill="#efefef" stroke="transparent" points="58.5,-502.5 58.5,-537.5 331.5,-537.5 331.5,-502.5 58.5,-502.5"/>
<polygon fill="none" stroke="#000000" points="58.5,-502.5 58.5,-537.5 331.5,-537.5 331.5,-502.5 58.5,-502.5"/>
<text text-anchor="start" x="65.1956" y="-515.3" font-family="Arial Bold" font-size="18.00" fill="#000000">public.user_auth</text>
<text text-anchor="start" x="197.2364" y="-515.3" font-family="Arial" font-size="14.00" fill="#000000">    </text>
<text text-anchor="start" x="231.4412" y="-515.3" font-family="Arial" font-size="14.00" fill="#666666">[BASE TABLE]</text>
<polygon fill="none" stroke="#000000" points="58.5,-472.5 58.5,-502.5 331.5,-502.5 331.5,-472.5 58.5,-472.5"/>
<text text-anchor="start" x="65.5" y="-483.9" font-family="Arial" font-size="14.00" fill="#000000">user_auth_id </text>
<text text-anchor="start" x="150.3092" y="-483.9" font-family="Arial" font-size="14.00" fill="#666666">[bigint]</text>
<polygon fill="none" stroke="#000000" points="58.5,-442.5 58.5,-472.5 331.5,-472.5 331.5,-442.5 58.5,-442.5"/>
<text text-anchor="start" x="65.5" y="-453.9" font-family="Arial" font-size="14.00" fill="#000000">user_id </text>
<text text-anchor="start" x="115.2882" y="-453.9" font-family="Arial" font-size="14.00" fill="#666666">[bigint]</text>
<polygon fill="none" stroke="#000000" points="58.5,-412.5 58.5,-442.5 331.5,-442.5 331.5,-412.5 58.5,-412.5"/>
<text text-anchor="start" x="65.5" y="-423.9" font-family="Arial" font-size="14.00" fill="#000000">password </text>
<text text-anchor="start" x="129.2882" y="-423.9" font-family="Arial" font-size="14.00" fill="#666666">[varchar(255)]</text>
<polygon fill="none" stroke="#000000" points="58.5,-382.5 58.5,-412.5 331.5,-412.5 331.5,-382.5 58.5,-382.5"/>
<text text-anchor="start" x="65.5" y="-393.9" font-family="Arial" font-size="14.00" fill="#000000">created_at </text>
<text text-anchor="start" x="135.528" y="-393.9" font-family="Arial" font-size="14.00" fill="#666666">[timestamp without time zone]</text>
<polygon fill="none" stroke="#000000" points="58.5,-352.5 58.5,-382.5 331.5,-382.5 331.5,-352.5 58.5,-352.5"/>
<text text-anchor="start" x="65.4636" y="-363.9" font-family="Arial" font-size="14.00" fill="#000000">updated_at </text>
<text text-anchor="start" x="139.3962" y="-363.9" font-family="Arial" font-size="14.00" fill="#666666">[timestamp without time zone]</text>
<polygon fill="none" stroke="#000000" stroke-width="3" points="56.5,-351.5 56.5,-539.5 332.5,-539.5 332.5,-351.5 56.5,-351.5"/>
</g>
<!-- public.user -->
<g id="node2" class="node">
<title>public.user</title>
<polygon fill="#efefef" stroke="transparent" points="43.5,-192.5 43.5,-227.5 346.5,-227.5 346.5,-192.5 43.5,-192.5"/>
<polygon fill="none" stroke="#000000" points="43.5,-192.5 43.5,-227.5 346.5,-227.5 346.5,-192.5 43.5,-192.5"/>
<text text-anchor="start" x="87.7091" y="-205.3" font-family="Arial Bold" font-size="18.00" fill="#000000">public.user</text>
<text text-anchor="start" x="174.7229" y="-205.3" font-family="Arial" font-size="14.00" fill="#000000">    </text>
<text text-anchor="start" x="208.9277" y="-205.3" font-family="Arial" font-size="14.00" fill="#666666">[BASE TABLE]</text>
<polygon fill="none" stroke="#000000" points="43.5,-162.5 43.5,-192.5 346.5,-192.5 346.5,-162.5 43.5,-162.5"/>
<text text-anchor="start" x="50.5" y="-173.9" font-family="Arial" font-size="14.00" fill="#000000">user_id    </text>
<text text-anchor="start" x="130.6024" y="-173.9" font-family="Arial" font-size="14.00" fill="#666666">[bigint]</text>
<polygon fill="none" stroke="#000000" points="43.5,-132.5 43.5,-162.5 346.5,-162.5 346.5,-132.5 43.5,-132.5"/>
<text text-anchor="start" x="50.5" y="-143.9" font-family="Arial" font-size="14.00" fill="#000000">email    </text>
<text text-anchor="start" x="118.1438" y="-143.9" font-family="Arial" font-size="14.00" fill="#666666">[varchar(255)]</text>
<polygon fill="none" stroke="#000000" points="43.5,-102.5 43.5,-132.5 346.5,-132.5 346.5,-102.5 43.5,-102.5"/>
<text text-anchor="start" x="50.5" y="-113.9" font-family="Arial" font-size="14.00" fill="#000000">created_at    </text>
<text text-anchor="start" x="150.8422" y="-113.9" font-family="Arial" font-size="14.00" fill="#666666">[timestamp without time zone]</text>
<polygon fill="none" stroke="#000000" points="43.5,-72.5 43.5,-102.5 346.5,-102.5 346.5,-72.5 43.5,-72.5"/>
<text text-anchor="start" x="50.3065" y="-83.9" font-family="Arial" font-size="14.00" fill="#000000">updated_at    </text>
<text text-anchor="start" x="154.5533" y="-83.9" font-family="Arial" font-size="14.00" fill="#666666">[timestamp without time zone]</text>
<polygon fill="none" stroke="#000000" points="43.5,-42.5 43.5,-72.5 346.5,-72.5 346.5,-42.5 43.5,-42.5"/>
<text text-anchor="start" x="50.5" y="-53.9" font-family="Arial" font-size="14.00" fill="#000000">is_deleted    </text>
<text text-anchor="start" x="148.5042" y="-53.9" font-family="Arial" font-size="14.00" fill="#666666">[boolean]</text>
</g>
<!-- public.user_auth&#45;&gt;public.user -->
<g id="edge1" class="edge">
<title>public.user_auth:user_id&#45;&gt;public.user:user_id</title>
<path fill="none" stroke="#000000" d="M48.7064,-455.0794C-5.2209,-427.7124 -15.4038,-177.5 43.5,-177.5"/>
<polygon fill="#000000" stroke="#000000" points="48.7921,-455.1005 57.4202,-461.8685 53.6461,-456.3002 58.5,-457.5 58.5,-457.5 58.5,-457.5 53.6461,-456.3002 59.5798,-453.1315 48.7921,-455.1005 48.7921,-455.1005"/>
</g>
</g>
</svg>
