<?xml version="1.0" encoding="UTF-8" standalone="no"?>
<!DOCTYPE svg PUBLIC "-//W3C//DTD SVG 1.1//EN"
 "http://www.w3.org/Graphics/SVG/1.1/DTD/svg11.dtd">
<!-- Generated by graphviz version 2.40.1 (20161225.0304)
 -->
<!-- Title: public.temporary_user_code Pages: 1 -->
<svg width="468pt" height="622pt"
 viewBox="0.00 0.00 468.00 622.00" xmlns="http://www.w3.org/2000/svg" xmlns:xlink="http://www.w3.org/1999/xlink">
<g id="graph0" class="graph" transform="scale(1 1) rotate(0) translate(4 618)">
<title>public.temporary_user_code</title>
<polygon fill="#ffffff" stroke="transparent" points="-4,4 -4,-618 464,-618 464,4 -4,4"/>
<!-- public.temporary_user_code -->
<g id="node1" class="node">
<title>public.temporary_user_code</title>
<polygon fill="#efefef" stroke="transparent" points="46,-532.5 46,-567.5 414,-567.5 414,-532.5 46,-532.5"/>
<polygon fill="none" stroke="#000000" points="46,-532.5 46,-567.5 414,-567.5 414,-532.5 46,-532.5"/>
<text text-anchor="start" x="52.6918" y="-545.3" font-family="Arial Bold" font-size="18.00" fill="#000000">public.temporary_user_code</text>
<text text-anchor="start" x="279.7402" y="-545.3" font-family="Arial" font-size="14.00" fill="#000000">    </text>
<text text-anchor="start" x="313.945" y="-545.3" font-family="Arial" font-size="14.00" fill="#666666">[BASE TABLE]</text>
<polygon fill="none" stroke="#000000" points="46,-502.5 46,-532.5 414,-532.5 414,-502.5 46,-502.5"/>
<text text-anchor="start" x="53" y="-513.9" font-family="Arial" font-size="14.00" fill="#000000">temporary_user_code_id </text>
<text text-anchor="start" x="211.704" y="-513.9" font-family="Arial" font-size="14.00" fill="#666666">[bigint]</text>
<polygon fill="none" stroke="#000000" points="46,-472.5 46,-502.5 414,-502.5 414,-472.5 46,-472.5"/>
<text text-anchor="start" x="53" y="-483.9" font-family="Arial" font-size="14.00" fill="#000000">temporary_user_id </text>
<text text-anchor="start" x="173.5736" y="-483.9" font-family="Arial" font-size="14.00" fill="#666666">[bigint]</text>
<polygon fill="none" stroke="#000000" points="46,-442.5 46,-472.5 414,-472.5 414,-442.5 46,-442.5"/>
<text text-anchor="start" x="53" y="-453.9" font-family="Arial" font-size="14.00" fill="#000000">code </text>
<text text-anchor="start" x="87.2384" y="-453.9" font-family="Arial" font-size="14.00" fill="#666666">[varchar(255)]</text>
<polygon fill="none" stroke="#000000" points="46,-412.5 46,-442.5 414,-442.5 414,-412.5 46,-412.5"/>
<text text-anchor="start" x="53" y="-423.9" font-family="Arial" font-size="14.00" fill="#000000">created_at </text>
<text text-anchor="start" x="123.028" y="-423.9" font-family="Arial" font-size="14.00" fill="#666666">[timestamp without time zone]</text>
<polygon fill="none" stroke="#000000" points="46,-382.5 46,-412.5 414,-412.5 414,-382.5 46,-382.5"/>
<text text-anchor="start" x="53" y="-393.9" font-family="Arial" font-size="14.00" fill="#000000">expired_at </text>
<text text-anchor="start" x="122.244" y="-393.9" font-family="Arial" font-size="14.00" fill="#666666">[timestamp without time zone]</text>
<polygon fill="none" stroke="#000000" stroke-width="3" points="44.5,-381.5 44.5,-569.5 415.5,-569.5 415.5,-381.5 44.5,-381.5"/>
</g>
<!-- public.temporary_user -->
<g id="node2" class="node">
<title>public.temporary_user</title>
<polygon fill="#efefef" stroke="transparent" points="70,-222.5 70,-257.5 389,-257.5 389,-222.5 70,-222.5"/>
<polygon fill="none" stroke="#000000" points="70,-222.5 70,-257.5 389,-257.5 389,-222.5 70,-222.5"/>
<text text-anchor="start" x="76.7042" y="-235.3" font-family="Arial Bold" font-size="18.00" fill="#000000">public.temporary_user</text>
<text text-anchor="start" x="254.7278" y="-235.3" font-family="Arial" font-size="14.00" fill="#000000">    </text>
<text text-anchor="start" x="288.9326" y="-235.3" font-family="Arial" font-size="14.00" fill="#666666">[BASE TABLE]</text>
<polygon fill="none" stroke="#000000" points="70,-192.5 70,-222.5 389,-222.5 389,-192.5 70,-192.5"/>
<text text-anchor="start" x="77" y="-203.9" font-family="Arial" font-size="14.00" fill="#000000">temporary_user_id    </text>
<text text-anchor="start" x="227.8878" y="-203.9" font-family="Arial" font-size="14.00" fill="#666666">[bigint]</text>
<polygon fill="none" stroke="#000000" points="70,-162.5 70,-192.5 389,-192.5 389,-162.5 70,-162.5"/>
<text text-anchor="start" x="77" y="-173.9" font-family="Arial" font-size="14.00" fill="#000000">user_account_name    </text>
<text text-anchor="start" x="238.0252" y="-173.9" font-family="Arial" font-size="14.00" fill="#666666">[varchar(255)]</text>
<polygon fill="none" stroke="#000000" points="70,-132.5 70,-162.5 389,-162.5 389,-132.5 70,-132.5"/>
<text text-anchor="start" x="77" y="-143.9" font-family="Arial" font-size="14.00" fill="#000000">token    </text>
<text text-anchor="start" x="145.4432" y="-143.9" font-family="Arial" font-size="14.00" fill="#666666">[varchar(255)]</text>
<polygon fill="none" stroke="#000000" points="70,-102.5 70,-132.5 389,-132.5 389,-102.5 70,-102.5"/>
<text text-anchor="start" x="77" y="-113.9" font-family="Arial" font-size="14.00" fill="#000000">email    </text>
<text text-anchor="start" x="144.6438" y="-113.9" font-family="Arial" font-size="14.00" fill="#666666">[varchar(255)]</text>
<polygon fill="none" stroke="#000000" points="70,-72.5 70,-102.5 389,-102.5 389,-72.5 70,-72.5"/>
<text text-anchor="start" x="77" y="-83.9" font-family="Arial" font-size="14.00" fill="#000000">password    </text>
<text text-anchor="start" x="171.1024" y="-83.9" font-family="Arial" font-size="14.00" fill="#666666">[varchar(255)]</text>
<polygon fill="none" stroke="#000000" points="70,-42.5 70,-72.5 389,-72.5 389,-42.5 70,-42.5"/>
<text text-anchor="start" x="77" y="-53.9" font-family="Arial" font-size="14.00" fill="#000000">created_at    </text>
<text text-anchor="start" x="177.3422" y="-53.9" font-family="Arial" font-size="14.00" fill="#666666">[timestamp without time zone]</text>
</g>
<!-- public.temporary_user_code&#45;&gt;public.temporary_user -->
<g id="edge1" class="edge">
<title>public.temporary_user_code:temporary_user_id&#45;&gt;public.temporary_user:temporary_user_id</title>
<path fill="none" stroke="#000000" d="M35.8139,-486.6205C-18.401,-476.6283 3.6868,-383.9866 46,-337 97.2869,-280.0485 337.7131,-357.9515 389,-301 416.8084,-270.1202 430.5556,-207.5 389,-207.5"/>
<polygon fill="#000000" stroke="#000000" points="36.0371,-486.6397 45.6129,-491.9833 41.0185,-487.0698 46,-487.5 46,-487.5 46,-487.5 41.0185,-487.0698 46.3871,-483.0167 36.0371,-486.6397 36.0371,-486.6397"/>
</g>
</g>
</svg>
