<?xml version="1.0" encoding="UTF-8" standalone="no"?>
<!DOCTYPE svg PUBLIC "-//W3C//DTD SVG 1.1//EN"
 "http://www.w3.org/Graphics/SVG/1.1/DTD/svg11.dtd">
<!-- Generated by graphviz version 2.40.1 (20161225.0304)
 -->
<!-- Title: public.temporary_user Pages: 1 -->
<svg width="462pt" height="622pt"
 viewBox="0.00 0.00 462.00 622.00" xmlns="http://www.w3.org/2000/svg" xmlns:xlink="http://www.w3.org/1999/xlink">
<g id="graph0" class="graph" transform="scale(1 1) rotate(0) translate(4 618)">
<title>public.temporary_user</title>
<polygon fill="#ffffff" stroke="transparent" points="-4,4 -4,-618 458,-618 458,4 -4,4"/>
<!-- public.temporary_user -->
<g id="node1" class="node">
<title>public.temporary_user</title>
<polygon fill="#efefef" stroke="transparent" points="67,-225.5 67,-260.5 386,-260.5 386,-225.5 67,-225.5"/>
<polygon fill="none" stroke="#000000" points="67,-225.5 67,-260.5 386,-260.5 386,-225.5 67,-225.5"/>
<text text-anchor="start" x="73.7042" y="-238.3" font-family="Arial Bold" font-size="18.00" fill="#000000">public.temporary_user</text>
<text text-anchor="start" x="251.7278" y="-238.3" font-family="Arial" font-size="14.00" fill="#000000">    </text>
<text text-anchor="start" x="285.9326" y="-238.3" font-family="Arial" font-size="14.00" fill="#666666">[BASE TABLE]</text>
<polygon fill="none" stroke="#000000" points="67,-195.5 67,-225.5 386,-225.5 386,-195.5 67,-195.5"/>
<text text-anchor="start" x="74" y="-206.9" font-family="Arial" font-size="14.00" fill="#000000">temporary_user_id </text>
<text text-anchor="start" x="194.5736" y="-206.9" font-family="Arial" font-size="14.00" fill="#666666">[bigint]</text>
<polygon fill="none" stroke="#000000" points="67,-165.5 67,-195.5 386,-195.5 386,-165.5 67,-165.5"/>
<text text-anchor="start" x="74" y="-176.9" font-family="Arial" font-size="14.00" fill="#000000">user_account_name </text>
<text text-anchor="start" x="204.711" y="-176.9" font-family="Arial" font-size="14.00" fill="#666666">[varchar(255)]</text>
<polygon fill="none" stroke="#000000" points="67,-135.5 67,-165.5 386,-165.5 386,-135.5 67,-135.5"/>
<text text-anchor="start" x="74" y="-146.9" font-family="Arial" font-size="14.00" fill="#000000">token </text>
<text text-anchor="start" x="112.129" y="-146.9" font-family="Arial" font-size="14.00" fill="#666666">[varchar(255)]</text>
<polygon fill="none" stroke="#000000" points="67,-105.5 67,-135.5 386,-135.5 386,-105.5 67,-105.5"/>
<text text-anchor="start" x="74" y="-116.9" font-family="Arial" font-size="14.00" fill="#000000">email </text>
<text text-anchor="start" x="111.3296" y="-116.9" font-family="Arial" font-size="14.00" fill="#666666">[varchar(255)]</text>
<polygon fill="none" stroke="#000000" points="67,-75.5 67,-105.5 386,-105.5 386,-75.5 67,-75.5"/>
<text text-anchor="start" x="74" y="-86.9" font-family="Arial" font-size="14.00" fill="#000000">password </text>
<text text-anchor="start" x="137.7882" y="-86.9" font-family="Arial" font-size="14.00" fill="#666666">[varchar(255)]</text>
<polygon fill="none" stroke="#000000" points="67,-45.5 67,-75.5 386,-75.5 386,-45.5 67,-45.5"/>
<text text-anchor="start" x="74" y="-56.9" font-family="Arial" font-size="14.00" fill="#000000">created_at </text>
<text text-anchor="start" x="144.028" y="-56.9" font-family="Arial" font-size="14.00" fill="#666666">[timestamp without time zone]</text>
<polygon fill="none" stroke="#000000" stroke-width="3" points="65,-44.5 65,-262.5 387,-262.5 387,-44.5 65,-44.5"/>
</g>
<!-- public.temporary_user_code -->
<g id="node2" class="node">
<title>public.temporary_user_code</title>
<polygon fill="#efefef" stroke="transparent" points="43,-535.5 43,-570.5 411,-570.5 411,-535.5 43,-535.5"/>
<polygon fill="none" stroke="#000000" points="43,-535.5 43,-570.5 411,-570.5 411,-535.5 43,-535.5"/>
<text text-anchor="start" x="49.6918" y="-548.3" font-family="Arial Bold" font-size="18.00" fill="#000000">public.temporary_user_code</text>
<text text-anchor="start" x="276.7402" y="-548.3" font-family="Arial" font-size="14.00" fill="#000000">    </text>
<text text-anchor="start" x="310.945" y="-548.3" font-family="Arial" font-size="14.00" fill="#666666">[BASE TABLE]</text>
<polygon fill="none" stroke="#000000" points="43,-505.5 43,-535.5 411,-535.5 411,-505.5 43,-505.5"/>
<text text-anchor="start" x="50" y="-516.9" font-family="Arial" font-size="14.00" fill="#000000">temporary_user_code_id    </text>
<text text-anchor="start" x="239.0182" y="-516.9" font-family="Arial" font-size="14.00" fill="#666666">[bigint]</text>
<polygon fill="none" stroke="#000000" points="43,-475.5 43,-505.5 411,-505.5 411,-475.5 43,-475.5"/>
<text text-anchor="start" x="50" y="-486.9" font-family="Arial" font-size="14.00" fill="#000000">temporary_user_id    </text>
<text text-anchor="start" x="200.8878" y="-486.9" font-family="Arial" font-size="14.00" fill="#666666">[bigint]</text>
<polygon fill="none" stroke="#000000" points="43,-445.5 43,-475.5 411,-475.5 411,-445.5 43,-445.5"/>
<text text-anchor="start" x="50" y="-456.9" font-family="Arial" font-size="14.00" fill="#000000">code    </text>
<text text-anchor="start" x="114.5526" y="-456.9" font-family="Arial" font-size="14.00" fill="#666666">[varchar(255)]</text>
<polygon fill="none" stroke="#000000" points="43,-415.5 43,-445.5 411,-445.5 411,-415.5 43,-415.5"/>
<text text-anchor="start" x="50" y="-426.9" font-family="Arial" font-size="14.00" fill="#000000">created_at    </text>
<text text-anchor="start" x="150.3422" y="-426.9" font-family="Arial" font-size="14.00" fill="#666666">[timestamp without time zone]</text>
<polygon fill="none" stroke="#000000" points="43,-385.5 43,-415.5 411,-415.5 411,-385.5 43,-385.5"/>
<text text-anchor="start" x="50" y="-396.9" font-family="Arial" font-size="14.00" fill="#000000">expired_at    </text>
<text text-anchor="start" x="149.5582" y="-396.9" font-family="Arial" font-size="14.00" fill="#666666">[timestamp without time zone]</text>
</g>
<!-- public.temporary_user_code&#45;&gt;public.temporary_user -->
<g id="edge1" class="edge">
<title>public.temporary_user_code:temporary_user_id&#45;&gt;public.temporary_user:temporary_user_id</title>
<path fill="none" stroke="#000000" d="M33.0169,-489.638C-20.1172,-479.845 1.5303,-389.05 43,-343 94.2869,-286.0485 334.7131,-363.9515 386,-307 414.7006,-275.1294 428.8889,-210.5 386,-210.5"/>
<polygon fill="#000000" stroke="#000000" points="33.0371,-489.6397 42.6129,-494.9833 38.0185,-490.0698 43,-490.5 43,-490.5 43,-490.5 38.0185,-490.0698 43.3871,-486.0167 33.0371,-489.6397 33.0371,-489.6397"/>
</g>
</g>
</svg>
