<?xml version="1.0" encoding="UTF-8" standalone="no"?>
<!DOCTYPE svg PUBLIC "-//W3C//DTD SVG 1.1//EN"
 "http://www.w3.org/Graphics/SVG/1.1/DTD/svg11.dtd">
<!-- Generated by graphviz version 2.40.1 (20161225.0304)
 -->
<!-- Title: public.user_account Pages: 1 -->
<svg width="2161pt" height="1049pt"
 viewBox="0.00 0.00 2160.50 1049.00" xmlns="http://www.w3.org/2000/svg" xmlns:xlink="http://www.w3.org/1999/xlink">
<g id="graph0" class="graph" transform="scale(1 1) rotate(0) translate(4 1045)">
<title>public.user_account</title>
<polygon fill="#ffffff" stroke="transparent" points="-4,4 -4,-1045 2156.5,-1045 2156.5,4 -4,4"/>
<!-- public.user_account -->
<g id="node1" class="node">
<title>public.user_account</title>
<polygon fill="#efefef" stroke="transparent" points="984.5,-562.5 984.5,-597.5 1285.5,-597.5 1285.5,-562.5 984.5,-562.5"/>
<polygon fill="none" stroke="#000000" points="984.5,-562.5 984.5,-597.5 1285.5,-597.5 1285.5,-562.5 984.5,-562.5"/>
<text text-anchor="start" x="991.1925" y="-575.3" font-family="Arial Bold" font-size="18.00" fill="#000000">public.user_account</text>
<text text-anchor="start" x="1151.2395" y="-575.3" font-family="Arial" font-size="14.00" fill="#000000">    </text>
<text text-anchor="start" x="1185.4443" y="-575.3" font-family="Arial" font-size="14.00" fill="#666666">[BASE TABLE]</text>
<polygon fill="none" stroke="#000000" points="984.5,-532.5 984.5,-562.5 1285.5,-562.5 1285.5,-532.5 984.5,-532.5"/>
<text text-anchor="start" x="991.5" y="-543.9" font-family="Arial" font-size="14.00" fill="#000000">user_account_id </text>
<text text-anchor="start" x="1098.0918" y="-543.9" font-family="Arial" font-size="14.00" fill="#666666">[bigint]</text>
<polygon fill="none" stroke="#000000" points="984.5,-502.5 984.5,-532.5 1285.5,-532.5 1285.5,-502.5 984.5,-502.5"/>
<text text-anchor="start" x="991.5" y="-513.9" font-family="Arial" font-size="14.00" fill="#000000">user_id </text>
<text text-anchor="start" x="1041.2882" y="-513.9" font-family="Arial" font-size="14.00" fill="#666666">[bigint]</text>
<polygon fill="none" stroke="#000000" points="984.5,-472.5 984.5,-502.5 1285.5,-502.5 1285.5,-472.5 984.5,-472.5"/>
<text text-anchor="start" x="991.5" y="-483.9" font-family="Arial" font-size="14.00" fill="#000000">user_account_name </text>
<text text-anchor="start" x="1122.211" y="-483.9" font-family="Arial" font-size="14.00" fill="#666666">[varchar(255)]</text>
<polygon fill="none" stroke="#000000" points="984.5,-442.5 984.5,-472.5 1285.5,-472.5 1285.5,-442.5 984.5,-442.5"/>
<text text-anchor="start" x="991.5" y="-453.9" font-family="Arial" font-size="14.00" fill="#000000">display_name </text>
<text text-anchor="start" x="1081.7426" y="-453.9" font-family="Arial" font-size="14.00" fill="#666666">[varchar(255)]</text>
<polygon fill="none" stroke="#000000" points="984.5,-412.5 984.5,-442.5 1285.5,-442.5 1285.5,-412.5 984.5,-412.5"/>
<text text-anchor="start" x="991.5" y="-423.9" font-family="Arial" font-size="14.00" fill="#000000">created_at </text>
<text text-anchor="start" x="1061.528" y="-423.9" font-family="Arial" font-size="14.00" fill="#666666">[timestamp without time zone]</text>
<polygon fill="none" stroke="#000000" points="984.5,-382.5 984.5,-412.5 1285.5,-412.5 1285.5,-382.5 984.5,-382.5"/>
<text text-anchor="start" x="991.5" y="-393.9" font-family="Arial" font-size="14.00" fill="#000000">updated_at </text>
<text text-anchor="start" x="1065.4326" y="-393.9" font-family="Arial" font-size="14.00" fill="#666666">[timestamp without time zone]</text>
<polygon fill="none" stroke="#000000" points="984.5,-352.5 984.5,-382.5 1285.5,-382.5 1285.5,-352.5 984.5,-352.5"/>
<text text-anchor="start" x="991.5" y="-363.9" font-family="Arial" font-size="14.00" fill="#000000">is_deleted </text>
<text text-anchor="start" x="1059.19" y="-363.9" font-family="Arial" font-size="14.00" fill="#666666">[boolean]</text>
<polygon fill="none" stroke="#000000" stroke-width="3" points="982.5,-351.5 982.5,-599.5 1286.5,-599.5 1286.5,-351.5 982.5,-351.5"/>
</g>
<!-- public.user -->
<g id="node7" class="node">
<title>public.user</title>
<polygon fill="#efefef" stroke="transparent" points="983.5,-192.5 983.5,-227.5 1286.5,-227.5 1286.5,-192.5 983.5,-192.5"/>
<polygon fill="none" stroke="#000000" points="983.5,-192.5 983.5,-227.5 1286.5,-227.5 1286.5,-192.5 983.5,-192.5"/>
<text text-anchor="start" x="1027.7091" y="-205.3" font-family="Arial Bold" font-size="18.00" fill="#000000">public.user</text>
<text text-anchor="start" x="1114.7229" y="-205.3" font-family="Arial" font-size="14.00" fill="#000000">    </text>
<text text-anchor="start" x="1148.9277" y="-205.3" font-family="Arial" font-size="14.00" fill="#666666">[BASE TABLE]</text>
<polygon fill="none" stroke="#000000" points="983.5,-162.5 983.5,-192.5 1286.5,-192.5 1286.5,-162.5 983.5,-162.5"/>
<text text-anchor="start" x="990.5" y="-173.9" font-family="Arial" font-size="14.00" fill="#000000">user_id    </text>
<text text-anchor="start" x="1070.6024" y="-173.9" font-family="Arial" font-size="14.00" fill="#666666">[bigint]</text>
<polygon fill="none" stroke="#000000" points="983.5,-132.5 983.5,-162.5 1286.5,-162.5 1286.5,-132.5 983.5,-132.5"/>
<text text-anchor="start" x="990.5" y="-143.9" font-family="Arial" font-size="14.00" fill="#000000">email    </text>
<text text-anchor="start" x="1058.1438" y="-143.9" font-family="Arial" font-size="14.00" fill="#666666">[varchar(255)]</text>
<polygon fill="none" stroke="#000000" points="983.5,-102.5 983.5,-132.5 1286.5,-132.5 1286.5,-102.5 983.5,-102.5"/>
<text text-anchor="start" x="990.5" y="-113.9" font-family="Arial" font-size="14.00" fill="#000000">created_at    </text>
<text text-anchor="start" x="1090.8422" y="-113.9" font-family="Arial" font-size="14.00" fill="#666666">[timestamp without time zone]</text>
<polygon fill="none" stroke="#000000" points="983.5,-72.5 983.5,-102.5 1286.5,-102.5 1286.5,-72.5 983.5,-72.5"/>
<text text-anchor="start" x="990.3065" y="-83.9" font-family="Arial" font-size="14.00" fill="#000000">updated_at    </text>
<text text-anchor="start" x="1094.5533" y="-83.9" font-family="Arial" font-size="14.00" fill="#666666">[timestamp without time zone]</text>
<polygon fill="none" stroke="#000000" points="983.5,-42.5 983.5,-72.5 1286.5,-72.5 1286.5,-42.5 983.5,-42.5"/>
<text text-anchor="start" x="990.5" y="-53.9" font-family="Arial" font-size="14.00" fill="#000000">is_deleted    </text>
<text text-anchor="start" x="1088.5042" y="-53.9" font-family="Arial" font-size="14.00" fill="#666666">[boolean]</text>
</g>
<!-- public.user_account&#45;&gt;public.user -->
<g id="edge6" class="edge">
<title>public.user_account:user_id&#45;&gt;public.user:user_id</title>
<path fill="none" stroke="#000000" d="M974.1224,-516.9485C833.4249,-501.7493 835.9299,-177.5 983.5,-177.5"/>
<polygon fill="#000000" stroke="#000000" points="974.5141,-516.9692 984.2611,-521.9937 979.507,-517.2346 984.5,-517.5 984.5,-517.5 984.5,-517.5 979.507,-517.2346 984.7389,-513.0063 974.5141,-516.9692 974.5141,-516.9692"/>
</g>
<!-- public.organization_member -->
<g id="node2" class="node">
<title>public.organization_member</title>
<polygon fill="#efefef" stroke="transparent" points="43.5,-902.5 43.5,-937.5 410.5,-937.5 410.5,-902.5 43.5,-902.5"/>
<polygon fill="none" stroke="#000000" points="43.5,-902.5 43.5,-937.5 410.5,-937.5 410.5,-902.5 43.5,-902.5"/>
<text text-anchor="start" x="50.1976" y="-915.3" font-family="Arial Bold" font-size="18.00" fill="#000000">public.organization_member</text>
<text text-anchor="start" x="276.2344" y="-915.3" font-family="Arial" font-size="14.00" fill="#000000">    </text>
<text text-anchor="start" x="310.4392" y="-915.3" font-family="Arial" font-size="14.00" fill="#666666">[BASE TABLE]</text>
<polygon fill="none" stroke="#000000" points="43.5,-872.5 43.5,-902.5 410.5,-902.5 410.5,-872.5 43.5,-872.5"/>
<text text-anchor="start" x="50.5" y="-883.9" font-family="Arial" font-size="14.00" fill="#000000">organization_member_id    </text>
<text text-anchor="start" x="238.7314" y="-883.9" font-family="Arial" font-size="14.00" fill="#666666">[bigint]</text>
<polygon fill="none" stroke="#000000" points="43.5,-842.5 43.5,-872.5 410.5,-872.5 410.5,-842.5 43.5,-842.5"/>
<text text-anchor="start" x="50.5" y="-853.9" font-family="Arial" font-size="14.00" fill="#000000">organization_id    </text>
<text text-anchor="start" x="179.6192" y="-853.9" font-family="Arial" font-size="14.00" fill="#666666">[bigint]</text>
<polygon fill="none" stroke="#000000" points="43.5,-812.5 43.5,-842.5 410.5,-842.5 410.5,-812.5 43.5,-812.5"/>
<text text-anchor="start" x="50.5" y="-823.9" font-family="Arial" font-size="14.00" fill="#000000">user_account_id    </text>
<text text-anchor="start" x="187.406" y="-823.9" font-family="Arial" font-size="14.00" fill="#666666">[bigint]</text>
<polygon fill="none" stroke="#000000" points="43.5,-782.5 43.5,-812.5 410.5,-812.5 410.5,-782.5 43.5,-782.5"/>
<text text-anchor="start" x="50.5" y="-793.9" font-family="Arial" font-size="14.00" fill="#000000">organization_member_authority_id    </text>
<text text-anchor="start" x="300.1928" y="-793.9" font-family="Arial" font-size="14.00" fill="#666666">[bigint]</text>
</g>
<!-- public.organization_member&#45;&gt;public.user_account -->
<g id="edge1" class="edge">
<title>public.organization_member:user_account_id&#45;&gt;public.user_account:user_account_id</title>
<path fill="none" stroke="#000000" d="M420.677,-826.6228C472.6285,-816.6601 413.2119,-724.359 461.5,-680 549.794,-598.8905 864.606,-547.5 984.5,-547.5"/>
<polygon fill="#000000" stroke="#000000" points="420.4631,-826.6412 410.1135,-823.0166 415.4815,-827.0706 410.5,-827.5 410.5,-827.5 410.5,-827.5 415.4815,-827.0706 410.8865,-831.9834 420.4631,-826.6412 420.4631,-826.6412"/>
</g>
<!-- public.workspace_member -->
<g id="node3" class="node">
<title>public.workspace_member</title>
<polygon fill="#efefef" stroke="transparent" points="514.5,-902.5 514.5,-937.5 869.5,-937.5 869.5,-902.5 514.5,-902.5"/>
<polygon fill="none" stroke="#000000" points="514.5,-902.5 514.5,-937.5 869.5,-937.5 869.5,-902.5 514.5,-902.5"/>
<text text-anchor="start" x="521.2051" y="-915.3" font-family="Arial Bold" font-size="18.00" fill="#000000">public.workspace_member</text>
<text text-anchor="start" x="735.2269" y="-915.3" font-family="Arial" font-size="14.00" fill="#000000">    </text>
<text text-anchor="start" x="769.4317" y="-915.3" font-family="Arial" font-size="14.00" fill="#666666">[BASE TABLE]</text>
<polygon fill="none" stroke="#000000" points="514.5,-872.5 514.5,-902.5 869.5,-902.5 869.5,-872.5 514.5,-872.5"/>
<text text-anchor="start" x="521.5" y="-883.9" font-family="Arial" font-size="14.00" fill="#000000">workspace_member_id    </text>
<text text-anchor="start" x="700.3864" y="-883.9" font-family="Arial" font-size="14.00" fill="#666666">[bigint]</text>
<polygon fill="none" stroke="#000000" points="514.5,-842.5 514.5,-872.5 869.5,-872.5 869.5,-842.5 514.5,-842.5"/>
<text text-anchor="start" x="521.5" y="-853.9" font-family="Arial" font-size="14.00" fill="#000000">workspace_id    </text>
<text text-anchor="start" x="641.2742" y="-853.9" font-family="Arial" font-size="14.00" fill="#666666">[bigint]</text>
<polygon fill="none" stroke="#000000" points="514.5,-812.5 514.5,-842.5 869.5,-842.5 869.5,-812.5 514.5,-812.5"/>
<text text-anchor="start" x="521.5" y="-823.9" font-family="Arial" font-size="14.00" fill="#000000">user_account_id    </text>
<text text-anchor="start" x="658.406" y="-823.9" font-family="Arial" font-size="14.00" fill="#666666">[bigint]</text>
<polygon fill="none" stroke="#000000" points="514.5,-782.5 514.5,-812.5 869.5,-812.5 869.5,-782.5 514.5,-782.5"/>
<text text-anchor="start" x="521.5" y="-793.9" font-family="Arial" font-size="14.00" fill="#000000">workspace_member_authority_id    </text>
<text text-anchor="start" x="761.8478" y="-793.9" font-family="Arial" font-size="14.00" fill="#666666">[bigint]</text>
</g>
<!-- public.workspace_member&#45;&gt;public.user_account -->
<g id="edge2" class="edge">
<title>public.workspace_member:user_account_id&#45;&gt;public.user_account:user_account_id</title>
<path fill="none" stroke="#000000" d="M879.5481,-826.8194C934.334,-818.7593 895.4324,-740.736 920.5,-680 945.4505,-619.5479 919.1013,-547.5 984.5,-547.5"/>
<polygon fill="#000000" stroke="#000000" points="879.4771,-826.8241 869.1959,-823.0103 874.4886,-827.1621 869.5,-827.5 869.5,-827.5 869.5,-827.5 874.4886,-827.1621 869.8041,-831.9897 879.4771,-826.8241 879.4771,-826.8241"/>
</g>
<!-- public.project_member -->
<g id="node4" class="node">
<title>public.project_member</title>
<polygon fill="#efefef" stroke="transparent" points="973.5,-902.5 973.5,-937.5 1296.5,-937.5 1296.5,-902.5 973.5,-902.5"/>
<polygon fill="none" stroke="#000000" points="973.5,-902.5 973.5,-937.5 1296.5,-937.5 1296.5,-902.5 973.5,-902.5"/>
<text text-anchor="start" x="980.2071" y="-915.3" font-family="Arial Bold" font-size="18.00" fill="#000000">public.project_member</text>
<text text-anchor="start" x="1162.2249" y="-915.3" font-family="Arial" font-size="14.00" fill="#000000">    </text>
<text text-anchor="start" x="1196.4297" y="-915.3" font-family="Arial" font-size="14.00" fill="#666666">[BASE TABLE]</text>
<polygon fill="none" stroke="#000000" points="973.5,-872.5 973.5,-902.5 1296.5,-902.5 1296.5,-872.5 973.5,-872.5"/>
<text text-anchor="start" x="980.5" y="-883.9" font-family="Arial" font-size="14.00" fill="#000000">project_member_id    </text>
<text text-anchor="start" x="1134.4944" y="-883.9" font-family="Arial" font-size="14.00" fill="#666666">[bigint]</text>
<polygon fill="none" stroke="#000000" points="973.5,-842.5 973.5,-872.5 1296.5,-872.5 1296.5,-842.5 973.5,-842.5"/>
<text text-anchor="start" x="980.5" y="-853.9" font-family="Arial" font-size="14.00" fill="#000000">project_id    </text>
<text text-anchor="start" x="1075.3822" y="-853.9" font-family="Arial" font-size="14.00" fill="#666666">[bigint]</text>
<polygon fill="none" stroke="#000000" points="973.5,-812.5 973.5,-842.5 1296.5,-842.5 1296.5,-812.5 973.5,-812.5"/>
<text text-anchor="start" x="980.5" y="-823.9" font-family="Arial" font-size="14.00" fill="#000000">user_account_id    </text>
<text text-anchor="start" x="1117.406" y="-823.9" font-family="Arial" font-size="14.00" fill="#666666">[bigint]</text>
<polygon fill="none" stroke="#000000" points="973.5,-782.5 973.5,-812.5 1296.5,-812.5 1296.5,-782.5 973.5,-782.5"/>
<text text-anchor="start" x="980.5" y="-793.9" font-family="Arial" font-size="14.00" fill="#000000">project_member_authority_id    </text>
<text text-anchor="start" x="1195.9558" y="-793.9" font-family="Arial" font-size="14.00" fill="#666666">[bigint]</text>
</g>
<!-- public.project_member&#45;&gt;public.user_account -->
<g id="edge3" class="edge">
<title>public.project_member:user_account_id&#45;&gt;public.user_account:user_account_id</title>
<path fill="none" stroke="#000000" d="M963.6201,-824.9069C912.6404,-796.6795 925.7568,-547.5 984.5,-547.5"/>
<polygon fill="#000000" stroke="#000000" points="963.8276,-824.9613 972.3576,-831.8526 968.6638,-826.2306 973.5,-827.5 973.5,-827.5 973.5,-827.5 968.6638,-826.2306 974.6424,-823.1474 963.8276,-824.9613 963.8276,-824.9613"/>
</g>
<!-- public.task -->
<g id="node5" class="node">
<title>public.task</title>
<polygon fill="#efefef" stroke="transparent" points="1400.5,-962.5 1400.5,-997.5 1703.5,-997.5 1703.5,-962.5 1400.5,-962.5"/>
<polygon fill="none" stroke="#000000" points="1400.5,-962.5 1400.5,-997.5 1703.5,-997.5 1703.5,-962.5 1400.5,-962.5"/>
<text text-anchor="start" x="1445.7072" y="-975.3" font-family="Arial Bold" font-size="18.00" fill="#000000">public.task</text>
<text text-anchor="start" x="1530.7248" y="-975.3" font-family="Arial" font-size="14.00" fill="#000000">    </text>
<text text-anchor="start" x="1564.9296" y="-975.3" font-family="Arial" font-size="14.00" fill="#666666">[BASE TABLE]</text>
<polygon fill="none" stroke="#000000" points="1400.5,-932.5 1400.5,-962.5 1703.5,-962.5 1703.5,-932.5 1400.5,-932.5"/>
<text text-anchor="start" x="1407.5" y="-943.9" font-family="Arial" font-size="14.00" fill="#000000">task_id    </text>
<text text-anchor="start" x="1486.0498" y="-943.9" font-family="Arial" font-size="14.00" fill="#666666">[bigint]</text>
<polygon fill="none" stroke="#000000" points="1400.5,-902.5 1400.5,-932.5 1703.5,-932.5 1703.5,-902.5 1400.5,-902.5"/>
<text text-anchor="start" x="1407.5" y="-913.9" font-family="Arial" font-size="14.00" fill="#000000">project_id    </text>
<text text-anchor="start" x="1502.3822" y="-913.9" font-family="Arial" font-size="14.00" fill="#666666">[bigint]</text>
<polygon fill="none" stroke="#000000" points="1400.5,-872.5 1400.5,-902.5 1703.5,-902.5 1703.5,-872.5 1400.5,-872.5"/>
<text text-anchor="start" x="1407.5" y="-883.9" font-family="Arial" font-size="14.00" fill="#000000">owner_user_account_id    </text>
<text text-anchor="start" x="1590.3036" y="-883.9" font-family="Arial" font-size="14.00" fill="#666666">[bigint]</text>
<polygon fill="none" stroke="#000000" points="1400.5,-842.5 1400.5,-872.5 1703.5,-872.5 1703.5,-842.5 1400.5,-842.5"/>
<text text-anchor="start" x="1407.5" y="-853.9" font-family="Arial" font-size="14.00" fill="#000000">title    </text>
<text text-anchor="start" x="1463.4818" y="-853.9" font-family="Arial" font-size="14.00" fill="#666666">[varchar(255)]</text>
<polygon fill="none" stroke="#000000" points="1400.5,-812.5 1400.5,-842.5 1703.5,-842.5 1703.5,-812.5 1400.5,-812.5"/>
<text text-anchor="start" x="1407.5" y="-823.9" font-family="Arial" font-size="14.00" fill="#000000">content    </text>
<text text-anchor="start" x="1487.6164" y="-823.9" font-family="Arial" font-size="14.00" fill="#666666">[text]</text>
<polygon fill="none" stroke="#000000" points="1400.5,-782.5 1400.5,-812.5 1703.5,-812.5 1703.5,-782.5 1400.5,-782.5"/>
<text text-anchor="start" x="1407.5" y="-793.9" font-family="Arial" font-size="14.00" fill="#000000">created_at    </text>
<text text-anchor="start" x="1507.8422" y="-793.9" font-family="Arial" font-size="14.00" fill="#666666">[timestamp without time zone]</text>
<polygon fill="none" stroke="#000000" points="1400.5,-752.5 1400.5,-782.5 1703.5,-782.5 1703.5,-752.5 1400.5,-752.5"/>
<text text-anchor="start" x="1407.3065" y="-763.9" font-family="Arial" font-size="14.00" fill="#000000">updated_at    </text>
<text text-anchor="start" x="1511.5533" y="-763.9" font-family="Arial" font-size="14.00" fill="#666666">[timestamp without time zone]</text>
<polygon fill="none" stroke="#000000" points="1400.5,-722.5 1400.5,-752.5 1703.5,-752.5 1703.5,-722.5 1400.5,-722.5"/>
<text text-anchor="start" x="1407.5" y="-733.9" font-family="Arial" font-size="14.00" fill="#000000">is_deleted    </text>
<text text-anchor="start" x="1505.5042" y="-733.9" font-family="Arial" font-size="14.00" fill="#666666">[boolean]</text>
</g>
<!-- public.task&#45;&gt;public.user_account -->
<g id="edge4" class="edge">
<title>public.task:owner_user_account_id&#45;&gt;public.user_account:user_account_id</title>
<path fill="none" stroke="#000000" d="M1390.1214,-886.9685C1311.1372,-878.3234 1379.371,-765.9864 1348.5,-680 1326.4664,-618.6288 1350.7066,-547.5 1285.5,-547.5"/>
<polygon fill="#000000" stroke="#000000" points="1390.5131,-886.9885 1400.2698,-891.9941 1395.5065,-887.2442 1400.5,-887.5 1400.5,-887.5 1400.5,-887.5 1395.5065,-887.2442 1400.7302,-883.0059 1390.5131,-886.9885 1390.5131,-886.9885"/>
</g>
<!-- public.task_member -->
<g id="node6" class="node">
<title>public.task_member</title>
<polygon fill="#efefef" stroke="transparent" points="1807.5,-887.5 1807.5,-922.5 2109.5,-922.5 2109.5,-887.5 1807.5,-887.5"/>
<polygon fill="none" stroke="#000000" points="1807.5,-887.5 1807.5,-922.5 2109.5,-922.5 2109.5,-887.5 1807.5,-887.5"/>
<text text-anchor="start" x="1814.2065" y="-900.3" font-family="Arial Bold" font-size="18.00" fill="#000000">public.task_member</text>
<text text-anchor="start" x="1975.2255" y="-900.3" font-family="Arial" font-size="14.00" fill="#000000">    </text>
<text text-anchor="start" x="2009.4303" y="-900.3" font-family="Arial" font-size="14.00" fill="#666666">[BASE TABLE]</text>
<polygon fill="none" stroke="#000000" points="1807.5,-857.5 1807.5,-887.5 2109.5,-887.5 2109.5,-857.5 1807.5,-857.5"/>
<text text-anchor="start" x="1814.5" y="-868.9" font-family="Arial" font-size="14.00" fill="#000000">task_member_id    </text>
<text text-anchor="start" x="1952.162" y="-868.9" font-family="Arial" font-size="14.00" fill="#666666">[bigint]</text>
<polygon fill="none" stroke="#000000" points="1807.5,-827.5 1807.5,-857.5 2109.5,-857.5 2109.5,-827.5 1807.5,-827.5"/>
<text text-anchor="start" x="1814.5" y="-838.9" font-family="Arial" font-size="14.00" fill="#000000">task_id    </text>
<text text-anchor="start" x="1893.0498" y="-838.9" font-family="Arial" font-size="14.00" fill="#666666">[bigint]</text>
<polygon fill="none" stroke="#000000" points="1807.5,-797.5 1807.5,-827.5 2109.5,-827.5 2109.5,-797.5 1807.5,-797.5"/>
<text text-anchor="start" x="1814.5" y="-808.9" font-family="Arial" font-size="14.00" fill="#000000">user_account_id    </text>
<text text-anchor="start" x="1951.406" y="-808.9" font-family="Arial" font-size="14.00" fill="#666666">[bigint]</text>
</g>
<!-- public.task_member&#45;&gt;public.user_account -->
<g id="edge5" class="edge">
<title>public.task_member:user_account_id&#45;&gt;public.user_account:user_account_id</title>
<path fill="none" stroke="#000000" d="M1797.2942,-811.5403C1750.8958,-801.7711 1799.5561,-719.889 1755.5,-680 1675.058,-607.1667 1394.0155,-547.5 1285.5,-547.5"/>
<polygon fill="#000000" stroke="#000000" points="1797.5439,-811.5637 1807.0787,-816.9802 1802.522,-812.0318 1807.5,-812.5 1807.5,-812.5 1807.5,-812.5 1802.522,-812.0318 1807.9213,-808.0198 1797.5439,-811.5637 1797.5439,-811.5637"/>
</g>
</g>
</svg>
