<?xml version="1.0" encoding="UTF-8" standalone="no"?>
<!DOCTYPE svg PUBLIC "-//W3C//DTD SVG 1.1//EN"
 "http://www.w3.org/Graphics/SVG/1.1/DTD/svg11.dtd">
<!-- Generated by graphviz version 2.40.1 (20161225.0304)
 -->
<!-- Title: public.user_account Pages: 1 -->
<svg width="1754pt" height="1049pt"
 viewBox="0.00 0.00 1754.00 1049.00" xmlns="http://www.w3.org/2000/svg" xmlns:xlink="http://www.w3.org/1999/xlink">
<g id="graph0" class="graph" transform="scale(1 1) rotate(0) translate(4 1045)">
<title>public.user_account</title>
<polygon fill="#ffffff" stroke="transparent" points="-4,4 -4,-1045 1750,-1045 1750,4 -4,4"/>
<!-- public.user_account -->
<g id="node1" class="node">
<title>public.user_account</title>
<polygon fill="#efefef" stroke="transparent" points="762.5,-562.5 762.5,-597.5 1063.5,-597.5 1063.5,-562.5 762.5,-562.5"/>
<polygon fill="none" stroke="#000000" points="762.5,-562.5 762.5,-597.5 1063.5,-597.5 1063.5,-562.5 762.5,-562.5"/>
<text text-anchor="start" x="769.1925" y="-575.3" font-family="Arial Bold" font-size="18.00" fill="#000000">public.user_account</text>
<text text-anchor="start" x="929.2395" y="-575.3" font-family="Arial" font-size="14.00" fill="#000000">    </text>
<text text-anchor="start" x="963.4443" y="-575.3" font-family="Arial" font-size="14.00" fill="#666666">[BASE TABLE]</text>
<polygon fill="none" stroke="#000000" points="762.5,-532.5 762.5,-562.5 1063.5,-562.5 1063.5,-532.5 762.5,-532.5"/>
<text text-anchor="start" x="769.5" y="-543.9" font-family="Arial" font-size="14.00" fill="#000000">user_account_id </text>
<text text-anchor="start" x="876.0918" y="-543.9" font-family="Arial" font-size="14.00" fill="#666666">[bigint]</text>
<polygon fill="none" stroke="#000000" points="762.5,-502.5 762.5,-532.5 1063.5,-532.5 1063.5,-502.5 762.5,-502.5"/>
<text text-anchor="start" x="769.5" y="-513.9" font-family="Arial" font-size="14.00" fill="#000000">user_id </text>
<text text-anchor="start" x="819.2882" y="-513.9" font-family="Arial" font-size="14.00" fill="#666666">[bigint]</text>
<polygon fill="none" stroke="#000000" points="762.5,-472.5 762.5,-502.5 1063.5,-502.5 1063.5,-472.5 762.5,-472.5"/>
<text text-anchor="start" x="769.5" y="-483.9" font-family="Arial" font-size="14.00" fill="#000000">user_account_name </text>
<text text-anchor="start" x="900.211" y="-483.9" font-family="Arial" font-size="14.00" fill="#666666">[varchar(255)]</text>
<polygon fill="none" stroke="#000000" points="762.5,-442.5 762.5,-472.5 1063.5,-472.5 1063.5,-442.5 762.5,-442.5"/>
<text text-anchor="start" x="769.5" y="-453.9" font-family="Arial" font-size="14.00" fill="#000000">display_name </text>
<text text-anchor="start" x="859.7426" y="-453.9" font-family="Arial" font-size="14.00" fill="#666666">[varchar(255)]</text>
<polygon fill="none" stroke="#000000" points="762.5,-412.5 762.5,-442.5 1063.5,-442.5 1063.5,-412.5 762.5,-412.5"/>
<text text-anchor="start" x="769.5" y="-423.9" font-family="Arial" font-size="14.00" fill="#000000">created_at </text>
<text text-anchor="start" x="839.528" y="-423.9" font-family="Arial" font-size="14.00" fill="#666666">[timestamp without time zone]</text>
<polygon fill="none" stroke="#000000" points="762.5,-382.5 762.5,-412.5 1063.5,-412.5 1063.5,-382.5 762.5,-382.5"/>
<text text-anchor="start" x="769.5" y="-393.9" font-family="Arial" font-size="14.00" fill="#000000">updated_at </text>
<text text-anchor="start" x="843.4326" y="-393.9" font-family="Arial" font-size="14.00" fill="#666666">[timestamp without time zone]</text>
<polygon fill="none" stroke="#000000" points="762.5,-352.5 762.5,-382.5 1063.5,-382.5 1063.5,-352.5 762.5,-352.5"/>
<text text-anchor="start" x="769.5" y="-363.9" font-family="Arial" font-size="14.00" fill="#000000">is_deleted </text>
<text text-anchor="start" x="837.19" y="-363.9" font-family="Arial" font-size="14.00" fill="#666666">[boolean]</text>
<polygon fill="none" stroke="#000000" stroke-width="3" points="760.5,-351.5 760.5,-599.5 1064.5,-599.5 1064.5,-351.5 760.5,-351.5"/>
</g>
<!-- public.user -->
<g id="node6" class="node">
<title>public.user</title>
<polygon fill="#efefef" stroke="transparent" points="761.5,-192.5 761.5,-227.5 1064.5,-227.5 1064.5,-192.5 761.5,-192.5"/>
<polygon fill="none" stroke="#000000" points="761.5,-192.5 761.5,-227.5 1064.5,-227.5 1064.5,-192.5 761.5,-192.5"/>
<text text-anchor="start" x="805.7091" y="-205.3" font-family="Arial Bold" font-size="18.00" fill="#000000">public.user</text>
<text text-anchor="start" x="892.7229" y="-205.3" font-family="Arial" font-size="14.00" fill="#000000">    </text>
<text text-anchor="start" x="926.9277" y="-205.3" font-family="Arial" font-size="14.00" fill="#666666">[BASE TABLE]</text>
<polygon fill="none" stroke="#000000" points="761.5,-162.5 761.5,-192.5 1064.5,-192.5 1064.5,-162.5 761.5,-162.5"/>
<text text-anchor="start" x="768.5" y="-173.9" font-family="Arial" font-size="14.00" fill="#000000">user_id    </text>
<text text-anchor="start" x="848.6024" y="-173.9" font-family="Arial" font-size="14.00" fill="#666666">[bigint]</text>
<polygon fill="none" stroke="#000000" points="761.5,-132.5 761.5,-162.5 1064.5,-162.5 1064.5,-132.5 761.5,-132.5"/>
<text text-anchor="start" x="768.5" y="-143.9" font-family="Arial" font-size="14.00" fill="#000000">email    </text>
<text text-anchor="start" x="836.1438" y="-143.9" font-family="Arial" font-size="14.00" fill="#666666">[varchar(255)]</text>
<polygon fill="none" stroke="#000000" points="761.5,-102.5 761.5,-132.5 1064.5,-132.5 1064.5,-102.5 761.5,-102.5"/>
<text text-anchor="start" x="768.5" y="-113.9" font-family="Arial" font-size="14.00" fill="#000000">created_at    </text>
<text text-anchor="start" x="868.8422" y="-113.9" font-family="Arial" font-size="14.00" fill="#666666">[timestamp without time zone]</text>
<polygon fill="none" stroke="#000000" points="761.5,-72.5 761.5,-102.5 1064.5,-102.5 1064.5,-72.5 761.5,-72.5"/>
<text text-anchor="start" x="768.3065" y="-83.9" font-family="Arial" font-size="14.00" fill="#000000">updated_at    </text>
<text text-anchor="start" x="872.5533" y="-83.9" font-family="Arial" font-size="14.00" fill="#666666">[timestamp without time zone]</text>
<polygon fill="none" stroke="#000000" points="761.5,-42.5 761.5,-72.5 1064.5,-72.5 1064.5,-42.5 761.5,-42.5"/>
<text text-anchor="start" x="768.5" y="-53.9" font-family="Arial" font-size="14.00" fill="#000000">is_deleted    </text>
<text text-anchor="start" x="866.5042" y="-53.9" font-family="Arial" font-size="14.00" fill="#666666">[boolean]</text>
</g>
<!-- public.user_account&#45;&gt;public.user -->
<g id="edge5" class="edge">
<title>public.user_account:user_id&#45;&gt;public.user:user_id</title>
<path fill="none" stroke="#000000" d="M752.1224,-516.9485C611.4249,-501.7493 613.9299,-177.5 761.5,-177.5"/>
<polygon fill="#000000" stroke="#000000" points="752.5141,-516.9692 762.2611,-521.9937 757.507,-517.2346 762.5,-517.5 762.5,-517.5 762.5,-517.5 757.507,-517.2346 762.7389,-513.0063 752.5141,-516.9692 752.5141,-516.9692"/>
</g>
<!-- public.organization_member -->
<g id="node2" class="node">
<title>public.organization_member</title>
<polygon fill="#efefef" stroke="transparent" points="43.5,-902.5 43.5,-937.5 410.5,-937.5 410.5,-902.5 43.5,-902.5"/>
<polygon fill="none" stroke="#000000" points="43.5,-902.5 43.5,-937.5 410.5,-937.5 410.5,-902.5 43.5,-902.5"/>
<text text-anchor="start" x="50.1976" y="-915.3" font-family="Arial Bold" font-size="18.00" fill="#000000">public.organization_member</text>
<text text-anchor="start" x="276.2344" y="-915.3" font-family="Arial" font-size="14.00" fill="#000000">    </text>
<text text-anchor="start" x="310.4392" y="-915.3" font-family="Arial" font-size="14.00" fill="#666666">[BASE TABLE]</text>
<polygon fill="none" stroke="#000000" points="43.5,-872.5 43.5,-902.5 410.5,-902.5 410.5,-872.5 43.5,-872.5"/>
<text text-anchor="start" x="50.5" y="-883.9" font-family="Arial" font-size="14.00" fill="#000000">organization_member_id    </text>
<text text-anchor="start" x="238.7314" y="-883.9" font-family="Arial" font-size="14.00" fill="#666666">[bigint]</text>
<polygon fill="none" stroke="#000000" points="43.5,-842.5 43.5,-872.5 410.5,-872.5 410.5,-842.5 43.5,-842.5"/>
<text text-anchor="start" x="50.5" y="-853.9" font-family="Arial" font-size="14.00" fill="#000000">organization_id    </text>
<text text-anchor="start" x="179.6192" y="-853.9" font-family="Arial" font-size="14.00" fill="#666666">[bigint]</text>
<polygon fill="none" stroke="#000000" points="43.5,-812.5 43.5,-842.5 410.5,-842.5 410.5,-812.5 43.5,-812.5"/>
<text text-anchor="start" x="50.5" y="-823.9" font-family="Arial" font-size="14.00" fill="#000000">user_account_id    </text>
<text text-anchor="start" x="187.406" y="-823.9" font-family="Arial" font-size="14.00" fill="#666666">[bigint]</text>
<polygon fill="none" stroke="#000000" points="43.5,-782.5 43.5,-812.5 410.5,-812.5 410.5,-782.5 43.5,-782.5"/>
<text text-anchor="start" x="50.5" y="-793.9" font-family="Arial" font-size="14.00" fill="#000000">organization_member_authority_id    </text>
<text text-anchor="start" x="300.1928" y="-793.9" font-family="Arial" font-size="14.00" fill="#666666">[bigint]</text>
</g>
<!-- public.organization_member&#45;&gt;public.user_account -->
<g id="edge1" class="edge">
<title>public.organization_member:user_account_id&#45;&gt;public.user_account:user_account_id</title>
<path fill="none" stroke="#000000" d="M420.7116,-826.6575C473.0503,-817.0826 417.0689,-728.2218 461.5,-680 560.5434,-572.5067 616.3344,-547.5 762.5,-547.5"/>
<polygon fill="#000000" stroke="#000000" points="420.4661,-826.6777 410.13,-823.0152 415.4831,-827.0888 410.5,-827.5 410.5,-827.5 410.5,-827.5 415.4831,-827.0888 410.87,-831.9848 420.4661,-826.6777 420.4661,-826.6777"/>
</g>
<!-- public.workspace_member -->
<g id="node3" class="node">
<title>public.workspace_member</title>
<polygon fill="#efefef" stroke="transparent" points="514.5,-902.5 514.5,-937.5 869.5,-937.5 869.5,-902.5 514.5,-902.5"/>
<polygon fill="none" stroke="#000000" points="514.5,-902.5 514.5,-937.5 869.5,-937.5 869.5,-902.5 514.5,-902.5"/>
<text text-anchor="start" x="521.2051" y="-915.3" font-family="Arial Bold" font-size="18.00" fill="#000000">public.workspace_member</text>
<text text-anchor="start" x="735.2269" y="-915.3" font-family="Arial" font-size="14.00" fill="#000000">    </text>
<text text-anchor="start" x="769.4317" y="-915.3" font-family="Arial" font-size="14.00" fill="#666666">[BASE TABLE]</text>
<polygon fill="none" stroke="#000000" points="514.5,-872.5 514.5,-902.5 869.5,-902.5 869.5,-872.5 514.5,-872.5"/>
<text text-anchor="start" x="521.5" y="-883.9" font-family="Arial" font-size="14.00" fill="#000000">workspace_member_id    </text>
<text text-anchor="start" x="700.3864" y="-883.9" font-family="Arial" font-size="14.00" fill="#666666">[bigint]</text>
<polygon fill="none" stroke="#000000" points="514.5,-842.5 514.5,-872.5 869.5,-872.5 869.5,-842.5 514.5,-842.5"/>
<text text-anchor="start" x="521.5" y="-853.9" font-family="Arial" font-size="14.00" fill="#000000">workspace_id    </text>
<text text-anchor="start" x="641.2742" y="-853.9" font-family="Arial" font-size="14.00" fill="#666666">[bigint]</text>
<polygon fill="none" stroke="#000000" points="514.5,-812.5 514.5,-842.5 869.5,-842.5 869.5,-812.5 514.5,-812.5"/>
<text text-anchor="start" x="521.5" y="-823.9" font-family="Arial" font-size="14.00" fill="#000000">user_account_id    </text>
<text text-anchor="start" x="658.406" y="-823.9" font-family="Arial" font-size="14.00" fill="#666666">[bigint]</text>
<polygon fill="none" stroke="#000000" points="514.5,-782.5 514.5,-812.5 869.5,-812.5 869.5,-782.5 514.5,-782.5"/>
<text text-anchor="start" x="521.5" y="-793.9" font-family="Arial" font-size="14.00" fill="#000000">workspace_member_authority_id    </text>
<text text-anchor="start" x="761.8478" y="-793.9" font-family="Arial" font-size="14.00" fill="#666666">[bigint]</text>
</g>
<!-- public.workspace_member&#45;&gt;public.user_account -->
<g id="edge2" class="edge">
<title>public.workspace_member:user_account_id&#45;&gt;public.user_account:user_account_id</title>
<path fill="none" stroke="#000000" d="M879.505,-825.963C903.7831,-817.11 883.7394,-771.906 869.5,-740 843.4617,-681.6563 788.5383,-702.3437 762.5,-644 745.0208,-604.8345 719.6111,-547.5 762.5,-547.5"/>
<polygon fill="#000000" stroke="#000000" points="879.384,-825.9815 868.8167,-823.0522 874.442,-826.7407 869.5,-827.5 869.5,-827.5 869.5,-827.5 874.442,-826.7407 870.1833,-831.9478 879.384,-825.9815 879.384,-825.9815"/>
</g>
<!-- public.project_member -->
<g id="node4" class="node">
<title>public.project_member</title>
<polygon fill="#efefef" stroke="transparent" points="973.5,-902.5 973.5,-937.5 1296.5,-937.5 1296.5,-902.5 973.5,-902.5"/>
<polygon fill="none" stroke="#000000" points="973.5,-902.5 973.5,-937.5 1296.5,-937.5 1296.5,-902.5 973.5,-902.5"/>
<text text-anchor="start" x="980.2071" y="-915.3" font-family="Arial Bold" font-size="18.00" fill="#000000">public.project_member</text>
<text text-anchor="start" x="1162.2249" y="-915.3" font-family="Arial" font-size="14.00" fill="#000000">    </text>
<text text-anchor="start" x="1196.4297" y="-915.3" font-family="Arial" font-size="14.00" fill="#666666">[BASE TABLE]</text>
<polygon fill="none" stroke="#000000" points="973.5,-872.5 973.5,-902.5 1296.5,-902.5 1296.5,-872.5 973.5,-872.5"/>
<text text-anchor="start" x="980.5" y="-883.9" font-family="Arial" font-size="14.00" fill="#000000">project_member_id    </text>
<text text-anchor="start" x="1134.4944" y="-883.9" font-family="Arial" font-size="14.00" fill="#666666">[bigint]</text>
<polygon fill="none" stroke="#000000" points="973.5,-842.5 973.5,-872.5 1296.5,-872.5 1296.5,-842.5 973.5,-842.5"/>
<text text-anchor="start" x="980.5" y="-853.9" font-family="Arial" font-size="14.00" fill="#000000">project_id    </text>
<text text-anchor="start" x="1075.3822" y="-853.9" font-family="Arial" font-size="14.00" fill="#666666">[bigint]</text>
<polygon fill="none" stroke="#000000" points="973.5,-812.5 973.5,-842.5 1296.5,-842.5 1296.5,-812.5 973.5,-812.5"/>
<text text-anchor="start" x="980.5" y="-823.9" font-family="Arial" font-size="14.00" fill="#000000">user_account_id    </text>
<text text-anchor="start" x="1117.406" y="-823.9" font-family="Arial" font-size="14.00" fill="#666666">[bigint]</text>
<polygon fill="none" stroke="#000000" points="973.5,-782.5 973.5,-812.5 1296.5,-812.5 1296.5,-782.5 973.5,-782.5"/>
<text text-anchor="start" x="980.5" y="-793.9" font-family="Arial" font-size="14.00" fill="#000000">project_member_authority_id    </text>
<text text-anchor="start" x="1195.9558" y="-793.9" font-family="Arial" font-size="14.00" fill="#666666">[bigint]</text>
</g>
<!-- public.project_member&#45;&gt;public.user_account -->
<g id="edge3" class="edge">
<title>public.project_member:user_account_id&#45;&gt;public.user_account:user_account_id</title>
<path fill="none" stroke="#000000" d="M963.538,-825.9811C939.4994,-817.2289 960.6515,-772.491 973.5,-740 995.007,-685.6135 1041.993,-698.3865 1063.5,-644 1079.2719,-604.1164 1106.3889,-547.5 1063.5,-547.5"/>
<polygon fill="#000000" stroke="#000000" points="963.6142,-825.9926 972.8217,-831.9486 968.5571,-826.7463 973.5,-827.5 973.5,-827.5 973.5,-827.5 968.5571,-826.7463 974.1783,-823.0514 963.6142,-825.9926 963.6142,-825.9926"/>
</g>
<!-- public.task -->
<g id="node5" class="node">
<title>public.task</title>
<polygon fill="#efefef" stroke="transparent" points="1400.5,-962.5 1400.5,-997.5 1703.5,-997.5 1703.5,-962.5 1400.5,-962.5"/>
<polygon fill="none" stroke="#000000" points="1400.5,-962.5 1400.5,-997.5 1703.5,-997.5 1703.5,-962.5 1400.5,-962.5"/>
<text text-anchor="start" x="1445.7072" y="-975.3" font-family="Arial Bold" font-size="18.00" fill="#000000">public.task</text>
<text text-anchor="start" x="1530.7248" y="-975.3" font-family="Arial" font-size="14.00" fill="#000000">    </text>
<text text-anchor="start" x="1564.9296" y="-975.3" font-family="Arial" font-size="14.00" fill="#666666">[BASE TABLE]</text>
<polygon fill="none" stroke="#000000" points="1400.5,-932.5 1400.5,-962.5 1703.5,-962.5 1703.5,-932.5 1400.5,-932.5"/>
<text text-anchor="start" x="1407.5" y="-943.9" font-family="Arial" font-size="14.00" fill="#000000">task_id    </text>
<text text-anchor="start" x="1486.0498" y="-943.9" font-family="Arial" font-size="14.00" fill="#666666">[bigint]</text>
<polygon fill="none" stroke="#000000" points="1400.5,-902.5 1400.5,-932.5 1703.5,-932.5 1703.5,-902.5 1400.5,-902.5"/>
<text text-anchor="start" x="1407.5" y="-913.9" font-family="Arial" font-size="14.00" fill="#000000">project_id    </text>
<text text-anchor="start" x="1502.3822" y="-913.9" font-family="Arial" font-size="14.00" fill="#666666">[bigint]</text>
<polygon fill="none" stroke="#000000" points="1400.5,-872.5 1400.5,-902.5 1703.5,-902.5 1703.5,-872.5 1400.5,-872.5"/>
<text text-anchor="start" x="1407.5" y="-883.9" font-family="Arial" font-size="14.00" fill="#000000">owner_user_account_id    </text>
<text text-anchor="start" x="1590.3036" y="-883.9" font-family="Arial" font-size="14.00" fill="#666666">[bigint]</text>
<polygon fill="none" stroke="#000000" points="1400.5,-842.5 1400.5,-872.5 1703.5,-872.5 1703.5,-842.5 1400.5,-842.5"/>
<text text-anchor="start" x="1407.5" y="-853.9" font-family="Arial" font-size="14.00" fill="#000000">title    </text>
<text text-anchor="start" x="1463.4818" y="-853.9" font-family="Arial" font-size="14.00" fill="#666666">[varchar(255)]</text>
<polygon fill="none" stroke="#000000" points="1400.5,-812.5 1400.5,-842.5 1703.5,-842.5 1703.5,-812.5 1400.5,-812.5"/>
<text text-anchor="start" x="1407.5" y="-823.9" font-family="Arial" font-size="14.00" fill="#000000">content    </text>
<text text-anchor="start" x="1487.6164" y="-823.9" font-family="Arial" font-size="14.00" fill="#666666">[text]</text>
<polygon fill="none" stroke="#000000" points="1400.5,-782.5 1400.5,-812.5 1703.5,-812.5 1703.5,-782.5 1400.5,-782.5"/>
<text text-anchor="start" x="1407.5" y="-793.9" font-family="Arial" font-size="14.00" fill="#000000">created_at    </text>
<text text-anchor="start" x="1507.8422" y="-793.9" font-family="Arial" font-size="14.00" fill="#666666">[timestamp without time zone]</text>
<polygon fill="none" stroke="#000000" points="1400.5,-752.5 1400.5,-782.5 1703.5,-782.5 1703.5,-752.5 1400.5,-752.5"/>
<text text-anchor="start" x="1407.3065" y="-763.9" font-family="Arial" font-size="14.00" fill="#000000">updated_at    </text>
<text text-anchor="start" x="1511.5533" y="-763.9" font-family="Arial" font-size="14.00" fill="#666666">[timestamp without time zone]</text>
<polygon fill="none" stroke="#000000" points="1400.5,-722.5 1400.5,-752.5 1703.5,-752.5 1703.5,-722.5 1400.5,-722.5"/>
<text text-anchor="start" x="1407.5" y="-733.9" font-family="Arial" font-size="14.00" fill="#000000">is_deleted    </text>
<text text-anchor="start" x="1505.5042" y="-733.9" font-family="Arial" font-size="14.00" fill="#666666">[boolean]</text>
</g>
<!-- public.task&#45;&gt;public.user_account -->
<g id="edge4" class="edge">
<title>public.task:owner_user_account_id&#45;&gt;public.user_account:user_account_id</title>
<path fill="none" stroke="#000000" d="M1390.2465,-886.8973C1313.2719,-877.1078 1406.6949,-750.4275 1348.5,-680 1259.522,-572.3187 1203.1866,-547.5 1063.5,-547.5"/>
<polygon fill="#000000" stroke="#000000" points="1390.5172,-886.9131 1400.2359,-891.9922 1395.5086,-887.2065 1400.5,-887.5 1400.5,-887.5 1400.5,-887.5 1395.5086,-887.2065 1400.7641,-883.0078 1390.5172,-886.9131 1390.5172,-886.9131"/>
</g>
</g>
</svg>
