<?xml version="1.0" encoding="UTF-8" standalone="no"?>
<!DOCTYPE svg PUBLIC "-//W3C//DTD SVG 1.1//EN"
 "http://www.w3.org/Graphics/SVG/1.1/DTD/svg11.dtd">
<!-- Generated by graphviz version 2.40.1 (20161225.0304)
 -->
<!-- Title: public.workspace_member Pages: 1 -->
<svg width="1343pt" height="622pt"
 viewBox="0.00 0.00 1342.50 622.00" xmlns="http://www.w3.org/2000/svg" xmlns:xlink="http://www.w3.org/1999/xlink">
<g id="graph0" class="graph" transform="scale(1 1) rotate(0) translate(4 618)">
<title>public.workspace_member</title>
<polygon fill="#ffffff" stroke="transparent" points="-4,4 -4,-618 1338.5,-618 1338.5,4 -4,4"/>
<!-- public.workspace_member -->
<g id="node1" class="node">
<title>public.workspace_member</title>
<polygon fill="#efefef" stroke="transparent" points="424.5,-532.5 424.5,-567.5 779.5,-567.5 779.5,-532.5 424.5,-532.5"/>
<polygon fill="none" stroke="#000000" points="424.5,-532.5 424.5,-567.5 779.5,-567.5 779.5,-532.5 424.5,-532.5"/>
<text text-anchor="start" x="431.2051" y="-545.3" font-family="Arial Bold" font-size="18.00" fill="#000000">public.workspace_member</text>
<text text-anchor="start" x="645.2269" y="-545.3" font-family="Arial" font-size="14.00" fill="#000000">    </text>
<text text-anchor="start" x="679.4317" y="-545.3" font-family="Arial" font-size="14.00" fill="#666666">[BASE TABLE]</text>
<polygon fill="none" stroke="#000000" points="424.5,-502.5 424.5,-532.5 779.5,-532.5 779.5,-502.5 424.5,-502.5"/>
<text text-anchor="start" x="431.5" y="-513.9" font-family="Arial" font-size="14.00" fill="#000000">workspace_member_id </text>
<text text-anchor="start" x="580.0722" y="-513.9" font-family="Arial" font-size="14.00" fill="#666666">[bigint]</text>
<polygon fill="none" stroke="#000000" points="424.5,-472.5 424.5,-502.5 779.5,-502.5 779.5,-472.5 424.5,-472.5"/>
<text text-anchor="start" x="431.5" y="-483.9" font-family="Arial" font-size="14.00" fill="#000000">workspace_id </text>
<text text-anchor="start" x="520.96" y="-483.9" font-family="Arial" font-size="14.00" fill="#666666">[bigint]</text>
<polygon fill="none" stroke="#000000" points="424.5,-442.5 424.5,-472.5 779.5,-472.5 779.5,-442.5 424.5,-442.5"/>
<text text-anchor="start" x="431.5" y="-453.9" font-family="Arial" font-size="14.00" fill="#000000">user_account_id </text>
<text text-anchor="start" x="538.0918" y="-453.9" font-family="Arial" font-size="14.00" fill="#666666">[bigint]</text>
<polygon fill="none" stroke="#000000" points="424.5,-412.5 424.5,-442.5 779.5,-442.5 779.5,-412.5 424.5,-412.5"/>
<text text-anchor="start" x="431.5" y="-423.9" font-family="Arial" font-size="14.00" fill="#000000">workspace_member_authority_id </text>
<text text-anchor="start" x="641.5336" y="-423.9" font-family="Arial" font-size="14.00" fill="#666666">[bigint]</text>
<polygon fill="none" stroke="#000000" stroke-width="3" points="422.5,-411.5 422.5,-569.5 780.5,-569.5 780.5,-411.5 422.5,-411.5"/>
</g>
<!-- public.workspace -->
<g id="node2" class="node">
<title>public.workspace</title>
<polygon fill="#efefef" stroke="transparent" points="43.5,-252.5 43.5,-287.5 346.5,-287.5 346.5,-252.5 43.5,-252.5"/>
<polygon fill="none" stroke="#000000" points="43.5,-252.5 43.5,-287.5 346.5,-287.5 346.5,-252.5 43.5,-252.5"/>
<text text-anchor="start" x="62.2058" y="-265.3" font-family="Arial Bold" font-size="18.00" fill="#000000">public.workspace</text>
<text text-anchor="start" x="200.2262" y="-265.3" font-family="Arial" font-size="14.00" fill="#000000">    </text>
<text text-anchor="start" x="234.431" y="-265.3" font-family="Arial" font-size="14.00" fill="#666666">[BASE TABLE]</text>
<polygon fill="none" stroke="#000000" points="43.5,-222.5 43.5,-252.5 346.5,-252.5 346.5,-222.5 43.5,-222.5"/>
<text text-anchor="start" x="50.5" y="-233.9" font-family="Arial" font-size="14.00" fill="#000000">workspace_id    </text>
<text text-anchor="start" x="170.2742" y="-233.9" font-family="Arial" font-size="14.00" fill="#666666">[bigint]</text>
<polygon fill="none" stroke="#000000" points="43.5,-192.5 43.5,-222.5 346.5,-222.5 346.5,-192.5 43.5,-192.5"/>
<text text-anchor="start" x="50.5" y="-203.9" font-family="Arial" font-size="14.00" fill="#000000">workspace_name    </text>
<text text-anchor="start" x="194.3934" y="-203.9" font-family="Arial" font-size="14.00" fill="#666666">[varchar(255)]</text>
<polygon fill="none" stroke="#000000" points="43.5,-162.5 43.5,-192.5 346.5,-192.5 346.5,-162.5 43.5,-162.5"/>
<text text-anchor="start" x="50.5" y="-173.9" font-family="Arial" font-size="14.00" fill="#000000">display_name    </text>
<text text-anchor="start" x="171.0568" y="-173.9" font-family="Arial" font-size="14.00" fill="#666666">[varchar(255)]</text>
<polygon fill="none" stroke="#000000" points="43.5,-132.5 43.5,-162.5 346.5,-162.5 346.5,-132.5 43.5,-132.5"/>
<text text-anchor="start" x="50.5" y="-143.9" font-family="Arial" font-size="14.00" fill="#000000">organization_id    </text>
<text text-anchor="start" x="179.6192" y="-143.9" font-family="Arial" font-size="14.00" fill="#666666">[bigint]</text>
<polygon fill="none" stroke="#000000" points="43.5,-102.5 43.5,-132.5 346.5,-132.5 346.5,-102.5 43.5,-102.5"/>
<text text-anchor="start" x="50.5" y="-113.9" font-family="Arial" font-size="14.00" fill="#000000">created_at    </text>
<text text-anchor="start" x="150.8422" y="-113.9" font-family="Arial" font-size="14.00" fill="#666666">[timestamp without time zone]</text>
<polygon fill="none" stroke="#000000" points="43.5,-72.5 43.5,-102.5 346.5,-102.5 346.5,-72.5 43.5,-72.5"/>
<text text-anchor="start" x="50.3065" y="-83.9" font-family="Arial" font-size="14.00" fill="#000000">updated_at    </text>
<text text-anchor="start" x="154.5533" y="-83.9" font-family="Arial" font-size="14.00" fill="#666666">[timestamp without time zone]</text>
<polygon fill="none" stroke="#000000" points="43.5,-42.5 43.5,-72.5 346.5,-72.5 346.5,-42.5 43.5,-42.5"/>
<text text-anchor="start" x="50.5" y="-53.9" font-family="Arial" font-size="14.00" fill="#000000">is_deleted    </text>
<text text-anchor="start" x="148.5042" y="-53.9" font-family="Arial" font-size="14.00" fill="#666666">[boolean]</text>
</g>
<!-- public.workspace_member&#45;&gt;public.workspace -->
<g id="edge1" class="edge">
<title>public.workspace_member:workspace_id&#45;&gt;public.workspace:workspace_id</title>
<path fill="none" stroke="#000000" d="M414.366,-486.7828C317.5158,-472.1191 459.2562,-237.5 346.5,-237.5"/>
<polygon fill="#000000" stroke="#000000" points="414.5249,-486.794 424.1823,-491.9888 419.5125,-487.147 424.5,-487.5 424.5,-487.5 424.5,-487.5 419.5125,-487.147 424.8177,-483.0112 414.5249,-486.794 414.5249,-486.794"/>
</g>
<!-- public.user_account -->
<g id="node3" class="node">
<title>public.user_account</title>
<polygon fill="#efefef" stroke="transparent" points="450.5,-252.5 450.5,-287.5 753.5,-287.5 753.5,-252.5 450.5,-252.5"/>
<polygon fill="none" stroke="#000000" points="450.5,-252.5 450.5,-287.5 753.5,-287.5 753.5,-252.5 450.5,-252.5"/>
<text text-anchor="start" x="458.1925" y="-265.3" font-family="Arial Bold" font-size="18.00" fill="#000000">public.user_account</text>
<text text-anchor="start" x="618.2395" y="-265.3" font-family="Arial" font-size="14.00" fill="#000000">    </text>
<text text-anchor="start" x="652.4443" y="-265.3" font-family="Arial" font-size="14.00" fill="#666666">[BASE TABLE]</text>
<polygon fill="none" stroke="#000000" points="450.5,-222.5 450.5,-252.5 753.5,-252.5 753.5,-222.5 450.5,-222.5"/>
<text text-anchor="start" x="457.5" y="-233.9" font-family="Arial" font-size="14.00" fill="#000000">user_account_id    </text>
<text text-anchor="start" x="594.406" y="-233.9" font-family="Arial" font-size="14.00" fill="#666666">[bigint]</text>
<polygon fill="none" stroke="#000000" points="450.5,-192.5 450.5,-222.5 753.5,-222.5 753.5,-192.5 450.5,-192.5"/>
<text text-anchor="start" x="457.5" y="-203.9" font-family="Arial" font-size="14.00" fill="#000000">user_id    </text>
<text text-anchor="start" x="537.6024" y="-203.9" font-family="Arial" font-size="14.00" fill="#666666">[bigint]</text>
<polygon fill="none" stroke="#000000" points="450.5,-162.5 450.5,-192.5 753.5,-192.5 753.5,-162.5 450.5,-162.5"/>
<text text-anchor="start" x="457.5" y="-173.9" font-family="Arial" font-size="14.00" fill="#000000">user_account_name    </text>
<text text-anchor="start" x="618.5252" y="-173.9" font-family="Arial" font-size="14.00" fill="#666666">[varchar(255)]</text>
<polygon fill="none" stroke="#000000" points="450.5,-132.5 450.5,-162.5 753.5,-162.5 753.5,-132.5 450.5,-132.5"/>
<text text-anchor="start" x="457.5" y="-143.9" font-family="Arial" font-size="14.00" fill="#000000">display_name    </text>
<text text-anchor="start" x="578.0568" y="-143.9" font-family="Arial" font-size="14.00" fill="#666666">[varchar(255)]</text>
<polygon fill="none" stroke="#000000" points="450.5,-102.5 450.5,-132.5 753.5,-132.5 753.5,-102.5 450.5,-102.5"/>
<text text-anchor="start" x="457.5" y="-113.9" font-family="Arial" font-size="14.00" fill="#000000">created_at    </text>
<text text-anchor="start" x="557.8422" y="-113.9" font-family="Arial" font-size="14.00" fill="#666666">[timestamp without time zone]</text>
<polygon fill="none" stroke="#000000" points="450.5,-72.5 450.5,-102.5 753.5,-102.5 753.5,-72.5 450.5,-72.5"/>
<text text-anchor="start" x="457.3065" y="-83.9" font-family="Arial" font-size="14.00" fill="#000000">updated_at    </text>
<text text-anchor="start" x="561.5533" y="-83.9" font-family="Arial" font-size="14.00" fill="#666666">[timestamp without time zone]</text>
<polygon fill="none" stroke="#000000" points="450.5,-42.5 450.5,-72.5 753.5,-72.5 753.5,-42.5 450.5,-42.5"/>
<text text-anchor="start" x="457.5" y="-53.9" font-family="Arial" font-size="14.00" fill="#000000">is_deleted    </text>
<text text-anchor="start" x="555.5042" y="-53.9" font-family="Arial" font-size="14.00" fill="#666666">[boolean]</text>
</g>
<!-- public.workspace_member&#45;&gt;public.user_account -->
<g id="edge2" class="edge">
<title>public.workspace_member:user_account_id&#45;&gt;public.user_account:user_account_id</title>
<path fill="none" stroke="#000000" d="M414.7608,-454.0443C379.2582,-426.0556 404.9246,-237.5 450.5,-237.5"/>
<polygon fill="#000000" stroke="#000000" points="415.0757,-454.156 422.9952,-461.741 419.7878,-455.828 424.5,-457.5 424.5,-457.5 424.5,-457.5 419.7878,-455.828 426.0048,-453.259 415.0757,-454.156 415.0757,-454.156"/>
</g>
<!-- public.workspace_member_authority -->
<g id="node4" class="node">
<title>public.workspace_member_authority</title>
<polygon fill="#efefef" stroke="transparent" points="857.5,-192.5 857.5,-227.5 1291.5,-227.5 1291.5,-192.5 857.5,-192.5"/>
<polygon fill="none" stroke="#000000" points="857.5,-192.5 857.5,-227.5 1291.5,-227.5 1291.5,-192.5 857.5,-192.5"/>
<text text-anchor="start" x="864.1942" y="-205.3" font-family="Arial Bold" font-size="18.00" fill="#000000">public.workspace_member_authority</text>
<text text-anchor="start" x="1157.2378" y="-205.3" font-family="Arial" font-size="14.00" fill="#000000">    </text>
<text text-anchor="start" x="1191.4426" y="-205.3" font-family="Arial" font-size="14.00" fill="#666666">[BASE TABLE]</text>
<polygon fill="none" stroke="#000000" points="857.5,-162.5 857.5,-192.5 1291.5,-192.5 1291.5,-162.5 857.5,-162.5"/>
<text text-anchor="start" x="864.5" y="-173.9" font-family="Arial" font-size="14.00" fill="#000000">workspace_member_authority_id    </text>
<text text-anchor="start" x="1104.8478" y="-173.9" font-family="Arial" font-size="14.00" fill="#666666">[bigint]</text>
<polygon fill="none" stroke="#000000" points="857.5,-132.5 857.5,-162.5 1291.5,-162.5 1291.5,-132.5 857.5,-132.5"/>
<text text-anchor="start" x="864.5" y="-143.9" font-family="Arial" font-size="14.00" fill="#000000">symbol    </text>
<text text-anchor="start" x="943.0372" y="-143.9" font-family="Arial" font-size="14.00" fill="#666666">[varchar(255)]</text>
<polygon fill="none" stroke="#000000" points="857.5,-102.5 857.5,-132.5 1291.5,-132.5 1291.5,-102.5 857.5,-102.5"/>
<text text-anchor="start" x="864.5" y="-113.9" font-family="Arial" font-size="14.00" fill="#000000">value    </text>
<text text-anchor="start" x="932.1592" y="-113.9" font-family="Arial" font-size="14.00" fill="#666666">[integer]</text>
</g>
<!-- public.workspace_member&#45;&gt;public.workspace_member_authority -->
<g id="edge3" class="edge">
<title>public.workspace_member:workspace_member_authority_id&#45;&gt;public.workspace_member_authority:workspace_member_authority_id</title>
<path fill="none" stroke="#000000" d="M789.634,-426.7828C886.4842,-412.1191 744.7438,-177.5 857.5,-177.5"/>
<polygon fill="#000000" stroke="#000000" points="789.4751,-426.794 779.1823,-423.0112 784.4875,-427.147 779.5,-427.5 779.5,-427.5 779.5,-427.5 784.4875,-427.147 779.8177,-431.9888 789.4751,-426.794 789.4751,-426.794"/>
</g>
</g>
</svg>
