<?xml version="1.0" encoding="UTF-8" standalone="no"?>
<!DOCTYPE svg PUBLIC "-//W3C//DTD SVG 1.1//EN"
 "http://www.w3.org/Graphics/SVG/1.1/DTD/svg11.dtd">
<!-- Generated by graphviz version 2.40.1 (20161225.0304)
 -->
<!-- Title: public.user_account_profile Pages: 1 -->
<svg width="490pt" height="802pt"
 viewBox="0.00 0.00 490.42 802.00" xmlns="http://www.w3.org/2000/svg" xmlns:xlink="http://www.w3.org/1999/xlink">
<g id="graph0" class="graph" transform="scale(1 1) rotate(0) translate(4 798)">
<title>public.user_account_profile</title>
<polygon fill="#ffffff" stroke="transparent" points="-4,4 -4,-798 486.4198,-798 486.4198,4 -4,4"/>
<!-- public.user_account_profile -->
<g id="node1" class="node">
<title>public.user_account_profile</title>
<polygon fill="#efefef" stroke="transparent" points="76.4198,-712.5 76.4198,-747.5 436.4198,-747.5 436.4198,-712.5 76.4198,-712.5"/>
<polygon fill="none" stroke="#000000" points="76.4198,-712.5 76.4198,-747.5 436.4198,-747.5 436.4198,-712.5 76.4198,-712.5"/>
<text text-anchor="start" x="83.1085" y="-725.3" font-family="Arial Bold" font-size="18.00" fill="#000000">public.user_account_profile</text>
<text text-anchor="start" x="302.1631" y="-725.3" font-family="Arial" font-size="14.00" fill="#000000">    </text>
<text text-anchor="start" x="336.3679" y="-725.3" font-family="Arial" font-size="14.00" fill="#666666">[BASE TABLE]</text>
<polygon fill="none" stroke="#000000" points="76.4198,-682.5 76.4198,-712.5 436.4198,-712.5 436.4198,-682.5 76.4198,-682.5"/>
<text text-anchor="start" x="83.4198" y="-693.9" font-family="Arial" font-size="14.00" fill="#000000">user_account_profile_id </text>
<text text-anchor="start" x="235.9064" y="-693.9" font-family="Arial" font-size="14.00" fill="#666666">[bigint]</text>
<polygon fill="none" stroke="#000000" points="76.4198,-652.5 76.4198,-682.5 436.4198,-682.5 436.4198,-652.5 76.4198,-652.5"/>
<text text-anchor="start" x="83.4198" y="-663.9" font-family="Arial" font-size="14.00" fill="#000000">user_account_id </text>
<text text-anchor="start" x="190.0116" y="-663.9" font-family="Arial" font-size="14.00" fill="#666666">[bigint]</text>
<polygon fill="none" stroke="#000000" points="76.4198,-622.5 76.4198,-652.5 436.4198,-652.5 436.4198,-622.5 76.4198,-622.5"/>
<text text-anchor="start" x="83.4198" y="-633.9" font-family="Arial" font-size="14.00" fill="#000000">name </text>
<text text-anchor="start" x="122.3188" y="-633.9" font-family="Arial" font-size="14.00" fill="#666666">[varchar(255)]</text>
<polygon fill="none" stroke="#000000" points="76.4198,-592.5 76.4198,-622.5 436.4198,-622.5 436.4198,-592.5 76.4198,-592.5"/>
<text text-anchor="start" x="83.4198" y="-603.9" font-family="Arial" font-size="14.00" fill="#000000">biography </text>
<text text-anchor="start" x="148.7732" y="-603.9" font-family="Arial" font-size="14.00" fill="#666666">[text]</text>
<polygon fill="none" stroke="#000000" points="76.4198,-562.5 76.4198,-592.5 436.4198,-592.5 436.4198,-562.5 76.4198,-562.5"/>
<text text-anchor="start" x="83.4198" y="-573.9" font-family="Arial" font-size="14.00" fill="#000000">company </text>
<text text-anchor="start" x="144.1014" y="-573.9" font-family="Arial" font-size="14.00" fill="#666666">[varchar(255)]</text>
<polygon fill="none" stroke="#000000" points="76.4198,-532.5 76.4198,-562.5 436.4198,-562.5 436.4198,-532.5 76.4198,-532.5"/>
<text text-anchor="start" x="83.4198" y="-543.9" font-family="Arial" font-size="14.00" fill="#000000">title </text>
<text text-anchor="start" x="109.0874" y="-543.9" font-family="Arial" font-size="14.00" fill="#666666">[varchar(255)]</text>
<polygon fill="none" stroke="#000000" points="76.4198,-502.5 76.4198,-532.5 436.4198,-532.5 436.4198,-502.5 76.4198,-502.5"/>
<text text-anchor="start" x="83.4198" y="-513.9" font-family="Arial" font-size="14.00" fill="#000000">created_at </text>
<text text-anchor="start" x="153.4478" y="-513.9" font-family="Arial" font-size="14.00" fill="#666666">[timestamp without time zone]</text>
<polygon fill="none" stroke="#000000" points="76.4198,-472.5 76.4198,-502.5 436.4198,-502.5 436.4198,-472.5 76.4198,-472.5"/>
<text text-anchor="start" x="83.4198" y="-483.9" font-family="Arial" font-size="14.00" fill="#000000">updated_at </text>
<text text-anchor="start" x="157.3524" y="-483.9" font-family="Arial" font-size="14.00" fill="#666666">[timestamp without time zone]</text>
<polygon fill="none" stroke="#000000" points="76.4198,-442.5 76.4198,-472.5 436.4198,-472.5 436.4198,-442.5 76.4198,-442.5"/>
<text text-anchor="start" x="83.4198" y="-453.9" font-family="Arial" font-size="14.00" fill="#000000">is_deleted </text>
<text text-anchor="start" x="151.1098" y="-453.9" font-family="Arial" font-size="14.00" fill="#666666">[boolean]</text>
<polygon fill="none" stroke="#000000" stroke-width="3" points="74.9198,-441.5 74.9198,-749.5 437.9198,-749.5 437.9198,-441.5 74.9198,-441.5"/>
</g>
<!-- public.user_account -->
<g id="node2" class="node">
<title>public.user_account</title>
<polygon fill="#efefef" stroke="transparent" points="92.4198,-282.5 92.4198,-317.5 419.4198,-317.5 419.4198,-282.5 92.4198,-282.5"/>
<polygon fill="none" stroke="#000000" points="92.4198,-282.5 92.4198,-317.5 419.4198,-317.5 419.4198,-282.5 92.4198,-282.5"/>
<text text-anchor="start" x="112.1123" y="-295.3" font-family="Arial Bold" font-size="18.00" fill="#000000">public.user_account</text>
<text text-anchor="start" x="272.1593" y="-295.3" font-family="Arial" font-size="14.00" fill="#000000">    </text>
<text text-anchor="start" x="306.3641" y="-295.3" font-family="Arial" font-size="14.00" fill="#666666">[BASE TABLE]</text>
<polygon fill="none" stroke="#000000" points="92.4198,-252.5 92.4198,-282.5 419.4198,-282.5 419.4198,-252.5 92.4198,-252.5"/>
<text text-anchor="start" x="99.4198" y="-263.9" font-family="Arial" font-size="14.00" fill="#000000">user_account_id    </text>
<text text-anchor="start" x="236.3258" y="-263.9" font-family="Arial" font-size="14.00" fill="#666666">[bigint]</text>
<polygon fill="none" stroke="#000000" points="92.4198,-222.5 92.4198,-252.5 419.4198,-252.5 419.4198,-222.5 92.4198,-222.5"/>
<text text-anchor="start" x="99.4198" y="-233.9" font-family="Arial" font-size="14.00" fill="#000000">user_id    </text>
<text text-anchor="start" x="179.5222" y="-233.9" font-family="Arial" font-size="14.00" fill="#666666">[bigint]</text>
<polygon fill="none" stroke="#000000" points="92.4198,-192.5 92.4198,-222.5 419.4198,-222.5 419.4198,-192.5 92.4198,-192.5"/>
<text text-anchor="start" x="99.4198" y="-203.9" font-family="Arial" font-size="14.00" fill="#000000">user_account_name    </text>
<text text-anchor="start" x="260.445" y="-203.9" font-family="Arial" font-size="14.00" fill="#666666">[varchar(255)]</text>
<polygon fill="none" stroke="#000000" points="92.4198,-162.5 92.4198,-192.5 419.4198,-192.5 419.4198,-162.5 92.4198,-162.5"/>
<text text-anchor="start" x="99.4198" y="-173.9" font-family="Arial" font-size="14.00" fill="#000000">display_name    </text>
<text text-anchor="start" x="219.9766" y="-173.9" font-family="Arial" font-size="14.00" fill="#666666">[varchar(255)]</text>
<polygon fill="none" stroke="#000000" points="92.4198,-132.5 92.4198,-162.5 419.4198,-162.5 419.4198,-132.5 92.4198,-132.5"/>
<text text-anchor="start" x="99.1751" y="-143.9" font-family="Arial" font-size="14.00" fill="#000000">last_logined_at    </text>
<text text-anchor="start" x="227.5243" y="-143.9" font-family="Arial" font-size="14.00" fill="#666666">[timestamp without time zone]</text>
<polygon fill="none" stroke="#000000" points="92.4198,-102.5 92.4198,-132.5 419.4198,-132.5 419.4198,-102.5 92.4198,-102.5"/>
<text text-anchor="start" x="99.4198" y="-113.9" font-family="Arial" font-size="14.00" fill="#000000">created_at    </text>
<text text-anchor="start" x="199.762" y="-113.9" font-family="Arial" font-size="14.00" fill="#666666">[timestamp without time zone]</text>
<polygon fill="none" stroke="#000000" points="92.4198,-72.5 92.4198,-102.5 419.4198,-102.5 419.4198,-72.5 92.4198,-72.5"/>
<text text-anchor="start" x="99.4198" y="-83.9" font-family="Arial" font-size="14.00" fill="#000000">updated_at    </text>
<text text-anchor="start" x="203.6666" y="-83.9" font-family="Arial" font-size="14.00" fill="#666666">[timestamp without time zone]</text>
<polygon fill="none" stroke="#000000" points="92.4198,-42.5 92.4198,-72.5 419.4198,-72.5 419.4198,-42.5 92.4198,-42.5"/>
<text text-anchor="start" x="99.4198" y="-53.9" font-family="Arial" font-size="14.00" fill="#000000">is_deleted    </text>
<text text-anchor="start" x="197.424" y="-53.9" font-family="Arial" font-size="14.00" fill="#666666">[boolean]</text>
</g>
<!-- public.user_account_profile&#45;&gt;public.user_account -->
<g id="edge1" class="edge">
<title>public.user_account_profile:user_account_id&#45;&gt;public.user_account:user_account_id</title>
<path fill="none" stroke="#000000" d="M66.2623,-667.0404C-41.4372,-656.9638 -1.6742,-483.7194 76.4198,-397 127.7067,-340.0485 368.1328,-417.9515 419.4198,-361 447.2281,-330.1202 460.9753,-267.5 419.4198,-267.5"/>
<polygon fill="#000000" stroke="#000000" points="66.43,-667.0479 76.2163,-671.9954 71.4249,-667.2739 76.4198,-667.5 76.4198,-667.5 76.4198,-667.5 71.4249,-667.2739 76.6232,-663.0046 66.43,-667.0479 66.43,-667.0479"/>
</g>
</g>
</svg>
