<?xml version="1.0" encoding="UTF-8" standalone="no"?>
<!DOCTYPE svg PUBLIC "-//W3C//DTD SVG 1.1//EN"
 "http://www.w3.org/Graphics/SVG/1.1/DTD/svg11.dtd">
<!-- Generated by graphviz version 2.40.1 (20161225.0304)
 -->
<!-- Title: public.organization_member Pages: 1 -->
<svg width="1355pt" height="622pt"
 viewBox="0.00 0.00 1354.50 622.00" xmlns="http://www.w3.org/2000/svg" xmlns:xlink="http://www.w3.org/1999/xlink">
<g id="graph0" class="graph" transform="scale(1 1) rotate(0) translate(4 618)">
<title>public.organization_member</title>
<polygon fill="#ffffff" stroke="transparent" points="-4,4 -4,-618 1350.5,-618 1350.5,4 -4,4"/>
<!-- public.organization_member -->
<g id="node1" class="node">
<title>public.organization_member</title>
<polygon fill="#efefef" stroke="transparent" points="418.5,-532.5 418.5,-567.5 785.5,-567.5 785.5,-532.5 418.5,-532.5"/>
<polygon fill="none" stroke="#000000" points="418.5,-532.5 418.5,-567.5 785.5,-567.5 785.5,-532.5 418.5,-532.5"/>
<text text-anchor="start" x="425.1976" y="-545.3" font-family="Arial Bold" font-size="18.00" fill="#000000">public.organization_member</text>
<text text-anchor="start" x="651.2344" y="-545.3" font-family="Arial" font-size="14.00" fill="#000000">    </text>
<text text-anchor="start" x="685.4392" y="-545.3" font-family="Arial" font-size="14.00" fill="#666666">[BASE TABLE]</text>
<polygon fill="none" stroke="#000000" points="418.5,-502.5 418.5,-532.5 785.5,-532.5 785.5,-502.5 418.5,-502.5"/>
<text text-anchor="start" x="425.5" y="-513.9" font-family="Arial" font-size="14.00" fill="#000000">organization_member_id </text>
<text text-anchor="start" x="583.4172" y="-513.9" font-family="Arial" font-size="14.00" fill="#666666">[bigint]</text>
<polygon fill="none" stroke="#000000" points="418.5,-472.5 418.5,-502.5 785.5,-502.5 785.5,-472.5 418.5,-472.5"/>
<text text-anchor="start" x="425.5" y="-483.9" font-family="Arial" font-size="14.00" fill="#000000">organization_id </text>
<text text-anchor="start" x="524.305" y="-483.9" font-family="Arial" font-size="14.00" fill="#666666">[bigint]</text>
<polygon fill="none" stroke="#000000" points="418.5,-442.5 418.5,-472.5 785.5,-472.5 785.5,-442.5 418.5,-442.5"/>
<text text-anchor="start" x="425.5" y="-453.9" font-family="Arial" font-size="14.00" fill="#000000">user_account_id </text>
<text text-anchor="start" x="532.0918" y="-453.9" font-family="Arial" font-size="14.00" fill="#666666">[bigint]</text>
<polygon fill="none" stroke="#000000" points="418.5,-412.5 418.5,-442.5 785.5,-442.5 785.5,-412.5 418.5,-412.5"/>
<text text-anchor="start" x="425.5" y="-423.9" font-family="Arial" font-size="14.00" fill="#000000">organization_member_authority_id </text>
<text text-anchor="start" x="644.8786" y="-423.9" font-family="Arial" font-size="14.00" fill="#666666">[bigint]</text>
<polygon fill="none" stroke="#000000" stroke-width="3" points="416.5,-411.5 416.5,-569.5 786.5,-569.5 786.5,-411.5 416.5,-411.5"/>
</g>
<!-- public.organization -->
<g id="node2" class="node">
<title>public.organization</title>
<polygon fill="#efefef" stroke="transparent" points="43.5,-237.5 43.5,-272.5 346.5,-272.5 346.5,-237.5 43.5,-237.5"/>
<polygon fill="none" stroke="#000000" points="43.5,-237.5 43.5,-272.5 346.5,-272.5 346.5,-237.5 43.5,-237.5"/>
<text text-anchor="start" x="56.1983" y="-250.3" font-family="Arial Bold" font-size="18.00" fill="#000000">public.organization</text>
<text text-anchor="start" x="206.2337" y="-250.3" font-family="Arial" font-size="14.00" fill="#000000">    </text>
<text text-anchor="start" x="240.4385" y="-250.3" font-family="Arial" font-size="14.00" fill="#666666">[BASE TABLE]</text>
<polygon fill="none" stroke="#000000" points="43.5,-207.5 43.5,-237.5 346.5,-237.5 346.5,-207.5 43.5,-207.5"/>
<text text-anchor="start" x="50.5" y="-218.9" font-family="Arial" font-size="14.00" fill="#000000">organization_id    </text>
<text text-anchor="start" x="179.6192" y="-218.9" font-family="Arial" font-size="14.00" fill="#666666">[bigint]</text>
<polygon fill="none" stroke="#000000" points="43.5,-177.5 43.5,-207.5 346.5,-207.5 346.5,-177.5 43.5,-177.5"/>
<text text-anchor="start" x="50.5" y="-188.9" font-family="Arial" font-size="14.00" fill="#000000">organization_name    </text>
<text text-anchor="start" x="203.7384" y="-188.9" font-family="Arial" font-size="14.00" fill="#666666">[varchar(255)]</text>
<polygon fill="none" stroke="#000000" points="43.5,-147.5 43.5,-177.5 346.5,-177.5 346.5,-147.5 43.5,-147.5"/>
<text text-anchor="start" x="50.5" y="-158.9" font-family="Arial" font-size="14.00" fill="#000000">display_name    </text>
<text text-anchor="start" x="171.0568" y="-158.9" font-family="Arial" font-size="14.00" fill="#666666">[varchar(255)]</text>
<polygon fill="none" stroke="#000000" points="43.5,-117.5 43.5,-147.5 346.5,-147.5 346.5,-117.5 43.5,-117.5"/>
<text text-anchor="start" x="50.5" y="-128.9" font-family="Arial" font-size="14.00" fill="#000000">created_at    </text>
<text text-anchor="start" x="150.8422" y="-128.9" font-family="Arial" font-size="14.00" fill="#666666">[timestamp without time zone]</text>
<polygon fill="none" stroke="#000000" points="43.5,-87.5 43.5,-117.5 346.5,-117.5 346.5,-87.5 43.5,-87.5"/>
<text text-anchor="start" x="50.3065" y="-98.9" font-family="Arial" font-size="14.00" fill="#000000">updated_at    </text>
<text text-anchor="start" x="154.5533" y="-98.9" font-family="Arial" font-size="14.00" fill="#666666">[timestamp without time zone]</text>
<polygon fill="none" stroke="#000000" points="43.5,-57.5 43.5,-87.5 346.5,-87.5 346.5,-57.5 43.5,-57.5"/>
<text text-anchor="start" x="50.5" y="-68.9" font-family="Arial" font-size="14.00" fill="#000000">is_deleted    </text>
<text text-anchor="start" x="148.5042" y="-68.9" font-family="Arial" font-size="14.00" fill="#666666">[boolean]</text>
</g>
<!-- public.organization_member&#45;&gt;public.organization -->
<g id="edge1" class="edge">
<title>public.organization_member:organization_id&#45;&gt;public.organization:organization_id</title>
<path fill="none" stroke="#000000" d="M408.5158,-486.831C306.2837,-472.2001 464.9719,-222.5 346.5,-222.5"/>
<polygon fill="#000000" stroke="#000000" points="408.5224,-486.8313 418.1991,-491.9899 413.5112,-487.1657 418.5,-487.5 418.5,-487.5 418.5,-487.5 413.5112,-487.1657 418.8009,-483.0101 408.5224,-486.8313 408.5224,-486.8313"/>
</g>
<!-- public.user_account -->
<g id="node3" class="node">
<title>public.user_account</title>
<polygon fill="#efefef" stroke="transparent" points="450.5,-252.5 450.5,-287.5 753.5,-287.5 753.5,-252.5 450.5,-252.5"/>
<polygon fill="none" stroke="#000000" points="450.5,-252.5 450.5,-287.5 753.5,-287.5 753.5,-252.5 450.5,-252.5"/>
<text text-anchor="start" x="458.1925" y="-265.3" font-family="Arial Bold" font-size="18.00" fill="#000000">public.user_account</text>
<text text-anchor="start" x="618.2395" y="-265.3" font-family="Arial" font-size="14.00" fill="#000000">    </text>
<text text-anchor="start" x="652.4443" y="-265.3" font-family="Arial" font-size="14.00" fill="#666666">[BASE TABLE]</text>
<polygon fill="none" stroke="#000000" points="450.5,-222.5 450.5,-252.5 753.5,-252.5 753.5,-222.5 450.5,-222.5"/>
<text text-anchor="start" x="457.5" y="-233.9" font-family="Arial" font-size="14.00" fill="#000000">user_account_id    </text>
<text text-anchor="start" x="594.406" y="-233.9" font-family="Arial" font-size="14.00" fill="#666666">[bigint]</text>
<polygon fill="none" stroke="#000000" points="450.5,-192.5 450.5,-222.5 753.5,-222.5 753.5,-192.5 450.5,-192.5"/>
<text text-anchor="start" x="457.5" y="-203.9" font-family="Arial" font-size="14.00" fill="#000000">user_id    </text>
<text text-anchor="start" x="537.6024" y="-203.9" font-family="Arial" font-size="14.00" fill="#666666">[bigint]</text>
<polygon fill="none" stroke="#000000" points="450.5,-162.5 450.5,-192.5 753.5,-192.5 753.5,-162.5 450.5,-162.5"/>
<text text-anchor="start" x="457.5" y="-173.9" font-family="Arial" font-size="14.00" fill="#000000">user_account_name    </text>
<text text-anchor="start" x="618.5252" y="-173.9" font-family="Arial" font-size="14.00" fill="#666666">[varchar(255)]</text>
<polygon fill="none" stroke="#000000" points="450.5,-132.5 450.5,-162.5 753.5,-162.5 753.5,-132.5 450.5,-132.5"/>
<text text-anchor="start" x="457.5" y="-143.9" font-family="Arial" font-size="14.00" fill="#000000">display_name    </text>
<text text-anchor="start" x="578.0568" y="-143.9" font-family="Arial" font-size="14.00" fill="#666666">[varchar(255)]</text>
<polygon fill="none" stroke="#000000" points="450.5,-102.5 450.5,-132.5 753.5,-132.5 753.5,-102.5 450.5,-102.5"/>
<text text-anchor="start" x="457.5" y="-113.9" font-family="Arial" font-size="14.00" fill="#000000">created_at    </text>
<text text-anchor="start" x="557.8422" y="-113.9" font-family="Arial" font-size="14.00" fill="#666666">[timestamp without time zone]</text>
<polygon fill="none" stroke="#000000" points="450.5,-72.5 450.5,-102.5 753.5,-102.5 753.5,-72.5 450.5,-72.5"/>
<text text-anchor="start" x="457.3065" y="-83.9" font-family="Arial" font-size="14.00" fill="#000000">updated_at    </text>
<text text-anchor="start" x="561.5533" y="-83.9" font-family="Arial" font-size="14.00" fill="#666666">[timestamp without time zone]</text>
<polygon fill="none" stroke="#000000" points="450.5,-42.5 450.5,-72.5 753.5,-72.5 753.5,-42.5 450.5,-42.5"/>
<text text-anchor="start" x="457.5" y="-53.9" font-family="Arial" font-size="14.00" fill="#000000">is_deleted    </text>
<text text-anchor="start" x="555.5042" y="-53.9" font-family="Arial" font-size="14.00" fill="#666666">[boolean]</text>
</g>
<!-- public.organization_member&#45;&gt;public.user_account -->
<g id="edge2" class="edge">
<title>public.organization_member:user_account_id&#45;&gt;public.user_account:user_account_id</title>
<path fill="none" stroke="#000000" d="M408.8191,-454.0443C373.9425,-426.0556 404.7633,-237.5 450.5,-237.5"/>
<polygon fill="#000000" stroke="#000000" points="409.082,-454.1381 416.9872,-461.7381 413.791,-455.8191 418.5,-457.5 418.5,-457.5 418.5,-457.5 413.791,-455.8191 420.0128,-453.2619 409.082,-454.1381 409.082,-454.1381"/>
</g>
<!-- public.organization_member_authority -->
<g id="node4" class="node">
<title>public.organization_member_authority</title>
<polygon fill="#efefef" stroke="transparent" points="857.5,-192.5 857.5,-227.5 1303.5,-227.5 1303.5,-192.5 857.5,-192.5"/>
<polygon fill="none" stroke="#000000" points="857.5,-192.5 857.5,-227.5 1303.5,-227.5 1303.5,-192.5 857.5,-192.5"/>
<text text-anchor="start" x="864.1867" y="-205.3" font-family="Arial Bold" font-size="18.00" fill="#000000">public.organization_member_authority</text>
<text text-anchor="start" x="1169.2453" y="-205.3" font-family="Arial" font-size="14.00" fill="#000000">    </text>
<text text-anchor="start" x="1203.4501" y="-205.3" font-family="Arial" font-size="14.00" fill="#666666">[BASE TABLE]</text>
<polygon fill="none" stroke="#000000" points="857.5,-162.5 857.5,-192.5 1303.5,-192.5 1303.5,-162.5 857.5,-162.5"/>
<text text-anchor="start" x="864.5" y="-173.9" font-family="Arial" font-size="14.00" fill="#000000">organization_member_authority_id    </text>
<text text-anchor="start" x="1114.1928" y="-173.9" font-family="Arial" font-size="14.00" fill="#666666">[bigint]</text>
<polygon fill="none" stroke="#000000" points="857.5,-132.5 857.5,-162.5 1303.5,-162.5 1303.5,-132.5 857.5,-132.5"/>
<text text-anchor="start" x="864.5" y="-143.9" font-family="Arial" font-size="14.00" fill="#000000">symbol    </text>
<text text-anchor="start" x="943.0372" y="-143.9" font-family="Arial" font-size="14.00" fill="#666666">[varchar(255)]</text>
<polygon fill="none" stroke="#000000" points="857.5,-102.5 857.5,-132.5 1303.5,-132.5 1303.5,-102.5 857.5,-102.5"/>
<text text-anchor="start" x="864.5" y="-113.9" font-family="Arial" font-size="14.00" fill="#000000">value    </text>
<text text-anchor="start" x="932.1592" y="-113.9" font-family="Arial" font-size="14.00" fill="#666666">[integer]</text>
</g>
<!-- public.organization_member&#45;&gt;public.organization_member_authority -->
<g id="edge3" class="edge">
<title>public.organization_member:organization_member_authority_id&#45;&gt;public.organization_member_authority:organization_member_authority_id</title>
<path fill="none" stroke="#000000" d="M795.5515,-426.7828C891.4424,-412.1191 745.486,-177.5 857.5,-177.5"/>
<polygon fill="#000000" stroke="#000000" points="795.4746,-426.7882 785.1797,-423.0114 790.4873,-427.1441 785.5,-427.5 785.5,-427.5 785.5,-427.5 790.4873,-427.1441 785.8203,-431.9886 795.4746,-426.7882 795.4746,-426.7882"/>
</g>
</g>
</svg>
