<?xml version="1.0" encoding="UTF-8" standalone="no"?>
<!DOCTYPE svg PUBLIC "-//W3C//DTD SVG 1.1//EN"
 "http://www.w3.org/Graphics/SVG/1.1/DTD/svg11.dtd">
<!-- Generated by graphviz version 2.40.1 (20161225.0304)
 -->
<!-- Title: public.task_member Pages: 1 -->
<svg width="804pt" height="622pt"
 viewBox="0.00 0.00 804.00 622.00" xmlns="http://www.w3.org/2000/svg" xmlns:xlink="http://www.w3.org/1999/xlink">
<g id="graph0" class="graph" transform="scale(1 1) rotate(0) translate(4 618)">
<title>public.task_member</title>
<polygon fill="#ffffff" stroke="transparent" points="-4,4 -4,-618 800,-618 800,4 -4,4"/>
<!-- public.task_member -->
<g id="node1" class="node">
<title>public.task_member</title>
<polygon fill="#efefef" stroke="transparent" points="247.5,-532.5 247.5,-567.5 549.5,-567.5 549.5,-532.5 247.5,-532.5"/>
<polygon fill="none" stroke="#000000" points="247.5,-532.5 247.5,-567.5 549.5,-567.5 549.5,-532.5 247.5,-532.5"/>
<text text-anchor="start" x="254.2065" y="-545.3" font-family="Arial Bold" font-size="18.00" fill="#000000">public.task_member</text>
<text text-anchor="start" x="415.2255" y="-545.3" font-family="Arial" font-size="14.00" fill="#000000">    </text>
<text text-anchor="start" x="449.4303" y="-545.3" font-family="Arial" font-size="14.00" fill="#666666">[BASE TABLE]</text>
<polygon fill="none" stroke="#000000" points="247.5,-502.5 247.5,-532.5 549.5,-532.5 549.5,-502.5 247.5,-502.5"/>
<text text-anchor="start" x="254.5" y="-513.9" font-family="Arial" font-size="14.00" fill="#000000">task_member_id </text>
<text text-anchor="start" x="361.8478" y="-513.9" font-family="Arial" font-size="14.00" fill="#666666">[bigint]</text>
<polygon fill="none" stroke="#000000" points="247.5,-472.5 247.5,-502.5 549.5,-502.5 549.5,-472.5 247.5,-472.5"/>
<text text-anchor="start" x="254.5" y="-483.9" font-family="Arial" font-size="14.00" fill="#000000">task_id </text>
<text text-anchor="start" x="302.7356" y="-483.9" font-family="Arial" font-size="14.00" fill="#666666">[bigint]</text>
<polygon fill="none" stroke="#000000" points="247.5,-442.5 247.5,-472.5 549.5,-472.5 549.5,-442.5 247.5,-442.5"/>
<text text-anchor="start" x="254.5" y="-453.9" font-family="Arial" font-size="14.00" fill="#000000">user_account_id </text>
<text text-anchor="start" x="361.0918" y="-453.9" font-family="Arial" font-size="14.00" fill="#666666">[bigint]</text>
<polygon fill="none" stroke="#000000" stroke-width="3" points="246,-441.5 246,-569.5 551,-569.5 551,-441.5 246,-441.5"/>
</g>
<!-- public.task -->
<g id="node2" class="node">
<title>public.task</title>
<polygon fill="#efefef" stroke="transparent" points="43.5,-282.5 43.5,-317.5 346.5,-317.5 346.5,-282.5 43.5,-282.5"/>
<polygon fill="none" stroke="#000000" points="43.5,-282.5 43.5,-317.5 346.5,-317.5 346.5,-282.5 43.5,-282.5"/>
<text text-anchor="start" x="88.7072" y="-295.3" font-family="Arial Bold" font-size="18.00" fill="#000000">public.task</text>
<text text-anchor="start" x="173.7248" y="-295.3" font-family="Arial" font-size="14.00" fill="#000000">    </text>
<text text-anchor="start" x="207.9296" y="-295.3" font-family="Arial" font-size="14.00" fill="#666666">[BASE TABLE]</text>
<polygon fill="none" stroke="#000000" points="43.5,-252.5 43.5,-282.5 346.5,-282.5 346.5,-252.5 43.5,-252.5"/>
<text text-anchor="start" x="50.5" y="-263.9" font-family="Arial" font-size="14.00" fill="#000000">task_id    </text>
<text text-anchor="start" x="129.0498" y="-263.9" font-family="Arial" font-size="14.00" fill="#666666">[bigint]</text>
<polygon fill="none" stroke="#000000" points="43.5,-222.5 43.5,-252.5 346.5,-252.5 346.5,-222.5 43.5,-222.5"/>
<text text-anchor="start" x="50.5" y="-233.9" font-family="Arial" font-size="14.00" fill="#000000">project_id    </text>
<text text-anchor="start" x="145.3822" y="-233.9" font-family="Arial" font-size="14.00" fill="#666666">[bigint]</text>
<polygon fill="none" stroke="#000000" points="43.5,-192.5 43.5,-222.5 346.5,-222.5 346.5,-192.5 43.5,-192.5"/>
<text text-anchor="start" x="50.5" y="-203.9" font-family="Arial" font-size="14.00" fill="#000000">owner_user_account_id    </text>
<text text-anchor="start" x="233.3036" y="-203.9" font-family="Arial" font-size="14.00" fill="#666666">[bigint]</text>
<polygon fill="none" stroke="#000000" points="43.5,-162.5 43.5,-192.5 346.5,-192.5 346.5,-162.5 43.5,-162.5"/>
<text text-anchor="start" x="50.5" y="-173.9" font-family="Arial" font-size="14.00" fill="#000000">title    </text>
<text text-anchor="start" x="106.4818" y="-173.9" font-family="Arial" font-size="14.00" fill="#666666">[varchar(255)]</text>
<polygon fill="none" stroke="#000000" points="43.5,-132.5 43.5,-162.5 346.5,-162.5 346.5,-132.5 43.5,-132.5"/>
<text text-anchor="start" x="50.5" y="-143.9" font-family="Arial" font-size="14.00" fill="#000000">content    </text>
<text text-anchor="start" x="130.6164" y="-143.9" font-family="Arial" font-size="14.00" fill="#666666">[text]</text>
<polygon fill="none" stroke="#000000" points="43.5,-102.5 43.5,-132.5 346.5,-132.5 346.5,-102.5 43.5,-102.5"/>
<text text-anchor="start" x="50.5" y="-113.9" font-family="Arial" font-size="14.00" fill="#000000">created_at    </text>
<text text-anchor="start" x="150.8422" y="-113.9" font-family="Arial" font-size="14.00" fill="#666666">[timestamp without time zone]</text>
<polygon fill="none" stroke="#000000" points="43.5,-72.5 43.5,-102.5 346.5,-102.5 346.5,-72.5 43.5,-72.5"/>
<text text-anchor="start" x="50.3065" y="-83.9" font-family="Arial" font-size="14.00" fill="#000000">updated_at    </text>
<text text-anchor="start" x="154.5533" y="-83.9" font-family="Arial" font-size="14.00" fill="#666666">[timestamp without time zone]</text>
<polygon fill="none" stroke="#000000" points="43.5,-42.5 43.5,-72.5 346.5,-72.5 346.5,-42.5 43.5,-42.5"/>
<text text-anchor="start" x="50.5" y="-53.9" font-family="Arial" font-size="14.00" fill="#000000">is_deleted    </text>
<text text-anchor="start" x="148.5042" y="-53.9" font-family="Arial" font-size="14.00" fill="#666666">[boolean]</text>
</g>
<!-- public.task_member&#45;&gt;public.task -->
<g id="edge1" class="edge">
<title>public.task_member:task_id&#45;&gt;public.task:task_id</title>
<path fill="none" stroke="#000000" d="M237.3096,-485.9299C210.6833,-476.4934 226.6781,-426.7275 247.5,-397 274.3598,-358.6522 319.6402,-399.3478 346.5,-361 370.3403,-326.9632 388.0556,-267.5 346.5,-267.5"/>
<polygon fill="#000000" stroke="#000000" points="237.6166,-485.9771 246.8147,-491.9475 242.5583,-486.7385 247.5,-487.5 247.5,-487.5 247.5,-487.5 242.5583,-486.7385 248.1853,-483.0525 237.6166,-485.9771 237.6166,-485.9771"/>
</g>
<!-- public.user_account -->
<g id="node3" class="node">
<title>public.user_account</title>
<polygon fill="#efefef" stroke="transparent" points="450.5,-267.5 450.5,-302.5 753.5,-302.5 753.5,-267.5 450.5,-267.5"/>
<polygon fill="none" stroke="#000000" points="450.5,-267.5 450.5,-302.5 753.5,-302.5 753.5,-267.5 450.5,-267.5"/>
<text text-anchor="start" x="458.1925" y="-280.3" font-family="Arial Bold" font-size="18.00" fill="#000000">public.user_account</text>
<text text-anchor="start" x="618.2395" y="-280.3" font-family="Arial" font-size="14.00" fill="#000000">    </text>
<text text-anchor="start" x="652.4443" y="-280.3" font-family="Arial" font-size="14.00" fill="#666666">[BASE TABLE]</text>
<polygon fill="none" stroke="#000000" points="450.5,-237.5 450.5,-267.5 753.5,-267.5 753.5,-237.5 450.5,-237.5"/>
<text text-anchor="start" x="457.5" y="-248.9" font-family="Arial" font-size="14.00" fill="#000000">user_account_id    </text>
<text text-anchor="start" x="594.406" y="-248.9" font-family="Arial" font-size="14.00" fill="#666666">[bigint]</text>
<polygon fill="none" stroke="#000000" points="450.5,-207.5 450.5,-237.5 753.5,-237.5 753.5,-207.5 450.5,-207.5"/>
<text text-anchor="start" x="457.5" y="-218.9" font-family="Arial" font-size="14.00" fill="#000000">user_id    </text>
<text text-anchor="start" x="537.6024" y="-218.9" font-family="Arial" font-size="14.00" fill="#666666">[bigint]</text>
<polygon fill="none" stroke="#000000" points="450.5,-177.5 450.5,-207.5 753.5,-207.5 753.5,-177.5 450.5,-177.5"/>
<text text-anchor="start" x="457.5" y="-188.9" font-family="Arial" font-size="14.00" fill="#000000">user_account_name    </text>
<text text-anchor="start" x="618.5252" y="-188.9" font-family="Arial" font-size="14.00" fill="#666666">[varchar(255)]</text>
<polygon fill="none" stroke="#000000" points="450.5,-147.5 450.5,-177.5 753.5,-177.5 753.5,-147.5 450.5,-147.5"/>
<text text-anchor="start" x="457.5" y="-158.9" font-family="Arial" font-size="14.00" fill="#000000">display_name    </text>
<text text-anchor="start" x="578.0568" y="-158.9" font-family="Arial" font-size="14.00" fill="#666666">[varchar(255)]</text>
<polygon fill="none" stroke="#000000" points="450.5,-117.5 450.5,-147.5 753.5,-147.5 753.5,-117.5 450.5,-117.5"/>
<text text-anchor="start" x="457.5" y="-128.9" font-family="Arial" font-size="14.00" fill="#000000">created_at    </text>
<text text-anchor="start" x="557.8422" y="-128.9" font-family="Arial" font-size="14.00" fill="#666666">[timestamp without time zone]</text>
<polygon fill="none" stroke="#000000" points="450.5,-87.5 450.5,-117.5 753.5,-117.5 753.5,-87.5 450.5,-87.5"/>
<text text-anchor="start" x="457.3065" y="-98.9" font-family="Arial" font-size="14.00" fill="#000000">updated_at    </text>
<text text-anchor="start" x="561.5533" y="-98.9" font-family="Arial" font-size="14.00" fill="#666666">[timestamp without time zone]</text>
<polygon fill="none" stroke="#000000" points="450.5,-57.5 450.5,-87.5 753.5,-87.5 753.5,-57.5 450.5,-57.5"/>
<text text-anchor="start" x="457.5" y="-68.9" font-family="Arial" font-size="14.00" fill="#000000">is_deleted    </text>
<text text-anchor="start" x="555.5042" y="-68.9" font-family="Arial" font-size="14.00" fill="#666666">[boolean]</text>
</g>
<!-- public.task_member&#45;&gt;public.user_account -->
<g id="edge2" class="edge">
<title>public.task_member:user_account_id&#45;&gt;public.user_account:user_account_id</title>
<path fill="none" stroke="#000000" d="M559.3382,-454.9492C572.3335,-446.1241 561.3111,-416.3706 549.5,-397 523.7329,-354.7409 476.2671,-388.2591 450.5,-346 428.8663,-310.5198 408.9444,-252.5 450.5,-252.5"/>
<polygon fill="#000000" stroke="#000000" points="559.1799,-454.9901 548.3706,-453.144 554.34,-456.2451 549.5,-457.5 549.5,-457.5 549.5,-457.5 554.34,-456.2451 550.6294,-461.856 559.1799,-454.9901 559.1799,-454.9901"/>
</g>
</g>
</svg>
