<?xml version="1.0" encoding="UTF-8" standalone="no"?>
<!DOCTYPE svg PUBLIC "-//W3C//DTD SVG 1.1//EN"
 "http://www.w3.org/Graphics/SVG/1.1/DTD/svg11.dtd">
<!-- Generated by graphviz version 2.40.1 (20161225.0304)
 -->
<!-- Title: public.user Pages: 1 -->
<svg width="1307pt" height="682pt"
 viewBox="0.00 0.00 1306.50 682.00" xmlns="http://www.w3.org/2000/svg" xmlns:xlink="http://www.w3.org/1999/xlink">
<g id="graph0" class="graph" transform="scale(1 1) rotate(0) translate(4 678)">
<title>public.user</title>
<polygon fill="#ffffff" stroke="transparent" points="-4,4 -4,-678 1302.5,-678 1302.5,4 -4,4"/>
<!-- public.user -->
<g id="node1" class="node">
<title>public.user</title>
<polygon fill="#efefef" stroke="transparent" points="477.5,-195.5 477.5,-230.5 750.5,-230.5 750.5,-195.5 477.5,-195.5"/>
<polygon fill="none" stroke="#000000" points="477.5,-195.5 477.5,-230.5 750.5,-230.5 750.5,-195.5 477.5,-195.5"/>
<text text-anchor="start" x="506.7091" y="-208.3" font-family="Arial Bold" font-size="18.00" fill="#000000">public.user</text>
<text text-anchor="start" x="593.7229" y="-208.3" font-family="Arial" font-size="14.00" fill="#000000">    </text>
<text text-anchor="start" x="627.9277" y="-208.3" font-family="Arial" font-size="14.00" fill="#666666">[BASE TABLE]</text>
<polygon fill="none" stroke="#000000" points="477.5,-165.5 477.5,-195.5 750.5,-195.5 750.5,-165.5 477.5,-165.5"/>
<text text-anchor="start" x="484.5" y="-176.9" font-family="Arial" font-size="14.00" fill="#000000">user_id </text>
<text text-anchor="start" x="534.2882" y="-176.9" font-family="Arial" font-size="14.00" fill="#666666">[bigint]</text>
<polygon fill="none" stroke="#000000" points="477.5,-135.5 477.5,-165.5 750.5,-165.5 750.5,-135.5 477.5,-135.5"/>
<text text-anchor="start" x="484.5" y="-146.9" font-family="Arial" font-size="14.00" fill="#000000">email </text>
<text text-anchor="start" x="521.8296" y="-146.9" font-family="Arial" font-size="14.00" fill="#666666">[varchar(255)]</text>
<polygon fill="none" stroke="#000000" points="477.5,-105.5 477.5,-135.5 750.5,-135.5 750.5,-105.5 477.5,-105.5"/>
<text text-anchor="start" x="484.5" y="-116.9" font-family="Arial" font-size="14.00" fill="#000000">created_at </text>
<text text-anchor="start" x="554.528" y="-116.9" font-family="Arial" font-size="14.00" fill="#666666">[timestamp without time zone]</text>
<polygon fill="none" stroke="#000000" points="477.5,-75.5 477.5,-105.5 750.5,-105.5 750.5,-75.5 477.5,-75.5"/>
<text text-anchor="start" x="484.4636" y="-86.9" font-family="Arial" font-size="14.00" fill="#000000">updated_at </text>
<text text-anchor="start" x="558.3962" y="-86.9" font-family="Arial" font-size="14.00" fill="#666666">[timestamp without time zone]</text>
<polygon fill="none" stroke="#000000" points="477.5,-45.5 477.5,-75.5 750.5,-75.5 750.5,-45.5 477.5,-45.5"/>
<text text-anchor="start" x="484.5" y="-56.9" font-family="Arial" font-size="14.00" fill="#000000">is_deleted </text>
<text text-anchor="start" x="552.19" y="-56.9" font-family="Arial" font-size="14.00" fill="#666666">[boolean]</text>
<polygon fill="none" stroke="#000000" stroke-width="3" points="475.5,-44.5 475.5,-232.5 751.5,-232.5 751.5,-44.5 475.5,-44.5"/>
</g>
<!-- public.user_auth -->
<g id="node2" class="node">
<title>public.user_auth</title>
<polygon fill="#efefef" stroke="transparent" points="43.5,-550.5 43.5,-585.5 346.5,-585.5 346.5,-550.5 43.5,-550.5"/>
<polygon fill="none" stroke="#000000" points="43.5,-550.5 43.5,-585.5 346.5,-585.5 346.5,-550.5 43.5,-550.5"/>
<text text-anchor="start" x="65.1956" y="-563.3" font-family="Arial Bold" font-size="18.00" fill="#000000">public.user_auth</text>
<text text-anchor="start" x="197.2364" y="-563.3" font-family="Arial" font-size="14.00" fill="#000000">    </text>
<text text-anchor="start" x="231.4412" y="-563.3" font-family="Arial" font-size="14.00" fill="#666666">[BASE TABLE]</text>
<polygon fill="none" stroke="#000000" points="43.5,-520.5 43.5,-550.5 346.5,-550.5 346.5,-520.5 43.5,-520.5"/>
<text text-anchor="start" x="50.5" y="-531.9" font-family="Arial" font-size="14.00" fill="#000000">user_auth_id    </text>
<text text-anchor="start" x="165.6234" y="-531.9" font-family="Arial" font-size="14.00" fill="#666666">[bigint]</text>
<polygon fill="none" stroke="#000000" points="43.5,-490.5 43.5,-520.5 346.5,-520.5 346.5,-490.5 43.5,-490.5"/>
<text text-anchor="start" x="50.5" y="-501.9" font-family="Arial" font-size="14.00" fill="#000000">user_id    </text>
<text text-anchor="start" x="130.6024" y="-501.9" font-family="Arial" font-size="14.00" fill="#666666">[bigint]</text>
<polygon fill="none" stroke="#000000" points="43.5,-460.5 43.5,-490.5 346.5,-490.5 346.5,-460.5 43.5,-460.5"/>
<text text-anchor="start" x="50.5" y="-471.9" font-family="Arial" font-size="14.00" fill="#000000">password    </text>
<text text-anchor="start" x="144.6024" y="-471.9" font-family="Arial" font-size="14.00" fill="#666666">[varchar(255)]</text>
<polygon fill="none" stroke="#000000" points="43.5,-430.5 43.5,-460.5 346.5,-460.5 346.5,-430.5 43.5,-430.5"/>
<text text-anchor="start" x="50.5" y="-441.9" font-family="Arial" font-size="14.00" fill="#000000">created_at    </text>
<text text-anchor="start" x="150.8422" y="-441.9" font-family="Arial" font-size="14.00" fill="#666666">[timestamp without time zone]</text>
<polygon fill="none" stroke="#000000" points="43.5,-400.5 43.5,-430.5 346.5,-430.5 346.5,-400.5 43.5,-400.5"/>
<text text-anchor="start" x="50.3065" y="-411.9" font-family="Arial" font-size="14.00" fill="#000000">updated_at    </text>
<text text-anchor="start" x="154.5533" y="-411.9" font-family="Arial" font-size="14.00" fill="#666666">[timestamp without time zone]</text>
</g>
<!-- public.user_auth&#45;&gt;public.user -->
<g id="edge1" class="edge">
<title>public.user_auth:user_id&#45;&gt;public.user:user_id</title>
<path fill="none" stroke="#000000" d="M356.5986,-504.9494C429.2752,-496.4428 364.3623,-391.141 397.5,-313 424.3571,-249.6691 408.7097,-180.5 477.5,-180.5"/>
<polygon fill="#000000" stroke="#000000" points="356.4852,-504.9555 346.255,-501.0067 351.4926,-505.2278 346.5,-505.5 346.5,-505.5 346.5,-505.5 351.4926,-505.2278 346.745,-509.9933 356.4852,-504.9555 356.4852,-504.9555"/>
</g>
<!-- public.user_account -->
<g id="node3" class="node">
<title>public.user_account</title>
<polygon fill="#efefef" stroke="transparent" points="450.5,-595.5 450.5,-630.5 777.5,-630.5 777.5,-595.5 450.5,-595.5"/>
<polygon fill="none" stroke="#000000" points="450.5,-595.5 450.5,-630.5 777.5,-630.5 777.5,-595.5 450.5,-595.5"/>
<text text-anchor="start" x="470.1925" y="-608.3" font-family="Arial Bold" font-size="18.00" fill="#000000">public.user_account</text>
<text text-anchor="start" x="630.2395" y="-608.3" font-family="Arial" font-size="14.00" fill="#000000">    </text>
<text text-anchor="start" x="664.4443" y="-608.3" font-family="Arial" font-size="14.00" fill="#666666">[BASE TABLE]</text>
<polygon fill="none" stroke="#000000" points="450.5,-565.5 450.5,-595.5 777.5,-595.5 777.5,-565.5 450.5,-565.5"/>
<text text-anchor="start" x="457.5" y="-576.9" font-family="Arial" font-size="14.00" fill="#000000">user_account_id    </text>
<text text-anchor="start" x="594.406" y="-576.9" font-family="Arial" font-size="14.00" fill="#666666">[bigint]</text>
<polygon fill="none" stroke="#000000" points="450.5,-535.5 450.5,-565.5 777.5,-565.5 777.5,-535.5 450.5,-535.5"/>
<text text-anchor="start" x="457.5" y="-546.9" font-family="Arial" font-size="14.00" fill="#000000">user_id    </text>
<text text-anchor="start" x="537.6024" y="-546.9" font-family="Arial" font-size="14.00" fill="#666666">[bigint]</text>
<polygon fill="none" stroke="#000000" points="450.5,-505.5 450.5,-535.5 777.5,-535.5 777.5,-505.5 450.5,-505.5"/>
<text text-anchor="start" x="457.5" y="-516.9" font-family="Arial" font-size="14.00" fill="#000000">user_account_name    </text>
<text text-anchor="start" x="618.5252" y="-516.9" font-family="Arial" font-size="14.00" fill="#666666">[varchar(255)]</text>
<polygon fill="none" stroke="#000000" points="450.5,-475.5 450.5,-505.5 777.5,-505.5 777.5,-475.5 450.5,-475.5"/>
<text text-anchor="start" x="457.5" y="-486.9" font-family="Arial" font-size="14.00" fill="#000000">display_name    </text>
<text text-anchor="start" x="578.0568" y="-486.9" font-family="Arial" font-size="14.00" fill="#666666">[varchar(255)]</text>
<polygon fill="none" stroke="#000000" points="450.5,-445.5 450.5,-475.5 777.5,-475.5 777.5,-445.5 450.5,-445.5"/>
<text text-anchor="start" x="457.2553" y="-456.9" font-family="Arial" font-size="14.00" fill="#000000">last_logined_at    </text>
<text text-anchor="start" x="585.6045" y="-456.9" font-family="Arial" font-size="14.00" fill="#666666">[timestamp without time zone]</text>
<polygon fill="none" stroke="#000000" points="450.5,-415.5 450.5,-445.5 777.5,-445.5 777.5,-415.5 450.5,-415.5"/>
<text text-anchor="start" x="457.5" y="-426.9" font-family="Arial" font-size="14.00" fill="#000000">created_at    </text>
<text text-anchor="start" x="557.8422" y="-426.9" font-family="Arial" font-size="14.00" fill="#666666">[timestamp without time zone]</text>
<polygon fill="none" stroke="#000000" points="450.5,-385.5 450.5,-415.5 777.5,-415.5 777.5,-385.5 450.5,-385.5"/>
<text text-anchor="start" x="457.5" y="-396.9" font-family="Arial" font-size="14.00" fill="#000000">updated_at    </text>
<text text-anchor="start" x="561.7468" y="-396.9" font-family="Arial" font-size="14.00" fill="#666666">[timestamp without time zone]</text>
<polygon fill="none" stroke="#000000" points="450.5,-355.5 450.5,-385.5 777.5,-385.5 777.5,-355.5 450.5,-355.5"/>
<text text-anchor="start" x="457.5" y="-366.9" font-family="Arial" font-size="14.00" fill="#000000">is_deleted    </text>
<text text-anchor="start" x="555.5042" y="-366.9" font-family="Arial" font-size="14.00" fill="#666666">[boolean]</text>
</g>
<!-- public.user_account&#45;&gt;public.user -->
<g id="edge2" class="edge">
<title>public.user_account:user_id&#45;&gt;public.user:user_id</title>
<path fill="none" stroke="#000000" d="M440.4748,-548.5093C370.4818,-519.3863 398.6015,-180.5 477.5,-180.5"/>
<polygon fill="#000000" stroke="#000000" points="440.6915,-548.5523 449.6235,-554.9138 445.5958,-549.5261 450.5,-550.5 450.5,-550.5 450.5,-550.5 445.5958,-549.5261 451.3765,-546.0862 440.6915,-548.5523 440.6915,-548.5523"/>
</g>
<!-- public.reset_password_token -->
<g id="node4" class="node">
<title>public.reset_password_token</title>
<polygon fill="#efefef" stroke="transparent" points="881.5,-535.5 881.5,-570.5 1255.5,-570.5 1255.5,-535.5 881.5,-535.5"/>
<polygon fill="none" stroke="#000000" points="881.5,-535.5 881.5,-570.5 1255.5,-570.5 1255.5,-535.5 881.5,-535.5"/>
<text text-anchor="start" x="888.1858" y="-548.3" font-family="Arial Bold" font-size="18.00" fill="#000000">public.reset_password_token</text>
<text text-anchor="start" x="1121.2462" y="-548.3" font-family="Arial" font-size="14.00" fill="#000000">    </text>
<text text-anchor="start" x="1155.451" y="-548.3" font-family="Arial" font-size="14.00" fill="#666666">[BASE TABLE]</text>
<polygon fill="none" stroke="#000000" points="881.5,-505.5 881.5,-535.5 1255.5,-535.5 1255.5,-505.5 881.5,-505.5"/>
<text text-anchor="start" x="888.5" y="-516.9" font-family="Arial" font-size="14.00" fill="#000000">reset_password_token_id    </text>
<text text-anchor="start" x="1082.1942" y="-516.9" font-family="Arial" font-size="14.00" fill="#666666">[bigint]</text>
<polygon fill="none" stroke="#000000" points="881.5,-475.5 881.5,-505.5 1255.5,-505.5 1255.5,-475.5 881.5,-475.5"/>
<text text-anchor="start" x="888.5" y="-486.9" font-family="Arial" font-size="14.00" fill="#000000">user_id    </text>
<text text-anchor="start" x="968.6024" y="-486.9" font-family="Arial" font-size="14.00" fill="#666666">[bigint]</text>
<polygon fill="none" stroke="#000000" points="881.5,-445.5 881.5,-475.5 1255.5,-475.5 1255.5,-445.5 881.5,-445.5"/>
<text text-anchor="start" x="888.5" y="-456.9" font-family="Arial" font-size="14.00" fill="#000000">token    </text>
<text text-anchor="start" x="956.9432" y="-456.9" font-family="Arial" font-size="14.00" fill="#666666">[varchar(255)]</text>
<polygon fill="none" stroke="#000000" points="881.5,-415.5 881.5,-445.5 1255.5,-445.5 1255.5,-415.5 881.5,-415.5"/>
<text text-anchor="start" x="888.5" y="-426.9" font-family="Arial" font-size="14.00" fill="#000000">created_at    </text>
<text text-anchor="start" x="988.8422" y="-426.9" font-family="Arial" font-size="14.00" fill="#666666">[timestamp without time zone]</text>
</g>
<!-- public.reset_password_token&#45;&gt;public.user -->
<g id="edge3" class="edge">
<title>public.reset_password_token:user_id&#45;&gt;public.user:user_id</title>
<path fill="none" stroke="#000000" d="M871.2793,-489.8933C804.7684,-481.3764 860.8899,-384.9636 829.5,-313 802.0882,-250.1566 819.0616,-180.5 750.5,-180.5"/>
<polygon fill="#000000" stroke="#000000" points="871.5176,-489.9073 881.2333,-494.9921 876.5088,-490.2037 881.5,-490.5 881.5,-490.5 881.5,-490.5 876.5088,-490.2037 881.7667,-486.0079 871.5176,-489.9073 871.5176,-489.9073"/>
</g>
</g>
</svg>
