<?xml version="1.0" encoding="UTF-8" standalone="no"?>
<!DOCTYPE svg PUBLIC "-//W3C//DTD SVG 1.1//EN"
 "http://www.w3.org/Graphics/SVG/1.1/DTD/svg11.dtd">
<!-- Generated by graphviz version 2.40.1 (20161225.0304)
 -->
<!-- Title: public.organization_member Pages: 1 -->
<svg width="1379pt" height="652pt"
 viewBox="0.00 0.00 1378.50 652.00" xmlns="http://www.w3.org/2000/svg" xmlns:xlink="http://www.w3.org/1999/xlink">
<g id="graph0" class="graph" transform="scale(1 1) rotate(0) translate(4 648)">
<title>public.organization_member</title>
<polygon fill="#ffffff" stroke="transparent" points="-4,4 -4,-648 1374.5,-648 1374.5,4 -4,4"/>
<!-- public.organization_member -->
<g id="node1" class="node">
<title>public.organization_member</title>
<polygon fill="#efefef" stroke="transparent" points="430.5,-562.5 430.5,-597.5 797.5,-597.5 797.5,-562.5 430.5,-562.5"/>
<polygon fill="none" stroke="#000000" points="430.5,-562.5 430.5,-597.5 797.5,-597.5 797.5,-562.5 430.5,-562.5"/>
<text text-anchor="start" x="437.1976" y="-575.3" font-family="Arial Bold" font-size="18.00" fill="#000000">public.organization_member</text>
<text text-anchor="start" x="663.2344" y="-575.3" font-family="Arial" font-size="14.00" fill="#000000">    </text>
<text text-anchor="start" x="697.4392" y="-575.3" font-family="Arial" font-size="14.00" fill="#666666">[BASE TABLE]</text>
<polygon fill="none" stroke="#000000" points="430.5,-532.5 430.5,-562.5 797.5,-562.5 797.5,-532.5 430.5,-532.5"/>
<text text-anchor="start" x="437.5" y="-543.9" font-family="Arial" font-size="14.00" fill="#000000">organization_member_id </text>
<text text-anchor="start" x="595.4172" y="-543.9" font-family="Arial" font-size="14.00" fill="#666666">[bigint]</text>
<polygon fill="none" stroke="#000000" points="430.5,-502.5 430.5,-532.5 797.5,-532.5 797.5,-502.5 430.5,-502.5"/>
<text text-anchor="start" x="437.5" y="-513.9" font-family="Arial" font-size="14.00" fill="#000000">organization_id </text>
<text text-anchor="start" x="536.305" y="-513.9" font-family="Arial" font-size="14.00" fill="#666666">[bigint]</text>
<polygon fill="none" stroke="#000000" points="430.5,-472.5 430.5,-502.5 797.5,-502.5 797.5,-472.5 430.5,-472.5"/>
<text text-anchor="start" x="437.5" y="-483.9" font-family="Arial" font-size="14.00" fill="#000000">user_account_id </text>
<text text-anchor="start" x="544.0918" y="-483.9" font-family="Arial" font-size="14.00" fill="#666666">[bigint]</text>
<polygon fill="none" stroke="#000000" points="430.5,-442.5 430.5,-472.5 797.5,-472.5 797.5,-442.5 430.5,-442.5"/>
<text text-anchor="start" x="437.5" y="-453.9" font-family="Arial" font-size="14.00" fill="#000000">organization_member_authority_id </text>
<text text-anchor="start" x="656.8786" y="-453.9" font-family="Arial" font-size="14.00" fill="#666666">[bigint]</text>
<polygon fill="none" stroke="#000000" stroke-width="3" points="428.5,-441.5 428.5,-599.5 798.5,-599.5 798.5,-441.5 428.5,-441.5"/>
</g>
<!-- public.organization -->
<g id="node2" class="node">
<title>public.organization</title>
<polygon fill="#efefef" stroke="transparent" points="43.5,-252.5 43.5,-287.5 346.5,-287.5 346.5,-252.5 43.5,-252.5"/>
<polygon fill="none" stroke="#000000" points="43.5,-252.5 43.5,-287.5 346.5,-287.5 346.5,-252.5 43.5,-252.5"/>
<text text-anchor="start" x="56.1983" y="-265.3" font-family="Arial Bold" font-size="18.00" fill="#000000">public.organization</text>
<text text-anchor="start" x="206.2337" y="-265.3" font-family="Arial" font-size="14.00" fill="#000000">    </text>
<text text-anchor="start" x="240.4385" y="-265.3" font-family="Arial" font-size="14.00" fill="#666666">[BASE TABLE]</text>
<polygon fill="none" stroke="#000000" points="43.5,-222.5 43.5,-252.5 346.5,-252.5 346.5,-222.5 43.5,-222.5"/>
<text text-anchor="start" x="50.5" y="-233.9" font-family="Arial" font-size="14.00" fill="#000000">organization_id    </text>
<text text-anchor="start" x="179.6192" y="-233.9" font-family="Arial" font-size="14.00" fill="#666666">[bigint]</text>
<polygon fill="none" stroke="#000000" points="43.5,-192.5 43.5,-222.5 346.5,-222.5 346.5,-192.5 43.5,-192.5"/>
<text text-anchor="start" x="50.5" y="-203.9" font-family="Arial" font-size="14.00" fill="#000000">organization_name    </text>
<text text-anchor="start" x="203.7384" y="-203.9" font-family="Arial" font-size="14.00" fill="#666666">[varchar(255)]</text>
<polygon fill="none" stroke="#000000" points="43.5,-162.5 43.5,-192.5 346.5,-192.5 346.5,-162.5 43.5,-162.5"/>
<text text-anchor="start" x="50.5" y="-173.9" font-family="Arial" font-size="14.00" fill="#000000">display_name    </text>
<text text-anchor="start" x="171.0568" y="-173.9" font-family="Arial" font-size="14.00" fill="#666666">[varchar(255)]</text>
<polygon fill="none" stroke="#000000" points="43.5,-132.5 43.5,-162.5 346.5,-162.5 346.5,-132.5 43.5,-132.5"/>
<text text-anchor="start" x="50.5" y="-143.9" font-family="Arial" font-size="14.00" fill="#000000">created_at    </text>
<text text-anchor="start" x="150.8422" y="-143.9" font-family="Arial" font-size="14.00" fill="#666666">[timestamp without time zone]</text>
<polygon fill="none" stroke="#000000" points="43.5,-102.5 43.5,-132.5 346.5,-132.5 346.5,-102.5 43.5,-102.5"/>
<text text-anchor="start" x="50.3065" y="-113.9" font-family="Arial" font-size="14.00" fill="#000000">updated_at    </text>
<text text-anchor="start" x="154.5533" y="-113.9" font-family="Arial" font-size="14.00" fill="#666666">[timestamp without time zone]</text>
<polygon fill="none" stroke="#000000" points="43.5,-72.5 43.5,-102.5 346.5,-102.5 346.5,-72.5 43.5,-72.5"/>
<text text-anchor="start" x="50.5" y="-83.9" font-family="Arial" font-size="14.00" fill="#000000">is_deleted    </text>
<text text-anchor="start" x="148.5042" y="-83.9" font-family="Arial" font-size="14.00" fill="#666666">[boolean]</text>
</g>
<!-- public.organization_member&#45;&gt;public.organization -->
<g id="edge1" class="edge">
<title>public.organization_member:organization_id&#45;&gt;public.organization:organization_id</title>
<path fill="none" stroke="#000000" d="M420.5155,-516.8834C309.9642,-502.3969 472.8712,-237.5 346.5,-237.5"/>
<polygon fill="#000000" stroke="#000000" points="420.519,-516.8835 430.2226,-521.9914 425.5095,-517.1918 430.5,-517.5 430.5,-517.5 430.5,-517.5 425.5095,-517.1918 430.7774,-513.0086 420.519,-516.8835 420.519,-516.8835"/>
</g>
<!-- public.user_account -->
<g id="node3" class="node">
<title>public.user_account</title>
<polygon fill="#efefef" stroke="transparent" points="450.5,-282.5 450.5,-317.5 777.5,-317.5 777.5,-282.5 450.5,-282.5"/>
<polygon fill="none" stroke="#000000" points="450.5,-282.5 450.5,-317.5 777.5,-317.5 777.5,-282.5 450.5,-282.5"/>
<text text-anchor="start" x="470.1925" y="-295.3" font-family="Arial Bold" font-size="18.00" fill="#000000">public.user_account</text>
<text text-anchor="start" x="630.2395" y="-295.3" font-family="Arial" font-size="14.00" fill="#000000">    </text>
<text text-anchor="start" x="664.4443" y="-295.3" font-family="Arial" font-size="14.00" fill="#666666">[BASE TABLE]</text>
<polygon fill="none" stroke="#000000" points="450.5,-252.5 450.5,-282.5 777.5,-282.5 777.5,-252.5 450.5,-252.5"/>
<text text-anchor="start" x="457.5" y="-263.9" font-family="Arial" font-size="14.00" fill="#000000">user_account_id    </text>
<text text-anchor="start" x="594.406" y="-263.9" font-family="Arial" font-size="14.00" fill="#666666">[bigint]</text>
<polygon fill="none" stroke="#000000" points="450.5,-222.5 450.5,-252.5 777.5,-252.5 777.5,-222.5 450.5,-222.5"/>
<text text-anchor="start" x="457.5" y="-233.9" font-family="Arial" font-size="14.00" fill="#000000">user_id    </text>
<text text-anchor="start" x="537.6024" y="-233.9" font-family="Arial" font-size="14.00" fill="#666666">[bigint]</text>
<polygon fill="none" stroke="#000000" points="450.5,-192.5 450.5,-222.5 777.5,-222.5 777.5,-192.5 450.5,-192.5"/>
<text text-anchor="start" x="457.5" y="-203.9" font-family="Arial" font-size="14.00" fill="#000000">user_account_name    </text>
<text text-anchor="start" x="618.5252" y="-203.9" font-family="Arial" font-size="14.00" fill="#666666">[varchar(255)]</text>
<polygon fill="none" stroke="#000000" points="450.5,-162.5 450.5,-192.5 777.5,-192.5 777.5,-162.5 450.5,-162.5"/>
<text text-anchor="start" x="457.5" y="-173.9" font-family="Arial" font-size="14.00" fill="#000000">display_name    </text>
<text text-anchor="start" x="578.0568" y="-173.9" font-family="Arial" font-size="14.00" fill="#666666">[varchar(255)]</text>
<polygon fill="none" stroke="#000000" points="450.5,-132.5 450.5,-162.5 777.5,-162.5 777.5,-132.5 450.5,-132.5"/>
<text text-anchor="start" x="457.2553" y="-143.9" font-family="Arial" font-size="14.00" fill="#000000">last_logined_at    </text>
<text text-anchor="start" x="585.6045" y="-143.9" font-family="Arial" font-size="14.00" fill="#666666">[timestamp without time zone]</text>
<polygon fill="none" stroke="#000000" points="450.5,-102.5 450.5,-132.5 777.5,-132.5 777.5,-102.5 450.5,-102.5"/>
<text text-anchor="start" x="457.5" y="-113.9" font-family="Arial" font-size="14.00" fill="#000000">created_at    </text>
<text text-anchor="start" x="557.8422" y="-113.9" font-family="Arial" font-size="14.00" fill="#666666">[timestamp without time zone]</text>
<polygon fill="none" stroke="#000000" points="450.5,-72.5 450.5,-102.5 777.5,-102.5 777.5,-72.5 450.5,-72.5"/>
<text text-anchor="start" x="457.5" y="-83.9" font-family="Arial" font-size="14.00" fill="#000000">updated_at    </text>
<text text-anchor="start" x="561.7468" y="-83.9" font-family="Arial" font-size="14.00" fill="#666666">[timestamp without time zone]</text>
<polygon fill="none" stroke="#000000" points="450.5,-42.5 450.5,-72.5 777.5,-72.5 777.5,-42.5 450.5,-42.5"/>
<text text-anchor="start" x="457.5" y="-53.9" font-family="Arial" font-size="14.00" fill="#000000">is_deleted    </text>
<text text-anchor="start" x="555.5042" y="-53.9" font-family="Arial" font-size="14.00" fill="#666666">[boolean]</text>
</g>
<!-- public.organization_member&#45;&gt;public.user_account -->
<g id="edge2" class="edge">
<title>public.organization_member:user_account_id&#45;&gt;public.user_account:user_account_id</title>
<path fill="none" stroke="#000000" d="M420.6951,-484.0443C384.5385,-456.0556 405.0529,-267.5 450.5,-267.5"/>
<polygon fill="#000000" stroke="#000000" points="421.0686,-484.1759 429.0042,-491.7441 425.7843,-485.838 430.5,-487.5 430.5,-487.5 430.5,-487.5 425.7843,-485.838 431.9958,-483.2559 421.0686,-484.1759 421.0686,-484.1759"/>
</g>
<!-- public.organization_member_authority -->
<g id="node4" class="node">
<title>public.organization_member_authority</title>
<polygon fill="#efefef" stroke="transparent" points="881.5,-207.5 881.5,-242.5 1327.5,-242.5 1327.5,-207.5 881.5,-207.5"/>
<polygon fill="none" stroke="#000000" points="881.5,-207.5 881.5,-242.5 1327.5,-242.5 1327.5,-207.5 881.5,-207.5"/>
<text text-anchor="start" x="888.1867" y="-220.3" font-family="Arial Bold" font-size="18.00" fill="#000000">public.organization_member_authority</text>
<text text-anchor="start" x="1193.2453" y="-220.3" font-family="Arial" font-size="14.00" fill="#000000">    </text>
<text text-anchor="start" x="1227.4501" y="-220.3" font-family="Arial" font-size="14.00" fill="#666666">[BASE TABLE]</text>
<polygon fill="none" stroke="#000000" points="881.5,-177.5 881.5,-207.5 1327.5,-207.5 1327.5,-177.5 881.5,-177.5"/>
<text text-anchor="start" x="888.5" y="-188.9" font-family="Arial" font-size="14.00" fill="#000000">organization_member_authority_id    </text>
<text text-anchor="start" x="1138.1928" y="-188.9" font-family="Arial" font-size="14.00" fill="#666666">[bigint]</text>
<polygon fill="none" stroke="#000000" points="881.5,-147.5 881.5,-177.5 1327.5,-177.5 1327.5,-147.5 881.5,-147.5"/>
<text text-anchor="start" x="888.5" y="-158.9" font-family="Arial" font-size="14.00" fill="#000000">symbol    </text>
<text text-anchor="start" x="967.0372" y="-158.9" font-family="Arial" font-size="14.00" fill="#666666">[varchar(255)]</text>
<polygon fill="none" stroke="#000000" points="881.5,-117.5 881.5,-147.5 1327.5,-147.5 1327.5,-117.5 881.5,-117.5"/>
<text text-anchor="start" x="888.5" y="-128.9" font-family="Arial" font-size="14.00" fill="#000000">value    </text>
<text text-anchor="start" x="956.1592" y="-128.9" font-family="Arial" font-size="14.00" fill="#666666">[integer]</text>
</g>
<!-- public.organization_member&#45;&gt;public.organization_member_authority -->
<g id="edge3" class="edge">
<title>public.organization_member:organization_member_authority_id&#45;&gt;public.organization_member_authority:organization_member_authority_id</title>
<path fill="none" stroke="#000000" d="M807.6355,-456.831C911.7422,-442.2001 761.5666,-192.5 881.5,-192.5"/>
<polygon fill="#000000" stroke="#000000" points="807.4783,-456.8413 797.2036,-453.0098 802.4891,-457.1706 797.5,-457.5 797.5,-457.5 797.5,-457.5 802.4891,-457.1706 797.7964,-461.9902 807.4783,-456.8413 807.4783,-456.8413"/>
</g>
</g>
</svg>
