<?xml version="1.0" encoding="UTF-8" standalone="no"?>
<!DOCTYPE svg PUBLIC "-//W3C//DTD SVG 1.1//EN"
 "http://www.w3.org/Graphics/SVG/1.1/DTD/svg11.dtd">
<!-- Generated by graphviz version 2.40.1 (20161225.0304)
 -->
<!-- Title: public.project_member Pages: 1 -->
<svg width="1311pt" height="622pt"
 viewBox="0.00 0.00 1310.50 622.00" xmlns="http://www.w3.org/2000/svg" xmlns:xlink="http://www.w3.org/1999/xlink">
<g id="graph0" class="graph" transform="scale(1 1) rotate(0) translate(4 618)">
<title>public.project_member</title>
<polygon fill="#ffffff" stroke="transparent" points="-4,4 -4,-618 1306.5,-618 1306.5,4 -4,4"/>
<!-- public.project_member -->
<g id="node1" class="node">
<title>public.project_member</title>
<polygon fill="#efefef" stroke="transparent" points="440.5,-532.5 440.5,-567.5 763.5,-567.5 763.5,-532.5 440.5,-532.5"/>
<polygon fill="none" stroke="#000000" points="440.5,-532.5 440.5,-567.5 763.5,-567.5 763.5,-532.5 440.5,-532.5"/>
<text text-anchor="start" x="447.2071" y="-545.3" font-family="Arial Bold" font-size="18.00" fill="#000000">public.project_member</text>
<text text-anchor="start" x="629.2249" y="-545.3" font-family="Arial" font-size="14.00" fill="#000000">    </text>
<text text-anchor="start" x="663.4297" y="-545.3" font-family="Arial" font-size="14.00" fill="#666666">[BASE TABLE]</text>
<polygon fill="none" stroke="#000000" points="440.5,-502.5 440.5,-532.5 763.5,-532.5 763.5,-502.5 440.5,-502.5"/>
<text text-anchor="start" x="447.5" y="-513.9" font-family="Arial" font-size="14.00" fill="#000000">project_member_id </text>
<text text-anchor="start" x="571.1802" y="-513.9" font-family="Arial" font-size="14.00" fill="#666666">[bigint]</text>
<polygon fill="none" stroke="#000000" points="440.5,-472.5 440.5,-502.5 763.5,-502.5 763.5,-472.5 440.5,-472.5"/>
<text text-anchor="start" x="447.5" y="-483.9" font-family="Arial" font-size="14.00" fill="#000000">project_id </text>
<text text-anchor="start" x="512.068" y="-483.9" font-family="Arial" font-size="14.00" fill="#666666">[bigint]</text>
<polygon fill="none" stroke="#000000" points="440.5,-442.5 440.5,-472.5 763.5,-472.5 763.5,-442.5 440.5,-442.5"/>
<text text-anchor="start" x="447.5" y="-453.9" font-family="Arial" font-size="14.00" fill="#000000">user_account_id </text>
<text text-anchor="start" x="554.0918" y="-453.9" font-family="Arial" font-size="14.00" fill="#666666">[bigint]</text>
<polygon fill="none" stroke="#000000" points="440.5,-412.5 440.5,-442.5 763.5,-442.5 763.5,-412.5 440.5,-412.5"/>
<text text-anchor="start" x="447.5" y="-423.9" font-family="Arial" font-size="14.00" fill="#000000">project_member_authority_id </text>
<text text-anchor="start" x="632.6416" y="-423.9" font-family="Arial" font-size="14.00" fill="#666666">[bigint]</text>
<polygon fill="none" stroke="#000000" stroke-width="3" points="438.5,-411.5 438.5,-569.5 764.5,-569.5 764.5,-411.5 438.5,-411.5"/>
</g>
<!-- public.project -->
<g id="node2" class="node">
<title>public.project</title>
<polygon fill="#efefef" stroke="transparent" points="43.5,-252.5 43.5,-287.5 346.5,-287.5 346.5,-252.5 43.5,-252.5"/>
<polygon fill="none" stroke="#000000" points="43.5,-252.5 43.5,-287.5 346.5,-287.5 346.5,-252.5 43.5,-252.5"/>
<text text-anchor="start" x="78.2078" y="-265.3" font-family="Arial Bold" font-size="18.00" fill="#000000">public.project</text>
<text text-anchor="start" x="184.2242" y="-265.3" font-family="Arial" font-size="14.00" fill="#000000">    </text>
<text text-anchor="start" x="218.429" y="-265.3" font-family="Arial" font-size="14.00" fill="#666666">[BASE TABLE]</text>
<polygon fill="none" stroke="#000000" points="43.5,-222.5 43.5,-252.5 346.5,-252.5 346.5,-222.5 43.5,-222.5"/>
<text text-anchor="start" x="50.5" y="-233.9" font-family="Arial" font-size="14.00" fill="#000000">project_id    </text>
<text text-anchor="start" x="145.3822" y="-233.9" font-family="Arial" font-size="14.00" fill="#666666">[bigint]</text>
<polygon fill="none" stroke="#000000" points="43.5,-192.5 43.5,-222.5 346.5,-222.5 346.5,-192.5 43.5,-192.5"/>
<text text-anchor="start" x="50.5" y="-203.9" font-family="Arial" font-size="14.00" fill="#000000">project_name    </text>
<text text-anchor="start" x="169.5014" y="-203.9" font-family="Arial" font-size="14.00" fill="#666666">[varchar(255)]</text>
<polygon fill="none" stroke="#000000" points="43.5,-162.5 43.5,-192.5 346.5,-192.5 346.5,-162.5 43.5,-162.5"/>
<text text-anchor="start" x="50.5" y="-173.9" font-family="Arial" font-size="14.00" fill="#000000">display_name    </text>
<text text-anchor="start" x="171.0568" y="-173.9" font-family="Arial" font-size="14.00" fill="#666666">[varchar(255)]</text>
<polygon fill="none" stroke="#000000" points="43.5,-132.5 43.5,-162.5 346.5,-162.5 346.5,-132.5 43.5,-132.5"/>
<text text-anchor="start" x="50.5" y="-143.9" font-family="Arial" font-size="14.00" fill="#000000">workspace_id    </text>
<text text-anchor="start" x="170.2742" y="-143.9" font-family="Arial" font-size="14.00" fill="#666666">[bigint]</text>
<polygon fill="none" stroke="#000000" points="43.5,-102.5 43.5,-132.5 346.5,-132.5 346.5,-102.5 43.5,-102.5"/>
<text text-anchor="start" x="50.5" y="-113.9" font-family="Arial" font-size="14.00" fill="#000000">created_at    </text>
<text text-anchor="start" x="150.8422" y="-113.9" font-family="Arial" font-size="14.00" fill="#666666">[timestamp without time zone]</text>
<polygon fill="none" stroke="#000000" points="43.5,-72.5 43.5,-102.5 346.5,-102.5 346.5,-72.5 43.5,-72.5"/>
<text text-anchor="start" x="50.3065" y="-83.9" font-family="Arial" font-size="14.00" fill="#000000">updated_at    </text>
<text text-anchor="start" x="154.5533" y="-83.9" font-family="Arial" font-size="14.00" fill="#666666">[timestamp without time zone]</text>
<polygon fill="none" stroke="#000000" points="43.5,-42.5 43.5,-72.5 346.5,-72.5 346.5,-42.5 43.5,-42.5"/>
<text text-anchor="start" x="50.5" y="-53.9" font-family="Arial" font-size="14.00" fill="#000000">is_deleted    </text>
<text text-anchor="start" x="148.5042" y="-53.9" font-family="Arial" font-size="14.00" fill="#666666">[boolean]</text>
</g>
<!-- public.project_member&#45;&gt;public.project -->
<g id="edge1" class="edge">
<title>public.project_member:project_id&#45;&gt;public.project:project_id</title>
<path fill="none" stroke="#000000" d="M430.4252,-486.8265C330.2371,-472.5924 461.6121,-237.5 346.5,-237.5"/>
<polygon fill="#000000" stroke="#000000" points="430.5223,-486.8329 440.1998,-491.99 435.5111,-487.1665 440.5,-487.5 440.5,-487.5 440.5,-487.5 435.5111,-487.1665 440.8002,-483.01 430.5223,-486.8329 430.5223,-486.8329"/>
</g>
<!-- public.user_account -->
<g id="node3" class="node">
<title>public.user_account</title>
<polygon fill="#efefef" stroke="transparent" points="450.5,-252.5 450.5,-287.5 753.5,-287.5 753.5,-252.5 450.5,-252.5"/>
<polygon fill="none" stroke="#000000" points="450.5,-252.5 450.5,-287.5 753.5,-287.5 753.5,-252.5 450.5,-252.5"/>
<text text-anchor="start" x="458.1925" y="-265.3" font-family="Arial Bold" font-size="18.00" fill="#000000">public.user_account</text>
<text text-anchor="start" x="618.2395" y="-265.3" font-family="Arial" font-size="14.00" fill="#000000">    </text>
<text text-anchor="start" x="652.4443" y="-265.3" font-family="Arial" font-size="14.00" fill="#666666">[BASE TABLE]</text>
<polygon fill="none" stroke="#000000" points="450.5,-222.5 450.5,-252.5 753.5,-252.5 753.5,-222.5 450.5,-222.5"/>
<text text-anchor="start" x="457.5" y="-233.9" font-family="Arial" font-size="14.00" fill="#000000">user_account_id    </text>
<text text-anchor="start" x="594.406" y="-233.9" font-family="Arial" font-size="14.00" fill="#666666">[bigint]</text>
<polygon fill="none" stroke="#000000" points="450.5,-192.5 450.5,-222.5 753.5,-222.5 753.5,-192.5 450.5,-192.5"/>
<text text-anchor="start" x="457.5" y="-203.9" font-family="Arial" font-size="14.00" fill="#000000">user_id    </text>
<text text-anchor="start" x="537.6024" y="-203.9" font-family="Arial" font-size="14.00" fill="#666666">[bigint]</text>
<polygon fill="none" stroke="#000000" points="450.5,-162.5 450.5,-192.5 753.5,-192.5 753.5,-162.5 450.5,-162.5"/>
<text text-anchor="start" x="457.5" y="-173.9" font-family="Arial" font-size="14.00" fill="#000000">user_account_name    </text>
<text text-anchor="start" x="618.5252" y="-173.9" font-family="Arial" font-size="14.00" fill="#666666">[varchar(255)]</text>
<polygon fill="none" stroke="#000000" points="450.5,-132.5 450.5,-162.5 753.5,-162.5 753.5,-132.5 450.5,-132.5"/>
<text text-anchor="start" x="457.5" y="-143.9" font-family="Arial" font-size="14.00" fill="#000000">display_name    </text>
<text text-anchor="start" x="578.0568" y="-143.9" font-family="Arial" font-size="14.00" fill="#666666">[varchar(255)]</text>
<polygon fill="none" stroke="#000000" points="450.5,-102.5 450.5,-132.5 753.5,-132.5 753.5,-102.5 450.5,-102.5"/>
<text text-anchor="start" x="457.5" y="-113.9" font-family="Arial" font-size="14.00" fill="#000000">created_at    </text>
<text text-anchor="start" x="557.8422" y="-113.9" font-family="Arial" font-size="14.00" fill="#666666">[timestamp without time zone]</text>
<polygon fill="none" stroke="#000000" points="450.5,-72.5 450.5,-102.5 753.5,-102.5 753.5,-72.5 450.5,-72.5"/>
<text text-anchor="start" x="457.3065" y="-83.9" font-family="Arial" font-size="14.00" fill="#000000">updated_at    </text>
<text text-anchor="start" x="561.5533" y="-83.9" font-family="Arial" font-size="14.00" fill="#666666">[timestamp without time zone]</text>
<polygon fill="none" stroke="#000000" points="450.5,-42.5 450.5,-72.5 753.5,-72.5 753.5,-42.5 450.5,-42.5"/>
<text text-anchor="start" x="457.5" y="-53.9" font-family="Arial" font-size="14.00" fill="#000000">is_deleted    </text>
<text text-anchor="start" x="555.5042" y="-53.9" font-family="Arial" font-size="14.00" fill="#666666">[boolean]</text>
</g>
<!-- public.project_member&#45;&gt;public.user_account -->
<g id="edge2" class="edge">
<title>public.project_member:user_account_id&#45;&gt;public.user_account:user_account_id</title>
<path fill="none" stroke="#000000" d="M430.5692,-454.0443C393.2595,-426.0556 405.1929,-237.5 450.5,-237.5"/>
<polygon fill="#000000" stroke="#000000" points="431.0555,-454.2135 439.0211,-461.75 435.7777,-455.8567 440.5,-457.5 440.5,-457.5 440.5,-457.5 435.7777,-455.8567 441.9789,-453.25 431.0555,-454.2135 431.0555,-454.2135"/>
</g>
<!-- public.project_member_authority -->
<g id="node4" class="node">
<title>public.project_member_authority</title>
<polygon fill="#efefef" stroke="transparent" points="857.5,-192.5 857.5,-227.5 1259.5,-227.5 1259.5,-192.5 857.5,-192.5"/>
<polygon fill="none" stroke="#000000" points="857.5,-192.5 857.5,-227.5 1259.5,-227.5 1259.5,-192.5 857.5,-192.5"/>
<text text-anchor="start" x="864.1962" y="-205.3" font-family="Arial Bold" font-size="18.00" fill="#000000">public.project_member_authority</text>
<text text-anchor="start" x="1125.2358" y="-205.3" font-family="Arial" font-size="14.00" fill="#000000">    </text>
<text text-anchor="start" x="1159.4406" y="-205.3" font-family="Arial" font-size="14.00" fill="#666666">[BASE TABLE]</text>
<polygon fill="none" stroke="#000000" points="857.5,-162.5 857.5,-192.5 1259.5,-192.5 1259.5,-162.5 857.5,-162.5"/>
<text text-anchor="start" x="864.5" y="-173.9" font-family="Arial" font-size="14.00" fill="#000000">project_member_authority_id    </text>
<text text-anchor="start" x="1079.9558" y="-173.9" font-family="Arial" font-size="14.00" fill="#666666">[bigint]</text>
<polygon fill="none" stroke="#000000" points="857.5,-132.5 857.5,-162.5 1259.5,-162.5 1259.5,-132.5 857.5,-132.5"/>
<text text-anchor="start" x="864.5" y="-143.9" font-family="Arial" font-size="14.00" fill="#000000">symbol    </text>
<text text-anchor="start" x="943.0372" y="-143.9" font-family="Arial" font-size="14.00" fill="#666666">[varchar(255)]</text>
<polygon fill="none" stroke="#000000" points="857.5,-102.5 857.5,-132.5 1259.5,-132.5 1259.5,-102.5 857.5,-102.5"/>
<text text-anchor="start" x="864.5" y="-113.9" font-family="Arial" font-size="14.00" fill="#000000">value    </text>
<text text-anchor="start" x="932.1592" y="-113.9" font-family="Arial" font-size="14.00" fill="#666666">[integer]</text>
</g>
<!-- public.project_member&#45;&gt;public.project_member_authority -->
<g id="edge3" class="edge">
<title>public.project_member:project_member_authority_id&#45;&gt;public.project_member_authority:project_member_authority_id</title>
<path fill="none" stroke="#000000" d="M773.5748,-426.8265C873.7629,-412.5924 742.3879,-177.5 857.5,-177.5"/>
<polygon fill="#000000" stroke="#000000" points="773.4777,-426.8329 763.1998,-423.01 768.4889,-427.1665 763.5,-427.5 763.5,-427.5 763.5,-427.5 768.4889,-427.1665 763.8002,-431.99 773.4777,-426.8329 773.4777,-426.8329"/>
</g>
</g>
</svg>
