<?xml version="1.0" encoding="UTF-8" standalone="no"?>
<!DOCTYPE svg PUBLIC "-//W3C//DTD SVG 1.1//EN"
 "http://www.w3.org/Graphics/SVG/1.1/DTD/svg11.dtd">
<!-- Generated by graphviz version 2.40.1 (20161225.0304)
 -->
<!-- Title: public.workspace_member_authority Pages: 1 -->
<svg width="534pt" height="502pt"
 viewBox="0.00 0.00 534.00 502.00" xmlns="http://www.w3.org/2000/svg" xmlns:xlink="http://www.w3.org/1999/xlink">
<g id="graph0" class="graph" transform="scale(1 1) rotate(0) translate(4 498)">
<title>public.workspace_member_authority</title>
<polygon fill="#ffffff" stroke="transparent" points="-4,4 -4,-498 530,-498 530,4 -4,4"/>
<!-- public.workspace_member_authority -->
<g id="node1" class="node">
<title>public.workspace_member_authority</title>
<polygon fill="#efefef" stroke="transparent" points="46,-135.5 46,-170.5 480,-170.5 480,-135.5 46,-135.5"/>
<polygon fill="none" stroke="#000000" points="46,-135.5 46,-170.5 480,-170.5 480,-135.5 46,-135.5"/>
<text text-anchor="start" x="52.6942" y="-148.3" font-family="Arial Bold" font-size="18.00" fill="#000000">public.workspace_member_authority</text>
<text text-anchor="start" x="345.7378" y="-148.3" font-family="Arial" font-size="14.00" fill="#000000">    </text>
<text text-anchor="start" x="379.9426" y="-148.3" font-family="Arial" font-size="14.00" fill="#666666">[BASE TABLE]</text>
<polygon fill="none" stroke="#000000" points="46,-105.5 46,-135.5 480,-135.5 480,-105.5 46,-105.5"/>
<text text-anchor="start" x="53" y="-116.9" font-family="Arial" font-size="14.00" fill="#000000">workspace_member_authority_id </text>
<text text-anchor="start" x="263.0336" y="-116.9" font-family="Arial" font-size="14.00" fill="#666666">[bigint]</text>
<polygon fill="none" stroke="#000000" points="46,-75.5 46,-105.5 480,-105.5 480,-75.5 46,-75.5"/>
<text text-anchor="start" x="53" y="-86.9" font-family="Arial" font-size="14.00" fill="#000000">symbol </text>
<text text-anchor="start" x="101.223" y="-86.9" font-family="Arial" font-size="14.00" fill="#666666">[varchar(255)]</text>
<polygon fill="none" stroke="#000000" points="46,-45.5 46,-75.5 480,-75.5 480,-45.5 46,-45.5"/>
<text text-anchor="start" x="53" y="-56.9" font-family="Arial" font-size="14.00" fill="#000000">value </text>
<text text-anchor="start" x="90.345" y="-56.9" font-family="Arial" font-size="14.00" fill="#666666">[integer]</text>
<polygon fill="none" stroke="#000000" stroke-width="3" points="44.5,-44.5 44.5,-172.5 481.5,-172.5 481.5,-44.5 44.5,-44.5"/>
</g>
<!-- public.workspace_member -->
<g id="node2" class="node">
<title>public.workspace_member</title>
<polygon fill="#efefef" stroke="transparent" points="85,-415.5 85,-450.5 440,-450.5 440,-415.5 85,-415.5"/>
<polygon fill="none" stroke="#000000" points="85,-415.5 85,-450.5 440,-450.5 440,-415.5 85,-415.5"/>
<text text-anchor="start" x="91.7051" y="-428.3" font-family="Arial Bold" font-size="18.00" fill="#000000">public.workspace_member</text>
<text text-anchor="start" x="305.7269" y="-428.3" font-family="Arial" font-size="14.00" fill="#000000">    </text>
<text text-anchor="start" x="339.9317" y="-428.3" font-family="Arial" font-size="14.00" fill="#666666">[BASE TABLE]</text>
<polygon fill="none" stroke="#000000" points="85,-385.5 85,-415.5 440,-415.5 440,-385.5 85,-385.5"/>
<text text-anchor="start" x="92" y="-396.9" font-family="Arial" font-size="14.00" fill="#000000">workspace_member_id    </text>
<text text-anchor="start" x="270.8864" y="-396.9" font-family="Arial" font-size="14.00" fill="#666666">[bigint]</text>
<polygon fill="none" stroke="#000000" points="85,-355.5 85,-385.5 440,-385.5 440,-355.5 85,-355.5"/>
<text text-anchor="start" x="92" y="-366.9" font-family="Arial" font-size="14.00" fill="#000000">workspace_id    </text>
<text text-anchor="start" x="211.7742" y="-366.9" font-family="Arial" font-size="14.00" fill="#666666">[bigint]</text>
<polygon fill="none" stroke="#000000" points="85,-325.5 85,-355.5 440,-355.5 440,-325.5 85,-325.5"/>
<text text-anchor="start" x="92" y="-336.9" font-family="Arial" font-size="14.00" fill="#000000">user_account_id    </text>
<text text-anchor="start" x="228.906" y="-336.9" font-family="Arial" font-size="14.00" fill="#666666">[bigint]</text>
<polygon fill="none" stroke="#000000" points="85,-295.5 85,-325.5 440,-325.5 440,-295.5 85,-295.5"/>
<text text-anchor="start" x="92" y="-306.9" font-family="Arial" font-size="14.00" fill="#000000">workspace_member_authority_id    </text>
<text text-anchor="start" x="332.3478" y="-306.9" font-family="Arial" font-size="14.00" fill="#666666">[bigint]</text>
</g>
<!-- public.workspace_member&#45;&gt;public.workspace_member_authority -->
<g id="edge1" class="edge">
<title>public.workspace_member:workspace_member_authority_id&#45;&gt;public.workspace_member_authority:workspace_member_authority_id</title>
<path fill="none" stroke="#000000" d="M262.425,-285.4463C252.0068,-200.2966 102.8379,-298.0038 46,-217 21.3655,-181.8916 3.1111,-120.5 46,-120.5"/>
<polygon fill="#000000" stroke="#000000" points="262.4289,-285.5163 258.5073,-295.757 262.7145,-290.5082 263,-295.5 263,-295.5 263,-295.5 262.7145,-290.5082 267.4927,-295.243 262.4289,-285.5163 262.4289,-285.5163"/>
</g>
</g>
</svg>
