<?xml version="1.0" encoding="UTF-8" standalone="no"?>
<!DOCTYPE svg PUBLIC "-//W3C//DTD SVG 1.1//EN"
 "http://www.w3.org/Graphics/SVG/1.1/DTD/svg11.dtd">
<!-- Generated by graphviz version 2.40.1 (20161225.0304)
 -->
<!-- Title: public.user_account Pages: 1 -->
<svg width="2161pt" height="1079pt"
 viewBox="0.00 0.00 2160.50 1079.00" xmlns="http://www.w3.org/2000/svg" xmlns:xlink="http://www.w3.org/1999/xlink">
<g id="graph0" class="graph" transform="scale(1 1) rotate(0) translate(4 1075)">
<title>public.user_account</title>
<polygon fill="#ffffff" stroke="transparent" points="-4,4 -4,-1075 2156.5,-1075 2156.5,4 -4,4"/>
<!-- public.user_account -->
<g id="node1" class="node">
<title>public.user_account</title>
<polygon fill="#efefef" stroke="transparent" points="984.5,-592.5 984.5,-627.5 1285.5,-627.5 1285.5,-592.5 984.5,-592.5"/>
<polygon fill="none" stroke="#000000" points="984.5,-592.5 984.5,-627.5 1285.5,-627.5 1285.5,-592.5 984.5,-592.5"/>
<text text-anchor="start" x="991.1925" y="-605.3" font-family="Arial Bold" font-size="18.00" fill="#000000">public.user_account</text>
<text text-anchor="start" x="1151.2395" y="-605.3" font-family="Arial" font-size="14.00" fill="#000000">    </text>
<text text-anchor="start" x="1185.4443" y="-605.3" font-family="Arial" font-size="14.00" fill="#666666">[BASE TABLE]</text>
<polygon fill="none" stroke="#000000" points="984.5,-562.5 984.5,-592.5 1285.5,-592.5 1285.5,-562.5 984.5,-562.5"/>
<text text-anchor="start" x="991.5" y="-573.9" font-family="Arial" font-size="14.00" fill="#000000">user_account_id </text>
<text text-anchor="start" x="1098.0918" y="-573.9" font-family="Arial" font-size="14.00" fill="#666666">[bigint]</text>
<polygon fill="none" stroke="#000000" points="984.5,-532.5 984.5,-562.5 1285.5,-562.5 1285.5,-532.5 984.5,-532.5"/>
<text text-anchor="start" x="991.5" y="-543.9" font-family="Arial" font-size="14.00" fill="#000000">user_id </text>
<text text-anchor="start" x="1041.2882" y="-543.9" font-family="Arial" font-size="14.00" fill="#666666">[bigint]</text>
<polygon fill="none" stroke="#000000" points="984.5,-502.5 984.5,-532.5 1285.5,-532.5 1285.5,-502.5 984.5,-502.5"/>
<text text-anchor="start" x="991.5" y="-513.9" font-family="Arial" font-size="14.00" fill="#000000">user_account_name </text>
<text text-anchor="start" x="1122.211" y="-513.9" font-family="Arial" font-size="14.00" fill="#666666">[varchar(255)]</text>
<polygon fill="none" stroke="#000000" points="984.5,-472.5 984.5,-502.5 1285.5,-502.5 1285.5,-472.5 984.5,-472.5"/>
<text text-anchor="start" x="991.5" y="-483.9" font-family="Arial" font-size="14.00" fill="#000000">display_name </text>
<text text-anchor="start" x="1081.7426" y="-483.9" font-family="Arial" font-size="14.00" fill="#666666">[varchar(255)]</text>
<polygon fill="none" stroke="#000000" points="984.5,-442.5 984.5,-472.5 1285.5,-472.5 1285.5,-442.5 984.5,-442.5"/>
<text text-anchor="start" x="991.5" y="-453.9" font-family="Arial" font-size="14.00" fill="#000000">last_logined_at </text>
<text text-anchor="start" x="1089.535" y="-453.9" font-family="Arial" font-size="14.00" fill="#666666">[timestamp without time zone]</text>
<polygon fill="none" stroke="#000000" points="984.5,-412.5 984.5,-442.5 1285.5,-442.5 1285.5,-412.5 984.5,-412.5"/>
<text text-anchor="start" x="991.5" y="-423.9" font-family="Arial" font-size="14.00" fill="#000000">created_at </text>
<text text-anchor="start" x="1061.528" y="-423.9" font-family="Arial" font-size="14.00" fill="#666666">[timestamp without time zone]</text>
<polygon fill="none" stroke="#000000" points="984.5,-382.5 984.5,-412.5 1285.5,-412.5 1285.5,-382.5 984.5,-382.5"/>
<text text-anchor="start" x="991.5" y="-393.9" font-family="Arial" font-size="14.00" fill="#000000">updated_at </text>
<text text-anchor="start" x="1065.4326" y="-393.9" font-family="Arial" font-size="14.00" fill="#666666">[timestamp without time zone]</text>
<polygon fill="none" stroke="#000000" points="984.5,-352.5 984.5,-382.5 1285.5,-382.5 1285.5,-352.5 984.5,-352.5"/>
<text text-anchor="start" x="991.5" y="-363.9" font-family="Arial" font-size="14.00" fill="#000000">is_deleted </text>
<text text-anchor="start" x="1059.19" y="-363.9" font-family="Arial" font-size="14.00" fill="#666666">[boolean]</text>
<polygon fill="none" stroke="#000000" stroke-width="3" points="982.5,-351.5 982.5,-629.5 1286.5,-629.5 1286.5,-351.5 982.5,-351.5"/>
</g>
<!-- public.user -->
<g id="node7" class="node">
<title>public.user</title>
<polygon fill="#efefef" stroke="transparent" points="983.5,-192.5 983.5,-227.5 1286.5,-227.5 1286.5,-192.5 983.5,-192.5"/>
<polygon fill="none" stroke="#000000" points="983.5,-192.5 983.5,-227.5 1286.5,-227.5 1286.5,-192.5 983.5,-192.5"/>
<text text-anchor="start" x="1027.7091" y="-205.3" font-family="Arial Bold" font-size="18.00" fill="#000000">public.user</text>
<text text-anchor="start" x="1114.7229" y="-205.3" font-family="Arial" font-size="14.00" fill="#000000">    </text>
<text text-anchor="start" x="1148.9277" y="-205.3" font-family="Arial" font-size="14.00" fill="#666666">[BASE TABLE]</text>
<polygon fill="none" stroke="#000000" points="983.5,-162.5 983.5,-192.5 1286.5,-192.5 1286.5,-162.5 983.5,-162.5"/>
<text text-anchor="start" x="990.5" y="-173.9" font-family="Arial" font-size="14.00" fill="#000000">user_id    </text>
<text text-anchor="start" x="1070.6024" y="-173.9" font-family="Arial" font-size="14.00" fill="#666666">[bigint]</text>
<polygon fill="none" stroke="#000000" points="983.5,-132.5 983.5,-162.5 1286.5,-162.5 1286.5,-132.5 983.5,-132.5"/>
<text text-anchor="start" x="990.5" y="-143.9" font-family="Arial" font-size="14.00" fill="#000000">email    </text>
<text text-anchor="start" x="1058.1438" y="-143.9" font-family="Arial" font-size="14.00" fill="#666666">[varchar(255)]</text>
<polygon fill="none" stroke="#000000" points="983.5,-102.5 983.5,-132.5 1286.5,-132.5 1286.5,-102.5 983.5,-102.5"/>
<text text-anchor="start" x="990.5" y="-113.9" font-family="Arial" font-size="14.00" fill="#000000">created_at    </text>
<text text-anchor="start" x="1090.8422" y="-113.9" font-family="Arial" font-size="14.00" fill="#666666">[timestamp without time zone]</text>
<polygon fill="none" stroke="#000000" points="983.5,-72.5 983.5,-102.5 1286.5,-102.5 1286.5,-72.5 983.5,-72.5"/>
<text text-anchor="start" x="990.3065" y="-83.9" font-family="Arial" font-size="14.00" fill="#000000">updated_at    </text>
<text text-anchor="start" x="1094.5533" y="-83.9" font-family="Arial" font-size="14.00" fill="#666666">[timestamp without time zone]</text>
<polygon fill="none" stroke="#000000" points="983.5,-42.5 983.5,-72.5 1286.5,-72.5 1286.5,-42.5 983.5,-42.5"/>
<text text-anchor="start" x="990.5" y="-53.9" font-family="Arial" font-size="14.00" fill="#000000">is_deleted    </text>
<text text-anchor="start" x="1088.5042" y="-53.9" font-family="Arial" font-size="14.00" fill="#666666">[boolean]</text>
</g>
<!-- public.user_account&#45;&gt;public.user -->
<g id="edge6" class="edge">
<title>public.user_account:user_id&#45;&gt;public.user:user_id</title>
<path fill="none" stroke="#000000" d="M974.1274,-546.995C820.0884,-531.7723 822.588,-177.5 983.5,-177.5"/>
<polygon fill="#000000" stroke="#000000" points="974.5118,-547.0136 984.2811,-551.9947 979.5059,-547.2568 984.5,-547.5 984.5,-547.5 984.5,-547.5 979.5059,-547.2568 984.7189,-543.0053 974.5118,-547.0136 974.5118,-547.0136"/>
</g>
<!-- public.organization_member -->
<g id="node2" class="node">
<title>public.organization_member</title>
<polygon fill="#efefef" stroke="transparent" points="43.5,-932.5 43.5,-967.5 410.5,-967.5 410.5,-932.5 43.5,-932.5"/>
<polygon fill="none" stroke="#000000" points="43.5,-932.5 43.5,-967.5 410.5,-967.5 410.5,-932.5 43.5,-932.5"/>
<text text-anchor="start" x="50.1976" y="-945.3" font-family="Arial Bold" font-size="18.00" fill="#000000">public.organization_member</text>
<text text-anchor="start" x="276.2344" y="-945.3" font-family="Arial" font-size="14.00" fill="#000000">    </text>
<text text-anchor="start" x="310.4392" y="-945.3" font-family="Arial" font-size="14.00" fill="#666666">[BASE TABLE]</text>
<polygon fill="none" stroke="#000000" points="43.5,-902.5 43.5,-932.5 410.5,-932.5 410.5,-902.5 43.5,-902.5"/>
<text text-anchor="start" x="50.5" y="-913.9" font-family="Arial" font-size="14.00" fill="#000000">organization_member_id    </text>
<text text-anchor="start" x="238.7314" y="-913.9" font-family="Arial" font-size="14.00" fill="#666666">[bigint]</text>
<polygon fill="none" stroke="#000000" points="43.5,-872.5 43.5,-902.5 410.5,-902.5 410.5,-872.5 43.5,-872.5"/>
<text text-anchor="start" x="50.5" y="-883.9" font-family="Arial" font-size="14.00" fill="#000000">organization_id    </text>
<text text-anchor="start" x="179.6192" y="-883.9" font-family="Arial" font-size="14.00" fill="#666666">[bigint]</text>
<polygon fill="none" stroke="#000000" points="43.5,-842.5 43.5,-872.5 410.5,-872.5 410.5,-842.5 43.5,-842.5"/>
<text text-anchor="start" x="50.5" y="-853.9" font-family="Arial" font-size="14.00" fill="#000000">user_account_id    </text>
<text text-anchor="start" x="187.406" y="-853.9" font-family="Arial" font-size="14.00" fill="#666666">[bigint]</text>
<polygon fill="none" stroke="#000000" points="43.5,-812.5 43.5,-842.5 410.5,-842.5 410.5,-812.5 43.5,-812.5"/>
<text text-anchor="start" x="50.5" y="-823.9" font-family="Arial" font-size="14.00" fill="#000000">organization_member_authority_id    </text>
<text text-anchor="start" x="300.1928" y="-823.9" font-family="Arial" font-size="14.00" fill="#666666">[bigint]</text>
</g>
<!-- public.organization_member&#45;&gt;public.user_account -->
<g id="edge1" class="edge">
<title>public.organization_member:user_account_id&#45;&gt;public.user_account:user_account_id</title>
<path fill="none" stroke="#000000" d="M420.677,-856.6228C472.6285,-846.6601 413.2119,-754.359 461.5,-710 549.794,-628.8905 864.606,-577.5 984.5,-577.5"/>
<polygon fill="#000000" stroke="#000000" points="420.4631,-856.6412 410.1135,-853.0166 415.4815,-857.0706 410.5,-857.5 410.5,-857.5 410.5,-857.5 415.4815,-857.0706 410.8865,-861.9834 420.4631,-856.6412 420.4631,-856.6412"/>
</g>
<!-- public.workspace_member -->
<g id="node3" class="node">
<title>public.workspace_member</title>
<polygon fill="#efefef" stroke="transparent" points="514.5,-932.5 514.5,-967.5 869.5,-967.5 869.5,-932.5 514.5,-932.5"/>
<polygon fill="none" stroke="#000000" points="514.5,-932.5 514.5,-967.5 869.5,-967.5 869.5,-932.5 514.5,-932.5"/>
<text text-anchor="start" x="521.2051" y="-945.3" font-family="Arial Bold" font-size="18.00" fill="#000000">public.workspace_member</text>
<text text-anchor="start" x="735.2269" y="-945.3" font-family="Arial" font-size="14.00" fill="#000000">    </text>
<text text-anchor="start" x="769.4317" y="-945.3" font-family="Arial" font-size="14.00" fill="#666666">[BASE TABLE]</text>
<polygon fill="none" stroke="#000000" points="514.5,-902.5 514.5,-932.5 869.5,-932.5 869.5,-902.5 514.5,-902.5"/>
<text text-anchor="start" x="521.5" y="-913.9" font-family="Arial" font-size="14.00" fill="#000000">workspace_member_id    </text>
<text text-anchor="start" x="700.3864" y="-913.9" font-family="Arial" font-size="14.00" fill="#666666">[bigint]</text>
<polygon fill="none" stroke="#000000" points="514.5,-872.5 514.5,-902.5 869.5,-902.5 869.5,-872.5 514.5,-872.5"/>
<text text-anchor="start" x="521.5" y="-883.9" font-family="Arial" font-size="14.00" fill="#000000">workspace_id    </text>
<text text-anchor="start" x="641.2742" y="-883.9" font-family="Arial" font-size="14.00" fill="#666666">[bigint]</text>
<polygon fill="none" stroke="#000000" points="514.5,-842.5 514.5,-872.5 869.5,-872.5 869.5,-842.5 514.5,-842.5"/>
<text text-anchor="start" x="521.5" y="-853.9" font-family="Arial" font-size="14.00" fill="#000000">user_account_id    </text>
<text text-anchor="start" x="658.406" y="-853.9" font-family="Arial" font-size="14.00" fill="#666666">[bigint]</text>
<polygon fill="none" stroke="#000000" points="514.5,-812.5 514.5,-842.5 869.5,-842.5 869.5,-812.5 514.5,-812.5"/>
<text text-anchor="start" x="521.5" y="-823.9" font-family="Arial" font-size="14.00" fill="#000000">workspace_member_authority_id    </text>
<text text-anchor="start" x="761.8478" y="-823.9" font-family="Arial" font-size="14.00" fill="#666666">[bigint]</text>
</g>
<!-- public.workspace_member&#45;&gt;public.user_account -->
<g id="edge2" class="edge">
<title>public.workspace_member:user_account_id&#45;&gt;public.user_account:user_account_id</title>
<path fill="none" stroke="#000000" d="M879.5481,-856.8194C934.334,-848.7593 895.4324,-770.736 920.5,-710 945.4505,-649.5479 919.1013,-577.5 984.5,-577.5"/>
<polygon fill="#000000" stroke="#000000" points="879.4771,-856.8241 869.1959,-853.0103 874.4886,-857.1621 869.5,-857.5 869.5,-857.5 869.5,-857.5 874.4886,-857.1621 869.8041,-861.9897 879.4771,-856.8241 879.4771,-856.8241"/>
</g>
<!-- public.project_member -->
<g id="node4" class="node">
<title>public.project_member</title>
<polygon fill="#efefef" stroke="transparent" points="973.5,-932.5 973.5,-967.5 1296.5,-967.5 1296.5,-932.5 973.5,-932.5"/>
<polygon fill="none" stroke="#000000" points="973.5,-932.5 973.5,-967.5 1296.5,-967.5 1296.5,-932.5 973.5,-932.5"/>
<text text-anchor="start" x="980.2071" y="-945.3" font-family="Arial Bold" font-size="18.00" fill="#000000">public.project_member</text>
<text text-anchor="start" x="1162.2249" y="-945.3" font-family="Arial" font-size="14.00" fill="#000000">    </text>
<text text-anchor="start" x="1196.4297" y="-945.3" font-family="Arial" font-size="14.00" fill="#666666">[BASE TABLE]</text>
<polygon fill="none" stroke="#000000" points="973.5,-902.5 973.5,-932.5 1296.5,-932.5 1296.5,-902.5 973.5,-902.5"/>
<text text-anchor="start" x="980.5" y="-913.9" font-family="Arial" font-size="14.00" fill="#000000">project_member_id    </text>
<text text-anchor="start" x="1134.4944" y="-913.9" font-family="Arial" font-size="14.00" fill="#666666">[bigint]</text>
<polygon fill="none" stroke="#000000" points="973.5,-872.5 973.5,-902.5 1296.5,-902.5 1296.5,-872.5 973.5,-872.5"/>
<text text-anchor="start" x="980.5" y="-883.9" font-family="Arial" font-size="14.00" fill="#000000">project_id    </text>
<text text-anchor="start" x="1075.3822" y="-883.9" font-family="Arial" font-size="14.00" fill="#666666">[bigint]</text>
<polygon fill="none" stroke="#000000" points="973.5,-842.5 973.5,-872.5 1296.5,-872.5 1296.5,-842.5 973.5,-842.5"/>
<text text-anchor="start" x="980.5" y="-853.9" font-family="Arial" font-size="14.00" fill="#000000">user_account_id    </text>
<text text-anchor="start" x="1117.406" y="-853.9" font-family="Arial" font-size="14.00" fill="#666666">[bigint]</text>
<polygon fill="none" stroke="#000000" points="973.5,-812.5 973.5,-842.5 1296.5,-842.5 1296.5,-812.5 973.5,-812.5"/>
<text text-anchor="start" x="980.5" y="-823.9" font-family="Arial" font-size="14.00" fill="#000000">project_member_authority_id    </text>
<text text-anchor="start" x="1195.9558" y="-823.9" font-family="Arial" font-size="14.00" fill="#666666">[bigint]</text>
</g>
<!-- public.project_member&#45;&gt;public.user_account -->
<g id="edge3" class="edge">
<title>public.project_member:user_account_id&#45;&gt;public.user_account:user_account_id</title>
<path fill="none" stroke="#000000" d="M963.6201,-854.9069C912.6404,-826.6795 925.7568,-577.5 984.5,-577.5"/>
<polygon fill="#000000" stroke="#000000" points="963.8276,-854.9613 972.3576,-861.8526 968.6638,-856.2306 973.5,-857.5 973.5,-857.5 973.5,-857.5 968.6638,-856.2306 974.6424,-853.1474 963.8276,-854.9613 963.8276,-854.9613"/>
</g>
<!-- public.task -->
<g id="node5" class="node">
<title>public.task</title>
<polygon fill="#efefef" stroke="transparent" points="1400.5,-992.5 1400.5,-1027.5 1703.5,-1027.5 1703.5,-992.5 1400.5,-992.5"/>
<polygon fill="none" stroke="#000000" points="1400.5,-992.5 1400.5,-1027.5 1703.5,-1027.5 1703.5,-992.5 1400.5,-992.5"/>
<text text-anchor="start" x="1445.7072" y="-1005.3" font-family="Arial Bold" font-size="18.00" fill="#000000">public.task</text>
<text text-anchor="start" x="1530.7248" y="-1005.3" font-family="Arial" font-size="14.00" fill="#000000">    </text>
<text text-anchor="start" x="1564.9296" y="-1005.3" font-family="Arial" font-size="14.00" fill="#666666">[BASE TABLE]</text>
<polygon fill="none" stroke="#000000" points="1400.5,-962.5 1400.5,-992.5 1703.5,-992.5 1703.5,-962.5 1400.5,-962.5"/>
<text text-anchor="start" x="1407.5" y="-973.9" font-family="Arial" font-size="14.00" fill="#000000">task_id    </text>
<text text-anchor="start" x="1486.0498" y="-973.9" font-family="Arial" font-size="14.00" fill="#666666">[bigint]</text>
<polygon fill="none" stroke="#000000" points="1400.5,-932.5 1400.5,-962.5 1703.5,-962.5 1703.5,-932.5 1400.5,-932.5"/>
<text text-anchor="start" x="1407.5" y="-943.9" font-family="Arial" font-size="14.00" fill="#000000">project_id    </text>
<text text-anchor="start" x="1502.3822" y="-943.9" font-family="Arial" font-size="14.00" fill="#666666">[bigint]</text>
<polygon fill="none" stroke="#000000" points="1400.5,-902.5 1400.5,-932.5 1703.5,-932.5 1703.5,-902.5 1400.5,-902.5"/>
<text text-anchor="start" x="1407.5" y="-913.9" font-family="Arial" font-size="14.00" fill="#000000">owner_user_account_id    </text>
<text text-anchor="start" x="1590.3036" y="-913.9" font-family="Arial" font-size="14.00" fill="#666666">[bigint]</text>
<polygon fill="none" stroke="#000000" points="1400.5,-872.5 1400.5,-902.5 1703.5,-902.5 1703.5,-872.5 1400.5,-872.5"/>
<text text-anchor="start" x="1407.5" y="-883.9" font-family="Arial" font-size="14.00" fill="#000000">title    </text>
<text text-anchor="start" x="1463.4818" y="-883.9" font-family="Arial" font-size="14.00" fill="#666666">[varchar(255)]</text>
<polygon fill="none" stroke="#000000" points="1400.5,-842.5 1400.5,-872.5 1703.5,-872.5 1703.5,-842.5 1400.5,-842.5"/>
<text text-anchor="start" x="1407.5" y="-853.9" font-family="Arial" font-size="14.00" fill="#000000">content    </text>
<text text-anchor="start" x="1487.6164" y="-853.9" font-family="Arial" font-size="14.00" fill="#666666">[text]</text>
<polygon fill="none" stroke="#000000" points="1400.5,-812.5 1400.5,-842.5 1703.5,-842.5 1703.5,-812.5 1400.5,-812.5"/>
<text text-anchor="start" x="1407.5" y="-823.9" font-family="Arial" font-size="14.00" fill="#000000">created_at    </text>
<text text-anchor="start" x="1507.8422" y="-823.9" font-family="Arial" font-size="14.00" fill="#666666">[timestamp without time zone]</text>
<polygon fill="none" stroke="#000000" points="1400.5,-782.5 1400.5,-812.5 1703.5,-812.5 1703.5,-782.5 1400.5,-782.5"/>
<text text-anchor="start" x="1407.3065" y="-793.9" font-family="Arial" font-size="14.00" fill="#000000">updated_at    </text>
<text text-anchor="start" x="1511.5533" y="-793.9" font-family="Arial" font-size="14.00" fill="#666666">[timestamp without time zone]</text>
<polygon fill="none" stroke="#000000" points="1400.5,-752.5 1400.5,-782.5 1703.5,-782.5 1703.5,-752.5 1400.5,-752.5"/>
<text text-anchor="start" x="1407.5" y="-763.9" font-family="Arial" font-size="14.00" fill="#000000">is_deleted    </text>
<text text-anchor="start" x="1505.5042" y="-763.9" font-family="Arial" font-size="14.00" fill="#666666">[boolean]</text>
</g>
<!-- public.task&#45;&gt;public.user_account -->
<g id="edge4" class="edge">
<title>public.task:owner_user_account_id&#45;&gt;public.user_account:user_account_id</title>
<path fill="none" stroke="#000000" d="M1390.1214,-916.9685C1311.1372,-908.3234 1379.371,-795.9864 1348.5,-710 1326.4664,-648.6288 1350.7066,-577.5 1285.5,-577.5"/>
<polygon fill="#000000" stroke="#000000" points="1390.5131,-916.9885 1400.2698,-921.9941 1395.5065,-917.2442 1400.5,-917.5 1400.5,-917.5 1400.5,-917.5 1395.5065,-917.2442 1400.7302,-913.0059 1390.5131,-916.9885 1390.5131,-916.9885"/>
</g>
<!-- public.task_member -->
<g id="node6" class="node">
<title>public.task_member</title>
<polygon fill="#efefef" stroke="transparent" points="1807.5,-917.5 1807.5,-952.5 2109.5,-952.5 2109.5,-917.5 1807.5,-917.5"/>
<polygon fill="none" stroke="#000000" points="1807.5,-917.5 1807.5,-952.5 2109.5,-952.5 2109.5,-917.5 1807.5,-917.5"/>
<text text-anchor="start" x="1814.2065" y="-930.3" font-family="Arial Bold" font-size="18.00" fill="#000000">public.task_member</text>
<text text-anchor="start" x="1975.2255" y="-930.3" font-family="Arial" font-size="14.00" fill="#000000">    </text>
<text text-anchor="start" x="2009.4303" y="-930.3" font-family="Arial" font-size="14.00" fill="#666666">[BASE TABLE]</text>
<polygon fill="none" stroke="#000000" points="1807.5,-887.5 1807.5,-917.5 2109.5,-917.5 2109.5,-887.5 1807.5,-887.5"/>
<text text-anchor="start" x="1814.5" y="-898.9" font-family="Arial" font-size="14.00" fill="#000000">task_member_id    </text>
<text text-anchor="start" x="1952.162" y="-898.9" font-family="Arial" font-size="14.00" fill="#666666">[bigint]</text>
<polygon fill="none" stroke="#000000" points="1807.5,-857.5 1807.5,-887.5 2109.5,-887.5 2109.5,-857.5 1807.5,-857.5"/>
<text text-anchor="start" x="1814.5" y="-868.9" font-family="Arial" font-size="14.00" fill="#000000">task_id    </text>
<text text-anchor="start" x="1893.0498" y="-868.9" font-family="Arial" font-size="14.00" fill="#666666">[bigint]</text>
<polygon fill="none" stroke="#000000" points="1807.5,-827.5 1807.5,-857.5 2109.5,-857.5 2109.5,-827.5 1807.5,-827.5"/>
<text text-anchor="start" x="1814.5" y="-838.9" font-family="Arial" font-size="14.00" fill="#000000">user_account_id    </text>
<text text-anchor="start" x="1951.406" y="-838.9" font-family="Arial" font-size="14.00" fill="#666666">[bigint]</text>
</g>
<!-- public.task_member&#45;&gt;public.user_account -->
<g id="edge5" class="edge">
<title>public.task_member:user_account_id&#45;&gt;public.user_account:user_account_id</title>
<path fill="none" stroke="#000000" d="M1797.2942,-841.5403C1750.8958,-831.7711 1799.5561,-749.889 1755.5,-710 1675.058,-637.1667 1394.0155,-577.5 1285.5,-577.5"/>
<polygon fill="#000000" stroke="#000000" points="1797.5439,-841.5637 1807.0787,-846.9802 1802.522,-842.0318 1807.5,-842.5 1807.5,-842.5 1807.5,-842.5 1802.522,-842.0318 1807.9213,-838.0198 1797.5439,-841.5637 1797.5439,-841.5637"/>
</g>
</g>
</svg>
