<?xml version="1.0" encoding="UTF-8" standalone="no"?>
<!DOCTYPE svg PUBLIC "-//W3C//DTD SVG 1.1//EN"
 "http://www.w3.org/Graphics/SVG/1.1/DTD/svg11.dtd">
<!-- Generated by graphviz version 2.40.1 (20161225.0304)
 -->
<!-- Title: public.temporary_user Pages: 1 -->
<svg width="496pt" height="532pt"
 viewBox="0.00 0.00 495.59 532.00" xmlns="http://www.w3.org/2000/svg" xmlns:xlink="http://www.w3.org/1999/xlink">
<g id="graph0" class="graph" transform="scale(1 1) rotate(0) translate(4 528)">
<title>public.temporary_user</title>
<polygon fill="#ffffff" stroke="transparent" points="-4,4 -4,-528 491.5892,-528 491.5892,4 -4,4"/>
<!-- public.temporary_user -->
<g id="node1" class="node">
<title>public.temporary_user</title>
<polygon fill="#efefef" stroke="transparent" points="99.0892,-165.5 99.0892,-200.5 418.0892,-200.5 418.0892,-165.5 99.0892,-165.5"/>
<polygon fill="none" stroke="#000000" points="99.0892,-165.5 99.0892,-200.5 418.0892,-200.5 418.0892,-165.5 99.0892,-165.5"/>
<text text-anchor="start" x="105.7934" y="-178.3" font-family="Arial Bold" font-size="18.00" fill="#000000">public.temporary_user</text>
<text text-anchor="start" x="283.817" y="-178.3" font-family="Arial" font-size="14.00" fill="#000000">    </text>
<text text-anchor="start" x="318.0218" y="-178.3" font-family="Arial" font-size="14.00" fill="#666666">[BASE TABLE]</text>
<polygon fill="none" stroke="#000000" points="99.0892,-135.5 99.0892,-165.5 418.0892,-165.5 418.0892,-135.5 99.0892,-135.5"/>
<text text-anchor="start" x="106.0892" y="-146.9" font-family="Arial" font-size="14.00" fill="#000000">temporary_user_id </text>
<text text-anchor="start" x="226.6628" y="-146.9" font-family="Arial" font-size="14.00" fill="#666666">[bigint]</text>
<polygon fill="none" stroke="#000000" points="99.0892,-105.5 99.0892,-135.5 418.0892,-135.5 418.0892,-105.5 99.0892,-105.5"/>
<text text-anchor="start" x="106.0892" y="-116.9" font-family="Arial" font-size="14.00" fill="#000000">email </text>
<text text-anchor="start" x="143.4188" y="-116.9" font-family="Arial" font-size="14.00" fill="#666666">[varchar(255)]</text>
<polygon fill="none" stroke="#000000" points="99.0892,-75.5 99.0892,-105.5 418.0892,-105.5 418.0892,-75.5 99.0892,-75.5"/>
<text text-anchor="start" x="106.0892" y="-86.9" font-family="Arial" font-size="14.00" fill="#000000">password </text>
<text text-anchor="start" x="169.8774" y="-86.9" font-family="Arial" font-size="14.00" fill="#666666">[varchar(255)]</text>
<polygon fill="none" stroke="#000000" points="99.0892,-45.5 99.0892,-75.5 418.0892,-75.5 418.0892,-45.5 99.0892,-45.5"/>
<text text-anchor="start" x="106.0892" y="-56.9" font-family="Arial" font-size="14.00" fill="#000000">created_at </text>
<text text-anchor="start" x="176.1172" y="-56.9" font-family="Arial" font-size="14.00" fill="#666666">[timestamp without time zone]</text>
<polygon fill="none" stroke="#000000" stroke-width="3" points="97.0892,-44.5 97.0892,-202.5 419.0892,-202.5 419.0892,-44.5 97.0892,-44.5"/>
</g>
<!-- public.temporary_user_token -->
<g id="node2" class="node">
<title>public.temporary_user_token</title>
<polygon fill="#efefef" stroke="transparent" points="72.0892,-445.5 72.0892,-480.5 445.0892,-480.5 445.0892,-445.5 72.0892,-445.5"/>
<polygon fill="none" stroke="#000000" points="72.0892,-445.5 72.0892,-480.5 445.0892,-480.5 445.0892,-445.5 72.0892,-445.5"/>
<text text-anchor="start" x="78.7799" y="-458.3" font-family="Arial Bold" font-size="18.00" fill="#000000">public.temporary_user_token</text>
<text text-anchor="start" x="310.8305" y="-458.3" font-family="Arial" font-size="14.00" fill="#000000">    </text>
<text text-anchor="start" x="345.0353" y="-458.3" font-family="Arial" font-size="14.00" fill="#666666">[BASE TABLE]</text>
<polygon fill="none" stroke="#000000" points="72.0892,-415.5 72.0892,-445.5 445.0892,-445.5 445.0892,-415.5 72.0892,-415.5"/>
<text text-anchor="start" x="79.0892" y="-426.9" font-family="Arial" font-size="14.00" fill="#000000">temporary_user_token_id    </text>
<text text-anchor="start" x="271.998" y="-426.9" font-family="Arial" font-size="14.00" fill="#666666">[bigint]</text>
<polygon fill="none" stroke="#000000" points="72.0892,-385.5 72.0892,-415.5 445.0892,-415.5 445.0892,-385.5 72.0892,-385.5"/>
<text text-anchor="start" x="79.0892" y="-396.9" font-family="Arial" font-size="14.00" fill="#000000">temporary_user_id    </text>
<text text-anchor="start" x="229.977" y="-396.9" font-family="Arial" font-size="14.00" fill="#666666">[bigint]</text>
<polygon fill="none" stroke="#000000" points="72.0892,-355.5 72.0892,-385.5 445.0892,-385.5 445.0892,-355.5 72.0892,-355.5"/>
<text text-anchor="start" x="79.0892" y="-366.9" font-family="Arial" font-size="14.00" fill="#000000">token    </text>
<text text-anchor="start" x="147.5324" y="-366.9" font-family="Arial" font-size="14.00" fill="#666666">[varchar(255)]</text>
<polygon fill="none" stroke="#000000" points="72.0892,-325.5 72.0892,-355.5 445.0892,-355.5 445.0892,-325.5 72.0892,-325.5"/>
<text text-anchor="start" x="79.0892" y="-336.9" font-family="Arial" font-size="14.00" fill="#000000">created_at    </text>
<text text-anchor="start" x="179.4314" y="-336.9" font-family="Arial" font-size="14.00" fill="#666666">[timestamp without time zone]</text>
</g>
<!-- public.temporary_user_token&#45;&gt;public.temporary_user -->
<g id="edge1" class="edge">
<title>public.temporary_user_token:temporary_user_id&#45;&gt;public.temporary_user:temporary_user_id</title>
<path fill="none" stroke="#000000" d="M62.0168,-399.7828C-37.8977,-385.1191 -9.1756,-150.5 99.0892,-150.5"/>
<polygon fill="#000000" stroke="#000000" points="62.1145,-399.7897 71.7696,-404.9886 67.1018,-400.1448 72.0892,-400.5 72.0892,-400.5 72.0892,-400.5 67.1018,-400.1448 72.4089,-396.0114 62.1145,-399.7897 62.1145,-399.7897"/>
</g>
</g>
</svg>
