<?xml version="1.0" encoding="UTF-8" standalone="no"?>
<!DOCTYPE svg PUBLIC "-//W3C//DTD SVG 1.1//EN"
 "http://www.w3.org/Graphics/SVG/1.1/DTD/svg11.dtd">
<!-- Generated by graphviz version 2.40.1 (20161225.0304)
 -->
<!-- Title: meower Pages: 1 -->
<svg width="3332pt" height="1440pt"
 viewBox="0.00 0.00 3332.00 1440.00" xmlns="http://www.w3.org/2000/svg" xmlns:xlink="http://www.w3.org/1999/xlink">
<g id="graph0" class="graph" transform="scale(1 1) rotate(0) translate(4 1436)">
<title>meower</title>
<polygon fill="#ffffff" stroke="transparent" points="-4,4 -4,-1436 3328,-1436 3328,4 -4,4"/>
<!-- public.user -->
<g id="node1" class="node">
<title>public.user</title>
<polygon fill="#efefef" stroke="transparent" points="1170,-559.5 1170,-594.5 1473,-594.5 1473,-559.5 1170,-559.5"/>
<polygon fill="none" stroke="#000000" points="1170,-559.5 1170,-594.5 1473,-594.5 1473,-559.5 1170,-559.5"/>
<text text-anchor="start" x="1214.2091" y="-572.3" font-family="Arial Bold" font-size="18.00" fill="#000000">public.user</text>
<text text-anchor="start" x="1301.2229" y="-572.3" font-family="Arial" font-size="14.00" fill="#000000">    </text>
<text text-anchor="start" x="1335.4277" y="-572.3" font-family="Arial" font-size="14.00" fill="#666666">[BASE TABLE]</text>
<polygon fill="none" stroke="#000000" points="1170,-529.5 1170,-559.5 1473,-559.5 1473,-529.5 1170,-529.5"/>
<text text-anchor="start" x="1177" y="-540.9" font-family="Arial" font-size="14.00" fill="#000000">user_id    </text>
<text text-anchor="start" x="1257.1024" y="-540.9" font-family="Arial" font-size="14.00" fill="#666666">[bigint]</text>
<polygon fill="none" stroke="#000000" points="1170,-499.5 1170,-529.5 1473,-529.5 1473,-499.5 1170,-499.5"/>
<text text-anchor="start" x="1177" y="-510.9" font-family="Arial" font-size="14.00" fill="#000000">email    </text>
<text text-anchor="start" x="1244.6438" y="-510.9" font-family="Arial" font-size="14.00" fill="#666666">[varchar(255)]</text>
<polygon fill="none" stroke="#000000" points="1170,-469.5 1170,-499.5 1473,-499.5 1473,-469.5 1170,-469.5"/>
<text text-anchor="start" x="1177" y="-480.9" font-family="Arial" font-size="14.00" fill="#000000">created_at    </text>
<text text-anchor="start" x="1277.3422" y="-480.9" font-family="Arial" font-size="14.00" fill="#666666">[timestamp without time zone]</text>
<polygon fill="none" stroke="#000000" points="1170,-439.5 1170,-469.5 1473,-469.5 1473,-439.5 1170,-439.5"/>
<text text-anchor="start" x="1176.8065" y="-450.9" font-family="Arial" font-size="14.00" fill="#000000">updated_at    </text>
<text text-anchor="start" x="1281.0533" y="-450.9" font-family="Arial" font-size="14.00" fill="#666666">[timestamp without time zone]</text>
<polygon fill="none" stroke="#000000" points="1170,-409.5 1170,-439.5 1473,-439.5 1473,-409.5 1170,-409.5"/>
<text text-anchor="start" x="1177" y="-420.9" font-family="Arial" font-size="14.00" fill="#000000">is_deleted    </text>
<text text-anchor="start" x="1275.0042" y="-420.9" font-family="Arial" font-size="14.00" fill="#666666">[boolean]</text>
</g>
<!-- public.user_auth -->
<g id="node2" class="node">
<title>public.user_auth</title>
<polygon fill="#efefef" stroke="transparent" points="1170,-926.5 1170,-961.5 1473,-961.5 1473,-926.5 1170,-926.5"/>
<polygon fill="none" stroke="#000000" points="1170,-926.5 1170,-961.5 1473,-961.5 1473,-926.5 1170,-926.5"/>
<text text-anchor="start" x="1191.6956" y="-939.3" font-family="Arial Bold" font-size="18.00" fill="#000000">public.user_auth</text>
<text text-anchor="start" x="1323.7364" y="-939.3" font-family="Arial" font-size="14.00" fill="#000000">    </text>
<text text-anchor="start" x="1357.9412" y="-939.3" font-family="Arial" font-size="14.00" fill="#666666">[BASE TABLE]</text>
<polygon fill="none" stroke="#000000" points="1170,-896.5 1170,-926.5 1473,-926.5 1473,-896.5 1170,-896.5"/>
<text text-anchor="start" x="1177" y="-907.9" font-family="Arial" font-size="14.00" fill="#000000">user_auth_id    </text>
<text text-anchor="start" x="1292.1234" y="-907.9" font-family="Arial" font-size="14.00" fill="#666666">[bigint]</text>
<polygon fill="none" stroke="#000000" points="1170,-866.5 1170,-896.5 1473,-896.5 1473,-866.5 1170,-866.5"/>
<text text-anchor="start" x="1177" y="-877.9" font-family="Arial" font-size="14.00" fill="#000000">user_id    </text>
<text text-anchor="start" x="1257.1024" y="-877.9" font-family="Arial" font-size="14.00" fill="#666666">[bigint]</text>
<polygon fill="none" stroke="#000000" points="1170,-836.5 1170,-866.5 1473,-866.5 1473,-836.5 1170,-836.5"/>
<text text-anchor="start" x="1177" y="-847.9" font-family="Arial" font-size="14.00" fill="#000000">password    </text>
<text text-anchor="start" x="1271.1024" y="-847.9" font-family="Arial" font-size="14.00" fill="#666666">[varchar(255)]</text>
<polygon fill="none" stroke="#000000" points="1170,-806.5 1170,-836.5 1473,-836.5 1473,-806.5 1170,-806.5"/>
<text text-anchor="start" x="1177" y="-817.9" font-family="Arial" font-size="14.00" fill="#000000">created_at    </text>
<text text-anchor="start" x="1277.3422" y="-817.9" font-family="Arial" font-size="14.00" fill="#666666">[timestamp without time zone]</text>
<polygon fill="none" stroke="#000000" points="1170,-776.5 1170,-806.5 1473,-806.5 1473,-776.5 1170,-776.5"/>
<text text-anchor="start" x="1176.8065" y="-787.9" font-family="Arial" font-size="14.00" fill="#000000">updated_at    </text>
<text text-anchor="start" x="1281.0533" y="-787.9" font-family="Arial" font-size="14.00" fill="#666666">[timestamp without time zone]</text>
</g>
<!-- public.user_auth&#45;&gt;public.user -->
<g id="edge1" class="edge">
<title>public.user_auth:user_id&#45;&gt;public.user:user_id</title>
<path fill="none" stroke="#000000" d="M1161.7249,-875.3631C1132.7957,-829.6884 1135.554,-544.5 1170,-544.5"/>
<polygon fill="#000000" stroke="#000000" points="1161.9678,-875.5432 1167.3194,-885.1145 1165.9839,-878.5216 1170,-881.5 1170,-881.5 1170,-881.5 1165.9839,-878.5216 1172.6806,-877.8855 1161.9678,-875.5432 1161.9678,-875.5432"/>
</g>
<!-- public.user_account -->
<g id="node3" class="node">
<title>public.user_account</title>
<polygon fill="#efefef" stroke="transparent" points="1616,-956.5 1616,-991.5 1919,-991.5 1919,-956.5 1616,-956.5"/>
<polygon fill="none" stroke="#000000" points="1616,-956.5 1616,-991.5 1919,-991.5 1919,-956.5 1616,-956.5"/>
<text text-anchor="start" x="1623.6925" y="-969.3" font-family="Arial Bold" font-size="18.00" fill="#000000">public.user_account</text>
<text text-anchor="start" x="1783.7395" y="-969.3" font-family="Arial" font-size="14.00" fill="#000000">    </text>
<text text-anchor="start" x="1817.9443" y="-969.3" font-family="Arial" font-size="14.00" fill="#666666">[BASE TABLE]</text>
<polygon fill="none" stroke="#000000" points="1616,-926.5 1616,-956.5 1919,-956.5 1919,-926.5 1616,-926.5"/>
<text text-anchor="start" x="1623" y="-937.9" font-family="Arial" font-size="14.00" fill="#000000">user_account_id    </text>
<text text-anchor="start" x="1759.906" y="-937.9" font-family="Arial" font-size="14.00" fill="#666666">[bigint]</text>
<polygon fill="none" stroke="#000000" points="1616,-896.5 1616,-926.5 1919,-926.5 1919,-896.5 1616,-896.5"/>
<text text-anchor="start" x="1623" y="-907.9" font-family="Arial" font-size="14.00" fill="#000000">user_id    </text>
<text text-anchor="start" x="1703.1024" y="-907.9" font-family="Arial" font-size="14.00" fill="#666666">[bigint]</text>
<polygon fill="none" stroke="#000000" points="1616,-866.5 1616,-896.5 1919,-896.5 1919,-866.5 1616,-866.5"/>
<text text-anchor="start" x="1623" y="-877.9" font-family="Arial" font-size="14.00" fill="#000000">user_account_name    </text>
<text text-anchor="start" x="1784.0252" y="-877.9" font-family="Arial" font-size="14.00" fill="#666666">[varchar(255)]</text>
<polygon fill="none" stroke="#000000" points="1616,-836.5 1616,-866.5 1919,-866.5 1919,-836.5 1616,-836.5"/>
<text text-anchor="start" x="1623" y="-847.9" font-family="Arial" font-size="14.00" fill="#000000">display_name    </text>
<text text-anchor="start" x="1743.5568" y="-847.9" font-family="Arial" font-size="14.00" fill="#666666">[varchar(255)]</text>
<polygon fill="none" stroke="#000000" points="1616,-806.5 1616,-836.5 1919,-836.5 1919,-806.5 1616,-806.5"/>
<text text-anchor="start" x="1623" y="-817.9" font-family="Arial" font-size="14.00" fill="#000000">created_at    </text>
<text text-anchor="start" x="1723.3422" y="-817.9" font-family="Arial" font-size="14.00" fill="#666666">[timestamp without time zone]</text>
<polygon fill="none" stroke="#000000" points="1616,-776.5 1616,-806.5 1919,-806.5 1919,-776.5 1616,-776.5"/>
<text text-anchor="start" x="1622.8065" y="-787.9" font-family="Arial" font-size="14.00" fill="#000000">updated_at    </text>
<text text-anchor="start" x="1727.0533" y="-787.9" font-family="Arial" font-size="14.00" fill="#666666">[timestamp without time zone]</text>
<polygon fill="none" stroke="#000000" points="1616,-746.5 1616,-776.5 1919,-776.5 1919,-746.5 1616,-746.5"/>
<text text-anchor="start" x="1623" y="-757.9" font-family="Arial" font-size="14.00" fill="#000000">is_deleted    </text>
<text text-anchor="start" x="1721.0042" y="-757.9" font-family="Arial" font-size="14.00" fill="#666666">[boolean]</text>
</g>
<!-- public.user_account&#45;&gt;public.user -->
<g id="edge2" class="edge">
<title>public.user_account:user_id&#45;&gt;public.user:user_id</title>
<path fill="none" stroke="#000000" d="M1610.3721,-902.79C1583.7509,-847.2137 1482.9366,-544.5 1473,-544.5"/>
<polygon fill="#000000" stroke="#000000" points="1610.5729,-903.1008 1612.2203,-913.9422 1613.2864,-907.3004 1616,-911.5 1616,-911.5 1616,-911.5 1613.2864,-907.3004 1619.7797,-909.0578 1610.5729,-903.1008 1610.5729,-903.1008"/>
</g>
<!-- public.temporary_user -->
<g id="node4" class="node">
<title>public.temporary_user</title>
<polygon fill="#efefef" stroke="transparent" points="2937,-911.5 2937,-946.5 3256,-946.5 3256,-911.5 2937,-911.5"/>
<polygon fill="none" stroke="#000000" points="2937,-911.5 2937,-946.5 3256,-946.5 3256,-911.5 2937,-911.5"/>
<text text-anchor="start" x="2943.7042" y="-924.3" font-family="Arial Bold" font-size="18.00" fill="#000000">public.temporary_user</text>
<text text-anchor="start" x="3121.7278" y="-924.3" font-family="Arial" font-size="14.00" fill="#000000">    </text>
<text text-anchor="start" x="3155.9326" y="-924.3" font-family="Arial" font-size="14.00" fill="#666666">[BASE TABLE]</text>
<polygon fill="none" stroke="#000000" points="2937,-881.5 2937,-911.5 3256,-911.5 3256,-881.5 2937,-881.5"/>
<text text-anchor="start" x="2944" y="-892.9" font-family="Arial" font-size="14.00" fill="#000000">temporary_user_id    </text>
<text text-anchor="start" x="3094.8878" y="-892.9" font-family="Arial" font-size="14.00" fill="#666666">[bigint]</text>
<polygon fill="none" stroke="#000000" points="2937,-851.5 2937,-881.5 3256,-881.5 3256,-851.5 2937,-851.5"/>
<text text-anchor="start" x="2944" y="-862.9" font-family="Arial" font-size="14.00" fill="#000000">email    </text>
<text text-anchor="start" x="3011.6438" y="-862.9" font-family="Arial" font-size="14.00" fill="#666666">[varchar(255)]</text>
<polygon fill="none" stroke="#000000" points="2937,-821.5 2937,-851.5 3256,-851.5 3256,-821.5 2937,-821.5"/>
<text text-anchor="start" x="2944" y="-832.9" font-family="Arial" font-size="14.00" fill="#000000">password    </text>
<text text-anchor="start" x="3038.1024" y="-832.9" font-family="Arial" font-size="14.00" fill="#666666">[varchar(255)]</text>
<polygon fill="none" stroke="#000000" points="2937,-791.5 2937,-821.5 3256,-821.5 3256,-791.5 2937,-791.5"/>
<text text-anchor="start" x="2944" y="-802.9" font-family="Arial" font-size="14.00" fill="#000000">created_at    </text>
<text text-anchor="start" x="3044.3422" y="-802.9" font-family="Arial" font-size="14.00" fill="#666666">[timestamp without time zone]</text>
</g>
<!-- public.temporary_user_code -->
<g id="node5" class="node">
<title>public.temporary_user_code</title>
<polygon fill="#efefef" stroke="transparent" points="2913,-1308.5 2913,-1343.5 3281,-1343.5 3281,-1308.5 2913,-1308.5"/>
<polygon fill="none" stroke="#000000" points="2913,-1308.5 2913,-1343.5 3281,-1343.5 3281,-1308.5 2913,-1308.5"/>
<text text-anchor="start" x="2919.6918" y="-1321.3" font-family="Arial Bold" font-size="18.00" fill="#000000">public.temporary_user_code</text>
<text text-anchor="start" x="3146.7402" y="-1321.3" font-family="Arial" font-size="14.00" fill="#000000">    </text>
<text text-anchor="start" x="3180.945" y="-1321.3" font-family="Arial" font-size="14.00" fill="#666666">[BASE TABLE]</text>
<polygon fill="none" stroke="#000000" points="2913,-1278.5 2913,-1308.5 3281,-1308.5 3281,-1278.5 2913,-1278.5"/>
<text text-anchor="start" x="2920" y="-1289.9" font-family="Arial" font-size="14.00" fill="#000000">temporary_user_code_id    </text>
<text text-anchor="start" x="3109.0182" y="-1289.9" font-family="Arial" font-size="14.00" fill="#666666">[bigint]</text>
<polygon fill="none" stroke="#000000" points="2913,-1248.5 2913,-1278.5 3281,-1278.5 3281,-1248.5 2913,-1248.5"/>
<text text-anchor="start" x="2920" y="-1259.9" font-family="Arial" font-size="14.00" fill="#000000">temporary_user_id    </text>
<text text-anchor="start" x="3070.8878" y="-1259.9" font-family="Arial" font-size="14.00" fill="#666666">[bigint]</text>
<polygon fill="none" stroke="#000000" points="2913,-1218.5 2913,-1248.5 3281,-1248.5 3281,-1218.5 2913,-1218.5"/>
<text text-anchor="start" x="2920" y="-1229.9" font-family="Arial" font-size="14.00" fill="#000000">token    </text>
<text text-anchor="start" x="2988.4432" y="-1229.9" font-family="Arial" font-size="14.00" fill="#666666">[varchar(255)]</text>
<polygon fill="none" stroke="#000000" points="2913,-1188.5 2913,-1218.5 3281,-1218.5 3281,-1188.5 2913,-1188.5"/>
<text text-anchor="start" x="2920" y="-1199.9" font-family="Arial" font-size="14.00" fill="#000000">code    </text>
<text text-anchor="start" x="2984.5526" y="-1199.9" font-family="Arial" font-size="14.00" fill="#666666">[varchar(255)]</text>
<polygon fill="none" stroke="#000000" points="2913,-1158.5 2913,-1188.5 3281,-1188.5 3281,-1158.5 2913,-1158.5"/>
<text text-anchor="start" x="2920" y="-1169.9" font-family="Arial" font-size="14.00" fill="#000000">created_at    </text>
<text text-anchor="start" x="3020.3422" y="-1169.9" font-family="Arial" font-size="14.00" fill="#666666">[timestamp without time zone]</text>
</g>
<!-- public.temporary_user_code&#45;&gt;public.temporary_user -->
<g id="edge3" class="edge">
<title>public.temporary_user_code:temporary_user_id&#45;&gt;public.temporary_user:temporary_user_id</title>
<path fill="none" stroke="#000000" d="M2902.7461,-1262.6221C2850.6507,-1253.0088 2877.6041,-1166.7111 2913,-1116 3005.9533,-982.8272 3163.0467,-1123.1728 3256,-990 3279.7846,-955.9242 3297.5556,-896.5 3256,-896.5"/>
<polygon fill="#000000" stroke="#000000" points="2903.0365,-1262.6468 2912.6161,-1267.9836 2908.0182,-1263.0734 2913,-1263.5 2913,-1263.5 2913,-1263.5 2908.0182,-1263.0734 2913.3839,-1259.0164 2903.0365,-1262.6468 2903.0365,-1262.6468"/>
</g>
<!-- public.organization -->
<g id="node6" class="node">
<title>public.organization</title>
<polygon fill="#efefef" stroke="transparent" points="992,-222.5 992,-257.5 1295,-257.5 1295,-222.5 992,-222.5"/>
<polygon fill="none" stroke="#000000" points="992,-222.5 992,-257.5 1295,-257.5 1295,-222.5 992,-222.5"/>
<text text-anchor="start" x="1004.6983" y="-235.3" font-family="Arial Bold" font-size="18.00" fill="#000000">public.organization</text>
<text text-anchor="start" x="1154.7337" y="-235.3" font-family="Arial" font-size="14.00" fill="#000000">    </text>
<text text-anchor="start" x="1188.9385" y="-235.3" font-family="Arial" font-size="14.00" fill="#666666">[BASE TABLE]</text>
<polygon fill="none" stroke="#000000" points="992,-192.5 992,-222.5 1295,-222.5 1295,-192.5 992,-192.5"/>
<text text-anchor="start" x="999" y="-203.9" font-family="Arial" font-size="14.00" fill="#000000">organization_id    </text>
<text text-anchor="start" x="1128.1192" y="-203.9" font-family="Arial" font-size="14.00" fill="#666666">[bigint]</text>
<polygon fill="none" stroke="#000000" points="992,-162.5 992,-192.5 1295,-192.5 1295,-162.5 992,-162.5"/>
<text text-anchor="start" x="999" y="-173.9" font-family="Arial" font-size="14.00" fill="#000000">organization_name    </text>
<text text-anchor="start" x="1152.2384" y="-173.9" font-family="Arial" font-size="14.00" fill="#666666">[varchar(255)]</text>
<polygon fill="none" stroke="#000000" points="992,-132.5 992,-162.5 1295,-162.5 1295,-132.5 992,-132.5"/>
<text text-anchor="start" x="999" y="-143.9" font-family="Arial" font-size="14.00" fill="#000000">display_name    </text>
<text text-anchor="start" x="1119.5568" y="-143.9" font-family="Arial" font-size="14.00" fill="#666666">[varchar(255)]</text>
<polygon fill="none" stroke="#000000" points="992,-102.5 992,-132.5 1295,-132.5 1295,-102.5 992,-102.5"/>
<text text-anchor="start" x="999" y="-113.9" font-family="Arial" font-size="14.00" fill="#000000">created_at    </text>
<text text-anchor="start" x="1099.3422" y="-113.9" font-family="Arial" font-size="14.00" fill="#666666">[timestamp without time zone]</text>
<polygon fill="none" stroke="#000000" points="992,-72.5 992,-102.5 1295,-102.5 1295,-72.5 992,-72.5"/>
<text text-anchor="start" x="998.8065" y="-83.9" font-family="Arial" font-size="14.00" fill="#000000">updated_at    </text>
<text text-anchor="start" x="1103.0533" y="-83.9" font-family="Arial" font-size="14.00" fill="#666666">[timestamp without time zone]</text>
<polygon fill="none" stroke="#000000" points="992,-42.5 992,-72.5 1295,-72.5 1295,-42.5 992,-42.5"/>
<text text-anchor="start" x="999" y="-53.9" font-family="Arial" font-size="14.00" fill="#000000">is_deleted    </text>
<text text-anchor="start" x="1097.0042" y="-53.9" font-family="Arial" font-size="14.00" fill="#666666">[boolean]</text>
</g>
<!-- public.organization_member_authority -->
<g id="node7" class="node">
<title>public.organization_member_authority</title>
<polygon fill="#efefef" stroke="transparent" points="43,-896.5 43,-931.5 489,-931.5 489,-896.5 43,-896.5"/>
<polygon fill="none" stroke="#000000" points="43,-896.5 43,-931.5 489,-931.5 489,-896.5 43,-896.5"/>
<text text-anchor="start" x="49.6867" y="-909.3" font-family="Arial Bold" font-size="18.00" fill="#000000">public.organization_member_authority</text>
<text text-anchor="start" x="354.7453" y="-909.3" font-family="Arial" font-size="14.00" fill="#000000">    </text>
<text text-anchor="start" x="388.9501" y="-909.3" font-family="Arial" font-size="14.00" fill="#666666">[BASE TABLE]</text>
<polygon fill="none" stroke="#000000" points="43,-866.5 43,-896.5 489,-896.5 489,-866.5 43,-866.5"/>
<text text-anchor="start" x="50" y="-877.9" font-family="Arial" font-size="14.00" fill="#000000">organization_member_authority_id    </text>
<text text-anchor="start" x="299.6928" y="-877.9" font-family="Arial" font-size="14.00" fill="#666666">[bigint]</text>
<polygon fill="none" stroke="#000000" points="43,-836.5 43,-866.5 489,-866.5 489,-836.5 43,-836.5"/>
<text text-anchor="start" x="50" y="-847.9" font-family="Arial" font-size="14.00" fill="#000000">symbol    </text>
<text text-anchor="start" x="128.5372" y="-847.9" font-family="Arial" font-size="14.00" fill="#666666">[varchar(255)]</text>
<polygon fill="none" stroke="#000000" points="43,-806.5 43,-836.5 489,-836.5 489,-806.5 43,-806.5"/>
<text text-anchor="start" x="50" y="-817.9" font-family="Arial" font-size="14.00" fill="#000000">value    </text>
<text text-anchor="start" x="117.6592" y="-817.9" font-family="Arial" font-size="14.00" fill="#666666">[integer]</text>
</g>
<!-- public.organization_member -->
<g id="node8" class="node">
<title>public.organization_member</title>
<polygon fill="#efefef" stroke="transparent" points="376,-1293.5 376,-1328.5 743,-1328.5 743,-1293.5 376,-1293.5"/>
<polygon fill="none" stroke="#000000" points="376,-1293.5 376,-1328.5 743,-1328.5 743,-1293.5 376,-1293.5"/>
<text text-anchor="start" x="382.6976" y="-1306.3" font-family="Arial Bold" font-size="18.00" fill="#000000">public.organization_member</text>
<text text-anchor="start" x="608.7344" y="-1306.3" font-family="Arial" font-size="14.00" fill="#000000">    </text>
<text text-anchor="start" x="642.9392" y="-1306.3" font-family="Arial" font-size="14.00" fill="#666666">[BASE TABLE]</text>
<polygon fill="none" stroke="#000000" points="376,-1263.5 376,-1293.5 743,-1293.5 743,-1263.5 376,-1263.5"/>
<text text-anchor="start" x="383" y="-1274.9" font-family="Arial" font-size="14.00" fill="#000000">organization_member_id    </text>
<text text-anchor="start" x="571.2314" y="-1274.9" font-family="Arial" font-size="14.00" fill="#666666">[bigint]</text>
<polygon fill="none" stroke="#000000" points="376,-1233.5 376,-1263.5 743,-1263.5 743,-1233.5 376,-1233.5"/>
<text text-anchor="start" x="383" y="-1244.9" font-family="Arial" font-size="14.00" fill="#000000">organization_id    </text>
<text text-anchor="start" x="512.1192" y="-1244.9" font-family="Arial" font-size="14.00" fill="#666666">[bigint]</text>
<polygon fill="none" stroke="#000000" points="376,-1203.5 376,-1233.5 743,-1233.5 743,-1203.5 376,-1203.5"/>
<text text-anchor="start" x="383" y="-1214.9" font-family="Arial" font-size="14.00" fill="#000000">user_account_id    </text>
<text text-anchor="start" x="519.906" y="-1214.9" font-family="Arial" font-size="14.00" fill="#666666">[bigint]</text>
<polygon fill="none" stroke="#000000" points="376,-1173.5 376,-1203.5 743,-1203.5 743,-1173.5 376,-1173.5"/>
<text text-anchor="start" x="383" y="-1184.9" font-family="Arial" font-size="14.00" fill="#000000">organization_member_authority_id    </text>
<text text-anchor="start" x="632.6928" y="-1184.9" font-family="Arial" font-size="14.00" fill="#666666">[bigint]</text>
</g>
<!-- public.organization_member&#45;&gt;public.user_account -->
<g id="edge4" class="edge">
<title>public.organization_member:user_account_id&#45;&gt;public.user_account:user_account_id</title>
<path fill="none" stroke="#000000" d="M753.0322,-1218.4257C960.9873,-1215.3189 999.2751,-1115.5536 1208,-1071 1346.2387,-1041.4921 1396.9327,-1096.9236 1524,-1035 1576.4071,-1009.4605 1557.7011,-941.5 1616,-941.5"/>
<polygon fill="#000000" stroke="#000000" points="752.9997,-1218.4259 742.9666,-1214.0001 747.9999,-1218.4629 743,-1218.5 743,-1218.5 743,-1218.5 747.9999,-1218.4629 743.0334,-1222.9999 752.9997,-1218.4259 752.9997,-1218.4259"/>
</g>
<!-- public.organization_member&#45;&gt;public.organization -->
<g id="edge5" class="edge">
<title>public.organization_member:organization_id&#45;&gt;public.organization:organization_id</title>
<path fill="none" stroke="#000000" d="M753.3631,-1247.3474C791.3277,-1237.9315 767.0477,-1172.9414 743,-1131 700.99,-1057.7306 621.01,-1108.2694 579,-1035 542.4132,-971.1891 553.9907,-773.1734 579,-704 676.592,-434.07 704.9697,-207.5 992,-207.5"/>
<polygon fill="#000000" stroke="#000000" points="752.9387,-1247.3946 742.5026,-1244.0276 747.9694,-1247.9473 743,-1248.5 743,-1248.5 743,-1248.5 747.9694,-1247.9473 743.4974,-1252.9724 752.9387,-1247.3946 752.9387,-1247.3946"/>
</g>
<!-- public.organization_member&#45;&gt;public.organization_member_authority -->
<g id="edge6" class="edge">
<title>public.organization_member:organization_member_authority_id&#45;&gt;public.organization_member_authority:organization_member_authority_id</title>
<path fill="none" stroke="#000000" d="M366.1038,-1185.5292C356.4804,-1176.8592 369.5362,-1150.9421 376,-1131 402.3973,-1049.5594 462.6027,-1056.4406 489,-975 501.8131,-935.4691 530.5556,-881.5 489,-881.5"/>
<polygon fill="#000000" stroke="#000000" points="366.4222,-1185.6248 374.7061,-1192.81 371.2111,-1187.0624 376,-1188.5 376,-1188.5 376,-1188.5 371.2111,-1187.0624 377.2939,-1184.19 366.4222,-1185.6248 366.4222,-1185.6248"/>
</g>
<!-- public.workspace -->
<g id="node9" class="node">
<title>public.workspace</title>
<polygon fill="#efefef" stroke="transparent" points="1577,-589.5 1577,-624.5 1880,-624.5 1880,-589.5 1577,-589.5"/>
<polygon fill="none" stroke="#000000" points="1577,-589.5 1577,-624.5 1880,-624.5 1880,-589.5 1577,-589.5"/>
<text text-anchor="start" x="1595.7058" y="-602.3" font-family="Arial Bold" font-size="18.00" fill="#000000">public.workspace</text>
<text text-anchor="start" x="1733.7262" y="-602.3" font-family="Arial" font-size="14.00" fill="#000000">    </text>
<text text-anchor="start" x="1767.931" y="-602.3" font-family="Arial" font-size="14.00" fill="#666666">[BASE TABLE]</text>
<polygon fill="none" stroke="#000000" points="1577,-559.5 1577,-589.5 1880,-589.5 1880,-559.5 1577,-559.5"/>
<text text-anchor="start" x="1584" y="-570.9" font-family="Arial" font-size="14.00" fill="#000000">workspace_id    </text>
<text text-anchor="start" x="1703.7742" y="-570.9" font-family="Arial" font-size="14.00" fill="#666666">[bigint]</text>
<polygon fill="none" stroke="#000000" points="1577,-529.5 1577,-559.5 1880,-559.5 1880,-529.5 1577,-529.5"/>
<text text-anchor="start" x="1584" y="-540.9" font-family="Arial" font-size="14.00" fill="#000000">workspace_name    </text>
<text text-anchor="start" x="1727.8934" y="-540.9" font-family="Arial" font-size="14.00" fill="#666666">[varchar(255)]</text>
<polygon fill="none" stroke="#000000" points="1577,-499.5 1577,-529.5 1880,-529.5 1880,-499.5 1577,-499.5"/>
<text text-anchor="start" x="1584" y="-510.9" font-family="Arial" font-size="14.00" fill="#000000">display_name    </text>
<text text-anchor="start" x="1704.5568" y="-510.9" font-family="Arial" font-size="14.00" fill="#666666">[varchar(255)]</text>
<polygon fill="none" stroke="#000000" points="1577,-469.5 1577,-499.5 1880,-499.5 1880,-469.5 1577,-469.5"/>
<text text-anchor="start" x="1584" y="-480.9" font-family="Arial" font-size="14.00" fill="#000000">organization_id    </text>
<text text-anchor="start" x="1713.1192" y="-480.9" font-family="Arial" font-size="14.00" fill="#666666">[bigint]</text>
<polygon fill="none" stroke="#000000" points="1577,-439.5 1577,-469.5 1880,-469.5 1880,-439.5 1577,-439.5"/>
<text text-anchor="start" x="1584" y="-450.9" font-family="Arial" font-size="14.00" fill="#000000">created_at    </text>
<text text-anchor="start" x="1684.3422" y="-450.9" font-family="Arial" font-size="14.00" fill="#666666">[timestamp without time zone]</text>
<polygon fill="none" stroke="#000000" points="1577,-409.5 1577,-439.5 1880,-439.5 1880,-409.5 1577,-409.5"/>
<text text-anchor="start" x="1583.8065" y="-420.9" font-family="Arial" font-size="14.00" fill="#000000">updated_at    </text>
<text text-anchor="start" x="1688.0533" y="-420.9" font-family="Arial" font-size="14.00" fill="#666666">[timestamp without time zone]</text>
<polygon fill="none" stroke="#000000" points="1577,-379.5 1577,-409.5 1880,-409.5 1880,-379.5 1577,-379.5"/>
<text text-anchor="start" x="1584" y="-390.9" font-family="Arial" font-size="14.00" fill="#000000">is_deleted    </text>
<text text-anchor="start" x="1682.0042" y="-390.9" font-family="Arial" font-size="14.00" fill="#666666">[boolean]</text>
</g>
<!-- public.workspace&#45;&gt;public.organization -->
<g id="edge7" class="edge">
<title>public.workspace:organization_id&#45;&gt;public.organization:organization_id</title>
<path fill="none" stroke="#000000" d="M1566.71,-483.6765C1513.756,-474.3144 1566.4488,-387.3416 1524,-337 1448.6266,-247.612 1411.9246,-207.5 1295,-207.5"/>
<polygon fill="#000000" stroke="#000000" points="1567.0319,-483.7022 1576.641,-488.9857 1572.0159,-484.1011 1577,-484.5 1577,-484.5 1577,-484.5 1572.0159,-484.1011 1577.359,-480.0143 1567.0319,-483.7022 1567.0319,-483.7022"/>
</g>
<!-- public.workspace_member_authority -->
<g id="node10" class="node">
<title>public.workspace_member_authority</title>
<polygon fill="#efefef" stroke="transparent" points="631,-896.5 631,-931.5 1065,-931.5 1065,-896.5 631,-896.5"/>
<polygon fill="none" stroke="#000000" points="631,-896.5 631,-931.5 1065,-931.5 1065,-896.5 631,-896.5"/>
<text text-anchor="start" x="637.6942" y="-909.3" font-family="Arial Bold" font-size="18.00" fill="#000000">public.workspace_member_authority</text>
<text text-anchor="start" x="930.7378" y="-909.3" font-family="Arial" font-size="14.00" fill="#000000">    </text>
<text text-anchor="start" x="964.9426" y="-909.3" font-family="Arial" font-size="14.00" fill="#666666">[BASE TABLE]</text>
<polygon fill="none" stroke="#000000" points="631,-866.5 631,-896.5 1065,-896.5 1065,-866.5 631,-866.5"/>
<text text-anchor="start" x="638" y="-877.9" font-family="Arial" font-size="14.00" fill="#000000">workspace_member_authority_id    </text>
<text text-anchor="start" x="878.3478" y="-877.9" font-family="Arial" font-size="14.00" fill="#666666">[bigint]</text>
<polygon fill="none" stroke="#000000" points="631,-836.5 631,-866.5 1065,-866.5 1065,-836.5 631,-836.5"/>
<text text-anchor="start" x="638" y="-847.9" font-family="Arial" font-size="14.00" fill="#000000">symbol    </text>
<text text-anchor="start" x="716.5372" y="-847.9" font-family="Arial" font-size="14.00" fill="#666666">[varchar(255)]</text>
<polygon fill="none" stroke="#000000" points="631,-806.5 631,-836.5 1065,-836.5 1065,-806.5 631,-806.5"/>
<text text-anchor="start" x="638" y="-817.9" font-family="Arial" font-size="14.00" fill="#000000">value    </text>
<text text-anchor="start" x="705.6592" y="-817.9" font-family="Arial" font-size="14.00" fill="#666666">[integer]</text>
</g>
<!-- public.workspace_member -->
<g id="node11" class="node">
<title>public.workspace_member</title>
<polygon fill="#efefef" stroke="transparent" points="1261,-1293.5 1261,-1328.5 1616,-1328.5 1616,-1293.5 1261,-1293.5"/>
<polygon fill="none" stroke="#000000" points="1261,-1293.5 1261,-1328.5 1616,-1328.5 1616,-1293.5 1261,-1293.5"/>
<text text-anchor="start" x="1267.7051" y="-1306.3" font-family="Arial Bold" font-size="18.00" fill="#000000">public.workspace_member</text>
<text text-anchor="start" x="1481.7269" y="-1306.3" font-family="Arial" font-size="14.00" fill="#000000">    </text>
<text text-anchor="start" x="1515.9317" y="-1306.3" font-family="Arial" font-size="14.00" fill="#666666">[BASE TABLE]</text>
<polygon fill="none" stroke="#000000" points="1261,-1263.5 1261,-1293.5 1616,-1293.5 1616,-1263.5 1261,-1263.5"/>
<text text-anchor="start" x="1268" y="-1274.9" font-family="Arial" font-size="14.00" fill="#000000">workspace_member_id    </text>
<text text-anchor="start" x="1446.8864" y="-1274.9" font-family="Arial" font-size="14.00" fill="#666666">[bigint]</text>
<polygon fill="none" stroke="#000000" points="1261,-1233.5 1261,-1263.5 1616,-1263.5 1616,-1233.5 1261,-1233.5"/>
<text text-anchor="start" x="1268" y="-1244.9" font-family="Arial" font-size="14.00" fill="#000000">workspace_id    </text>
<text text-anchor="start" x="1387.7742" y="-1244.9" font-family="Arial" font-size="14.00" fill="#666666">[bigint]</text>
<polygon fill="none" stroke="#000000" points="1261,-1203.5 1261,-1233.5 1616,-1233.5 1616,-1203.5 1261,-1203.5"/>
<text text-anchor="start" x="1268" y="-1214.9" font-family="Arial" font-size="14.00" fill="#000000">user_account_id    </text>
<text text-anchor="start" x="1404.906" y="-1214.9" font-family="Arial" font-size="14.00" fill="#666666">[bigint]</text>
<polygon fill="none" stroke="#000000" points="1261,-1173.5 1261,-1203.5 1616,-1203.5 1616,-1173.5 1261,-1173.5"/>
<text text-anchor="start" x="1268" y="-1184.9" font-family="Arial" font-size="14.00" fill="#000000">workspace_member_authority_id    </text>
<text text-anchor="start" x="1508.3478" y="-1184.9" font-family="Arial" font-size="14.00" fill="#666666">[bigint]</text>
</g>
<!-- public.workspace_member&#45;&gt;public.user_account -->
<g id="edge8" class="edge">
<title>public.workspace_member:user_account_id&#45;&gt;public.user_account:user_account_id</title>
<path fill="none" stroke="#000000" d="M1626.186,-1217.7538C1724.5416,-1201.9824 1496.6159,-941.5 1616,-941.5"/>
<polygon fill="#000000" stroke="#000000" points="1625.9733,-1217.7693 1615.6712,-1214.012 1620.9866,-1218.1346 1616,-1218.5 1616,-1218.5 1616,-1218.5 1620.9866,-1218.1346 1616.3288,-1222.988 1625.9733,-1217.7693 1625.9733,-1217.7693"/>
</g>
<!-- public.workspace_member&#45;&gt;public.workspace -->
<g id="edge9" class="edge">
<title>public.workspace_member:workspace_id&#45;&gt;public.workspace:workspace_id</title>
<path fill="none" stroke="#000000" d="M1626.1384,-1247.8296C1713.2355,-1235.3417 1567.4748,-1052.3639 1563,-1035 1550.2252,-985.4293 1525.8097,-574.5 1577,-574.5"/>
<polygon fill="#000000" stroke="#000000" points="1625.9782,-1247.8401 1615.7031,-1244.0098 1620.9891,-1248.1701 1616,-1248.5 1616,-1248.5 1616,-1248.5 1620.9891,-1248.1701 1616.2969,-1252.9902 1625.9782,-1247.8401 1625.9782,-1247.8401"/>
</g>
<!-- public.workspace_member&#45;&gt;public.workspace_member_authority -->
<g id="edge10" class="edge">
<title>public.workspace_member:workspace_member_authority_id&#45;&gt;public.workspace_member_authority:workspace_member_authority_id</title>
<path fill="none" stroke="#000000" d="M1250.9558,-1188.2007C1167.219,-1183.0524 1163.3131,-1112.2527 1117,-1035 1079.9633,-973.2207 1137.0305,-881.5 1065,-881.5"/>
<polygon fill="#000000" stroke="#000000" points="1251.0044,-1188.202 1260.8659,-1192.998 1256.0022,-1188.351 1261,-1188.5 1261,-1188.5 1261,-1188.5 1256.0022,-1188.351 1261.1341,-1184.002 1251.0044,-1188.202 1251.0044,-1188.202"/>
</g>
<!-- public.project -->
<g id="node12" class="node">
<title>public.project</title>
<polygon fill="#efefef" stroke="transparent" points="2023,-956.5 2023,-991.5 2326,-991.5 2326,-956.5 2023,-956.5"/>
<polygon fill="none" stroke="#000000" points="2023,-956.5 2023,-991.5 2326,-991.5 2326,-956.5 2023,-956.5"/>
<text text-anchor="start" x="2057.7078" y="-969.3" font-family="Arial Bold" font-size="18.00" fill="#000000">public.project</text>
<text text-anchor="start" x="2163.7242" y="-969.3" font-family="Arial" font-size="14.00" fill="#000000">    </text>
<text text-anchor="start" x="2197.929" y="-969.3" font-family="Arial" font-size="14.00" fill="#666666">[BASE TABLE]</text>
<polygon fill="none" stroke="#000000" points="2023,-926.5 2023,-956.5 2326,-956.5 2326,-926.5 2023,-926.5"/>
<text text-anchor="start" x="2030" y="-937.9" font-family="Arial" font-size="14.00" fill="#000000">project_id    </text>
<text text-anchor="start" x="2124.8822" y="-937.9" font-family="Arial" font-size="14.00" fill="#666666">[bigint]</text>
<polygon fill="none" stroke="#000000" points="2023,-896.5 2023,-926.5 2326,-926.5 2326,-896.5 2023,-896.5"/>
<text text-anchor="start" x="2030" y="-907.9" font-family="Arial" font-size="14.00" fill="#000000">project_name    </text>
<text text-anchor="start" x="2149.0014" y="-907.9" font-family="Arial" font-size="14.00" fill="#666666">[varchar(255)]</text>
<polygon fill="none" stroke="#000000" points="2023,-866.5 2023,-896.5 2326,-896.5 2326,-866.5 2023,-866.5"/>
<text text-anchor="start" x="2030" y="-877.9" font-family="Arial" font-size="14.00" fill="#000000">display_name    </text>
<text text-anchor="start" x="2150.5568" y="-877.9" font-family="Arial" font-size="14.00" fill="#666666">[varchar(255)]</text>
<polygon fill="none" stroke="#000000" points="2023,-836.5 2023,-866.5 2326,-866.5 2326,-836.5 2023,-836.5"/>
<text text-anchor="start" x="2030" y="-847.9" font-family="Arial" font-size="14.00" fill="#000000">workspace_id    </text>
<text text-anchor="start" x="2149.7742" y="-847.9" font-family="Arial" font-size="14.00" fill="#666666">[bigint]</text>
<polygon fill="none" stroke="#000000" points="2023,-806.5 2023,-836.5 2326,-836.5 2326,-806.5 2023,-806.5"/>
<text text-anchor="start" x="2030" y="-817.9" font-family="Arial" font-size="14.00" fill="#000000">created_at    </text>
<text text-anchor="start" x="2130.3422" y="-817.9" font-family="Arial" font-size="14.00" fill="#666666">[timestamp without time zone]</text>
<polygon fill="none" stroke="#000000" points="2023,-776.5 2023,-806.5 2326,-806.5 2326,-776.5 2023,-776.5"/>
<text text-anchor="start" x="2029.8065" y="-787.9" font-family="Arial" font-size="14.00" fill="#000000">updated_at    </text>
<text text-anchor="start" x="2134.0533" y="-787.9" font-family="Arial" font-size="14.00" fill="#666666">[timestamp without time zone]</text>
<polygon fill="none" stroke="#000000" points="2023,-746.5 2023,-776.5 2326,-776.5 2326,-746.5 2023,-746.5"/>
<text text-anchor="start" x="2030" y="-757.9" font-family="Arial" font-size="14.00" fill="#000000">is_deleted    </text>
<text text-anchor="start" x="2128.0042" y="-757.9" font-family="Arial" font-size="14.00" fill="#666666">[boolean]</text>
</g>
<!-- public.project&#45;&gt;public.workspace -->
<g id="edge11" class="edge">
<title>public.project:workspace_id&#45;&gt;public.workspace:workspace_id</title>
<path fill="none" stroke="#000000" d="M2012.9371,-850.802C1958.2415,-842.5388 2000.2454,-762.6458 1970,-704 1937.8732,-641.7062 1950.0902,-574.5 1880,-574.5"/>
<polygon fill="#000000" stroke="#000000" points="2013.024,-850.8079 2022.6886,-855.9892 2018.012,-851.154 2023,-851.5 2023,-851.5 2023,-851.5 2018.012,-851.154 2023.3114,-847.0108 2013.024,-850.8079 2013.024,-850.8079"/>
</g>
<!-- public.project_member_authority -->
<g id="node13" class="node">
<title>public.project_member_authority</title>
<polygon fill="#efefef" stroke="transparent" points="2430,-896.5 2430,-931.5 2832,-931.5 2832,-896.5 2430,-896.5"/>
<polygon fill="none" stroke="#000000" points="2430,-896.5 2430,-931.5 2832,-931.5 2832,-896.5 2430,-896.5"/>
<text text-anchor="start" x="2436.6962" y="-909.3" font-family="Arial Bold" font-size="18.00" fill="#000000">public.project_member_authority</text>
<text text-anchor="start" x="2697.7358" y="-909.3" font-family="Arial" font-size="14.00" fill="#000000">    </text>
<text text-anchor="start" x="2731.9406" y="-909.3" font-family="Arial" font-size="14.00" fill="#666666">[BASE TABLE]</text>
<polygon fill="none" stroke="#000000" points="2430,-866.5 2430,-896.5 2832,-896.5 2832,-866.5 2430,-866.5"/>
<text text-anchor="start" x="2437" y="-877.9" font-family="Arial" font-size="14.00" fill="#000000">project_member_authority_id    </text>
<text text-anchor="start" x="2652.4558" y="-877.9" font-family="Arial" font-size="14.00" fill="#666666">[bigint]</text>
<polygon fill="none" stroke="#000000" points="2430,-836.5 2430,-866.5 2832,-866.5 2832,-836.5 2430,-836.5"/>
<text text-anchor="start" x="2437" y="-847.9" font-family="Arial" font-size="14.00" fill="#000000">symbol    </text>
<text text-anchor="start" x="2515.5372" y="-847.9" font-family="Arial" font-size="14.00" fill="#666666">[varchar(255)]</text>
<polygon fill="none" stroke="#000000" points="2430,-806.5 2430,-836.5 2832,-836.5 2832,-806.5 2430,-806.5"/>
<text text-anchor="start" x="2437" y="-817.9" font-family="Arial" font-size="14.00" fill="#000000">value    </text>
<text text-anchor="start" x="2504.6592" y="-817.9" font-family="Arial" font-size="14.00" fill="#666666">[integer]</text>
</g>
<!-- public.project_member -->
<g id="node14" class="node">
<title>public.project_member</title>
<polygon fill="#efefef" stroke="transparent" points="2127,-1293.5 2127,-1328.5 2450,-1328.5 2450,-1293.5 2127,-1293.5"/>
<polygon fill="none" stroke="#000000" points="2127,-1293.5 2127,-1328.5 2450,-1328.5 2450,-1293.5 2127,-1293.5"/>
<text text-anchor="start" x="2133.7071" y="-1306.3" font-family="Arial Bold" font-size="18.00" fill="#000000">public.project_member</text>
<text text-anchor="start" x="2315.7249" y="-1306.3" font-family="Arial" font-size="14.00" fill="#000000">    </text>
<text text-anchor="start" x="2349.9297" y="-1306.3" font-family="Arial" font-size="14.00" fill="#666666">[BASE TABLE]</text>
<polygon fill="none" stroke="#000000" points="2127,-1263.5 2127,-1293.5 2450,-1293.5 2450,-1263.5 2127,-1263.5"/>
<text text-anchor="start" x="2134" y="-1274.9" font-family="Arial" font-size="14.00" fill="#000000">project_member_id    </text>
<text text-anchor="start" x="2287.9944" y="-1274.9" font-family="Arial" font-size="14.00" fill="#666666">[bigint]</text>
<polygon fill="none" stroke="#000000" points="2127,-1233.5 2127,-1263.5 2450,-1263.5 2450,-1233.5 2127,-1233.5"/>
<text text-anchor="start" x="2134" y="-1244.9" font-family="Arial" font-size="14.00" fill="#000000">project_id    </text>
<text text-anchor="start" x="2228.8822" y="-1244.9" font-family="Arial" font-size="14.00" fill="#666666">[bigint]</text>
<polygon fill="none" stroke="#000000" points="2127,-1203.5 2127,-1233.5 2450,-1233.5 2450,-1203.5 2127,-1203.5"/>
<text text-anchor="start" x="2134" y="-1214.9" font-family="Arial" font-size="14.00" fill="#000000">user_account_id    </text>
<text text-anchor="start" x="2270.906" y="-1214.9" font-family="Arial" font-size="14.00" fill="#666666">[bigint]</text>
<polygon fill="none" stroke="#000000" points="2127,-1173.5 2127,-1203.5 2450,-1203.5 2450,-1173.5 2127,-1173.5"/>
<text text-anchor="start" x="2134" y="-1184.9" font-family="Arial" font-size="14.00" fill="#000000">project_member_authority_id    </text>
<text text-anchor="start" x="2349.4558" y="-1184.9" font-family="Arial" font-size="14.00" fill="#666666">[bigint]</text>
</g>
<!-- public.project_member&#45;&gt;public.user_account -->
<g id="edge12" class="edge">
<title>public.project_member:user_account_id&#45;&gt;public.user_account:user_account_id</title>
<path fill="none" stroke="#000000" d="M2116.7494,-1217.6402C2064.2357,-1207.8712 2120.8346,-1117.2893 2074,-1071 2039.2113,-1036.6163 2007.3368,-1066.5984 1970,-1035 1933.8675,-1004.4208 1966.3354,-941.5 1919,-941.5"/>
<polygon fill="#000000" stroke="#000000" points="2117.035,-1217.664 2126.6238,-1222.9843 2122.0175,-1218.082 2127,-1218.5 2127,-1218.5 2127,-1218.5 2122.0175,-1218.082 2127.3762,-1214.0157 2117.035,-1217.664 2117.035,-1217.664"/>
</g>
<!-- public.project_member&#45;&gt;public.project -->
<g id="edge13" class="edge">
<title>public.project_member:project_id&#45;&gt;public.project:project_id</title>
<path fill="none" stroke="#000000" d="M2116.6095,-1247.331C2078.4258,-1237.7836 2101.2921,-1171.9448 2127,-1131 2179.2163,-1047.8356 2273.7837,-1118.1644 2326,-1035 2348.0969,-999.8064 2367.5556,-941.5 2326,-941.5"/>
<polygon fill="#000000" stroke="#000000" points="2117.0627,-1247.3819 2126.4968,-1252.9718 2122.0313,-1247.9409 2127,-1248.5 2127,-1248.5 2127,-1248.5 2122.0313,-1247.9409 2127.5032,-1244.0282 2117.0627,-1247.3819 2117.0627,-1247.3819"/>
</g>
<!-- public.project_member&#45;&gt;public.project_member_authority -->
<g id="edge14" class="edge">
<title>public.project_member:project_member_authority_id&#45;&gt;public.project_member_authority:project_member_authority_id</title>
<path fill="none" stroke="#000000" d="M2460.2691,-1187.8239C2571.0063,-1171.9405 2297.0051,-881.5 2430,-881.5"/>
<polygon fill="#000000" stroke="#000000" points="2459.9784,-1187.843 2449.7043,-1184.0097 2454.9892,-1188.1715 2450,-1188.5 2450,-1188.5 2450,-1188.5 2454.9892,-1188.1715 2450.2957,-1192.9903 2459.9784,-1187.843 2459.9784,-1187.843"/>
</g>
<!-- public.task -->
<g id="node15" class="node">
<title>public.task</title>
<polygon fill="#efefef" stroke="transparent" points="1720,-1353.5 1720,-1388.5 2023,-1388.5 2023,-1353.5 1720,-1353.5"/>
<polygon fill="none" stroke="#000000" points="1720,-1353.5 1720,-1388.5 2023,-1388.5 2023,-1353.5 1720,-1353.5"/>
<text text-anchor="start" x="1765.2072" y="-1366.3" font-family="Arial Bold" font-size="18.00" fill="#000000">public.task</text>
<text text-anchor="start" x="1850.2248" y="-1366.3" font-family="Arial" font-size="14.00" fill="#000000">    </text>
<text text-anchor="start" x="1884.4296" y="-1366.3" font-family="Arial" font-size="14.00" fill="#666666">[BASE TABLE]</text>
<polygon fill="none" stroke="#000000" points="1720,-1323.5 1720,-1353.5 2023,-1353.5 2023,-1323.5 1720,-1323.5"/>
<text text-anchor="start" x="1727" y="-1334.9" font-family="Arial" font-size="14.00" fill="#000000">task_id    </text>
<text text-anchor="start" x="1805.5498" y="-1334.9" font-family="Arial" font-size="14.00" fill="#666666">[bigint]</text>
<polygon fill="none" stroke="#000000" points="1720,-1293.5 1720,-1323.5 2023,-1323.5 2023,-1293.5 1720,-1293.5"/>
<text text-anchor="start" x="1727" y="-1304.9" font-family="Arial" font-size="14.00" fill="#000000">project_id    </text>
<text text-anchor="start" x="1821.8822" y="-1304.9" font-family="Arial" font-size="14.00" fill="#666666">[bigint]</text>
<polygon fill="none" stroke="#000000" points="1720,-1263.5 1720,-1293.5 2023,-1293.5 2023,-1263.5 1720,-1263.5"/>
<text text-anchor="start" x="1727" y="-1274.9" font-family="Arial" font-size="14.00" fill="#000000">owner_user_account_id    </text>
<text text-anchor="start" x="1909.8036" y="-1274.9" font-family="Arial" font-size="14.00" fill="#666666">[bigint]</text>
<polygon fill="none" stroke="#000000" points="1720,-1233.5 1720,-1263.5 2023,-1263.5 2023,-1233.5 1720,-1233.5"/>
<text text-anchor="start" x="1727" y="-1244.9" font-family="Arial" font-size="14.00" fill="#000000">title    </text>
<text text-anchor="start" x="1782.9818" y="-1244.9" font-family="Arial" font-size="14.00" fill="#666666">[varchar(255)]</text>
<polygon fill="none" stroke="#000000" points="1720,-1203.5 1720,-1233.5 2023,-1233.5 2023,-1203.5 1720,-1203.5"/>
<text text-anchor="start" x="1727" y="-1214.9" font-family="Arial" font-size="14.00" fill="#000000">content    </text>
<text text-anchor="start" x="1807.1164" y="-1214.9" font-family="Arial" font-size="14.00" fill="#666666">[text]</text>
<polygon fill="none" stroke="#000000" points="1720,-1173.5 1720,-1203.5 2023,-1203.5 2023,-1173.5 1720,-1173.5"/>
<text text-anchor="start" x="1727" y="-1184.9" font-family="Arial" font-size="14.00" fill="#000000">created_at    </text>
<text text-anchor="start" x="1827.3422" y="-1184.9" font-family="Arial" font-size="14.00" fill="#666666">[timestamp without time zone]</text>
<polygon fill="none" stroke="#000000" points="1720,-1143.5 1720,-1173.5 2023,-1173.5 2023,-1143.5 1720,-1143.5"/>
<text text-anchor="start" x="1726.8065" y="-1154.9" font-family="Arial" font-size="14.00" fill="#000000">updated_at    </text>
<text text-anchor="start" x="1831.0533" y="-1154.9" font-family="Arial" font-size="14.00" fill="#666666">[timestamp without time zone]</text>
<polygon fill="none" stroke="#000000" points="1720,-1113.5 1720,-1143.5 2023,-1143.5 2023,-1113.5 1720,-1113.5"/>
<text text-anchor="start" x="1727" y="-1124.9" font-family="Arial" font-size="14.00" fill="#000000">is_deleted    </text>
<text text-anchor="start" x="1825.0042" y="-1124.9" font-family="Arial" font-size="14.00" fill="#666666">[boolean]</text>
</g>
<!-- public.task&#45;&gt;public.user_account -->
<g id="edge15" class="edge">
<title>public.task:owner_user_account_id&#45;&gt;public.user_account:user_account_id</title>
<path fill="none" stroke="#000000" d="M1710.3164,-1275.4958C1676.5542,-1252.4421 1692.7482,-1103.6241 1720,-1071 1777.6209,-1002.0199 1861.3791,-1103.9801 1919,-1035 1945.6407,-1003.1074 1960.5556,-941.5 1919,-941.5"/>
<polygon fill="#000000" stroke="#000000" points="1710.4491,-1275.5369 1718.6666,-1282.7979 1715.2245,-1277.0185 1720,-1278.5 1720,-1278.5 1720,-1278.5 1715.2245,-1277.0185 1721.3334,-1274.2021 1710.4491,-1275.5369 1710.4491,-1275.5369"/>
</g>
<!-- public.task&#45;&gt;public.project -->
<g id="edge16" class="edge">
<title>public.task:project_id&#45;&gt;public.project:project_id</title>
<path fill="none" stroke="#000000" d="M2023,-1298.3013C2023,-1239.0281 2023,-941.5 2023,-941.5"/>
<polygon fill="#000000" stroke="#000000" points="2023.0001,-1298.5 2018.5,-1308.5 2023,-1303.5 2023,-1308.5 2023,-1308.5 2023,-1308.5 2023,-1303.5 2027.5,-1308.5 2023.0001,-1298.5 2023.0001,-1298.5"/>
</g>
</g>
</svg>
